<?xml version="1.0" encoding="utf-8"?>
<!-- Generator: Adobe Illustrator 16.0.0, SVG Export Plug-In . SVG Version: 6.00 Build 0)  -->
<!DOCTYPE svg PUBLIC "-//W3C//DTD SVG 1.1//EN" "http://www.w3.org/Graphics/SVG/1.1/DTD/svg11.dtd">
<svg version="1.1" id="Layer_1" xmlns="http://www.w3.org/2000/svg" xmlns:xlink="http://www.w3.org/1999/xlink" x="0px" y="0px"
	 width="96px" height="96px" viewBox="0 0 96 96" enable-background="new 0 0 96 96" xml:space="preserve">
<path d="M68.917,62.026c0.396-8.484-0.166-17.716-8.697-26.246c-8.53-8.53-17.762-9.093-26.245-8.696
	c0.395-8.484-0.166-17.716-8.696-26.247L20.694,5.42c1.632,1.63,2.876,3.274,3.847,4.938L10.358,24.541
	C8.694,23.57,7.05,22.326,5.42,20.694l-4.583,4.584c8.531,8.53,17.763,9.091,26.247,8.696c-0.396,8.483,0.166,17.715,8.696,26.245
	c8.53,8.531,17.762,9.093,26.246,8.697c-0.396,8.483,0.165,17.716,8.695,26.246l4.584-4.583c-1.948-1.948-3.368-3.914-4.397-5.914
	l13.758-13.758c2,1.029,3.966,2.449,5.914,4.397l4.583-4.584C86.633,62.191,77.4,61.631,68.917,62.026z M27.466,27.467
	c-4.108,0.222-7.978,0.249-11.698-0.698l11.001-11.001C27.716,19.488,27.688,23.357,27.466,27.467z M34.289,45.289
	c-0.947-3.72-0.92-7.589-0.698-11.698c4.109-0.222,7.979-0.249,11.698,0.698L34.289,45.289z M40.361,55.638
	c-1.629-1.631-2.873-3.273-3.845-4.938L50.7,36.518c1.664,0.971,3.308,2.215,4.938,3.845c1.172,1.172,2.133,2.351,2.954,3.539
	l-14.69,14.69C42.713,57.771,41.534,56.81,40.361,55.638z M62.409,62.409c-4.761,0.256-9.197,0.245-13.455-1.233l12.222-12.222
	C62.653,53.212,62.666,57.648,62.409,62.409z M68.957,78.98c-0.657-3.336-0.62-6.797-0.423-10.446
	c3.649-0.197,7.11-0.234,10.446,0.423L68.957,78.98z"/>
</svg>
