<?xml version="1.0" encoding="utf-8"?>
<!-- Generator: Adobe Illustrator 17.1.0, SVG Export Plug-In . SVG Version: 6.00 Build 0)  -->
<!DOCTYPE svg PUBLIC "-//W3C//DTD SVG 1.1//EN" "http://www.w3.org/Graphics/SVG/1.1/DTD/svg11.dtd">
<svg version="1.1" xmlns="http://www.w3.org/2000/svg" xmlns:xlink="http://www.w3.org/1999/xlink" x="0px" y="0px"
	 viewBox="0 0 64 64" enable-background="new 0 0 64 64" xml:space="preserve">
<g id="Imagenes">
</g>
<g id="Layer_2">
	<path d="M39.034,29.8c-1.937-0.531-4.145-0.869-6.61-0.959l-0.21,7.974c2.44,0.094,4.601,0.499,6.472,1.145
		C38.906,35.038,39.018,32.318,39.034,29.8z"/>
	<path d="M39.112,46.707c1.172,1.242,2.162,2.411,2.953,3.512c1.198-1.96,2.224-4.252,3.036-6.809
		c-1.332-1.32-3.034-2.61-5.218-3.588C39.688,42.005,39.432,44.301,39.112,46.707z"/>
	<path d="M39.171,14.494c0.374,1.962,0.68,4.147,0.893,6.573c2.677,0.975,4.975,2.289,6.86,3.628
		c-0.26-2.754-0.738-5.366-1.406-7.781C43.438,15.83,41.305,15.041,39.171,14.494z"/>
	<path d="M33.033,5.692c0.698,0.03,1.397,0.081,2.094,0.149c-0.686-1.557-1.377-2.773-2-3.712L33.033,5.692z"/>
	<path d="M32.459,27.515c2.43,0.088,4.63,0.403,6.575,0.909c-0.016-2.284-0.109-4.399-0.265-6.358
		c-1.875-0.62-3.925-1.044-6.136-1.177L32.459,27.515z"/>
	<path d="M37.308,7.509c0.572,1.585,1.107,3.433,1.57,5.549c2.047,0.481,4.098,1.173,6.114,2.115
		c-0.778-2.377-1.742-4.519-2.859-6.368C40.594,8.208,38.97,7.791,37.308,7.509z"/>
	<path d="M47.163,29.455c0-0.993-0.031-1.973-0.086-2.939c-1.834-1.408-4.145-2.856-6.89-3.946c0.133,1.935,0.201,4.027,0.202,6.261
		c2.71,0.862,4.931,2.032,6.7,3.279C47.135,31.236,47.163,30.352,47.163,29.455z"/>
	<path d="M32.828,13.499l-0.16,6.06c2.143,0.122,4.14,0.489,5.974,1.043c-0.237-2.393-0.567-4.536-0.96-6.451
		C36.047,13.813,34.421,13.603,32.828,13.499z"/>
	<path d="M32.163,2.072c-0.757,0.962-1.586,2.16-2.434,3.596c0.776-0.019,1.557-0.022,2.34-0.014L32.163,2.072z"/>
	<path d="M23.815,21.435c-0.44,0.075-0.877,0.15-1.293,0.235c0.259,1.267,0.551,2.538,0.883,3.788
		C23.51,24.043,23.649,22.707,23.815,21.435z"/>
	<path d="M20.913,10.057c0.075,0.913,0.167,1.897,0.281,2.945c1.402-0.272,2.926-0.505,4.538-0.668c0.618-2.001,1.3-3.712,2-5.165
		c-1.937,0.145-3.799,0.391-5.516,0.683C21.756,8.539,21.325,9.28,20.913,10.057z"/>
	<path d="M38.582,39.322c-1.83-0.659-3.956-1.088-6.403-1.182l-0.052,1.966c2.186,1.917,4.131,3.705,5.795,5.374
		C38.193,43.338,38.415,41.279,38.582,39.322z"/>
	<path d="M32.862,12.178c1.481,0.093,2.991,0.275,4.512,0.56c-0.496-2.117-1.066-3.919-1.659-5.458
		c-0.902-0.106-1.81-0.175-2.718-0.212L32.862,12.178z"/>
	<path d="M30.828,38.977l0.023-0.873c-0.333,0.003-0.655,0.021-0.982,0.033c0.041,0.037,0.08,0.079,0.121,0.115
		C30.277,38.498,30.547,38.735,30.828,38.977z"/>
	<path d="M31.096,28.795c-2.35,0.006-4.505,0.203-6.504,0.511c1.046,2.938,2.365,5.578,4.027,7.542
		c0.738-0.047,1.497-0.068,2.266-0.074L31.096,28.795z"/>
	<path d="M31.668,7.035c-0.778-0.007-1.553,0.006-2.32,0.039c-0.727,1.414-1.453,3.106-2.114,5.134
		c1.386-0.095,2.824-0.132,4.301-0.088L31.668,7.035z"/>
	<path d="M46.971,33.663c-1.684-1.279-3.854-2.525-6.581-3.442c-0.032,2.548-0.167,5.309-0.402,8.255
		c2.254,0.964,4.074,2.23,5.518,3.568C46.225,39.456,46.724,36.638,46.971,33.663z"/>
	<path d="M34.729,2.054c0.652,1.051,1.343,2.363,2.012,3.984c1.411,0.207,2.804,0.51,4.156,0.922
		C39.098,4.552,37.006,2.838,34.729,2.054z"/>
	<path d="M31.305,20.823c-0.03,0-0.057-0.004-0.087-0.004c-2.185,0-4.174,0.156-5.996,0.401c-0.285,2.047-0.498,4.283-0.616,6.728
		c2.008-0.293,4.17-0.479,6.524-0.483L31.305,20.823z"/>
	<path d="M25.334,13.699c-1.415,0.159-2.751,0.375-3.991,0.619c0.23,1.901,0.531,3.95,0.92,6.033
		c0.558-0.113,1.143-0.214,1.743-0.308C24.365,17.678,24.819,15.574,25.334,13.699z"/>
	<path d="M23.379,6.274c1.611-0.242,3.324-0.435,5.091-0.539c1.018-1.846,2.027-3.19,2.877-4.133
		C28.405,1.789,25.671,3.465,23.379,6.274z"/>
	<path d="M31.5,13.438c-1.61-0.049-3.18-0.003-4.678,0.116c-0.535,1.842-1.008,3.938-1.389,6.294
		c1.771-0.219,3.687-0.358,5.786-0.358c0.042,0,0.08,0.006,0.122,0.006L31.5,13.438z"/>
	<path d="M13.735,42.198c0.426,4.015,1.473,7.746,3.428,10.818c4.574,7.187,10.22,8.696,14.15,8.696
		c1.437,0,2.823-0.204,4.111-0.535c-3.508-0.14-6.601-1.35-9.228-3.647c-3.903-3.417-6.754-9.12-8.521-17.018
		c-0.098-0.437-0.186-0.892-0.278-1.342c-0.477-2.358-0.865-4.896-1.159-7.62c-0.05-0.465-0.097-0.936-0.142-1.412
		c-0.058-0.619-0.118-1.236-0.167-1.873c-0.118-1.526-0.199-3.018-0.257-4.467c-0.019-0.486-0.038-0.97-0.052-1.443
		c-0.009-0.315-0.014-0.62-0.021-0.928c-0.08,0.344-0.16,0.688-0.238,1.037c-0.12,0.539-0.235,1.084-0.347,1.634
		c-0.462,2.268-0.846,4.613-1.114,6.971c-0.06,0.526-0.113,1.052-0.16,1.578c-0.244,2.734-0.311,5.463-0.132,8.094
		C13.643,41.23,13.684,41.716,13.735,42.198z"/>
	<path d="M16.999,23.259c0.076,2.049,0.204,4.204,0.406,6.408c0.042,0.462,0.089,0.925,0.137,1.39
		c0.268,2.554,0.639,5.145,1.146,7.677c0.09,0.448,0.183,0.893,0.281,1.337c1.225,5.528,3.139,10.657,6.077,14.313
		c0.629,0.783,1.299,1.509,2.026,2.146c3.352,2.933,11.961,5.811,15.551,0.46c0.983-1.465,0.362-3.477-1.195-5.767
		c-0.678-0.997-1.528-2.045-2.514-3.13c-0.371-0.408-0.759-0.82-1.163-1.236c-1.688-1.736-3.641-3.533-5.662-5.312
		c-0.431-0.38-0.865-0.759-1.3-1.136c-0.444-0.385-0.888-0.768-1.332-1.149c-0.372-0.319-0.718-0.688-1.062-1.06
		c-0.356-0.385-0.693-0.802-1.019-1.238c-1.112-1.485-2.062-3.236-2.866-5.163c-0.317-0.759-0.612-1.541-0.886-2.344
		c-0.128-0.376-0.262-0.747-0.381-1.13c-0.017-0.054-0.037-0.106-0.054-0.16c-0.631-2.046-1.132-4.181-1.542-6.3
		c0,0-1.972-10.221-2.304-13.107C19.343,8.757,16.999,14.35,16.999,23.259z"/>
</g>
</svg>
