<svg width="18.136" xmlns="http://www.w3.org/2000/svg" height="18.134" viewBox="0 0 18.136 18.134" xmlns:xlink="http://www.w3.org/1999/xlink" enable-background="new 0 0 18.136 18.134">
<path d="m10.067,3.851h3.407v3.408h-3.407z"/>
<path d="m3.844,12.556h2.639v1.739h-2.639z"/>
<path d="m14.395,8.181-5.249,0 0-1.773-.861,0 0,2.685 .847,0 0,1.855 0,.737 0,2.63 2.638,0 0-2.63 .871,0 0,2.63 1.719,0 0-2.63 .024,0 0-2.592 .813,0 0-2.685-.802,0z"/>
<path d="m16.281,0h-14.426c-1.025,0-1.855,.829-1.855,1.854v14.426c0,1.025 .83,1.854 1.855,1.854h14.426c1.024,0 1.855-.828 1.855-1.854v-14.426c0-1.025-.831-1.854-1.855-1.854zm-.184,6.408v2.685 .9h-.812v1.691 .899h-.024v1.731 .898h-.901-1.69-.9-2.638-.9v-.898-2.633-.736-.953h-.848-.029-1.77v1.661h.896v.899h.901v1.74 .899h-.901-2.639-.9v-.899-1.74h.9v-.899h.916v-1.661h-1.821l.001-.9h4.416v-3.555h-.869v-.832h-2.678v.832h-.87v3.555h-.9v-3.555h.869v-.899l.899-.002 .001-.83h2.678l-.002,.834 .902-.002-.002,.87h.901 .842v-1.69-.899h.901 3.366 .901v.898 1.69h.901 .9v.9h.003z"/>
</svg>
