<?xml version="1.0" encoding="utf-8"?>
<!-- Generator: Adobe Illustrator 17.0.0, SVG Export Plug-In . SVG Version: 6.00 Build 0)  -->
<!DOCTYPE svg PUBLIC "-//W3C//DTD SVG 1.1//EN" "http://www.w3.org/Graphics/SVG/1.1/DTD/svg11.dtd">
<svg version="1.1" id="Capa_1" xmlns="http://www.w3.org/2000/svg" xmlns:xlink="http://www.w3.org/1999/xlink" x="0px" y="0px"
	 width="18.02px" height="17.597px" viewBox="0 0 18.02 17.597" enable-background="new 0 0 18.02 17.597" xml:space="preserve">
<path d="M18.02,3.489L12.754,0L9.022,3.01L5.385,0L0.12,3.399l3.52,3.044L0,9.265l3.64,2.468l2.767,1.609l2.619-3.549l3.129,3.351
	l2.256-1.472l3.609-2.377l-3.55-2.853L18.02,3.489z M9.07,9.656L3.912,6.443l5.099-3.255l5.219,3.255L9.07,9.656z M9.025,11.377
	l-2.599,3.301l-3.784-2.239v1.022l6.38,4.136l6.351-4.164l0.035-1.054l-3.094,2.1L9.025,11.377z"/>
</svg>
