<?xml version="1.0" encoding="utf-8"?>
<!-- Generator: Adobe Illustrator 16.0.0, SVG Export Plug-In . SVG Version: 6.00 Build 0)  -->
<!DOCTYPE svg PUBLIC "-//W3C//DTD SVG 1.1//EN" "http://www.w3.org/Graphics/SVG/1.1/DTD/svg11.dtd">
<svg version="1.1" id="Layer_1" xmlns="http://www.w3.org/2000/svg" xmlns:xlink="http://www.w3.org/1999/xlink" x="0px" y="0px"
	 width="96px" height="96px" viewBox="0 0 96 96" enable-background="new 0 0 96 96" xml:space="preserve">
<g>
	<path d="M44.339,1.162v5.94c20.676,0.659,32.995,12.734,33.024,32.72c0.061,28.479-13.036,47.771-33.024,49.038v5.978H88.25V1.162
		H44.339z"/>
	<circle cx="59.384" cy="37.826" r="8.609"/>
	<path d="M47.017,71.692c0.317-0.005,1.106-0.024,2.216-0.107l0.38,4.247l4.661-0.419l-0.395-4.406
		c0.914-0.159,1.874-0.353,2.859-0.595l0.313,3.502l4.661-0.418l-0.406-4.335c2.536-0.837,5.536-2.661,8.208-6.131l1.708-2.374
		l-4.648-3.416l-1.808,2.374c-1.288,1.448-2.969,2.614-4.013,3.169l-0.21-2.351l-4.662,0.418l0.325,3.626
		c-0.958,0.261-1.919,0.48-2.854,0.657l-0.249-2.784l-4.661,0.418l0.267,2.986c-0.684,0.053-1.289,0.081-1.776,0.089l-2.625,0.037
		c0.01-0.001,0.02,0,0.03-0.001V7.103c-1.02-0.032-2.053-0.047-3.112-0.023C19.519,7.575,7.532,19.591,7.753,40.641
		C8.082,70.948,21.45,89.322,42.879,88.93c0.492-0.009,0.977-0.04,1.46-0.069V71.73L47.017,71.692z M20.134,37.826
		c0-4.755,3.855-8.609,8.61-8.609c4.755,0,8.61,3.854,8.61,8.609c0,4.756-3.854,8.609-8.61,8.609
		C23.989,46.436,20.134,42.582,20.134,37.826z M41.453,71.676c-5.859,0-13.757-2.781-18.266-5.751
		c-1.281-0.845-1.636-2.567-0.792-3.85c0.844-1.282,2.567-1.638,3.85-0.792c4.327,2.851,12.043,5.247,17.866,4.801l0.078,5.577
		C43.312,71.668,42.324,71.676,41.453,71.676z"/>
</g>
</svg>
