<?xml version="1.0" encoding="utf-8"?>
<!-- Generator: Adobe Illustrator 17.1.0, SVG Export Plug-In . SVG Version: 6.00 Build 0)  -->
<!DOCTYPE svg PUBLIC "-//W3C//DTD SVG 1.1//EN" "http://www.w3.org/Graphics/SVG/1.1/DTD/svg11.dtd">
<svg version="1.1" xmlns="http://www.w3.org/2000/svg" xmlns:xlink="http://www.w3.org/1999/xlink" x="0px" y="0px"
	 viewBox="0 0 64 64" enable-background="new 0 0 64 64" xml:space="preserve">
<g id="Imagenes">
</g>
<g id="Layer_2">
	<path d="M57,22c0,0-0.78-8-25-8C7.78,14,7,22,7,22s5.763,5,24,5S57,22,57,22z M33,17c13.962,0,18,4,18,4s-3.185,3-18,3
		c-16,0-19-3-19-3S17,17,33,17z"/>
	<path d="M11,42.941c-0.75,4.606-0.407,6.465,1.125,7.996c1.5,1.5,5.214,1.297,6.812,0.062C21.688,48.875,22,46.912,22,46.912
		C15.375,46.971,11,42.941,11,42.941z"/>
	<path d="M45.062,51.125c3,2.125,7.273,0.365,7.941-1.938S53,42,53,42c-4,4.5-11,4.971-11,4.971
		C42.72,48.828,43.532,50.041,45.062,51.125z"/>
	<path d="M24.925,45.152c0.524,3.436,1.804,9.969,4.265,12.848c0,0,3.355,3.092,5.872,0c2.646-3.25,3.02-6.615,3.939-13.036
		c21.437-3.379,18.684-20.207,18.684-20.207s-5.984,5.414-27.07,5.414s-24.22-6.269-24.22-6.269S4.002,42.223,24.925,45.152z"/>
</g>
</svg>
