<?xml version="1.0" encoding="utf-8"?>
<!-- Generator: Adobe Illustrator 17.1.0, SVG Export Plug-In . SVG Version: 6.00 Build 0)  -->
<!DOCTYPE svg PUBLIC "-//W3C//DTD SVG 1.1//EN" "http://www.w3.org/Graphics/SVG/1.1/DTD/svg11.dtd">
<svg version="1.1" xmlns="http://www.w3.org/2000/svg" xmlns:xlink="http://www.w3.org/1999/xlink" x="0px" y="0px"
	 viewBox="0 0 64 64" enable-background="new 0 0 64 64" xml:space="preserve">
<g id="Imagenes">
</g>
<g id="Layer_2">
	<path d="M21.26,27.252c-0.059-0.712,0.266-1.402,0.853-1.809c0.341-0.236,0.739-0.357,1.141-0.357c0.29,0,0.581,0.063,0.853,0.191
		l5.29,2.494l2.917-12.044L2.402,24.52l20.236,19.282L21.26,27.252z M13.5,27c-0.828,0-1.5-0.672-1.5-1.5s0.672-1.5,1.5-1.5
		s1.5,0.672,1.5,1.5S14.328,27,13.5,27z M18,32c-1.105,0-2-0.895-2-2c0-1.105,0.895-2,2-2s2,0.895,2,2C20,31.105,19.105,32,18,32z"
		/>
	<path d="M42.818,9.052l-9.567,20.536l13.246,6.244l14.212-1.249L42.818,9.052z M46.5,28c-0.828,0-1.5-0.672-1.5-1.5
		s0.672-1.5,1.5-1.5s1.5,0.672,1.5,1.5S47.328,28,46.5,28z M52,31c-1.105,0-2-0.895-2-2c0-1.105,0.895-2,2-2s2,0.895,2,2
		C54,30.105,53.105,31,52,31z"/>
	<path d="M43.441,36.603l-0.897-0.423l-10.137-4.779l-0.452-0.213l-0.453-0.213l-1.664-0.785l-0.462-0.218l-0.462-0.218
		l-5.662-2.669l1.565,18.794l0.052,0.628l0.042,0.508l0.928,11.14L51.453,40.38l-7.114-3.354L43.441,36.603z M37,47
		c-1.105,0-2-0.895-2-2c0-1.105,0.895-2,2-2s2,0.895,2,2C39,46.105,38.105,47,37,47z M39.5,41c-0.828,0-1.5-0.672-1.5-1.5
		s0.672-1.5,1.5-1.5s1.5,0.672,1.5,1.5S40.328,41,39.5,41z"/>
</g>
</svg>
