<?xml version="1.0" encoding="utf-8"?>
<!-- Generator: Adobe Illustrator 16.0.4, SVG Export Plug-In . SVG Version: 6.00 Build 0)  -->
<!DOCTYPE svg PUBLIC "-//W3C//DTD SVG 1.1//EN" "http://www.w3.org/Graphics/SVG/1.1/DTD/svg11.dtd">
<svg version="1.1" id="Layer_1" xmlns="http://www.w3.org/2000/svg" xmlns:xlink="http://www.w3.org/1999/xlink" x="0px" y="0px"
	 width="50px" height="50px" viewBox="0 0 50 50" enable-background="new 0 0 50 50" xml:space="preserve">
<path d="M37.08,17.449H25.062c-0.877-2.553-3.296-4.396-6.143-4.396c-3.584,0-6.5,2.916-6.5,6.5c0,3.005,2.053,5.533,4.827,6.273
	v10.621c0,0.277,0.224,0.5,0.5,0.5h7h5.333h7c0.276,0,0.5-0.223,0.5-0.5v-18.5C37.58,17.672,37.356,17.449,37.08,17.449z
	 M13.418,19.554c0-3.031,2.467-5.5,5.5-5.5c3.033,0,5.5,2.469,5.5,5.5c0,3.032-2.467,5.5-5.5,5.5
	C15.886,25.054,13.418,22.586,13.418,19.554z M36.58,35.949h-6v-9.334c0-0.277-0.224-0.5-0.5-0.5h-5.333c-0.276,0-0.5,0.223-0.5,0.5
	v9.334h-6v-9.93c0.221,0.021,0.446,0.033,0.673,0.033c0.124,0,0.245-0.012,0.367-0.018v1.037h1.626v-1.334
	c2.611-0.844,4.507-3.297,4.507-6.186c0-0.378-0.039-0.744-0.101-1.105H36.58V35.949z M25.498,22.031h1.417v-1.415
	c0-0.276,0.224-0.5,0.5-0.5c0.275,0,0.5,0.224,0.5,0.5v1.415h1.416c0.275,0,0.5,0.225,0.5,0.5c0,0.277-0.225,0.5-0.5,0.5h-1.416
	v1.416c0,0.277-0.225,0.5-0.5,0.5c-0.276,0-0.5-0.223-0.5-0.5v-1.416h-1.417c-0.276,0-0.5-0.223-0.5-0.5
	C24.998,22.255,25.221,22.031,25.498,22.031z M33.162,35.012h-1.625v-1.627h1.625V35.012z M35.725,35.012h-1.626v-1.627h1.626
	V35.012z M33.162,32.512h-1.625v-1.627h1.625V32.512z M35.725,32.512h-1.626v-1.627h1.626V32.512z M33.162,29.574h-1.625v-1.627
	h1.625V29.574z M35.725,29.574h-1.626v-1.627h1.626V29.574z M33.162,27.074h-1.625v-1.627h1.625V27.074z M35.725,27.074h-1.626
	v-1.627h1.626V27.074z M33.162,23.949h-1.625v-1.627h1.625V23.949z M35.725,23.949h-1.626v-1.627h1.626V23.949z M33.162,21.449
	h-1.625v-1.627h1.625V21.449z M35.725,21.449h-1.626v-1.627h1.626V21.449z M19.287,33.385h1.626v1.627h-1.626V33.385z
	 M21.849,33.385h1.626v1.627h-1.626V33.385z M19.287,30.885h1.626v1.627h-1.626V30.885z M21.849,30.885h1.626v1.627h-1.626V30.885z
	 M19.287,27.947h1.626v1.627h-1.626V27.947z M21.849,27.947h1.626v1.627h-1.626V27.947z M21.849,25.447h1.626v1.627h-1.626V25.447z
	 M18.626,20.213h-2.901v-0.002c0-0.388,0.099-0.722,0.295-0.999c0.197-0.279,0.566-0.607,1.109-0.99
	c0.243-0.169,0.414-0.324,0.514-0.466c0.1-0.141,0.148-0.298,0.148-0.471c0-0.188-0.054-0.341-0.163-0.455
	c-0.108-0.116-0.253-0.173-0.432-0.173c-0.191,0-0.34,0.072-0.446,0.216c-0.107,0.144-0.157,0.34-0.149,0.587h-0.819
	c-0.015-0.461,0.106-0.827,0.362-1.098s0.608-0.405,1.059-0.405c0.418,0,0.761,0.125,1.027,0.373
	c0.265,0.25,0.396,0.569,0.396,0.964c0,0.323-0.075,0.591-0.227,0.803c-0.15,0.213-0.433,0.45-0.847,0.715
	c-0.384,0.242-0.646,0.463-0.785,0.66l-0.003,0.006h1.861L18.626,20.213L18.626,20.213z M20.742,20.213h0.822v-0.938h0.479v-0.666
	h-0.479v-2.651h-0.467h-0.468l-1.572,2.594v0.362v0.361h1.685V20.213L20.742,20.213z M19.672,18.609l0.035-0.059l1.033-1.713v1.771
	H19.672L19.672,18.609z M17.539,20.9h0.229v2.191h-0.229H17.31v-0.992h-0.858v0.992h-0.228h-0.23V20.9h0.229h0.229v0.822h0.858V20.9
	H17.539z M19.411,22.288c0.057,0.043,0.086,0.112,0.088,0.211l0.003,0.204c0.001,0.085,0.006,0.166,0.015,0.24
	c0.009,0.076,0.02,0.125,0.031,0.146h0.506v-0.059c-0.036-0.018-0.062-0.041-0.074-0.071c-0.013-0.028-0.021-0.079-0.022-0.151
	l-0.011-0.358c-0.005-0.177-0.069-0.302-0.195-0.376c-0.021-0.014-0.046-0.024-0.073-0.036c0.048-0.019,0.091-0.04,0.129-0.066
	c0.142-0.096,0.213-0.25,0.213-0.461c0-0.183-0.063-0.329-0.191-0.44s-0.296-0.168-0.506-0.168h-0.876h-0.229v2.19h0.229h0.229
	v-0.866h0.457C19.262,22.226,19.354,22.247,19.411,22.288z M18.674,21.279h0.549c0.112,0,0.196,0.023,0.253,0.07
	c0.056,0.049,0.084,0.121,0.084,0.217c0,0.1-0.029,0.17-0.089,0.22c-0.059,0.049-0.147,0.071-0.266,0.071h-0.531V21.279
	L18.674,21.279z M20.875,21.295c-0.066,0.052-0.099,0.122-0.099,0.214c0,0.065,0.034,0.116,0.104,0.151
	c0.066,0.036,0.21,0.079,0.431,0.128c0.318,0.07,0.532,0.152,0.64,0.247c0.107,0.092,0.161,0.239,0.161,0.444
	c0,0.207-0.08,0.369-0.243,0.49c-0.162,0.121-0.382,0.182-0.657,0.182c-0.277,0-0.494-0.062-0.65-0.191
	c-0.156-0.128-0.239-0.312-0.251-0.549h0.442c0.004,0.117,0.047,0.206,0.126,0.27c0.079,0.062,0.19,0.096,0.333,0.096
	c0.146,0,0.261-0.024,0.342-0.072c0.081-0.047,0.124-0.111,0.124-0.195c0-0.083-0.03-0.145-0.089-0.182
	c-0.059-0.04-0.182-0.08-0.37-0.121c-0.348-0.078-0.581-0.162-0.698-0.252c-0.116-0.09-0.174-0.229-0.174-0.418
	c0-0.215,0.076-0.383,0.23-0.508c0.155-0.125,0.362-0.188,0.625-0.188c0.246,0,0.445,0.064,0.599,0.194
	c0.154,0.128,0.24,0.303,0.258,0.522h-0.446c-0.008-0.104-0.054-0.188-0.138-0.248c-0.083-0.062-0.192-0.092-0.326-0.092
	C21.032,21.219,20.94,21.244,20.875,21.295z"/>
</svg>
