<?xml version="1.0" encoding="utf-8"?>
<!-- Generator: Adobe Illustrator 16.0.4, SVG Export Plug-In . SVG Version: 6.00 Build 0)  -->
<!DOCTYPE svg PUBLIC "-//W3C//DTD SVG 1.1//EN" "http://www.w3.org/Graphics/SVG/1.1/DTD/svg11.dtd">
<svg version="1.1" id="Layer_1" xmlns="http://www.w3.org/2000/svg" xmlns:xlink="http://www.w3.org/1999/xlink" x="0px" y="0px"
	 width="226.77px" height="155.91px" viewBox="0 0 226.77 155.91" enable-background="new 0 0 226.77 155.91" xml:space="preserve">
<g>
	<g>
		<path d="M156.261,81.283c-2.146,0-3.905,1.732-3.905,3.904v3.108h-20.379c0.11-0.274,0.192-0.577,0.11-0.907
			c-0.358-1.65-0.936-3.273-1.706-4.785c-0.385-0.771-1.348-1.073-2.09-0.66c-0.77,0.385-1.072,1.348-0.66,2.09
			c0.66,1.265,1.128,2.612,1.431,3.988c0.027,0.082,0.082,0.164,0.109,0.274H97.736c0.082-0.358,0.138-0.743,0.22-1.101
			c0.22-0.824-0.275-1.678-1.1-1.925c-0.825-0.22-1.678,0.274-1.926,1.101c-0.165,0.633-0.274,1.292-0.385,1.925H74.387v-3.108
			c0-2.145-1.732-3.904-3.905-3.904s-3.905,1.732-3.905,3.904v14.027c0,2.145,1.732,3.904,3.905,3.904s3.905-1.732,3.905-3.904
			v-3.108h77.996v3.108c0,2.145,1.732,3.904,3.905,3.904c2.146,0,3.905-1.732,3.905-3.904V85.188
			C160.166,83.043,158.434,81.283,156.261,81.283z"/>
		<path d="M121.416,75.7c-0.468,0.743-0.248,1.705,0.494,2.145c1.211,0.743,2.311,1.678,3.273,2.724
			c0.303,0.329,0.715,0.494,1.155,0.494c0.385,0,0.77-0.137,1.045-0.412c0.632-0.578,0.66-1.568,0.082-2.201
			c-1.155-1.237-2.475-2.337-3.905-3.245C122.846,74.765,121.883,74.985,121.416,75.7z"/>
		<path d="M100.074,77.708c-1.211,1.183-2.283,2.531-3.136,3.988c-0.439,0.742-0.192,1.705,0.55,2.145
			c0.248,0.139,0.522,0.221,0.798,0.221c0.522,0,1.045-0.275,1.348-0.77c0.715-1.211,1.595-2.338,2.641-3.328
			c0.604-0.605,0.632-1.595,0.027-2.201C101.669,77.13,100.706,77.103,100.074,77.708z"/>
		<path d="M108.875,72.839c-1.65,0.385-3.246,1.018-4.73,1.843c-0.743,0.413-1.018,1.375-0.605,2.118
			c0.275,0.522,0.825,0.797,1.375,0.797c0.248,0,0.522-0.055,0.743-0.192c1.237-0.688,2.585-1.21,3.96-1.54
			c0.825-0.192,1.348-1.045,1.155-1.87C110.552,73.142,109.728,72.62,108.875,72.839z"/>
		<path d="M112.34,73.83c-0.027,0.853,0.66,1.567,1.513,1.595c1.43,0.027,2.833,0.275,4.208,0.66
			c0.138,0.055,0.303,0.055,0.439,0.055c0.66,0,1.293-0.44,1.485-1.1c0.248-0.825-0.22-1.705-1.045-1.953
			c-1.623-0.495-3.301-0.77-5.006-0.797C113,72.262,112.34,72.95,112.34,73.83z"/>
	</g>
	<g>
		<path d="M96.499,55.733l-1.019,0.275c-0.137,0.027-0.357,0.083-0.494,0.083c-0.66,0-1.266-0.55-1.266-1.238
			c0-0.578,0.385-1.073,0.963-1.238l1.843-0.55c0.55-0.138,0.962-0.248,1.348-0.248h0.027c0.797,0,1.43,0.633,1.43,1.43v10.561
			c0,0.797-0.633,1.43-1.43,1.43c-0.798,0-1.431-0.632-1.431-1.43v-9.076H96.499z"/>
		<path d="M101.916,62.499v-0.027c0-1.595,0.743-2.53,2.118-3.163c-1.018-0.605-1.65-1.458-1.65-2.86v-0.055
			c-0.027-2.008,1.815-3.575,4.593-3.575c2.778,0,4.593,1.567,4.593,3.603v0.028c0,1.402-0.659,2.255-1.649,2.86
			c1.319,0.688,2.117,1.54,2.117,3.08v0.027c0,2.42-2.145,3.851-5.061,3.851C104.062,66.267,101.916,64.781,101.916,62.499z
			 M109.232,62.279v-0.028c0-1.018-0.963-1.595-2.256-1.595c-1.319,0-2.255,0.605-2.255,1.595v0.028
			c0,0.907,0.853,1.623,2.255,1.623C108.38,63.901,109.232,63.186,109.232,62.279z M108.847,56.75v-0.027
			c0-0.797-0.688-1.54-1.87-1.54s-1.87,0.715-1.87,1.513v0.027c0,0.908,0.743,1.595,1.87,1.595
			C108.104,58.346,108.847,57.658,108.847,56.75z"/>
		<path d="M113.88,59.583v-0.027c0-3.795,2.365-6.766,5.83-6.766c3.466,0,5.804,2.942,5.804,6.738v0.028
			c0,3.795-2.338,6.765-5.831,6.765C116.19,66.321,113.88,63.379,113.88,59.583z M122.543,59.583v-0.027
			c0-2.365-1.155-4.181-2.888-4.181s-2.833,1.733-2.833,4.125v0.027c0,2.393,1.128,4.18,2.888,4.18
			C121.471,63.708,122.543,61.949,122.543,59.583z"/>
		<path d="M127.301,55.788v-0.027c0-1.595,1.266-2.86,2.888-2.86c1.65,0,2.86,1.265,2.86,2.833v0.028c0,1.595-1.265,2.86-2.888,2.86
			C128.511,58.648,127.301,57.383,127.301,55.788z M127.356,60.298c0-0.33,0.274-0.605,0.604-0.605h4.373
			c0.33,0,0.605,0.275,0.605,0.605s-0.275,0.605-0.605,0.605h-4.346C127.631,60.903,127.356,60.628,127.356,60.298z M131.509,55.788
			v-0.027c0-0.798-0.55-1.513-1.375-1.513s-1.32,0.688-1.32,1.485v0.028c0,0.797,0.55,1.513,1.375,1.513
			C131.014,57.301,131.509,56.613,131.509,55.788z"/>
	</g>
</g>
</svg>
