<?xml version="1.0" encoding="utf-8"?>
<!-- Generator: Adobe Illustrator 16.0.4, SVG Export Plug-In . SVG Version: 6.00 Build 0)  -->
<!DOCTYPE svg PUBLIC "-//W3C//DTD SVG 1.1//EN" "http://www.w3.org/Graphics/SVG/1.1/DTD/svg11.dtd">
<svg version="1.1" id="Layer_1" xmlns="http://www.w3.org/2000/svg" xmlns:xlink="http://www.w3.org/1999/xlink" x="0px" y="0px"
	 width="50px" height="50px" viewBox="0 0 50 50" enable-background="new 0 0 50 50" xml:space="preserve">
<path d="M34.062,23.537c-0.541-1.549-1.327-2.951-2.336-4.168c-0.096-0.113-0.236-0.18-0.386-0.18l0,0
	c-0.148,0-0.291,0.065-0.385,0.182c-0.577,0.699-1.123,1.41-1.667,2.119c-0.447,0.582-0.894,1.164-1.358,1.742
	c-0.148,0.184-0.147,0.444,0.002,0.629c0.292,0.356,0.612,0.711,0.927,1.057c0.216,0.236,0.428,0.471,0.623,0.697
	c-1.752,1.92-4.48,3.875-6.894,4.939c-0.373-0.673-0.754-1.349-1.144-2.025c-0.122-0.211-0.377-0.303-0.606-0.221
	c-0.684,0.252-1.368,0.479-2.051,0.709c-0.852,0.284-1.704,0.569-2.558,0.897c-0.138,0.053-0.246,0.166-0.294,0.306
	c-0.047,0.141-0.03,0.295,0.047,0.422c0.887,1.45,2.017,2.723,3.183,3.582c0.086,0.062,0.19,0.098,0.296,0.098
	c0.004,0,0.009,0,0.013,0c2.064-0.055,6.058-0.574,9.604-3.437c2.294-1.852,3.971-4.211,4.983-7.014
	C34.101,23.764,34.101,23.646,34.062,23.537z M28.449,30.107c-3.221,2.6-6.847,3.133-8.829,3.209
	c-0.879-0.676-1.734-1.611-2.458-2.685c0.647-0.233,1.293-0.45,1.939-0.666c0.561-0.188,1.122-0.375,1.683-0.573
	c0.391,0.682,0.771,1.36,1.145,2.039c0.123,0.223,0.393,0.315,0.625,0.223c2.814-1.139,6.015-3.432,7.963-5.703
	c0.155-0.182,0.161-0.449,0.012-0.637c-0.272-0.342-0.598-0.701-0.933-1.07c-0.212-0.232-0.428-0.469-0.634-0.707
	c0.379-0.477,0.748-0.957,1.117-1.438c0.413-0.539,0.826-1.076,1.254-1.611c0.72,0.963,1.297,2.041,1.724,3.211
	C32.104,26.256,30.554,28.41,28.449,30.107z M21.542,21.396h-3.989v-0.795l0.728-0.658c1.229-1.098,1.825-1.729,1.843-2.387
	c0-0.459-0.277-0.822-0.926-0.822c-0.484,0-0.908,0.242-1.203,0.467l-0.372-0.943c0.424-0.32,1.082-0.58,1.843-0.58
	c1.272,0,1.973,0.744,1.973,1.766c0,0.943-0.683,1.695-1.496,2.423l-0.52,0.434v0.019h2.12L21.542,21.396L21.542,21.396z
	 M24.686,21.396h1.246v-1.34h0.675V19.07h-0.675v-3.297h-1.609l-2.128,3.426v0.857h2.491V21.396z M23.421,19.07v-0.019l0.753-1.229
	c0.19-0.355,0.338-0.685,0.52-1.048h0.034c-0.026,0.363-0.043,0.709-0.043,1.048v1.245h-1.264V19.07z M19.731,25.725v-1.451h-1.293
	v1.451h-0.786v-3.469h0.786v1.332h1.293v-1.332h0.782v3.469H19.731z M23.679,23.229c0-0.317-0.113-0.559-0.319-0.725
	c-0.246-0.195-0.606-0.273-1.121-0.273c-0.417,0-0.792,0.031-1.045,0.072v3.422h0.778v-1.363h0.235
	c0.319,0.007,0.47,0.123,0.562,0.556c0.103,0.431,0.186,0.711,0.242,0.81h0.803c-0.067-0.136-0.175-0.586-0.283-0.979
	c-0.088-0.318-0.221-0.55-0.463-0.647v-0.015C23.366,23.975,23.679,23.672,23.679,23.229z M22.279,23.795h-0.308v-0.957
	c0.055-0.01,0.165-0.025,0.354-0.025c0.36,0.006,0.577,0.164,0.577,0.484C22.902,23.6,22.669,23.795,22.279,23.795z M25.688,24.758
	c0-0.217-0.164-0.342-0.582-0.49c-0.575-0.201-0.951-0.52-0.951-1.022c0-0.593,0.494-1.045,1.312-1.045
	c0.392,0,0.679,0.082,0.885,0.176l-0.176,0.631c-0.139-0.063-0.387-0.161-0.726-0.161s-0.504,0.153-0.504,0.334
	c0,0.221,0.196,0.319,0.645,0.487c0.612,0.228,0.899,0.547,0.899,1.035c0,0.58-0.447,1.073-1.4,1.073
	c-0.395,0-0.786-0.102-0.981-0.209l0.158-0.649c0.212,0.108,0.536,0.217,0.871,0.217C25.499,25.133,25.688,24.984,25.688,24.758z"/>
</svg>
