<?xml version="1.0" encoding="utf-8"?>
<!-- Generator: Adobe Illustrator 16.0.4, SVG Export Plug-In . SVG Version: 6.00 Build 0)  -->
<!DOCTYPE svg PUBLIC "-//W3C//DTD SVG 1.1//EN" "http://www.w3.org/Graphics/SVG/1.1/DTD/svg11.dtd">
<svg version="1.1" id="Layer_1" xmlns="http://www.w3.org/2000/svg" xmlns:xlink="http://www.w3.org/1999/xlink" x="0px" y="0px"
	 width="50px" height="50px" viewBox="0 0 50 50" enable-background="new 0 0 50 50" xml:space="preserve">
<path d="M18.801,31.777c0.727,0,1.406-0.256,1.965-0.703c0.729,0.586,1.617,0.922,2.564,0.922c1.111,0,2.152-0.438,2.934-1.23
	c1.59-1.615,1.568-4.227-0.049-5.817c-0.773-0.763-1.799-1.183-2.885-1.183c-0.475,0-0.932,0.096-1.365,0.248v-3.818
	c0-1.744-1.42-3.164-3.164-3.164c-1.746,0-3.166,1.42-3.166,3.164v8.417C15.635,30.357,17.055,31.777,18.801,31.777z M16.635,28.613
	v-3.849h4.039c-0.092,0.078-0.191,0.146-0.277,0.231c-1.448,1.473-1.545,3.764-0.328,5.364c-0.366,0.268-0.805,0.418-1.268,0.418
	C17.605,30.777,16.635,29.807,16.635,28.613z M25.551,30.064c-1.049,1.062-2.805,1.182-4.012,0.35l4.295-4.365
	C26.721,27.258,26.635,28.965,25.551,30.064z M25.123,25.346l-4.299,4.369c-0.885-1.209-0.799-2.914,0.285-4.018
	c0.59-0.601,1.379-0.931,2.221-0.931C23.982,24.768,24.602,24.975,25.123,25.346z M18.801,18.032c1.193,0,2.164,0.972,2.164,2.164
	v3.568h-4.33v-3.568C16.635,19.003,17.605,18.032,18.801,18.032z M34.365,26.33c0,0.275-0.223,0.5-0.5,0.5h-3.5l-2.836,6.484
	c-0.08,0.184-0.26,0.299-0.459,0.299H16.365c-0.275,0-0.5-0.223-0.5-0.5c0-0.275,0.225-0.5,0.5-0.5h10.379l2.836-6.482
	c0.08-0.184,0.26-0.301,0.459-0.301h3.826C34.143,25.83,34.365,26.055,34.365,26.33z M20.129,35.445c0,0.789-0.641,1.432-1.43,1.432
	c-0.791,0-1.432-0.643-1.432-1.432c0-0.791,0.641-1.432,1.432-1.432C19.488,34.016,20.129,34.654,20.129,35.445z M25.217,35.445
	c0,0.789-0.641,1.432-1.432,1.432c-0.789,0-1.432-0.643-1.432-1.432c0-0.791,0.643-1.432,1.432-1.432
	C24.576,34.016,25.217,34.654,25.217,35.445z M28.133,19.02h-4.021v-0.002c0-0.539,0.138-1,0.41-1.386
	c0.273-0.386,0.785-0.843,1.537-1.371c0.336-0.233,0.572-0.448,0.711-0.645c0.138-0.195,0.207-0.412,0.207-0.652
	c0-0.263-0.076-0.472-0.227-0.631c-0.15-0.16-0.35-0.24-0.6-0.24c-0.265,0-0.471,0.101-0.617,0.3c-0.15,0.2-0.219,0.471-0.209,0.812
	h-1.135c-0.021-0.638,0.147-1.146,0.504-1.521c0.355-0.375,0.844-0.561,1.467-0.561c0.578,0,1.053,0.172,1.422,0.516
	c0.365,0.346,0.551,0.791,0.551,1.336c0,0.449-0.105,0.818-0.314,1.112c-0.209,0.293-0.602,0.623-1.174,0.99
	c-0.531,0.337-0.895,0.642-1.088,0.915L25.553,18h2.58V19.02z M31.061,19.02h1.14v-1.297h0.666v-0.924H32.2v-3.675h-0.646h-0.646
	l-2.178,3.595v0.502v0.502h2.332v1.297H31.061z M29.58,16.799l0.051-0.08l1.43-2.376v2.456H29.58z M26.307,23.009v-1.374h-1.188
	v1.374h-0.314h-0.32v-3.036h0.316h0.318v1.141h1.188v-1.141h0.316h0.318v3.036h-0.316H26.307z M30.061,20.817
	c0-0.254-0.088-0.457-0.266-0.612c-0.178-0.154-0.41-0.231-0.701-0.231h-1.215h-0.314v3.036h0.316h0.318v-1.198h0.631
	c0.182,0,0.311,0.027,0.387,0.086c0.078,0.06,0.119,0.156,0.121,0.293l0.006,0.279c0,0.12,0.008,0.23,0.02,0.334
	c0.015,0.105,0.027,0.176,0.044,0.203h0.7v-0.08c-0.051-0.021-0.086-0.057-0.104-0.099c-0.018-0.041-0.027-0.108-0.031-0.21
	l-0.016-0.498c-0.006-0.244-0.096-0.415-0.268-0.521c-0.031-0.018-0.066-0.031-0.104-0.049c0.065-0.023,0.125-0.057,0.179-0.092
	C29.961,21.325,30.061,21.11,30.061,20.817z M29.303,21.2c-0.082,0.066-0.205,0.099-0.369,0.099H28.2v-0.802h0.76
	c0.156,0,0.271,0.033,0.351,0.1c0.078,0.067,0.116,0.166,0.116,0.301C29.426,21.03,29.385,21.131,29.303,21.2z M31.246,20.52
	c-0.092,0.071-0.135,0.168-0.135,0.297c0,0.091,0.045,0.16,0.143,0.209c0.092,0.051,0.291,0.109,0.596,0.179
	c0.441,0.098,0.738,0.212,0.887,0.343c0.148,0.127,0.224,0.333,0.224,0.616c0,0.286-0.108,0.512-0.336,0.68
	c-0.226,0.167-0.528,0.25-0.912,0.25c-0.383,0-0.685-0.087-0.899-0.265c-0.215-0.18-0.332-0.432-0.349-0.76h0.613
	c0.004,0.162,0.063,0.285,0.176,0.371c0.106,0.088,0.263,0.131,0.459,0.131c0.203,0,0.361-0.032,0.476-0.098
	c0.11-0.066,0.17-0.154,0.17-0.271c0-0.114-0.041-0.199-0.121-0.252c-0.08-0.057-0.252-0.11-0.514-0.168
	c-0.48-0.107-0.806-0.223-0.968-0.348c-0.162-0.127-0.239-0.32-0.239-0.582c0-0.297,0.104-0.529,0.317-0.703
	c0.215-0.172,0.502-0.258,0.865-0.258c0.342,0,0.616,0.088,0.831,0.269c0.214,0.178,0.332,0.421,0.355,0.725h-0.619
	c-0.01-0.144-0.074-0.258-0.188-0.343c-0.117-0.085-0.269-0.127-0.453-0.127C31.463,20.414,31.338,20.448,31.246,20.52z"/>
</svg>
