<?xml version="1.0" encoding="utf-8"?>
<!-- Generator: Adobe Illustrator 16.0.0, SVG Export Plug-In . SVG Version: 6.00 Build 0)  -->
<!DOCTYPE svg PUBLIC "-//W3C//DTD SVG 1.1//EN" "http://www.w3.org/Graphics/SVG/1.1/DTD/svg11.dtd">
<svg version="1.1" id="Layer_1" xmlns="http://www.w3.org/2000/svg" xmlns:xlink="http://www.w3.org/1999/xlink" x="0px" y="0px"
	 width="96px" height="96px" viewBox="0 0 96 96" enable-background="new 0 0 96 96" xml:space="preserve">
<path d="M87.938,52.283V41.382l-16.726,0.011l-10.717,16.59l-3.2-5.048c0,0-5.456-9.575-9.752-13.265
	c6.587-3.649,10.401-10.056,10.401-17.801c0-5.961-2.178-11.163-6.11-14.635C47.133,2.98,40.576,1.083,30.574,1.083H8.062v15.385
	h3.349v42.549H8.062v15.386l16.67-0.052V44.783l5.959-0.001c4.03,0.151,5.717,0.708,7.623,2.557l14.051,20.306l-11.4,16.37H32.64
	v10.902h16.11l7.772-12.104l1.258-2.011c0.722-1.148,1.423-2.266,2.107-3.396c1.111,1.848,2.226,3.632,3.459,5.447l7.856,12.063
	h16.735v-6.394v-4.509h-8.535L68.084,67.368l10.638-15.085H87.938z M31.486,33.587h-6.755V12.779
	c1.484-0.22,3.667-0.399,6.439-0.399c8.926,0.1,13.449,3.635,13.449,10.503C44.62,29.486,39.588,33.587,31.486,33.587z"/>
</svg>
