<?xml version="1.0" encoding="utf-8"?>
<!-- Generator: Adobe Illustrator 16.0.4, SVG Export Plug-In . SVG Version: 6.00 Build 0)  -->
<!DOCTYPE svg PUBLIC "-//W3C//DTD SVG 1.1//EN" "http://www.w3.org/Graphics/SVG/1.1/DTD/svg11.dtd">
<svg version="1.1" id="Layer_1" xmlns="http://www.w3.org/2000/svg" xmlns:xlink="http://www.w3.org/1999/xlink" x="0px" y="0px"
	 width="50px" height="50px" viewBox="0 0 50 50" enable-background="new 0 0 50 50" xml:space="preserve">
<path d="M24.687,24.912h-5.195c-0.203,0-0.386-0.123-0.463-0.311c-0.077-0.188-0.032-0.402,0.112-0.545l4.324-4.25h-3.973
	c-0.276,0-0.5-0.226-0.5-0.5c0-0.277,0.224-0.5,0.5-0.5h5.195c0.203,0,0.386,0.123,0.463,0.311c0.077,0.188,0.032,0.402-0.112,0.545
	l-4.324,4.25h3.973c0.276,0,0.5,0.225,0.5,0.5C25.187,24.689,24.962,24.912,24.687,24.912z M30.508,25.939H28.06l2.8-2.752
	c0.145-0.144,0.188-0.357,0.112-0.545c-0.077-0.188-0.261-0.312-0.464-0.312h-3.671c-0.275,0-0.5,0.224-0.5,0.5
	c0,0.274,0.225,0.5,0.5,0.5h2.449l-2.8,2.752c-0.146,0.144-0.189,0.356-0.112,0.545s0.26,0.312,0.463,0.312h3.671
	c0.276,0,0.5-0.224,0.5-0.5C31.008,26.164,30.784,25.939,30.508,25.939z M24.863,30.193h-1.707l2.058-2.021
	c0.145-0.143,0.189-0.359,0.112-0.547c-0.077-0.188-0.26-0.311-0.463-0.311h-2.929c-0.276,0-0.5,0.225-0.5,0.5
	c0,0.276,0.224,0.5,0.5,0.5h1.707l-2.058,2.022c-0.145,0.144-0.189,0.356-0.112,0.545c0.077,0.188,0.26,0.312,0.463,0.312h2.929
	c0.276,0,0.5-0.224,0.5-0.5C25.363,30.418,25.141,30.193,24.863,30.193z"/>
</svg>
