<?xml version="1.0" encoding="utf-8"?>
<!-- Generator: Adobe Illustrator 16.0.0, SVG Export Plug-In . SVG Version: 6.00 Build 0)  -->
<!DOCTYPE svg PUBLIC "-//W3C//DTD SVG 1.1//EN" "http://www.w3.org/Graphics/SVG/1.1/DTD/svg11.dtd">
<svg version="1.1" id="Layer_2" xmlns="http://www.w3.org/2000/svg" xmlns:xlink="http://www.w3.org/1999/xlink" x="0px" y="0px"
	 width="96px" height="96px" viewBox="0 0 96 96" enable-background="new 0 0 96 96" xml:space="preserve">
<g>
	<path d="M48.633,40.824c-4.577-3.536-9.852-5.135-15.544-5.384c-5.634-0.246-11.215-0.011-16.286,3.184c0-0.414,0-0.697,0-0.98
		l-0.017-18.244H1.054v55.635h15.732v-2.501c0.003,0.001,0.006,0.003,0.009,0.005c6.058,3.141,12.486,3.756,19.139,2.792
		c4.549-0.659,8.779-2.177,12.593-4.784c1.94-1.574,3.659-3.332,4.896-5.542C57.126,58.39,56.613,47.103,48.633,40.824z
		 M31.19,66.75c-6.131,0.005-11.145-5.017-11.129-11.146c0.015-6.1,5.003-11.078,11.104-11.079c6.159,0,11.122,4.972,11.112,11.138
		C42.269,61.771,37.296,66.745,31.19,66.75z"/>
	<path d="M78.605,38.283c-1.289-0.629-2.481-1.202-3.752-1.577c-4.721-1.396-9.513-1.506-14.341-0.753
		c-3.741,0.584-7.282,1.689-10.412,3.789c3.786,3.146,5.999,7.369,6.896,11.735c1.644-4.059,5.614-6.945,10.221-6.952
		c6.133-0.01,11.067,4.933,11.075,11.094c0.009,6.149-4.937,11.13-11.047,11.13c-4.513,0-8.416-2.76-10.13-6.681
		c-0.393,2.206-1.109,4.279-2.116,6.076c-1.125,2.01-2.66,3.814-4.8,5.632c8.937,6.161,18.44,6.159,28.406,1.481l0.015,2.168h16.128
		V35.884H78.645L78.605,38.283z"/>
	<path d="M34.577,28.897c0.474-0.062,0.828-0.161,1.063-0.297c0.379-0.218,0.678-0.515,0.896-0.89
		c0.219-0.375,0.328-0.798,0.328-1.268c0-0.577-0.155-1.055-0.463-1.434c-0.306-0.384-0.783-0.654-1.436-0.81
		c0.429-0.148,0.755-0.35,0.978-0.606c0.333-0.383,0.501-0.843,0.501-1.378c0-0.64-0.234-1.175-0.704-1.608
		c-0.467-0.433-1.137-0.649-2.011-0.649h-5.242v9.064h4.835C33.526,29.021,33.945,28.979,34.577,28.897z M31.312,21.793h1.236
		c0.425,0,0.722,0.074,0.891,0.222c0.173,0.149,0.26,0.355,0.26,0.619c0,0.285-0.087,0.503-0.26,0.655
		c-0.169,0.149-0.472,0.223-0.909,0.223h-1.218V21.793z M31.312,27.073v-1.836h1.422c0.49,0,0.832,0.083,1.026,0.248
		c0.198,0.161,0.297,0.375,0.297,0.643c0,0.289-0.099,0.519-0.297,0.692c-0.197,0.169-0.537,0.254-1.021,0.254H31.312z"/>
	<path d="M50.138,27.524h3.19l0.445,1.497h2.931l-3.407-9.064h-3.055l-3.406,9.064h2.863L50.138,27.524z M51.738,22.307l1.002,3.258
		h-1.997L51.738,22.307z"/>
	<path d="M69.826,25.342h0.248c0.255,0,0.483,0.07,0.686,0.21c0.148,0.107,0.318,0.34,0.508,0.699l1.496,2.77h3.166l-1.354-2.628
		c-0.065-0.131-0.197-0.32-0.395-0.563c-0.194-0.243-0.344-0.402-0.446-0.476c-0.152-0.111-0.396-0.223-0.73-0.334
		c0.417-0.094,0.745-0.214,0.983-0.358c0.375-0.227,0.671-0.521,0.885-0.884c0.214-0.367,0.321-0.802,0.321-1.305
		c0-0.577-0.141-1.065-0.42-1.465c-0.28-0.404-0.649-0.68-1.107-0.829c-0.458-0.148-1.119-0.223-1.984-0.223h-4.668v9.064h2.813
		V25.342z M69.826,21.787h1.231c0.511,0,0.859,0.078,1.044,0.235s0.278,0.381,0.278,0.674c0,0.198-0.06,0.373-0.179,0.525
		c-0.115,0.153-0.266,0.248-0.451,0.284c-0.368,0.083-0.614,0.124-0.743,0.124h-1.181V21.787z"/>
	<polygon points="86.432,19.957 86.432,22.195 89.289,22.195 89.289,29.021 92.091,29.021 92.091,22.195 94.946,22.195 
		94.946,19.957 	"/>
</g>
</svg>
