<?xml version="1.0" encoding="utf-8"?>
<!-- Generator: Adobe Illustrator 16.0.4, SVG Export Plug-In . SVG Version: 6.00 Build 0)  -->
<!DOCTYPE svg PUBLIC "-//W3C//DTD SVG 1.1//EN" "http://www.w3.org/Graphics/SVG/1.1/DTD/svg11.dtd">
<svg version="1.1" id="Layer_1" xmlns="http://www.w3.org/2000/svg" xmlns:xlink="http://www.w3.org/1999/xlink" x="0px" y="0px"
	 width="226.77px" height="155.91px" viewBox="0 0 226.77 155.91" enable-background="new 0 0 226.77 155.91" xml:space="preserve">
<g>
	<path d="M118.28,93.397l3.878,2.394c0.247,0.164,0.522,0.219,0.797,0.219c0.495,0,0.99-0.247,1.293-0.715
		c0.44-0.715,0.22-1.65-0.495-2.062l-3.878-2.393c-0.715-0.439-1.65-0.221-2.062,0.495C117.345,92.022,117.564,92.957,118.28,93.397
		z"/>
	<path d="M113.962,75.714c-0.192-0.083-0.385-0.11-0.577-0.11c-0.825,0-1.513,0.688-1.513,1.513v4.538
		c0,0.824,0.688,1.512,1.513,1.512s1.513-0.688,1.513-1.512v-4.565C114.897,76.456,114.512,75.934,113.962,75.714z"/>
	<path d="M126.008,98.184l3.878,2.393c0.248,0.164,0.522,0.22,0.798,0.22c0.495,0,0.99-0.247,1.293-0.716
		c0.439-0.715,0.22-1.649-0.495-2.062l-3.878-2.393c-0.715-0.439-1.623-0.22-2.062,0.495
		C125.073,96.809,125.293,97.742,126.008,98.184z"/>
	<path d="M141.465,107.754l3.877,2.393c0.248,0.165,0.522,0.221,0.798,0.221c0.495,0,0.99-0.248,1.293-0.716
		c0.439-0.715,0.22-1.649-0.495-2.062l-3.878-2.394c-0.715-0.439-1.65-0.219-2.062,0.496
		C140.529,106.379,140.749,107.314,141.465,107.754z"/>
	<path d="M133.736,102.969l3.878,2.393c0.247,0.164,0.522,0.22,0.798,0.22c0.494,0,0.989-0.247,1.292-0.715
		c0.44-0.716,0.22-1.65-0.495-2.063l-3.878-2.393c-0.715-0.439-1.649-0.219-2.062,0.496
		C132.801,101.594,133.021,102.528,133.736,102.969z"/>
	<path d="M113.962,66.61c-0.192-0.083-0.385-0.11-0.577-0.11c-0.825,0-1.513,0.688-1.513,1.513v4.538
		c0,0.825,0.688,1.513,1.513,1.513s1.513-0.688,1.513-1.513v-4.538C114.897,67.38,114.512,66.831,113.962,66.61z"/>
	<path d="M111.57,91.225c0.275,0,0.55-0.082,0.797-0.22l1.018-0.632l1.018,0.632c0.247,0.165,0.522,0.22,0.798,0.22
		c0.494,0,0.989-0.247,1.292-0.715c0.44-0.715,0.22-1.65-0.495-2.062l-1.1-0.688v-1.568c0-0.824-0.66-1.512-1.513-1.512l0,0
		c-0.825,0-1.513,0.688-1.513,1.512v1.568l-1.1,0.688c-0.715,0.439-0.935,1.375-0.495,2.062
		C110.58,90.978,111.075,91.225,111.57,91.225z"/>
	<path d="M96.141,100.823c0.275,0,0.55-0.083,0.797-0.22l3.85-2.393c0.715-0.44,0.935-1.375,0.495-2.091
		c-0.44-0.715-1.375-0.935-2.062-0.495l-3.85,2.393c-0.715,0.44-0.936,1.375-0.495,2.09
		C95.124,100.576,95.618,100.823,96.141,100.823z"/>
	<path d="M88.413,105.637c0.275,0,0.55-0.083,0.798-0.221l3.85-2.393c0.715-0.439,0.935-1.375,0.495-2.09s-1.375-0.936-2.062-0.496
		l-3.851,2.394c-0.715,0.44-0.935,1.375-0.495,2.09C87.423,105.389,87.89,105.637,88.413,105.637z"/>
	<path d="M103.842,96.037c0.275,0,0.55-0.082,0.797-0.219l3.85-2.393c0.715-0.441,0.935-1.376,0.495-2.091
		c-0.44-0.716-1.375-0.935-2.062-0.495l-3.851,2.393c-0.715,0.439-0.935,1.375-0.495,2.09
		C102.852,95.791,103.347,96.037,103.842,96.037z"/>
	<path d="M80.685,110.422c0.275,0,0.55-0.083,0.798-0.221l3.85-2.393c0.715-0.439,0.935-1.375,0.495-2.09s-1.375-0.936-2.062-0.495
		l-3.851,2.393c-0.715,0.44-0.935,1.375-0.495,2.091C79.694,110.174,80.189,110.422,80.685,110.422z"/>
	<path d="M113.385,64.96c0.825,0,1.513-0.688,1.513-1.513V58.91c0-0.825-0.66-1.513-1.513-1.513s-1.513,0.688-1.513,1.513v4.538
		C111.872,64.273,112.532,64.96,113.385,64.96z"/>
	<path d="M159.423,112.924L116.63,38.833c-0.66-1.155-1.925-1.87-3.272-1.87s-2.585,0.715-3.273,1.87l-42.986,74.476
		c-0.66,1.156-0.66,2.613,0,3.769s1.925,1.87,3.272,1.87h85.999h0.028c2.09,0,3.768-1.678,3.768-3.768
		C160.166,114.354,159.891,113.557,159.423,112.924z M111.872,50.796v3.548c0,0.825,0.688,1.513,1.513,1.513
		c0.22,0,0.413-0.055,0.577-0.11c0.55-0.22,0.908-0.77,0.908-1.375v-3.548l34.185,59.268c0.275,0.385,0.11,1.348-0.55,1.348H78.292
		c-0.468,0-0.825-0.99-0.633-1.348L111.872,50.796z"/>
</g>
</svg>
