<?xml version="1.0" encoding="utf-8"?>
<!-- Generator: Adobe Illustrator 16.0.4, SVG Export Plug-In . SVG Version: 6.00 Build 0)  -->
<!DOCTYPE svg PUBLIC "-//W3C//DTD SVG 1.1//EN" "http://www.w3.org/Graphics/SVG/1.1/DTD/svg11.dtd">
<svg version="1.1" id="Layer_1" xmlns="http://www.w3.org/2000/svg" xmlns:xlink="http://www.w3.org/1999/xlink" x="0px" y="0px"
	 width="226.77px" height="155.91px" viewBox="0 0 226.77 155.91" enable-background="new 0 0 226.77 155.91" xml:space="preserve">
<g>
	<path d="M160.852,111.492l-36.816-16.644l16.797-36.646l19.627-7.527c3.77-1.445,5.652-5.671,4.208-9.44
		c-1.444-3.764-5.661-5.657-9.44-4.207l-5.69,2.183l7.642-16.675c1.682-3.668,0.068-8.007-3.6-9.691
		c-3.672-1.681-8.008-0.07-9.691,3.601l-13.863,30.249L66.309,71.131c-2.753,1.058-4.604,3.662-4.689,6.609
		c-0.085,2.947,1.607,5.659,4.297,6.872l38.71,17.499l-14.332,31.264c-1.681,3.67-0.068,8.008,3.601,9.691
		c0.986,0.453,2.022,0.665,3.04,0.665c2.77,0,5.42-1.581,6.648-4.266l14.362-31.333l36.887,16.676
		c0.975,0.443,1.998,0.652,3.004,0.652c2.785,0,5.442-1.598,6.662-4.303C166.165,117.482,164.53,113.154,160.852,111.492z
		 M87.89,78.507l33.431-12.823l-10.607,23.14L87.89,78.507z"/>
</g>
</svg>
