<?xml version="1.0" encoding="utf-8"?>
<!-- Generator: Adobe Illustrator 16.0.4, SVG Export Plug-In . SVG Version: 6.00 Build 0)  -->
<!DOCTYPE svg PUBLIC "-//W3C//DTD SVG 1.1//EN" "http://www.w3.org/Graphics/SVG/1.1/DTD/svg11.dtd">
<svg version="1.1" id="Layer_1" xmlns="http://www.w3.org/2000/svg" xmlns:xlink="http://www.w3.org/1999/xlink" x="0px" y="0px"
	 width="226.77px" height="155.91px" viewBox="0 0 226.77 155.91" enable-background="new 0 0 226.77 155.91" xml:space="preserve">
<g>
	<path d="M130.438,148.602c4.036,0,7.309-3.271,7.309-7.309V14.617c0-4.037-3.272-7.309-7.309-7.309s-7.308,3.271-7.308,7.309
		v16.355l-19.489,27.615V14.617c0-4.037-3.272-7.309-7.309-7.309c-4.037,0-7.309,3.271-7.309,7.309v126.676
		c0,4.037,3.271,7.309,7.309,7.309c4.036,0,7.309-3.271,7.309-7.309V83.94l19.489-27.615v84.968
		C123.13,145.33,126.401,148.602,130.438,148.602z"/>
</g>
</svg>
