<?xml version="1.0" encoding="utf-8"?>
<!-- Generator: Adobe Illustrator 16.0.4, SVG Export Plug-In . SVG Version: 6.00 Build 0)  -->
<!DOCTYPE svg PUBLIC "-//W3C//DTD SVG 1.1//EN" "http://www.w3.org/Graphics/SVG/1.1/DTD/svg11.dtd">
<svg version="1.1" id="Layer_1" xmlns="http://www.w3.org/2000/svg" xmlns:xlink="http://www.w3.org/1999/xlink" x="0px" y="0px"
	 width="226.77px" height="155.91px" viewBox="0 0 226.77 155.91" enable-background="new 0 0 226.77 155.91" xml:space="preserve">
<g>
	<path d="M77.93,147.414l13.064-19.143h69.702c4.036,0,7.308-3.271,7.308-7.309c0-4.036-3.271-7.308-7.308-7.308H100.97l4.987-7.308
		h54.739c4.036,0,7.308-3.272,7.308-7.309c0-4.037-3.271-7.309-7.308-7.309h-44.762l36.576-53.594h8.186
		c4.036,0,7.308-3.271,7.308-7.308c0-3.467-2.419-6.354-5.656-7.104l4.77-6.989c2.275-3.335,1.418-7.881-1.917-10.156
		c-3.332-2.278-7.879-1.416-10.156,1.915L144.79,23.52H98.848c-22.314,0-40.468,16.247-40.468,36.213v7.708
		c0,17.53,13.542,33.191,30.758,37.62l-5.866,8.595H68.124c-4.037,0-7.308,3.271-7.308,7.308c0,4.037,3.271,7.309,7.308,7.309h5.172
		l-7.442,10.904c-2.275,3.335-1.417,7.881,1.917,10.156c1.259,0.862,2.692,1.271,4.112,1.271
		C74.219,150.604,76.514,149.488,77.93,147.414z M72.997,67.44v-7.708c0-13.338,13.418-21.596,25.852-21.596h35.967L98.259,91.699
		C85.191,91.355,72.997,79.74,72.997,67.44z"/>
</g>
</svg>
