<?xml version="1.0" encoding="utf-8"?>
<!-- Generator: Adobe Illustrator 16.0.4, SVG Export Plug-In . SVG Version: 6.00 Build 0)  -->
<!DOCTYPE svg PUBLIC "-//W3C//DTD SVG 1.1//EN" "http://www.w3.org/Graphics/SVG/1.1/DTD/svg11.dtd">
<svg version="1.1" id="Layer_1" xmlns="http://www.w3.org/2000/svg" xmlns:xlink="http://www.w3.org/1999/xlink" x="0px" y="0px"
	 width="226.77px" height="155.91px" viewBox="0 0 226.77 155.91" enable-background="new 0 0 226.77 155.91" xml:space="preserve">
<g>
	<path d="M182.401,68.851c-1.84-3.595-6.246-5.013-9.835-3.174c-3.593,1.839-5.016,6.244-3.175,9.837
		c0.193,0.377,0.578,1.793,0.5,2.161c-0.037,0.039-4.07,3.625-25.021-1.396c-7.072-1.693-15.276-3.198-23.897-4.338l10.151-23.781
		c1.583-3.713-0.142-8.007-3.852-9.591c-3.705-1.583-8.006,0.139-9.592,3.854l-11.929,27.949
		c-24.885-1.827-49.85,0.087-59.231,9.852c-3.815,3.971-5.106,9.032-3.63,14.253c0.904,3.204,3.795,5.24,6.958,5.24
		c0.672,0,1.359-0.092,2.039-0.285c3.844-1.084,6.078-5.14,5.062-8.986c2.5-3.844,19.574-6.916,42.737-5.861l-9.888,23.168
		c-1.583,3.712,0.141,8.007,3.852,9.59c0.935,0.4,1.907,0.59,2.867,0.59c2.838,0,5.537-1.666,6.724-4.441l11.806-27.658
		c8.434,0.979,17.342,2.492,26.419,4.664c21.206,5.077,33.892,3.884,39.911-3.773C187.363,79.1,182.927,69.876,182.401,68.851z"/>
</g>
</svg>
