<?xml version="1.0" encoding="utf-8"?>
<!-- Generator: Adobe Illustrator 16.0.4, SVG Export Plug-In . SVG Version: 6.00 Build 0)  -->
<!DOCTYPE svg PUBLIC "-//W3C//DTD SVG 1.1//EN" "http://www.w3.org/Graphics/SVG/1.1/DTD/svg11.dtd">
<svg version="1.1" id="Layer_1" xmlns="http://www.w3.org/2000/svg" xmlns:xlink="http://www.w3.org/1999/xlink" x="0px" y="0px"
	 width="226.77px" height="155.91px" viewBox="0 0 226.77 155.91" enable-background="new 0 0 226.77 155.91" xml:space="preserve">
<g>
	<path d="M87.812,79.986c1.457,0,2.928-0.436,4.21-1.34l12.835-9.066v71.713c0,4.037,3.272,7.309,7.309,7.309
		s7.308-3.271,7.308-7.309v-82.04l23.703-16.743c3.299-2.328,4.084-6.889,1.755-10.185c-2.327-3.294-6.89-4.086-10.186-1.752
		L119.475,41.36V14.617c0-4.037-3.271-7.309-7.308-7.309s-7.309,3.271-7.309,7.309v37.067L83.591,66.708
		c-3.298,2.329-4.083,6.889-1.754,10.186C83.26,78.91,85.521,79.986,87.812,79.986z"/>
</g>
</svg>
