<?xml version="1.0" encoding="utf-8"?>
<!-- Generator: Adobe Illustrator 16.0.0, SVG Export Plug-In . SVG Version: 6.00 Build 0)  -->
<!DOCTYPE svg PUBLIC "-//W3C//DTD SVG 1.1//EN" "http://www.w3.org/Graphics/SVG/1.1/DTD/svg11.dtd">
<svg version="1.1" id="Layer_2" xmlns="http://www.w3.org/2000/svg" xmlns:xlink="http://www.w3.org/1999/xlink" x="0px" y="0px"
	 width="96px" height="96px" viewBox="0 0 96 96" enable-background="new 0 0 96 96" xml:space="preserve">
<path fill-rule="evenodd" clip-rule="evenodd" d="M72.897,8.965C58.116-0.486,39.17-0.826,24.165,8.443
	C9.59,17.445,2.401,30.85,1.671,47.943c0.323,0.028,0.482,0.038,0.64,0.059c2.412,0.292,4.859,0.421,7.231,0.911
	c11.484,2.371,20.787,8.29,27.881,17.61c4.855,6.378,7.816,13.585,8.867,21.54c0.245,1.858,0.249,3.741,0.408,5.611
	c0.019,0.222,0.017,0.629,0.017,0.629l2.657,0.017c0.241-12.537,4.518-23.331,13.18-32.249c8.676-8.931,19.369-13.519,31.774-14.116
	C94.479,35.259,88.617,19.018,72.897,8.965z"/>
</svg>
