<?xml version="1.0" encoding="utf-8"?>
<!-- Generator: Adobe Illustrator 16.0.0, SVG Export Plug-In . SVG Version: 6.00 Build 0)  -->
<!DOCTYPE svg PUBLIC "-//W3C//DTD SVG 1.1//EN" "http://www.w3.org/Graphics/SVG/1.1/DTD/svg11.dtd">
<svg version="1.1" id="Layer_1" xmlns="http://www.w3.org/2000/svg" xmlns:xlink="http://www.w3.org/1999/xlink" x="0px" y="0px"
	 width="96px" height="96px" viewBox="0 0 96 96" enable-background="new 0 0 96 96" xml:space="preserve">
<g>
	<path d="M54.556,15.354c0,0-28.084,35.55-28.084,51.063c0,15.515,12.576,28.082,28.084,28.082
		c15.511,0,28.085-12.567,28.085-28.082C82.641,50.904,54.556,15.354,54.556,15.354z M54.342,83.869
		c-9.59,0-17.395-7.804-17.395-17.395c0-1.567,1.272-2.837,2.838-2.837c1.567,0,2.838,1.27,2.838,2.837
		c0,6.463,5.257,11.72,11.719,11.72c1.568,0,2.838,1.27,2.838,2.838C57.18,82.597,55.91,83.869,54.342,83.869z"/>
	<path d="M20.432,36.009c0-1.059,0.859-1.915,1.916-1.915c1.059,0,1.916,0.856,1.916,1.915c0,3.274,1.999,6.091,4.839,7.291
		c4.924-8.971,11.069-17.88,15.513-23.965C39.151,10.152,32.319,1.501,32.319,1.501s-18.96,23.998-18.96,34.47
		c0,7.601,4.484,14.135,10.939,17.159c0.879-2.105,1.896-4.266,3.011-6.448C23.26,44.829,20.432,40.745,20.432,36.009z"/>
</g>
</svg>
