<?xml version="1.0" encoding="utf-8"?>
<!-- Generator: Adobe Illustrator 16.0.4, SVG Export Plug-In . SVG Version: 6.00 Build 0)  -->
<!DOCTYPE svg PUBLIC "-//W3C//DTD SVG 1.1//EN" "http://www.w3.org/Graphics/SVG/1.1/DTD/svg11.dtd">
<svg version="1.1" id="Layer_1" xmlns="http://www.w3.org/2000/svg" xmlns:xlink="http://www.w3.org/1999/xlink" x="0px" y="0px"
	 width="50px" height="50px" viewBox="0 0 50 50" enable-background="new 0 0 50 50" xml:space="preserve">
<g>
	<circle cx="28.745" cy="12.281" r="1.375"/>
	<circle cx="32.49" cy="12.281" r="1.375"/>
	<circle cx="25" cy="12.281" r="1.375"/>
	<path d="M37.956,19.353v3.741h0.5v0.683h-0.915V22.74h-1.868v-8.522H14.327v8.522h-1.868v1.036h-0.915v-0.683h0.5v-3.741h-2v3.741
		h0.5v1.683h1.915v10.518h1.173v3.8h6v-3.8h10.736v3.8h6v-3.8h1.173V24.776h1.915v-1.683h0.5v-3.741H37.956z M16.635,29.017
		c-0.958,0-1.737-0.778-1.737-1.738c0-0.958,0.779-1.736,1.737-1.736c0.96,0,1.738,0.778,1.738,1.736
		C18.373,28.238,17.595,29.017,16.635,29.017z M21.661,32.567h-1v-7.103h1V32.567z M24.219,32.567h-1v-7.103h1V32.567z
		 M26.781,32.567h-1v-7.103h1V32.567z M26.996,22.741H16.328v-6.522h17.346v6.522h-0.428c0.012-0.111,0.033-0.221,0.033-0.334
		c0-1.741-1.416-3.158-3.157-3.158s-3.158,1.417-3.158,3.158C26.962,22.52,26.984,22.629,26.996,22.741z M29.339,32.567h-1v-7.103h1
		V32.567z M27.996,22.741c-0.018-0.11-0.034-0.221-0.034-0.334c0-1.19,0.968-2.158,2.158-2.158s2.157,0.968,2.157,2.158
		c0,0.113-0.017,0.225-0.033,0.334H27.996z M33.363,29.017c-0.959,0-1.736-0.778-1.736-1.738c0-0.958,0.778-1.736,1.736-1.736
		c0.96,0,1.738,0.778,1.738,1.736C35.104,28.238,34.323,29.017,33.363,29.017z"/>
	<circle cx="21.255" cy="12.281" r="1.375"/>
	<circle cx="17.51" cy="12.281" r="1.375"/>
</g>
</svg>
