<?xml version="1.0" encoding="utf-8"?>
<!-- Generator: Adobe Illustrator 16.0.4, SVG Export Plug-In . SVG Version: 6.00 Build 0)  -->
<!DOCTYPE svg PUBLIC "-//W3C//DTD SVG 1.1//EN" "http://www.w3.org/Graphics/SVG/1.1/DTD/svg11.dtd">
<svg version="1.1" id="Layer_1" xmlns="http://www.w3.org/2000/svg" xmlns:xlink="http://www.w3.org/1999/xlink" x="0px" y="0px"
	 width="50px" height="50px" viewBox="0 0 50 50" enable-background="new 0 0 50 50" xml:space="preserve">
<path d="M29.084,21.958v-5.375c0-1.378-1.166-2.5-2.599-2.5h-2.97c-1.432,0-2.598,1.122-2.598,2.5v5.374
	c-0.518,0.417-0.835,0.939-0.835,1.519v3.047c0,0.58,0.317,1.102,0.835,1.52v5.373c0,1.379,1.166,2.5,2.598,2.5h2.97
	c1.433,0,2.599-1.121,2.599-2.5v-5.375c0.517-0.418,0.834-0.938,0.834-1.519v-3.047C29.918,22.896,29.601,22.376,29.084,21.958z
	 M21.083,26.523v-3.047c0-0.699,1.223-1.477,2.977-1.477h1.881c1.754,0,2.977,0.778,2.977,1.477v3.047
	c0,0.699-1.223,1.477-2.977,1.477h-1.881C22.307,28,21.083,27.223,21.083,26.523z M21.918,16.583c0-0.827,0.717-1.5,1.598-1.5h2.97
	c0.881,0,1.598,0.673,1.598,1.5v4.802C27.469,21.144,26.738,21,25.941,21h-1.881c-0.796,0-1.526,0.144-2.142,0.385V16.583
	L21.918,16.583z M28.084,33.418c0,0.826-0.717,1.5-1.599,1.5h-2.97c-0.881,0-1.598-0.674-1.598-1.5v-4.801
	c0.616,0.241,1.345,0.385,2.142,0.385h1.881c0.797,0,1.526-0.145,2.144-0.387V33.418L28.084,33.418z M22.979,17.117
	c-0.003-0.274,0.217-0.498,0.49-0.5c0.274-0.002,0.498,0.217,0.5,0.491c0.003,0.274-0.217,0.499-0.49,0.501
	S22.98,17.391,22.979,17.117z M24.504,17.103c-0.003-0.274,0.217-0.498,0.491-0.5s0.498,0.217,0.501,0.491
	c0.002,0.273-0.218,0.498-0.492,0.5S24.506,17.375,24.504,17.103z M26.029,17.087c-0.002-0.274,0.219-0.498,0.492-0.5
	s0.498,0.217,0.5,0.491c0.003,0.274-0.217,0.498-0.491,0.5C26.256,17.582,26.033,17.361,26.029,17.087z M23.971,19.852
	c0.003,0.273-0.217,0.498-0.491,0.5c-0.273,0.002-0.497-0.218-0.5-0.491c-0.002-0.274,0.218-0.498,0.491-0.5
	C23.745,19.357,23.968,19.578,23.971,19.852z M25.497,19.836c0.003,0.273-0.217,0.498-0.491,0.5s-0.498-0.217-0.501-0.491
	c-0.002-0.273,0.217-0.499,0.492-0.501C25.271,19.343,25.495,19.562,25.497,19.836z M27.022,19.823
	c0.003,0.272-0.217,0.498-0.491,0.5c-0.273,0.002-0.498-0.217-0.501-0.491c-0.002-0.274,0.218-0.498,0.491-0.501
	C26.797,19.329,27.021,19.548,27.022,19.823z M24.237,18.011c0.274,0,0.496,0.222,0.496,0.496c0,0.274-0.222,0.496-0.496,0.496
	c-0.274,0-0.496-0.222-0.496-0.496C23.742,18.233,23.963,18.011,24.237,18.011z M25.764,18.011c0.273,0,0.496,0.222,0.496,0.496
	c0,0.274-0.223,0.496-0.496,0.496c-0.273,0-0.495-0.222-0.495-0.496C25.269,18.233,25.489,18.011,25.764,18.011z M22.979,30.215
	c-0.003-0.274,0.217-0.498,0.49-0.5c0.274-0.002,0.498,0.217,0.5,0.49c0.003,0.274-0.217,0.5-0.49,0.502S22.98,30.488,22.979,30.215
	z M24.504,30.199c-0.003-0.273,0.217-0.498,0.491-0.5s0.498,0.217,0.501,0.491c0.002,0.272-0.218,0.498-0.492,0.5
	S24.506,30.474,24.504,30.199z M26.029,30.186c-0.002-0.273,0.219-0.498,0.492-0.5s0.498,0.217,0.5,0.49
	c0.003,0.275-0.217,0.498-0.491,0.5C26.256,30.68,26.033,30.459,26.029,30.186z M23.971,32.949c0.003,0.273-0.217,0.498-0.491,0.5
	c-0.273,0.002-0.497-0.218-0.5-0.49c-0.002-0.274,0.218-0.498,0.491-0.5C23.745,32.455,23.968,32.676,23.971,32.949z M25.497,32.935
	c0.003,0.272-0.217,0.498-0.491,0.5s-0.498-0.218-0.501-0.491c-0.002-0.273,0.217-0.499,0.492-0.501
	C25.271,32.44,25.495,32.66,25.497,32.935z M27.022,32.92c0.003,0.272-0.217,0.498-0.491,0.5c-0.273,0.002-0.498-0.217-0.501-0.492
	c-0.002-0.273,0.218-0.497,0.491-0.5C26.797,32.426,27.021,32.646,27.022,32.92z M24.237,32.101c-0.274,0-0.496-0.222-0.496-0.496
	s0.222-0.496,0.496-0.496c0.274,0,0.496,0.222,0.496,0.496S24.513,32.101,24.237,32.101z M25.764,32.101
	c-0.273,0-0.495-0.222-0.495-0.496s0.222-0.496,0.495-0.496c0.273,0,0.496,0.222,0.496,0.496S26.037,32.101,25.764,32.101z"/>
</svg>
