<svg width="19.135" xmlns="http://www.w3.org/2000/svg" height="11.314" viewBox="0 0 19.135 11.314" xmlns:xlink="http://www.w3.org/1999/xlink" enable-background="new 0 0 19.135 11.314">
<path d="m16.122,5.284h-.077c-.21-1.844-1.773-3.277-3.675-3.277-.657,0-1.273,.174-1.81,.473-.707-1.467-2.211-2.48-3.952-2.48-2.422,0-4.388,1.965-4.388,4.387 0,.336 .039,.664 .111,.979-1.335,.309-2.331,1.504-2.331,2.934 0,1.664 1.351,3.014 3.015,3.014l.489-.021h12.086l.531,.021c1.664,0 3.014-1.35 3.014-3.014s-1.349-3.016-3.013-3.016z"/>
</svg>
