<svg width="19.135" xmlns="http://www.w3.org/2000/svg" height="17.194" viewBox="0 0 19.135 17.194" xmlns:xlink="http://www.w3.org/1999/xlink" enable-background="new 0 0 19.135 17.194">
<path d="m16.123,5.284h-.078c-.21-1.844-1.773-3.275-3.675-3.275-.657,0-1.274,.17-1.81,.471-.708-1.467-2.212-2.48-3.952-2.48-2.422,0-4.388,1.965-4.388,4.387 0,.336 .039,.662 .111,.979-1.335,.309-2.331,1.504-2.331,2.934 0,1.664 1.35,3.012 3.014,3.012l.49-.02h3.708l-1.117,2.328 2.602-.002-1.537,3.576 3.904-4.984-2.255,.016 .916-.934h5.865l.532,.02c1.664,0 3.013-1.348 3.013-3.012s-1.348-3.016-3.012-3.016z"/>
</svg>
