<?xml version="1.0" encoding="utf-8"?>
<!-- Generator: Adobe Illustrator 16.0.0, SVG Export Plug-In . SVG Version: 6.00 Build 0)  -->
<!DOCTYPE svg PUBLIC "-//W3C//DTD SVG 1.1//EN" "http://www.w3.org/Graphics/SVG/1.1/DTD/svg11.dtd">
<svg version="1.1" id="Layer_1" xmlns="http://www.w3.org/2000/svg" xmlns:xlink="http://www.w3.org/1999/xlink" x="0px" y="0px"
	 width="96px" height="96px" viewBox="0 0 96 96" enable-background="new 0 0 96 96" xml:space="preserve">
<g>
	<path d="M55.968,35.206c0-0.507,0.395-0.92,0.92-0.92h4.982v-4.46h-8.199c-1.432,0-2.593,1.206-2.593,2.69V49.2h4.89V35.206z"/>
	<path d="M65.675,49.2h8.267v-4.46H68.89h-0.033c-0.488,0-0.884-0.413-0.884-0.92v-9.534h5.937v-4.46h-5.937v-2.384h-4.89V46.51
		C63.083,47.997,64.244,49.2,65.675,49.2z"/>
	<path d="M35.61,49.183h9.004V49.2h4.89V32.516c0-1.485-1.16-2.69-2.591-2.69H30.899v4.46h12.795h0.035
		c0.488,0,0.885,0.413,0.885,0.92v2.349h-0.001H35.61c-2.901,0-5.287,2.287-5.573,5.219c-0.019,0.195-0.029,0.394-0.029,0.594
		s0.011,0.399,0.029,0.594C30.323,46.896,32.709,49.183,35.61,49.183z M35.822,41.742h8.791l0.001-0.041v3.242h-8.792
		c-0.851,0-1.542-0.714-1.542-1.599C34.28,42.459,34.972,41.742,35.822,41.742z"/>
	<path d="M80.028,37.555c-0.967,0-1.876,0.254-2.67,0.702c-1.747,0.984-2.933,2.905-2.933,5.112c0,3.211,2.509,5.814,5.603,5.814
		h0.002h9.003V49.2h4.888h0.001V32.516c0-1.485-1.161-2.69-2.594-2.69H75.319v4.46h12.795h0.034c0.489,0,0.885,0.413,0.885,0.92
		v2.349H80.028z M89.033,44.943h-8.791c-0.854,0-1.542-0.714-1.542-1.599c0-0.885,0.688-1.603,1.542-1.603h8.791V44.943z"/>
	<path d="M9.216,49.218L9.216,49.218l0.02-13.834c0-0.073,0.007-0.144,0.021-0.213c0.099-0.497,0.523-0.871,1.031-0.871h2.598
		c0.529,0,0.965,0.408,1.04,0.936v0.019l-0.002-0.016v13.99h2.667h0.004h2.671v-0.01h0.002V35.226
		c0.009-0.065,0.024-0.127,0.043-0.188c0.002-0.002,0.002-0.004,0.003-0.006c0.016-0.048,0.037-0.094,0.058-0.139
		c0.013-0.023,0.023-0.046,0.036-0.069c0.015-0.025,0.031-0.049,0.048-0.073c0.029-0.042,0.062-0.085,0.097-0.123
		c0.004-0.003,0.007-0.007,0.01-0.011c0.19-0.196,0.452-0.317,0.742-0.317h2.594c0.582,0,1.056,0.491,1.056,1.095l0.016,13.834h4.89
		v-0.01h0.003V32.535c0-1.485-1.158-2.688-2.591-2.688h-7.085c-1.257,0-2.304,0.927-2.541,2.159
		c-0.034,0.17-0.051,0.346-0.052,0.526c0-0.181-0.019-0.358-0.052-0.529c-0.237-1.23-1.28-2.156-2.533-2.156H6.92
		c-1.432,0-2.59,1.203-2.59,2.688v0.012v16.67v0.01h4.886V49.218z"/>
	<path d="M69.634,52.873l0.02-0.02l-25.765,0.02l0.021-0.02l-27.508,0.021L0.633,68.559l25.764-0.013l-0.013,0.013l25.723-0.013
		l-0.013,0.013l27.526-0.014l15.747-15.692L69.634,52.873z M8.632,65.255l9.132-9.083l18.175-0.014l-0.021,0.02l1.477-0.001
		l-9.77,9.068L8.632,65.255z M34.356,65.255l0.014-0.013l-1.892,0l9.769-9.069l19.435-0.015l-0.02,0.02l1.431-0.001l-9.769,9.068
		L34.356,65.255z M78.257,65.246l-18.189,0.009l0.013-0.013l-1.903,0l9.77-9.069l19.43-0.015L78.257,65.246z"/>
</g>
</svg>
