<?xml version="1.0" encoding="utf-8"?>
<!-- Generator: Adobe Illustrator 16.0.4, SVG Export Plug-In . SVG Version: 6.00 Build 0)  -->
<!DOCTYPE svg PUBLIC "-//W3C//DTD SVG 1.1//EN" "http://www.w3.org/Graphics/SVG/1.1/DTD/svg11.dtd">
<svg version="1.1" id="Layer_1" xmlns="http://www.w3.org/2000/svg" xmlns:xlink="http://www.w3.org/1999/xlink" x="0px" y="0px"
	 width="50px" height="50px" viewBox="0 0 50 50" enable-background="new 0 0 50 50" xml:space="preserve">
<polygon points="33.638,23.5 33.638,24.25 25.75,24.25 25.75,16.362 26.5,16.362 26.5,14.138 23.5,14.138 23.5,16.362 24.25,16.362 
	24.25,24.25 16.362,24.25 16.362,23.5 14.138,23.5 14.138,26.5 16.362,26.5 16.362,25.75 24.25,25.75 24.25,33.639 23.5,33.639 
	23.5,35.861 26.5,35.861 26.5,33.639 25.75,33.639 25.75,25.75 33.638,25.75 33.638,26.5 35.862,26.5 35.862,23.5 "/>
</svg>
