<?xml version="1.0" encoding="utf-8"?>
<!-- Generator: Adobe Illustrator 16.0.4, SVG Export Plug-In . SVG Version: 6.00 Build 0)  -->
<!DOCTYPE svg PUBLIC "-//W3C//DTD SVG 1.1//EN" "http://www.w3.org/Graphics/SVG/1.1/DTD/svg11.dtd">
<svg version="1.1" id="Layer_1" xmlns="http://www.w3.org/2000/svg" xmlns:xlink="http://www.w3.org/1999/xlink" x="0px" y="0px"
	 width="50px" height="50px" viewBox="0 0 50 50" enable-background="new 0 0 50 50" xml:space="preserve">
<path d="M35.584,20.639c0-2.481-2.018-4.5-4.498-4.5c-1.492,0-2.807,0.738-3.626,1.859c-0.051-0.013-0.102-0.022-0.156-0.018
	c-2.401,0.217-3.498,1.839-4.047,3.544c-1.406-1.121-2.021-3.652-2.028-3.68c-0.062-0.268-0.33-0.438-0.602-0.371
	c-0.27,0.062-0.436,0.332-0.372,0.601c0.031,0.136,0.79,3.259,2.731,4.478c-0.146,0.68-0.227,1.329-0.292,1.863l-0.038,0.303
	c-0.411,3.175-3.933,3.585-5.826,3.807c-1.942,0.226-2.339,1.181-2.402,1.731c-0.128,1.104,0.841,2.166,1.812,2.515
	c2.119,0.765,4.065,1.091,5.823,1.091c4.312,0,7.479-1.97,9.243-4.3c1.389-1.835,2.18-3.601,2.363-5.251
	C34.824,23.495,35.584,22.156,35.584,20.639z M31.086,17.139c1.929,0,3.498,1.57,3.498,3.5c0,1.93-1.569,3.5-3.498,3.5
	c-1.93,0-3.5-1.57-3.5-3.5C27.586,18.708,29.156,17.139,31.086,17.139z M30.51,28.957c-1.102,1.453-5.359,5.959-13.933,2.873
	c-0.653-0.236-1.216-0.945-1.156-1.459c0.05-0.438,0.605-0.748,1.528-0.854c1.852-0.216,6.188-0.722,6.699-4.67l0.037-0.309
	c0.231-1.861,0.61-4.902,3.201-5.481c-0.187,0.494-0.302,1.023-0.302,1.582c0,2.481,2.019,4.5,4.5,4.5
	c0.514,0,0.999-0.104,1.459-0.264C32.262,26.156,31.596,27.521,30.51,28.957z M28.059,20.639c0-0.276,0.225-0.5,0.5-0.5h2.027
	v-2.026c0-0.276,0.224-0.5,0.5-0.5s0.5,0.224,0.5,0.5v2.026h2.025c0.275,0,0.5,0.224,0.5,0.5c0,0.276-0.225,0.5-0.5,0.5h-2.025
	v2.026c0,0.276-0.224,0.5-0.5,0.5s-0.5-0.224-0.5-0.5v-2.026h-2.027C28.282,21.139,28.059,20.915,28.059,20.639z"/>
</svg>
