<?xml version="1.0" encoding="utf-8"?>
<!-- Generator: Adobe Illustrator 16.0.4, SVG Export Plug-In . SVG Version: 6.00 Build 0)  -->
<!DOCTYPE svg PUBLIC "-//W3C//DTD SVG 1.1//EN" "http://www.w3.org/Graphics/SVG/1.1/DTD/svg11.dtd">
<svg version="1.1" id="Layer_1" xmlns="http://www.w3.org/2000/svg" xmlns:xlink="http://www.w3.org/1999/xlink" x="0px" y="0px"
	 width="50px" height="50px" viewBox="0 0 50 50" enable-background="new 0 0 50 50" xml:space="preserve">
<path d="M20.935,16.541c0-0.275,0.224-0.5,0.5-0.5h5.195c0.203,0,0.386,0.123,0.463,0.311c0.077,0.188,0.032,0.403-0.112,0.547
	l-4.323,4.248h3.973c0.276,0,0.5,0.225,0.5,0.5c0,0.276-0.224,0.5-0.5,0.5h-5.195c-0.203,0-0.386-0.123-0.463-0.311
	c-0.077-0.188-0.032-0.402,0.112-0.546l4.324-4.249h-3.973C21.159,17.041,20.935,16.816,20.935,16.541z M32.203,22.424h-2.449
	l2.799-2.751c0.146-0.144,0.189-0.356,0.112-0.546c-0.077-0.188-0.261-0.311-0.463-0.311h-3.671c-0.276,0-0.5,0.224-0.5,0.5
	c0,0.275,0.224,0.5,0.5,0.5h2.449l-2.799,2.75c-0.146,0.144-0.189,0.357-0.113,0.547c0.078,0.188,0.261,0.311,0.464,0.311h3.671
	c0.275,0,0.5-0.224,0.5-0.5C32.703,22.648,32.479,22.424,32.203,22.424z M27.021,24.109c-0.078-0.188-0.26-0.312-0.463-0.312h-2.93
	c-0.276,0-0.5,0.224-0.5,0.5s0.224,0.5,0.5,0.5h1.707l-2.058,2.022c-0.145,0.144-0.189,0.359-0.112,0.547s0.26,0.311,0.463,0.311
	h2.93c0.275,0,0.5-0.224,0.5-0.5c0-0.275-0.225-0.5-0.5-0.5h-1.708l2.058-2.023C27.053,24.514,27.098,24.297,27.021,24.109z
	 M29.464,29.125v4.334c0,0.275-0.224,0.5-0.5,0.5s-0.5-0.225-0.5-0.5v-1H18.297v1c0,0.275-0.224,0.5-0.5,0.5
	c-0.276,0-0.5-0.225-0.5-0.5v-7.25c0-0.275,0.224-0.5,0.5-0.5c0.276,0,0.5,0.225,0.5,0.5v3.75h10.167v-0.834
	c0-0.275,0.224-0.5,0.5-0.5S29.464,28.85,29.464,29.125z M28.464,31.459v-0.5H18.297v0.5H28.464z M21.13,28.896
	c0,0.275,0.224,0.5,0.5,0.5h6c0.276,0,0.5-0.225,0.5-0.5c0-0.276-0.224-0.5-0.5-0.5h-6C21.354,28.396,21.13,28.62,21.13,28.896z
	 M19.63,29.688c0.529,0,0.958-0.429,0.958-0.957c0-0.53-0.429-0.959-0.958-0.959c-0.53,0-0.959,0.429-0.959,0.959
	C18.671,29.26,19.1,29.688,19.63,29.688z"/>
</svg>
