<?xml version="1.0" encoding="utf-8"?>
<!-- Generator: Adobe Illustrator 16.0.0, SVG Export Plug-In . SVG Version: 6.00 Build 0)  -->
<!DOCTYPE svg PUBLIC "-//W3C//DTD SVG 1.1//EN" "http://www.w3.org/Graphics/SVG/1.1/DTD/svg11.dtd">
<svg version="1.1" id="Layer_1" xmlns="http://www.w3.org/2000/svg" xmlns:xlink="http://www.w3.org/1999/xlink" x="0px" y="0px"
	 width="96px" height="96px" viewBox="0 0 96 96" enable-background="new 0 0 96 96" xml:space="preserve">
<g>
	<path d="M65.427,68.6c-0.301-0.115-0.335-1.901-0.335-18.033c0-9.847-0.072-17.949-0.164-18.005
		c-0.09-0.057-4.004,2.656-8.695,6.028c-7.257,5.213-8.601,6.102-8.986,5.945c-0.25-0.101-4.092-2.891-8.537-6.199
		c-4.446-3.308-8.141-6.015-8.21-6.015c-0.067,0-0.173,8.121-0.229,18.045l-0.105,18.045H25.57l-8.859,0.116
		c0,0.088,6.972,6.161,15.561,13.182c8.588,7.022,15.686,12.767,15.773,12.767c0.138,0,4.738-3.927,25.585-21.845l4.475-4.146
		l-3.655,0.077C73.722,68.585,65.896,68.779,65.427,68.6z"/>
	<path d="M47.756,31.154c0.159,0.003,6.168-4.373,13.355-9.727c11.17-8.316,13.031-9.776,12.805-10.049
		c-0.146-0.175-1.03-0.916-1.967-1.648C60.244,0.592,44.186-1.057,30.797,5.507c-3.528,1.729-9.125,5.663-8.924,6.271
		c0.04,0.117,5.814,4.524,12.834,9.793S47.598,31.152,47.756,31.154z"/>
	<path d="M85.011,28.319c-0.949-2.985-3.295-7.717-5.011-10.102c-1.539-2.143-4.706-5.84-5.001-5.84
		c-0.328,18.621-0.136,37.306,0.013,55.909c0.266,0,3.521-3.563,4.966-5.575c1.738-2.424,4.08-7.143,5.033-10.139
		C87.604,44.4,87.604,36.492,85.011,28.319z"/>
	<path d="M20.959,68.314c-0.02-0.56,0.086-55.727-0.169-55.727c-0.282,0-3.283,3.524-4.814,5.656
		c-1.698,2.361-4.046,7.102-4.991,10.075c-3.191,10.058-2.437,20.19,2.205,29.539c1.59,3.207,3.285,5.716,5.802,8.599
		C19.878,67.473,20.963,68.437,20.959,68.314z"/>
</g>
</svg>
