<?xml version="1.0" encoding="utf-8"?>
<!-- Generator: Adobe Illustrator 16.0.0, SVG Export Plug-In . SVG Version: 6.00 Build 0)  -->
<!DOCTYPE svg PUBLIC "-//W3C//DTD SVG 1.1//EN" "http://www.w3.org/Graphics/SVG/1.1/DTD/svg11.dtd">
<svg version="1.1" id="Layer_1" xmlns="http://www.w3.org/2000/svg" xmlns:xlink="http://www.w3.org/1999/xlink" x="0px" y="0px"
	 width="96px" height="96px" viewBox="0 0 96 96" enable-background="new 0 0 96 96" xml:space="preserve">
<g>
	<path d="M28.788,47.965c0-1.342-1.036-2.447-2.328-2.447l-1.396,0.006v4.899l1.36-0.006C27.716,50.417,28.788,49.324,28.788,47.965
		z"/>
	<path d="M53.854,45.483l-1.206-0.006v1.945h1.206c0.538,0,0.972-0.434,0.972-0.966C54.825,45.917,54.392,45.483,53.854,45.483z"/>
	<path d="M85.761,40.669C82.328,22.954,66.703,9.536,48,9.536S13.672,22.954,10.239,40.669H0.396v14.662h9.844
		C13.672,73.046,29.297,86.464,48,86.464c18.702,0,34.328-13.418,37.761-31.133h9.844V40.669H85.761z M48,22.865
		c11.311,0,20.898,7.509,24.044,17.804H23.956C27.102,30.374,36.689,22.865,48,22.865z M65.028,47.989
		c0,2.251-1.74,4.075-3.891,4.075c-2.149,0-3.889-1.824-3.889-4.075c0-2.245,1.739-4.075,3.889-4.075
		C63.288,43.914,65.028,45.744,65.028,47.989z M57.2,51.903h-1.521l-2.207-3.108H52.63v3.108h-1.408v-7.804h2.632
		c1.296,0,2.351,1.06,2.351,2.357c0,0.909-0.514,1.665-1.271,2.058L57.2,51.903z M43.257,51.903h-1.521l-2.207-3.108h-0.842v3.108
		h-1.408v-7.804h2.631c1.297,0,2.352,1.06,2.352,2.357c0,0.909-0.514,1.665-1.271,2.058L43.257,51.903z M43.22,47.829
		c0-3.935,3.874-4.575,6.63-3.352v1.532c-2.976-1.532-5.248-0.157-5.248,1.757c0,2.144,1.655,3.581,3.94,2.656v-1.729h-1.258v-1.347
		h2.661v3.716C47.447,53.229,43.22,51.764,43.22,47.829z M35.177,46.998v1.504h-2.504v1.824h3.328v1.566H31.27v-7.808h4.63v1.544
		h-3.227v1.37H35.177z M10.505,52.174c-1.869,0-3.351-1.651-3.351-3.609v-4.48h1.403l0.006,4.631
		c0.037,1.154,0.891,2.078,1.941,2.094c1.084,0,1.959-0.96,1.959-2.094v-4.631h1.398l0.006,4.502
		C13.868,50.641,12.374,52.174,10.505,52.174z M22.147,51.893h-1.403l-4.03-5.248v5.248h-1.409v-7.808h1.409l4.03,5.35v-5.35h1.403
		V51.893z M23.645,44.087h2.864c2.06,0,3.67,1.728,3.67,3.878c0,2.167-1.651,3.92-3.707,3.92l-2.827,0.006V44.087z M48,73.135
		c-11.311,0-20.898-7.509-24.044-17.804h48.088C68.898,65.626,59.311,73.135,48,73.135z M69.479,52.174
		c-1.869,0-3.351-1.651-3.351-3.609v-4.48h1.403l0.006,4.631c0.037,1.154,0.891,2.078,1.941,2.094c1.084,0,1.959-0.96,1.959-2.094
		v-4.631h1.398l0.005,4.502C72.842,50.641,71.349,52.174,69.479,52.174z M81.38,51.893h-1.402l-4.031-5.248v5.248h-1.408v-7.808
		h1.408l4.031,5.35v-5.35h1.402V51.893z M85.972,51.885l-2.828,0.006v-7.804h2.863c2.061,0,3.67,1.728,3.67,3.878
		C89.677,50.132,88.026,51.885,85.972,51.885z"/>
	<path d="M58.698,47.989c0,1.409,1.093,2.548,2.439,2.548c1.354,0,2.447-1.139,2.447-2.548c0-1.403-1.094-2.536-2.447-2.536
		C59.791,45.453,58.698,46.586,58.698,47.989z"/>
	<path d="M39.909,45.483l-1.205-0.006v1.945h1.205c0.539,0,0.973-0.434,0.973-0.966C40.882,45.917,40.448,45.483,39.909,45.483z"/>
	<path d="M85.96,45.519l-1.396,0.006v4.899l1.359-0.006c1.291,0,2.363-1.093,2.363-2.452C88.286,46.624,87.251,45.519,85.96,45.519z
		"/>
</g>
</svg>
