<?xml version="1.0" encoding="utf-8"?>
<!-- Generator: Adobe Illustrator 16.0.4, SVG Export Plug-In . SVG Version: 6.00 Build 0)  -->
<!DOCTYPE svg PUBLIC "-//W3C//DTD SVG 1.1//EN" "http://www.w3.org/Graphics/SVG/1.1/DTD/svg11.dtd">
<svg version="1.1" id="Capa_1" xmlns="http://www.w3.org/2000/svg" xmlns:xlink="http://www.w3.org/1999/xlink" x="0px" y="0px"
	 width="17.223px" height="26.891px" viewBox="0 0 17.223 26.891" enable-background="new 0 0 17.223 26.891" xml:space="preserve">
<path d="M2.52,14.602H0.622C0.279,14.602,0,14.739,0,14.91v5.021c0,0.17,0.278,0.307,0.622,0.307H2.52
	c0.346,0,0.622-0.137,0.622-0.307V14.91C3.142,14.739,2.865,14.602,2.52,14.602z M16.599,6.652h-1.897
	c-0.344,0-0.621,0.332-0.621,0.743v12.101c0,0.41,0.277,0.742,0.621,0.742h1.897c0.344,0,0.623-0.332,0.623-0.742V7.395
	C17.221,6.984,16.943,6.652,16.599,6.652z M11.906,9.798h-1.899c-0.343,0-0.62,0.257-0.62,0.571v9.299c0,0.314,0.277,0.57,0.62,0.57
	h1.899c0.345,0,0.621-0.256,0.621-0.57v-9.299C12.528,10.053,12.251,9.798,11.906,9.798z M7.214,11.135h-1.9
	c-0.343,0-0.621,0.223-0.621,0.498v8.107c0,0.273,0.278,0.498,0.621,0.498h1.899c0.344,0,0.622-0.225,0.622-0.498v-8.107
	C7.835,11.357,7.557,11.135,7.214,11.135z"/>
</svg>
