<?xml version="1.0" encoding="utf-8"?>
<!-- Generator: Adobe Illustrator 16.0.4, SVG Export Plug-In . SVG Version: 6.00 Build 0)  -->
<!DOCTYPE svg PUBLIC "-//W3C//DTD SVG 1.1//EN" "http://www.w3.org/Graphics/SVG/1.1/DTD/svg11.dtd">
<svg version="1.1" id="Layer_1" xmlns="http://www.w3.org/2000/svg" xmlns:xlink="http://www.w3.org/1999/xlink" x="0px" y="0px"
	 width="50px" height="50px" viewBox="0 0 50 50" enable-background="new 0 0 50 50" xml:space="preserve">
<path d="M37.578,35.548c-0.592-0.351-1.274-0.393-1.878-0.192l-3.954-2.337c0.053-0.469,0.351-0.892,0.83-1.081
	c0.721-0.288,0.87-0.98,0.333-1.54c-0.536-0.561-0.493-1.43,0.095-1.936c0.586-0.507,0.506-1.21-0.187-1.563
	c-0.689-0.355-0.933-1.191-0.539-1.862c0.393-0.668,0.084-1.308-0.681-1.418c-0.768-0.112-1.271-0.826-1.116-1.586
	c0.155-0.76-0.343-1.265-1.106-1.121c-0.763,0.144-1.467-0.37-1.57-1.137c-0.1-0.77-0.735-1.085-1.409-0.702
	c-0.673,0.382-1.508,0.128-1.852-0.566c-0.344-0.696-1.048-0.789-1.561-0.204c-0.515,0.58-1.387,0.61-1.938,0.063
	c-0.552-0.543-1.248-0.403-1.544,0.314c-0.295,0.717-1.111,1.029-1.809,0.695c-0.7-0.337-1.312,0.021-1.359,0.795
	s-0.717,1.333-1.489,1.241c-0.769-0.089-1.23,0.448-1.023,1.193c0.205,0.749-0.247,1.496-1.005,1.659
	c-0.757,0.165-1.02,0.822-0.583,1.463c0.439,0.642,0.254,1.492-0.411,1.895c-0.664,0.401-0.698,1.11-0.075,1.574
	c0.623,0.463,0.724,1.329,0.225,1.923c-0.496,0.595-0.298,1.277,0.441,1.513c0.737,0.235,1.116,1.022,0.837,1.746
	c-0.276,0.728,0.132,1.307,0.907,1.289c0.777-0.016,1.389,0.604,1.362,1.381c-0.028,0.773,0.547,1.189,1.274,0.922
	c0.73-0.267,1.51,0.125,1.736,0.864c0.227,0.741,0.904,0.949,1.505,0.458c0.602-0.488,1.468-0.373,1.922,0.255
	c0.453,0.627,1.164,0.603,1.574-0.054c0.411-0.658,1.266-0.832,1.901-0.386c0.633,0.445,1.294,0.192,1.471-0.562
	c0.174-0.755,0.927-1.195,1.67-0.979c0.745,0.217,1.29-0.237,1.21-1.009c-0.042-0.396,0.089-0.763,0.33-1.031l4.066,2.403
	c0.117,0.626,0.485,1.204,1.076,1.553c1.084,0.643,2.486,0.283,3.129-0.804C39.022,37.592,38.664,36.191,37.578,35.548z
	 M28.36,31.018l-2.941-1.739c-0.022-0.946-0.511-1.859-1.385-2.376c-0.957-0.566-2.105-0.495-2.981,0.071l1.625,0.961
	c0.576,0.34,0.757,1.1,0.402,1.697c-0.353,0.598-1.104,0.807-1.681,0.467l-1.625-0.961c-0.075,1.038,0.417,2.08,1.376,2.646
	c0.873,0.518,1.908,0.504,2.749,0.067l2.838,1.678c-0.766,0.73-1.721,1.285-2.817,1.566c-3.416,0.879-6.908-1.187-7.785-4.601
	c-0.878-3.416,1.187-6.908,4.603-7.785c3.416-0.877,6.908,1.187,7.786,4.603C28.85,28.584,28.768,29.864,28.36,31.018z
	 M29.782,31.857l-0.593-0.351c0.522-1.37,0.646-2.905,0.254-4.431c-1.007-3.922-5.02-6.294-8.943-5.288
	c-3.924,1.008-6.296,5.021-5.288,8.944c1.009,3.922,5.02,6.294,8.943,5.286c1.353-0.349,2.514-1.058,3.422-1.991l0.603,0.355
	c-1.008,1.079-2.32,1.897-3.856,2.292c-4.292,1.104-8.666-1.481-9.769-5.774c-1.104-4.293,1.483-8.666,5.775-9.768
	c4.292-1.103,8.667,1.481,9.769,5.775C30.54,28.616,30.387,30.334,29.782,31.857z M37.45,38.127l-1.049,0.59l-1.035-0.611
	l0.013-1.203l1.049-0.59l1.035,0.61L37.45,38.127z M27.614,16.647l0.532,0.335c0.443,0.279,0.82,0.935,0.839,1.458l0.023,0.629
	c0.019,0.523,0.452,0.856,0.962,0.74l0.614-0.14c0.51-0.116,1.241,0.081,1.624,0.437l0.462,0.429
	c0.382,0.356,0.924,0.286,1.203-0.157l0.335-0.533c0.278-0.443,0.935-0.82,1.458-0.839l0.629-0.023
	c0.522-0.019,0.855-0.452,0.74-0.962l-0.141-0.615c-0.116-0.51,0.081-1.241,0.438-1.624l0.429-0.462
	c0.356-0.383,0.286-0.924-0.157-1.204l-0.533-0.335c-0.442-0.279-0.819-0.935-0.839-1.458l-0.022-0.629
	c-0.02-0.523-0.452-0.856-0.962-0.74l-0.615,0.139c-0.51,0.116-1.241-0.081-1.624-0.437l-0.462-0.429
	c-0.383-0.356-0.924-0.286-1.204,0.157l-0.335,0.533c-0.279,0.443-0.935,0.82-1.458,0.839l-0.629,0.023
	c-0.523,0.019-0.856,0.452-0.74,0.962l0.139,0.614c0.116,0.51-0.08,1.241-0.437,1.624l-0.429,0.462
	C27.101,15.827,27.171,16.369,27.614,16.647z M32.609,12.801c1.427,0,2.582,1.156,2.582,2.582c0,1.426-1.155,2.582-2.582,2.582
	c-1.426,0-2.582-1.156-2.582-2.582C30.027,13.958,31.184,12.801,32.609,12.801z"/>
</svg>
