<?xml version="1.0" encoding="utf-8"?>
<!-- Generator: Adobe Illustrator 16.0.4, SVG Export Plug-In . SVG Version: 6.00 Build 0)  -->
<!DOCTYPE svg PUBLIC "-//W3C//DTD SVG 1.1//EN" "http://www.w3.org/Graphics/SVG/1.1/DTD/svg11.dtd">
<svg version="1.1" id="Layer_1" xmlns="http://www.w3.org/2000/svg" xmlns:xlink="http://www.w3.org/1999/xlink" x="0px" y="0px"
	 width="226.77px" height="155.91px" viewBox="0 0 226.77 155.91" enable-background="new 0 0 226.77 155.91" xml:space="preserve">
<path d="M154.154,72.827h-28.089l14.143-29.314c1.36-2.821,0.179-6.211-2.644-7.572c-2.817-1.363-6.213-0.178-7.572,2.643
	l-16.521,34.243H96.396c-2.301-0.46-17.779-4.504-17.779-29.701c0-3.315-2.688-6.003-6.003-6.003s-6.003,2.688-6.003,6.003
	c0,18.635,7.196,29.69,15.01,35.703c-7.816,6.013-15.01,17.068-15.01,35.703c0,3.316,2.688,6.003,6.003,6.003
	s6.003-2.687,6.003-6.003c0-25.14,14.965-29.168,17.771-29.7h11.29L95.02,111.067c-1.361,2.819-0.178,6.211,2.643,7.571
	c0.794,0.383,1.633,0.564,2.459,0.564c2.109,0,4.134-1.183,5.112-3.21l15.037-31.161h33.883c3.316,0,6.004-2.688,6.004-6.003
	C160.158,75.514,157.471,72.827,154.154,72.827z"/>
</svg>
