<?xml version="1.0" encoding="utf-8"?>
<!-- Generator: Adobe Illustrator 16.0.0, SVG Export Plug-In . SVG Version: 6.00 Build 0)  -->
<!DOCTYPE svg PUBLIC "-//W3C//DTD SVG 1.1//EN" "http://www.w3.org/Graphics/SVG/1.1/DTD/svg11.dtd">
<svg version="1.1" id="Layer_1" xmlns="http://www.w3.org/2000/svg" xmlns:xlink="http://www.w3.org/1999/xlink" x="0px" y="0px"
	 width="96px" height="96px" viewBox="0 0 96 96" enable-background="new 0 0 96 96" xml:space="preserve">
<g>
	<path d="M67.434,39.403l-5.463,5.463c1.029,0.666,1.873,1.574,2.412,2.875c1.342,3.236-1.103,6.037-3.648,7.655
		c-2.813,1.789-6.583,1.573-9.524,0.231l-5.484,5.486c3.946,2.68,8.916,3.671,13.633,2.688c5.521-1.153,11.061-5.151,12.455-10.884
		C73.036,47.887,71.285,42.649,67.434,39.403z"/>
	<path d="M58.642,16.483c-6.473-0.056-13.429,3.756-15.419,10.21c-1.389,4.5-0.105,9.135,2.992,12.253l5.261-5.261
		c-1.589-1.55-1.677-4.276-0.448-6.078c1.803-2.648,5.034-3.63,8.08-3.604C63.97,24.045,63.471,16.524,58.642,16.483z"/>
	<path d="M21.797,47.107c-6.312,5.003-5.397,12.183-1.525,17.785l5.288-5.289c-0.366-0.817-0.614-1.708-0.697-2.686
		c-0.355-4.23,3.949-5.431,7.37-5.059c0.321,0.035,0.632,0.082,0.934,0.139l6.008-6.008c-0.26-0.117-0.52-0.233-0.784-0.337
		C33.166,43.605,26.368,43.483,21.797,47.107z"/>
	<path d="M48,1.167C22.177,1.167,1.167,22.176,1.167,48S22.177,94.833,48,94.833S94.833,73.824,94.833,48S73.823,1.167,48,1.167z
		 M9.682,48C9.682,26.872,26.871,9.682,48,9.682c8.573,0,16.495,2.83,22.886,7.604l-53.6,53.601
		C12.512,64.496,9.682,56.572,9.682,48z M48,86.318c-8.573,0-16.495-2.83-22.886-7.604l53.6-53.601
		c4.774,6.39,7.604,14.314,7.604,22.886C86.317,69.128,69.129,86.318,48,86.318z"/>
</g>
</svg>
