<?xml version="1.0" encoding="utf-8"?>
<!-- Generator: Adobe Illustrator 16.0.4, SVG Export Plug-In . SVG Version: 6.00 Build 0)  -->
<!DOCTYPE svg PUBLIC "-//W3C//DTD SVG 1.1//EN" "http://www.w3.org/Graphics/SVG/1.1/DTD/svg11.dtd">
<svg version="1.1" id="Layer_1" xmlns="http://www.w3.org/2000/svg" xmlns:xlink="http://www.w3.org/1999/xlink" x="0px" y="0px"
	 width="50px" height="50px" viewBox="0 0 50 50" enable-background="new 0 0 50 50" xml:space="preserve">
<path d="M37.9,25.909h-9.081v-6.586c0-0.275-0.224-0.5-0.5-0.5h-2.121c-0.164-0.109-0.334-0.217-0.509-0.32
	c-0.292-0.174-0.692-0.412-0.775-0.557c-0.084-0.146-0.091-0.611-0.096-0.951c-0.01-0.699-0.021-1.422-0.479-1.807
	c-0.385-0.322-1.127-0.275-1.861-0.158c-0.434,0.07-0.918,0.086-0.953,0.072c-0.157-0.06-0.461-0.41-0.684-0.668
	c-0.457-0.529-0.93-1.076-1.528-1.076s-1.071,0.547-1.528,1.076c-0.223,0.258-0.527,0.608-0.684,0.668
	c-0.013,0.004-0.062,0.02-0.181,0.02l0,0c-0.209,0-0.495-0.047-0.772-0.092c-0.735-0.117-1.477-0.164-1.861,0.158
	c-0.459,0.385-0.47,1.106-0.479,1.807c-0.005,0.34-0.012,0.807-0.095,0.951c-0.083,0.144-0.483,0.383-0.775,0.557
	c-0.601,0.359-1.222,0.73-1.326,1.32c-0.107,0.604,0.363,1.191,0.817,1.76c0.213,0.266,0.479,0.598,0.527,0.768
	c0.04,0.146-0.136,0.638-0.241,0.931c-0.23,0.639-0.468,1.301-0.174,1.811c0.299,0.521,1.009,0.654,1.696,0.787
	c0.334,0.062,0.792,0.15,0.92,0.261c0.127,0.104,0.293,0.541,0.415,0.858c0.249,0.653,0.506,1.33,1.068,1.533
	c0.498,0.184,1.141-0.123,1.735-0.451v8.062c0,0.274,0.224,0.5,0.5,0.5h9.447c0.023,0,0.044-0.013,0.066-0.015
	c0.023,0.002,0.043,0.015,0.067,0.015h9.446c0.276,0,0.5-0.226,0.5-0.5v-9.73C38.4,26.134,38.178,25.909,37.9,25.909z
	 M18.733,26.782c-0.027,0.008-0.054,0.014-0.079,0.027c-0.227,0.096-0.46,0.227-0.7,0.358c-0.319,0.179-0.756,0.422-0.972,0.424
	c-0.146-0.075-0.363-0.646-0.479-0.95c-0.195-0.515-0.38-0.998-0.707-1.271c-0.327-0.273-0.836-0.371-1.375-0.475
	c-0.321-0.062-0.919-0.176-1.015-0.297c-0.053-0.148,0.141-0.689,0.246-0.98c0.2-0.557,0.389-1.084,0.263-1.535
	c-0.103-0.367-0.397-0.736-0.708-1.125c-0.22-0.275-0.629-0.787-0.614-0.957c0.05-0.158,0.574-0.471,0.855-0.639
	c0.47-0.281,0.915-0.547,1.128-0.916s0.221-0.889,0.229-1.438c0.005-0.325,0.014-0.934,0.119-1.051c0,0,0.056-0.035,0.247-0.035
	c0.229,0,0.528,0.05,0.817,0.097c0.315,0.051,0.642,0.104,0.931,0.104l0,0c0.205,0,0.376-0.027,0.523-0.08
	c0.4-0.146,0.739-0.539,1.098-0.953c0.214-0.248,0.612-0.709,0.768-0.73c0.164,0.021,0.562,0.482,0.776,0.73
	c0.358,0.414,0.697,0.807,1.098,0.953c0.355,0.129,0.916,0.062,1.455-0.023c0.289-0.047,0.588-0.096,0.817-0.096
	c0.178,0,0.238,0.029,0.241,0.029c0.111,0.123,0.12,0.73,0.125,1.057c0.008,0.549,0.015,1.068,0.229,1.439
	c0.213,0.367,0.658,0.633,1.128,0.914c0.114,0.068,0.267,0.16,0.413,0.256c0.062,0.084,0.146,0.145,0.246,0.176
	c0.098,0.078,0.179,0.15,0.196,0.201c0.016,0.176-0.394,0.688-0.614,0.963c-0.312,0.389-0.606,0.758-0.708,1.125
	c-0.127,0.451,0.062,0.979,0.263,1.535c0.104,0.291,0.298,0.832,0.25,0.971c-0.101,0.131-0.698,0.244-1.02,0.307
	c-0.539,0.104-1.048,0.201-1.374,0.476c-0.328,0.272-0.512,0.758-0.708,1.271c-0.116,0.306-0.333,0.875-0.472,0.949
	c0,0-0.005,0-0.017,0c-0.206,0-0.643-0.244-0.962-0.422c-0.479-0.268-0.931-0.52-1.358-0.52
	C19.125,26.649,18.932,26.704,18.733,26.782z M27.819,35.64h-8.446v-7.977c0.188,0.037,0.541,0.229,0.81,0.379
	c0.484,0.27,0.983,0.549,1.449,0.549c0.125,0,0.245-0.02,0.355-0.061c0.562-0.203,0.819-0.879,1.068-1.533
	c0.121-0.318,0.287-0.754,0.415-0.861c0.128-0.106,0.586-0.195,0.92-0.258c0.687-0.133,1.396-0.268,1.695-0.787
	c0.294-0.508,0.056-1.17-0.174-1.811c-0.105-0.293-0.281-0.783-0.241-0.928c0.048-0.172,0.312-0.504,0.527-0.771
	c0.453-0.567,0.923-1.156,0.816-1.76h0.804L27.819,35.64L27.819,35.64z M37.4,35.64h-8.581V26.91H37.4V35.64z M24.139,28.247h2.294
	v2.293h-2.294V28.247z M20.765,31.442h2.294v2.295h-2.294V31.442z M24.139,31.442h2.294v2.295h-2.294V31.442z M32.486,30.923h-2.341
	v-2.342h2.341V30.923z M35.932,30.923h-2.341v-2.342h2.341V30.923z M32.486,34.188h-2.341v-2.342h2.341V34.188z M35.932,34.188
	h-2.341v-2.342h2.341V34.188z M31.238,24.19v-3.871c0-0.275,0.224-0.5,0.5-0.5c0.275,0,0.5,0.225,0.5,0.5v1.436h2.448v-1.436
	c0-0.275,0.225-0.5,0.5-0.5c0.276,0,0.5,0.225,0.5,0.5v3.871c0,0.276-0.224,0.5-0.5,0.5c-0.275,0-0.5-0.224-0.5-0.5v-1.437h-2.448
	v1.437c0,0.276-0.225,0.5-0.5,0.5C31.462,24.69,31.238,24.468,31.238,24.19z M23.069,22.351c0-1.057-0.6-1.836-1.665-1.836
	c-1.056,0-1.731,0.836-1.731,1.939c0.01,1.16,0.752,1.865,1.684,1.865C22.251,24.319,23.069,23.644,23.069,22.351z M20.759,22.417
	c0-0.619,0.19-1.113,0.628-1.113c0.447,0,0.608,0.484,0.608,1.113c0,0.693-0.199,1.113-0.608,1.113
	C20.968,23.53,20.749,23.063,20.759,22.417z M18.618,19.782c0-1.057-0.6-1.836-1.665-1.836c-1.055,0-1.73,0.836-1.73,1.938
	c0,1.162,0.742,1.865,1.683,1.865C17.801,21.751,18.618,21.075,18.618,19.782z M16.935,20.962c-0.419,0-0.638-0.467-0.638-1.113
	c0-0.619,0.2-1.113,0.628-1.113c0.447,0,0.618,0.484,0.618,1.113C17.542,20.542,17.344,20.962,16.935,20.962z M21.31,17.946
	l-3.559,6.393h-0.77l3.548-6.393H21.31z"/>
</svg>
