<?xml version="1.0" encoding="utf-8"?>
<!-- Generator: Adobe Illustrator 16.0.4, SVG Export Plug-In . SVG Version: 6.00 Build 0)  -->
<!DOCTYPE svg PUBLIC "-//W3C//DTD SVG 1.1//EN" "http://www.w3.org/Graphics/SVG/1.1/DTD/svg11.dtd">
<svg version="1.1" id="Layer_1" xmlns="http://www.w3.org/2000/svg" xmlns:xlink="http://www.w3.org/1999/xlink" x="0px" y="0px"
	 width="50px" height="50px" viewBox="0 0 50 50" enable-background="new 0 0 50 50" xml:space="preserve">
<path d="M32.433,23.758c-1.422-0.588-2.752-0.479-3.791,0.279v-0.711c0.232,0.052,0.562,0.105,0.942,0.105
	c0.623,0,1.174-0.144,1.638-0.426c1.25-0.768,1.648-2.462,1.666-2.533c0.057-0.25-0.085-0.502-0.326-0.585
	c-0.023-0.008-0.578-0.192-1.279-0.192c-0.624,0-1.174,0.143-1.637,0.425c-0.432,0.265-0.756,0.641-1.004,1.022v-1.086
	c0-0.275-0.224-0.5-0.5-0.5c-0.275,0-0.5,0.225-0.5,0.5v3.98c-0.104-0.077-0.215-0.146-0.326-0.211v-9.016l-1.053,0.571l-2.64-0.806
	v-0.792L14.8,18.571v16.617l3.694,1.027l5.085-2.76c1.053,1.199,2.303,2.045,3.47,2.045c0.304,0,0.593-0.059,0.854-0.166
	c0.08-0.031,0.158-0.07,0.238-0.115c0.077,0.045,0.153,0.082,0.229,0.113c0.271,0.109,0.56,0.168,0.862,0.168
	c2.172,0,4.633-2.906,5.567-5.621C35.789,27.021,34.925,24.79,32.433,23.758z M30.168,20.973c0.302-0.185,0.676-0.277,1.112-0.277
	c0.174,0,0.335,0.016,0.475,0.035c-0.175,0.444-0.508,1.088-1.056,1.424c-0.304,0.185-0.679,0.277-1.115,0.277
	c-0.173,0-0.334-0.015-0.474-0.035C29.286,21.953,29.619,21.311,30.168,20.973z M18.459,19.253l-2.399-0.668l7.135-3.799
	l0.023,0.008l0.405,0.123l2.108,0.644l-2.108,1.071l-0.405,0.205L18.459,19.253z M33.856,29.555
	c-0.992,2.881-3.576,5.49-5.108,4.854c-0.087-0.033-0.183-0.094-0.298-0.186c-0.092-0.07-0.199-0.105-0.309-0.105
	c-0.111,0-0.221,0.035-0.312,0.107c-0.113,0.09-0.207,0.148-0.304,0.188c-1.463,0.609-4.106-1.977-5.102-4.855
	c-1.031-2.982,0.414-4.296,1.809-4.873c1.441-0.597,2.658-0.312,3.5,0.861c0.008,0.01,0.02,0.014,0.026,0.021
	c0.032,0.039,0.071,0.07,0.114,0.1c0.02,0.012,0.033,0.025,0.055,0.035c0.063,0.029,0.135,0.051,0.211,0.051
	c0.077,0,0.148-0.021,0.213-0.051c0.02-0.01,0.033-0.023,0.051-0.033c0.045-0.029,0.084-0.062,0.119-0.104
	c0.006-0.01,0.018-0.014,0.023-0.021c0.842-1.172,2.057-1.458,3.501-0.859C33.442,25.258,34.888,26.57,33.856,29.555z"/>
</svg>
