<?xml version="1.0" encoding="utf-8"?>
<!-- Generator: Adobe Illustrator 16.0.4, SVG Export Plug-In . SVG Version: 6.00 Build 0)  -->
<!DOCTYPE svg PUBLIC "-//W3C//DTD SVG 1.1//EN" "http://www.w3.org/Graphics/SVG/1.1/DTD/svg11.dtd">
<svg version="1.1" id="Layer_1" xmlns="http://www.w3.org/2000/svg" xmlns:xlink="http://www.w3.org/1999/xlink" x="0px" y="0px"
	 width="50px" height="50px" viewBox="0 0 50 50" enable-background="new 0 0 50 50" xml:space="preserve">
<path d="M29.979,16.562c0.183-0.491,0.729-0.743,1.217-0.56l8.184,3.019c0.491,0.181,0.742,0.726,0.562,1.216
	c-0.143,0.382-0.504,0.62-0.89,0.62c-0.108,0-0.22-0.019-0.327-0.06l-8.184-3.019C30.05,17.597,29.8,17.052,29.979,16.562z
	 M20.979,14.312C14.634,15.616,10,19.692,10,24.526c0,4.833,4.635,8.91,10.979,10.214V14.312z M39.379,26.657l-8.183-3.019
	c-0.488-0.182-1.035,0.069-1.217,0.561c-0.181,0.491,0.069,1.035,0.562,1.216l8.185,3.019c0.106,0.041,0.217,0.06,0.326,0.06
	c0.385,0,0.747-0.237,0.889-0.62C40.121,27.382,39.87,26.837,39.379,26.657z M25.326,16.579v-2.708c-1.171,0-2.306,0.1-3.4,0.272
	v20.766c1.095,0.173,2.229,0.272,3.4,0.272v-2.709c1.581-0.254,2.834-3.709,2.834-7.947C28.16,20.289,26.907,16.833,25.326,16.579z
	 M39.379,34.293l-8.183-3.02c-0.488-0.182-1.035,0.069-1.217,0.562c-0.181,0.491,0.069,1.035,0.562,1.216l8.185,3.02
	c0.106,0.039,0.217,0.059,0.326,0.059c0.385,0,0.747-0.236,0.889-0.62C40.121,35.02,39.87,34.475,39.379,34.293z"/>
</svg>
