<?xml version="1.0" encoding="utf-8"?>
<!-- Generator: Adobe Illustrator 16.0.4, SVG Export Plug-In . SVG Version: 6.00 Build 0)  -->
<!DOCTYPE svg PUBLIC "-//W3C//DTD SVG 1.1//EN" "http://www.w3.org/Graphics/SVG/1.1/DTD/svg11.dtd">
<svg version="1.1" id="Layer_1" xmlns="http://www.w3.org/2000/svg" xmlns:xlink="http://www.w3.org/1999/xlink" x="0px" y="0px"
	 width="50px" height="50px" viewBox="0 0 50 50" enable-background="new 0 0 50 50" xml:space="preserve">
<path d="M30.6,10.001H19.402c-1.273,0-2.316,1.042-2.316,2.316v7.673c0,1.274,1.043,2.316,2.316,2.316h3.281v15.571l1.012,0.928
	v-16.5h1.016v17.427L25,39.998l2.318-2.123v-15.57H30.6c1.271,0,2.314-1.042,2.314-2.316v-7.673
	C32.914,11.043,31.871,10.001,30.6,10.001z M28.477,15.526h-6.952c-1.273,0-2.316-0.75-2.316-1.665s1.043-1.665,2.316-1.665h6.952
	c1.271,0,2.314,0.75,2.314,1.665S29.748,15.526,28.477,15.526z"/>
</svg>
