<?xml version="1.0" encoding="iso-8859-1"?>
<!-- Generator: Adobe Illustrator 16.0.4, SVG Export Plug-In . SVG Version: 6.00 Build 0)  -->
<!DOCTYPE svg PUBLIC "-//W3C//DTD SVG 1.1//EN" "http://www.w3.org/Graphics/SVG/1.1/DTD/svg11.dtd">
<svg version="1.1" id="Layer_1" xmlns="http://www.w3.org/2000/svg" xmlns:xlink="http://www.w3.org/1999/xlink" x="0px" y="0px"
	 width="50px" height="50px" viewBox="0 0 50 50" style="enable-background:new 0 0 50 50;" xml:space="preserve">
<path d="M40.25,31.861h-1.175v-5.99h-4.154c-1.325-4.833-5.594-8.176-10.509-8.176s-9.182,3.343-10.508,8.176H9.75v9.675h3.592
	c0.241,1.485,1.521,2.626,3.075,2.626s2.835-1.141,3.076-2.626h9.84c0.241,1.485,1.522,2.626,3.075,2.626s2.834-1.141,3.074-2.626
	h3.593v-1.685h1.175V31.861L40.25,31.861z M16.417,37.172c-1.172,0-2.126-0.954-2.126-2.126c0-1.173,0.954-2.128,2.126-2.128
	c1.173,0,2.127,0.955,2.127,2.128C18.544,36.218,17.59,37.172,16.417,37.172z M32.408,37.172c-1.172,0-2.126-0.954-2.126-2.126
	c0-1.173,0.954-2.128,2.126-2.128s2.126,0.955,2.126,2.128C34.534,36.218,33.58,37.172,32.408,37.172z M38.075,34.546h-2.593
	c-0.24-1.485-1.521-2.628-3.074-2.628s-2.834,1.143-3.075,2.628h-9.84c-0.241-1.485-1.522-2.628-3.076-2.628
	c-1.553,0-2.834,1.143-3.075,2.628H10.75v-7.675h3.938l0.092-0.385c1.093-4.586,5.055-7.791,9.634-7.791
	c4.58,0,8.542,3.205,9.635,7.791l0.093,0.385h3.937v7.675H38.075z"/>
<path d="M26.865,16.889c-0.182-1.201-1.206-2.121-2.453-2.121c-1.249,0-2.273,0.92-2.452,2.121H26.865z"/>
<path d="M23.912,11.828h1v2.37h-1V11.828z M28.203,13.434l0.707,0.707l-1.676,1.676l-0.707-0.707L28.203,13.434z M20.618,13.312
	l1.675,1.675l-0.706,0.707l-1.676-1.675L20.618,13.312z"/>
<path d="M24.912,20.715v6.373h7.227l-0.033-0.137C31.268,23.438,28.35,20.938,24.912,20.715z"/>
<path d="M23.912,20.715c-3.438,0.225-6.354,2.723-7.191,6.236l-0.033,0.137h7.226L23.912,20.715L23.912,20.715z"/>
<polygon points="25.162,28.79 23.662,28.79 23.662,30.342 22.111,30.342 22.111,31.842 23.662,31.842 23.662,33.393 25.162,33.393 
	25.162,31.842 26.714,31.842 26.714,30.342 25.162,30.342 "/>
</svg>
