<?xml version="1.0" encoding="utf-8"?>
<!-- Generator: Adobe Illustrator 16.0.0, SVG Export Plug-In . SVG Version: 6.00 Build 0)  -->
<!DOCTYPE svg PUBLIC "-//W3C//DTD SVG 1.1//EN" "http://www.w3.org/Graphics/SVG/1.1/DTD/svg11.dtd">
<svg version="1.1" id="Layer_1" xmlns="http://www.w3.org/2000/svg" xmlns:xlink="http://www.w3.org/1999/xlink" x="0px" y="0px"
	 width="96px" height="96px" viewBox="0 0 96 96" enable-background="new 0 0 96 96" xml:space="preserve">
<path d="M90.426,41.857c-5.367-5.395-14.122-5.418-19.518-0.053c-0.669,0.666-1.247,1.389-1.749,2.146L6.076,2.07
	c-0.043-0.029-0.15-0.084-0.15-0.084s-2.125-1.152-3.614,0.33c-1.49,1.48-0.3,3.414-0.231,3.533l41.77,63.275
	c-0.761,0.496-1.484,1.07-2.154,1.734c-5.395,5.367-5.419,14.123-0.053,19.518c5.367,5.396,14.123,5.42,19.518,0.053
	c5.396-5.365,5.42-14.121,0.053-19.518c-2.783-2.799-6.48-4.139-10.146-4.043c0.663-1.242,1.777-2.832,3.648-4.57l-2.95-3.182
	c-2.02,1.875-3.355,3.65-4.242,5.188L14.78,14.719l49.533,32.885c-1.539,0.879-3.321,2.203-5.202,4.209l3.165,2.967
	c1.749-1.863,3.344-2.967,4.59-3.623c-0.115,3.664,1.205,7.367,3.989,10.168c5.367,5.395,14.121,5.418,19.518,0.053
	C95.769,56.01,95.792,47.254,90.426,41.857z M58.138,73.971c3.68,3.701,3.663,9.705-0.036,13.383
	c-3.701,3.682-9.704,3.664-13.383-0.035s-3.664-9.703,0.036-13.383C48.455,70.254,54.459,70.273,58.138,73.971z M87.313,58.301
	c-3.699,3.68-9.703,3.664-13.383-0.037c-3.679-3.697-3.664-9.701,0.037-13.383c3.7-3.68,9.705-3.662,13.383,0.037
	C91.03,48.619,91.014,54.623,87.313,58.301z"/>
</svg>
