<?xml version="1.0" encoding="utf-8"?>
<!-- Generator: Adobe Illustrator 16.0.0, SVG Export Plug-In . SVG Version: 6.00 Build 0)  -->
<!DOCTYPE svg PUBLIC "-//W3C//DTD SVG 1.1//EN" "http://www.w3.org/Graphics/SVG/1.1/DTD/svg11.dtd">
<svg version="1.1" id="Layer_1" xmlns="http://www.w3.org/2000/svg" xmlns:xlink="http://www.w3.org/1999/xlink" x="0px" y="0px"
	 width="96px" height="96px" viewBox="0 0 96 96" enable-background="new 0 0 96 96" xml:space="preserve">
<path d="M92.157,61.036L81.016,49.895c-1.748-1.749-4.077-2.712-6.557-2.712c-2.48,0-4.809,0.963-6.557,2.712
	c-0.363,0.363-0.701,0.767-1.008,1.205c-8.401-4.623-17.141-8.58-21.774-10.6c-0.702-1.643-1.141-2.715-1.259-3.002
	C43.348,36.103,31.056,3.327,11.725,1.25c-1.706-0.184-3.184,1.046-3.361,2.709c-0.18,1.674,1.035,3.182,2.708,3.361
	c8.741,0.938,16.177,10.992,20.888,19.293C24.655,18.221,14.76,9.907,4.183,9.852c-1.676,0-3.045,1.363-3.052,3.037
	c-0.008,1.683,1.354,3.059,3.035,3.068c15.836,0.084,31.936,26.449,32.092,26.708c0.103,0.176,0.23,0.346,0.357,0.483
	c0.326,0.395,0.747,0.705,1.247,0.905c0.177,0.072,1.118,0.456,2.617,1.093c2.409,5.509,6.136,13.586,10.456,21.428
	c-0.559,0.359-1.072,0.77-1.527,1.227c-1.749,1.749-2.714,4.077-2.713,6.557c-0.001,2.479,0.964,4.808,2.713,6.557L60.55,92.057
	c1.749,1.749,4.077,2.711,6.556,2.711c2.479,0,4.808-0.963,6.557-2.711c3.616-3.615,3.61-9.503-0.016-13.129
	c-0.033-0.032-0.811-0.794-2.031-1.719l-0.143-0.097c-0.848-0.542-1.734-1.031-2.633-1.527c-1.725-0.952-3.353-1.851-4.672-3.122
	l-0.164-0.142c-1.813-1.434-3.165-2.652-3.286-2.76c-0.321-0.333-0.65-0.668-0.985-1.002l4.011-1.63l-0.009-0.39
	c-0.025-1.116-0.514-3.005-2.188-3.005c-0.415,0-0.872,0.127-1.359,0.378c-0.557,0.287-2.14,0.561-3.293,0.76l-0.028,0.005
	c-2.612-4.667-5.304-9.977-8.012-15.808c5.756,2.661,11.026,5.317,15.692,7.909c-0.135,0.735-0.356,1.848-0.581,2.286
	c-0.461,0.893-0.504,1.665-0.129,2.296c0.697,1.174,2.549,1.248,2.757,1.252l0.39,0.008l1.179-2.903
	c0.494,0.507,0.993,0.998,1.472,1.461c0.314,0.348,1.445,1.615,2.806,3.336l0.142,0.159c1.254,1.301,2.153,2.93,3.106,4.656
	c0.452,0.82,0.964,1.75,1.538,2.651l0.1,0.14c0.911,1.206,1.685,1.992,1.721,2.028c1.748,1.749,4.076,2.711,6.556,2.711
	s4.808-0.963,6.557-2.711s2.712-4.077,2.712-6.557C94.869,65.113,93.906,62.785,92.157,61.036z M39.029,40.495l-2.374-5.539
	l2.076-0.89l2.375,5.539L39.029,40.495z M52.848,71.239c0.381-0.383,0.825-0.689,1.281-0.896l0.297-0.14l0.218,0.226
	c0,0,1.79,1.695,2.621,2.555l0.106,0.103c0.06,0.054,1.478,1.351,3.511,2.958c1.749,1.667,3.714,2.75,5.614,3.799
	c0.883,0.486,1.367,0.76,2.162,1.24s1.566,1.298,1.566,1.298c0.831,0.832,1.289,1.939,1.289,3.12c0,1.179-0.458,2.287-1.289,3.119
	c-1.666,1.664-4.575,1.663-6.238,0L52.846,77.478c-0.833-0.832-1.291-1.939-1.291-3.119C51.555,73.18,52.013,72.072,52.848,71.239z
	 M88.72,70.711c-0.833,0.833-1.942,1.291-3.125,1.291c-1.175,0-2.276-0.453-3.096-1.273c-0.006-0.006-0.573-0.59-1.228-1.444
	c-0.453-0.715-0.878-1.486-1.328-2.303c-1.048-1.901-2.133-3.866-3.765-5.575c-1.385-1.75-2.537-3.048-2.986-3.544l-0.108-0.111
	c-0.719-0.693-1.54-1.501-2.276-2.31l-0.558-0.583l0.432-0.689c0,0,0.404-0.583,0.658-0.837c1.664-1.663,4.573-1.663,6.237,0
	L88.72,64.473C90.439,66.193,90.439,68.992,88.72,70.711z"/>
</svg>
