<?xml version="1.0" encoding="utf-8"?>
<!-- Generator: Adobe Illustrator 16.0.4, SVG Export Plug-In . SVG Version: 6.00 Build 0)  -->
<!DOCTYPE svg PUBLIC "-//W3C//DTD SVG 1.1//EN" "http://www.w3.org/Graphics/SVG/1.1/DTD/svg11.dtd">
<svg version="1.1" id="Layer_1" xmlns="http://www.w3.org/2000/svg" xmlns:xlink="http://www.w3.org/1999/xlink" x="0px" y="0px"
	 width="50px" height="50px" viewBox="0 0 50 50" enable-background="new 0 0 50 50" xml:space="preserve">
<path d="M32.719,28.662c-0.687,0.871-2.403,2.049-4.43,0.176c0,0-1.063-1.168-0.253-2.188c0.152-0.19,0.268-0.414,0.297-0.688
	c-0.15,0.026-0.333,0.088-0.543,0.244c-0.615,0.463-1.49,1.746-1.936,5.223c1.006,0.248,1.733,0.914,1.733,1.705
	c0,0.857-0.853,1.572-1.991,1.763c-0.033,1.069-0.039,2.253-0.005,3.595l0.013,0.477h-1.209l0.014-0.477
	c0.035-1.342,0.027-2.523-0.006-3.595c-1.141-0.188-1.99-0.903-1.99-1.763c0-0.791,0.727-1.457,1.734-1.705
	c-0.446-3.477-1.32-4.76-1.937-5.223c-0.209-0.156-0.392-0.215-0.543-0.242c0.028,0.271,0.146,0.496,0.297,0.687
	c0.812,1.021-0.253,2.188-0.253,2.188c-2.025,1.873-3.743,0.695-4.432-0.176c-2.082-2.646,0.121-6.371,1.615-7.616
	c1.797-1.496,3.019-0.354,3.584,0.346c0.737,0.914,0.388,2.212-0.041,2.748c-0.271,0.342-0.457,0.641-0.58,0.907
	c0.254,0.05,0.545,0.157,0.854,0.377c1.111,0.791,1.876,2.58,2.288,5.349c0.412-2.77,1.176-4.559,2.288-5.349
	c0.309-0.22,0.602-0.326,0.854-0.376c-0.123-0.268-0.309-0.566-0.58-0.908c-0.429-0.536-0.778-1.834-0.041-2.748
	c0.565-0.7,1.787-1.842,3.584-0.346C32.599,22.292,34.803,26.017,32.719,28.662z M20.502,15.534c0-2.481,2.019-4.5,4.5-4.5
	c2.479,0,4.498,2.019,4.498,4.5c0,2.481-2.019,4.5-4.498,4.5C22.521,20.034,20.502,18.016,20.502,15.534z M21.502,15.534
	c0,1.93,1.569,3.5,3.5,3.5c1.929,0,3.498-1.57,3.498-3.5c0-1.93-1.569-3.5-3.498-3.5C23.071,12.034,21.502,13.604,21.502,15.534z
	 M24.502,18.061c0,0.276,0.224,0.5,0.5,0.5s0.5-0.224,0.5-0.5v-2.026h2.024c0.276,0,0.5-0.224,0.5-0.5c0-0.276-0.224-0.5-0.5-0.5
	h-2.024v-2.026c0-0.276-0.224-0.5-0.5-0.5s-0.5,0.224-0.5,0.5v2.026h-2.026c-0.276,0-0.5,0.224-0.5,0.5c0,0.276,0.224,0.5,0.5,0.5
	h2.026V18.061z"/>
</svg>
