<?xml version="1.0" encoding="utf-8"?>
<!-- Generator: Adobe Illustrator 16.0.4, SVG Export Plug-In . SVG Version: 6.00 Build 0)  -->
<!DOCTYPE svg PUBLIC "-//W3C//DTD SVG 1.1//EN" "http://www.w3.org/Graphics/SVG/1.1/DTD/svg11.dtd">
<svg version="1.1" id="Layer_1" xmlns="http://www.w3.org/2000/svg" xmlns:xlink="http://www.w3.org/1999/xlink" x="0px" y="0px"
	 width="50px" height="50px" viewBox="0 0 50 50" enable-background="new 0 0 50 50" xml:space="preserve">
<path d="M35.781,19.161h-2.803v-2.805c0-0.276-0.225-0.5-0.5-0.5h-4.131c-0.277,0-0.5,0.224-0.5,0.5v0.41
	c-1.422-0.86-2.908-1.267-4.627-1.267c-5.238,0-9.5,4.263-9.5,9.5s4.262,9.5,9.5,9.5c2.36,0,4.596-0.858,6.342-2.426l2.59,1.911
	c0.222,0.162,0.537,0.117,0.699-0.104c0.164-0.223,0.117-0.534-0.104-0.698l-2.927-2.16c-0.197-0.146-0.473-0.125-0.646,0.045
	c-1.599,1.57-3.713,2.434-5.951,2.434c-4.688,0-8.5-3.812-8.5-8.5s3.812-8.5,8.5-8.5c1.733,0,3.205,0.468,4.625,1.465v0.792
	c-1.642-1.293-3.707-1.786-5.816-1.417l-0.104,0.018c-0.006,0.002-0.012,0.004-0.019,0.004c-0.209,0.041-0.418,0.082-0.627,0.141
	c-0.289,0.075-0.576,0.162-0.855,0.271c-0.229,0.088-0.451,0.188-0.668,0.297c-0.062,0.029-0.121,0.066-0.182,0.099
	c-0.155,0.082-0.309,0.167-0.456,0.259c-0.062,0.037-0.12,0.078-0.181,0.118c-0.147,0.097-0.291,0.197-0.431,0.304
	c-0.049,0.037-0.096,0.074-0.144,0.112c-0.155,0.124-0.305,0.253-0.448,0.388c-0.024,0.023-0.052,0.047-0.077,0.071
	c-1.084,1.039-1.837,2.371-2.17,3.839c-0.008,0.033-0.018,0.065-0.023,0.098c-0.037,0.177-0.065,0.354-0.092,0.533
	c-0.012,0.076-0.025,0.151-0.033,0.229c-0.01,0.074-0.012,0.152-0.018,0.229c-0.059,0.678-0.032,1.358,0.091,2.032l0.054,0.354
	l0.024-0.01c0.083,0.362,0.185,0.723,0.32,1.074c1.188,3.069,4.128,4.954,7.237,4.954c0.928,0,1.871-0.169,2.787-0.522
	c1.346-0.521,2.428-1.318,3.232-2.344l5.1,3.607c0.088,0.062,0.188,0.092,0.288,0.092c0.156,0,0.312-0.072,0.408-0.211
	c0.159-0.227,0.106-0.538-0.119-0.697l-5.112-3.617c0.26-0.453,0.471-0.941,0.637-1.463h0.859c-0.109,0.338-0.232,0.674-0.384,0.996
	c-0.1,0.213-0.036,0.469,0.151,0.609l3.152,2.385c0.092,0.068,0.196,0.102,0.303,0.102c0.15,0,0.301-0.067,0.398-0.197
	c0.166-0.221,0.122-0.534-0.098-0.7l-2.838-2.146c0.142-0.342,0.254-0.693,0.354-1.047h0.127c0.275,0,0.5-0.225,0.5-0.5v-2.806
	h2.803c0.277,0,0.5-0.224,0.5-0.5v-4.131C36.281,19.385,36.059,19.161,35.781,19.161z M25.656,31.296
	c-3.469,1.346-7.387-0.388-8.729-3.859c-0.136-0.351-0.233-0.709-0.31-1.069c3.225-1.284,5.51-4.444,5.842-8.095
	c1.527-0.219,2.992,0.086,4.249,0.89h-1.664c-0.276,0-0.5,0.224-0.5,0.5v4.131c0,0.276,0.224,0.5,0.5,0.5h2.804v2.806
	c0,0.275,0.225,0.5,0.5,0.5h1.049C28.756,29.334,27.505,30.581,25.656,31.296z M35.281,23.292h-2.803c-0.276,0-0.5,0.225-0.5,0.5
	v2.805h-3.131v-2.805c0-0.275-0.225-0.5-0.5-0.5h-2.805v-3.131h2.805c0.275,0,0.5-0.225,0.5-0.5v-2.805h3.131v2.805
	c0,0.275,0.224,0.5,0.5,0.5h2.803V23.292z"/>
</svg>
