<?xml version="1.0" encoding="utf-8"?>
<!-- Generator: Adobe Illustrator 16.0.0, SVG Export Plug-In . SVG Version: 6.00 Build 0)  -->
<!DOCTYPE svg PUBLIC "-//W3C//DTD SVG 1.1//EN" "http://www.w3.org/Graphics/SVG/1.1/DTD/svg11.dtd">
<svg version="1.1" id="Layer_1" xmlns="http://www.w3.org/2000/svg" xmlns:xlink="http://www.w3.org/1999/xlink" x="0px" y="0px"
	 width="96px" height="96px" viewBox="0 0 96 96" enable-background="new 0 0 96 96" xml:space="preserve">
<path d="M94.148,19.154c-0.749-1.461-2.254-2.38-3.896-2.38H48.379c-1.496,0-2.889,0.762-3.694,2.022L29.884,41.991h34.782
	c-3.043-2.813-7.5-7.366-8.649-10.863c-0.255-0.765,0.165-1.593,0.93-1.844c0.765-0.253,1.593,0.166,1.847,0.931
	c1.238,3.766,8.124,10.017,10.676,12.11c0.477,0.392,0.656,1.039,0.448,1.621c-0.209,0.579-0.757,0.967-1.376,0.967H24.355
	c-0.029,0-0.052-0.015-0.08-0.015h-2.218c-1.496,0-2.89,0.762-3.694,2.023L2.054,72.483c-0.861,1.353-0.919,3.065-0.149,4.468
	c0.771,1.4,2.243,2.274,3.842,2.274c0.002,0,0.004,0,0.008,0l39.926-0.058c1.41-0.003,2.734-0.684,3.555-1.831
	c0,0,10.899-15.58,15.492-22.196H29.051c3.045,2.813,7.5,7.367,8.651,10.863c0.253,0.766-0.164,1.593-0.931,1.844
	c-0.151,0.052-0.306,0.074-0.457,0.074c-0.613,0-1.184-0.391-1.387-1.005C33.688,63.155,26.8,56.901,24.251,54.81
	c-0.478-0.394-0.657-1.041-0.45-1.623c0.209-0.579,0.759-0.968,1.375-0.968h41.559l4.095-0.005c1.412-0.003,2.735-0.685,3.558-1.832
	l19.428-26.675C94.771,22.373,94.902,20.615,94.148,19.154z"/>
</svg>
