<?xml version="1.0" encoding="utf-8"?>
<!-- Generator: Adobe Illustrator 16.0.4, SVG Export Plug-In . SVG Version: 6.00 Build 0)  -->
<!DOCTYPE svg PUBLIC "-//W3C//DTD SVG 1.1//EN" "http://www.w3.org/Graphics/SVG/1.1/DTD/svg11.dtd">
<svg version="1.1" id="Layer_1" xmlns="http://www.w3.org/2000/svg" xmlns:xlink="http://www.w3.org/1999/xlink" x="0px" y="0px"
	 width="50px" height="50px" viewBox="0 0 50 50" enable-background="new 0 0 50 50" xml:space="preserve">
<path d="M29.484,17.567c-0.459-0.258-0.979-0.394-1.504-0.394c-0.951,0-1.819,0.456-2.398,1.186
	c-0.068,0.043-0.129,0.097-0.171,0.172l-2.273,4.059c-0.343,0.008-0.671,0.175-0.851,0.495l-3.209,5.725
	c-0.271,0.48-0.099,1.091,0.383,1.361c0.155,0.086,0.323,0.127,0.488,0.127c0.351,0,0.688-0.184,0.872-0.51l3.209-5.726
	c0.181-0.319,0.15-0.688-0.021-0.983l1.049-1.869c0.24,0.738,0.732,1.354,1.414,1.736c0.459,0.258,0.979,0.394,1.504,0.394
	c0.246,0,0.483-0.041,0.717-0.096l-1.049,1.871c-0.343,0.008-0.672,0.176-0.851,0.497l-3.208,5.725
	c-0.271,0.48-0.099,1.091,0.383,1.361c0.155,0.086,0.323,0.127,0.488,0.127c0.351,0,0.688-0.184,0.873-0.511l3.208-5.726
	c0.18-0.318,0.149-0.687-0.021-0.981l2.152-3.841l0,0l0,0l0.122-0.218c0.036-0.064,0.054-0.132,0.06-0.201
	C31.381,19.942,30.833,18.323,29.484,17.567z M26.959,22.075c-0.484-0.272-0.836-0.717-0.986-1.252
	c-0.149-0.535-0.084-1.098,0.188-1.583l0,0c0.368-0.657,1.065-1.065,1.819-1.065c0.354,0,0.705,0.092,1.017,0.266
	c1.001,0.562,1.358,1.834,0.798,2.835l0,0C29.255,22.24,27.936,22.622,26.959,22.075z"/>
</svg>
