<?xml version="1.0" encoding="utf-8"?>
<!-- Generator: Adobe Illustrator 16.0.0, SVG Export Plug-In . SVG Version: 6.00 Build 0)  -->
<!DOCTYPE svg PUBLIC "-//W3C//DTD SVG 1.1//EN" "http://www.w3.org/Graphics/SVG/1.1/DTD/svg11.dtd">
<svg version="1.1" id="Layer_1" xmlns="http://www.w3.org/2000/svg" xmlns:xlink="http://www.w3.org/1999/xlink" x="0px" y="0px"
	 width="96px" height="96px" viewBox="0 0 96 96" enable-background="new 0 0 96 96" xml:space="preserve">
<g>
	<path d="M0.999,54.066l41.726-14.861v1.444L27.134,80.032c-0.77,0-1.537,0-2.292,0C0.147,80.032,0.999,54.066,0.999,54.066z"/>
	<polygon points="74.612,52.126 66.702,49.798 52.891,80.032 76.361,80.032 76.361,79.838 	"/>
	<path d="M60.924,48.098L46.337,80.032c-4.212,0-8.554,0-12.815,0l13.835-35.926L60.924,48.098z"/>
	<path d="M95.004,67.275c0,3.992-3.237,7.229-7.23,7.229h-7.672l-0.852-16.79l8.524,2.33C92.542,61.188,95.004,64.349,95.004,67.275
		z"/>
	<path d="M43.589,28.677c1.652-1.354,3.276-2.116,4.37-1.988l0.511-4.337c-1.695-0.199-3.804,0.622-5.745,1.768v-8.151H0.999v8.271
		h41.65l-1.48,5.961H0.999v7.255v10.073l40.773-14.305c0.869,0.916,1.764,1.977,2.594,3.187l0.47,0.722
		c0.2,0.314,0.401,0.627,0.586,0.958l3.81-2.138C47.567,32.988,45.404,30.389,43.589,28.677z"/>
</g>
</svg>
