<?xml version="1.0" encoding="utf-8"?>
<!-- Generator: Adobe Illustrator 16.0.0, SVG Export Plug-In . SVG Version: 6.00 Build 0)  -->
<!DOCTYPE svg PUBLIC "-//W3C//DTD SVG 1.1//EN" "http://www.w3.org/Graphics/SVG/1.1/DTD/svg11.dtd">
<svg version="1.1" id="Layer_1" xmlns="http://www.w3.org/2000/svg" xmlns:xlink="http://www.w3.org/1999/xlink" x="0px" y="0px"
	 width="96px" height="96px" viewBox="0 0 96 96" enable-background="new 0 0 96 96" xml:space="preserve">
<g>
	<path d="M24.034,59.085c1.536,0.006,2.789-1.24,2.794-2.777l0.042-18.411l-5.569-0.012L21.259,56.29
		C21.254,57.826,22.499,59.08,24.034,59.085z"/>
	<path d="M48.118,59.165c1.535,0.006,2.788-1.24,2.793-2.777l0.021-28.034l-5.568-0.013L45.343,56.37
		C45.337,57.906,46.583,59.161,48.118,59.165z"/>
	<path d="M72.114,59.245c1.536,0.006,2.789-1.24,2.794-2.777l-0.022-24.076l-5.568-0.012l0.022,24.07
		C69.335,57.986,70.58,59.241,72.114,59.245z"/>
	<path d="M94.498,25.41l-14.478-0.032l0.011-6.294l1.168,0.004l0.005-4.701H63.108l-0.015,4.641l1.157,0.004l-0.021,6.295
		l-8.206-0.028l-0.008-6.295l1.197-0.044l0.004-4.618l-18.105,0.057l-0.015,4.55l1.148,0.004l-0.011,6.274l-8.293-0.008l0.011-6.295
		l1.167,0.004l0.015-4.581l-18.106,0.032l-0.014,4.489l1.149,0.004l-0.011,6.295L1.567,25.16L1.483,81.344l93.034,0.311
		L94.498,25.41z M67.312,20.984l9.656,0.002l-0.005,35.49c-0.009,2.662-2.192,4.822-4.854,4.812
		c-2.663-0.008-4.822-2.182-4.813-4.844L67.312,20.984z M52.971,20.937l-0.015,35.46c-0.01,2.662-2.183,4.821-4.845,4.812
		c-2.663-0.008-4.821-2.182-4.812-4.844l-0.005-35.46L52.971,20.937z M19.23,20.824l9.638,0.032l0.004,35.46
		c-0.008,2.662-2.182,4.821-4.844,4.812c-2.663-0.008-4.821-2.182-4.812-4.844L19.23,20.824z M84.852,57.624
		c-0.023,7.02-5.754,12.71-12.773,12.688c-3.401-0.012-6.593-1.345-8.989-3.759c-1.366-1.376-2.367-3.011-2.985-4.79
		c-1.762,4.942-6.485,8.486-12.023,8.469c-5.585-0.019-10.319-3.654-12.012-8.675c-1.728,5.009-6.486,8.612-12.071,8.595
		c-7.02-0.024-12.711-5.752-12.687-12.771l-0.023-23.942l4.855,0.016l0.003,23.942c-0.015,4.361,3.507,7.905,7.868,7.922
		c4.361,0.014,7.907-3.508,7.921-7.869l-0.023-23.942l8.323,0.018l-0.007,23.952c-0.014,4.361,3.508,7.907,7.869,7.922
		c4.361,0.014,7.907-3.508,7.922-7.869l-0.013-23.942l8.196,0.027l-0.007,23.942c-0.015,4.361,3.538,7.905,7.899,7.922
		c4.36,0.014,7.907-3.508,7.921-7.869l0.039-23.942l4.818,0.016L84.852,57.624z"/>
</g>
</svg>
