<?xml version="1.0" encoding="utf-8"?>
<!-- Generator: Adobe Illustrator 16.0.4, SVG Export Plug-In . SVG Version: 6.00 Build 0)  -->
<!DOCTYPE svg PUBLIC "-//W3C//DTD SVG 1.1//EN" "http://www.w3.org/Graphics/SVG/1.1/DTD/svg11.dtd">
<svg version="1.1" id="Layer_1" xmlns="http://www.w3.org/2000/svg" xmlns:xlink="http://www.w3.org/1999/xlink" x="0px" y="0px"
	 width="50px" height="50px" viewBox="0 0 50 50" enable-background="new 0 0 50 50" xml:space="preserve">
<path d="M20.926,24.211c-1.336,1.338-1.336,3.513,0,4.847c0.648,0.648,1.511,1.004,2.426,1.004c0.916,0,1.776-0.355,2.424-1.004
	c0.646-0.646,1.005-1.507,1.005-2.423s-0.357-1.777-1.005-2.425C24.479,22.916,22.224,22.916,20.926,24.211z M25.067,28.351
	c-0.917,0.918-2.517,0.918-3.436,0c-0.945-0.944-0.945-2.485,0-3.433c0.459-0.458,1.069-0.711,1.719-0.711
	c0.648,0,1.259,0.252,1.717,0.71c0.459,0.459,0.712,1.068,0.712,1.718C25.779,27.283,25.526,27.893,25.067,28.351z M24.588,26.104
	l-0.529,0.53l0.529,0.53c0.195,0.194,0.195,0.512,0,0.707c-0.098,0.098-0.226,0.146-0.354,0.146s-0.256-0.049-0.354-0.146
	l-0.529-0.53l-0.53,0.53c-0.098,0.098-0.227,0.146-0.354,0.146s-0.256-0.049-0.354-0.146c-0.195-0.195-0.195-0.513,0-0.707
	l0.53-0.53l-0.53-0.53c-0.195-0.194-0.195-0.512,0-0.707c0.195-0.194,0.512-0.194,0.707,0l0.53,0.53l0.529-0.53
	c0.195-0.194,0.513-0.194,0.707,0C24.781,25.593,24.783,25.91,24.588,26.104z M32.195,21.224l-3.433-3.434
	c-1.053-1.052-2.89-1.052-3.94,0l-7.018,7.019c-0.526,0.526-0.816,1.227-0.816,1.971c0.001,0.743,0.29,1.442,0.816,1.97l3.433,3.434
	c0.527,0.526,1.227,0.816,1.971,0.816c0.743,0,1.443-0.29,1.969-0.816l7.02-7.02c0.526-0.525,0.815-1.226,0.815-1.969
	C33.012,22.452,32.723,21.75,32.195,21.224z M31.488,24.455l-7.02,7.02c-0.675,0.676-1.851,0.674-2.524,0l-3.433-3.434
	c-0.338-0.337-0.523-0.786-0.523-1.264c0-0.477,0.187-0.925,0.523-1.263l7.018-7.019c0.337-0.337,0.786-0.522,1.264-0.522
	c0.479,0,0.927,0.187,1.264,0.522l3.433,3.434c0.338,0.337,0.523,0.786,0.523,1.263C32.013,23.67,31.826,24.118,31.488,24.455z
	 M25.497,19.221c-0.356,0.357-0.554,0.833-0.554,1.338s0.196,0.981,0.554,1.338c0.357,0.357,0.833,0.556,1.339,0.556
	c0.505,0,0.98-0.197,1.337-0.556c0.357-0.356,0.556-0.833,0.556-1.338s-0.197-0.98-0.556-1.338
	C27.459,18.506,26.212,18.506,25.497,19.221z M27.466,21.189c-0.336,0.337-0.925,0.336-1.262,0
	c-0.168-0.168-0.261-0.393-0.261-0.631c0-0.237,0.093-0.463,0.261-0.631c0.169-0.168,0.394-0.261,0.632-0.261
	s0.462,0.093,0.63,0.261c0.169,0.168,0.263,0.394,0.263,0.631C27.729,20.797,27.635,21.021,27.466,21.189z"/>
</svg>
