<?xml version="1.0" encoding="utf-8"?>
<!-- Generator: Adobe Illustrator 16.0.4, SVG Export Plug-In . SVG Version: 6.00 Build 0)  -->
<!DOCTYPE svg PUBLIC "-//W3C//DTD SVG 1.1//EN" "http://www.w3.org/Graphics/SVG/1.1/DTD/svg11.dtd">
<svg version="1.1" id="Layer_1" xmlns="http://www.w3.org/2000/svg" xmlns:xlink="http://www.w3.org/1999/xlink" x="0px" y="0px"
	 width="50px" height="50px" viewBox="0 0 50 50" enable-background="new 0 0 50 50" xml:space="preserve">
<path d="M14.139,24.025c-0.146-0.543,0.174-1.103,0.719-1.249c0.543-0.146,1.102,0.176,1.248,0.719
	c0.146,0.544-0.176,1.103-0.719,1.249C14.844,24.892,14.284,24.568,14.139,24.025z M18.85,23.812
	c0.543-0.146,0.864-0.706,0.719-1.248c-0.147-0.544-0.705-0.866-1.25-0.719c-0.543,0.146-0.864,0.706-0.719,1.248
	C17.746,23.636,18.305,23.958,18.85,23.812z M16.15,27.578c0.543-0.147,0.865-0.707,0.718-1.25
	c-0.146-0.543-0.704-0.865-1.248-0.719c-0.544,0.146-0.864,0.706-0.718,1.249C15.048,27.401,15.607,27.725,16.15,27.578z
	 M19.611,26.645c0.544-0.146,0.865-0.706,0.72-1.248c-0.147-0.544-0.705-0.865-1.249-0.72c-0.544,0.147-0.865,0.706-0.719,1.25
	C18.51,26.469,19.068,26.791,19.611,26.645z M16.914,30.41c0.545-0.146,0.866-0.705,0.718-1.248
	c-0.146-0.545-0.704-0.865-1.247-0.719c-0.545,0.146-0.865,0.705-0.719,1.247C15.811,30.234,16.37,30.557,16.914,30.41z
	 M20.376,29.478c0.544-0.146,0.865-0.706,0.72-1.249c-0.147-0.543-0.707-0.863-1.25-0.719c-0.543,0.146-0.865,0.705-0.719,1.248
	S19.833,29.623,20.376,29.478z M17.146,31.275c-0.543,0.146-0.864,0.705-0.717,1.249c0.146,0.543,0.705,0.865,1.248,0.72
	c0.543-0.146,0.864-0.707,0.717-1.25C18.25,31.451,17.691,31.129,17.146,31.275z M20.609,30.342
	c-0.543,0.146-0.864,0.707-0.719,1.25s0.705,0.865,1.248,0.719c0.545-0.146,0.865-0.706,0.719-1.249
	C21.712,30.519,21.152,30.195,20.609,30.342z M35.346,33.77c0.006,0.029,0.018,0.057,0.018,0.087c0,1.47-3.233,1.862-5.145,1.862
	c-1.367,0-3.406-0.204-4.459-0.857l0,0c-0.021,0-0.043-0.001-0.062-0.004l-3.02-0.383c-0.004,0-0.006-0.002-0.009-0.002
	c-0.063,0.023-0.125,0.055-0.192,0.072l-4.83,1.303c-0.197,0.054-0.4,0.08-0.604,0.08c-1.045,0-1.964-0.705-2.235-1.715l-2.92-10.83
	c-0.332-1.234,0.401-2.51,1.637-2.842l4.828-1.302c0.528-0.142,1.069-0.07,1.543,0.146c0.49-0.606,1.258-0.943,2.062-0.854
	l0.564,0.063l-0.268-1.594c-0.02-0.11,0.008-0.215,0.057-0.308l0,0c0-1.802,4.101-2.622,7.91-2.622c3.811,0,7.91,0.82,7.91,2.622
	c0,0.004-0.002,0.007-0.002,0.011c0.049,0.094,0.076,0.199,0.059,0.311L35.346,33.77z M23.309,16.694
	c0,0.571,2.623,1.621,6.91,1.621s6.911-1.05,6.911-1.621c0-0.551-2.438-1.622-6.911-1.622
	C25.748,15.073,23.309,16.145,23.309,16.694z M23.779,33.605l1.292,0.164L23.18,22.521c-0.176,0.396-0.578,0.656-1.031,0.604
	c-0.139-0.016-0.269-0.059-0.383-0.123l0.36,1.341c0.524-0.032,0.997,0.331,1.072,0.859c0.063,0.446-0.179,0.854-0.56,1.045
	l1.471,5.455C24.294,32.381,24.146,33.066,23.779,33.605z M20.701,19.98c0.224,0.254,0.398,0.554,0.49,0.895l0.195,0.726
	c0.196-0.336,0.577-0.545,0.99-0.499c0.25,0.028,0.459,0.153,0.618,0.323l-0.304-1.804l-0.851-0.096
	C21.405,19.475,20.982,19.656,20.701,19.98z M22.216,33.58c0.701-0.188,1.119-0.914,0.931-1.617l-2.92-10.828
	c-0.07-0.264-0.227-0.483-0.422-0.652c-0.045-0.026-0.088-0.054-0.121-0.09c-0.211-0.144-0.459-0.234-0.729-0.234
	c-0.116,0-0.232,0.016-0.346,0.047l-4.828,1.302c-0.702,0.188-1.12,0.914-0.932,1.616l2.92,10.829
	c0.186,0.688,0.924,1.117,1.617,0.93L22.216,33.58z M34.337,33.863c-0.002-0.035-0.01-0.07-0.004-0.107l2.647-15.614
	c-1.485,0.799-4.188,1.175-6.762,1.175c-2.574,0-5.275-0.376-6.761-1.174l0.144,0.847c0.024,0.065,0.039,0.135,0.035,0.209
	l2.444,14.549c0.006,0.039-0.002,0.074-0.004,0.11c0.134,0.285,1.67,0.86,4.142,0.86C32.615,34.719,34.122,34.18,34.337,33.863z"/>
</svg>
