<?xml version="1.0" encoding="utf-8"?>
<!-- Generator: Adobe Illustrator 16.0.4, SVG Export Plug-In . SVG Version: 6.00 Build 0)  -->
<!DOCTYPE svg PUBLIC "-//W3C//DTD SVG 1.1//EN" "http://www.w3.org/Graphics/SVG/1.1/DTD/svg11.dtd">
<svg version="1.1" id="Layer_1" xmlns="http://www.w3.org/2000/svg" xmlns:xlink="http://www.w3.org/1999/xlink" x="0px" y="0px"
	 width="50px" height="50px" viewBox="0 0 50 50" enable-background="new 0 0 50 50" xml:space="preserve">
<path d="M35.9,28.069c-0.805-0.793-1.872-1.229-3.002-1.229c-0.504,0-0.99,0.103-1.45,0.269v-4.026c0-1.813-1.475-3.288-3.288-3.288
	c-0.316,0-0.624,0.061-0.923,0.148c-0.108-0.068-0.218-0.137-0.328-0.202c-0.292-0.175-0.691-0.413-0.775-0.558
	c-0.083-0.146-0.091-0.611-0.096-0.951c-0.01-0.699-0.021-1.422-0.479-1.808c-0.384-0.321-1.129-0.274-1.862-0.157
	c-0.433,0.068-0.918,0.084-0.952,0.071c-0.157-0.058-0.461-0.409-0.684-0.667c-0.457-0.529-0.93-1.076-1.528-1.076
	c-0.598,0-1.071,0.547-1.528,1.076c-0.223,0.258-0.527,0.609-0.684,0.667c-0.013,0.004-0.062,0.021-0.18,0.021l0,0
	c-0.209,0-0.495-0.047-0.772-0.092c-0.733-0.117-1.477-0.164-1.862,0.157c-0.459,0.386-0.47,1.107-0.479,1.808
	c-0.005,0.34-0.012,0.807-0.095,0.951c-0.084,0.145-0.484,0.383-0.776,0.558c-0.6,0.358-1.221,0.729-1.325,1.317
	c-0.107,0.604,0.363,1.192,0.817,1.762c0.213,0.267,0.479,0.599,0.526,0.768c0.041,0.146-0.135,0.637-0.24,0.93
	c-0.23,0.641-0.468,1.303-0.174,1.812c0.299,0.519,1.009,0.653,1.695,0.785c0.335,0.062,0.793,0.151,0.921,0.259
	s0.294,0.543,0.415,0.861c0.249,0.652,0.506,1.328,1.068,1.533c0.512,0.186,1.19-0.146,1.805-0.488
	c0.297-0.166,0.704-0.394,0.87-0.394s0.573,0.228,0.87,0.394c0.483,0.27,0.983,0.549,1.449,0.549c0.126,0,0.246-0.021,0.355-0.061
	c0.562-0.205,0.819-0.881,1.068-1.533c0.121-0.318,0.287-0.754,0.415-0.861c0.036-0.03,0.103-0.059,0.182-0.086v4.604
	c0,1.812,1.477,3.289,3.289,3.289c0.762,0,1.475-0.271,2.058-0.744c0.76,0.617,1.69,0.971,2.682,0.971
	c1.156,0,2.24-0.454,3.053-1.278c0.802-0.815,1.238-1.894,1.229-3.038C37.17,29.942,36.717,28.872,35.9,28.069z M34.809,28.467
	l-4.532,4.606c-0.948-1.274-0.865-3.085,0.283-4.254c0.622-0.631,1.452-0.979,2.339-0.979C33.596,27.84,34.254,28.065,34.809,28.467
	z M30.448,23.081v3.757h-3.795c0.276-0.112,0.512-0.269,0.652-0.511c0.294-0.51,0.056-1.171-0.175-1.811
	c-0.104-0.293-0.28-0.785-0.24-0.931c0.048-0.17,0.312-0.502,0.525-0.769c0.455-0.568,0.924-1.157,0.817-1.762
	c-0.017-0.096-0.066-0.177-0.107-0.262c0.012,0,0.022-0.003,0.033-0.003C29.421,20.793,30.448,21.819,30.448,23.081z M24.046,26.604
	c-0.327,0.274-0.512,0.76-0.707,1.271c-0.116,0.305-0.333,0.874-0.472,0.948c0,0-0.005,0.001-0.018,0.001
	c-0.205,0-0.642-0.244-0.961-0.422c-0.479-0.269-0.931-0.521-1.357-0.521c-0.426,0-0.879,0.252-1.357,0.521
	c-0.319,0.178-0.756,0.422-0.972,0.423c-0.146-0.076-0.363-0.646-0.479-0.95c-0.195-0.513-0.38-0.997-0.707-1.271
	c-0.327-0.273-0.836-0.371-1.375-0.476c-0.321-0.062-0.918-0.176-1.014-0.296c-0.054-0.148,0.141-0.689,0.245-0.98
	c0.2-0.558,0.389-1.082,0.263-1.535c-0.103-0.366-0.397-0.734-0.708-1.125c-0.22-0.273-0.63-0.786-0.615-0.957
	c0.05-0.157,0.573-0.471,0.854-0.639c0.471-0.281,0.916-0.546,1.129-0.916c0.214-0.369,0.222-0.888,0.229-1.437
	c0.005-0.327,0.014-0.935,0.119-1.052c0,0,0.056-0.034,0.247-0.034c0.229,0,0.528,0.048,0.817,0.095
	c0.316,0.051,0.643,0.104,0.931,0.104c0.204,0,0.375-0.025,0.523-0.08c0.4-0.146,0.739-0.537,1.098-0.951
	c0.214-0.248,0.612-0.709,0.768-0.73c0.164,0.021,0.562,0.482,0.776,0.73c0.358,0.414,0.697,0.806,1.098,0.951
	c0.356,0.13,0.914,0.063,1.454-0.022c0.289-0.047,0.588-0.095,0.817-0.095c0.179,0,0.239,0.029,0.241,0.029
	c0.111,0.123,0.12,0.729,0.125,1.057c0.008,0.549,0.015,1.066,0.229,1.438c0.213,0.369,0.659,0.635,1.129,0.916
	c0.068,0.041,0.154,0.092,0.242,0.146c0.08,0.147,0.222,0.239,0.38,0.258c0.116,0.088,0.212,0.171,0.23,0.229
	c0.017,0.176-0.394,0.688-0.613,0.963c-0.312,0.39-0.605,0.758-0.708,1.123c-0.126,0.453,0.062,0.979,0.263,1.537
	c0.104,0.291,0.298,0.832,0.251,0.97c-0.101,0.131-0.698,0.245-1.02,0.307C24.883,26.233,24.373,26.331,24.046,26.604z
	 M25.871,31.888v-4.05h4.312c-0.113,0.095-0.233,0.177-0.337,0.281c-1.514,1.539-1.606,3.935-0.327,5.6
	c-0.393,0.294-0.861,0.458-1.359,0.458C26.897,34.177,25.871,33.149,25.871,31.888z M35.239,33.424
	c-1.11,1.128-2.976,1.24-4.248,0.349l4.53-4.604c0.416,0.557,0.651,1.221,0.658,1.928C36.188,31.974,35.854,32.799,35.239,33.424z
	 M22.528,19.181l-3.559,6.394h-0.77l3.548-6.394H22.528z M19.835,21.017c0-1.056-0.6-1.836-1.665-1.836
	c-1.055,0-1.73,0.838-1.73,1.941c0,1.16,0.742,1.863,1.683,1.863C19.018,22.985,19.835,22.312,19.835,21.017z M18.152,22.196
	c-0.419,0-0.638-0.467-0.638-1.112c0-0.618,0.2-1.112,0.628-1.112c0.447,0,0.618,0.484,0.618,1.112
	C18.76,21.778,18.561,22.196,18.152,22.196z M22.622,21.749c-1.056,0-1.731,0.838-1.731,1.941c0.01,1.16,0.752,1.863,1.684,1.863
	c0.895,0,1.713-0.675,1.713-1.969C24.288,22.53,23.688,21.749,22.622,21.749z M22.604,24.765c-0.419,0-0.638-0.465-0.628-1.111
	c0-0.618,0.19-1.112,0.628-1.112c0.447,0,0.608,0.483,0.608,1.112C23.212,24.347,23.013,24.765,22.604,24.765z"/>
</svg>
