<?xml version="1.0" encoding="utf-8"?>
<!-- Generator: Adobe Illustrator 16.0.4, SVG Export Plug-In . SVG Version: 6.00 Build 0)  -->
<!DOCTYPE svg PUBLIC "-//W3C//DTD SVG 1.1//EN" "http://www.w3.org/Graphics/SVG/1.1/DTD/svg11.dtd">
<svg version="1.1" id="Layer_1" xmlns="http://www.w3.org/2000/svg" xmlns:xlink="http://www.w3.org/1999/xlink" x="0px" y="0px"
	 width="50px" height="50px" viewBox="0 0 50 50" enable-background="new 0 0 50 50" xml:space="preserve">
<path d="M30.25,20.916h-2.333v-1.5c0-0.275-0.224-0.5-0.5-0.5H25.5V17.75h1.833c0.276,0,0.5-0.223,0.5-0.5
	c0-0.275-0.224-0.5-0.5-0.5h-2.328c-0.002,0-0.003,0-0.005,0s-0.003,0-0.005,0h-2.329c-0.275,0-0.5,0.225-0.5,0.5
	c0,0.277,0.225,0.5,0.5,0.5H24.5v1.166h-1.917c-0.276,0-0.5,0.225-0.5,0.5v1.5H19.75c-0.275,0-0.5,0.225-0.5,0.5V32.75
	c0,0.277,0.225,0.5,0.5,0.5h10.5c0.275,0,0.5-0.223,0.5-0.5V21.416C30.75,21.141,30.525,20.916,30.25,20.916z M22.583,21.916
	c0.276,0,0.5-0.223,0.5-0.5v-1.5h3.834v1.5c0,0.277,0.224,0.5,0.5,0.5h2.333v3.666h-9.5v-3.666H22.583z M20.25,32.25v-5.668h9.5
	v5.668H20.25z M23.889,29.082c0,0.461-0.373,0.834-0.832,0.834c-0.461,0-0.834-0.373-0.834-0.834c0-0.459,0.373-0.832,0.834-0.832
	C23.516,28.25,23.889,28.623,23.889,29.082z M26.389,28.75c0,0.275-0.224,0.5-0.5,0.5c-0.275,0-0.5-0.225-0.5-0.5
	c0-0.277,0.225-0.5,0.5-0.5C26.165,28.25,26.389,28.473,26.389,28.75z M28.807,28.582c0,0.414-0.336,0.75-0.75,0.75
	s-0.75-0.336-0.75-0.75s0.336-0.75,0.75-0.75S28.807,28.168,28.807,28.582z M28.223,31.166c0,0.414-0.336,0.75-0.75,0.75
	s-0.75-0.336-0.75-0.75s0.336-0.75,0.75-0.75S28.223,30.752,28.223,31.166z"/>
</svg>
