<?xml version="1.0" encoding="utf-8"?>
<!-- Generator: Adobe Illustrator 16.0.4, SVG Export Plug-In . SVG Version: 6.00 Build 0)  -->
<!DOCTYPE svg PUBLIC "-//W3C//DTD SVG 1.1//EN" "http://www.w3.org/Graphics/SVG/1.1/DTD/svg11.dtd">
<svg version="1.1" id="Layer_1" xmlns="http://www.w3.org/2000/svg" xmlns:xlink="http://www.w3.org/1999/xlink" x="0px" y="0px"
	 width="50px" height="50px" viewBox="0 0 50 50" enable-background="new 0 0 50 50" xml:space="preserve">
<path d="M31.798,24.622l-6.549-3.743c-0.153-0.088-0.342-0.088-0.496,0l-6.551,3.743c-0.156,0.089-0.252,0.255-0.252,0.434v3.632
	c0,0.275,0.224,0.5,0.5,0.5h13.1c0.276,0,0.5-0.225,0.5-0.5v-3.632C32.05,24.876,31.954,24.71,31.798,24.622z M31.05,28.188h-12.1
	v-2.842l6.051-3.457l6.049,3.457V28.188z M25.001,23.188c0.276,0,0.5,0.224,0.5,0.5v1.25h1.25c0.276,0,0.5,0.224,0.5,0.5
	c0,0.275-0.224,0.5-0.5,0.5h-1.25v1.25c0,0.275-0.224,0.5-0.5,0.5s-0.5-0.225-0.5-0.5v-1.25h-1.25c-0.276,0-0.5-0.225-0.5-0.5
	c0-0.276,0.224-0.5,0.5-0.5h1.25v-1.25C24.501,23.412,24.725,23.188,25.001,23.188z"/>
</svg>
