<?xml version="1.0" encoding="utf-8"?>
<!-- Generator: Adobe Illustrator 16.0.4, SVG Export Plug-In . SVG Version: 6.00 Build 0)  -->
<!DOCTYPE svg PUBLIC "-//W3C//DTD SVG 1.1//EN" "http://www.w3.org/Graphics/SVG/1.1/DTD/svg11.dtd">
<svg version="1.1" id="Layer_1" xmlns="http://www.w3.org/2000/svg" xmlns:xlink="http://www.w3.org/1999/xlink" x="0px" y="0px"
	 width="50px" height="50px" viewBox="0 0 50 50" enable-background="new 0 0 50 50" xml:space="preserve">
<path d="M29.876,25.472c-0.805-0.793-1.871-1.23-3.002-1.23c-0.505,0-0.99,0.102-1.452,0.268v-4.026
	c0-1.813-1.475-3.289-3.287-3.289c-1.813,0-3.289,1.475-3.289,3.289v8.806c0,1.813,1.475,3.289,3.289,3.289
	c0.762,0,1.475-0.271,2.057-0.742c0.761,0.617,1.691,0.97,2.683,0.97c1.157,0,2.241-0.454,3.054-1.279
	C31.582,29.844,31.56,27.127,29.876,25.472z M28.785,25.869l-4.534,4.605c-0.948-1.275-0.864-3.085,0.282-4.253
	c0.622-0.632,1.454-0.98,2.34-0.98C27.569,25.242,28.229,25.466,28.785,25.869z M22.135,18.194c1.262,0,2.287,1.027,2.287,2.289
	v3.756h-4.576v-3.756C19.846,19.222,20.873,18.194,22.135,18.194z M19.846,29.289V25.24h4.312c-0.112,0.093-0.232,0.175-0.337,0.281
	c-1.514,1.54-1.606,3.935-0.327,5.599c-0.392,0.293-0.86,0.459-1.359,0.459C20.873,31.578,19.846,30.551,19.846,29.289z
	 M29.214,30.824c-1.109,1.129-2.977,1.241-4.248,0.35l4.53-4.604C30.444,27.847,30.362,29.658,29.214,30.824z"/>
</svg>
