<?xml version="1.0" encoding="iso-8859-1"?>
<!-- Generator: Adobe Illustrator 17.0.0, SVG Export Plug-In . SVG Version: 6.00 Build 0)  -->
<!DOCTYPE svg PUBLIC "-//W3C//DTD SVG 1.1//EN" "http://www.w3.org/Graphics/SVG/1.1/DTD/svg11.dtd">
<svg version="1.1" id="Capa_1" xmlns="http://www.w3.org/2000/svg" xmlns:xlink="http://www.w3.org/1999/xlink" x="0px" y="0px"
	 width="64px" height="64px" viewBox="0 0 64 64" style="enable-background:new 0 0 64 64;" xml:space="preserve">
<g>
	<polygon points="31.539,39.707 34.481,39.707 34.481,36.014 38.249,36.014 38.249,33.072 34.481,33.072 34.481,29.379 
		31.539,29.379 31.539,33.072 27.921,33.072 27.921,36.014 31.539,36.014 	"/>
	<path d="M12.459,51.418h39.083c2.209,0,4-1.791,4-4v-25.75c0-2.209-1.791-4-4-4h-8.691C42.945,17.245,43,16.806,43,16.354v-1.5
		c0-3.309-2.691-6-6-6H27c-3.309,0-6,2.691-6,6v1.5c0,0.452,0.055,0.891,0.149,1.314h-8.69c-2.209,0-4,1.791-4,4v25.75
		C8.459,49.627,10.25,51.418,12.459,51.418z M25,14.854c0-1.103,0.898-2,2-2h10c1.102,0,2,0.897,2,2v1.5
		c0,0.505-0.194,0.962-0.505,1.314h-12.99C25.194,17.316,25,16.859,25,16.354V14.854z M28.267,24.546
		c1.922,0,3.641,0.848,4.818,2.185c1.178-1.337,2.896-2.185,4.818-2.185c3.549,0,6.425,2.876,6.425,6.425
		c0,1.963-0.884,3.717-2.271,4.896h0.004l-8.842,8.673l-9.11-8.673h0.003c-1.387-1.179-2.271-2.934-2.271-4.896
		C21.842,27.422,24.718,24.546,28.267,24.546z"/>
</g>
</svg>
