<?xml version="1.0" encoding="utf-8"?>
<!-- Generator: Adobe Illustrator 16.0.4, SVG Export Plug-In . SVG Version: 6.00 Build 0)  -->
<!DOCTYPE svg PUBLIC "-//W3C//DTD SVG 1.1//EN" "http://www.w3.org/Graphics/SVG/1.1/DTD/svg11.dtd">
<svg version="1.1" id="Layer_1" xmlns="http://www.w3.org/2000/svg" xmlns:xlink="http://www.w3.org/1999/xlink" x="0px" y="0px"
	 width="50px" height="50px" viewBox="0 0 50 50" enable-background="new 0 0 50 50" xml:space="preserve">
<path d="M30.727,19.829h-1.159v-0.843c0-0.275-0.225-0.5-0.5-0.5h-7.979c-0.275,0-0.5,0.225-0.5,0.5v0.843h-1.316
	c-0.276,0-0.5,0.224-0.5,0.5v12.364c0,0.276,0.224,0.5,0.5,0.5h11.457c0.275,0,0.5-0.224,0.5-0.5V20.329
	C31.227,20.053,31.003,19.829,30.727,19.829z M21.087,20.829c0.276,0,0.5-0.224,0.5-0.5v-0.843h6.979v0.843
	c0,0.276,0.224,0.5,0.5,0.5h1.159v2.823h-10.44c-0.006,0-0.01,0.003-0.016,0.003v-2.826H21.087z M19.77,32.193v-7.545
	c0.006,0,0.01,0.004,0.016,0.004h10.44v7.541H19.77z M20.678,17.307c0-0.276,0.225-0.5,0.5-0.5h7.797c0.276,0,0.5,0.224,0.5,0.5
	c0,0.275-0.224,0.5-0.5,0.5h-7.797C20.901,17.807,20.678,17.582,20.678,17.307z M22.877,28.334c-0.503,0-0.91-0.407-0.91-0.909
	s0.407-0.907,0.91-0.907c0.502,0,0.908,0.405,0.908,0.907S23.379,28.334,22.877,28.334z M26.514,27.062
	c0,0.302-0.244,0.545-0.546,0.545s-0.546-0.243-0.546-0.545c0-0.303,0.244-0.545,0.546-0.545S26.514,26.76,26.514,27.062z
	 M29.15,26.88c0,0.452-0.366,0.818-0.818,0.818s-0.818-0.366-0.818-0.818s0.366-0.817,0.818-0.817S29.15,26.428,29.15,26.88z
	 M24.882,29.909c0,0.45-0.366,0.817-0.817,0.817c-0.452,0-0.819-0.367-0.819-0.817c0-0.453,0.367-0.818,0.819-0.818
	C24.516,29.091,24.882,29.456,24.882,29.909z M28.514,29.699c0,0.451-0.365,0.818-0.817,0.818c-0.45,0-0.817-0.367-0.817-0.818
	c0-0.452,0.367-0.819,0.817-0.819C28.147,28.88,28.514,29.247,28.514,29.699z"/>
</svg>
