<?xml version="1.0" encoding="utf-8"?>
<!-- Generator: Adobe Illustrator 16.0.4, SVG Export Plug-In . SVG Version: 6.00 Build 0)  -->
<!DOCTYPE svg PUBLIC "-//W3C//DTD SVG 1.1//EN" "http://www.w3.org/Graphics/SVG/1.1/DTD/svg11.dtd">
<svg version="1.1" id="Layer_1" xmlns="http://www.w3.org/2000/svg" xmlns:xlink="http://www.w3.org/1999/xlink" x="0px" y="0px"
	 width="50px" height="50px" viewBox="0 0 50 50" enable-background="new 0 0 50 50" xml:space="preserve">
<path d="M31.748,19.939c-1.562,0-2.832,1.27-2.832,2.832v3.284c-0.515-0.16-1.058-0.209-1.591-0.146V21.15h0.357
	c0.275,0,0.5-0.224,0.5-0.5v-3.307c0-0.276-0.225-0.5-0.5-0.5H15.921c-0.275,0-0.5,0.224-0.5,0.5v3.307c0,0.276,0.225,0.5,0.5,0.5
	h0.357v11.506c0,0.275,0.224,0.5,0.5,0.5h10.045c0.09,0,0.17-0.03,0.242-0.07c0.232,0.046,0.474,0.071,0.718,0.071c0,0,0,0,0.001,0
	c0.824,0,1.601-0.287,2.24-0.788c0.494,0.381,1.088,0.598,1.723,0.598c1.562,0,2.832-1.27,2.832-2.832v-7.364
	C34.58,21.209,33.31,19.939,31.748,19.939z M31.748,20.939c1.01,0,1.832,0.822,1.832,1.832v3.059h-3.664v-3.059
	C29.916,21.761,30.737,20.939,31.748,20.939z M29.683,27.626c0.908,0.924,1.002,2.349,0.291,3.377l-3.664-3.724
	c0.434-0.291,0.942-0.449,1.477-0.449C28.504,26.831,29.178,27.114,29.683,27.626z M16.422,17.842h10.761v2.307H16.422V17.842z
	 M17.278,32.155V21.149h9.047v1.691h-6.031c-0.275,0-0.5,0.224-0.5,0.5c0,0.276,0.225,0.5,0.5,0.5h6.031v1.261h-4.448
	c-0.276,0-0.5,0.224-0.5,0.5c0,0.275,0.224,0.5,0.5,0.5h4.448v0.062c-0.406,0.168-0.786,0.403-1.108,0.72
	c-0.151,0.149-0.278,0.312-0.397,0.479h-2.941c-0.275,0-0.5,0.224-0.5,0.5s0.225,0.5,0.5,0.5h2.443
	c-0.135,0.409-0.197,0.834-0.182,1.261h-2.263c-0.276,0-0.5,0.225-0.5,0.5s0.224,0.5,0.5,0.5h2.44
	c0.168,0.523,0.445,1.02,0.855,1.438c0.034,0.035,0.076,0.061,0.112,0.094L17.278,32.155L17.278,32.155z M27.784,32.156
	c-0.719,0-1.393-0.283-1.896-0.795c-0.91-0.924-1.002-2.348-0.289-3.379l3.664,3.725C28.828,31.998,28.317,32.156,27.784,32.156
	L27.784,32.156z M31.748,31.966c-0.37,0-0.724-0.108-1.022-0.312c1.045-1.422,0.945-3.432-0.33-4.729
	c-0.035-0.036-0.078-0.061-0.117-0.096h3.303v3.305C33.58,31.145,32.758,31.966,31.748,31.966z"/>
</svg>
