<?xml version="1.0" encoding="utf-8"?>
<!-- Generator: Adobe Illustrator 16.0.4, SVG Export Plug-In . SVG Version: 6.00 Build 0)  -->
<!DOCTYPE svg PUBLIC "-//W3C//DTD SVG 1.1//EN" "http://www.w3.org/Graphics/SVG/1.1/DTD/svg11.dtd">
<svg version="1.1" id="Layer_1" xmlns="http://www.w3.org/2000/svg" xmlns:xlink="http://www.w3.org/1999/xlink" x="0px" y="0px"
	 width="50px" height="50px" viewBox="0 0 50 50" enable-background="new 0 0 50 50" xml:space="preserve">
<path d="M19.245,26.257c0.675-0.675,1.903-0.549,2.734,0.282c0.414,0.415,0.667,0.938,0.71,1.468
	c0.042,0.501-0.11,0.951-0.427,1.269c-0.196,0.193-0.196,0.511-0.001,0.707c0.098,0.098,0.226,0.146,0.354,0.146
	c0.128,0,0.255-0.049,0.353-0.146c0.528-0.526,0.783-1.258,0.718-2.058c-0.019-0.231-0.074-0.461-0.145-0.687
	c0.302,0.096,0.609,0.16,0.919,0.16c0.704,0,1.349-0.258,1.818-0.727c0.706-0.706,0.877-1.76,0.564-2.748
	c0.309,0.098,0.621,0.162,0.93,0.162c0.68,0,1.331-0.238,1.816-0.725c0.195-0.194,0.195-0.512,0-0.707
	c-0.195-0.194-0.512-0.194-0.707,0c-0.676,0.674-1.903,0.551-2.735-0.28c-0.455-0.456-0.716-1.049-0.715-1.627
	c0-0.44,0.149-0.825,0.435-1.106c0.195-0.195,0.196-0.513,0.002-0.707c-0.195-0.197-0.512-0.197-0.708-0.002
	c-0.469,0.467-0.728,1.111-0.729,1.814c0,0.322,0.069,0.643,0.171,0.955c-0.994-0.305-2.073-0.143-2.753,0.539
	c-0.705,0.703-0.878,1.755-0.568,2.74c-0.985-0.311-2.036-0.138-2.741,0.567c-0.195,0.195-0.195,0.513,0,0.707
	C18.731,26.452,19.049,26.452,19.245,26.257z M22.555,22.948c0.284-0.283,0.667-0.435,1.109-0.435c0.578,0,1.17,0.262,1.625,0.717
	c0.831,0.832,0.958,2.06,0.282,2.734c-0.655,0.654-1.932,0.521-2.735-0.281C22.003,24.852,21.877,23.624,22.555,22.948z
	 M23.409,23.633c-0.195-0.195-0.195-0.512,0-0.707c0.195-0.195,0.512-0.195,0.708,0l1.475,1.479c0.195,0.195,0.195,0.512,0,0.707
	c-0.097,0.098-0.225,0.146-0.354,0.146c-0.128,0-0.256-0.049-0.354-0.146L23.409,23.633z M24.01,25.986l-1.479-1.479
	c-0.195-0.195-0.195-0.512,0-0.707c0.195-0.195,0.512-0.195,0.707,0l1.479,1.479c0.195,0.195,0.195,0.513,0,0.707
	c-0.098,0.099-0.226,0.146-0.354,0.146C24.235,26.133,24.107,26.085,24.01,25.986z M22.18,28.525
	c-0.098,0.098-0.226,0.146-0.354,0.146c-0.128,0-0.256-0.049-0.354-0.146l-1.478-1.479c-0.195-0.194-0.195-0.512,0-0.707
	c0.195-0.194,0.512-0.194,0.707,0l1.478,1.479C22.375,28.014,22.375,28.33,22.18,28.525z M25.944,20.389
	c0.195-0.195,0.513-0.195,0.707,0l1.479,1.479c0.195,0.194,0.195,0.512,0,0.707c-0.098,0.098-0.227,0.146-0.354,0.146
	s-0.256-0.049-0.354-0.146l-1.479-1.479C25.75,20.9,25.75,20.584,25.944,20.389z M36.15,14.337H18.392c-0.276,0-0.5,0.224-0.5,0.5
	v2.503H13.85c-0.276,0-0.5,0.225-0.5,0.5v12.749c0,0.276,0.224,0.5,0.5,0.5h4.215v4.074c0,0.188,0.107,0.362,0.276,0.446
	c0.071,0.035,0.147,0.054,0.224,0.054c0.106,0,0.212-0.034,0.3-0.101l5.963-4.475h8.7c0.276,0,0.5-0.225,0.5-0.5v-4.21h2.123
	c0.275,0,0.5-0.224,0.5-0.5V14.836C36.65,14.561,36.428,14.337,36.15,14.337z M33.027,30.089h-8.366c-0.108,0-0.213,0.035-0.3,0.101
	l-5.296,3.975V30.59c0-0.275-0.224-0.5-0.5-0.5h-4.215V18.34h18.678L33.027,30.089L33.027,30.089z M35.65,25.379h-1.623V17.84
	c0-0.275-0.224-0.5-0.5-0.5H18.892v-2.003H35.65V25.379z"/>
</svg>
