<?xml version="1.0" encoding="utf-8"?>
<!-- Generator: Adobe Illustrator 16.0.0, SVG Export Plug-In . SVG Version: 6.00 Build 0)  -->
<!DOCTYPE svg PUBLIC "-//W3C//DTD SVG 1.1//EN" "http://www.w3.org/Graphics/SVG/1.1/DTD/svg11.dtd">
<svg version="1.1" id="Layer_1" xmlns="http://www.w3.org/2000/svg" xmlns:xlink="http://www.w3.org/1999/xlink" x="0px" y="0px"
	 width="96px" height="96px" viewBox="0 0 96 96" enable-background="new 0 0 96 96" xml:space="preserve">
<path d="M94.429,64.704c-1.064-3.072-3.361-6.046-6.47-8.374c-3.263-2.443-7.083-3.845-10.48-3.845
	c-2.307,0-4.302,0.629-5.806,1.824C61.268,47.625,52.382,43.742,46.66,41.638c-0.694-1.634-1.085-2.601-1.104-2.649
	c-0.036-0.089-0.076-0.176-0.12-0.263c-0.184-0.359-4.563-8.906-10.142-17.71C24.567,4.093,19.113,1.47,15.945,0.969
	c-2.189-0.345-4.229,0.313-5.784,1.868c-1.273,1.273-1.273,3.346,0,4.62c1.233,1.235,3.386,1.235,4.62,0l0.144-0.036
	c0.745,0.118,4.958,1.493,14.831,17.062c3.173,5.004,5.985,10,7.784,13.307c-3.286-1.843-8.248-4.724-13.215-7.97
	C8.938,19.764,7.59,15.488,7.476,14.734c-0.016-0.108-0.011-0.144,0.044-0.193c1.273-1.273,1.273-3.346,0-4.62
	c-1.235-1.234-3.387-1.234-4.62,0c-1.569,1.569-2.221,3.571-1.885,5.79c0.482,3.186,3.055,8.683,19.766,19.597
	c8.787,5.74,17.149,10.153,17.5,10.337c0.134,0.071,0.272,0.13,0.411,0.181c0.263,0.155,0.546,0.272,0.841,0.348
	c0.035,0.01,0.839,0.223,2.264,0.693c2.369,5.427,7.002,15.613,12.324,25.033c-2.885,3.861-2.017,10.546,2.153,16.114
	c3.285,4.386,7.87,7.109,11.966,7.109c1.772,0,3.404-0.521,4.72-1.506c0.277-0.208,0.542-0.438,0.787-0.683
	c3.647-3.646,3.014-10.914-1.472-16.905c-1.71-2.284-3.747-4.116-5.946-5.361l0.474-0.194l-0.009-0.42
	c-0.027-1.194-0.55-3.216-2.344-3.216c-0.445,0-0.935,0.137-1.456,0.406c-0.592,0.305-2.279,0.597-3.511,0.811l-0.027,0.005
	c-3.556-6.353-6.747-12.955-8.985-17.812c5.765,2.548,11.542,5.657,17.199,9.257c-0.151,0.838-0.394,2.08-0.644,2.564
	c-0.493,0.956-0.539,1.783-0.137,2.459c0.747,1.255,2.725,1.286,2.947,1.291l0.456-0.027c1.236,2.406,3.213,4.69,5.681,6.539
	c3.263,2.444,7.084,3.846,10.483,3.846c0,0,0.001,0,0.001,0c2.646,0,4.867-0.821,6.421-2.375c0.244-0.244,0.474-0.509,0.682-0.787
	C95.213,70.811,95.521,67.859,94.429,64.704z M43.69,46.053l-1.793-3.775l2.102-0.9l1.792,3.775L43.69,46.053z M58.797,75.101
	c0.056-0.056,0.117-0.108,0.179-0.155c0.334-0.25,0.806-0.382,1.366-0.382c1.882,0,4.904,1.5,7.414,4.85
	c2.909,3.883,3.388,8.137,2.001,9.524c-0.057,0.057-0.115,0.108-0.182,0.157c-1.456,1.088-5.523-0.121-8.779-4.468
	C57.888,80.744,57.409,76.491,58.797,75.101z M89.041,69.631c-0.048,0.064-0.099,0.122-0.154,0.178
	c-0.476,0.475-1.336,0.737-2.423,0.737c-2.16,0-4.816-1.023-7.104-2.736c-4.383-3.284-5.557-7.326-4.468-8.779
	c0.046-0.063,0.098-0.123,0.155-0.179c0.476-0.476,1.336-0.738,2.422-0.738c2.161,0,4.816,1.023,7.104,2.737
	C88.957,64.134,90.13,68.176,89.041,69.631z"/>
</svg>
