<?xml version="1.0" encoding="utf-8"?>
<!-- Generator: Adobe Illustrator 16.0.4, SVG Export Plug-In . SVG Version: 6.00 Build 0)  -->
<!DOCTYPE svg PUBLIC "-//W3C//DTD SVG 1.1//EN" "http://www.w3.org/Graphics/SVG/1.1/DTD/svg11.dtd">
<svg version="1.1" id="Layer_1" xmlns="http://www.w3.org/2000/svg" xmlns:xlink="http://www.w3.org/1999/xlink" x="0px" y="0px"
	 width="50px" height="50px" viewBox="0 0 50 50" enable-background="new 0 0 50 50" xml:space="preserve">
<path d="M31.229,34.294h-2.484c2.815-1.197,4.796-3.991,4.796-7.239c0-4.055-3.086-7.401-7.033-7.817l1.264-1.936
	c0.151-0.229,0.086-0.54-0.144-0.691l-2.771-1.823c-0.112-0.073-0.245-0.098-0.377-0.072c-0.13,0.027-0.244,0.104-0.316,0.216
	l-3.123,4.782c-0.151,0.23-0.086,0.54,0.144,0.691l0.276,0.182l-0.75,1.147c-0.151,0.23-0.086,0.539,0.144,0.69l1.386,0.913
	c0.082,0.054,0.178,0.082,0.275,0.082c0.034,0,0.068-0.003,0.102-0.01c0.13-0.027,0.244-0.105,0.316-0.217l0.748-1.146l0.274,0.181
	c0.082,0.054,0.178,0.082,0.275,0.082c0.034,0,0.068-0.003,0.102-0.01c0.13-0.027,0.244-0.104,0.317-0.217l1.229-1.881
	c3.69,0.105,6.664,3.135,6.664,6.852c0,3.784-3.078,6.862-6.861,6.862c-3.499,0-6.389-2.634-6.805-6.021l0.905,0.598
	c0.084,0.056,0.18,0.082,0.274,0.082c0.163,0,0.322-0.079,0.418-0.226c0.152-0.229,0.088-0.541-0.143-0.691l-3.096-2.039
	c-0.23-0.151-0.541-0.088-0.692,0.143c-0.151,0.231-0.088,0.54,0.143,0.692l1.141,0.751c0.06,3.184,2.016,5.912,4.789,7.09h-2.56
	c-0.276,0-0.5,0.224-0.5,0.5s0.224,0.5,0.5,0.5h11.174c0.276,0,0.5-0.224,0.5-0.5S31.506,34.294,31.229,34.294z M22.371,22.227
	l-0.551-0.362l0.476-0.728l0.55,0.361L22.371,22.227z M24.085,21.117l-1.936-1.273l2.577-3.945l1.936,1.274L24.085,21.117z"/>
</svg>
