<?xml version="1.0" encoding="utf-8"?>
<!-- Generator: Adobe Illustrator 16.0.4, SVG Export Plug-In . SVG Version: 6.00 Build 0)  -->
<!DOCTYPE svg PUBLIC "-//W3C//DTD SVG 1.1//EN" "http://www.w3.org/Graphics/SVG/1.1/DTD/svg11.dtd">
<svg version="1.1" id="Layer_1" xmlns="http://www.w3.org/2000/svg" xmlns:xlink="http://www.w3.org/1999/xlink" x="0px" y="0px"
	 width="50px" height="50px" viewBox="0 0 50 50" enable-background="new 0 0 50 50" xml:space="preserve">
<path d="M31.775,18.815h-3.252c-0.286-1.692-1.751-2.988-3.524-2.988c-1.772,0-3.237,1.296-3.523,2.988h-3.253
	c-1.164,0-2.11,0.947-2.11,2.11v11.137c0,1.164,0.947,2.109,2.11,2.109h13.553c1.164,0,2.11-0.945,2.11-2.109V20.925
	C33.887,19.762,32.939,18.815,31.775,18.815z M25,16.828c1.424,0,2.584,1.159,2.584,2.583c0,1.424-1.16,2.583-2.584,2.583
	c-1.424,0-2.583-1.159-2.583-2.583C22.417,17.986,23.576,16.828,25,16.828z M32.887,32.063c0,0.612-0.498,1.11-1.11,1.11H18.224
	c-0.612,0-1.11-0.498-1.11-1.11V20.926c0-0.612,0.498-1.11,1.11-1.11h3.234c0.204,1.784,1.705,3.179,3.542,3.179
	c1.836,0,3.338-1.395,3.543-3.179h3.232c0.612,0,1.11,0.498,1.11,1.11L32.887,32.063L32.887,32.063z M24.679,19.794
	c-0.211-0.178-0.239-0.493-0.062-0.705l1.083-1.292c0.18-0.21,0.493-0.24,0.705-0.062c0.213,0.178,0.239,0.493,0.062,0.705
	l-1.083,1.292c-0.099,0.118-0.241,0.179-0.384,0.179C24.886,19.912,24.771,19.874,24.679,19.794z M31.041,25.245
	c0,0.276-0.224,0.5-0.5,0.5H19.708c-0.276,0-0.5-0.224-0.5-0.5c0-0.276,0.224-0.5,0.5-0.5h10.833
	C30.817,24.745,31.041,24.968,31.041,25.245z M31.041,27.328c0,0.276-0.224,0.5-0.5,0.5H19.708c-0.276,0-0.5-0.224-0.5-0.5
	c0-0.275,0.224-0.5,0.5-0.5h10.833C30.817,26.828,31.041,27.051,31.041,27.328z M31.041,29.412c0,0.275-0.224,0.5-0.5,0.5H19.708
	c-0.276,0-0.5-0.225-0.5-0.5c0-0.277,0.224-0.5,0.5-0.5h10.833C30.817,28.912,31.041,29.135,31.041,29.412z"/>
</svg>
