<?xml version="1.0" encoding="utf-8"?>
<!-- Generator: Adobe Illustrator 16.0.0, SVG Export Plug-In . SVG Version: 6.00 Build 0)  -->
<!DOCTYPE svg PUBLIC "-//W3C//DTD SVG 1.1//EN" "http://www.w3.org/Graphics/SVG/1.1/DTD/svg11.dtd">
<svg version="1.1" id="Layer_1" xmlns="http://www.w3.org/2000/svg" xmlns:xlink="http://www.w3.org/1999/xlink" x="0px" y="0px"
	 width="96px" height="96px" viewBox="0 0 96 96" enable-background="new 0 0 96 96" xml:space="preserve">
<g>
	<path d="M48.083,1.215V1.21c-0.02,0-0.035,0.001-0.056,0.001V1.21c-0.01,0-0.019,0-0.027,0.001
		C47.991,1.21,47.981,1.21,47.973,1.21v0.001c-0.021,0-0.036-0.001-0.054-0.001v0.005C34.878,1.563,26.871,8.943,27.001,21.855
		c0.203,18.609,8.041,29.897,20.938,29.702v0.003c0.011,0,0.022-0.001,0.033-0.001c0.003,0,0.013,0.001,0.02,0.001
		c0.001,0,0.005,0,0.008,0s0.007,0,0.008,0c0.007,0,0.017-0.001,0.02-0.001c0.011,0,0.022,0.001,0.033,0.001v-0.003
		c12.897,0.195,20.735-11.093,20.938-29.702C69.13,8.943,61.123,1.563,48.083,1.215z"/>
	<path d="M93.731,90.491L77.588,63.504c-0.975-1.633-2.427-2.794-4.063-3.467L71.75,59.22v20.872V94.79h23.177
		C94.917,93.301,94.521,91.816,93.731,90.491z"/>
	<polygon points="50.347,82.083 45.652,82.083 45.652,86.089 41.646,86.089 41.646,90.782 45.652,90.782 45.652,94.79 50.347,94.79 
		50.347,90.782 54.354,90.782 54.354,86.089 50.347,86.089 	"/>
	<path d="M18.412,63.504L2.269,90.491c-0.79,1.325-1.186,2.81-1.195,4.299H24.25V80.092V59.22l-1.774,0.817
		C20.839,60.71,19.387,61.871,18.412,63.504z"/>
	<polygon points="57.146,50.461 48.011,59.546 38.854,50.461 33.539,54.943 30.916,56.151 30.916,75.592 44.631,75.592 
		42.146,63.85 48,70.273 53.854,63.85 51.369,75.592 65.084,75.592 65.084,56.151 62.461,54.943 	"/>
</g>
</svg>
