<?xml version="1.0" encoding="utf-8"?>
<!-- Generator: Adobe Illustrator 16.0.0, SVG Export Plug-In . SVG Version: 6.00 Build 0)  -->
<!DOCTYPE svg PUBLIC "-//W3C//DTD SVG 1.1//EN" "http://www.w3.org/Graphics/SVG/1.1/DTD/svg11.dtd">
<svg version="1.1" id="Layer_1" xmlns="http://www.w3.org/2000/svg" xmlns:xlink="http://www.w3.org/1999/xlink" x="0px" y="0px"
	 width="96px" height="96px" viewBox="0 0 96 96" enable-background="new 0 0 96 96" xml:space="preserve">
<g>
	<path d="M47.939,51.558v0.003c0.011,0,0.022-0.001,0.033-0.001c0.003,0,0.013,0.001,0.02,0.001c0.001,0,0.005,0,0.008,0
		s0.007,0,0.008,0c0.007,0,0.017-0.001,0.02-0.001c0.011,0,0.022,0.001,0.033,0.001v-0.003
		c12.897,0.195,20.735-11.092,20.938-29.702C69.13,8.943,61.123,1.563,48.083,1.215V1.21c-0.02,0-0.035,0.001-0.056,0.001V1.21
		c-0.01,0-0.019,0-0.027,0.001C47.991,1.21,47.981,1.21,47.973,1.21v0.001c-0.021,0-0.036-0.001-0.054-0.001v0.005
		C34.878,1.563,26.871,8.943,27.001,21.855C27.204,40.465,35.042,51.753,47.939,51.558z"/>
	<path d="M48,74.774l5.854-6.424l-5.595,26.44h46.667c-0.01-1.49-0.405-2.974-1.195-4.299L77.588,63.504
		c-0.975-1.633-2.427-2.794-4.063-3.467l-11.063-5.094l-5.315-4.482l-9.135,9.084l-9.156-9.084l-5.315,4.482l-11.063,5.094
		c-1.637,0.673-3.089,1.834-4.063,3.467L2.269,90.491c-0.79,1.325-1.186,2.809-1.195,4.299h46.667l-5.595-26.44L48,74.774z
		 M62.083,78.366h4.361v-4.361h5.11v4.361h4.362v5.109h-4.362v4.361h-5.11v-4.361h-4.361V78.366z"/>
</g>
</svg>
