<?xml version="1.0" encoding="utf-8"?>
<!-- Generator: Adobe Illustrator 16.0.4, SVG Export Plug-In . SVG Version: 6.00 Build 0)  -->
<!DOCTYPE svg PUBLIC "-//W3C//DTD SVG 1.1//EN" "http://www.w3.org/Graphics/SVG/1.1/DTD/svg11.dtd">
<svg version="1.1" id="Layer_1" xmlns="http://www.w3.org/2000/svg" xmlns:xlink="http://www.w3.org/1999/xlink" x="0px" y="0px"
	 width="50px" height="50px" viewBox="0 0 50 50" enable-background="new 0 0 50 50" xml:space="preserve">
<path d="M29.791,24.767h-4.029v-4.031c0-0.276-0.225-0.5-0.5-0.5h-5.668c-0.276,0-0.5,0.224-0.5,0.5v4.031h-4.029
	c-0.276,0-0.5,0.224-0.5,0.5v5.664c0,0.275,0.224,0.5,0.5,0.5h4.029v4.026c0,0.276,0.224,0.5,0.5,0.5h5.668
	c0.275,0,0.5-0.224,0.5-0.5v-4.026h4.029c0.275,0,0.5-0.225,0.5-0.5v-5.664C30.291,24.989,30.066,24.767,29.791,24.767z
	 M29.291,30.431h-4.029c-0.276,0-0.5,0.223-0.5,0.5v4.026h-4.668v-4.026c0-0.277-0.224-0.5-0.5-0.5h-4.029v-4.664h4.029
	c0.276,0,0.5-0.225,0.5-0.5v-4.031h4.668v4.031c0,0.275,0.224,0.5,0.5,0.5h4.029V30.431z M30.983,19.481h-3.707l0,0
	c0-0.498,0.126-0.924,0.377-1.278s0.724-0.776,1.417-1.265c0.311-0.217,0.529-0.414,0.656-0.596c0.127-0.18,0.189-0.381,0.189-0.602
	c0-0.241-0.068-0.437-0.209-0.582c-0.139-0.146-0.322-0.221-0.551-0.221c-0.244,0-0.435,0.092-0.57,0.275
	c-0.139,0.186-0.201,0.436-0.19,0.75h-1.048c-0.018-0.589,0.137-1.057,0.464-1.402c0.327-0.345,0.776-0.519,1.353-0.519
	c0.535,0,0.973,0.159,1.312,0.478c0.338,0.318,0.507,0.729,0.507,1.23c0,0.413-0.096,0.755-0.289,1.025
	c-0.192,0.271-0.554,0.576-1.083,0.914c-0.49,0.312-0.824,0.592-1.003,0.842l-0.004,0.009h2.379V19.481L30.983,19.481z
	 M33.685,19.481h1.051v-1.196h0.612v-0.851h-0.612v-3.391h-0.597h-0.598l-2.01,3.316v0.461v0.463h2.152L33.685,19.481L33.685,19.481
	z M32.319,17.437l0.046-0.074l1.319-2.19v2.265H32.319L32.319,17.437z M29.301,23.163v-1.27h-1.098v1.27h-0.291h-0.293V20.36h0.291
	h0.293v1.052h1.098V20.36h0.291h0.293v2.803h-0.291H29.301z M32.682,22.801l-0.014-0.459c-0.006-0.226-0.09-0.385-0.25-0.479
	c-0.026-0.018-0.06-0.031-0.094-0.047c0.062-0.021,0.115-0.051,0.164-0.084c0.182-0.123,0.272-0.32,0.272-0.59
	c0-0.234-0.081-0.423-0.245-0.564c-0.163-0.143-0.378-0.215-0.646-0.215H30.75h-0.293v2.802h0.295h0.291v-1.106h0.584
	c0.166,0,0.285,0.025,0.355,0.079c0.072,0.054,0.109,0.144,0.112,0.269l0.004,0.261c0.001,0.11,0.007,0.214,0.019,0.31
	s0.024,0.159,0.041,0.188h0.646V23.09c-0.048-0.022-0.079-0.054-0.095-0.092C32.694,22.958,32.685,22.894,32.682,22.801z
	 M32.062,21.492c-0.075,0.062-0.188,0.093-0.34,0.093h-0.678v-0.741h0.701c0.144,0,0.25,0.031,0.322,0.093
	c0.071,0.062,0.107,0.153,0.107,0.277S32.139,21.431,32.062,21.492z M35.436,22.382c0,0.264-0.104,0.473-0.311,0.626
	c-0.207,0.154-0.487,0.231-0.84,0.231c-0.354,0-0.633-0.081-0.832-0.245s-0.306-0.397-0.32-0.7h0.564
	c0.006,0.148,0.061,0.264,0.162,0.344c0.102,0.079,0.242,0.12,0.426,0.12c0.187,0,0.332-0.03,0.437-0.091s0.157-0.145,0.157-0.251
	c0-0.104-0.037-0.183-0.112-0.231c-0.074-0.051-0.231-0.103-0.474-0.154c-0.443-0.1-0.742-0.207-0.893-0.322
	c-0.148-0.114-0.222-0.293-0.222-0.535c0-0.271,0.098-0.488,0.295-0.646c0.196-0.159,0.463-0.239,0.798-0.239
	c0.314,0,0.568,0.083,0.766,0.248s0.308,0.388,0.33,0.669h-0.57c-0.01-0.135-0.068-0.239-0.176-0.317
	c-0.106-0.077-0.246-0.116-0.418-0.116c-0.147,0-0.265,0.031-0.349,0.099c-0.084,0.065-0.125,0.155-0.125,0.272
	c0,0.084,0.043,0.148,0.132,0.193c0.085,0.046,0.27,0.102,0.551,0.163c0.406,0.091,0.68,0.196,0.816,0.315
	C35.367,21.931,35.436,22.12,35.436,22.382z"/>
</svg>
