<?xml version="1.0" encoding="utf-8"?>
<!-- Generator: Adobe Illustrator 16.0.0, SVG Export Plug-In . SVG Version: 6.00 Build 0)  -->
<!DOCTYPE svg PUBLIC "-//W3C//DTD SVG 1.1//EN" "http://www.w3.org/Graphics/SVG/1.1/DTD/svg11.dtd">
<svg version="1.1" id="Layer_1" xmlns="http://www.w3.org/2000/svg" xmlns:xlink="http://www.w3.org/1999/xlink" x="0px" y="0px"
	 width="96px" height="96px" viewBox="0 0 96 96" enable-background="new 0 0 96 96" xml:space="preserve">
<g>
	<path d="M92.118,72.734L71.145,55.282c-0.72-0.601-1.662-0.852-2.587-0.69c-3.274,0.578-6.27,2.111-8.666,4.44l-1.166,1.138
		c-1.139,1.105-2.113,2.354-2.896,3.713l-0.75,1.302l-1.224-0.874c-8.492-6.063-16.104-13.675-22.167-22.167l-0.874-1.224
		l1.302-0.752c1.357-0.781,2.604-1.754,3.709-2.894l1.146-1.173c2.325-2.395,3.86-5.389,4.436-8.662
		c0.162-0.924-0.089-1.867-0.689-2.587L23.265,3.884c-0.063-0.078-0.131-0.151-0.199-0.221c-0.566-0.565-1.322-0.895-2.128-0.924
		c-3.63-0.135-11.124,2.92-15.181,8.795c-2.535,3.672-4.775,9.9-1.051,18.726l0.051,0.11c6.369,13.621,14.505,25.398,24.868,36.004
		l0.039,0.039c10.58,10.341,22.34,18.459,35.966,24.83l0.107,0.048c8.825,3.727,15.056,1.485,18.729-1.049
		c5.875-4.058,8.931-11.551,8.796-15.182C93.229,74.159,92.82,73.312,92.118,72.734z"/>
	<polygon points="59.973,44.19 69.387,44.19 69.387,35.077 78.504,35.077 78.504,25.661 69.387,25.661 69.387,16.546 59.973,16.546 
		59.973,25.661 50.855,25.661 50.855,35.077 59.973,35.077 	"/>
</g>
</svg>
