<?xml version="1.0" encoding="utf-8"?>
<!-- Generator: Adobe Illustrator 16.0.0, SVG Export Plug-In . SVG Version: 6.00 Build 0)  -->
<!DOCTYPE svg PUBLIC "-//W3C//DTD SVG 1.1//EN" "http://www.w3.org/Graphics/SVG/1.1/DTD/svg11.dtd">
<svg version="1.1" id="Layer_1" xmlns="http://www.w3.org/2000/svg" xmlns:xlink="http://www.w3.org/1999/xlink" x="0px" y="0px"
	 width="96px" height="96px" viewBox="0 0 96 96" enable-background="new 0 0 96 96" xml:space="preserve">
<g>
	<path d="M35.825,56.125H17.104c-5.737,0-10.385,4.65-10.385,10.385v15.232c0,5.736,4.647,10.386,10.385,10.386h18.304l0.001,2.417
		h21.657L85.24,34.284c-12.428-0.847-31.803-13.409-34.29-15.898L35.825,56.125z"/>
	<path d="M83.498,7.332l-11.699-5.08c-4.864-2.112-10.522,0.12-12.635,4.985l-4.333,9.866c0.617,0.372,15.295,11.772,29.03,13.697
		l4.624-10.834C90.598,15.101,88.365,9.444,83.498,7.332z"/>
</g>
</svg>
