<?xml version="1.0" encoding="utf-8"?>
<!-- Generator: Adobe Illustrator 16.0.4, SVG Export Plug-In . SVG Version: 6.00 Build 0)  -->
<!DOCTYPE svg PUBLIC "-//W3C//DTD SVG 1.1//EN" "http://www.w3.org/Graphics/SVG/1.1/DTD/svg11.dtd">
<svg version="1.1" id="Layer_1" xmlns="http://www.w3.org/2000/svg" xmlns:xlink="http://www.w3.org/1999/xlink" x="0px" y="0px"
	 width="50px" height="50px" viewBox="0 0 50 50" enable-background="new 0 0 50 50" xml:space="preserve">
<path d="M27.466,23.939h-2.73V21.21c0-0.276-0.224-0.5-0.5-0.5h-4.039c-0.276,0-0.5,0.224-0.5,0.5v2.729h-2.73
	c-0.276,0-0.5,0.225-0.5,0.5v4.039c0,0.276,0.224,0.5,0.5,0.5h2.73v2.73c0,0.275,0.224,0.5,0.5,0.5h4.039c0.276,0,0.5-0.225,0.5-0.5
	v-2.73h2.73c0.276,0,0.5-0.224,0.5-0.5v-4.039C27.966,24.164,27.742,23.939,27.466,23.939z M26.966,27.979h-2.73
	c-0.276,0-0.5,0.225-0.5,0.5v2.73h-3.039v-2.73c0-0.275-0.224-0.5-0.5-0.5h-2.73v-3.039h2.73c0.276,0,0.5-0.224,0.5-0.5V21.71h3.039
	v2.729c0,0.276,0.224,0.5,0.5,0.5h2.73V27.979z M31.577,19.289h-2.901v-0.002c0-0.389,0.1-0.723,0.296-0.999
	c0.196-0.28,0.565-0.608,1.108-0.991c0.243-0.168,0.414-0.324,0.514-0.465c0.101-0.141,0.148-0.298,0.148-0.471
	c0-0.188-0.054-0.342-0.163-0.455c-0.107-0.116-0.253-0.174-0.432-0.174c-0.191,0-0.34,0.072-0.446,0.217
	c-0.107,0.144-0.157,0.34-0.149,0.587h-0.818c-0.016-0.461,0.105-0.826,0.361-1.099c0.257-0.27,0.608-0.404,1.06-0.404
	c0.418,0,0.761,0.124,1.027,0.374c0.265,0.247,0.396,0.569,0.396,0.963c0,0.323-0.075,0.591-0.227,0.802
	c-0.15,0.213-0.434,0.451-0.848,0.715c-0.384,0.243-0.646,0.465-0.785,0.661l-0.003,0.007h1.861L31.577,19.289L31.577,19.289z
	 M33.691,19.289h0.822v-0.938h0.479v-0.666h-0.479v-2.652h-0.468h-0.468l-1.572,2.594v0.362v0.362h1.686V19.289z M32.623,17.686
	l0.035-0.059l1.033-1.713v1.771H32.623L32.623,17.686z M30.488,19.977h0.229v2.191h-0.229h-0.229v-0.992h-0.857v0.992h-0.229h-0.229
	v-2.191h0.229h0.229v0.822h0.857v-0.822H30.488z M32.906,21.885l-0.011-0.359c-0.005-0.176-0.069-0.301-0.195-0.375
	c-0.021-0.015-0.046-0.024-0.073-0.037c0.048-0.018,0.091-0.039,0.129-0.065c0.143-0.096,0.213-0.25,0.213-0.461
	c0-0.183-0.062-0.33-0.19-0.44c-0.128-0.111-0.296-0.168-0.506-0.168h-0.876h-0.229v2.19h0.229h0.229v-0.867h0.457
	c0.13,0,0.224,0.021,0.278,0.062c0.057,0.044,0.086,0.113,0.088,0.212l0.003,0.204c0.001,0.084,0.006,0.166,0.015,0.24
	c0.01,0.076,0.021,0.125,0.031,0.146h0.506v-0.059c-0.036-0.018-0.062-0.041-0.073-0.071C32.916,22.007,32.908,21.957,32.906,21.885
	z M32.422,20.861c-0.059,0.049-0.146,0.072-0.266,0.072h-0.531v-0.58h0.549c0.112,0,0.196,0.024,0.253,0.071
	c0.057,0.05,0.084,0.121,0.084,0.218C32.511,20.741,32.481,20.812,32.422,20.861z M34.9,21.111c0.106,0.092,0.161,0.24,0.161,0.445
	s-0.08,0.368-0.243,0.489c-0.162,0.121-0.382,0.181-0.657,0.181c-0.277,0-0.494-0.062-0.65-0.19
	c-0.155-0.128-0.238-0.312-0.251-0.55h0.442c0.004,0.119,0.047,0.207,0.126,0.271c0.079,0.062,0.19,0.095,0.333,0.095
	c0.146,0,0.261-0.023,0.342-0.072c0.081-0.047,0.124-0.11,0.124-0.194c0-0.083-0.029-0.144-0.089-0.183
	c-0.059-0.039-0.182-0.08-0.37-0.121c-0.348-0.077-0.581-0.161-0.698-0.252c-0.115-0.09-0.174-0.229-0.174-0.418
	c0-0.215,0.076-0.383,0.23-0.508c0.155-0.123,0.362-0.187,0.625-0.187c0.246,0,0.445,0.063,0.599,0.194
	c0.154,0.127,0.24,0.303,0.258,0.521h-0.445c-0.008-0.104-0.055-0.188-0.139-0.248c-0.083-0.061-0.191-0.091-0.325-0.091
	c-0.116,0-0.207,0.024-0.272,0.076c-0.066,0.052-0.099,0.122-0.099,0.214c0,0.064,0.033,0.115,0.104,0.15
	c0.066,0.037,0.21,0.08,0.431,0.129C34.579,20.936,34.793,21.018,34.9,21.111z M38.369,18.63c0-3.584-2.916-6.5-6.5-6.5
	c-3.11,0-5.714,2.197-6.349,5.12c-1.086-0.16-2.193-0.255-3.305-0.255c-3.697,0-7.268,0.894-10.327,2.581
	c-0.171,0.094-0.271,0.279-0.257,0.475c0.568,7.653,4.43,14.289,10.331,17.751c0.078,0.046,0.166,0.068,0.253,0.068
	c0.087,0,0.175-0.022,0.253-0.068c4.441-2.606,7.836-7.209,9.408-12.672C35.457,25.126,38.369,22.211,38.369,18.63z M22.216,36.787
	c-5.393-3.286-8.944-9.409-9.561-16.488c2.848-1.508,6.146-2.304,9.561-2.304c1.067,0,2.13,0.091,3.173,0.246
	c-0.007,0.129-0.02,0.258-0.02,0.389c0,3.239,2.384,5.925,5.488,6.413C29.363,30.074,26.264,34.316,22.216,36.787z M31.938,24.126
	c-0.064-0.074-0.144-0.136-0.245-0.162c-0.172-0.047-0.342,0.011-0.463,0.125c-2.731-0.317-4.859-2.644-4.859-5.459
	c0-3.032,2.467-5.5,5.5-5.5s5.5,2.468,5.5,5.5C37.369,21.641,34.938,24.09,31.938,24.126z"/>
</svg>
