<?xml version="1.0" encoding="utf-8"?>
<!-- Generator: Adobe Illustrator 16.0.4, SVG Export Plug-In . SVG Version: 6.00 Build 0)  -->
<!DOCTYPE svg PUBLIC "-//W3C//DTD SVG 1.1//EN" "http://www.w3.org/Graphics/SVG/1.1/DTD/svg11.dtd">
<svg version="1.1" id="Layer_1" xmlns="http://www.w3.org/2000/svg" xmlns:xlink="http://www.w3.org/1999/xlink" x="0px" y="0px"
	 width="50px" height="50px" viewBox="0 0 50 50" enable-background="new 0 0 50 50" xml:space="preserve">
<path d="M30.408,23.187h-0.041v-2.25c0-0.827-0.674-1.5-1.5-1.5H22.7c-0.827,0-1.5,0.673-1.5,1.5v2.212
	c-2.037-0.182-3.65-1.794-3.837-3.83c1.132-0.24,1.981-1.244,1.981-2.444c0-1.378-1.12-2.5-2.5-2.5c-1.379,0-2.5,1.122-2.5,2.5
	c0,1.214,0.87,2.227,2.021,2.451c0.193,2.584,2.248,4.636,4.835,4.823v2.289c0,0.826,0.673,1.5,1.5,1.5h6.167
	c0.826,0,1.5-0.674,1.5-1.5v-2.25h0.041c2.344,0,4.25,1.907,4.25,4.25c0,2.343-1.906,4.25-4.25,4.25h-4.213
	c-0.262-1.17-1.549-2.062-3.101-2.062c-1.551,0-2.838,0.893-3.101,2.062h-1.338c-0.275,0-0.5,0.224-0.5,0.5
	c0,0.275,0.225,0.5,0.5,0.5h1.369c0.324,1.106,1.574,1.938,3.068,1.938c1.495,0,2.745-0.83,3.069-1.938h4.244
	c2.895,0,5.25-2.355,5.25-5.25C35.656,25.542,33.303,23.187,30.408,23.187z M15.345,16.874c0-0.827,0.674-1.5,1.5-1.5
	c0.827,0,1.5,0.673,1.5,1.5s-0.673,1.5-1.5,1.5C16.019,18.374,15.345,17.701,15.345,16.874z M29.367,26.438
	c0,0.275-0.225,0.5-0.5,0.5H22.7c-0.275,0-0.5-0.225-0.5-0.5v-5.5c0-0.276,0.225-0.5,0.5-0.5h6.167c0.275,0,0.5,0.224,0.5,0.5
	V26.438z M23.095,34.624c-1.169,0-2.156-0.687-2.156-1.5s0.987-1.5,2.156-1.5c1.17,0,2.156,0.687,2.156,1.5
	S24.265,34.624,23.095,34.624z M28.467,23.144c0,0.166-0.025,0.326-0.076,0.476c-0.266,1.192-2.656,2.694-2.656,2.694
	s-2.393-1.502-2.657-2.694C23.027,23.47,23,23.31,23,23.143c0-0.582,0.321-1.089,0.8-1.353c0.221-0.122,0.477-0.192,0.744-0.192
	c0.479,0,0.906,0.218,1.19,0.559c0.283-0.341,0.711-0.559,1.189-0.559c0.27,0,0.523,0.07,0.744,0.192
	C28.145,22.054,28.467,22.561,28.467,23.144z"/>
</svg>
