<?xml version="1.0" encoding="utf-8"?>
<!-- Generator: Adobe Illustrator 16.0.0, SVG Export Plug-In . SVG Version: 6.00 Build 0)  -->
<!DOCTYPE svg PUBLIC "-//W3C//DTD SVG 1.1//EN" "http://www.w3.org/Graphics/SVG/1.1/DTD/svg11.dtd">
<svg version="1.1" id="Layer_1" xmlns="http://www.w3.org/2000/svg" xmlns:xlink="http://www.w3.org/1999/xlink" x="0px" y="0px"
	 width="96px" height="96px" viewBox="0 0 96 96" enable-background="new 0 0 96 96" xml:space="preserve">
<g>
	<path d="M44.672,2.463C34.295-0.974,23.057,4.673,19.62,15.049L2.45,66.889C-0.986,77.266,4.659,88.504,15.036,91.94
		s21.616-2.21,25.053-12.586l17.169-51.84C60.694,17.139,55.049,5.899,44.672,2.463z M34.406,77.474
		c-2.399,7.244-10.245,11.186-17.488,8.786C9.673,83.86,5.732,76.015,8.131,68.771l8.584-25.92l26.276,8.703L34.406,77.474z"/>
	<path d="M48.539,66.806h46.019c-2.029-10.865-11.556-19.091-23.01-19.091S50.568,55.94,48.539,66.806z"/>
	<path d="M71.547,94.544c11.454,0,20.98-8.226,23.01-19.091H48.539C50.568,86.318,60.094,94.544,71.547,94.544z"/>
</g>
</svg>
