<?xml version="1.0" encoding="utf-8"?>
<!-- Generator: Adobe Illustrator 16.0.4, SVG Export Plug-In . SVG Version: 6.00 Build 0)  -->
<!DOCTYPE svg PUBLIC "-//W3C//DTD SVG 1.1//EN" "http://www.w3.org/Graphics/SVG/1.1/DTD/svg11.dtd">
<svg version="1.1" id="Layer_1" xmlns="http://www.w3.org/2000/svg" xmlns:xlink="http://www.w3.org/1999/xlink" x="0px" y="0px"
	 width="50px" height="50px" viewBox="0 0 50 50" enable-background="new 0 0 50 50" xml:space="preserve">
<path d="M34.094,20.288H18.279v-1.145h4.862c0.276,0,0.5-0.224,0.5-0.5c0-0.275-0.224-0.5-0.5-0.5H12.573
	c-0.276,0-0.5,0.225-0.5,0.5c0,0.276,0.224,0.5,0.5,0.5h4.706v1.176c-2.792,0.289-4.977,2.656-4.977,5.523
	c0,1.947,1.008,3.66,2.527,4.652v1.59h-0.496c-0.276,0-0.5,0.223-0.5,0.5c0,0.273,0.224,0.5,0.5,0.5h7.047
	c0.276,0,0.5-0.227,0.5-0.5c0-0.277-0.224-0.5-0.5-0.5h-0.495v-1.59c1.411-0.924,2.375-2.469,2.506-4.242l9.044-1.911
	c0.14-0.028,0.26-0.116,0.33-0.239l1.762-3.064c0.09-0.154,0.089-0.346,0-0.5C34.438,20.383,34.273,20.288,34.094,20.288z
	 M17.356,21.338v3.469h-3.924C13.866,22.956,15.43,21.553,17.356,21.338z M19.885,32.084h-4.056V31.01
	c0.629,0.248,1.311,0.389,2.026,0.389c0.717,0,1.4-0.141,2.029-0.389L19.885,32.084L19.885,32.084z M17.856,30.398
	c-2.511,0-4.554-2.045-4.554-4.557c0-0.012,0.003-0.023,0.003-0.035h4.55c0.276,0,0.5-0.223,0.5-0.5v-3.97
	c2.274,0.254,4.056,2.164,4.056,4.504C22.412,28.354,20.368,30.398,17.856,30.398z M32.01,23.409l-8.634,1.824
	c-0.179-1.631-1.068-3.051-2.35-3.945h12.203L32.01,23.409z M37.927,19.524c0,0.276-0.224,0.5-0.5,0.5H35.82v1.606
	c0,0.275-0.223,0.5-0.5,0.5c-0.275,0-0.5-0.225-0.5-0.5v-1.606h-1.606c-0.276,0-0.5-0.224-0.5-0.5c0-0.275,0.224-0.5,0.5-0.5h1.606
	v-1.607c0-0.275,0.225-0.5,0.5-0.5c0.277,0,0.5,0.225,0.5,0.5v1.607h1.606C37.704,19.024,37.927,19.249,37.927,19.524z
	 M20.731,27.223c0,0.275-0.224,0.5-0.5,0.5h-0.572v0.572c0,0.275-0.224,0.5-0.5,0.5c-0.276,0-0.5-0.225-0.5-0.5v-0.572h-0.572
	c-0.276,0-0.5-0.225-0.5-0.5s0.224-0.5,0.5-0.5h0.572v-0.574c0-0.273,0.224-0.5,0.5-0.5c0.276,0,0.5,0.227,0.5,0.5v0.574h0.572
	C20.507,26.723,20.731,26.945,20.731,27.223z"/>
</svg>
