<?xml version="1.0" encoding="utf-8"?>
<!-- Generator: Adobe Illustrator 16.0.4, SVG Export Plug-In . SVG Version: 6.00 Build 0)  -->
<!DOCTYPE svg PUBLIC "-//W3C//DTD SVG 1.1//EN" "http://www.w3.org/Graphics/SVG/1.1/DTD/svg11.dtd">
<svg version="1.1" id="Layer_1" xmlns="http://www.w3.org/2000/svg" xmlns:xlink="http://www.w3.org/1999/xlink" x="0px" y="0px"
	 width="50px" height="50px" viewBox="0 0 50 50" enable-background="new 0 0 50 50" xml:space="preserve">
<path d="M34,20.656c0,0.726-0.588,1.312-1.312,1.312c-0.141,0-0.27-0.038-0.398-0.081l-2.869,2.869c0.041,0.129,0.08,0.26,0.08,0.4
	c0,0.726-0.588,1.312-1.312,1.312c-0.52,0-0.963-0.31-1.174-0.75h-3.9c-0.213,0.44-0.653,0.75-1.176,0.75
	c-0.086,0-0.162-0.032-0.246-0.05l-3.115,3.117c0.017,0.082,0.05,0.158,0.05,0.245c0,0.726-0.588,1.312-1.312,1.312
	c-0.725,0-1.314-0.585-1.314-1.311c0-0.725,0.588-1.312,1.312-1.312c0.26,0,0.486,0.096,0.69,0.225l2.847-2.846
	c-0.131-0.203-0.226-0.432-0.226-0.69c0-0.194,0.048-0.375,0.124-0.541l-3.145-3.144c-0.097,0.022-0.188,0.06-0.293,0.06
	c-0.725,0-1.312-0.587-1.312-1.312c0-0.725,0.588-1.312,1.312-1.312c0.725,0,1.312,0.588,1.312,1.312
	c0,0.245-0.085,0.462-0.202,0.657l3.062,3.061c0.143-0.055,0.293-0.093,0.453-0.093c0.569,0,1.043,0.368,1.226,0.875h3.801
	c0.182-0.507,0.654-0.875,1.225-0.875c0.211,0,0.402,0.062,0.58,0.15l2.758-2.759c-0.09-0.176-0.15-0.367-0.15-0.579
	c0-0.726,0.588-1.312,1.312-1.312S34,19.932,34,20.656z"/>
</svg>
