<?xml version="1.0" encoding="utf-8"?>
<!-- Generator: Adobe Illustrator 16.0.4, SVG Export Plug-In . SVG Version: 6.00 Build 0)  -->
<!DOCTYPE svg PUBLIC "-//W3C//DTD SVG 1.1//EN" "http://www.w3.org/Graphics/SVG/1.1/DTD/svg11.dtd">
<svg version="1.1" id="Layer_1" xmlns="http://www.w3.org/2000/svg" xmlns:xlink="http://www.w3.org/1999/xlink" x="0px" y="0px"
	 width="50px" height="50px" viewBox="0 0 50 50" enable-background="new 0 0 50 50" xml:space="preserve">
<path d="M29.312,26.861h-7.318v-5.282c0-0.276-0.224-0.5-0.5-0.5h-7.709c-0.276,0-0.5,0.224-0.5,0.5v13.723
	c0,0.276,0.224,0.5,0.5,0.5h7.709c0.021,0,0.034-0.009,0.054-0.011c0.02,0.002,0.034,0.011,0.055,0.011h7.711
	c0.275,0,0.5-0.224,0.5-0.5v-7.94C29.812,27.085,29.59,26.861,29.312,26.861z M20.995,34.802h-6.709V22.079h6.709V34.802z
	 M28.812,34.802h-6.818v-6.94h6.818V34.802z M17.2,25.516h-1.871v-1.871H17.2V25.516z M19.954,25.516h-1.873v-1.871h1.873V25.516z
	 M17.2,28.124h-1.871v-1.873H17.2V28.124z M19.954,28.124h-1.873v-1.873h1.873V28.124z M17.2,30.732h-1.871v-1.873H17.2V30.732z
	 M19.954,30.732h-1.873v-1.873h1.873V30.732z M17.2,33.341h-1.871v-1.87H17.2V33.341z M19.954,33.341h-1.873v-1.87h1.873V33.341z
	 M24.896,31.046h-1.91v-1.912h1.91V31.046z M27.706,31.046h-1.91v-1.912h1.91V31.046z M22.984,33.71v-1.912h1.91v1.912H22.984z
	 M27.706,33.71h-1.91v-1.912h1.91V33.71z M24.784,22.393v1.08h1.814v-1.08c0-0.276,0.225-0.5,0.5-0.5c0.276,0,0.5,0.224,0.5,0.5
	v3.159c0,0.276-0.224,0.5-0.5,0.5c-0.275,0-0.5-0.224-0.5-0.5v-1.079h-1.814v1.079c0,0.276-0.224,0.5-0.5,0.5s-0.5-0.224-0.5-0.5
	v-3.159c0-0.276,0.224-0.5,0.5-0.5S24.784,22.115,24.784,22.393z M36.68,24.323c-0.76-1.921-2.613-5.494-6.517-7.845
	c-2.509-1.515-5.284-2.28-8.291-2.28c-0.115,0-0.227,0.04-0.314,0.112c-1.25,1.021-2.326,2.273-3.111,3.623
	c-0.075,0.129-0.09,0.284-0.038,0.424c0.052,0.142,0.163,0.25,0.303,0.301c0.854,0.302,1.707,0.57,2.56,0.839
	c0.701,0.221,1.4,0.44,2.103,0.681c0.228,0.078,0.472-0.014,0.592-0.218c0.235-0.396,0.458-0.821,0.675-1.235
	c0.147-0.283,0.293-0.561,0.438-0.82c2.404,0.988,5.172,2.882,6.999,4.785c-0.502,0.58-1.005,1.168-1.507,1.768
	c-0.156,0.186-0.156,0.458,0,0.645c0.464,0.549,0.904,1.104,1.347,1.658c0.567,0.713,1.134,1.424,1.743,2.122
	c0.096,0.108,0.232,0.171,0.377,0.171c0.004,0,0.008,0,0.012,0c0.148-0.004,0.287-0.072,0.381-0.188
	c1.053-1.325,1.858-2.822,2.268-4.217C36.725,24.541,36.721,24.427,36.68,24.323z M34.011,27.756
	c-0.45-0.535-0.883-1.076-1.312-1.619c-0.361-0.453-0.724-0.908-1.095-1.357c0.508-0.602,1.014-1.19,1.521-1.772
	c0.166-0.19,0.164-0.477-0.006-0.664c-2.034-2.255-5.282-4.476-8.083-5.526c-0.226-0.086-0.479,0-0.603,0.207
	c-0.228,0.371-0.451,0.8-0.683,1.238c-0.146,0.279-0.294,0.563-0.446,0.84c-0.58-0.192-1.156-0.375-1.734-0.557
	c-0.646-0.204-1.291-0.406-1.938-0.626c0.656-1,1.483-1.93,2.423-2.719c2.727,0.022,5.28,0.741,7.594,2.136
	c3.543,2.135,5.287,5.357,6.037,7.193C35.35,25.59,34.766,26.713,34.011,27.756z"/>
</svg>
