<?xml version="1.0" encoding="utf-8"?>
<!-- Generator: Adobe Illustrator 16.0.4, SVG Export Plug-In . SVG Version: 6.00 Build 0)  -->
<!DOCTYPE svg PUBLIC "-//W3C//DTD SVG 1.1//EN" "http://www.w3.org/Graphics/SVG/1.1/DTD/svg11.dtd">
<svg version="1.1" id="Layer_1" xmlns="http://www.w3.org/2000/svg" xmlns:xlink="http://www.w3.org/1999/xlink" x="0px" y="0px"
	 width="50px" height="50px" viewBox="0 0 50 50" enable-background="new 0 0 50 50" xml:space="preserve">
<path d="M32.75,22.406c0,0.276-0.225,0.5-0.5,0.5h-14.5c-0.276,0-0.5-0.224-0.5-0.5c0-0.276,0.224-0.5,0.5-0.5h14.5
	C32.525,21.906,32.75,22.13,32.75,22.406z M27.175,21.281h4.351c0.276,0,0.5-0.224,0.5-0.5c0-0.276-0.224-0.5-0.5-0.5h-4.351
	c-0.276,0-0.5,0.224-0.5,0.5C26.675,21.057,26.898,21.281,27.175,21.281z M29.229,27.094c-0.098,0-0.184,0.035-0.274,0.057
	l-2.868-2.868h0.789c0.275,0,0.5-0.224,0.5-0.5c0-0.276-0.225-0.5-0.5-0.5h-3.75c-0.276,0-0.5,0.224-0.5,0.5
	c0,0.276,0.224,0.5,0.5,0.5h0.789l-2.896,2.896c-0.132-0.044-0.267-0.083-0.414-0.083c-0.725,0-1.312,0.587-1.312,1.312
	c0,0.725,0.588,1.312,1.312,1.312s1.312-0.587,1.312-1.312c0-0.207-0.058-0.396-0.144-0.57l3.227-3.227l3.127,3.126
	c-0.121,0.199-0.21,0.421-0.21,0.671c0,0.725,0.588,1.312,1.312,1.312c0.724,0,1.312-0.587,1.312-1.312
	C30.54,27.682,29.954,27.094,29.229,27.094z"/>
</svg>
