<?xml version="1.0" encoding="utf-8"?>
<!-- Generator: Adobe Illustrator 16.0.4, SVG Export Plug-In . SVG Version: 6.00 Build 0)  -->
<!DOCTYPE svg PUBLIC "-//W3C//DTD SVG 1.1//EN" "http://www.w3.org/Graphics/SVG/1.1/DTD/svg11.dtd">
<svg version="1.1" id="Layer_1" xmlns="http://www.w3.org/2000/svg" xmlns:xlink="http://www.w3.org/1999/xlink" x="0px" y="0px"
	 width="226.77px" height="155.91px" viewBox="0 0 226.77 155.91" enable-background="new 0 0 226.77 155.91" xml:space="preserve">
<g>
	<path d="M113.385,3.654c-40.968,0-74.301,33.333-74.301,74.301s33.333,74.301,74.301,74.301s74.301-33.333,74.301-74.301
		S154.353,3.654,113.385,3.654z M171.852,81.608h3.537c-1.898,32.559-28.978,58.467-62.004,58.467
		c-34.254,0-62.121-27.866-62.121-62.12s27.867-62.12,62.121-62.12c33.845,0,61.436,27.211,62.089,60.902h-3.622
		c-1.348,0-2.437,1.089-2.437,2.436C169.415,80.521,170.504,81.608,171.852,81.608z"/>
	<path d="M149.926,76.737h-7.308c-1.348,0-2.437,1.089-2.437,2.436c0,1.348,1.089,2.436,2.437,2.436h7.308
		c1.348,0,2.437-1.088,2.437-2.436C152.362,77.826,151.273,76.737,149.926,76.737z"/>
	<path d="M135.31,76.737h-7.308c-1.348,0-2.437,1.089-2.437,2.436c0,1.348,1.089,2.436,2.437,2.436h7.308
		c1.347,0,2.437-1.088,2.437-2.436C137.746,77.826,136.656,76.737,135.31,76.737z"/>
	<path d="M164.543,76.737h-7.309c-1.348,0-2.436,1.089-2.436,2.436c0,1.348,1.088,2.436,2.436,2.436h7.309
		c1.348,0,2.436-1.088,2.436-2.436C166.979,77.826,165.891,76.737,164.543,76.737z"/>
	<path d="M120.693,76.737h-7.309c-1.347,0-2.436,1.089-2.436,2.436c0,1.348,1.089,2.436,2.436,2.436h7.309
		c1.347,0,2.436-1.088,2.436-2.436C123.129,77.826,122.04,76.737,120.693,76.737z"/>
</g>
</svg>
