<?xml version="1.0" encoding="utf-8"?>
<!-- Generator: Adobe Illustrator 16.0.4, SVG Export Plug-In . SVG Version: 6.00 Build 0)  -->
<!DOCTYPE svg PUBLIC "-//W3C//DTD SVG 1.1//EN" "http://www.w3.org/Graphics/SVG/1.1/DTD/svg11.dtd">
<svg version="1.1" id="Layer_1" xmlns="http://www.w3.org/2000/svg" xmlns:xlink="http://www.w3.org/1999/xlink" x="0px" y="0px"
	 width="226.77px" height="155.91px" viewBox="0 0 226.77 155.91" enable-background="new 0 0 226.77 155.91" xml:space="preserve">
<g>
	<path d="M113.385,29.081c-38.344,0-69.429,31.221-69.429,69.732v23.144c0,2.692,2.18,4.872,4.872,4.872h9.744v-15.834
		c0-1.346,1.092-2.437,2.437-2.437s2.436,1.091,2.436,2.437v15.834h9.744v-10.963c0-1.344,1.091-2.436,2.436-2.436
		s2.436,1.092,2.436,2.436v10.963h9.745v-15.834c0-1.346,1.091-2.437,2.436-2.437s2.436,1.091,2.436,2.437v15.834h9.745v-10.963
		c0-1.344,1.091-2.436,2.436-2.436s2.436,1.092,2.436,2.436v10.963h9.745v-15.834c0-1.346,1.091-2.437,2.436-2.437
		s2.437,1.091,2.437,2.437v15.834h9.744v-10.963c0-1.344,1.091-2.436,2.437-2.436c1.344,0,2.436,1.092,2.436,2.436v10.963h9.744
		v-15.834c0-1.346,1.092-2.437,2.437-2.437s2.437,1.091,2.437,2.437v15.834h9.744v-10.963c0-1.344,1.092-2.436,2.436-2.436
		c1.346,0,2.437,1.092,2.437,2.436v10.963h12.181c2.691,0,4.872-2.18,4.872-4.872V98.813
		C182.813,60.302,151.729,29.081,113.385,29.081z M68.322,100.032c0.109-26.797,20.149-44.661,44.861-44.661
		c24.709,0,47.18,17.864,47.289,44.661H68.322z"/>
</g>
</svg>
