<?xml version="1.0" encoding="utf-8"?>
<!-- Generator: Adobe Illustrator 16.0.0, SVG Export Plug-In . SVG Version: 6.00 Build 0)  -->
<!DOCTYPE svg PUBLIC "-//W3C//DTD SVG 1.1//EN" "http://www.w3.org/Graphics/SVG/1.1/DTD/svg11.dtd">
<svg version="1.1" id="Layer_2" xmlns="http://www.w3.org/2000/svg" xmlns:xlink="http://www.w3.org/1999/xlink" x="0px" y="0px"
	 width="96px" height="96px" viewBox="0 0 96 96" enable-background="new 0 0 96 96" xml:space="preserve">
<g>
	<path d="M74.616,77.473c-0.215-0.345-0.502-0.626-0.862-0.844c-0.361-0.217-0.807-0.325-1.337-0.325
		c-0.531,0-0.973,0.108-1.326,0.325c-0.354,0.218-0.638,0.499-0.851,0.844s-0.364,0.742-0.453,1.191
		c-0.088,0.45-0.133,0.907-0.133,1.372s0.044,0.919,0.133,1.36c0.088,0.442,0.239,0.84,0.453,1.191
		c0.213,0.354,0.497,0.634,0.851,0.844c0.353,0.21,0.795,0.315,1.326,0.315c0.53,0,0.976-0.105,1.337-0.315
		c0.36-0.21,0.647-0.49,0.862-0.844c0.213-0.352,0.364-0.749,0.453-1.191c0.088-0.441,0.132-0.896,0.132-1.36
		s-0.044-0.922-0.132-1.372C74.98,78.215,74.829,77.817,74.616,77.473z"/>
	<path d="M42.979,76.304c-0.5,0-0.917,0.086-1.248,0.259c-0.332,0.172-0.597,0.386-0.795,0.641c-0.2,0.255-0.34,0.525-0.42,0.81
		c-0.082,0.285-0.129,0.539-0.144,0.765h5.105c-0.148-0.81-0.41-1.425-0.785-1.845C44.317,76.514,43.746,76.304,42.979,76.304z"/>
	<path d="M82.231,1.252c-22.786,0-45.572,0-68.358,0c-2.199,0.106-2.321,2.181-2.319,4.095c0.04,28.443,0.027,56.887,0.029,85.33
		c0,3.062,1.023,4.07,4.115,4.07c21.558,0.001,43.115,0.002,64.672,0c3.024,0,4.053-1.048,4.053-4.132
		c0.002-28.391-0.008-56.78,0.022-85.172C84.447,3.58,84.245,1.597,82.231,1.252z M35.118,85.838H31.98v-6.589
		c0-0.39-0.014-0.757-0.043-1.102c-0.03-0.345-0.111-0.645-0.243-0.899c-0.133-0.255-0.329-0.457-0.586-0.607
		c-0.258-0.149-0.607-0.225-1.05-0.225c-0.442,0-0.799,0.086-1.072,0.258c-0.272,0.173-0.485,0.398-0.641,0.676
		c-0.154,0.277-0.257,0.592-0.309,0.943c-0.052,0.354-0.078,0.709-0.078,1.068v6.477h-3.138v-6.521c0-0.329-0.008-0.667-0.022-1.012
		s-0.077-0.659-0.188-0.944c-0.111-0.285-0.295-0.514-0.553-0.687c-0.258-0.172-0.637-0.258-1.138-0.258
		c-0.162,0-0.361,0.033-0.597,0.102c-0.235,0.067-0.467,0.194-0.696,0.382c-0.228,0.188-0.423,0.457-0.585,0.81
		c-0.162,0.352-0.243,0.813-0.243,1.383v6.746h-3.138V74.212h2.961v1.574h0.044c0.412-0.6,0.91-1.064,1.492-1.394
		c0.581-0.33,1.248-0.495,2-0.495c0.722,0,1.381,0.146,1.978,0.438c0.597,0.293,1.049,0.791,1.358,1.495
		c0.339-0.51,0.799-0.959,1.382-1.349c0.582-0.39,1.27-0.585,2.066-0.585c0.604,0,1.164,0.075,1.679,0.225s0.958,0.391,1.326,0.72
		c0.368,0.33,0.656,0.762,0.862,1.293c0.206,0.532,0.31,1.173,0.31,1.922V85.838z M48.615,80.801h-8.243
		c0.044,1.02,0.302,1.765,0.773,2.237c0.472,0.472,1.149,0.709,2.034,0.709c0.633,0,1.178-0.162,1.634-0.484
		c0.457-0.321,0.737-0.663,0.84-1.022h2.762c-0.441,1.379-1.12,2.376-2.033,2.99c-0.914,0.614-2.019,0.922-3.315,0.922
		c-0.899,0-1.709-0.149-2.431-0.45c-0.722-0.299-1.333-0.719-1.834-1.259c-0.501-0.539-0.888-1.184-1.16-1.934
		c-0.273-0.75-0.409-1.574-0.409-2.474c0-0.869,0.14-1.679,0.419-2.429c0.281-0.749,0.678-1.397,1.194-1.944
		c0.515-0.548,1.13-0.979,1.845-1.293c0.715-0.315,1.506-0.473,2.376-0.473c0.972,0,1.819,0.191,2.541,0.573
		c0.722,0.383,1.315,0.896,1.779,1.541c0.464,0.645,0.798,1.379,1.005,2.203C48.6,79.039,48.674,79.901,48.615,80.801z
		 M56.861,76.349h-2.298v5.757c0,0.539,0.088,0.899,0.265,1.078c0.177,0.181,0.53,0.271,1.061,0.271c0.354,0,0.678-0.03,0.973-0.09
		v2.496c-0.265,0.044-0.56,0.074-0.884,0.09c-0.324,0.015-0.641,0.022-0.951,0.022c-0.486,0-0.947-0.033-1.381-0.101
		c-0.435-0.068-0.818-0.203-1.149-0.405c-0.332-0.203-0.594-0.483-0.785-0.844c-0.191-0.359-0.288-0.831-0.288-1.416v-6.858h-1.9
		v-2.137h1.9v-3.485h3.139v3.485h2.298V76.349z M65.917,76.978c-0.148-0.029-0.325-0.056-0.53-0.078
		c-0.207-0.022-0.406-0.034-0.597-0.034c-0.575,0-1.061,0.099-1.458,0.293c-0.398,0.194-0.719,0.461-0.962,0.798
		s-0.416,0.735-0.519,1.191c-0.104,0.458-0.155,0.941-0.155,1.451v5.239h-3.138V74.212h2.983v2.159h0.045
		c0.146-0.359,0.346-0.693,0.596-1c0.25-0.308,0.538-0.57,0.862-0.787c0.324-0.218,0.674-0.387,1.049-0.507
		c0.376-0.12,0.755-0.18,1.138-0.18c0.235,0,0.464,0.037,0.686,0.112V76.978z M66,26.58c-3.937,13.75-7.873,27.501-11.835,41.339
		c-4.019,0-8.02,0-12.187,0c-3.928-13.72-7.868-27.483-11.808-41.247c-0.12,0.006-0.239,0.012-0.359,0.018
		c0,13.707,0,27.413,0,41.225c-4.03,0-7.972,0-12.011,0c0-20.278,0-40.687,0-61.093l18.002,0.026l11.77,38.833
		c0.137,0.452,0.293,0.898,0.581,1.778c0.311-0.946,0.512-1.512,0.683-2.087L60.377,6.863l17.944,0.011c0,20.328,0,40.678,0,61.043
		c-3.947,0-7.886,0-11.96,0c0-13.775,0-27.578,0-41.325C66.241,26.569,66.12,26.603,66,26.58z M77.919,82.555
		c-0.28,0.75-0.678,1.391-1.193,1.923c-0.516,0.532-1.138,0.944-1.867,1.236c-0.729,0.293-1.543,0.438-2.442,0.438
		c-0.899,0-1.709-0.146-2.431-0.438c-0.722-0.292-1.34-0.704-1.856-1.236c-0.516-0.532-0.914-1.173-1.193-1.923
		c-0.28-0.749-0.419-1.589-0.419-2.519s0.14-1.772,0.419-2.53c0.28-0.756,0.677-1.4,1.193-1.934
		c0.516-0.531,1.134-0.943,1.856-1.236c0.722-0.292,1.532-0.438,2.431-0.438c0.898,0,1.712,0.146,2.442,0.438
		c0.729,0.293,1.351,0.705,1.867,1.236c0.515,0.533,0.913,1.178,1.193,1.934c0.28,0.758,0.419,1.601,0.419,2.53
		S78.199,81.806,77.919,82.555z"/>
</g>
</svg>
