<?xml version="1.0" encoding="utf-8"?>
<!-- Generator: Adobe Illustrator 16.0.0, SVG Export Plug-In . SVG Version: 6.00 Build 0)  -->
<!DOCTYPE svg PUBLIC "-//W3C//DTD SVG 1.1//EN" "http://www.w3.org/Graphics/SVG/1.1/DTD/svg11.dtd">
<svg version="1.1" id="Layer_2" xmlns="http://www.w3.org/2000/svg" xmlns:xlink="http://www.w3.org/1999/xlink" x="0px" y="0px"
	 width="96px" height="96px" viewBox="0 0 96 96" enable-background="new 0 0 96 96" xml:space="preserve">
<path d="M93.411,35.896c-3.43-10.559-14.769-16.34-25.324-12.912c0-11.096-8.994-20.091-20.095-20.091l0.003,0.004
	c-11.098,0-20.094,8.996-20.094,20.092C17.349,19.559,6.019,25.341,2.591,35.895C-0.838,46.45,4.93,57.777,15.483,61.207
	c-6.522,8.978-4.531,21.541,4.447,28.063c8.977,6.522,21.541,4.53,28.063-4.447c6.522,8.977,19.1,10.969,28.078,4.447
	c8.977-6.522,10.956-19.085,4.434-28.063C91.057,57.778,96.839,46.449,93.411,35.896z M64.794,77.196l-5.358-7.232
	c4.699-3.493,7.741-9.084,7.741-15.387c0-9.035-6.267-16.615-14.683-18.642v35.222h-8.988V35.935
	c-8.417,2.023-14.668,9.602-14.668,18.642c0,6.303,3.031,11.895,7.727,15.387l-5.368,7.226C24.3,72.054,19.835,63.837,19.835,54.576
	c0-14.027,10.252-25.655,23.671-27.806v-7.944l0,0.007h8.991v7.943c13.414,2.155,23.67,13.783,23.67,27.805
	C76.168,63.843,71.695,72.061,64.794,77.196z"/>
</svg>
