<?xml version="1.0" encoding="utf-8"?>
<!-- Generator: Adobe Illustrator 16.0.4, SVG Export Plug-In . SVG Version: 6.00 Build 0)  -->
<!DOCTYPE svg PUBLIC "-//W3C//DTD SVG 1.1//EN" "http://www.w3.org/Graphics/SVG/1.1/DTD/svg11.dtd">
<svg version="1.1" id="Layer_1" xmlns="http://www.w3.org/2000/svg" xmlns:xlink="http://www.w3.org/1999/xlink" x="0px" y="0px"
	 width="50px" height="50px" viewBox="0 0 50 50" enable-background="new 0 0 50 50" xml:space="preserve">
<path d="M39.883,27.852h-0.959V16.795H24.632l-0.002,7.509l-0.186-0.002v-4.995h-6.446l-2.897,5.002h-4.262v3.543h-0.723v2h0.723
	v1.25h2.514c0.234,1.197,1.289,2.104,2.556,2.104c1.265,0,2.317-0.905,2.553-2.104h12.326c0.234,1.197,1.289,2.104,2.553,2.104
	c1.268,0,2.32-0.905,2.557-2.104h3.027v-1.25h0.959V27.852L39.883,27.852z M15.908,32.205c-0.887,0-1.605-0.721-1.605-1.604
	s0.721-1.604,1.605-1.604c0.884,0,1.604,0.721,1.604,1.604S16.792,32.205,15.908,32.205z M33.34,32.205
	c-0.885,0-1.604-0.721-1.604-1.604s0.719-1.604,1.604-1.604c0.887,0,1.605,0.721,1.605,1.604S34.227,32.205,33.34,32.205z
	 M37.924,30.102h-2.029c-0.234-1.197-1.289-2.104-2.555-2.104s-2.318,0.906-2.553,2.104H18.46c-0.234-1.197-1.288-2.104-2.553-2.104
	c-1.266,0-2.32,0.906-2.555,2.104h-1.514v-4.793h3.837l2.898-5.002h4.87v4.984l2.186,0.021l0.002-7.519h12.291V30.102L37.924,30.102
	z M19.152,21.307h3.354v3.896h-5.612L19.152,21.307z"/>
</svg>
