<?xml version="1.0" encoding="utf-8"?>
<!-- Generator: Adobe Illustrator 16.0.0, SVG Export Plug-In . SVG Version: 6.00 Build 0)  -->
<!DOCTYPE svg PUBLIC "-//W3C//DTD SVG 1.1//EN" "http://www.w3.org/Graphics/SVG/1.1/DTD/svg11.dtd">
<svg version="1.1" id="Layer_1" xmlns="http://www.w3.org/2000/svg" xmlns:xlink="http://www.w3.org/1999/xlink" x="0px" y="0px"
	 width="96px" height="96px" viewBox="0 0 96 96" enable-background="new 0 0 96 96" xml:space="preserve">
<path d="M48,3.278C23.301,3.278,3.278,23.301,3.278,48S23.301,92.722,48,92.722S92.722,72.699,92.722,48S72.699,3.278,48,3.278z
	 M32.429,81.824c-6.216-3.783-11.599-9.133-15.493-15.881c-3.895-6.746-5.837-14.082-6.006-21.357l25.88-0.525
	c0.086,3.049,0.907,6.117,2.539,8.943c1.631,2.826,3.879,5.072,6.476,6.67L32.429,81.824z M47.975,38.063
	c-3.263,0-6.332,0.824-9.015,2.273L26.476,17.66c6.385-3.49,13.709-5.477,21.499-5.477s15.114,1.986,21.499,5.477L56.989,40.336
	C54.307,38.887,51.237,38.063,47.975,38.063z M79.014,65.945c-3.896,6.744-9.277,12.096-15.493,15.879l-13.396-22.15
	c2.597-1.598,4.844-3.844,6.476-6.67c1.632-2.824,2.452-5.895,2.539-8.943l25.88,0.525C84.851,51.861,82.909,59.197,79.014,65.945z"
	/>
</svg>
