<?xml version="1.0" encoding="utf-8"?>
<!-- Generator: Adobe Illustrator 17.0.0, SVG Export Plug-In . SVG Version: 6.00 Build 0)  -->
<!DOCTYPE svg PUBLIC "-//W3C//DTD SVG 1.1//EN" "http://www.w3.org/Graphics/SVG/1.1/DTD/svg11.dtd">
<svg version="1.1" id="Capa_1" xmlns="http://www.w3.org/2000/svg" xmlns:xlink="http://www.w3.org/1999/xlink" x="0px" y="0px"
	 width="13.27px" height="15.959px" viewBox="0 0 13.27 15.959" enable-background="new 0 0 13.27 15.959" xml:space="preserve">
<path d="M8.776,1.686c-0.011-0.06-0.032-0.118-0.032-0.182V0.92C8.744,0.412,9.156,0,9.663,0h1.5c0.508,0,0.921,0.412,0.921,0.92
	v0.584c0,0.065-0.018,0.122-0.031,0.182H8.776z M4.494,1.686c0.014-0.06,0.032-0.117,0.032-0.182V0.92C4.526,0.412,4.113,0,3.604,0
	H2.105C1.599,0,1.187,0.412,1.187,0.92v0.584c0,0.064,0.019,0.122,0.032,0.182H4.494z M0,15.039c0,0.508,0.412,0.92,0.919,0.92
	h3.873c0.509,0,0.919-0.412,0.919-0.92v-0.144H0V15.039z M7.559,15.039c0,0.508,0.412,0.92,0.92,0.92h3.872
	c0.509,0,0.919-0.412,0.919-0.92v-0.144H7.559V15.039z M12.437,8.497V5.011c0-0.509-0.414-0.921-0.921-0.921H11.38V2.466
	c0-0.024-0.006-0.045-0.006-0.068h-1.92c0,0.023-0.007,0.044-0.007,0.068V4.09H9.313c-0.508,0-0.921,0.412-0.921,0.921v0.577H4.877
	V5.011c0-0.509-0.413-0.921-0.92-0.921H3.822V2.466c0-0.024-0.004-0.045-0.007-0.068H1.896C1.894,2.421,1.89,2.442,1.89,2.466V4.09
	H1.754c-0.508,0-0.92,0.412-0.92,0.921v3.486C0.366,8.542,0,8.931,0,9.409v4.392h5.711V9.58h1.848v4.221h5.711V9.409
	C13.27,8.931,12.903,8.542,12.437,8.497z"/>
</svg>
