<?xml version="1.0" encoding="utf-8"?>
<!-- Generator: Adobe Illustrator 17.1.0, SVG Export Plug-In . SVG Version: 6.00 Build 0)  -->
<!DOCTYPE svg PUBLIC "-//W3C//DTD SVG 1.1//EN" "http://www.w3.org/Graphics/SVG/1.1/DTD/svg11.dtd">
<svg version="1.1" xmlns="http://www.w3.org/2000/svg" xmlns:xlink="http://www.w3.org/1999/xlink" x="0px" y="0px"
	 viewBox="0 0 64 64" enable-background="new 0 0 64 64" xml:space="preserve">
<g id="Imagenes">
</g>
<g id="Layer_2">
	<polygon points="16.084,49 6,49 6,54 13.731,54 	"/>
	<polygon points="52.269,54 59,54 59,49 49.916,49 	"/>
	<polygon points="19.378,42 10,42 10,47 17.025,47 	"/>
	<polygon points="48.975,47 55,47 55,42 46.622,42 	"/>
	<polygon points="22.672,35 15,35 15,40 20.319,40 	"/>
	<polygon points="45.681,40 50,40 50,35 43.328,35 	"/>
	<polygon points="25.966,28 20,28 20,33 23.613,33 	"/>
	<polygon points="42.387,33 45,33 45,28 40.034,28 	"/>
	<polygon points="28.79,22 29.19,21.148 29.731,20 30,20 30,16 36,16 36,20 36.269,20 36.81,21.148 37.21,22 39.093,26 43,26 42,22 
		40,22 40,16 42,16 42,12 24,12 24,16 26,16 26,22 24,22 23,26 26.907,26 	"/>
	<polygon points="50.059,54 47.706,49 46.765,47 44.412,42 43.471,40 41.118,35 40.176,33 37.824,28 36.882,26 35,22 31,22 
		29.118,26 28.176,28 25.824,33 24.882,35 22.529,40 21.588,42 19.235,47 18.294,49 15.941,54 15,56 51,56 	"/>
</g>
</svg>
