<?xml version="1.0" encoding="utf-8"?>
<!-- Generator: Adobe Illustrator 16.0.0, SVG Export Plug-In . SVG Version: 6.00 Build 0)  -->
<!DOCTYPE svg PUBLIC "-//W3C//DTD SVG 1.1//EN" "http://www.w3.org/Graphics/SVG/1.1/DTD/svg11.dtd">
<svg version="1.1" id="Layer_1" xmlns="http://www.w3.org/2000/svg" xmlns:xlink="http://www.w3.org/1999/xlink" x="0px" y="0px"
	 width="96px" height="96px" viewBox="0 0 96 96" enable-background="new 0 0 96 96" xml:space="preserve">
<path d="M10.918,1v94h74.164V1H10.918z M67.143,58.78v4.1H54.832V44.092h5.074V58.78H67.143z M28.84,84.669h-4.207l-2.723-5.271
	l-1.104,0.66v4.611h-3.744V70.884h3.744v5.988l4.037-5.988h4.071l-4.345,6.176L28.84,84.669z M43.531,73.872H39.07v2.169h4.131v2.99
	H39.07v2.603h4.461v3.036h-8.185V70.884h8.185V73.872z M43.936,62.88h-5.102v-7.659h-5.897v7.659h-5.102V44.092h5.102v6.965h5.897
	v-6.965h5.102V62.88z M39.002,33.215c-2.078-2.207-3.115-5.354-3.115-9.44c0-3.985,1.136-7.087,3.408-9.305
	c2.277-2.218,5.464-3.328,9.561-3.328c1.553,0,3.021,0.146,4.399,0.44c1.38,0.292,2.58,0.665,3.605,1.114l-2.109,5.235
	c-1.78-0.877-3.734-1.317-5.861-1.317c-1.949,0-3.453,0.633-4.518,1.9c-1.064,1.267-1.595,3.077-1.595,5.429
	c0,2.308,0.48,4.068,1.441,5.278c0.964,1.21,2.352,1.815,4.163,1.815c0.991,0,1.903-0.095,2.738-0.287v-3.867h-4.409v-5.151h10.657
	v13.308c-2.894,0.991-6.075,1.486-9.543,1.486C44.02,36.525,41.079,35.421,39.002,33.215z M59.993,84.669H50.96V70.884h3.724v10.778
	h5.31V84.669z M78.938,79.181c0,1.805-0.511,3.201-1.533,4.192c-1.021,0.99-2.494,1.485-4.417,1.485
	c-1.88,0-3.324-0.481-4.332-1.443c-1.011-0.961-1.514-2.345-1.514-4.149v-8.382h3.744v8.09c0,0.975,0.18,1.682,0.544,2.122
	c0.365,0.44,0.902,0.66,1.614,0.66c0.76,0,1.312-0.218,1.654-0.654c0.343-0.438,0.515-1.152,0.515-2.146v-8.072h3.725V79.181z"/>
</svg>
