<?xml version="1.0" encoding="utf-8"?>
<!-- Generator: Adobe Illustrator 16.0.4, SVG Export Plug-In . SVG Version: 6.00 Build 0)  -->
<!DOCTYPE svg PUBLIC "-//W3C//DTD SVG 1.1//EN" "http://www.w3.org/Graphics/SVG/1.1/DTD/svg11.dtd">
<svg version="1.1" id="Capa_1" xmlns="http://www.w3.org/2000/svg" xmlns:xlink="http://www.w3.org/1999/xlink" x="0px" y="0px"
	 width="21.465px" height="29.041px" viewBox="0 0 21.465 29.041" enable-background="new 0 0 21.465 29.041" xml:space="preserve">
<path d="M8.855,12.314c-0.463,0.844-0.771,1.752-0.956,2.693c-0.723-1.36-1.839-2.661-2.904-3.207
	c0.788,1.506,1.876,3.239,2.729,4.398c-0.017,0.18-0.031,0.361-0.041,0.544l-0.001,0.006l-0.001,0.022L7.68,16.778v0.005
	l-0.001,0.032v0.006l-0.002,0.025l-0.002,0.029l-0.002,0.046c-0.002,0.052-0.006,0.101-0.007,0.148l-0.002,0.073v0.002l-0.003,0.07
	v0.008v0.021L7.66,17.253l-0.001,0.02v0.02v0.006l-0.001,0.023v0.006v0.004v0.035v0.006v0.047v0.004v0.017v0.01l-0.002,0.024v0.002
	v0.021v0.014v0.013l-0.001,0.024v0.041c0,0.047,0,0.09,0,0.134l0.001,0.01c0.002,0.438,0.024,0.881,0.058,1.315
	C6.384,17.749,3.98,16.631,2.35,16.7c1.777,1.154,4.139,2.383,5.41,2.854c0.031,0.323,0.071,0.645,0.117,0.963
	C2.939,22.535,2.344,18.5,0,15.576c1.543-0.557,2.846-0.796,3.941-0.768C3.599,13.326,3.8,11.48,3.502,9.667
	C6.262,10.128,7.957,11.06,8.855,12.314z M21.465,7.982C19.1,14.598,20.781,22.172,9.154,20.458
	C8.08,13.083,10.754,7.837,21.465,7.982z M18.216,11.191c-3.2,0.963-7.236,5.213-8.106,8.405
	C11.643,18.638,15.557,14.604,18.216,11.191z"/>
</svg>
