<?xml version="1.0" encoding="utf-8"?>
<!-- Generator: Adobe Illustrator 16.0.4, SVG Export Plug-In . SVG Version: 6.00 Build 0)  -->
<!DOCTYPE svg PUBLIC "-//W3C//DTD SVG 1.1//EN" "http://www.w3.org/Graphics/SVG/1.1/DTD/svg11.dtd">
<svg version="1.1" id="Layer_1" xmlns="http://www.w3.org/2000/svg" xmlns:xlink="http://www.w3.org/1999/xlink" x="0px" y="0px"
	 width="50px" height="50px" viewBox="0 0 50 50" enable-background="new 0 0 50 50" xml:space="preserve">
<path d="M37.956,17.697v3.741h0.5v0.682h-0.915v-1.036h-1.868v-8.522H14.327v8.522h-1.868v1.036h-0.915v-0.682h0.5v-3.741h-2v3.741
	h0.5v1.682h1.915v10.519h1.673v3.799h5v-3.799h11.736v3.799h5v-3.799h1.673V23.12h1.915v-1.682h0.5v-3.741H37.956z M16.635,27.361
	c-0.958,0-1.736-0.779-1.736-1.739c0-0.958,0.778-1.736,1.736-1.736c0.961,0,1.738,0.778,1.738,1.736
	C18.373,26.582,17.596,27.361,16.635,27.361z M21.384,30.911h-1v-7.102h1V30.911z M23.941,30.911h-1v-7.102h1V30.911z
	 M26.504,30.911h-1v-7.102h1V30.911z M26.916,21.084H16.327v-6.522h17.346v6.522h-0.509c0.013-0.111,0.034-0.22,0.034-0.334
	c0-1.741-1.417-3.158-3.158-3.158s-3.158,1.417-3.158,3.158C26.882,20.865,26.902,20.973,26.916,21.084z M29.062,30.911h-1v-7.102h1
	V30.911z M27.916,21.084c-0.018-0.11-0.034-0.22-0.034-0.334c0-1.19,0.968-2.158,2.158-2.158s2.158,0.968,2.158,2.158
	c0,0.115-0.017,0.225-0.034,0.334H27.916z M33.363,27.361c-0.959,0-1.736-0.779-1.736-1.739c0-0.958,0.777-1.736,1.736-1.736
	c0.96,0,1.738,0.778,1.738,1.736C35.104,26.582,34.323,27.361,33.363,27.361z"/>
</svg>
