<?xml version="1.0" encoding="utf-8"?>
<!-- Generator: Adobe Illustrator 16.0.0, SVG Export Plug-In . SVG Version: 6.00 Build 0)  -->
<!DOCTYPE svg PUBLIC "-//W3C//DTD SVG 1.1//EN" "http://www.w3.org/Graphics/SVG/1.1/DTD/svg11.dtd">
<svg version="1.1" id="Layer_1" xmlns="http://www.w3.org/2000/svg" xmlns:xlink="http://www.w3.org/1999/xlink" x="0px" y="0px"
	 width="96px" height="96px" viewBox="0 0 96 96" enable-background="new 0 0 96 96" xml:space="preserve">
<g>
	<path d="M47.867,47.295c12.627,0,23.213,0,23.669,0c1.194,0,0.965-0.919,0.965-0.919h6.296c-0.039-0.521-0.089-1.023-0.145-1.517
		H54.623l0.229-0.827h11.582c0,0,0.458,0.459,1.148-0.689h10.87c-0.092-0.605-0.189-1.19-0.302-1.747H55.91l0.23-0.826h7.031
		c0,0,0.459,0.459,1.147-0.688h13.494c-0.122-0.501-0.25-0.974-0.384-1.427H57.242l0.229-0.826h13.421c0,0,0.458,0.505,1.149-0.689
		h4.906c-0.225-0.648-0.449-1.229-0.668-1.746H58.713l0.23-0.782h9.376c0,0,0.459,0.461,1.148-0.734h6.111
		c-0.51-1.001-0.872-1.519-0.872-1.519h-26.84H5.907l-4.089,6.757c-0.751,1.576-1.09,2.85-1.15,3.876v0.659
		c0.214,3.437,3.86,3.646,3.86,3.646S28.581,47.295,47.867,47.295z"/>
	<path d="M91.472,48.827c0,0-24.052,0-43.339,0c-12.627,0-23.213,0-23.669,0c-1.194,0-0.965,0.919-0.965,0.919h-6.296
		c0.039,0.521,0.089,1.023,0.145,1.517h24.03l-0.23,0.827H29.565c0,0-0.458-0.46-1.148,0.688h-10.87
		c0.091,0.605,0.189,1.189,0.302,1.747H40.09l-0.23,0.826h-7.031c0,0-0.459-0.459-1.147,0.689H18.187
		c0.122,0.502,0.251,0.974,0.382,1.425h20.189l-0.229,0.828H25.107c0,0-0.458-0.505-1.149,0.69h-4.905
		c0.225,0.647,0.448,1.229,0.667,1.745h17.567l-0.23,0.781h-9.376c0,0-0.459-0.46-1.148,0.734h-6.111
		c0.51,1.002,0.873,1.519,0.873,1.519h26.839h41.96l4.09-6.757c0.75-1.575,1.089-2.848,1.149-3.875v-0.659
		C95.117,49.035,91.472,48.827,91.472,48.827z"/>
	<path d="M48.156,15.847c17.441,0,31.657,14.166,31.967,31.695h12.793C92.671,22.863,72.751,2.931,48.206,2.931
		c-18.831,0-34.932,11.736-41.525,28.342h14.211C26.523,22.027,36.638,15.847,48.156,15.847z"/>
	<path d="M48.156,80.398c-17.554,0-31.842-14.346-31.976-32.03H3.495C3.692,73.09,23.629,93.069,48.206,93.069
		c18.692,0,34.698-11.562,41.382-27.972H75.341C69.696,74.272,59.623,80.398,48.156,80.398z"/>
</g>
</svg>
