<?xml version="1.0" encoding="utf-8"?>
<!-- Generator: Adobe Illustrator 16.0.0, SVG Export Plug-In . SVG Version: 6.00 Build 0)  -->
<!DOCTYPE svg PUBLIC "-//W3C//DTD SVG 1.1//EN" "http://www.w3.org/Graphics/SVG/1.1/DTD/svg11.dtd">
<svg version="1.1" id="Layer_1" xmlns="http://www.w3.org/2000/svg" xmlns:xlink="http://www.w3.org/1999/xlink" x="0px" y="0px"
	 width="96px" height="96px" viewBox="0 0 96 96" enable-background="new 0 0 96 96" xml:space="preserve">
<g>
	<path d="M81.166,21.238c-18.213-18.317-47.83-18.4-66.146-0.186c-18.316,18.214-18.4,47.828-0.184,66.146l8.672-8.625
		c-6.523-6.369-10.578-15.255-10.58-25.092c0-0.003,0-0.005,0-0.008c-0.002-19.372,15.703-35.081,35.076-35.082
		c19.373-0.003,35.082,15.702,35.084,35.076c0,0.002,0,0.005,0,0.005c0.002,9.914-4.117,18.862-10.727,25.242l8.619,8.67
		C99.297,69.17,99.381,39.556,81.166,21.238z"/>
	<polygon points="30.08,88.554 45.271,59.821 16.436,88.451 	"/>
	<polygon points="65.539,88.554 79.182,88.451 50.346,59.821 	"/>
</g>
</svg>
