<?xml version="1.0" encoding="utf-8"?>
<!-- Generator: Adobe Illustrator 16.0.0, SVG Export Plug-In . SVG Version: 6.00 Build 0)  -->
<!DOCTYPE svg PUBLIC "-//W3C//DTD SVG 1.1//EN" "http://www.w3.org/Graphics/SVG/1.1/DTD/svg11.dtd">
<svg version="1.1" id="Layer_1" xmlns="http://www.w3.org/2000/svg" xmlns:xlink="http://www.w3.org/1999/xlink" x="0px" y="0px"
	 width="96px" height="96px" viewBox="0 0 96 96" enable-background="new 0 0 96 96" xml:space="preserve">
<path d="M81.004,12.985c-0.108-0.088-0.229-0.167-0.361-0.24c-0.128-0.847-0.598-1.614-1.301-2.103
	c-1.368-0.951-3.401-0.583-4.352,0.784l-0.896,1.295c-0.478,0.686-0.657,1.516-0.508,2.338c0.148,0.821,0.607,1.536,1.293,2.011
	c0.572,0.398,1.26,0.596,1.962,0.552c0.095,0.1,0.191,0.19,0.296,0.273c0.059,0.046,5.742,4.689,4.749,11.002
	c-0.879,5.603-7.066,14.222-31.555,23.461c-0.083,0.03-0.163,0.065-0.243,0.104c-0.071-0.041-0.142-0.078-0.215-0.115l-4.306-2.139
	c-0.14-0.069-0.279-0.132-0.419-0.191c-0.019-0.09-0.04-0.18-0.065-0.266c-7.436-25.096-4.308-35.234-0.376-39.32
	C49.203,5.76,56.308,7.56,56.341,7.567c0.128,0.033,0.261,0.057,0.399,0.072c0.388,0.58,0.955,1.011,1.625,1.229
	c1.612,0.523,3.416-0.399,3.94-2.003l0.489-1.496c0.258-0.793,0.191-1.641-0.187-2.386c-0.378-0.743-1.023-1.297-1.815-1.556
	c-0.815-0.267-1.717-0.176-2.464,0.234c-0.14-0.062-0.274-0.108-0.409-0.144c-0.213-0.055-2.153-0.546-4.854-0.546
	c-3.601,0-8.75,0.881-12.82,5.077c-7.232,7.46-7.795,22.152-1.677,43.674c-2.333,0.774-4.265,2.438-5.359,4.64
	c-1.093,2.202-1.263,4.701-0.478,7.037c0.759,2.254,2.316,4.093,4.402,5.2c-0.641,1.264-1.313,2.703-2.104,4.419
	c-2.927,6.337-7.353,15.915-12.396,17.524c-1.426,0.459-2.87,0.225-4.489-0.703c-2.426-1.412-3.757-2.956-4.071-4.721
	c-0.802-4.493,4.527-10.94,8.83-16.144c3.06-3.702,5.702-6.9,6.655-9.766c3.461-8.874,2.135-17.321-3.634-23.234
	c0.591-3.085-0.922-6.163-3.764-7.574c-0.979-0.485-2.024-0.732-3.109-0.732c-2.681,0-5.088,1.491-6.279,3.891
	c-1.719,3.459-0.303,7.672,3.156,9.391c1.905,0.944,4.18,0.962,6.1,0.063c3.516,4.138,4.116,9.792,1.679,15.999l-0.06,0.166
	c-0.574,1.777-3.108,4.846-5.579,7.836C12.698,69.513,6.612,76.877,7.92,84.217c0.646,3.628,3.033,6.668,7.1,9.04
	c0.271,0.154,0.541,0.298,0.811,0.433c1.788,0.888,3.597,1.337,5.379,1.337c1.113,0,2.234-0.178,3.329-0.526
	c7.662-2.447,12.381-12.662,16.173-20.871c0.729-1.582,1.424-3.084,2.055-4.321c0.967,0.335,1.975,0.505,3.003,0.506
	c0.002,0,0.002,0,0.002,0c3.53,0,6.693-1.959,8.259-5.109c1.123-2.263,1.262-4.864,0.408-7.23
	c20.751-8.114,32.066-17.422,33.634-27.669C89.596,19.854,81.354,13.261,81.004,12.985z M37.681,56.584
	c0.719-1.446,2.173-2.345,3.794-2.345c0.652,0,1.284,0.147,1.873,0.44l4.305,2.139c2.088,1.037,2.943,3.578,1.906,5.666
	c-0.719,1.446-2.173,2.347-3.793,2.347c-0.654,0-1.283-0.148-1.872-0.441l-4.308-2.14C37.498,61.213,36.643,58.672,37.681,56.584z"
	/>
</svg>
