<?xml version="1.0" encoding="utf-8"?>
<!-- Generator: Adobe Illustrator 16.0.4, SVG Export Plug-In . SVG Version: 6.00 Build 0)  -->
<!DOCTYPE svg PUBLIC "-//W3C//DTD SVG 1.1//EN" "http://www.w3.org/Graphics/SVG/1.1/DTD/svg11.dtd">
<svg version="1.1" id="Layer_1" xmlns="http://www.w3.org/2000/svg" xmlns:xlink="http://www.w3.org/1999/xlink" x="0px" y="0px"
	 width="50px" height="50px" viewBox="0 0 50 50" enable-background="new 0 0 50 50" xml:space="preserve">
<path d="M33.309,21.659v6.685c0,0.539-0.438,0.977-0.979,0.977c-0.539,0-0.977-0.438-0.977-0.977v-2.365h-0.979v5.211
	c0,0.54-0.437,0.977-0.977,0.977c-0.541,0-0.979-0.437-0.979-0.977v-5.211h-6.84v5.211c0,0.54-0.437,0.977-0.978,0.977
	c-0.54,0-0.977-0.437-0.977-0.977v-5.211h-0.978v2.365c0,0.539-0.437,0.977-0.977,0.977c-0.541,0-0.978-0.438-0.978-0.977v-6.685
	c0-0.54,0.437-0.977,0.978-0.977c0.54,0,0.977,0.437,0.977,0.977v2.365h0.978v-5.213c0-0.54,0.437-0.977,0.977-0.977
	c0.541,0,0.978,0.437,0.978,0.977v5.213h6.84v-5.213c0-0.54,0.438-0.977,0.979-0.977c0.54,0,0.977,0.437,0.977,0.977v5.213h0.979
	v-2.365c0-0.54,0.438-0.977,0.977-0.977C32.871,20.682,33.309,21.119,33.309,21.659z"/>
</svg>
