<?xml version="1.0" encoding="utf-8"?>
<!-- Generator: Adobe Illustrator 16.0.0, SVG Export Plug-In . SVG Version: 6.00 Build 0)  -->
<!DOCTYPE svg PUBLIC "-//W3C//DTD SVG 1.1//EN" "http://www.w3.org/Graphics/SVG/1.1/DTD/svg11.dtd">
<svg version="1.1" id="Layer_1" xmlns="http://www.w3.org/2000/svg" xmlns:xlink="http://www.w3.org/1999/xlink" x="0px" y="0px"
	 width="96px" height="96px" viewBox="0 0 96 96" enable-background="new 0 0 96 96" xml:space="preserve">
<g>
	<polygon points="63.629,16.593 48.403,38.627 54.889,52.713 54.893,52.718 54.895,52.721 63.413,71.261 85.234,71.261 	"/>
	<path d="M32.404,16.593L10.766,71.261h21.856L41.1,52.733c0.006-0.016,0.013-0.028,0.021-0.043l6.475-14.063L32.404,16.593z"/>
	<path d="M45.096,52.317l2.903,3.209l2.9-3.204c0.155-0.174,0.384-0.277,0.625-0.279l1.72-0.021L48,40.632l-5.245,11.391
		l1.722,0.021C44.71,52.045,44.936,52.146,45.096,52.317z"/>
	<path d="M48,0.623C21.876,0.623,0.623,21.876,0.623,48S21.876,95.377,48,95.377S95.377,74.124,95.377,48S74.124,0.623,48,0.623z
		 M48,93.683C22.811,93.683,2.317,73.189,2.317,48S22.811,2.317,48,2.317S93.683,22.811,93.683,48S73.189,93.683,48,93.683z"/>
</g>
</svg>
