<?xml version="1.0" encoding="utf-8"?>
<!-- Generator: Adobe Illustrator 17.0.0, SVG Export Plug-In . SVG Version: 6.00 Build 0)  -->
<!DOCTYPE svg PUBLIC "-//W3C//DTD SVG 1.1//EN" "http://www.w3.org/Graphics/SVG/1.1/DTD/svg11.dtd">
<svg version="1.1" id="Capa_1" xmlns="http://www.w3.org/2000/svg" xmlns:xlink="http://www.w3.org/1999/xlink" x="0px" y="0px"
	 width="18.632px" height="18.063px" viewBox="0 0 18.632 18.063" enable-background="new 0 0 18.632 18.063" xml:space="preserve">
<path d="M7.375,6.219C6.234,5.565,5.094,4.91,3.954,4.256C4.563,3.067,5.306,1.875,6.52,0.684c0.15-0.16,0.347-0.265,0.59-0.314
	h0.258L7.55,0.378c0.599,0.1,1.179,0.891,1.48,1.338c0.237,0.405,0.464,0.815,0.681,1.229L7.375,6.219z M9.322,1.533
	c0.548,0.941,1.064,1.916,1.512,2.957L9.021,5.533l5.258,0.504l2.213-4.805l-1.83,1.053C14.164,1.273,13.529,0.431,12.567,0
	C10.84,0.008,9.113,0.016,7.385,0.025C8.069-0.001,8.706,0.618,9.322,1.533z M13.34,8.388l0.021-0.029l0.001,0.072l1.35,2.875
	c0.546,0.02,1.093,0.023,1.639,0.016c0.567-0.047,1.619-0.176,1.947-0.717c0.012-0.018,0.021-0.037,0.032-0.055l0.133-0.24
	c0-0.107-0.015-0.215-0.047-0.318c-0.443-1.641-1.117-2.871-1.855-3.986c-1.13,0.674-2.259,1.346-3.388,2.021L13.34,8.388z
	 M16.366,11.665c-1.089,0.018-2.19-0.012-3.317-0.131l-0.022-2.092l-3.014,4.336l3.104,4.285l-0.021-2.111
	c1.125,0.063,2.169-0.08,3.019-0.705c0.839-1.51,1.678-3.02,2.518-4.529C18.318,11.326,17.465,11.576,16.366,11.665z M5.364,11.966
	c-0.236,0.455-0.459,0.916-0.674,1.385c-0.204,0.533-0.541,1.537-0.194,2.066c0.012,0.018,0.024,0.035,0.037,0.053l0.164,0.229
	c0.138,0.098,0.287,0.154,0.444,0.176c1.673,0.311,3.073,0.23,4.397,0.045c-0.121-1.309-0.242-2.619-0.364-3.928L5.364,11.966z
	 M4.373,13.216c0.454-0.988,0.954-1.971,1.546-2.938l1.898,0.883l-2.614-4.59L0,7.526l1.914,0.889
	c-0.542,0.992-0.863,1.994-0.664,3.029c1,1.41,2,2.818,3.002,4.225C3.838,15.124,3.979,14.247,4.373,13.216z"/>
</svg>
