<?xml version="1.0" encoding="utf-8"?>
<!-- Generator: Adobe Illustrator 16.0.4, SVG Export Plug-In . SVG Version: 6.00 Build 0)  -->
<!DOCTYPE svg PUBLIC "-//W3C//DTD SVG 1.1//EN" "http://www.w3.org/Graphics/SVG/1.1/DTD/svg11.dtd">
<svg version="1.1" id="Layer_1" xmlns="http://www.w3.org/2000/svg" xmlns:xlink="http://www.w3.org/1999/xlink" x="0px" y="0px"
	 width="226.77px" height="155.91px" viewBox="0 0 226.77 155.91" enable-background="new 0 0 226.77 155.91" xml:space="preserve">
<g>
	<path d="M114.603,71.051c10.3,0,18.678-8.378,18.678-18.678s-8.378-18.675-18.678-18.675s-18.678,8.377-18.678,18.677
		S104.303,71.051,114.603,71.051z"/>
	<path d="M59.384,103.533c0,10.301,8.377,18.678,18.677,18.678s18.678-8.377,18.678-18.678c0-10.299-8.378-18.678-18.678-18.678
		S59.384,93.234,59.384,103.533z"/>
	<path d="M148.708,122.209c10.3,0,18.678-8.377,18.678-18.678c0-10.299-8.378-18.676-18.678-18.676s-18.678,8.379-18.678,18.678
		C130.03,113.834,138.408,122.209,148.708,122.209z"/>
</g>
</svg>
