<?xml version="1.0" encoding="utf-8"?>
<!-- Generator: Adobe Illustrator 17.0.0, SVG Export Plug-In . SVG Version: 6.00 Build 0)  -->
<!DOCTYPE svg PUBLIC "-//W3C//DTD SVG 1.1//EN" "http://www.w3.org/Graphics/SVG/1.1/DTD/svg11.dtd">
<svg version="1.1" id="Capa_1" xmlns="http://www.w3.org/2000/svg" xmlns:xlink="http://www.w3.org/1999/xlink" x="0px" y="0px"
	 width="10.818px" height="17.817px" viewBox="0 0 10.818 17.817" enable-background="new 0 0 10.818 17.817" xml:space="preserve">
<path d="M10.818,4.862v8.094c0,2.684-2.175,4.861-4.86,4.861H4.86c-2.684,0-4.86-2.176-4.86-4.861V4.862
	c0-2.673,2.156-4.839,4.823-4.86v2.114C3.774,2.353,2.996,3.204,2.996,4.225v2.816c0,1.205,1.079,2.183,2.413,2.183
	s2.414-0.978,2.414-2.183V4.225c0-1.073-0.856-1.958-1.983-2.143V0h0.119C8.644,0,10.82,2.175,10.818,4.862z M3.935,4.679v1.906
	c0,0.815,0.661,1.476,1.476,1.476s1.477-0.66,1.477-1.476V4.679c0-0.815-0.661-1.477-1.477-1.477
	C4.596,3.202,3.935,3.864,3.935,4.679z"/>
</svg>
