<?xml version="1.0" encoding="utf-8"?>
<!-- Generator: Adobe Illustrator 16.0.4, SVG Export Plug-In . SVG Version: 6.00 Build 0)  -->
<!DOCTYPE svg PUBLIC "-//W3C//DTD SVG 1.1//EN" "http://www.w3.org/Graphics/SVG/1.1/DTD/svg11.dtd">
<svg version="1.1" id="Layer_1" xmlns="http://www.w3.org/2000/svg" xmlns:xlink="http://www.w3.org/1999/xlink" x="0px" y="0px"
	 width="50px" height="50px" viewBox="0 0 50 50" enable-background="new 0 0 50 50" xml:space="preserve">
<path d="M17.846,15.17v20.51c0,0.277-0.224,0.5-0.5,0.5c-0.275,0-0.5-0.223-0.5-0.5V15.17c0-0.275,0.225-0.5,0.5-0.5
	C17.622,14.67,17.846,14.895,17.846,15.17z M28.868,16.746c0.509,0.566,0.789,1.344,0.789,2.191
	c-0.003,1.936-1.517,3.856-3.601,4.569c-0.367,0.125-0.731,0.188-1.089,0.188c-1.616,0-2.837-1.327-2.837-3.09
	c-0.001-1.934,1.514-3.854,3.602-4.569C26.917,15.631,28.111,15.908,28.868,16.746z M28.657,18.938c0-0.6-0.188-1.141-0.532-1.521
	c-0.335-0.371-0.786-0.567-1.305-0.567c-0.245,0-0.502,0.047-0.764,0.135c-1.668,0.572-2.927,2.131-2.926,3.625
	c0,1.51,1.191,2.438,2.602,1.955C27.398,21.992,28.654,20.434,28.657,18.938z M27.501,18.771c-0.369,0.098-0.737,0.217-1.106,0.33
	v-1.064c0-0.275-0.224-0.5-0.5-0.5c-0.275,0-0.5,0.225-0.5,0.5V19.4c-0.453,0.143-0.908,0.287-1.361,0.408
	c-0.268,0.069-0.426,0.344-0.355,0.61c0.061,0.226,0.262,0.371,0.483,0.371c0.042,0,0.085-0.004,0.128-0.017
	c0.369-0.098,0.736-0.217,1.105-0.332v1.064c0,0.277,0.225,0.5,0.5,0.5c0.276,0,0.5-0.223,0.5-0.5v-1.363
	c0.455-0.143,0.908-0.287,1.362-0.406c0.267-0.071,0.427-0.346,0.354-0.61C28.042,18.859,27.771,18.699,27.501,18.771z
	 M33.154,14.846v9.09c0,0.172-0.088,0.33-0.23,0.422c-0.145,0.093-0.326,0.104-0.479,0.033c-0.698-0.324-1.432-0.479-2.244-0.479
	c-1.358,0-2.717,0.43-4.155,0.885c-1.446,0.457-2.944,0.931-4.456,0.931c-0.961,0-1.831-0.187-2.663-0.57
	c-0.177-0.082-0.29-0.26-0.29-0.455v-9.09c0-0.17,0.088-0.328,0.23-0.42c0.145-0.094,0.326-0.104,0.479-0.033
	c0.697,0.322,1.432,0.48,2.244,0.48c1.357,0,2.717-0.431,4.154-0.886c1.447-0.459,2.943-0.933,4.456-0.933
	c0.961,0,1.832,0.188,2.663,0.572C33.041,14.475,33.154,14.652,33.154,14.846z M32.154,15.176c-0.61-0.238-1.254-0.355-1.954-0.355
	c-1.357,0-2.716,0.431-4.154,0.886c-1.446,0.457-2.944,0.933-4.456,0.933c-0.691,0-1.337-0.099-1.953-0.296v8.027
	c0.609,0.239,1.252,0.354,1.951,0.354c1.357,0,2.717-0.43,4.155-0.885c1.446-0.457,2.944-0.93,4.457-0.93
	c0.69,0,1.337,0.096,1.954,0.295V15.176z"/>
</svg>
