<?xml version="1.0" encoding="utf-8"?>
<!-- Generator: Adobe Illustrator 16.0.4, SVG Export Plug-In . SVG Version: 6.00 Build 0)  -->
<!DOCTYPE svg PUBLIC "-//W3C//DTD SVG 1.1//EN" "http://www.w3.org/Graphics/SVG/1.1/DTD/svg11.dtd">
<svg version="1.1" id="Layer_1" xmlns="http://www.w3.org/2000/svg" xmlns:xlink="http://www.w3.org/1999/xlink" x="0px" y="0px"
	 width="226.77px" height="155.91px" viewBox="0 0 226.77 155.91" enable-background="new 0 0 226.77 155.91" xml:space="preserve">
<g>
	<path d="M120.287,25.77V12.181c0-4.036-3.273-7.309-7.309-7.309c-4.036,0-7.308,3.272-7.308,7.309V25.9
		c-23.876,3.923-42.225,25.643-42.225,51.843c0,26.201,18.349,47.921,42.225,51.843v14.144c0,4.037,3.272,7.309,7.308,7.309
		c4.036,0,7.309-3.271,7.309-7.309v-14.014c24.271-3.555,43.037-25.475,43.037-51.973C163.324,51.246,144.559,29.326,120.287,25.77z
		 M78.062,77.743c0-18.062,11.834-33.187,27.608-36.979v73.958C89.896,110.931,78.062,95.805,78.062,77.743z M120.287,114.923
		V40.562c16.182,3.456,28.422,18.809,28.422,37.182S136.469,111.469,120.287,114.923z"/>
</g>
</svg>
