<?xml version="1.0" encoding="utf-8"?>
<!-- Generator: Adobe Illustrator 17.1.0, SVG Export Plug-In . SVG Version: 6.00 Build 0)  -->
<!DOCTYPE svg PUBLIC "-//W3C//DTD SVG 1.1//EN" "http://www.w3.org/Graphics/SVG/1.1/DTD/svg11.dtd">
<svg version="1.1" xmlns="http://www.w3.org/2000/svg" xmlns:xlink="http://www.w3.org/1999/xlink" x="0px" y="0px"
	 viewBox="0 0 64 64" enable-background="new 0 0 64 64" xml:space="preserve">
<g id="Imagenes">
</g>
<g id="Layer_2">
	<path d="M31,23v8.5c0.301-0.042,0.603-0.073,0.909-0.073c0.384,0,0.744,0.041,1.091,0.098V23c0-0.552-0.448-1-1-1S31,22.448,31,23z
		"/>
	<path d="M3.875,51H20.62c-0.024-0.273-0.072-1.01-0.026-2H3.875C3.392,49,3,49.392,3,49.875v0.25C3,50.608,3.392,51,3.875,51z"/>
	<path d="M4.461,45.043l15.88,3.448c0.097,0.021,0.193,0.015,0.286,0.004c0.044-0.582,0.12-1.224,0.253-1.909
		c-0.039-0.015-0.072-0.041-0.114-0.05l-15.88-3.448c-0.472-0.103-0.938,0.197-1.041,0.669l-0.053,0.244
		C3.689,44.475,3.988,44.941,4.461,45.043z"/>
	<path d="M6.769,38.342l14.347,7.239c0.167-0.627,0.388-1.267,0.668-1.903L7.669,36.556c-0.431-0.218-0.958-0.044-1.175,0.387
		l-0.113,0.223C6.164,37.598,6.337,38.124,6.769,38.342z"/>
	<path d="M22.221,42.793c0.316-0.575,0.691-1.132,1.136-1.66l-11.622-9.932c-0.367-0.314-0.92-0.271-1.234,0.097l-0.162,0.19
		c-0.314,0.367-0.271,0.92,0.097,1.234L22.221,42.793z"/>
	<path d="M23.903,40.548c0.475-0.475,0.993-0.896,1.557-1.257l-9.04-11.978c-0.291-0.386-0.84-0.462-1.226-0.171l-0.2,0.151
		c-0.386,0.291-0.462,0.84-0.171,1.226L23.903,40.548z"/>
	<path d="M21.295,23.84l-0.23,0.099c-0.444,0.191-0.649,0.706-0.458,1.15l5.866,13.639c0.46-0.221,0.944-0.411,1.453-0.568
		l-0.187-1.549l-5.295-12.312C22.254,23.855,21.739,23.649,21.295,23.84z"/>
	<path d="M28,23.031c-0.093-0.474-0.556-0.926-1.031-0.833l-0.313-0.009c-0.474,0.093-0.687,0.649-0.594,1.123l1.785,9.444
		c0.585-0.402,1.189-0.705,1.805-0.924L28,23.031z"/>
	<path d="M60.125,49H43.933c0.099,1.056,0.078,1.801,0.068,2h16.124C60.608,51,61,50.608,61,50.125v-0.25
		C61,49.392,60.608,49,60.125,49z"/>
	<path d="M43.532,46.574c0.167,0.689,0.274,1.336,0.346,1.92c0.054-0.001,0.107,0.01,0.162-0.002l15.88-3.448
		c0.472-0.103,0.772-0.569,0.669-1.041l-0.053-0.244c-0.103-0.472-0.569-0.772-1.041-0.669l-15.88,3.448
		C43.584,46.544,43.561,46.564,43.532,46.574z"/>
	<path d="M43.253,45.586l14.358-7.244c0.431-0.218,0.605-0.744,0.387-1.175l-0.113-0.223c-0.218-0.431-0.744-0.605-1.175-0.387
		l-14.197,7.163C42.816,44.343,43.061,44.971,43.253,45.586z"/>
	<path d="M42.063,42.875l11.88-10.153c0.367-0.314,0.411-0.866,0.097-1.234l-0.162-0.19c-0.314-0.367-0.866-0.411-1.234-0.097
		l-11.748,10.04C41.346,41.763,41.733,42.311,42.063,42.875z"/>
	<path d="M49.556,28.519c0.291-0.386,0.214-0.934-0.171-1.226l-0.2-0.151c-0.386-0.291-0.934-0.214-1.226,0.171l-9.134,12.101
		c0.558,0.366,1.071,0.794,1.548,1.269L49.556,28.519z"/>
	<path d="M36.119,38.167c0.608,0.186,1.19,0.409,1.734,0.685l5.92-13.763c0.191-0.444-0.014-0.959-0.458-1.15l-0.23-0.099
		c-0.444-0.191-0.959,0.014-1.15,0.458l-5.754,13.378L36.119,38.167z"/>
	<path d="M38.108,23.281c0.093-0.474-0.216-0.934-0.69-1.027l-0.245-0.048c-0.474-0.093-0.934,0.216-1.027,0.69l-1.765,8.994
		c0.95,0.358,1.604,0.818,1.842,1.001L38.108,23.281z"/>
	<path d="M39.149,42.273c-0.698-0.739-1.526-1.318-2.466-1.754c-0.265-0.123-0.539-0.235-0.823-0.333l-0.013,0.103L35,46.906V50
		h6.995C41.921,48.317,41.477,44.738,39.149,42.273z"/>
	<path d="M22.576,50H23h6v-2.695c-0.015-0.109-0.012-0.199-0.004-0.278l-0.791-6.563l-0.033-0.277
		c-0.237,0.084-0.465,0.18-0.688,0.282c-0.413,0.189-0.807,0.399-1.169,0.649c-0.304,0.209-0.584,0.446-0.851,0.697
		c-0.15,0.141-0.302,0.281-0.44,0.435c-1.902,2.125-2.351,5.061-2.43,6.906C22.58,49.468,22.573,49.759,22.576,50z"/>
	<path d="M30.009,38.716l0.121,1.001l0.032,0.267l0.565,4.685l0.127,1.05L30.887,46H33.1l0.046-0.363l0.129-1.009l0.605-4.725
		l0.023-0.182l0.128-1.001l0.125-0.981l0.452-3.528c-0.162-0.098-0.38-0.208-0.621-0.316c-0.283-0.127-0.616-0.241-0.987-0.328
		c-0.339-0.08-0.697-0.14-1.091-0.14c-0.305,0-0.608,0.041-0.909,0.102c-0.327,0.066-0.652,0.158-0.972,0.295
		c-0.193,0.082-0.384,0.175-0.574,0.282l0.437,3.628L30.009,38.716z"/>
</g>
</svg>
