<?xml version="1.0" encoding="utf-8"?>
<!-- Generator: Adobe Illustrator 16.0.0, SVG Export Plug-In . SVG Version: 6.00 Build 0)  -->
<!DOCTYPE svg PUBLIC "-//W3C//DTD SVG 1.1//EN" "http://www.w3.org/Graphics/SVG/1.1/DTD/svg11.dtd">
<svg version="1.1" id="Layer_2" xmlns="http://www.w3.org/2000/svg" xmlns:xlink="http://www.w3.org/1999/xlink" x="0px" y="0px"
	 width="96px" height="96px" viewBox="0 0 96 96" enable-background="new 0 0 96 96" xml:space="preserve">
<g>
	<path d="M86.84,21.547V9.12H74.405C66.879,3.999,57.789,1.003,48,1.003S29.121,3.999,21.595,9.12H9.125v12.474
		c-5.121,7.528-8.117,16.621-8.117,26.414c0,9.789,2.996,18.879,8.117,26.405v12.421h12.402C29.063,91.983,38.18,94.997,48,94.997
		s18.934-3.014,26.473-8.163H86.84V74.46c5.144-7.535,8.152-16.642,8.152-26.452C94.992,38.193,91.983,29.085,86.84,21.547z
		 M85.261,85.253H10.708V10.702h74.553V85.253z"/>
	<path d="M80.529,15.47H15.47V80.53h65.06V15.47z M75.92,76.107H61.582V50.315L47.814,75.971L34.445,50.315v25.792H20.113V19.941
		h14.32L48.015,45.37l13.666-25.429H75.92V76.107z"/>
</g>
</svg>
