<?xml version="1.0" encoding="utf-8"?>
<!-- Generator: Adobe Illustrator 16.0.0, SVG Export Plug-In . SVG Version: 6.00 Build 0)  -->
<!DOCTYPE svg PUBLIC "-//W3C//DTD SVG 1.1//EN" "http://www.w3.org/Graphics/SVG/1.1/DTD/svg11.dtd">
<svg version="1.1" id="Layer_1" xmlns="http://www.w3.org/2000/svg" xmlns:xlink="http://www.w3.org/1999/xlink" x="0px" y="0px"
	 width="96px" height="96px" viewBox="0 0 96 96" enable-background="new 0 0 96 96" xml:space="preserve">
<path d="M61.403,66.402c-0.661,1.813-1.486,3.564-2.469,5.234l-0.465,0.788H5.498l-0.465-0.788
	c-2.889-4.907-4.418-10.535-4.418-16.273c0-4.288,0.828-8.449,2.462-12.366c1.579-3.785,3.84-7.184,6.717-10.103
	c2.882-2.92,6.235-5.214,9.971-6.816c3.872-1.66,7.983-2.501,12.22-2.501c4.238,0,8.347,0.842,12.217,2.501
	c3.737,1.602,7.093,3.896,9.973,6.816c2.877,2.919,5.138,6.318,6.717,10.103c1.36,3.263,2.162,6.694,2.393,10.226
	c-0.486,0.109-0.951,0.265-1.388,0.468c-0.645,0.298-1.229,0.674-1.75,1.118c-0.032-1.765-0.225-3.492-0.562-5.166l0.171-2.933
	h-0.923c-3.621-11.545-14.286-19.932-26.848-19.932c-15.531,0-28.168,12.824-28.168,28.586c0,4.863,1.217,9.635,3.528,13.86h49.278
	c0.327-0.598,0.631-1.208,0.914-1.826h1.016l0.147-2.533c0.02,0.022,0.04,0.045,0.062,0.068c0.471,0.506,1.072,0.912,1.792,1.207
	C60.819,66.247,61.102,66.334,61.403,66.402z M62.195,54.387c0.854-0.395,1.808-0.592,2.86-0.592c0.761,0,1.406,0.09,1.938,0.271
	c0.536,0.18,0.972,0.423,1.311,0.728c0.262,0.234,0.467,0.494,0.621,0.781l0.36-1.497h1.703c0,0,0.083-0.708,0.751-1.561
	c1.379-1.121,3.309-1.175,3.309-1.175l-0.472,2.735h2.742l-0.621,2.629h-2.696l-0.925,4.322c-0.016,0.098-0.035,0.203-0.057,0.316
	c-0.022,0.112-0.044,0.225-0.062,0.338c-0.02,0.112-0.037,0.22-0.053,0.321c-0.013,0.102-0.021,0.186-0.021,0.253
	c0,0.301-0.146,1.103,0.44,1.507c0.934,0.443,2.592-0.508,2.855-0.763c0.251-1.905,0.764-4.456,0.764-4.456
	c0.076-0.354,0.149-0.719,0.221-1.095c0.072-0.375,0.14-0.746,0.203-1.111c0.064-0.365,0.12-0.717,0.169-1.056
	c0.05-0.337,0.089-0.646,0.118-0.925c0,0,2.855-0.529,3.574,0.089c0.178,0.262-0.246,1.668-0.273,1.84
	c-0.024,0.174-0.046,0.309-0.062,0.407h0.044c1.604-3.219,4.311-2.579,4.461-2.557l-0.838,3.505c0,0-3.525-1.936-4.635,4.018
	c-0.363,3.253-0.345,4.253-0.345,4.253h-2.774c0,0-0.765-0.188-0.765-1.365c0-0.226,0.021-0.518,0.054-0.85
	c-0.286,0.686-1.082,1.667-3.139,2.147c-0.451,0.068-0.499,0.045-0.741,0.045c-0.571,0-1.047-0.073-1.433-0.22
	c-0.383-0.146-0.69-0.351-0.919-0.61c-0.23-0.259-0.393-0.562-0.485-0.908c-0.095-0.346-0.142-0.723-0.142-1.128
	c0-0.121,0.008-0.26,0.023-0.418s0.035-0.32,0.062-0.485c0.025-0.167,0.057-0.334,0.09-0.503c0.034-0.169,0.067-0.325,0.097-0.467
	l0.925-4.446h-1.169c0.014,0.115,0.02,0.231,0.02,0.35c0,0.594-0.126,1.14-0.378,1.636c-0.251,0.496-0.673,0.926-1.264,1.286
	c-0.59,0.362-1.374,0.646-2.354,0.853c-0.977,0.207-2.196,0.322-3.655,0.345c-0.016,0.045-0.021,0.084-0.021,0.118
	c0,0.034,0,0.069,0,0.107c0,0.233,0.037,0.467,0.11,0.7c0.076,0.233,0.207,0.444,0.391,0.632c0.185,0.188,0.426,0.341,0.729,0.457
	c0.3,0.117,0.551,0.172,1.002,0.172c0.271,0,0.691-0.021,1.013-0.07l1.893-0.262c0.327-0.132,1.296-0.243,1.575-0.401
	c0,0-0.215,1.761-1.951,2.689c-0.302,0.112-0.625,0.214-0.975,0.304c-0.351,0.09-0.725,0.163-1.119,0.215s-0.799,0.079-1.211,0.079
	c-0.873,0-1.622-0.128-2.247-0.384c-0.623-0.255-1.138-0.6-1.541-1.032c-0.402-0.433-0.696-0.938-0.886-1.518
	c-0.11-0.346-0.189-0.705-0.234-1.077l-0.282,4.833h-3.641c0,0-1.401,0.08-1.401-1.121c0-1.2,0.68-12.725,0.68-12.725l-6.001,13.325
	c0,0-0.36,0.522-2.683,0.522c-2.32,0-2.76-0.281-2.841-1.882c-0.079-1.601,0.04-12.766,0.04-12.766s-4.762,13.326-4.842,13.646
	c-0.079,0.32-0.76,1.002-1.4,1.002c-0.563,0-2.228-0.001-2.623-0.001l0,0l0,0c-0.054,0-0.085,0-0.085,0l0.016-0.05
	c-1.388-1.016-9.703-7.277-9.703-7.277l-10.087,7.328L17.16,54.88L7.073,47.551H19.54l3.855-11.857l3.851,11.857h12.446l0.007-0.023
	h5.657c0,0,1.599-0.51,1.599,1.559c0,2.07,0,10.287,0,10.287l4.842-10.965c0,0,0.281-0.937,1.762-0.937s5.441,0,5.441,0
	l-0.689,11.848c0.078-0.34,0.175-0.673,0.295-1c0.327-0.887,0.793-1.666,1.398-2.335C60.61,55.315,61.34,54.783,62.195,54.387z
	 M39.683,47.574L29.627,54.88c0,0-8.932-4.292-20.231-6.949c16.015,5.916,19.556,11.528,23.719,18.713L39.683,47.574z
	 M62.267,57.841c-0.18,0.349-0.315,0.728-0.404,1.134c1.353,0.016,2.363-0.139,3.028-0.462c0.666-0.324,0.999-0.793,0.999-1.411
	c0-0.278-0.103-0.51-0.31-0.694c-0.207-0.185-0.498-0.277-0.875-0.277c-0.331,0-0.648,0.072-0.954,0.214
	c-0.304,0.143-0.582,0.342-0.834,0.593C62.665,57.19,62.448,57.49,62.267,57.841z M95.385,58.648c0,0.535-0.051,1.085-0.149,1.649
	c-0.101,0.565-0.257,1.118-0.472,1.656c-0.215,0.539-0.494,1.05-0.834,1.532c-0.339,0.482-0.751,0.902-1.233,1.26
	c-0.483,0.358-1.043,0.643-1.676,0.854c-0.635,0.211-1.356,0.316-2.165,0.316c-0.815,0-1.525-0.125-2.131-0.374
	c-0.605-0.249-1.104-0.591-1.498-1.028c-0.393-0.437-0.688-0.954-0.881-1.553c-0.193-0.6-0.29-1.245-0.29-1.938
	c0-0.558,0.054-1.125,0.161-1.701c0.107-0.576,0.274-1.132,0.499-1.667c0.227-0.535,0.515-1.038,0.865-1.508
	c0.35-0.471,0.77-0.881,1.258-1.233c0.485-0.349,1.041-0.627,1.668-0.83s1.329-0.305,2.111-0.305c0.767,0,1.443,0.115,2.034,0.344
	c0.59,0.23,1.089,0.558,1.494,0.983c0.402,0.426,0.712,0.938,0.923,1.536C95.28,57.242,95.385,57.91,95.385,58.648z M91.959,58.693
	c0-0.316-0.034-0.608-0.106-0.876c-0.071-0.267-0.178-0.497-0.317-0.689c-0.139-0.192-0.31-0.343-0.511-0.453
	c-0.199-0.109-0.434-0.164-0.696-0.164c-0.451,0-0.854,0.135-1.21,0.407c-0.353,0.271-0.652,0.622-0.896,1.051
	c-0.244,0.429-0.43,0.911-0.558,1.446c-0.13,0.535-0.193,1.07-0.193,1.605c0,0.685,0.15,1.216,0.456,1.593
	c0.305,0.377,0.699,0.566,1.187,0.566c0.465,0,0.875-0.133,1.229-0.396c0.355-0.264,0.651-0.608,0.892-1.034
	c0.238-0.426,0.42-0.906,0.542-1.441S91.959,59.235,91.959,58.693z M64.356,71.284c-1.045,0-1.544-0.775-1.544-1.785
	c0-1.03,0.588-1.731,1.512-1.731c0.456,0,0.745,0.085,1.012,0.202l0.134-1.126c-0.412-0.116-0.846-0.18-1.446-0.18
	c-1.79,0-2.769,1.253-2.769,2.835c0,1.667,0.946,2.889,2.825,2.889c0.611,0,1.057-0.052,1.49-0.18l-0.068-1.179
	C65.247,71.135,64.78,71.284,64.356,71.284z M70.739,71.039c0.01,0.414,0.033,0.796,0.065,1.222h-1.312
	c-0.055-0.288-0.055-0.648-0.066-0.818h-0.022c-0.345,0.605-1.09,0.945-1.768,0.945c-1.012,0-2.003-0.583-2.003-1.625
	c0-0.817,0.412-1.295,0.979-1.561s1.301-0.318,1.924-0.318h0.822c0-0.882-0.41-1.18-1.289-1.18c-0.635,0-1.268,0.234-1.767,0.595
	l-0.047-1.222c0.579-0.253,1.356-0.413,1.991-0.413c1.746,0,2.468,0.69,2.468,2.304v0.702
	C70.716,70.223,70.728,70.636,70.739,71.039z M69.359,69.733h-0.645c-0.668,0-1.656,0.106-1.656,0.945
	c0,0.468,0.41,0.669,0.944,0.669c0.456,0,0.813-0.191,1.045-0.488C69.294,70.55,69.359,70.158,69.359,69.733z M75.029,66.707
	c-0.156-0.042-0.312-0.042-0.456-0.042c-0.889,0-1.5,0.86-1.567,1.37h-0.023v-1.243H71.66v5.47h1.49v-2.008
	c0-0.786,0-2.229,1.212-2.229c0.267,0,0.534,0.042,0.667,0.116V66.707z M80.131,71.039c0.012,0.414,0.035,0.796,0.068,1.222h-1.313
	c-0.057-0.288-0.057-0.648-0.066-0.818h-0.022c-0.345,0.605-1.09,0.945-1.767,0.945c-1.013,0-2.004-0.583-2.004-1.625
	c0-0.817,0.412-1.295,0.979-1.561s1.301-0.318,1.924-0.318h0.822c0-0.882-0.412-1.18-1.289-1.18c-0.635,0-1.268,0.234-1.769,0.595
	l-0.045-1.222c0.579-0.253,1.357-0.413,1.99-0.413c1.747,0,2.469,0.69,2.469,2.304v0.702C80.109,70.223,80.121,70.636,80.131,71.039
	z M78.753,69.733h-0.645c-0.667,0-1.656,0.106-1.656,0.945c0,0.468,0.41,0.669,0.944,0.669c0.457,0,0.811-0.191,1.045-0.488
	C78.686,70.55,78.753,70.158,78.753,69.733z M83.756,71.284c-1.045,0-1.547-0.775-1.547-1.785c0-1.03,0.591-1.731,1.512-1.731
	c0.457,0,0.745,0.085,1.013,0.202l0.133-1.126c-0.41-0.116-0.844-0.18-1.445-0.18c-1.79,0-2.768,1.253-2.768,2.835
	c0,1.667,0.944,2.889,2.823,2.889c0.612,0,1.057-0.052,1.49-0.18l-0.067-1.179C84.645,71.135,84.178,71.284,83.756,71.284z
	 M90.137,71.039c0.011,0.414,0.032,0.796,0.065,1.222h-1.311c-0.056-0.288-0.056-0.648-0.067-0.818h-0.021
	c-0.347,0.605-1.09,0.945-1.769,0.945c-1.013,0-2.001-0.583-2.001-1.625c0-0.817,0.41-1.295,0.977-1.561
	c0.569-0.265,1.303-0.318,1.926-0.318h0.823c0-0.882-0.413-1.18-1.291-1.18c-0.633,0-1.268,0.234-1.767,0.595l-0.045-1.222
	c0.576-0.253,1.356-0.413,1.989-0.413c1.746,0,2.468,0.69,2.468,2.304v0.702C90.113,70.223,90.125,70.636,90.137,71.039z
	 M88.759,69.733h-0.646c-0.666,0-1.657,0.106-1.657,0.945c0,0.468,0.412,0.669,0.946,0.669c0.455,0,0.812-0.191,1.046-0.488
	C88.69,70.55,88.759,70.158,88.759,69.733z M92.215,68.311c0-0.467,0.478-0.606,0.879-0.606c0.543,0,0.878,0.085,1.333,0.234
	l0.101-1.073c-0.467-0.096-0.923-0.201-1.624-0.201c-1.167,0-2.244,0.52-2.244,1.699c0,1.975,2.589,1.242,2.589,2.314
	c0,0.531-0.6,0.669-0.978,0.669c-0.513,0-1.002-0.138-1.469-0.362l-0.089,1.169c0.546,0.138,1.123,0.233,1.691,0.233
	c1.212,0,2.399-0.51,2.399-1.784C94.804,68.629,92.215,69.181,92.215,68.311z"/>
</svg>
