<?xml version="1.0" encoding="utf-8"?>
<!-- Generator: Adobe Illustrator 16.0.4, SVG Export Plug-In . SVG Version: 6.00 Build 0)  -->
<!DOCTYPE svg PUBLIC "-//W3C//DTD SVG 1.1//EN" "http://www.w3.org/Graphics/SVG/1.1/DTD/svg11.dtd">
<svg version="1.1" id="Layer_1" xmlns="http://www.w3.org/2000/svg" xmlns:xlink="http://www.w3.org/1999/xlink" x="0px" y="0px"
	 width="50px" height="50px" viewBox="0 0 50 50" enable-background="new 0 0 50 50" xml:space="preserve">
<path d="M31.546,32.77c-0.134,0.382-0.495,0.637-0.9,0.637h-4.468c-0.527,0-0.954-0.427-0.954-0.953
	c0-0.527,0.427-0.955,0.954-0.955h1.748L25,29.158l-2.925,2.34h1.717c0.527,0,0.954,0.428,0.954,0.955
	c0,0.526-0.427,0.953-0.954,0.953h-4.438c-0.405,0-0.766-0.255-0.9-0.637c-0.134-0.385-0.012-0.809,0.304-1.062l5.287-4.229v-2.286
	l-1.53,1.933c-0.046,0.056-0.097,0.107-0.155,0.152l-1.949,1.551c-0.413,0.33-1.013,0.258-1.339-0.154
	c-0.328-0.411-0.26-1.012,0.153-1.338l1.862-1.481l3.112-3.93c0.026-0.033,0.065-0.048,0.095-0.076
	c0.057-0.063,0.125-0.11,0.195-0.156c0.02-0.011,0.035-0.028,0.054-0.038c0.137-0.076,0.287-0.13,0.456-0.13
	c0.14,0,0.27,0.034,0.389,0.086c0.212,0.05,0.411,0.147,0.547,0.322l3.222,4.149l1.722,1.273c0.424,0.312,0.513,0.909,0.199,1.334
	c-0.188,0.251-0.476,0.387-0.769,0.387c-0.196,0-0.396-0.061-0.565-0.188l-1.828-1.354c-0.07-0.05-0.132-0.111-0.187-0.181
	l-1.775-2.29v2.413l5.287,4.229C31.558,31.961,31.68,32.385,31.546,32.77z M24.959,20.968c1.209,0,2.188-0.982,2.188-2.187
	c0-1.208-0.979-2.188-2.188-2.188c-1.209,0-2.187,0.98-2.187,2.188C22.772,19.986,23.75,20.968,24.959,20.968z"/>
</svg>
