<?xml version="1.0" encoding="utf-8"?>
<!-- Generator: Adobe Illustrator 16.0.0, SVG Export Plug-In . SVG Version: 6.00 Build 0)  -->
<!DOCTYPE svg PUBLIC "-//W3C//DTD SVG 1.1//EN" "http://www.w3.org/Graphics/SVG/1.1/DTD/svg11.dtd">
<svg version="1.1" id="Layer_1" xmlns="http://www.w3.org/2000/svg" xmlns:xlink="http://www.w3.org/1999/xlink" x="0px" y="0px"
	 width="96px" height="96px" viewBox="0 0 96 96" enable-background="new 0 0 96 96" xml:space="preserve">
<g>
	<path d="M93.185,6.146c-1.831-3.289-5.981-4.467-9.27-2.641L59.642,17.017H8.77c-3.764,0-6.816,3.052-6.816,6.816
		s3.052,6.816,6.816,6.816h52.642c1.16,0,2.301-0.296,3.314-0.861l25.819-14.371C93.834,13.585,95.016,9.436,93.185,6.146z"/>
	<path d="M4.68,42.845v0.488h1.932l30.715,15.282L6.673,74.011H4.68v0.518v7.934v0.021h4.757c-1.639,1.049-2.735,2.872-2.735,4.964
		c0,3.264,2.645,5.907,5.907,5.907c3.262,0,5.906-2.644,5.906-5.907c0-2.092-1.096-3.915-2.735-4.964h60.962
		c-1.639,1.049-2.735,2.872-2.735,4.964c0,3.264,2.645,5.907,5.906,5.907c3.262,0,5.907-2.644,5.907-5.907
		c0-2.092-1.096-3.915-2.735-4.964h4.7v-0.021v-7.934v-0.518h-2.062L55.138,58.615l30.716-15.282h1.931v-0.49V34.86H4.68V42.845z
		 M68.274,74.011H24.191l22.042-10.966L68.274,74.011z M46.233,54.185L24.422,43.333h43.621L46.233,54.185z"/>
</g>
</svg>
