<?xml version="1.0" encoding="utf-8"?>
<!-- Generator: Adobe Illustrator 16.0.0, SVG Export Plug-In . SVG Version: 6.00 Build 0)  -->
<!DOCTYPE svg PUBLIC "-//W3C//DTD SVG 1.1//EN" "http://www.w3.org/Graphics/SVG/1.1/DTD/svg11.dtd">
<svg version="1.1" id="Layer_1" xmlns="http://www.w3.org/2000/svg" xmlns:xlink="http://www.w3.org/1999/xlink" x="0px" y="0px"
	 width="96px" height="96px" viewBox="0 0 96 96" enable-background="new 0 0 96 96" xml:space="preserve">
<g>
	<path d="M83.185,43.087c-2.344-1.258-5.644-2.311-5.759-4.745c-0.094-1.961,1.418-3.064,3.086-3.3
		c4.085-0.576,6.881,2.953,8.643,3.919c1.617-2.914,3.352-5.717,4.938-8.664c-6.142-6.248-19.002-6.667-24.899-0.621
		c-3.375,3.46-5.608,11.106-2.263,15.889c1.276,1.824,4.414,3.749,6.996,5.158c2.854,1.557,9.611,5.493,4.733,8.667
		c-5.279,3.43-10.917-2.972-13.581-4.54c-1.822,2.851-3.695,5.649-5.762,8.253c8.242,12.411,33.289,9.261,32.924-7.84
		C92.093,48.297,87.912,45.624,83.185,43.087z"/>
	<path d="M66.107,26.375c-10.151,0-20.305,0-30.453,0c-0.863,3.125-1.137,6.839-1.852,10.112c3.155,0.136,6.857-0.274,9.671,0.205
		c-1.747,10.974-3.59,21.849-5.146,33.014c3.843,0,7.684,0,11.523,0c2.097-10.833,3.313-22.54,5.557-33.219c3.02,0,6.037,0,9.053,0
		C64.907,33.012,65.438,29.624,66.107,26.375z"/>
	<path d="M1.907,69.498c7.889,0.482,16.667,0.069,24.896,0.208c0.504-3.282,1.18-6.383,1.442-9.903
		c-4.32-0.139-9.192,0.271-13.17-0.208c0.513-2.169,0.603-4.764,1.236-6.809c4.115,0,8.229,0,12.344,0
		c0.241-3.204,1.222-6.742,1.237-9.491c-3.979-0.139-8.507,0.275-12.142-0.208c0.453-2.156,0.486-4.739,1.234-6.6
		c4.389,0,8.781,0,13.171,0c0.308-3.548,1.086-6.616,1.438-10.112c-8.229,0-16.458,0-24.691,0
		C6.194,40.369,4.275,55.16,1.907,69.498z"/>
</g>
</svg>
