<?xml version="1.0" encoding="utf-8"?>
<!-- Generator: Adobe Illustrator 16.0.0, SVG Export Plug-In . SVG Version: 6.00 Build 0)  -->
<!DOCTYPE svg PUBLIC "-//W3C//DTD SVG 1.1//EN" "http://www.w3.org/Graphics/SVG/1.1/DTD/svg11.dtd">
<svg version="1.1" id="Layer_2" xmlns="http://www.w3.org/2000/svg" xmlns:xlink="http://www.w3.org/1999/xlink" x="0px" y="0px"
	 width="96px" height="96px" viewBox="0 0 96 96" enable-background="new 0 0 96 96" xml:space="preserve">
<g>
	<path fill="#040604" d="M48,8.564c-26.051,0-47.244,21.194-47.244,47.245c0,10.706,3.684,21.125,10.35,29.467l2.901-6.931
		C9.603,71.698,7.198,63.845,7.198,55.81c0-22.5,18.304-40.802,40.802-40.802c22.497,0,40.802,18.302,40.802,40.802
		c0,8.339-2.591,16.475-7.297,23.271l2.881,6.907l0.168-0.202c6.894-8.409,10.69-19.057,10.69-29.976
		C95.244,29.759,74.05,8.564,48,8.564z"/>
	<polygon fill="#040604" points="51.25,80.574 47.748,86.615 44.165,80.584 32.491,80.603 29.948,87.052 65.743,86.991 
		63.046,80.554 	"/>
	<polygon fill="#040604" points="36.646,70.074 34.947,74.383 40.473,74.374 37.916,70.072 	"/>
	<path fill="#040604" d="M76.5,67.083c1.999-4.217,3.078-8.858,3.078-13.586c0-17.411-14.167-31.578-31.578-31.578
		S16.422,36.086,16.422,53.497c0,4.392,0.939,8.706,2.68,12.679l2.481-5.927c-0.561-2.194-0.854-4.462-0.854-6.752
		c0-10.022,5.449-18.777,13.528-23.518l1.212-2.895l0.948,1.758c3.521-1.66,7.438-2.619,11.583-2.619
		c4.012,0,7.813,0.894,11.246,2.457l0.652-1.392l0.89,2.136c8.607,4.592,14.483,13.656,14.483,24.072
		c0,2.674-0.414,5.311-1.168,7.84L76.5,67.083z"/>
	<polygon fill="#040604" points="57.354,70.04 54.857,74.351 60.442,74.34 58.64,70.038 	"/>
	<path fill="#040604" d="M57.461,32.481c-2.859-1.413-5.967-2.276-9.363-2.276c-3.449,0-6.796,0.887-9.688,2.338l1.653,3.068
		c2.397-1.185,5.184-1.92,8.034-1.92c2.867,0,5.474,0.743,7.881,1.941L57.461,32.481z"/>
	<path fill="#040604" d="M69.396,50.058c-0.366-4.69-2.237-8.957-5.14-12.321L69.396,50.058z"/>
	<path fill="#040604" d="M30.643,37.986c-2.902,3.364-4.773,7.631-5.14,12.321L30.643,37.986z"/>
	<path fill="#040604" d="M53.952,39.945c-1.747-1.04-3.527-1.647-5.702-1.647c-2.732,0-4.255,0.543-5.938,1.487l1.543,2.864
		c1.229-0.698,2.213-1.131,4.395-1.131c1.686,0,3.001,0.509,4.324,1.363L53.952,39.945z"/>
	<path fill="#040604" d="M46.274,47.138c0.591-0.456,1.32-0.738,2.123-0.738c0.817,0,1.564,0.294,2.163,0.765l0.584-1.24
		c-0.783-0.538-1.729-0.857-2.747-0.857c-1.03,0-1.979,0.33-2.765,0.881L46.274,47.138z"/>
	<polygon fill="#040604" points="48.67,55.493 35.651,31.332 12.162,87.436 28.269,87.436 36.859,65.654 47.73,83.945 
		58.334,65.654 67.46,87.436 83.03,87.436 59.812,31.778 	"/>
</g>
</svg>
