<?xml version="1.0" encoding="utf-8"?>
<!-- Generator: Adobe Illustrator 16.0.0, SVG Export Plug-In . SVG Version: 6.00 Build 0)  -->
<!DOCTYPE svg PUBLIC "-//W3C//DTD SVG 1.1//EN" "http://www.w3.org/Graphics/SVG/1.1/DTD/svg11.dtd">
<svg version="1.1" id="Layer_1" xmlns="http://www.w3.org/2000/svg" xmlns:xlink="http://www.w3.org/1999/xlink" x="0px" y="0px"
	 width="96px" height="96px" viewBox="0 0 96 96" enable-background="new 0 0 96 96" xml:space="preserve">
<g>
	<path d="M54.193,44.617h1.867c0.32,0,0.7-0.175,0.7-0.583V43.1c0-0.351-0.232-0.817-0.7-0.817h-1.867
		c-0.377,0-1.05,0.321-1.05,0.817v0.816C53.144,44.208,53.786,44.617,54.193,44.617z"/>
	<path d="M37.979,44.617h1.865c0.409,0,1.052-0.409,1.052-0.7V43.1c0-0.496-0.673-0.817-1.052-0.817h-1.865
		c-0.468,0-0.701,0.466-0.701,0.817v0.934C37.277,44.441,37.656,44.617,37.979,44.617z"/>
	<path d="M31.094,43.917h-1.865c0,0-0.468,0.04-0.468,0.467s0.468,0.467,0.468,0.467h1.865c0,0,0.817-0.039,0.817-0.467
		C31.911,43.956,31.094,43.917,31.094,43.917z"/>
	<path d="M1.334,1.333v93.333h93.332V1.333H1.334z M59.852,43.917c0-0.311,0.467-1.167,1.517-1.167h2.334
		c0.778,0,1.284,0.467,1.284,0.467s0.116-1.283-0.585-1.283h-2.1c-0.544,0-0.465,0.35-0.465,0.35H59.97c0,0,0.038-1.517,2.1-1.517
		h3.266c0.74,0,1.634,0.544,1.634,1.75c0,1.207,0,3.734,0,3.734h-1.982v-0.817c0,0-0.506,0.817-1.4,0.817h-2.218
		c-1.087,0-1.517-0.972-1.517-1.4V43.917z M51.16,38.667h1.983V41.7c0,0,0.468-0.934,1.401-0.934h2.682
		c1.139,0,1.634,1.138,1.634,1.517v2.567c0,0.583-0.874,1.4-1.867,1.4h-2.448c-0.729,0-1.401-1.05-1.401-1.05v1.05H51.16V38.667z
		 M43.576,40.767h1.052V39.6l0,0h2.101v1.167h3.149v1.517h-3.149v1.633c0,0-0.204,0.817,0.815,0.817
		c1.021,0,0.815-0.817,0.815-0.817h1.519c0,0,0,0.73,0,1.05c0,0.321-0.088,1.283-1.4,1.283c-1.312,0-1.604,0-2.45,0
		c-0.845,0-1.399-1.108-1.399-1.4s0-2.567,0-2.567h-1.052V40.767z M35.179,42.283c0-0.379,0.495-1.517,1.632-1.517h2.683
		c0.934,0,1.402,0.934,1.402,0.934v-3.033h1.983v7.583h-1.983V45.2c0,0-0.673,1.05-1.402,1.05h-2.448
		c-0.993,0-1.866-0.817-1.866-1.4V42.283z M33.895,42.516c0,1.207,0,3.734,0,3.734H31.91v-0.817c0,0-0.505,0.817-1.399,0.817h-2.217
		c-1.089,0-1.517-0.972-1.517-1.4v-0.934c0-0.311,0.467-1.167,1.517-1.167h2.333c0.778,0,1.283,0.467,1.283,0.467
		s0.117-1.283-0.582-1.283h-2.101c-0.546,0-0.467,0.35-0.467,0.35h-1.867c0,0,0.039-1.517,2.1-1.517h3.269
		C33,40.767,33.895,41.311,33.895,42.516z M19.067,14.867h13.648v22.167H19.067V14.867z M23.396,44.734
		c1.02,0,0.815-0.817,0.815-0.817h1.517c0,0,0,0.73,0,1.05c0,0.321-0.088,1.283-1.398,1.283c-1.313,0-1.606,0-2.452,0
		c-0.845,0-1.398-1.108-1.398-1.4s0-2.567,0-2.567h-1.051v-1.517h1.051V39.6h2.1v1.167h3.149v1.517h-3.149v1.633
		C22.578,43.917,22.374,44.734,23.396,44.734z M17.561,46.25c-1.196,0-1.458,0-3.851,0c-2.39,0-2.099-1.633-2.099-1.633h1.982
		c0,0,0.205,0.35,0.583,0.35c0.381,0,2.334,0,2.334,0s0.467-0.059,0.467-0.35s-0.467-0.35-0.467-0.35s-2.245,0-3.267,0
		c-1.021,0-1.633-0.875-1.633-1.167s0-0.525,0-0.934c0-0.408,0.32-1.4,1.633-1.4c1.313,0,1.283,0,3.501,0
		c2.216,0,1.983,1.633,1.983,1.633h-1.983c0,0-0.03-0.467-0.585-0.467c-0.553,0-1.545,0-1.983,0c-0.437,0-0.467,0.467-0.467,0.467
		s0,0.35,0.467,0.35s1.779,0,3.268,0s1.633,1.021,1.633,1.284c0,0.262,0,0.7,0,0.933S18.756,46.25,17.561,46.25z M76.933,59.783
		c0,8.458-5.425,25.667-28.933,25.667S19.067,69.7,19.067,59.783c0-9.916,0-11.667,0-11.667h13.65v11.667
		c0,0-0.118,15.167,15.282,15.167c15.398,0,15.282-15.167,15.282-15.167V48.116h13.65C76.933,48.116,76.933,51.325,76.933,59.783z
		 M72.043,40.767c0.729,0,0.089,0,1.635,0c1.545,0,2.216,1.284,2.216,1.867s0,3.617,0,3.617h-2.1c0,0,0-2.567,0-2.8
		s-0.116-0.934-0.817-0.934c-0.699,0-0.757,0-1.399,0c-0.642,0-1.05,0.467-1.05,0.934s0,2.8,0,2.8h-2.1v-7.583h2.1v2.917
		C70.527,41.583,71.314,40.767,72.043,40.767z M76.933,37.034h-13.65V14.867h13.65V37.034z M84.411,46.25h-2.1c0,0,0-2.567,0-2.8
		s-0.118-0.934-0.818-0.934s-0.758,0-1.399,0c-0.641,0-1.049,0.467-1.049,0.934s0,2.8,0,2.8h-2.102v-5.483h2.102v0.817
		c0,0,0.787-0.817,1.516-0.817c0.729,0,0.088,0,1.633,0c1.547,0,2.218,1.284,2.218,1.867S84.411,46.25,84.411,46.25z"/>
	<path d="M62.302,44.85h1.867c0,0,0.817-0.039,0.817-0.467c0-0.427-0.817-0.467-0.817-0.467h-1.867c0,0-0.465,0.04-0.465,0.467
		S62.302,44.85,62.302,44.85z"/>
</g>
</svg>
