<?xml version="1.0" encoding="utf-8"?>
<!-- Generator: Adobe Illustrator 16.0.0, SVG Export Plug-In . SVG Version: 6.00 Build 0)  -->
<!DOCTYPE svg PUBLIC "-//W3C//DTD SVG 1.1//EN" "http://www.w3.org/Graphics/SVG/1.1/DTD/svg11.dtd">
<svg version="1.1" id="Layer_1" xmlns="http://www.w3.org/2000/svg" xmlns:xlink="http://www.w3.org/1999/xlink" x="0px" y="0px"
	 width="96px" height="96px" viewBox="0 0 96 96" enable-background="new 0 0 96 96" xml:space="preserve">
<g>
	<polygon points="48.327,41.805 39.93,30.238 27.616,55.239 36.012,55.239 40.678,45.91 48.327,55.239 55.977,45.91 60.642,55.239 
		69.037,55.239 56.724,30.238 	"/>
	<polygon points="26.684,61.77 21.087,77.443 34.52,77.443 47.208,61.77 	"/>
	<path d="M69.106,11.886c0.394-0.199,0.576-0.513,0.576-0.986c0-0.419-0.18-0.713-0.566-0.926c-0.437-0.242-1.241-0.365-2.387-0.365
		h-3.54v2.624h3.717C67.912,12.232,68.653,12.116,69.106,11.886z"/>
	<path d="M70.296,15.716c0-0.534-0.201-0.899-0.633-1.143c-0.48-0.271-1.4-0.407-2.737-0.407h-3.737v3.1h3.985
		C70.296,17.266,70.296,16.1,70.296,15.716z"/>
	<polygon points="39.558,78.749 48.327,87.891 57.097,78.749 48.327,63.636 	"/>
	<polygon points="49.447,61.77 62.134,77.443 75.569,77.443 69.971,61.77 	"/>
	<path d="M15.718,2v77.54c0,0.008,0,0.016,0,0.023v0.205h0.017c0.052,0.812,0.318,1.607,0.8,2.292
		c0.839,1.189,2.204,1.898,3.661,1.898h13.348c0.146,0,0.29-0.008,0.434-0.021l10.788,8.684C45.611,93.502,46.778,94,47.999,94
		c1.22,0,2.388-0.498,3.232-1.379l10.297-8.684c0.144,0.014,0.288,0.021,0.434,0.021h13.823c1.456,0,2.821-0.709,3.66-1.898
		c0.482-0.685,0.748-1.48,0.8-2.292h0.017v-0.205c0-0.008,0-0.016,0-0.023L80.282,2H15.718z M59.993,7.676h6.933
		c1.593,0,2.871,0.264,3.798,0.783c0.989,0.553,1.49,1.332,1.49,2.313c0,0.949-0.49,1.704-1.458,2.253
		c0.574,0.201,1.038,0.482,1.383,0.838c0.522,0.537,0.789,1.161,0.789,1.853c0,1.137-0.52,2.019-1.544,2.622
		c-0.969,0.571-2.379,0.861-4.19,0.861h-7.2V7.676z M55.832,5.057h3.252v2.105h-3.252V5.057z M56.789,7.676v11.193h-3.116V7.676
		H56.789z M51.24,5.057h3.252v2.105H51.24V5.057z M37.874,7.676h2.788v7.295l6.478-7.196h2.952v11.095h-2.766
		c-0.008-0.002-0.015,0-0.021-0.002v-7.521l-6.852,7.485h-2.579V7.676z M23.833,7.653h3.034v4.646l1.372-0.003
		c0.351-0.169,0.959-1.336,1.26-1.916c0.701-1.353,1.426-2.75,2.733-2.775c0.798-0.095,2.481-0.018,2.837,0.001l-0.014,1.948
		l-2.617,0.009l-0.085,0.013l-0.028-0.002c-0.286,0.186-0.78,1.136-1.078,1.712c-0.33,0.638-0.517,1.311-0.939,1.859
		c2.279,1.402,4.721,5.075,4.993,5.72h-3.844c-1.063-1.899-2.319-3.729-2.917-4.606l-0.347-0.582h-1.325v5.171h-3.034V7.653z
		 M48.327,22.028c14.626,0,26.495,12.036,26.495,26.867c0,3.423-0.643,6.689-1.796,9.702h-1.586
		c1.222-2.989,1.889-6.268,1.889-9.702c0-13.995-11.201-25.351-25.001-25.351S23.325,34.9,23.325,48.896
		c0,3.435,0.667,6.713,1.889,9.702h-1.586c-1.152-3.013-1.795-6.279-1.795-9.702C21.833,34.064,33.702,22.028,48.327,22.028z
		 M69.807,58.598h-42.96c-1.305-2.965-2.03-6.248-2.03-9.702c0-13.159,10.533-23.835,23.509-23.835
		c12.977,0,23.51,10.676,23.51,23.835C71.836,52.35,71.111,55.633,69.807,58.598z M61.504,78.749L51.289,66.107l7.44,12.827
		L48.327,89.779L37.926,78.935l7.462-12.827L35.149,78.749H19.244l6.53-18.285h20.944h3.218h20.945l6.529,18.285H61.504z"/>
</g>
</svg>
