<?xml version="1.0" encoding="utf-8"?>
<!-- Generator: Adobe Illustrator 16.0.0, SVG Export Plug-In . SVG Version: 6.00 Build 0)  -->
<!DOCTYPE svg PUBLIC "-//W3C//DTD SVG 1.1//EN" "http://www.w3.org/Graphics/SVG/1.1/DTD/svg11.dtd">
<svg version="1.1" id="Layer_2" xmlns="http://www.w3.org/2000/svg" xmlns:xlink="http://www.w3.org/1999/xlink" x="0px" y="0px"
	 width="96px" height="96px" viewBox="0 0 96 96" enable-background="new 0 0 96 96" xml:space="preserve">
<g>
	<path fill="#110916" d="M48,1.167C22.176,1.167,1.168,22.177,1.168,48S22.176,94.833,48,94.833S94.832,73.823,94.832,48
		S73.824,1.167,48,1.167z M48,92.888C23.248,92.888,3.111,72.751,3.111,48S23.248,3.112,48,3.112S92.889,23.249,92.889,48
		S72.752,92.888,48,92.888z"/>
	<path fill="#110916" d="M47.514,7C24.467,7,5.783,25.682,5.783,48.729s18.684,41.73,41.73,41.73s41.73-18.683,41.73-41.73
		S70.561,7,47.514,7z M52.051,79.357c-2.32,1.232-4.527,1.574-6.258,1.574c-2.135,0-3.545-0.52-3.545-0.52l-27.873-11.75
		l28.82,0.042L47.66,56.67l6.094,11.992h23.498C77.252,68.662,57.236,76.603,52.051,79.357z M74.48,66.885l-20.912,0.17
		l-4.773-9.208l5.525-10.024l5.719,12.058h11.82L61.414,28.629l-0.107-0.31l-12.889,9.506L34.443,28.14L23.656,59.88h12.906
		l4.279-12.135L46.895,57l-3.861,10.142l-21.475,0.174c-0.113-0.077-0.332-0.245-0.332-0.245l-0.068-0.05
		c-4.99-3.632-8.283-10.344-8.283-17.198c0-9.477,6.27-17.393,14.674-19.442c0.506-10.057,9.51-18.074,20.572-18.074
		c10.482,0,19.119,7.198,20.43,16.508c9.078,1.486,16.033,9.731,16.033,19.71C84.584,56.181,80.482,63.534,74.48,66.885z"/>
</g>
</svg>
