<?xml version="1.0" encoding="utf-8"?>
<!-- Generator: Adobe Illustrator 16.0.4, SVG Export Plug-In . SVG Version: 6.00 Build 0)  -->
<!DOCTYPE svg PUBLIC "-//W3C//DTD SVG 1.1//EN" "http://www.w3.org/Graphics/SVG/1.1/DTD/svg11.dtd">
<svg version="1.1" id="Layer_1" xmlns="http://www.w3.org/2000/svg" xmlns:xlink="http://www.w3.org/1999/xlink" x="0px" y="0px"
	 width="50px" height="50px" viewBox="0 0 50 50" enable-background="new 0 0 50 50" xml:space="preserve">
<path d="M34.604,27.043c-0.373-0.208-0.774-0.346-1.188-0.436v-11.32c0-0.276-0.226-0.5-0.5-0.5h-6.25c-0.276,0-0.5,0.224-0.5,0.5
	v5.5h-5.75c-0.276,0-0.5,0.224-0.5,0.5v4.5h-5.75c-0.276,0-0.5,0.224-0.5,0.5v8.25c0,0.275,0.224,0.5,0.5,0.5h6.25h2.938
	c2.076,2.443,5.479,4.604,5.674,4.725c0.08,0.051,0.173,0.076,0.267,0.076c0.093,0,0.185-0.025,0.267-0.076
	c0.264-0.166,6.457-4.088,7.172-7.328c0.153-0.455,0.229-0.93,0.229-1.406C36.961,29.369,36.057,27.843,34.604,27.043z
	 M27.164,15.787h5.25v10.719c-1.143,0.008-2.285,0.419-3.121,1.206c-0.592-0.558-1.34-0.918-2.129-1.092l0,0v-0.333v-5V15.787z
	 M14.664,26.787h5.25v7.25h-5.25V26.787z M20.914,34.037v-7.75v-4.5h5.25v4.5v0.218c-0.756-0.004-1.514,0.165-2.184,0.537
	c-1.451,0.8-2.354,2.326-2.354,3.983c0,0.481,0.076,0.955,0.213,1.356c0.121,0.541,0.397,1.099,0.763,1.654L20.914,34.037
	L20.914,34.037z M35.77,32.166c-0.506,2.277-4.619,5.366-6.477,6.578c-1.859-1.212-5.973-4.301-6.49-6.629
	c-0.117-0.35-0.176-0.717-0.176-1.09c0-1.293,0.703-2.484,1.838-3.108c0.52-0.289,1.111-0.44,1.709-0.44
	c1.061,0,2.057,0.469,2.734,1.284c0.189,0.229,0.58,0.229,0.77,0c1.062-1.276,3-1.646,4.441-0.843
	c1.137,0.625,1.842,1.814,1.842,3.107C35.961,31.396,35.902,31.764,35.77,32.166z M34.824,31.662c0,0.349-0.057,0.695-0.168,1.033
	c-0.07,0.209-0.266,0.342-0.475,0.342c-0.054,0-0.105-0.008-0.158-0.025c-0.262-0.088-0.404-0.371-0.316-0.633
	c0.078-0.234,0.117-0.477,0.117-0.717c0-0.854-0.465-1.641-1.215-2.053c-0.346-0.19-0.734-0.291-1.127-0.291
	c-0.275,0-0.5-0.225-0.5-0.5c0-0.276,0.225-0.5,0.5-0.5c0.562,0,1.119,0.144,1.608,0.416C34.16,29.322,34.824,30.443,34.824,31.662z
	 M13.863,23.918c-0.094,0.08-0.209,0.119-0.324,0.119c-0.143,0-0.283-0.061-0.381-0.176c-0.18-0.211-0.154-0.525,0.057-0.705
	l14.041-11.959c0.02-0.018,0.043-0.022,0.062-0.035h-2.279c-0.275,0-0.5-0.225-0.5-0.5c0-0.276,0.225-0.5,0.5-0.5h3.25
	c0.275,0,0.5,0.224,0.5,0.5v3.249c0,0.276-0.225,0.5-0.5,0.5c-0.277,0-0.5-0.224-0.5-0.5v-1.854L13.863,23.918z"/>
</svg>
