<?xml version="1.0" encoding="utf-8"?>
<!-- Generator: Adobe Illustrator 17.1.0, SVG Export Plug-In . SVG Version: 6.00 Build 0)  -->
<!DOCTYPE svg PUBLIC "-//W3C//DTD SVG 1.1//EN" "http://www.w3.org/Graphics/SVG/1.1/DTD/svg11.dtd">
<svg version="1.1" xmlns="http://www.w3.org/2000/svg" xmlns:xlink="http://www.w3.org/1999/xlink" x="0px" y="0px"
	 viewBox="0 0 64 64" enable-background="new 0 0 64 64" xml:space="preserve">
<g id="Imagenes">
</g>
<g id="Layer_2">
	<rect x="19" y="49" width="26" height="2"/>
	<rect x="19" y="22" width="26" height="18"/>
	<polygon points="23.162,14.681 26.242,18.681 29.324,14.681 32.407,18.681 35.49,14.681 38.57,18.681 41.653,14.681 44.737,18.681 
		45,18.34 45,14 19,14 19,17.278 20.079,18.681 	"/>
	<polygon points="45,19.978 44.737,20.319 41.653,16.319 38.57,20.319 35.49,16.319 32.407,20.319 29.324,16.319 26.242,20.319 
		23.162,16.319 20.079,20.319 19,18.918 19,21 45,21 	"/>
	<polygon points="45,46.978 44.737,47.319 41.653,43.319 38.57,47.319 35.49,43.319 32.407,47.319 29.324,43.319 26.242,47.319 
		23.162,43.319 20.079,47.319 19,45.918 19,48 45,48 	"/>
	<polygon points="23.162,41.681 26.242,45.681 29.324,41.681 32.407,45.681 35.49,41.681 38.57,45.681 41.653,41.681 44.737,45.681 
		45,45.34 45,41 19,41 19,44.278 20.079,45.681 	"/>
	<rect x="19" y="11" width="26" height="2"/>
	<rect x="19" y="4" width="2" height="6"/>
	<rect x="22" y="4" width="2" height="6"/>
	<rect x="25" y="4" width="2" height="6"/>
	<rect x="28" y="4" width="2" height="6"/>
	<rect x="31" y="4" width="2" height="6"/>
	<rect x="34" y="4" width="2" height="6"/>
	<rect x="37" y="4" width="2" height="6"/>
	<rect x="40" y="4" width="2" height="6"/>
	<rect x="43" y="4" width="2" height="6"/>
	<rect x="19" y="52" width="2" height="6"/>
	<rect x="22" y="52" width="2" height="6"/>
	<rect x="25" y="52" width="2" height="6"/>
	<rect x="28" y="52" width="2" height="6"/>
	<rect x="31" y="52" width="2" height="6"/>
	<rect x="34" y="52" width="2" height="6"/>
	<rect x="37" y="52" width="2" height="6"/>
	<rect x="40" y="52" width="2" height="6"/>
	<rect x="43" y="52" width="2" height="6"/>
</g>
</svg>
