<?xml version="1.0" encoding="utf-8"?>
<!-- Generator: Adobe Illustrator 17.1.0, SVG Export Plug-In . SVG Version: 6.00 Build 0)  -->
<!DOCTYPE svg PUBLIC "-//W3C//DTD SVG 1.1//EN" "http://www.w3.org/Graphics/SVG/1.1/DTD/svg11.dtd">
<svg version="1.1" xmlns="http://www.w3.org/2000/svg" xmlns:xlink="http://www.w3.org/1999/xlink" x="0px" y="0px"
	 viewBox="0 0 64 64" enable-background="new 0 0 64 64" xml:space="preserve">
<g id="Imagenes">
</g>
<g id="Layer_2">
	<polygon points="10.061,50 16,50 16,38 13.474,38 	"/>
	<polygon points="51.22,38 49,38 49,50 55.414,50 	"/>
	<polygon points="56,16 7,16 7,36 11.965,36 13.004,36 14.043,36 16,36 16,34 16,33 16,32 16,31 11,31 11,19 53,19 53,31 49,31 
		49,32 49,33 49,34 49,36 50.521,36 51.581,36 52.64,36 56,36 	"/>
	<polygon points="26,32 26,33 26,34 26,36 26,37 26,38 26,50 40,50 40,38 40,37 40,36 40,34 40,33 40,32 40,31 26,31 	"/>
	<polygon points="2,14 5,14 6,14 7,14 56,14 57,14 58,14 61,14 61,4 2,4 	"/>
	<polygon points="49,29 51,29 51,21 13,21 13,29 16,29 18,29 19,29 20,29 26,29 40,29 45,29 46,29 47,29 	"/>
	<polygon points="19,31 18,31 18,32 18,33 18,34 18,36 18,37 18,38 18,50 19,50 20,50 24,50 24,38 24,37 24,36 24,34 24,33 24,32 
		24,31 20,31 	"/>
	<polygon points="45,31 42,31 42,32 42,33 42,34 42,36 42,37 42,38 42,50 45,50 46,50 47,50 47,38 47,37 47,36 47,34 47,33 47,32 
		47,31 46,31 	"/>
	<polygon points="57.173,52 49,52 47,52 46,52 45,52 40,52 26,52 20,52 19,52 18,52 16,52 8.452,52 7.412,52 6,52 6,59 60,59 60,52 
		58.233,52 	"/>
</g>
</svg>
