<?xml version="1.0" encoding="utf-8"?>
<!-- Generator: Adobe Illustrator 17.1.0, SVG Export Plug-In . SVG Version: 6.00 Build 0)  -->
<!DOCTYPE svg PUBLIC "-//W3C//DTD SVG 1.1//EN" "http://www.w3.org/Graphics/SVG/1.1/DTD/svg11.dtd">
<svg version="1.1" xmlns="http://www.w3.org/2000/svg" xmlns:xlink="http://www.w3.org/1999/xlink" x="0px" y="0px"
	 viewBox="0 0 64 64" enable-background="new 0 0 64 64" xml:space="preserve">
<g id="Imagenes">
</g>
<g id="Layer_2">
	<path d="M61.979,34h-5.264c-0.291,0-0.657,0.291-0.818,0.533l-1.522,2.33c-0.161,0.242-0.299,0.698-0.354,0.983
		c-0.257,1.33-1.579,4.754-8.36,4.754c-8.441,0-7.692-12.528-7.427-15.263c0.028-0.289-0.084-0.709-0.258-0.941l-5.685-7.777
		C32.115,18.386,31.738,18,31.447,18h-3.159c-0.291,0-0.674,0.014-0.855-0.213l-3.554-4.409C23.698,13.151,23.315,13,23.024,13
		h-4.211C18.522,13,18,13.368,18,13.659v1.053C18,15.003,18.051,15,17.76,15h-3.159c-0.291,0-0.71-0.028-0.938-0.21l-4.442-3.508
		C8.995,11.101,8.575,11,8.285,11H3.02c-0.291,0-0.464,0.241-0.388,0.521l2.882,10.768C5.59,22.57,5.417,23,5.126,23H3.02
		c-0.291,0-0.36-0.029-0.154,0.176l3.467,3.369c0.206,0.206,0.493,0.476,0.643,0.726l5.775,9.626
		c0.15,0.249,0.482,0.346,0.742,0.216l1.164-0.582c0.26-0.13,0.381-0.453,0.27-0.722L7.959,18.685C7.848,18.416,7.994,18,8.285,18
		h1.053c0.291,0,0.657,0.395,0.818,0.636L20.1,33.652c0.161,0.242,0.357,0.714,0.437,0.994l1.816,6.382
		c0.08,0.28,0.338,0.654,0.576,0.82l9.666,6.772c0.238,0.167,0.662,0.257,0.947,0.197l9.364-1.956
		c0.285-0.06,0.718,0.014,0.967,0.163l4.494,2.686c0.25,0.149,0.619,0.104,0.824-0.102l1.361-1.299
		C50.758,48.105,51.16,48,51.451,48h3.159c0.291,0,0.421-0.273,0.291-0.533l-0.582-1.195c-0.13-0.26-0.069-0.653,0.137-0.859
		l6.625-6.633c0.206-0.206,0.429-0.605,0.5-0.887l0.797-3.287C62.448,34.325,62.27,34,61.979,34z"/>
</g>
</svg>
