<?xml version="1.0" encoding="utf-8"?>
<!-- Generator: Adobe Illustrator 16.0.0, SVG Export Plug-In . SVG Version: 6.00 Build 0)  -->
<!DOCTYPE svg PUBLIC "-//W3C//DTD SVG 1.1//EN" "http://www.w3.org/Graphics/SVG/1.1/DTD/svg11.dtd">
<svg version="1.1" id="Layer_1" xmlns="http://www.w3.org/2000/svg" xmlns:xlink="http://www.w3.org/1999/xlink" x="0px" y="0px"
	 width="96px" height="96px" viewBox="0 0 96 96" enable-background="new 0 0 96 96" xml:space="preserve">
<g>
	<path fill-rule="evenodd" clip-rule="evenodd" d="M88.393,63.248c-5.982-0.004-11.966-0.009-17.949,0.01
		c-0.212,0.001-0.485,0.194-0.619,0.378c-0.805,1.107-1.545,2.263-2.368,3.356c-1.753,2.329-3.698,4.472-6.048,6.229
		c-2.01,1.501-4.218,2.583-6.742,2.596L24.192,75.82c-0.536-0.001-1.134-0.203-1.593-0.487c-0.883-0.545-1.041-1.515-1.118-2.463
		c-0.17-2.121,0.476-4.117,0.977-6.137c0.66-2.667,1.309-5.336,1.97-8.003c0.686-2.766,1.379-5.529,2.068-8.295
		c0.402-1.614,0.803-3.228,1.211-4.871H5.15c-0.076,0.494-0.145,0.936-0.212,1.377c0,0.7,0,1.398,0,2.098
		c0.027,0.118,0.074,0.233,0.084,0.352c0.15,1.708,0.2,3.432,0.466,5.122c0.365,2.333,0.776,4.671,1.37,6.953
		c1.034,3.979,2.641,7.737,4.692,11.311c1.81,3.155,3.957,6.054,6.438,8.704c2.227,2.378,4.689,4.487,7.408,6.295
		c2.646,1.757,5.414,3.257,8.392,4.381c3.938,1.486,8.002,2.403,12.197,2.628c2.779,0.149,5.559-0.009,8.319-0.477
		c3.253-0.551,6.4-1.453,9.426-2.747c3.276-1.399,6.325-3.199,9.146-5.396c3.151-2.458,5.935-5.271,8.352-8.446
		c2.524-3.319,4.541-6.937,6.122-10.792c0.484-1.182,0.877-2.399,1.319-3.618C88.51,63.272,88.452,63.248,88.393,63.248z"/>
	<path fill-rule="evenodd" clip-rule="evenodd" d="M90.536,41.374c-0.345-2.007-0.651-4.028-1.144-6.001
		c-0.958-3.83-2.384-7.491-4.271-10.972c-1.369-2.526-2.933-4.923-4.736-7.154c-1.817-2.249-3.818-4.32-6.04-6.187
		c-1.994-1.675-4.121-3.154-6.364-4.459c-2.958-1.72-6.107-3.002-9.41-3.903c-2.308-0.628-4.636-1.122-7.03-1.273
		c-0.853-0.053-1.701-0.173-2.552-0.262c-0.616,0-1.233,0-1.85,0c-0.201,0.044-0.397,0.126-0.597,0.128
		c-2.602,0.042-5.15,0.447-7.677,1.052c-2.547,0.609-5.022,1.426-7.398,2.514c-3.415,1.564-6.57,3.547-9.462,5.968
		c-3.034,2.54-5.693,5.405-7.993,8.617c-2.213,3.089-3.996,6.41-5.423,9.924c-0.455,1.122-0.816,2.282-1.247,3.497
		c0.322,0,0.528,0,0.731,0l22.088,0.005c0.623,0.001,0.773-0.256,0.895-0.775c0.544-2.312,1.12-4.604,1.688-6.909
		c0.402-1.638,0.828-3.271,1.208-4.915c0.202-0.881,0.174-0.895,1.058-0.895c8.269,0,16.535-0.007,24.803,0.011
		c0.791,0.002,1.588,0.12,2.37,0.258c3.309,0.587,6.054,2.208,8.219,4.748c2.188,2.564,3.533,5.587,4.375,8.824
		c0.835,3.212,1.25,6.487,1.137,9.814c-0.041,1.208-0.038,2.422-0.168,3.622c-0.142,1.279-0.416,2.542-0.642,3.865
		c0.239,0,0.483,0,0.728,0c4.75,0,9.502,0,14.251,0c0.967,0,0.962-0.001,0.974-1.005C91.089,46.785,90.996,44.066,90.536,41.374z"/>
	<path fill-rule="evenodd" clip-rule="evenodd" d="M54.234,53.771c0.269-0.589,0.459-1.053,0.688-1.496
		c0.677-1.305,1.407-2.583,2.048-3.906c0.688-1.426,1.109-2.953,1.201-4.534c0.103-1.774-0.331-3.456-1.24-4.989
		c-0.953-1.611-2.323-2.514-4.269-2.511c-15.135,0.012-30.271,0.007-45.408,0.007c-0.266,0-0.53,0-0.894,0
		c-0.327,1.75-0.65,3.479-0.996,5.323c13.375,0,26.579,0,39.856,0c-0.094,0.331-0.153,0.564-0.228,0.793l-4.771,16.8
		c0.372,0,0.617,0,0.861,0c10.036,0,20.421,0,30.458,0c5.82,0,11.64-0.008,17.459,0.013c0.58,0.001,0.804-0.067,0.961-0.746
		l0.262-1.557c0.173-1.016,0.317-2.036,0.495-3.198C78.513,53.771,66.455,53.771,54.234,53.771z"/>
</g>
</svg>
