<?xml version="1.0" encoding="utf-8"?>
<!-- Generator: Adobe Illustrator 16.0.0, SVG Export Plug-In . SVG Version: 6.00 Build 0)  -->
<!DOCTYPE svg PUBLIC "-//W3C//DTD SVG 1.1//EN" "http://www.w3.org/Graphics/SVG/1.1/DTD/svg11.dtd">
<svg version="1.1" id="Layer_2" xmlns="http://www.w3.org/2000/svg" xmlns:xlink="http://www.w3.org/1999/xlink" x="0px" y="0px"
	 width="96px" height="96px" viewBox="0 0 96 96" enable-background="new 0 0 96 96" xml:space="preserve">
<path d="M78.094,34.781C72.995,23.217,61.428,15.122,48,15.122s-24.995,8.096-30.094,19.659H2.242v6.101h13.665
	c-0.508,2.294-0.785,4.674-0.785,7.118s0.277,4.824,0.785,7.118H2.242v6.101h15.664C23.005,72.783,34.572,80.878,48,80.878
	s24.995-8.096,30.094-19.659h15.664V34.781H78.094z M48,19.867c10.737,0,20.084,6.048,24.824,14.914H23.176
	C27.916,25.915,37.263,19.867,48,19.867z M48,76.133c-10.737,0-20.084-6.048-24.824-14.914h49.648
	C68.084,70.085,58.737,76.133,48,76.133z M75.219,55.118H20.781c-0.595-2.275-0.914-4.66-0.914-7.118s0.319-4.843,0.914-7.118
	h54.438c0.595,2.275,0.914,4.66,0.914,7.118S75.814,52.843,75.219,55.118z M87.657,55.118h-7.563
	c0.508-2.294,0.785-4.674,0.785-7.118s-0.277-4.824-0.785-7.118h7.563V55.118z"/>
</svg>
