<?xml version="1.0" encoding="utf-8"?>
<!-- Generator: Adobe Illustrator 16.0.4, SVG Export Plug-In . SVG Version: 6.00 Build 0)  -->
<!DOCTYPE svg PUBLIC "-//W3C//DTD SVG 1.1//EN" "http://www.w3.org/Graphics/SVG/1.1/DTD/svg11.dtd">
<svg version="1.1" id="Layer_1" xmlns="http://www.w3.org/2000/svg" xmlns:xlink="http://www.w3.org/1999/xlink" x="0px" y="0px"
	 width="50px" height="50px" viewBox="0 0 50 50" enable-background="new 0 0 50 50" xml:space="preserve">
<path d="M34.667,15.25H15.333c-0.276,0-0.5,0.225-0.5,0.5v18.5c0,0.275,0.224,0.5,0.5,0.5h7h5.334h7c0.276,0,0.5-0.225,0.5-0.5
	v-18.5C35.167,15.475,34.943,15.25,34.667,15.25z M34.167,33.75h-6v-9.334c0-0.275-0.224-0.5-0.5-0.5h-5.334
	c-0.276,0-0.5,0.225-0.5,0.5v9.334h-6v-17.5h18.334V33.75z M22.584,20.332c0-0.275,0.224-0.5,0.5-0.5H24.5v-1.416
	c0-0.275,0.224-0.5,0.5-0.5s0.5,0.225,0.5,0.5v1.416h1.416c0.275,0,0.5,0.225,0.5,0.5s-0.225,0.5-0.5,0.5H25.5v1.416
	c0,0.275-0.224,0.5-0.5,0.5s-0.5-0.225-0.5-0.5v-1.416h-1.416C22.808,20.832,22.584,20.607,22.584,20.332z M30.749,32.812h-1.626
	v-1.627h1.626V32.812z M33.312,32.812h-1.627v-1.627h1.627V32.812z M30.749,30.312h-1.626v-1.627h1.626V30.312z M33.312,30.312
	h-1.627v-1.627h1.627V30.312z M30.749,27.375h-1.626v-1.627h1.626V27.375z M33.312,27.375h-1.627v-1.627h1.627V27.375z
	 M30.749,24.875h-1.626v-1.627h1.626V24.875z M33.312,24.875h-1.627v-1.627h1.627V24.875z M30.749,21.75h-1.626v-1.627h1.626V21.75z
	 M33.312,21.75h-1.627v-1.627h1.627V21.75z M30.749,19.25h-1.626v-1.626h1.626V19.25z M33.312,19.25h-1.627v-1.626h1.627V19.25z
	 M18.499,32.812h-1.626v-1.627h1.626V32.812z M21.062,32.812h-1.626v-1.627h1.626V32.812z M18.499,30.312h-1.626v-1.627h1.626
	V30.312z M21.062,30.312h-1.626v-1.627h1.626V30.312z M18.499,27.375h-1.626v-1.627h1.626V27.375z M21.062,27.375h-1.626v-1.627
	h1.626V27.375z M18.499,24.875h-1.626v-1.627h1.626V24.875z M21.062,24.875h-1.626v-1.627h1.626V24.875z M18.499,21.75h-1.626
	v-1.627h1.626V21.75z M21.062,21.75h-1.626v-1.627h1.626V21.75z M18.499,19.25h-1.626v-1.626h1.626V19.25z M21.062,19.25h-1.626
	v-1.626h1.626V19.25z"/>
</svg>
