<?xml version="1.0" encoding="utf-8"?>
<!-- Generator: Adobe Illustrator 16.0.0, SVG Export Plug-In . SVG Version: 6.00 Build 0)  -->
<!DOCTYPE svg PUBLIC "-//W3C//DTD SVG 1.1//EN" "http://www.w3.org/Graphics/SVG/1.1/DTD/svg11.dtd">
<svg version="1.1" id="Layer_1" xmlns="http://www.w3.org/2000/svg" xmlns:xlink="http://www.w3.org/1999/xlink" x="0px" y="0px"
	 width="96px" height="96px" viewBox="0 0 96 96" enable-background="new 0 0 96 96" xml:space="preserve">
<path d="M90.553,46.442C90.556,20.311,72.265,0.599,48.008,0.599c-0.003,0-0.005,0-0.008,0s-0.005,0-0.008,0
	c-24.257,0-42.548,19.712-42.545,45.844c0,14.755,8.322,23.271,22.706,23.418l-0.005,8.395c-1,1.256-1.627,2.908-1.627,4.738v7.894
	c0,1.728,0.563,3.288,1.466,4.515h9.396c0.899-1.227,1.463-2.787,1.463-4.515v-1.272c0.989-0.103,1.732-0.36,2.627-0.747v2.02
	c0,1.728,0.564,3.288,1.467,4.515h4.896h0.327h4.897c0.902-1.227,1.467-2.787,1.467-4.515v-2.02
	c0.895,0.387,1.638,0.645,2.627,0.747v1.272c0,1.728,0.563,3.288,1.463,4.515h9.396c0.902-1.227,1.466-2.787,1.466-4.515v-7.894
	c0-1.83-0.627-3.482-1.628-4.738l-0.004-8.395C82.23,69.713,90.553,61.197,90.553,46.442z M32.471,46.731
	c-8.732,6.403-12.313-0.515-12.504-7.196c-0.101-3.482,0.586-13.248,15.336-13.248c6.06,0,7.327,1.939,7.327,8.115
	C42.63,38.221,39.065,41.898,32.471,46.731z M51.277,67.938c-0.916,2.579-2.603,2.208-3.114,0.636v-0.029
	c-0.038-0.103-0.063-0.216-0.091-0.328c-0.038-0.201-0.064-0.412-0.064-0.64c0,0.032-0.007,0.059-0.008,0.089
	c-0.001-0.03-0.008-0.057-0.008-0.089c0,0.228-0.026,0.438-0.064,0.64c-0.027,0.112-0.053,0.226-0.092,0.328v0.029
	c-0.511,1.572-2.197,1.943-3.113-0.636c-2.316-6.505-5.502-11.051-0.988-11.06c2.689,0,3.75,2.055,4.102,3.029l0.175,0.504
	l0.152-0.504c0.353-0.975,1.413-3.029,4.102-3.029C56.779,56.888,53.593,61.434,51.277,67.938z M76.033,39.535
	c-0.191,6.682-3.771,13.6-12.504,7.196c-6.595-4.833-10.159-8.511-10.159-12.329c0-6.176,1.268-8.115,7.327-8.115
	C75.447,26.287,76.134,36.053,76.033,39.535z"/>
</svg>
