<?xml version="1.0" encoding="utf-8"?>
<!-- Generator: Adobe Illustrator 16.0.4, SVG Export Plug-In . SVG Version: 6.00 Build 0)  -->
<!DOCTYPE svg PUBLIC "-//W3C//DTD SVG 1.1//EN" "http://www.w3.org/Graphics/SVG/1.1/DTD/svg11.dtd">
<svg version="1.1" id="Layer_1" xmlns="http://www.w3.org/2000/svg" xmlns:xlink="http://www.w3.org/1999/xlink" x="0px" y="0px"
	 width="50px" height="50px" viewBox="0 0 50 50" enable-background="new 0 0 50 50" xml:space="preserve">
<path d="M32.698,14.477H17.302c-0.276,0-0.5,0.224-0.5,0.5v4.33c0,0.275,0.224,0.5,0.5,0.5h0.622v15.217c0,0.277,0.225,0.5,0.5,0.5
	h13.152c0.275,0,0.5-0.223,0.5-0.5V19.807h0.622c0.276,0,0.5-0.225,0.5-0.5v-4.33C33.198,14.699,32.975,14.477,32.698,14.477z
	 M31.076,34.523H18.924V19.807h12.152V34.523z M32.198,18.807H17.802v-1.502h3.878c0.275,0,0.5-0.223,0.5-0.5
	c0-0.275-0.225-0.5-0.5-0.5h-3.878v-0.828h14.396V18.807z M19.993,30.23h1.706v2.102c0,0.277,0.224,0.5,0.5,0.5h5.598
	c0.276,0,0.5-0.223,0.5-0.5V30.23h1.709c0.276,0,0.5-0.226,0.5-0.5v-7.174c0-0.277-0.224-0.5-0.5-0.5H19.993
	c-0.276,0-0.5,0.223-0.5,0.5v7.174C19.493,30.006,19.717,30.23,19.993,30.23z M20.493,23.057h9.013v6.174h-1.709
	c-0.275,0-0.5,0.224-0.5,0.5v2.103h-0.852v-2.092c0-0.275-0.225-0.5-0.5-0.5c-0.276,0-0.5,0.225-0.5,0.5v2.092h-0.894v-2.092
	c0-0.275-0.224-0.5-0.5-0.5s-0.5,0.225-0.5,0.5v2.092h-0.854V29.73c0-0.276-0.223-0.5-0.5-0.5h-1.705L20.493,23.057L20.493,23.057z
	 M22.326,25.965c0-0.455,0.369-0.826,0.828-0.826c0.457,0,0.828,0.371,0.828,0.826c0,0.459-0.371,0.828-0.828,0.828
	C22.695,26.793,22.326,26.424,22.326,25.965z M26.018,25.965c0-0.455,0.371-0.826,0.828-0.826c0.456,0,0.827,0.371,0.827,0.826
	c0,0.459-0.371,0.828-0.827,0.828C26.389,26.793,26.018,26.424,26.018,25.965z"/>
</svg>
