<?xml version="1.0" encoding="utf-8"?>
<!-- Generator: Adobe Illustrator 16.0.0, SVG Export Plug-In . SVG Version: 6.00 Build 0)  -->
<!DOCTYPE svg PUBLIC "-//W3C//DTD SVG 1.1//EN" "http://www.w3.org/Graphics/SVG/1.1/DTD/svg11.dtd">
<svg version="1.1" id="Layer_1" xmlns="http://www.w3.org/2000/svg" xmlns:xlink="http://www.w3.org/1999/xlink" x="0px" y="0px"
	 width="96px" height="96px" viewBox="0 0 96 96" enable-background="new 0 0 96 96" xml:space="preserve">
<g>
	<path d="M32.572,42.189l2.725,0.032v15.024h5.029v-6.673h5.498v6.673h4.353v-6.673h5.498v6.673h5.028V42.221l2.694-0.048
		c7.774-0.079,11.554-4.038,11.554-12.105c0-8.273-2.781-15.825-7.83-21.266C62.188,3.485,55.397,0.558,48,0.558
		c-15.364,0-26.95,12.687-26.95,29.51C21.05,38.28,24.714,42.132,32.572,42.189z M56.075,14.347c10.843,0,11.346,7.179,11.274,9.74
		c-0.143,4.912-2.773,9.999-9.193,5.289c-4.847-3.552-7.466-6.254-7.466-9.062C50.689,15.773,51.618,14.347,56.075,14.347z
		 M48.002,36.82c0,0,0.537-2.596,3.128-2.596c3.315,0.006,0.974,3.348-0.729,8.128C49.603,44.605,48,43.803,48,42.088
		c0,1.64-1.679,2.212-2.213,0.685c-1.646-4.711-4.597-8.449-0.667-8.449C46.877,34.323,48.002,36.82,48.002,36.82z M39.923,14.347
		c4.457,0,5.388,1.428,5.39,5.968c0,2.808-2.622,5.51-7.468,9.062c-6.419,4.71-9.05-0.377-9.192-5.289
		C28.579,21.524,29.082,14.347,39.923,14.347z"/>
	<path d="M90.741,52.164c-0.864-1.416-2.068-2.47-3.388-3.1c0.044-1.462-0.341-3.014-1.205-4.43
		c-2.097-3.439-6.184-4.773-9.127-2.979c-2.892,1.765-3.597,5.892-1.629,9.299L48,67.66L20.608,50.955
		c1.968-3.407,1.263-7.534-1.629-9.299c-2.944-1.795-7.03-0.461-9.127,2.979c-0.864,1.416-1.249,2.968-1.205,4.43
		c-1.32,0.63-2.523,1.684-3.388,3.1c-2.097,3.439-1.412,7.683,1.531,9.478c2.892,1.764,6.885,0.501,9.013-2.808l23.334,14.23
		l-7.219,4.402c-2.128-3.308-6.12-4.572-9.013-2.808c-2.943,1.795-3.628,6.038-1.532,9.478c0.864,1.417,2.067,2.47,3.388,3.101
		c-0.044,1.461,0.341,3.013,1.205,4.429c2.098,3.439,6.184,4.773,9.127,2.979c2.893-1.765,3.598-5.892,1.63-9.299L48,78.469
		l11.277,6.877c-1.968,3.407-1.263,7.534,1.63,9.299c2.943,1.795,7.029,0.461,9.127-2.979c0.864-1.416,1.249-2.968,1.205-4.429
		c1.32-0.631,2.523-1.684,3.387-3.101c2.097-3.439,1.412-7.683-1.531-9.478c-2.893-1.765-6.885-0.5-9.013,2.808l-7.219-4.402
		l23.334-14.23c2.128,3.309,6.121,4.571,9.013,2.808C92.153,59.847,92.838,55.604,90.741,52.164z"/>
</g>
</svg>
