<?xml version="1.0" encoding="utf-8"?>
<!-- Generator: Adobe Illustrator 17.1.0, SVG Export Plug-In . SVG Version: 6.00 Build 0)  -->
<!DOCTYPE svg PUBLIC "-//W3C//DTD SVG 1.1//EN" "http://www.w3.org/Graphics/SVG/1.1/DTD/svg11.dtd">
<svg version="1.1" xmlns="http://www.w3.org/2000/svg" xmlns:xlink="http://www.w3.org/1999/xlink" x="0px" y="0px"
	 viewBox="0 0 64 64" enable-background="new 0 0 64 64" xml:space="preserve">
<g id="Imagenes">
</g>
<g id="Layer_2">
	<path d="M36.068,56.669c-0.564-0.142-1.194-0.399-1.852-0.681c-0.533-0.228-1.337-0.571-1.59-0.582
		c-0.249,0.01-1.062,0.354-1.601,0.582c-0.653,0.276-1.277,0.532-1.837,0.678c0.369,1.304,1.765,2.278,3.441,2.278
		C34.303,58.944,35.698,57.972,36.068,56.669z"/>
	<path d="M5.12,22.557c0.659,2.839,3.679,6.818,6.365,9.415c0.6-4.236,2.918-8.025,6.352-10.853
		c-0.219-0.549-0.468-1.093-0.775-1.601c-1.059-1.75-3.775-3.91-5.957-5.646c-1.833-1.458-2.891-2.316-3.325-3.005
		c-0.506-0.803-0.981-0.983-1.107-0.983c-0.036,0.026-0.17,0.242-0.194,0.774c-0.069,1.529-0.442,3.023-0.803,4.468
		C5.094,17.453,4.494,19.859,5.12,22.557z"/>
	<path d="M59.731,22.557c0.626-2.698,0.026-5.104-0.555-7.432c-0.361-1.445-0.734-2.939-0.803-4.468
		c-0.024-0.532-0.158-0.748-0.203-0.781c-0.118,0.007-0.592,0.188-1.098,0.99c-0.435,0.689-1.493,1.547-3.326,3.005
		c-2.182,1.736-4.897,3.896-5.957,5.646c-0.236,0.391-0.435,0.803-0.618,1.222c3.545,2.745,5.993,6.476,6.745,10.683
		C56.451,28.838,59.117,25.204,59.731,22.557z"/>
	<path d="M40.433,49.01c6.398-2.302,11.019-7.386,11.664-13.411c0.046-0.43,0.075-0.865,0.079-1.304
		c0-0.048,0.009-0.095,0.009-0.143c0-0.356-0.037-0.704-0.064-1.054c-0.315-4.042-2.398-7.689-5.639-10.386
		c-0.274-0.228-0.57-0.436-0.859-0.651c-0.28-0.207-0.564-0.41-0.859-0.604c-3.31-2.176-7.478-3.487-12.013-3.487
		c-4.782,0-9.16,1.452-12.549,3.846c-0.295,0.208-0.578,0.427-0.858,0.649c-0.294,0.234-0.574,0.477-0.849,0.726
		c-3.059,2.756-4.977,6.389-5.145,10.395c-0.008,0.189-0.034,0.374-0.034,0.565c0,0.212,0.028,0.418,0.038,0.627
		c0.019,0.419,0.046,0.837,0.103,1.248c0.804,5.768,5.263,10.614,11.395,12.897c1.013-2.622,4.115-4.537,7.776-4.537
		C36.33,44.386,39.455,46.344,40.433,49.01z M22.75,44.303c-3.176,0-5.75-2.574-5.75-5.75c0-3.176,2.574-5.75,5.75-5.75
		s5.75,2.574,5.75,5.75C28.5,41.728,25.926,44.303,22.75,44.303z M36.833,38.553c0-3.268,2.649-5.917,5.917-5.917
		s5.917,2.649,5.917,5.917c0,3.268-2.649,5.917-5.917,5.917S36.833,41.82,36.833,38.553z"/>
	<path d="M38.744,51.596c0.008-0.255,0.012-0.527,0.012-0.82c0-0.067-0.01-0.131-0.014-0.197c-0.021-0.336-0.093-0.663-0.215-0.976
		c-0.719-1.852-3.088-3.217-5.899-3.217c-2.778,0-5.126,1.332-5.875,3.15c-0.129,0.312-0.206,0.64-0.234,0.977
		c-0.007,0.088-0.019,0.174-0.019,0.263c0,0.274,0.003,0.526,0.01,0.766c0.052,1.865,0.366,2.75,1.918,3.25
		c0.236-0.014,0.74-0.203,1.224-0.4c0.209-0.085,0.415-0.171,0.593-0.246c0.939-0.397,1.75-0.74,2.382-0.74
		c0.635,0,1.44,0.344,2.373,0.743c0.183,0.078,0.395,0.167,0.61,0.255c0.488,0.2,0.991,0.388,1.206,0.388
		C38.349,54.308,38.685,53.406,38.744,51.596z M35.112,50.202c-0.129,0.43-0.451,0.801-0.89,1.069
		c-0.438,0.267-0.987,0.434-1.594,0.434c-0.615,0-1.171-0.171-1.612-0.445c-0.441-0.274-0.765-0.652-0.885-1.091
		c-0.035-0.127-0.053-0.258-0.053-0.392c0-1.065,1.142-1.929,2.55-1.929s2.55,0.864,2.55,1.929
		C35.178,49.923,35.153,50.064,35.112,50.202z"/>
	<circle cx="24.792" cy="39.042" r="2.042"/>
	<circle cx="40.792" cy="39.042" r="2.042"/>
</g>
</svg>
