<?xml version="1.0" encoding="utf-8"?>
<!-- Generator: Adobe Illustrator 16.0.0, SVG Export Plug-In . SVG Version: 6.00 Build 0)  -->
<!DOCTYPE svg PUBLIC "-//W3C//DTD SVG 1.1//EN" "http://www.w3.org/Graphics/SVG/1.1/DTD/svg11.dtd">
<svg version="1.1" id="Layer_1" xmlns="http://www.w3.org/2000/svg" xmlns:xlink="http://www.w3.org/1999/xlink" x="0px" y="0px"
	 width="96px" height="96px" viewBox="0 0 96 96" enable-background="new 0 0 96 96" xml:space="preserve">
<g>
	<g>
		<path d="M48,74.774l5.854-6.424l-5.595,26.44h46.667c-0.01-1.49-0.405-2.974-1.195-4.299L77.588,63.504
			c-0.975-1.633-2.427-2.794-4.063-3.467l-11.063-5.094l-5.315-4.482l-9.135,9.084l-9.156-9.084l-5.315,4.482l-11.063,5.094
			c-1.637,0.673-3.089,1.834-4.063,3.467L2.269,90.491c-0.79,1.325-1.186,2.809-1.195,4.299h46.667l-5.595-26.44L48,74.774z
			 M62.083,78.366h4.361v-4.361h5.11v4.361h4.362v5.109h-4.362v4.361h-5.11v-4.361h-4.361V78.366z"/>
	</g>
	<path d="M74.946,52.375c-8.598-6.107-7.55-26.234-7.55-26.234c0.136-1.563,0.204-3.185,0.201-4.859
		c-0.001-0.634-0.035-1.245-0.073-1.854c-0.155-3.023-0.901-5.238-0.901-5.238C64.268,6.186,57.692,1.583,48.037,1.512V1.51
		c-0.013,0-0.024,0.001-0.037,0.001S47.976,1.51,47.963,1.51v0.002c-9.655,0.071-16.23,4.674-18.586,12.678
		c0,0-0.746,2.215-0.901,5.238c-0.038,0.608-0.072,1.22-0.073,1.854c-0.003,1.675,0.065,3.296,0.201,4.859
		c0,0,1.048,20.127-7.55,26.234c-7.236,5.138,11.056,1.26,17.371-4.572c2.739,2.046,5.951,3.046,9.538,3.123l0,0
		c0.003,0,0.007,0,0.01,0c0.005,0.001,0.01,0.001,0.015,0.001c0.004,0,0.009,0,0.013,0s0.009,0,0.013,0c0.005,0,0.01,0,0.015-0.001
		c0.003,0,0.007,0,0.01,0l0,0c3.587-0.077,6.799-1.077,9.538-3.123C63.891,53.635,82.183,57.513,74.946,52.375z"/>
</g>
</svg>
