<svg width="13.471" xmlns="http://www.w3.org/2000/svg" height="20.376" viewBox="0 0 13.471 20.376" xmlns:xlink="http://www.w3.org/1999/xlink" enable-background="new 0 0 13.471 20.376">
<path d="m9.674,12.752c3.347-1.617 4.743-5.632 3.12-8.967-1.622-3.335-5.647-4.728-8.995-3.11-3.347,1.617-4.744,5.631-3.123,8.965 1.087,2.232 3.25,3.589 5.565,3.762v3.17h-2.412v1.467h2.412v2.337h1.468v-2.337h2.411v-1.467h-2.411v-3.217c.665-.098 1.328-.295 1.965-.603zm-7.137-4.01c-1.124-2.311-.156-5.093 2.165-6.213 2.318-1.121 5.109-.155 6.232,2.155 1.125,2.313 .156,5.095-2.162,6.214-2.32,1.121-5.11,.156-6.235-2.156z"/>
</svg>
