<?xml version="1.0" encoding="utf-8"?>
<!-- Generator: Adobe Illustrator 16.0.4, SVG Export Plug-In . SVG Version: 6.00 Build 0)  -->
<!DOCTYPE svg PUBLIC "-//W3C//DTD SVG 1.1//EN" "http://www.w3.org/Graphics/SVG/1.1/DTD/svg11.dtd">
<svg version="1.1" id="Layer_1" xmlns="http://www.w3.org/2000/svg" xmlns:xlink="http://www.w3.org/1999/xlink" x="0px" y="0px"
	 width="50px" height="50px" viewBox="0 0 50 50" enable-background="new 0 0 50 50" xml:space="preserve">
<path d="M29.77,22.547c0-2.629-2.14-4.768-4.77-4.768s-4.769,2.139-4.769,4.768c0,2.459,1.876,4.465,4.269,4.719v1.504h-1.954
	c-0.276,0-0.5,0.225-0.5,0.5c0,0.276,0.224,0.5,0.5,0.5H24.5v1.951c0,0.276,0.224,0.5,0.5,0.5s0.5-0.224,0.5-0.5V29.77h1.951
	c0.275,0,0.5-0.224,0.5-0.5c0-0.275-0.225-0.5-0.5-0.5H25.5v-1.504C27.893,27.012,29.77,25.006,29.77,22.547z M21.231,22.547
	c0-2.077,1.69-3.768,3.769-3.768s3.77,1.689,3.77,3.768s-1.69,3.77-3.77,3.77S21.231,24.625,21.231,22.547z"/>
</svg>
