<?xml version="1.0" encoding="utf-8"?>
<!-- Generator: Adobe Illustrator 16.0.0, SVG Export Plug-In . SVG Version: 6.00 Build 0)  -->
<!DOCTYPE svg PUBLIC "-//W3C//DTD SVG 1.1//EN" "http://www.w3.org/Graphics/SVG/1.1/DTD/svg11.dtd">
<svg version="1.1" id="Layer_1" xmlns="http://www.w3.org/2000/svg" xmlns:xlink="http://www.w3.org/1999/xlink" x="0px" y="0px"
	 width="96px" height="96px" viewBox="0 0 96 96" enable-background="new 0 0 96 96" xml:space="preserve">
<path d="M74.286,1.5c-9.697,0-10.944,9.983-5.47,19.411c-0.988,0.387-1.997,0.885-3.011,1.561
	C57.2,28.2,52.686,42.641,52.326,65.394c-0.705-0.069-1.419-0.117-2.151-0.117c-0.868,0-1.713,0.062-2.542,0.157
	c-0.269-23.2-4.787-37.904-13.488-43.697c-2.11-1.404-4.202-2.107-6.104-2.408C32.493,10.4,30.87,1.5,21.714,1.5
	c-7.362,0-13.329,9.813-13.329,21.917c0,12.104,5.967,21.917,13.329,21.917c6.634,0,12.131-9.145,6.211-18.756
	c0.73,0.22,1.499,0.555,2.279,1.074c3.957,2.635,10.348,11.344,10.343,39.98c-3.501,1.955-5.746,4.946-5.746,8.307
	c0,4.98,4.93,9.151,11.585,10.323v4.45c0,2.089,1.699,3.787,3.787,3.787c2.088,0,3.787-1.698,3.787-3.787v-4.45
	c6.656-1.172,11.586-5.343,11.586-10.323c0-3.485-2.421-6.57-6.149-8.516c0.092-19.322,3.148-29.344,6.302-34.545
	c-1.017,6.953,3.439,12.455,8.585,12.455c7.362,0,13.329-9.813,13.329-21.917C87.614,11.313,81.647,1.5,74.286,1.5z"/>
</svg>
