<?xml version="1.0" encoding="utf-8"?>
<!-- Generator: Adobe Illustrator 16.0.0, SVG Export Plug-In . SVG Version: 6.00 Build 0)  -->
<!DOCTYPE svg PUBLIC "-//W3C//DTD SVG 1.1//EN" "http://www.w3.org/Graphics/SVG/1.1/DTD/svg11.dtd">
<svg version="1.1" id="Layer_1" xmlns="http://www.w3.org/2000/svg" xmlns:xlink="http://www.w3.org/1999/xlink" x="0px" y="0px"
	 width="96px" height="96px" viewBox="0 0 96 96" enable-background="new 0 0 96 96" xml:space="preserve">
<g>
	<path d="M75.108,52.344c-8.598-6.107-7.55-26.234-7.55-26.234c0.136-1.563,0.204-3.185,0.201-4.859
		c-0.001-0.634-0.035-1.245-0.073-1.854c-0.155-3.023-0.901-5.238-0.901-5.238C64.43,6.154,57.854,1.552,48.199,1.48V1.479
		c-0.013,0-0.024,0.001-0.037,0.001s-0.024-0.001-0.037-0.001V1.48c-9.655,0.071-16.23,4.674-18.586,12.678
		c0,0-0.746,2.215-0.901,5.238c-0.038,0.608-0.072,1.22-0.073,1.854c-0.003,1.675,0.065,3.296,0.201,4.859
		c0,0,1.048,20.127-7.55,26.234c-7.236,5.138,11.056,1.26,17.371-4.572c2.739,2.046,5.951,3.046,9.538,3.123l0,0
		c0.003,0,0.007,0,0.01,0c0.005,0.001,0.01,0.001,0.015,0.001c0.004,0,0.009,0,0.013,0s0.009,0,0.013,0c0.005,0,0.01,0,0.015-0.001
		c0.003,0,0.007,0,0.01,0l0,0c3.587-0.077,6.799-1.077,9.538-3.123C64.053,53.604,82.345,57.481,75.108,52.344z"/>
	<path d="M93.731,90.223L77.588,63.235c-0.975-1.633-2.427-2.794-4.063-3.467l-11.063-5.094l-5.315-4.481l-9.135,9.084l-9.156-9.084
		l-5.315,4.481l-11.063,5.094c-1.637,0.673-3.089,1.834-4.063,3.467L2.269,90.223c-0.79,1.325-1.186,2.81-1.195,4.299l42.114-0.029
		L48,64.439l4.813,30.053l42.114,0.029C94.917,93.032,94.521,91.548,93.731,90.223z M75.917,83.207h-4.362v4.361h-5.11v-4.361
		h-4.361v-5.109h4.361v-4.361h5.11v4.361h4.362V83.207z"/>
</g>
</svg>
