<?xml version="1.0" encoding="utf-8"?>
<!-- Generator: Adobe Illustrator 16.0.0, SVG Export Plug-In . SVG Version: 6.00 Build 0)  -->
<!DOCTYPE svg PUBLIC "-//W3C//DTD SVG 1.1//EN" "http://www.w3.org/Graphics/SVG/1.1/DTD/svg11.dtd">
<svg version="1.1" id="Layer_1" xmlns="http://www.w3.org/2000/svg" xmlns:xlink="http://www.w3.org/1999/xlink" x="0px" y="0px"
	 width="96px" height="96px" viewBox="0 0 96 96" enable-background="new 0 0 96 96" xml:space="preserve">
<g>
	<path d="M72.005,48.647c0,0.002,0,0.004,0,0.006h-0.011c-0.03-0.713-0.224-1.417-0.603-2.051l-8.288-13.856
		c-0.5-0.838-1.246-1.435-2.086-1.779l-5.68-2.616l-2.729-2.301l-4.69,4.664l-4.701-4.664l-2.729,2.301l-5.68,2.616
		c-0.841,0.345-1.586,0.941-2.087,1.779l-8.288,13.856c-0.378,0.634-0.573,1.338-0.603,2.051h-0.011c0-0.002,0-0.004,0-0.006H4.315
		v13.354h87.369V48.647H72.005z M45.465,48.647l2.448-15.282l2.447,15.282H45.465z M62.246,43.001h-2.24v2.239h-2.624v-2.239h-2.239
		v-2.623h2.239v-2.24h2.624v2.24h2.24V43.001z"/>
	<path d="M43.08,24.807c1.406,1.05,3.056,1.564,4.897,1.603c0.001,0,0.003,0,0.005,0c0.003,0.001,0.005,0.001,0.007,0.001
		c0.002,0,0.005,0,0.007,0c0.001,0,0.004,0,0.006,0c0.002,0,0.005,0,0.007-0.001c0.001,0,0.003,0,0.005,0
		c1.841-0.039,3.491-0.553,4.897-1.603c3.242,2.995,12.634,4.986,8.918,2.347c-4.414-3.136-3.876-13.469-3.876-13.469
		c0.07-0.803,0.104-1.635,0.104-2.495c0-0.326-0.018-0.64-0.038-0.952c-0.08-1.552-0.463-2.689-0.463-2.689
		c-1.209-4.108-4.585-6.473-9.542-6.508V1.04c-0.006,0-0.012,0-0.019,0c-0.007,0-0.013,0-0.02,0v0.001
		c-4.958,0.036-8.333,2.4-9.542,6.508c0,0-0.383,1.138-0.463,2.689c-0.019,0.313-0.037,0.626-0.038,0.952
		c-0.001,0.741,0.037,1.452,0.089,2.151c1.181,1.491,3.277,3.259,6.77,3.764c0.374-0.368,0.876-0.579,1.415-0.579h2.032
		c1.12,0,2.032,0.911,2.032,2.032c0,1.12-0.912,2.032-2.032,2.032h-2.032c-0.481,0-0.942-0.174-1.307-0.483
		c-3.022-0.338-5.28-1.466-6.942-2.773c-0.251,3.292-1.096,7.901-3.797,9.82C30.445,29.793,39.837,27.802,43.08,24.807z"/>
	<rect x="9.87" y="64.513" width="76.261" height="30.448"/>
</g>
</svg>
