<?xml version="1.0" encoding="utf-8"?>
<!-- Generator: Adobe Illustrator 16.0.0, SVG Export Plug-In . SVG Version: 6.00 Build 0)  -->
<!DOCTYPE svg PUBLIC "-//W3C//DTD SVG 1.1//EN" "http://www.w3.org/Graphics/SVG/1.1/DTD/svg11.dtd">
<svg version="1.1" id="Layer_1" xmlns="http://www.w3.org/2000/svg" xmlns:xlink="http://www.w3.org/1999/xlink" x="0px" y="0px"
	 width="96px" height="96px" viewBox="0 0 96 96" enable-background="new 0 0 96 96" xml:space="preserve">
<g>
	<path d="M18.599,47.902c0.377,0.204,0.817,0.35,1.309,0.54c0.5,0.178,1.027,0.388,1.673,0.462c0.642,0.082,1.32,0.208,2.113,0.157
		c0.4-0.024,0.81-0.087,1.241-0.15c0.214-0.036,0.434-0.066,0.657-0.114c0.224-0.076,0.451-0.155,0.68-0.232
		c1.893-0.542,3.803-2.167,5.102-4.074c0.685-0.998,1.167-2.017,1.53-3.036c3.45,5.443,8.536,8.464,15.042,8.426
		c0.087-0.001,0.428-0.005,0.466-0.006c11.888-0.297,19.73-11.505,19.694-28.206C68.087,9.621,60.302,2.573,47.349,2.859
		c-6.773,0.155-11.884,2.276-15.132,6.106c-0.517-0.141-1.053-0.285-1.699-0.333c-0.404-0.026-0.824-0.021-1.264-0.009
		c-0.221,0.011-0.44,0-0.677,0.039c-0.243,0.054-0.489,0.108-0.736,0.164c-0.502,0.129-1.02,0.251-1.534,0.494
		c-0.511,0.264-1.037,0.567-1.562,0.905c-0.963,0.722-1.905,1.723-2.53,2.733c-1.33,2.066-1.94,4.296-2.222,6.191
		c-0.3,1.944-0.364,3.817-0.287,5.542c0.063,1.759,0.244,3.41,0.46,4.982c0.234,1.585,0.48,3.038,0.748,4.422
		c0.233,1.238,0.461,2.457,0.683,3.636c0.17,1.001,0.344,1.906,0.448,2.426c0.059,0.196,0.055,0.267,0.087,0.408
		c0.03,0.135,0.064,0.295,0.062,0.401c0.01,0.148,0.021,0.294,0.029,0.438c-0.04,0.128-0.089,0.256-0.124,0.43
		c-0.188,0.648-0.777,1.308-1.448,1.872c-0.303,0.342-0.705,0.511-1.046,0.773c-0.353,0.237-0.689,0.473-1.015,0.675
		c-0.658,0.342-1.213,0.701-1.598,0.905c-0.387,0.221-0.604,0.364-0.604,0.364s0.184,0.162,0.55,0.42
		C17.305,47.086,17.853,47.495,18.599,47.902z"/>
	<path d="M93.731,88.851L77.588,61.864c-0.975-1.633-2.427-2.795-4.063-3.467l-11.063-5.094l-5.315-4.482l-9.135,9.084l-9.156-9.084
		l-5.315,4.482l-11.063,5.094c-1.637,0.672-3.089,1.834-4.063,3.467L2.269,88.851c-0.79,1.326-1.186,2.811-1.195,4.299h93.854
		C94.917,91.661,94.521,90.177,93.731,88.851z"/>
</g>
</svg>
