<?xml version="1.0" encoding="utf-8"?>
<!-- Generator: Adobe Illustrator 16.0.0, SVG Export Plug-In . SVG Version: 6.00 Build 0)  -->
<!DOCTYPE svg PUBLIC "-//W3C//DTD SVG 1.1//EN" "http://www.w3.org/Graphics/SVG/1.1/DTD/svg11.dtd">
<svg version="1.1" id="Layer_1" xmlns="http://www.w3.org/2000/svg" xmlns:xlink="http://www.w3.org/1999/xlink" x="0px" y="0px"
	 width="96px" height="96px" viewBox="0 0 96 96" enable-background="new 0 0 96 96" xml:space="preserve">
<g>
	<path fill-rule="evenodd" clip-rule="evenodd" d="M1.523,47.813C16.951,32.374,32.437,16.879,47.976,1.33
		c15.457,15.331,30.953,30.701,46.501,46.123C79.054,63.241,63.682,78.979,48.355,94.67C32.699,79.005,17.091,63.388,1.523,47.813z
		 M33.424,26.216c-0.064,0.014-0.128,0.028-0.191,0.042c-0.051,0.179-0.112,0.355-0.147,0.537
		c-0.678,3.403-1.354,6.806-2.027,10.209c-1.613,8.138-3.226,16.276-4.836,24.415c-0.141,0.71-0.109,0.766,0.504,0.767
		c3.257,0.004,6.515-0.005,9.772,0.009c0.443,0.002,0.639-0.166,0.673-0.59c0.052-0.657,0.114-1.312,0.182-1.967
		c0.339-3.314,0.679-6.626,1.022-9.938c0.104-0.991,0.219-1.979,0.33-2.968c0.041-0.007,0.083-0.013,0.124-0.021
		c3.221,5.09,6.444,10.181,9.753,15.409c3.224-5.203,6.34-10.23,9.498-15.326c0.078,0.16,0.117,0.205,0.123,0.255
		c0.59,4.901,1.185,9.802,1.757,14.707c0.064,0.545,0.25,0.76,0.831,0.756c3.334-0.024,6.669-0.01,10.005-0.014
		c0.705,0,0.738-0.045,0.563-0.739c-2.91-11.503-5.821-23.004-8.735-34.505c-0.048-0.19-0.131-0.372-0.197-0.556
		c-0.058-0.006-0.115-0.013-0.171-0.02c-4.48,7.416-8.961,14.83-13.494,22.333C43.604,41.345,38.515,33.78,33.424,26.216z"/>
</g>
</svg>
