<?xml version="1.0" encoding="utf-8"?>
<!-- Generator: Adobe Illustrator 16.0.4, SVG Export Plug-In . SVG Version: 6.00 Build 0)  -->
<!DOCTYPE svg PUBLIC "-//W3C//DTD SVG 1.1//EN" "http://www.w3.org/Graphics/SVG/1.1/DTD/svg11.dtd">
<svg version="1.1" id="Layer_1" xmlns="http://www.w3.org/2000/svg" xmlns:xlink="http://www.w3.org/1999/xlink" x="0px" y="0px"
	 width="50px" height="50px" viewBox="0 0 50 50" enable-background="new 0 0 50 50" xml:space="preserve">
<path d="M33.656,15.881l-2.514,0.059l1.645-1.189c0.225-0.162,0.274-0.475,0.112-0.698c-0.162-0.224-0.476-0.275-0.698-0.112
	l-2.269,1.64c-0.55-1.53-2.502-2.264-5.937-2.195c-3.459,0.083-6.447,0.926-7.611,2.149c-0.377,0.396-0.563,0.824-0.552,1.271
	c0.033,1.412,2.005,2.344,4.512,2.768v3.121c0,1.655,1.224,3.019,2.812,3.262v0.68c-0.293,0.174-0.5,0.48-0.5,0.847v8.134
	c0,0.552,0.448,1,1,1c0.552,0,1-0.448,1-1v-8.134c0-0.365-0.207-0.672-0.5-0.847v-0.68c1.588-0.244,2.812-1.607,2.812-3.262v-3.17
	c0.713-0.16,1.31-0.379,1.779-0.667c0.638-0.391,1.044-0.919,1.231-1.542l2.196,1.564c0.089,0.062,0.189,0.093,0.29,0.093
	c0.156,0,0.311-0.073,0.408-0.21c0.16-0.225,0.108-0.537-0.117-0.697l-1.582-1.125l2.504-0.059c0.275-0.007,0.494-0.236,0.487-0.512
	C34.161,16.093,33.913,15.865,33.656,15.881z M21.344,22.695v-2.981c0.592,0.066,1.201,0.104,1.812,0.117v5.119
	C22.122,24.721,21.344,23.798,21.344,22.695z M25.97,22.695c0,1.103-0.779,2.025-1.812,2.255v-5.118
	c0.671-0.016,1.261-0.07,1.812-0.142V22.695z M28.228,18.004c-0.823,0.504-2.203,0.783-4.102,0.828
	c-0.175,0.004-0.349,0.006-0.521,0.006c-4.33,0-6.753-1.216-6.772-2.058c-0.004-0.172,0.088-0.36,0.276-0.557
	c0.41-0.43,1.175-0.81,2.144-1.115l0.023,1.023c0.006,0.272,0.229,0.489,0.5,0.489c0.003,0,0.007,0,0.011,0
	c0.276-0.006,0.495-0.235,0.489-0.511l-0.029-1.268c0.545-0.125,1.126-0.229,1.744-0.305l0.028,1.216
	c0.006,0.272,0.229,0.488,0.5,0.488c0.004,0,0.008,0,0.012,0c0.276-0.007,0.495-0.236,0.488-0.512l-0.03-1.292
	c0.339-0.025,0.682-0.044,1.03-0.053c0.167-0.004,0.329-0.006,0.486-0.006c0.194,0,0.364,0.011,0.546,0.017l0.032,1.287
	c0.007,0.272,0.229,0.488,0.5,0.488c0.004,0,0.008,0,0.013,0c0.275-0.007,0.494-0.236,0.487-0.512l-0.028-1.194
	c1.986,0.219,3.022,0.892,3.051,2.025C29.121,17.146,28.842,17.627,28.228,18.004z"/>
</svg>
