<?xml version="1.0" encoding="utf-8"?>
<!-- Generator: Adobe Illustrator 16.0.4, SVG Export Plug-In . SVG Version: 6.00 Build 0)  -->
<!DOCTYPE svg PUBLIC "-//W3C//DTD SVG 1.1//EN" "http://www.w3.org/Graphics/SVG/1.1/DTD/svg11.dtd">
<svg version="1.1" id="Layer_1" xmlns="http://www.w3.org/2000/svg" xmlns:xlink="http://www.w3.org/1999/xlink" x="0px" y="0px"
	 width="226.77px" height="155.91px" viewBox="0 0 226.77 155.91" enable-background="new 0 0 226.77 155.91" xml:space="preserve">
<g>
	<path d="M159.039,29.331c0-3.3-2.668-5.94-5.941-5.94H73.727c-3.3,0-5.94,2.667-5.94,5.94c0,3.3,2.668,5.94,5.94,5.94h79.371
		C156.371,35.299,159.039,32.631,159.039,29.331z"/>
	<path d="M67.731,86.893c0,3.301,2.668,5.941,5.941,5.941h33.772v33.745c0,3.3,2.668,5.94,5.94,5.94c3.301,0,5.94-2.668,5.94-5.94
		V92.834h33.745c3.301,0,5.941-2.668,5.941-5.941c0-3.271-2.668-5.939-5.941-5.939h-33.745V47.208c0-3.3-2.667-5.94-5.94-5.94
		c-3.3,0-5.94,2.667-5.94,5.94v33.718H73.699C70.399,80.926,67.731,83.593,67.731,86.893z"/>
</g>
</svg>
