<?xml version="1.0" encoding="utf-8"?>
<!-- Generator: Adobe Illustrator 16.0.4, SVG Export Plug-In . SVG Version: 6.00 Build 0)  -->
<!DOCTYPE svg PUBLIC "-//W3C//DTD SVG 1.1//EN" "http://www.w3.org/Graphics/SVG/1.1/DTD/svg11.dtd">
<svg version="1.1" id="Layer_1" xmlns="http://www.w3.org/2000/svg" xmlns:xlink="http://www.w3.org/1999/xlink" x="0px" y="0px"
	 width="96px" height="96px" viewBox="0 0 96 96" enable-background="new 0 0 96 96" xml:space="preserve">
<path d="M50.893,67.622c-0.379-0.185-0.795-0.255-1.244-0.216c-0.688,0.061-1.229,0.338-1.623,0.832
	c-0.394,0.496-0.556,1.147-0.485,1.957c0.037,0.429,0.166,0.826,0.385,1.193c0.22,0.366,0.52,0.646,0.901,0.836
	c0.38,0.189,0.799,0.264,1.258,0.225c0.423-0.037,0.81-0.172,1.157-0.404c0.349-0.232,0.605-0.552,0.77-0.96
	c0.166-0.407,0.227-0.858,0.184-1.353c-0.041-0.487-0.174-0.916-0.397-1.283C51.574,68.081,51.273,67.805,50.893,67.622z
	 M51.188,71.279c-0.283,0.369-0.668,0.576-1.152,0.617c-0.477,0.041-0.887-0.092-1.233-0.402c-0.346-0.311-0.543-0.758-0.595-1.346
	c-0.064-0.733,0.054-1.271,0.355-1.614C48.865,68.191,49.243,68,49.7,67.96c0.321-0.028,0.618,0.028,0.891,0.167
	c0.271,0.143,0.488,0.354,0.647,0.639c0.16,0.284,0.259,0.623,0.294,1.021C51.586,70.414,51.473,70.912,51.188,71.279z
	 M61.893,67.372l0.314,0.483l-3.062,1.987l-2.664-4.102l2.965-1.927l0.316,0.485l-2.424,1.573l0.814,1.256l2.271-1.475l0.313,0.482
	l-2.27,1.475l0.906,1.396L61.893,67.372z M35.38,63.277l-3.578,3.336l-0.425-0.457l2.994-2.792l-3.964,1.753l-0.398-0.428
	l2.081-3.875l-3.046,2.84l-0.426-0.457l3.578-3.336l0.665,0.713l-1.745,3.208c-0.163,0.298-0.286,0.521-0.37,0.665
	c0.168-0.08,0.418-0.196,0.751-0.346l3.288-1.463L35.38,63.277z M55.975,68.982c-0.109-0.047-0.259-0.082-0.449-0.104
	c0.423-0.214,0.703-0.471,0.836-0.77c0.137-0.299,0.146-0.609,0.033-0.938c-0.086-0.255-0.23-0.465-0.432-0.633
	c-0.201-0.166-0.423-0.253-0.666-0.262c-0.242-0.01-0.57,0.057-0.982,0.199l-2.051,0.705l1.592,4.625l0.611-0.211l-0.707-2.054
	l0.709-0.245c0.158-0.054,0.274-0.085,0.35-0.096c0.103-0.008,0.209,0,0.322,0.027c0.11,0.027,0.25,0.095,0.416,0.203
	c0.166,0.106,0.387,0.269,0.661,0.483l0.943,0.752l0.771-0.265l-1.238-0.982C56.45,69.232,56.209,69.085,55.975,68.982z
	 M54.895,68.562l-1.316,0.453l-0.527-1.531l1.465-0.504c0.342-0.117,0.618-0.133,0.824-0.047c0.208,0.086,0.35,0.239,0.424,0.457
	c0.051,0.149,0.059,0.303,0.021,0.457c-0.038,0.156-0.125,0.291-0.265,0.401C55.383,68.361,55.173,68.465,54.895,68.562z
	 M63.23,63.559l3.129,0.572l-0.575,0.557l-2.099-0.399c-0.119-0.022-0.246-0.054-0.381-0.086c0.045,0.202,0.073,0.345,0.086,0.425
	l0.301,2.08l-0.559,0.54l-0.41-3.147l-2.828-0.527l0.555-0.534l1.511,0.285c0.313,0.058,0.547,0.112,0.7,0.159
	c-0.045-0.205-0.081-0.426-0.109-0.67l-0.191-1.617l0.506-0.489L63.23,63.559z M35.984,63.583l2.933,1.978l-0.323,0.479
	l-2.396-1.617l-0.838,1.242l2.244,1.515l-0.321,0.475l-2.244-1.514l-0.931,1.381l2.49,1.681l-0.323,0.478l-3.026-2.041
	L35.984,63.583z M46.13,67.648c-0.212-0.119-0.535-0.209-0.967-0.271l-2.147-0.302l-0.681,4.845l0.64,0.09l0.302-2.151l0.744,0.105
	c0.167,0.023,0.283,0.046,0.355,0.072c0.095,0.039,0.186,0.095,0.273,0.17s0.18,0.197,0.279,0.37c0.1,0.17,0.223,0.416,0.37,0.731
	l0.499,1.099l0.807,0.112l-0.658-1.438c-0.132-0.28-0.278-0.52-0.442-0.718c-0.077-0.093-0.194-0.19-0.353-0.296
	c0.474,0.002,0.839-0.101,1.094-0.305c0.257-0.205,0.408-0.479,0.456-0.822c0.038-0.267,0.005-0.519-0.097-0.76
	C46.5,67.945,46.342,67.766,46.13,67.648z M45.852,69.268c-0.104,0.121-0.243,0.2-0.418,0.237c-0.173,0.038-0.407,0.037-0.7-0.005
	l-1.378-0.193l0.225-1.604l1.533,0.216c0.36,0.05,0.612,0.16,0.757,0.331c0.147,0.171,0.202,0.372,0.17,0.6
	C46.019,69.007,45.956,69.145,45.852,69.268z M42.648,67.582l-1.5-0.605l-1.616,4l-0.6-0.244l1.617-4l-1.496-0.604l0.217-0.533
	l3.595,1.451L42.648,67.582z M53.421,28.384c-0.048-0.164-0.048-0.336,0.001-0.51l0.332,0.07c-0.025,0.135-0.021,0.252,0.01,0.353
	c0.03,0.101,0.098,0.195,0.199,0.282c0.102,0.088,0.229,0.154,0.375,0.199c0.131,0.04,0.253,0.055,0.365,0.048
	c0.111-0.009,0.203-0.039,0.273-0.092c0.069-0.054,0.117-0.12,0.142-0.2c0.026-0.082,0.022-0.16-0.007-0.236
	c-0.027-0.076-0.09-0.151-0.187-0.225c-0.062-0.049-0.202-0.139-0.424-0.269c-0.222-0.13-0.372-0.235-0.452-0.315
	c-0.105-0.102-0.173-0.212-0.205-0.327c-0.031-0.115-0.027-0.231,0.01-0.351c0.041-0.13,0.114-0.242,0.224-0.333
	c0.11-0.092,0.245-0.145,0.405-0.161c0.162-0.014,0.33,0.005,0.504,0.058c0.193,0.059,0.354,0.142,0.482,0.249
	c0.127,0.106,0.213,0.232,0.256,0.377c0.041,0.145,0.043,0.295,0.002,0.449l-0.338-0.076c0.032-0.169,0.012-0.312-0.065-0.427
	c-0.077-0.115-0.216-0.203-0.415-0.265c-0.209-0.063-0.371-0.071-0.49-0.024c-0.119,0.047-0.195,0.125-0.227,0.232
	c-0.029,0.094-0.019,0.18,0.031,0.261c0.047,0.081,0.2,0.195,0.461,0.344c0.26,0.149,0.436,0.263,0.524,0.342
	c0.129,0.116,0.215,0.239,0.254,0.367c0.039,0.129,0.037,0.264-0.006,0.403c-0.042,0.138-0.121,0.256-0.238,0.354
	c-0.116,0.098-0.259,0.159-0.428,0.181c-0.169,0.023-0.347,0.006-0.532-0.051c-0.236-0.072-0.423-0.167-0.56-0.284
	C53.561,28.69,53.466,28.549,53.421,28.384z M57.9,30.653l1.318-2.377l0.314,0.174l-1.318,2.377L57.9,30.653z M48.46,26.74
	l0.416,0.029c0.093,0.006,0.159,0.016,0.199,0.026c0.056,0.018,0.106,0.046,0.159,0.084c0.052,0.038,0.107,0.103,0.168,0.194
	c0.062,0.09,0.141,0.222,0.234,0.391l0.318,0.589l0.452,0.031l-0.421-0.771c-0.084-0.15-0.174-0.278-0.271-0.381
	c-0.046-0.048-0.115-0.098-0.208-0.15c0.263-0.018,0.461-0.087,0.595-0.211c0.135-0.123,0.209-0.28,0.222-0.472
	c0.01-0.15-0.019-0.289-0.085-0.417s-0.16-0.221-0.283-0.278c-0.122-0.058-0.305-0.096-0.545-0.112l-1.202-0.084l-0.19,2.711
	l0.358,0.025L48.46,26.74z M48.544,25.533l0.856,0.061c0.203,0.014,0.346,0.065,0.434,0.155c0.088,0.089,0.126,0.197,0.117,0.326
	c-0.006,0.087-0.035,0.167-0.09,0.238c-0.053,0.071-0.125,0.121-0.221,0.148c-0.096,0.028-0.226,0.036-0.389,0.024l-0.771-0.054
	L48.544,25.533z M56.359,29.856l0.975-2.19l-0.818-0.364l0.131-0.294l1.967,0.877l-0.129,0.293l-0.821-0.366l-0.976,2.19
	L56.359,29.856z M52.802,28.49l-2.003-0.317l0.426-2.684l1.94,0.307l-0.05,0.317l-1.586-0.251l-0.131,0.822l1.485,0.235l-0.05,0.315
	l-1.484-0.235l-0.146,0.914l1.647,0.26L52.802,28.49z M38.74,28.831c-0.132-0.063-0.281-0.079-0.449-0.047
	c0.084-0.114,0.132-0.231,0.141-0.351c0.01-0.12-0.011-0.232-0.063-0.335c-0.057-0.111-0.143-0.201-0.259-0.271
	c-0.115-0.07-0.24-0.101-0.377-0.093c-0.137,0.009-0.297,0.059-0.482,0.153L36.34,28.35l1.234,2.421l0.923-0.47
	c0.155-0.079,0.278-0.159,0.37-0.24c0.093-0.081,0.161-0.165,0.205-0.254c0.044-0.089,0.064-0.194,0.063-0.316
	c-0.002-0.122-0.031-0.24-0.089-0.353C38.974,28.997,38.873,28.895,38.74,28.831z M36.808,28.473l0.483-0.247
	c0.175-0.089,0.303-0.14,0.386-0.154c0.083-0.014,0.16,0,0.229,0.042c0.07,0.042,0.125,0.103,0.166,0.183
	c0.043,0.084,0.058,0.166,0.046,0.243c-0.012,0.077-0.053,0.149-0.122,0.215c-0.053,0.05-0.149,0.111-0.292,0.183l-0.523,0.267
	L36.808,28.473z M38.716,29.732c-0.034,0.057-0.084,0.11-0.151,0.161c-0.038,0.029-0.108,0.07-0.212,0.123l-0.603,0.307
	l-0.424-0.833l0.56-0.285c0.153-0.079,0.279-0.125,0.375-0.141c0.096-0.015,0.184,0,0.264,0.042c0.081,0.043,0.144,0.11,0.189,0.201
	c0.04,0.077,0.058,0.152,0.057,0.228C38.767,29.611,38.75,29.677,38.716,29.732z M42.102,27.348
	c-0.064-0.275-0.067-0.528-0.008-0.758c0.058-0.229,0.172-0.42,0.342-0.572s0.371-0.254,0.605-0.308
	c0.266-0.062,0.503-0.046,0.716,0.048c0.211,0.093,0.381,0.253,0.508,0.482l-0.326,0.16c-0.106-0.179-0.228-0.297-0.365-0.359
	c-0.137-0.061-0.294-0.071-0.472-0.03c-0.203,0.047-0.361,0.135-0.475,0.264c-0.115,0.13-0.18,0.283-0.198,0.46
	c-0.016,0.177-0.006,0.352,0.035,0.527c0.051,0.225,0.13,0.414,0.234,0.567c0.104,0.152,0.235,0.255,0.393,0.306
	c0.159,0.051,0.318,0.058,0.479,0.021c0.196-0.046,0.349-0.14,0.459-0.285c0.109-0.145,0.162-0.334,0.159-0.568l0.371,0.007
	c-0.006,0.305-0.088,0.554-0.244,0.75c-0.156,0.196-0.372,0.325-0.648,0.389c-0.286,0.066-0.53,0.061-0.736-0.013
	c-0.206-0.076-0.381-0.212-0.525-0.411C42.262,27.826,42.16,27.6,42.102,27.348z M39.465,28.504l-0.563-1.465l0.336-0.129
	l0.562,1.464c0.084,0.22,0.167,0.375,0.248,0.463c0.081,0.089,0.182,0.143,0.303,0.161c0.122,0.018,0.255,0,0.4-0.056
	c0.246-0.095,0.401-0.218,0.463-0.371c0.062-0.152,0.033-0.387-0.09-0.706l-0.562-1.464l0.336-0.129l0.563,1.467
	c0.098,0.255,0.146,0.468,0.146,0.64c0,0.173-0.057,0.334-0.172,0.486c-0.115,0.152-0.294,0.274-0.539,0.368
	c-0.237,0.092-0.447,0.126-0.63,0.102c-0.183-0.023-0.336-0.1-0.46-0.231C39.681,28.973,39.568,28.773,39.465,28.504z M45.154,26.96
	l-0.109-1.567l0.358-0.025l0.109,1.565c0.017,0.236,0.051,0.408,0.102,0.516c0.052,0.109,0.134,0.189,0.244,0.242
	c0.111,0.052,0.244,0.074,0.398,0.063c0.264-0.018,0.448-0.092,0.552-0.219c0.103-0.127,0.143-0.361,0.12-0.701l-0.11-1.565
	l0.359-0.025l0.109,1.567c0.02,0.271,0.004,0.49-0.047,0.655c-0.05,0.165-0.153,0.303-0.307,0.414
	c-0.154,0.113-0.361,0.177-0.623,0.196c-0.254,0.018-0.465-0.011-0.632-0.087c-0.167-0.076-0.292-0.195-0.372-0.356
	C45.224,27.472,45.174,27.248,45.154,26.96z M67.275,22.938l-0.111,0.106l-3.419,3.242c-4.449-3.256-9.933-5.183-15.867-5.184
	v-0.001h-0.009v0.001c-5.85,0.001-11.262,1.875-15.676,5.049l-3.142-3.103l-0.114-0.112H-0.029l0.732,0.672l10.042,9.21l0.715,0.655
	l10.047,9.215c-0.345,1.716-0.531,3.491-0.531,5.308h-0.002v0.01h0.002c0,1.875,0.194,3.705,0.56,5.473l-0.009,0.006l0.055,0.221
	c0.024,0.098,0.048,0.189,0.072,0.286c0.279,1.227,0.641,2.423,1.082,3.581c0.022,0.063,0.044,0.125,0.067,0.191
	c0.204,0.565,0.477,1.176,0.769,1.772c0.396,0.832,0.83,1.642,1.306,2.424l0.228,0.396l0.016-0.016
	c1.07,1.695,2.32,3.268,3.731,4.678c4.866,4.867,11.591,7.879,19.018,7.879v0.002h0.009v-0.002c7.425,0,14.147-3.012,19.013-7.877
	c1.356-1.356,2.563-2.862,3.606-4.483l0.021,0.019l0.246-0.429c0.008-0.015,0.018-0.03,0.025-0.045
	c0.839-1.363,1.557-2.808,2.145-4.317c0.033-0.082,0.07-0.162,0.103-0.244c0.017-0.045,0.03-0.09,0.047-0.136
	c0.071-0.192,0.138-0.388,0.205-0.583c0.062-0.179,0.125-0.357,0.181-0.537c0.334-1.035,0.606-2.098,0.813-3.185
	c0.015-0.068,0.03-0.136,0.046-0.205l0.046-0.215l-0.015-0.015c0.263-1.509,0.408-3.059,0.408-4.643v-0.01
	c0-1.851-0.195-3.655-0.553-5.401l10.18-9.173l0.748-0.674l10.135-9.134l0.75-0.672H67.275z M47.868,21.874L47.868,21.874
	l0.009,0.001v-0.001c5.712,0,10.993,1.842,15.294,4.955l-6.631,6.289c-2.545-1.485-5.503-2.34-8.663-2.341v-0.001h-0.01v0.001
	c-3.147,0.001-6.096,0.851-8.635,2.327l-6.482-6.401C37.02,23.666,42.234,21.875,47.868,21.874z M47.877,31.336L47.877,31.336
	c4.6-0.001,8.766,1.867,11.781,4.883c1.068,1.069,1.98,2.29,2.727,3.617l-1.031,0.877l-6.252-5.735l-0.267-0.244l-0.262,0.249
	l-0.371,0.352l-6.484,6.149l-6.227-6.149l-0.265-0.26l-0.27,0.253l-5.986,5.596l-1.483-1.303c0.725-1.244,1.594-2.393,2.605-3.404
	c3.015-3.015,7.18-4.881,11.775-4.882v0.001H47.877z M20.357,40.583l-7.628-6.997l12.705-0.012l7.983,7.012L20.357,40.583z
	 M21.747,48.007h0.002v-0.01h-0.002c0-1.603,0.155-3.169,0.432-4.692l5.17,4.741l-5.144,4.808
	C21.909,51.283,21.747,49.664,21.747,48.007z M66.346,66.473c-4.728,4.728-11.257,7.652-18.465,7.653v-0.002h-0.009v0.002
	c-7.21,0-13.742-2.927-18.47-7.655c-1.406-1.406-2.648-2.975-3.706-4.669l6.692-6.278c0.841,1.732,1.959,3.307,3.306,4.653h0.001
	c2.69,2.691,6.271,4.487,10.257,4.931l1.369,1.256l0.259,0.238l0.261-0.235l1.339-1.207c4.233-0.318,8.045-2.152,10.872-4.979
	c1.322-1.322,2.425-2.863,3.261-4.557l6.619,6.367C68.898,63.613,67.699,65.119,66.346,66.473z M32.814,55.123l1.113-1.043
	l11.305,10.368c-3.542-0.564-6.716-2.238-9.142-4.665v-0.001C34.746,58.438,33.636,56.861,32.814,55.123z M49.867,64.541
	l11.729-10.57l1.295,1.245c-0.82,1.702-1.914,3.248-3.234,4.569C57.083,62.359,53.67,64.087,49.867,64.541z M73.027,55.033
	c-0.094,0.343-0.192,0.681-0.299,1.017c-0.052,0.162-0.106,0.321-0.162,0.481c-0.065,0.193-0.131,0.387-0.203,0.578
	c-0.053,0.141-0.11,0.279-0.165,0.42c-0.271,0.671-0.566,1.334-0.896,1.986c-0.303,0.604-0.627,1.203-0.962,1.797L55.098,46.645
	l-0.25-0.239l-0.265,0.221l-6.736,5.609l-6.608-5.608l-0.263-0.223l-0.252,0.236L25.289,61.124c-0.01-0.017-0.02-0.035-0.03-0.054
	c-0.236-0.418-0.501-0.901-0.762-1.41c-0.001-0.002-0.002-0.004-0.003-0.008c-0.07-0.137-0.14-0.277-0.209-0.418
	c-0.298-0.623-0.567-1.262-0.815-1.91c-0.214-0.605-0.405-1.176-0.582-1.766c-0.167-0.552-0.322-1.115-0.479-1.734
	c-0.007-0.028-0.013-0.055-0.02-0.083l18.824-17.595l6.23,6.15l0.265,0.262L47.98,42.3l6.864-6.509L73.527,52.93
	C73.372,53.646,73.211,54.346,73.027,55.033z M74,48.004c0,1.369-0.107,2.713-0.311,4.025l-4.926-4.52l4.785-4.314
	C73.84,44.752,74,46.354,74,47.994h-0.002v0.01H74z M75.273,40.602l-12.365-0.198l8.061-6.874l12.165-0.012L75.273,40.602z"/>
</svg>
