<?xml version="1.0" encoding="utf-8"?>
<!-- Generator: Adobe Illustrator 17.1.0, SVG Export Plug-In . SVG Version: 6.00 Build 0)  -->
<!DOCTYPE svg PUBLIC "-//W3C//DTD SVG 1.1//EN" "http://www.w3.org/Graphics/SVG/1.1/DTD/svg11.dtd">
<svg version="1.1" xmlns="http://www.w3.org/2000/svg" xmlns:xlink="http://www.w3.org/1999/xlink" x="0px" y="0px"
	 viewBox="0 0 64 64" enable-background="new 0 0 64 64" xml:space="preserve">
<g id="Imagenes">
</g>
<g id="Layer_2">
	<polygon points="33,15 29,15 21,29 41,29 	"/>
	<path d="M7.147,37.562l4.139-4l4.137,4l4.14-4l4.138,4l4.14-4l4.142,4l4.142-4l4.142,4l4.141-4l4.141,4l4.142-3.999l4.149,4
		l1.634-1.575C58.998,33.739,59,32,59,32H5c0,0,0.003,1.743,0.529,3.997L7.147,37.562z"/>
	<path d="M47,46c3.583,0,6.096-1.249,7.858-3H9.142c1.762,1.751,4.275,3,7.858,3C26,46,39,46,47,46z"/>
	<path d="M56.833,40.359l-4.142-3.993l-4.143,4.001l-4.141-4l-4.141,4l-4.142-4l-4.142,4l-4.142-4l-4.14,4l-4.138-4l-4.141,4
		l-4.136-4l-4.122,3.984C7.478,40.919,7.84,41.473,8.254,42h47.492C56.158,41.476,56.518,40.924,56.833,40.359z"/>
</g>
</svg>
