<?xml version="1.0" encoding="utf-8"?>
<!-- Generator: Adobe Illustrator 16.0.4, SVG Export Plug-In . SVG Version: 6.00 Build 0)  -->
<!DOCTYPE svg PUBLIC "-//W3C//DTD SVG 1.1//EN" "http://www.w3.org/Graphics/SVG/1.1/DTD/svg11.dtd">
<svg version="1.1" id="Layer_1" xmlns="http://www.w3.org/2000/svg" xmlns:xlink="http://www.w3.org/1999/xlink" x="0px" y="0px"
	 width="226.77px" height="155.91px" viewBox="0 0 226.77 155.91" enable-background="new 0 0 226.77 155.91" xml:space="preserve">
<path d="M155.408,55.183h-44.801c-2.2,0-4.125,1.54-4.648,3.686l-9.873,42.739L81.592,80.98c-0.88-1.266-2.337-2.035-3.877-2.035
	h-6.353c-2.64,0-4.758,2.117-4.758,4.758s2.118,4.758,4.758,4.758h3.878l19.196,27.31c0.908,1.292,2.365,2.035,3.905,2.035
	c0.303,0,0.605-0.027,0.908-0.083c1.843-0.357,3.3-1.76,3.713-3.602l11.441-49.422h41.006c2.641,0,4.758-2.118,4.758-4.758
	S158.021,55.183,155.408,55.183z M148.891,51.635c-0.908,0-1.568-0.413-1.568-1.292c0-0.578,0.248-1.018,0.77-1.375l6.326-4.373
	c1.293-0.88,1.953-1.623,1.953-2.475c0-0.88-0.633-1.375-1.678-1.375c-0.99,0-1.871,0.522-2.503,1.045
	c-0.22,0.192-0.55,0.413-0.99,0.413c-0.743,0-1.292-0.578-1.292-1.32c0-0.385,0.191-0.77,0.467-1.018
	c1.018-0.962,2.53-1.76,4.428-1.76c2.75,0,4.538,1.512,4.538,3.658c0,1.623-0.771,2.833-3.136,4.483l-4.098,2.805h4.098
	c0.716,0,1.266,0.578,1.266,1.265c0,0.715-0.578,1.265-1.266,1.265h-7.314V51.635z"/>
</svg>
