<?xml version="1.0" encoding="utf-8"?>
<!-- Generator: Adobe Illustrator 16.0.4, SVG Export Plug-In . SVG Version: 6.00 Build 0)  -->
<!DOCTYPE svg PUBLIC "-//W3C//DTD SVG 1.1//EN" "http://www.w3.org/Graphics/SVG/1.1/DTD/svg11.dtd">
<svg version="1.1" id="Layer_1" xmlns="http://www.w3.org/2000/svg" xmlns:xlink="http://www.w3.org/1999/xlink" x="0px" y="0px"
	 width="50px" height="50px" viewBox="0 0 50 50" enable-background="new 0 0 50 50" xml:space="preserve">
<path d="M30.584,23.792c-0.276,0-0.5,0.224-0.5,0.5v0.833H19.917v-3.75c0-0.276-0.224-0.5-0.5-0.5s-0.5,0.224-0.5,0.5v7.25
	c0,0.275,0.224,0.5,0.5,0.5s0.5-0.225,0.5-0.5v-1h10.167v1c0,0.275,0.224,0.5,0.5,0.5c0.275,0,0.5-0.225,0.5-0.5v-4.333
	C31.084,24.015,30.86,23.792,30.584,23.792z M19.917,26.625v-0.5h10.167v0.5H19.917z M20.688,24.062c0-0.276,0.224-0.5,0.5-0.5H23.5
	c0.276,0,0.5,0.224,0.5,0.5s-0.224,0.5-0.5,0.5h-2.312C20.912,24.562,20.688,24.339,20.688,24.062z"/>
</svg>
