<?xml version="1.0" encoding="utf-8"?>
<!-- Generator: Adobe Illustrator 16.0.0, SVG Export Plug-In . SVG Version: 6.00 Build 0)  -->
<!DOCTYPE svg PUBLIC "-//W3C//DTD SVG 1.1//EN" "http://www.w3.org/Graphics/SVG/1.1/DTD/svg11.dtd">
<svg version="1.1" id="Layer_1" xmlns="http://www.w3.org/2000/svg" xmlns:xlink="http://www.w3.org/1999/xlink" x="0px" y="0px"
	 width="96px" height="96px" viewBox="0 0 96 96" enable-background="new 0 0 96 96" xml:space="preserve">
<g>
	<rect x="80.83" y="16.252" width="14.82" height="4.261"/>
	<path d="M58.173,14.897H37.01c-5.018,0-9.23,3.467-10.399,8.126H6.738v-1.595c0-1.764-1.431-3.194-3.194-3.194
		S0.35,19.665,0.35,21.429v7.702c0,1.764,1.431,3.193,3.194,3.193c0.013,0,0.023-0.003,0.036-0.003v0.003h92.07v-9.301H68.573
		C67.404,18.364,63.191,14.897,58.173,14.897z M37.01,19.544h21.163c2.42,0,4.498,1.43,5.479,3.479h-32.12
		C32.513,20.974,34.591,19.544,37.01,19.544z"/>
	<path d="M84.17,66.584c-1.294,0-2.506,0.342-3.558,0.935V64.09H76.44L55.783,49.943L75.369,36.53H63.033l-13.418,9.188
		L36.197,36.53H23.861l19.586,13.413L22.79,64.09h-4.172v3.429c-1.052-0.593-2.264-0.935-3.558-0.935
		c-4.009,0-7.259,3.249-7.259,7.259s3.25,7.26,7.259,7.26c4.01,0,7.26-3.25,7.26-7.26c0-0.986-0.198-1.927-0.556-2.784h55.701
		c-0.357,0.857-0.556,1.798-0.556,2.784c0,4.01,3.25,7.26,7.26,7.26c4.009,0,7.259-3.25,7.259-7.26S88.179,66.584,84.17,66.584z
		 M35.126,64.09l14.489-9.923l14.489,9.923H35.126z"/>
</g>
</svg>
