<?xml version="1.0" encoding="utf-8"?>
<!-- Generator: Adobe Illustrator 16.0.0, SVG Export Plug-In . SVG Version: 6.00 Build 0)  -->
<!DOCTYPE svg PUBLIC "-//W3C//DTD SVG 1.1//EN" "http://www.w3.org/Graphics/SVG/1.1/DTD/svg11.dtd">
<svg version="1.1" id="Layer_1" xmlns="http://www.w3.org/2000/svg" xmlns:xlink="http://www.w3.org/1999/xlink" x="0px" y="0px"
	 width="96px" height="96px" viewBox="0 0 96 96" enable-background="new 0 0 96 96" xml:space="preserve">
<g>
	<path d="M80.396,8.949c-0.229-2.175-2.418-6.284-9.048-6.284L25.822,2.617c-4.835,0-8.012,2.554-8.089,6.425l-4.797,42.394h71.27
		L80.396,8.949z M37.527,45.131H20.036l4.025-35.844l0.008-0.348l13.458,0.015V45.131z M54.306,26.141H42.731V8.956l11.575,0.005
		V26.141z M59.505,45.131V8.965l14.337,0.011l3.424,36.155H59.505z"/>
	<path d="M88.753,57.672v13.444H72.087v-8.263h12.239v-7.27H12.624v7.27h11.484v8.263H7.247V57.672H1.646v20.166H2.4h4.847h16.86
		v15.545h47.978V77.838h16.667h5.602v-6.722V57.672H88.753z M66.486,71.116H29.709v-8.263h36.777V71.116z"/>
</g>
</svg>
