<?xml version="1.0" encoding="utf-8"?>
<!-- Generator: Adobe Illustrator 16.0.4, SVG Export Plug-In . SVG Version: 6.00 Build 0)  -->
<!DOCTYPE svg PUBLIC "-//W3C//DTD SVG 1.1//EN" "http://www.w3.org/Graphics/SVG/1.1/DTD/svg11.dtd">
<svg version="1.1" id="Layer_1" xmlns="http://www.w3.org/2000/svg" xmlns:xlink="http://www.w3.org/1999/xlink" x="0px" y="0px"
	 width="50px" height="50px" viewBox="0 0 50 50" enable-background="new 0 0 50 50" xml:space="preserve">
<path d="M35.886,28.451c-0.165,0.104-0.349,0.152-0.529,0.152c-0.333,0-0.659-0.166-0.85-0.471
	c-1.021-1.635-2.382-2.929-4.042-3.845c-0.303-0.168-0.467-0.472-0.494-0.793c-2.091-0.968-4.453-1.322-6.813-0.959
	c-1.107,0.172-2.15,0.503-3.127,0.952c-0.026,0.324-0.19,0.631-0.496,0.8c-1.66,0.914-3.02,2.208-4.042,3.843
	c-0.189,0.305-0.516,0.473-0.849,0.473c-0.181,0-0.364-0.051-0.529-0.152c-0.468-0.293-0.611-0.91-0.318-1.377
	c1.205-1.93,2.811-3.457,4.773-4.538c0.335-0.186,0.726-0.146,1.026,0.052c1.064-0.491,2.202-0.853,3.409-1.04
	c2.559-0.395,5.124-0.008,7.394,1.044c0.301-0.2,0.694-0.241,1.035-0.056c1.962,1.083,3.567,2.609,4.771,4.536
	C36.496,27.541,36.354,28.158,35.886,28.451z"/>
</svg>
