<?xml version="1.0" encoding="utf-8"?>
<!-- Generator: Adobe Illustrator 16.0.0, SVG Export Plug-In . SVG Version: 6.00 Build 0)  -->
<!DOCTYPE svg PUBLIC "-//W3C//DTD SVG 1.1//EN" "http://www.w3.org/Graphics/SVG/1.1/DTD/svg11.dtd">
<svg version="1.1" id="Layer_1" xmlns="http://www.w3.org/2000/svg" xmlns:xlink="http://www.w3.org/1999/xlink" x="0px" y="0px"
	 width="96px" height="96px" viewBox="0 0 96 96" enable-background="new 0 0 96 96" xml:space="preserve">
<path d="M89.476,38.523c-1.945,0-3.613,2.37-4.323,5.746h-9.866c-0.658-5.132-2.57-9.874-5.423-13.911l-0.903-1.216l3.135-3.186
	c2.74,1.666,5.39,2.059,6.7,0.749c1.831-1.831,0.346-6.282-3.314-9.943c-3.662-3.662-8.113-5.146-9.944-3.315
	c-1.44,1.441-0.822,4.501,1.285,7.522l-2.963,3.013c-4.202-3.363-9.29-5.662-14.856-6.477l-0.397-0.034V13.77
	c3.375-0.709,5.746-2.377,5.746-4.324c0-2.589-4.197-4.688-9.375-4.688c-5.177,0-9.374,2.099-9.374,4.688
	c0,1.947,2.371,3.615,5.745,4.324v3.562c-5.754,0.579-11.051,2.734-15.448,6.027l-8.577-8.635c1.472-2.604,1.767-5.067,0.52-6.317
	c-1.831-1.831-6.283-0.345-9.944,3.314c-3.661,3.662-5.146,8.113-3.314,9.944c1.497,1.495,4.744,0.777,7.879-1.536l8.173,8.227
	c-3.702,4.432-6.188,9.908-6.957,15.914h-2.829c-0.71-3.376-2.378-5.746-4.323-5.746c-2.59,0-4.688,4.196-4.688,9.375
	c0,5.177,2.098,9.375,4.688,9.375c1.945,0,3.613-2.372,4.323-5.746h2.742c0.658,6.234,3.167,11.926,6.968,16.51l-6.56,6.674
	c-2.878-1.866-5.719-2.355-7.089-0.985c-1.831,1.831-0.346,6.282,3.314,9.944c3.661,3.662,8.113,5.146,9.944,3.314
	c1.38-1.382,0.874-4.252-1.027-7.151l6.666-6.782c4.416,3.332,9.745,5.516,15.54,6.099v3.082c-3.374,0.708-5.745,2.376-5.745,4.323
	c0,2.589,4.197,4.688,9.374,4.688c5.178,0,9.375-2.099,9.375-4.688c0-1.947-2.371-3.615-5.746-4.323v-3.206
	c5.874-0.782,11.236-3.204,15.603-6.801l2.345,2.359c-1.893,2.894-2.394,5.755-1.016,7.132c1.831,1.831,6.283,0.348,9.944-3.314
	s5.146-8.113,3.314-9.944c-1.374-1.372-4.225-0.879-7.108,1l-2.452-2.47c3.215-4.234,5.363-9.314,6.061-14.843l0.207-0.617h9.65
	c0.71,3.374,2.378,5.746,4.323,5.746c2.59,0,4.688-4.198,4.688-9.375C94.163,42.72,92.065,38.523,89.476,38.523z M40.979,41.097
	c-4.157,4.94-10.29,6.622-13.698,3.755c-3.408-2.866-2.801-9.197,1.357-14.139c4.157-4.941,10.291-6.623,13.698-3.756
	C45.744,29.824,45.136,36.155,40.979,41.097z"/>
</svg>
