<?xml version="1.0" encoding="utf-8"?>
<!-- Generator: Adobe Illustrator 16.0.4, SVG Export Plug-In . SVG Version: 6.00 Build 0)  -->
<!DOCTYPE svg PUBLIC "-//W3C//DTD SVG 1.1//EN" "http://www.w3.org/Graphics/SVG/1.1/DTD/svg11.dtd">
<svg version="1.1" id="Layer_1" xmlns="http://www.w3.org/2000/svg" xmlns:xlink="http://www.w3.org/1999/xlink" x="0px" y="0px"
	 width="50px" height="50px" viewBox="0 0 50 50" enable-background="new 0 0 50 50" xml:space="preserve">
<path d="M25,15c-5.514,0-10,4.486-10,10c0,5.514,4.486,10,10,10c5.514,0,10-4.486,10-10C35,19.486,30.514,15,25,15z M25,34
	c-4.962,0-9-4.038-9-9s4.038-9,9-9s9,4.038,9,9S29.962,34,25,34z M31.411,26.136c-0.095-0.12-0.239-0.19-0.394-0.19H18.981
	c-0.153,0-0.298,0.07-0.393,0.19c-0.095,0.12-0.129,0.277-0.094,0.427c0.722,3.021,3.397,5.133,6.505,5.133
	c3.106,0,5.78-2.11,6.505-5.133C31.541,26.413,31.506,26.256,31.411,26.136z M25,30.695c-2.427,0-4.543-1.514-5.349-3.75h10.697
	C29.541,29.182,27.425,30.695,25,30.695z M20.663,21.489c0-0.685,0.556-1.239,1.239-1.239s1.238,0.554,1.238,1.239
	c0,0.684-0.555,1.239-1.238,1.239S20.663,22.173,20.663,21.489z M26.859,21.489c0-0.685,0.555-1.239,1.238-1.239
	c0.682,0,1.238,0.554,1.238,1.239c0,0.684-0.557,1.239-1.238,1.239C27.414,22.728,26.859,22.173,26.859,21.489z"/>
</svg>
