<?xml version="1.0" encoding="utf-8"?>
<!-- Generator: Adobe Illustrator 16.0.0, SVG Export Plug-In . SVG Version: 6.00 Build 0)  -->
<!DOCTYPE svg PUBLIC "-//W3C//DTD SVG 1.1//EN" "http://www.w3.org/Graphics/SVG/1.1/DTD/svg11.dtd">
<svg version="1.1" id="Layer_1" xmlns="http://www.w3.org/2000/svg" xmlns:xlink="http://www.w3.org/1999/xlink" x="0px" y="0px"
	 width="96px" height="96px" viewBox="0 0 96 96" enable-background="new 0 0 96 96" xml:space="preserve">
<path d="M48,0.542C21.832,0.542,0.542,21.832,0.542,48S21.832,95.458,48,95.458S95.458,74.168,95.458,48S74.167,0.542,48,0.542z
	 M48,11.215c15.507,0,28.792,9.649,34.197,23.253H13.806C19.208,20.864,32.494,11.215,48,11.215z M84.784,48
	c0,1.55-0.107,3.075-0.295,4.574H51.091l12.463-9.721h20.864C84.653,44.536,84.784,46.254,84.784,48z M11.215,48
	c0-1.746,0.131-3.464,0.369-5.146h33.294l-13.267,9.721H11.51C11.322,51.075,11.215,49.55,11.215,48z M48,84.785
	c-15.721,0-29.167-9.919-34.42-23.824h68.84C77.167,74.866,63.724,84.785,48,84.785z"/>
</svg>
