<?xml version="1.0" encoding="utf-8"?>
<!-- Generator: Adobe Illustrator 16.0.0, SVG Export Plug-In . SVG Version: 6.00 Build 0)  -->
<!DOCTYPE svg PUBLIC "-//W3C//DTD SVG 1.1//EN" "http://www.w3.org/Graphics/SVG/1.1/DTD/svg11.dtd">
<svg version="1.1" id="Layer_2" xmlns="http://www.w3.org/2000/svg" xmlns:xlink="http://www.w3.org/1999/xlink" x="0px" y="0px"
	 width="96px" height="96px" viewBox="0 0 96 96" enable-background="new 0 0 96 96" xml:space="preserve">
<g>
	<path d="M88.002,4.01H7.997c-1.989,0-3.601,1.612-3.601,3.602v80.776c0,1.989,1.612,3.602,3.601,3.602h80.005
		c1.989,0,3.602-1.612,3.602-3.602V7.612C91.604,5.623,89.992,4.01,88.002,4.01z M86.716,83.758c0,1.704-1.382,3.087-3.087,3.087
		H12.371c-1.705,0-3.087-1.383-3.087-3.087V12.5c0-1.705,1.382-3.087,3.087-3.087h71.259c1.705,0,3.087,1.382,3.087,3.087V83.758z"
		/>
	<path d="M46.328,51.344v14.921c0,1.705,1.382,3.087,3.087,3.087h19.037c0.878,0,1.813-0.529,2.392-1.326
		c0.545-0.752,0.765-1.75,0.596-2.487l-3.245-14.194c-0.433-1.919-2.154-3.087-3.859-3.087H49.415
		C47.71,48.257,46.328,49.64,46.328,51.344z"/>
	<path d="M34.494,11.728l-3.432,7.975c2.608,0.003,7.291,0,7.291,0H65.66l11.023,51.229c0,1.26-0.841,2.278-2.151,2.278h-27.69
		c-1.543,0-2.793-1.231-2.83-2.765v-2.38c0-1.564-1.266-2.83-2.83-2.83H19.471c-0.7,0-0.846-0.499-0.823-1.217
		c0.016-0.457,0.124-1.011,0.399-1.623c0.319-0.707,8.934-19.733,14.555-32.146H59.19v-7.46H37.067h-7.349L11.856,64.335v17.107
		c0,1.706,1.381,3.087,3.087,3.087h66.628c1.706,0,3.087-1.381,3.087-3.087v-4.116l-14.02-65.599H34.494z"/>
</g>
</svg>
