<?xml version="1.0" encoding="utf-8"?>
<!-- Generator: Adobe Illustrator 16.0.0, SVG Export Plug-In . SVG Version: 6.00 Build 0)  -->
<!DOCTYPE svg PUBLIC "-//W3C//DTD SVG 1.1//EN" "http://www.w3.org/Graphics/SVG/1.1/DTD/svg11.dtd">
<svg version="1.1" id="Layer_1" xmlns="http://www.w3.org/2000/svg" xmlns:xlink="http://www.w3.org/1999/xlink" x="0px" y="0px"
	 width="96px" height="96px" viewBox="0 0 96 96" enable-background="new 0 0 96 96" xml:space="preserve">
<path d="M85.126,13.729c0,0-19.175,0.953-24.069-11.074c0,0-4.877-1.882-13.298-1.882c-8.422,0-12.815,1.882-12.815,1.882
	c-4.895,12.027-24.069,11.074-24.069,11.074S-0.141,54.204,34.943,87.044c0,0,8.369,8.183,13.058,8.183s13.056-8.183,13.056-8.183
	C96.141,54.204,85.126,13.729,85.126,13.729z M48,69.291c0,0-23.625-16.279-23.625-29.585c0-7.178,5.979-12.997,13.356-12.997
	c4.128,0,7.818,1.823,10.269,4.687c2.45-2.863,6.141-4.687,10.269-4.687c7.377,0,13.356,5.819,13.356,12.997
	C71.625,53.012,48,69.291,48,69.291z"/>
</svg>
