<?xml version="1.0" encoding="utf-8"?>
<!-- Generator: Adobe Illustrator 16.0.4, SVG Export Plug-In . SVG Version: 6.00 Build 0)  -->
<!DOCTYPE svg PUBLIC "-//W3C//DTD SVG 1.1//EN" "http://www.w3.org/Graphics/SVG/1.1/DTD/svg11.dtd">
<svg version="1.1" id="Layer_1" xmlns="http://www.w3.org/2000/svg" xmlns:xlink="http://www.w3.org/1999/xlink" x="0px" y="0px"
	 width="50px" height="50px" viewBox="0 0 50 50" enable-background="new 0 0 50 50" xml:space="preserve">
<path d="M29.844,25.368c0,0.298-0.049,0.591-0.143,0.869c-0.412,1.875-3.785,4.041-4.17,4.281c-0.08,0.052-0.172,0.076-0.266,0.076
	c-0.093,0-0.185-0.024-0.267-0.076c-0.043-0.025-1.047-0.661-2.065-1.533c-0.211-0.18-0.234-0.494-0.056-0.705
	c0.181-0.209,0.494-0.232,0.705-0.055c0.658,0.564,1.326,1.033,1.685,1.271c1.08-0.72,3.211-2.348,3.473-3.527
	c0.072-0.227,0.104-0.412,0.104-0.602c0-0.657-0.359-1.263-0.936-1.58c-0.738-0.409-1.719-0.221-2.258,0.429
	c-0.094,0.114-0.236,0.181-0.385,0.181c-0.149,0-0.289-0.066-0.384-0.181c-0.543-0.648-1.524-0.837-2.26-0.43
	c-0.576,0.319-0.937,0.924-0.937,1.58c0,0.185,0.031,0.372,0.092,0.552c0.033,0.147,0.089,0.283,0.154,0.42h1.398l0.516-1.189
	c0.086-0.197,0.291-0.321,0.504-0.299c0.215,0.02,0.394,0.174,0.441,0.383l0.303,1.277l0.275-0.45c0.09-0.149,0.252-0.24,0.426-0.24
	h1.035c0.277,0,0.5,0.224,0.5,0.5s-0.223,0.5-0.5,0.5h-0.754l-0.762,1.25c-0.092,0.149-0.254,0.239-0.426,0.239
	c-0.025,0-0.054-0.002-0.078-0.006c-0.201-0.032-0.361-0.182-0.408-0.379l-0.236-0.998l-0.049,0.111
	c-0.08,0.182-0.26,0.301-0.459,0.301h-3.336c-0.275,0-0.5-0.225-0.5-0.5c0-0.276,0.225-0.5,0.5-0.5h0.541
	c-0.016-0.051-0.039-0.104-0.049-0.153c-0.08-0.231-0.129-0.524-0.129-0.818c0-1.02,0.557-1.961,1.453-2.455
	c0.979-0.545,2.268-0.416,3.125,0.284c0.854-0.699,2.143-0.827,3.127-0.284C29.287,23.406,29.844,24.347,29.844,25.368z
	 M32.205,25.944c0,3.974-3.232,7.205-7.205,7.205s-7.205-3.231-7.205-7.205c0-3.636,2.711-6.643,6.215-7.128v-0.966h-1.205
	c-0.275,0-0.5-0.224-0.5-0.5s0.225-0.5,0.5-0.5h3.293c0.277,0,0.5,0.224,0.5,0.5s-0.223,0.5-0.5,0.5H25.01v0.89
	c1.102,0.002,2.141,0.258,3.074,0.703l0.672-0.993c0.156-0.228,0.467-0.287,0.695-0.134c0.229,0.155,0.289,0.466,0.133,0.694
	l-0.623,0.922C30.912,21.224,32.205,23.436,32.205,25.944z M31.205,25.944c0-3.421-2.783-6.204-6.205-6.204
	s-6.205,2.783-6.205,6.204c0,3.423,2.783,6.205,6.205,6.205S31.205,29.367,31.205,25.944z"/>
</svg>
