<?xml version="1.0" encoding="utf-8"?>
<!-- Generator: Adobe Illustrator 16.0.0, SVG Export Plug-In . SVG Version: 6.00 Build 0)  -->
<!DOCTYPE svg PUBLIC "-//W3C//DTD SVG 1.1//EN" "http://www.w3.org/Graphics/SVG/1.1/DTD/svg11.dtd">
<svg version="1.1" id="Layer_1" xmlns="http://www.w3.org/2000/svg" xmlns:xlink="http://www.w3.org/1999/xlink" x="0px" y="0px"
	 width="96px" height="96px" viewBox="0 0 96 96" enable-background="new 0 0 96 96" xml:space="preserve">
<path d="M86.86,35.265c-7.523-12.879-19.882-20.469-30.874-20.127c-0.873-4.94-0.904-9.267,0.454-10.758L44.813,0.989
	c-2.016,5.364-1.49,12.11-0.327,17.844c-1.752-5.061-4.001-11.978-5.223-17.42L27.578,3.951c0.965,4.314,2.473,9.344,3.936,13.824
	c-4-4.83-10.73-10.994-15.423-13.83c-0.559-0.338-0.697-0.478-1.514-0.866L9.908,14.179c4.309,2.603,11.33,9.686,15.351,14.994
	c-3.393-3.631-9.25-8.053-15.968-10.379c-0.394-0.136-0.793-0.227-1.191-0.278c-0.573,3.846-2.17,7.872-4.39,11.038
	c0.977,0.277,1.115,0.347,1.67,0.541c5.055,1.75,9.657,5.49,11.979,8.165c-5.173,9.415-4.449,23.44,2.854,35.942
	c6.414,10.979,20.437,23.418,50.817,20.332c0.115-0.011,3.844-0.573,5.164-1.361c1.32-0.787,2.981-2.954,3.156-3.276
	c0.078-0.111,0.167-0.238,0.268-0.378C97.224,64.568,93.274,46.243,86.86,35.265z M68.718,80.563
	c-17.842,1.261-29.942-3.342-35.994-13.701C18.549,45.195,41.204,38.53,48.367,45.73c-1.336-13.495,13.731-22.632,26.091-3.25
	C80.511,52.838,78.577,65.641,68.718,80.563z"/>
</svg>
