<?xml version="1.0" encoding="utf-8"?>
<!-- Generator: Adobe Illustrator 16.0.4, SVG Export Plug-In . SVG Version: 6.00 Build 0)  -->
<!DOCTYPE svg PUBLIC "-//W3C//DTD SVG 1.1//EN" "http://www.w3.org/Graphics/SVG/1.1/DTD/svg11.dtd">
<svg version="1.1" id="Layer_1" xmlns="http://www.w3.org/2000/svg" xmlns:xlink="http://www.w3.org/1999/xlink" x="0px" y="0px"
	 width="50px" height="50px" viewBox="0 0 50 50" enable-background="new 0 0 50 50" xml:space="preserve">
<path d="M29.665,22.9c-0.1-0.401-0.229-0.799-0.391-1.185c-0.187-0.43-0.459-0.838-0.812-1.215l0.847-1.967
	c0.352-0.775,0.41-1.446,0.176-1.996c-0.227-0.529-0.649-0.759-0.812-0.83c-0.281-0.165-0.595-0.194-0.904-0.089
	c-0.271,0.092-1.074,0.363-2.172,3.12c-0.322-0.106-0.649-0.194-0.979-0.262l-0.029-1.945c0-1.913-1.047-2.421-1.56-2.421h-0.002
	c-0.351-0.033-0.678,0.084-0.93,0.34c-0.565,0.571-0.771,1.905-0.605,3.968c-0.072,0.011-0.145,0.023-0.217,0.036
	c-0.58-0.883-1.301-1.959-1.653-2.439c-0.259-0.361-0.61-0.58-1.017-0.634c-0.812-0.104-1.539,0.472-1.657,0.571
	c-1,0.996-0.261,2.734,0.638,4.128c-0.592,0.792-1.915,3.121,0.023,6.242c0.574,0.907,1.015,2.146,1.565,4.419
	c0.45,1.875,1.351,4.256,3.081,4.955c0.329,0.133,0.671,0.199,1.023,0.199c0.666,0,1.373-0.237,2.111-0.708
	c0.036-0.024,0.07-0.054,0.102-0.086c0.051-0.058,1.253-1.405,2.398-3.431c0.366,0.098,0.745,0.166,1.144,0.166
	c2.479,0,4.498-2.019,4.498-4.5C33.531,25.071,31.845,23.211,29.665,22.9z M24.792,34.381c-0.826,0.514-1.533,0.642-2.163,0.389
	c-1.043-0.421-1.925-1.935-2.481-4.263c-0.582-2.39-1.057-3.713-1.691-4.716c-1.821-2.933-0.271-4.906,0.032-5.246
	c0.069-0.046,0.129-0.109,0.17-0.187c0.087-0.164,0.075-0.363-0.03-0.516c-1.027-1.5-1.411-2.749-1.012-3.15
	c0.097-0.079,0.531-0.363,0.857-0.321c0.082,0.011,0.205,0.046,0.338,0.23c0.357,0.488,1.168,1.699,1.812,2.683
	c0.114,0.174,0.322,0.261,0.528,0.214c0.32-0.073,0.628-0.116,0.934-0.149c0.273-0.03,0.473-0.274,0.443-0.547
	c-0.229-2.256,0.008-3.376,0.277-3.649c0.041-0.042,0.072-0.052,0.156-0.046c0.23,0.019,0.624,0.339,0.624,1.431l0.035,2.364
	c0.004,0.244,0.183,0.45,0.424,0.487c0.563,0.087,1.121,0.238,1.655,0.451c0.125,0.049,0.266,0.047,0.388-0.008
	c0.123-0.055,0.22-0.156,0.267-0.282c0.754-2.026,1.404-2.874,1.824-2.972c0.032,0.02,0.066,0.036,0.103,0.049
	c0.002,0,0.188,0.082,0.284,0.303c0.117,0.277,0.061,0.688-0.17,1.199l-0.983,2.287c-0.084,0.193-0.036,0.418,0.117,0.562
	c0.376,0.351,0.653,0.732,0.825,1.128c0.104,0.25,0.179,0.512,0.254,0.772c-2.28,0.218-4.075,2.121-4.075,4.457
	c0,1.727,0.987,3.209,2.416,3.964C26,32.953,25.01,34.131,24.792,34.381z M29.033,30.836c-1.931,0-3.5-1.569-3.5-3.5
	c0-1.929,1.569-3.5,3.5-3.5c1.929,0,3.498,1.57,3.498,3.5C32.531,29.267,30.962,30.836,29.033,30.836z M32.06,27.336
	c0,0.276-0.225,0.5-0.5,0.5h-2.025v2.026c0,0.276-0.225,0.5-0.5,0.5c-0.276,0-0.5-0.224-0.5-0.5v-2.026h-2.027
	c-0.275,0-0.5-0.224-0.5-0.5c0-0.275,0.225-0.5,0.5-0.5h2.027v-2.025c0-0.276,0.224-0.5,0.5-0.5c0.275,0,0.5,0.224,0.5,0.5v2.025
	h2.025C31.835,26.836,32.06,27.061,32.06,27.336z"/>
</svg>
