<?xml version="1.0" encoding="utf-8"?>
<!-- Generator: Adobe Illustrator 16.0.0, SVG Export Plug-In . SVG Version: 6.00 Build 0)  -->
<!DOCTYPE svg PUBLIC "-//W3C//DTD SVG 1.1//EN" "http://www.w3.org/Graphics/SVG/1.1/DTD/svg11.dtd">
<svg version="1.1" id="Layer_1" xmlns="http://www.w3.org/2000/svg" xmlns:xlink="http://www.w3.org/1999/xlink" x="0px" y="0px"
	 width="96px" height="96px" viewBox="0 0 96 96" enable-background="new 0 0 96 96" xml:space="preserve">
<path d="M66.937,4.323c-7.04,0-13.74,2.51-18.937,6.995c-5.196-4.485-11.896-6.995-18.937-6.995
	c-15.78,0-28.617,12.542-28.617,27.958c0,26.326,43.441,56.563,45.291,57.837L48,91.677l2.263-1.559
	c1.85-1.273,45.291-31.511,45.291-57.837C95.554,16.865,82.717,4.323,66.937,4.323z M48,78.369
	C37.305,70.313,25.934,59.957,18.725,50h17.668l4.269-11.549L50.601,65.5L57.934,50h19.342C70.066,59.957,58.695,70.313,48,78.369z
	 M79.953,46H55.4l-4.335,9.166L40.673,26.883L33.607,46H16.047c-2.981-4.872-4.777-9.557-4.777-13.719
	c0-9.449,7.982-17.135,17.794-17.135c5.334,0,10.342,2.278,13.742,6.252L48,27.292l5.194-5.894c3.4-3.974,8.408-6.252,13.742-6.252
	c9.812,0,17.794,7.686,17.794,17.135C84.73,36.443,82.935,41.128,79.953,46z"/>
</svg>
