<?xml version="1.0" encoding="utf-8"?>
<!-- Generator: Adobe Illustrator 16.0.4, SVG Export Plug-In . SVG Version: 6.00 Build 0)  -->
<!DOCTYPE svg PUBLIC "-//W3C//DTD SVG 1.1//EN" "http://www.w3.org/Graphics/SVG/1.1/DTD/svg11.dtd">
<svg version="1.1" id="Layer_1" xmlns="http://www.w3.org/2000/svg" xmlns:xlink="http://www.w3.org/1999/xlink" x="0px" y="0px"
	 width="50px" height="50px" viewBox="0 0 50 50" enable-background="new 0 0 50 50" xml:space="preserve">
<path d="M33.988,22.82c-0.377-0.21-0.785-0.351-1.205-0.433c0.384-1.421,0.641-2.889,0.751-4.377
	c0.014-0.194-0.087-0.38-0.259-0.475c-2.851-1.571-6.174-2.402-9.614-2.402s-6.767,0.831-9.615,2.403
	c-0.172,0.095-0.271,0.28-0.258,0.475c0.528,7.125,4.125,13.304,9.62,16.527c0.078,0.046,0.165,0.069,0.253,0.069
	s0.175-0.023,0.253-0.069c0.771-0.452,1.52-0.976,2.225-1.554c0.012-0.01,0.017-0.021,0.025-0.031
	c1.318,1.047,2.459,1.771,2.564,1.837c0.082,0.052,0.174,0.077,0.267,0.077s0.185-0.025,0.267-0.077
	c0.246-0.155,6.062-3.836,6.735-6.883c0.144-0.431,0.216-0.878,0.216-1.328C36.213,25.016,35.359,23.574,33.988,22.82z
	 M23.661,33.525c-4.987-3.049-8.272-8.715-8.851-15.267c2.64-1.392,5.69-2.126,8.851-2.126c3.157,0,6.21,0.734,8.851,2.126
	c-0.123,1.383-0.384,2.742-0.753,4.061c-0.466,0.02-0.924,0.111-1.36,0.271c0.332-1.052,0.586-2.136,0.748-3.238
	c0.033-0.224-0.088-0.441-0.295-0.531c-2.136-0.932-4.562-1.4-6.994-1.425c-0.061-0.025-0.127-0.04-0.195-0.04
	c-0.069,0-0.137,0.015-0.196,0.04c-2.433,0.024-4.858,0.493-6.993,1.425c-0.207,0.09-0.328,0.308-0.296,0.531
	c0.765,5.196,3.386,9.754,7.192,12.504c0.088,0.062,0.189,0.095,0.293,0.095s0.205-0.031,0.292-0.095
	c0.223-0.16,0.344-0.295,0.45-0.416c0.004-0.004,0.008-0.008,0.012-0.013c0.314,0.306,0.641,0.599,0.967,0.878
	C24.83,32.75,24.255,33.162,23.661,33.525z M21.982,27.857c0.207,0.937,0.886,1.925,1.734,2.854
	c-0.02,0.021-0.042,0.044-0.061,0.063c-0.01,0.012-0.018,0.021-0.026,0.031c-2.196-1.683-3.938-4.029-5.099-6.758h4.082
	c-0.529,0.723-0.834,1.604-0.834,2.529C21.779,27.034,21.854,27.482,21.982,27.857z M23.161,23.05H18.13
	c-0.397-1.104-0.705-2.262-0.903-3.46c1.83-0.745,3.875-1.13,5.936-1.186L23.161,23.05L23.161,23.05z M24.161,22.749v-4.345
	c2.06,0.056,4.104,0.44,5.937,1.186c-0.219,1.302-0.567,2.571-1.031,3.787c-0.022,0.02-0.049,0.034-0.07,0.055
	C27.725,22.25,25.725,21.97,24.161,22.749z M35.034,27.643c-0.47,2.116-4.293,4.99-6.039,6.133
	c-1.746-1.142-5.568-4.018-6.052-6.185c-0.107-0.323-0.164-0.665-0.164-1.012c0-1,0.459-1.929,1.219-2.548
	c0.007-0.006,0.016-0.011,0.021-0.018c0.029-0.024,0.057-0.052,0.088-0.075c0.008-0.006,0.018-0.01,0.024-0.017
	c0.112-0.083,0.229-0.159,0.354-0.228c0.482-0.269,1.031-0.41,1.586-0.41c0.982,0,1.908,0.436,2.537,1.193
	c0.188,0.229,0.58,0.229,0.77,0c0.984-1.187,2.786-1.528,4.124-0.782c1.056,0.579,1.709,1.685,1.709,2.885
	C35.213,26.924,35.157,27.264,35.034,27.643z"/>
</svg>
