<?xml version="1.0" encoding="utf-8"?>
<!-- Generator: Adobe Illustrator 16.0.4, SVG Export Plug-In . SVG Version: 6.00 Build 0)  -->
<!DOCTYPE svg PUBLIC "-//W3C//DTD SVG 1.1//EN" "http://www.w3.org/Graphics/SVG/1.1/DTD/svg11.dtd">
<svg version="1.1" id="Layer_1" xmlns="http://www.w3.org/2000/svg" xmlns:xlink="http://www.w3.org/1999/xlink" x="0px" y="0px"
	 width="50px" height="50px" viewBox="0 0 50 50" enable-background="new 0 0 50 50" xml:space="preserve">
<path d="M33.414,19.872c0.195,0.195,0.195,0.512,0,0.707c-0.098,0.098-0.226,0.146-0.354,0.146c-0.128,0-0.256-0.049-0.354-0.146
	c-0.873-0.873-2.396-0.873-3.27,0c-0.195,0.195-0.513,0.195-0.707,0c-0.195-0.195-0.195-0.512,0-0.707
	C29.98,18.621,32.164,18.621,33.414,19.872z M34.32,18.648c-0.867-0.868-2.021-1.346-3.248-1.346c-1.228,0-2.381,0.478-3.248,1.346
	c-0.195,0.195-0.195,0.512,0,0.707c0.098,0.098,0.226,0.146,0.354,0.146s0.257-0.049,0.354-0.146c1.356-1.357,3.725-1.357,5.082,0
	c0.195,0.195,0.512,0.195,0.707,0C34.516,19.16,34.516,18.844,34.32,18.648z M32.42,20.867c0.743,0.743,0.743,1.952,0,2.695
	c-0.032,0.032-0.064,0.061-0.098,0.085v4.692c0,0.276-0.225,0.5-0.5,0.5h-0.317c-0.186,2.155-1.979,3.859-4.182,3.859
	c-1.608,0-3.052-0.914-3.765-2.339h-1.109v1.291h1.188c0.276,0,0.5,0.225,0.5,0.5c0,0.276-0.224,0.5-0.5,0.5h-3.375
	c-0.275,0-0.5-0.224-0.5-0.5c0-0.275,0.225-0.5,0.5-0.5h1.188v-1.291h-5.417c-0.276,0-0.5-0.225-0.5-0.5v-8.167
	c0-0.276,0.224-0.5,0.5-0.5h11.833c0.275,0,0.5,0.224,0.5,0.5v8.167c0,0.275-0.225,0.5-0.5,0.5H24.72
	c0.598,0.826,1.554,1.339,2.604,1.339c1.65,0,3-1.257,3.182-2.859h-0.183c-0.276,0-0.5-0.224-0.5-0.5v-4.692
	c-0.033-0.025-0.065-0.054-0.099-0.085c-0.742-0.743-0.742-1.952,0-2.695C30.443,20.147,31.701,20.147,32.42,20.867z M16.532,29.359
	h10.833v-7.167H16.532v3.319h3.771l0.701-1.614c0.086-0.197,0.284-0.322,0.503-0.299c0.215,0.019,0.394,0.173,0.442,0.383
	l0.47,1.982l0.536-0.878c0.091-0.149,0.252-0.24,0.427-0.24h1.332c0.276,0,0.5,0.224,0.5,0.5c0,0.276-0.224,0.5-0.5,0.5h-1.052
	l-1.022,1.678c-0.092,0.149-0.254,0.24-0.427,0.24c-0.025,0-0.052-0.003-0.078-0.008c-0.2-0.031-0.36-0.181-0.408-0.378
	l-0.402-1.704l-0.233,0.537c-0.08,0.184-0.26,0.301-0.459,0.301h-4.1V29.359L16.532,29.359z M31.713,21.574
	c-0.342-0.343-0.938-0.343-1.281,0c-0.354,0.353-0.354,0.928,0,1.281c0.01,0.005,0.154,0.091,0.163,0.096
	c0.143,0.093,0.229,0.25,0.229,0.42v4.469h0.5v-4.469c0-0.17,0.086-0.327,0.228-0.42c0.009-0.005,0.098-0.058,0.104-0.062
	C32.066,22.502,32.066,21.927,31.713,21.574z"/>
</svg>
