<?xml version="1.0" encoding="utf-8"?>
<!-- Generator: Adobe Illustrator 16.0.4, SVG Export Plug-In . SVG Version: 6.00 Build 0)  -->
<!DOCTYPE svg PUBLIC "-//W3C//DTD SVG 1.1//EN" "http://www.w3.org/Graphics/SVG/1.1/DTD/svg11.dtd">
<svg version="1.1" id="Layer_1" xmlns="http://www.w3.org/2000/svg" xmlns:xlink="http://www.w3.org/1999/xlink" x="0px" y="0px"
	 width="50px" height="50px" viewBox="0 0 50 50" enable-background="new 0 0 50 50" xml:space="preserve">
<path d="M32.578,25.097c-0.44-0.244-0.938-0.354-1.435-0.354v-7.593c0-0.276-0.224-0.5-0.5-0.5H16.372c-0.276,0-0.5,0.224-0.5,0.5
	v12.595c0,0.275,0.224,0.5,0.5,0.5h8.536c0.124,0,0.233-0.051,0.32-0.125c1.231,1.564,3.399,2.957,3.714,3.154
	c0.082,0.053,0.174,0.077,0.266,0.077s0.186-0.024,0.267-0.077c0.414-0.26,4.06-2.602,4.505-4.624c0.1-0.303,0.15-0.614,0.15-0.927
	C34.129,26.629,33.535,25.623,32.578,25.097z M16.872,29.242v-5.621h3.839l1.348,4.194c0.067,0.207,0.259,0.347,0.476,0.347
	c0.005,0,0.011,0,0.017,0c0.223-0.008,0.415-0.162,0.468-0.379l1.489-5.957l0.288,2.015c0.035,0.246,0.246,0.429,0.495,0.429h3.244
	c0.275,0,0.5-0.224,0.5-0.5s-0.225-0.5-0.5-0.5h-2.811l-0.588-4.111c-0.034-0.236-0.229-0.416-0.469-0.429
	c-0.256-0.011-0.453,0.146-0.511,0.379l-1.683,6.732l-0.924-2.873c-0.066-0.207-0.259-0.348-0.476-0.348h-4.203v-4.973h13.272v7.26
	c-0.34,0.115-0.661,0.282-0.936,0.513c-0.918-0.767-2.309-0.914-3.371-0.326c-0.957,0.528-1.551,1.534-1.551,2.626
	c0,0.319,0.051,0.634,0.137,0.879c0.047,0.212,0.134,0.427,0.241,0.644h-7.791V29.242z M33.017,28.383
	c-0.289,1.305-2.642,3.096-3.81,3.871c-1.168-0.774-3.521-2.568-3.823-3.922c-0.065-0.193-0.099-0.398-0.099-0.61
	c0-0.729,0.396-1.397,1.035-1.75c0.293-0.162,0.625-0.248,0.961-0.248c0.598,0,1.159,0.265,1.541,0.726
	c0.096,0.113,0.236,0.18,0.385,0.18l0,0c0.149,0,0.291-0.066,0.385-0.182c0.596-0.719,1.688-0.928,2.5-0.476
	c0.64,0.353,1.037,1.022,1.037,1.751C33.129,27.929,33.097,28.135,33.017,28.383z"/>
</svg>
