<?xml version="1.0" encoding="iso-8859-1"?>
<!-- Generator: Adobe Illustrator 17.0.0, SVG Export Plug-In . SVG Version: 6.00 Build 0)  -->
<!DOCTYPE svg PUBLIC "-//W3C//DTD SVG 1.1//EN" "http://www.w3.org/Graphics/SVG/1.1/DTD/svg11.dtd">
<svg version="1.1" id="Capa_1" xmlns="http://www.w3.org/2000/svg" xmlns:xlink="http://www.w3.org/1999/xlink" x="0px" y="0px"
	 width="64px" height="64px" viewBox="0 0 64 64" style="enable-background:new 0 0 64 64;" xml:space="preserve">
<g>
	<path d="M13.861,13.944c-3.794,3.705-3.863,9.779-0.162,13.574l3.93,4.025l13.737-13.412l-3.931-4.025
		C23.733,10.315,17.656,10.241,13.861,13.944z"/>
	<path d="M47.172,34.322l-13.738,13.41l4.222,4.325c3.703,3.792,9.78,3.865,13.574,0.162c1.927-1.881,2.893-4.373,2.893-6.869
		c0-2.417-0.91-4.837-2.73-6.705L47.172,34.322z"/>
	<path d="M38.4,13.944L13.861,37.9c-3.792,3.703-3.865,9.78-0.162,13.574c1.881,1.927,4.373,2.894,6.869,2.894
		c2.417,0,4.837-0.91,6.705-2.73l24.539-23.957c3.792-3.702,3.865-9.779,0.162-13.574C48.269,10.312,42.195,10.243,38.4,13.944z
		 M39.693,18.222c0.671,0,1.216,0.544,1.216,1.215c0,0.67-0.545,1.215-1.216,1.215c-0.67,0-1.215-0.545-1.215-1.215
		C38.479,18.766,39.023,18.222,39.693,18.222z M16.161,49.719c-0.668-0.056-1.166-0.644-1.11-1.312
		c0.059-0.669,0.643-1.165,1.314-1.11c0.668,0.057,1.165,0.645,1.108,1.314C17.416,49.278,16.828,49.775,16.161,49.719z
		 M17.698,45.931c-0.668-0.057-1.164-0.645-1.108-1.312c0.056-0.667,0.644-1.165,1.312-1.109c0.669,0.057,1.165,0.646,1.11,1.313
		C18.955,45.489,18.367,45.987,17.698,45.931z M18.513,41.628c-0.669-0.057-1.164-0.644-1.108-1.314
		c0.056-0.667,0.644-1.164,1.31-1.107c0.67,0.056,1.166,0.644,1.11,1.313C19.769,41.186,19.18,41.684,18.513,41.628z M20.757,49.341
		c-0.669-0.056-1.165-0.645-1.109-1.312c0.056-0.668,0.643-1.166,1.312-1.109c0.668,0.057,1.164,0.645,1.108,1.312
		C22.014,48.899,21.425,49.396,20.757,49.341z M21.571,45.036c-0.67-0.056-1.166-0.643-1.109-1.311
		c0.055-0.667,0.644-1.166,1.311-1.109c0.67,0.057,1.166,0.645,1.109,1.314C22.827,44.597,22.238,45.093,21.571,45.036z
		 M24.524,48.535c-0.667-0.057-1.166-0.645-1.109-1.313c0.056-0.668,0.644-1.163,1.314-1.107c0.667,0.056,1.164,0.644,1.107,1.311
		C25.78,48.094,25.192,48.591,24.524,48.535z M39.613,34.798l-4.91,4.539c-2.394,2.214-6.132,2.068-8.347-0.327l-0.178-0.192
		c-2.215-2.398-2.114-6.181,0.226-8.455l4.819-4.688c2.339-2.273,6.025-2.17,8.233,0.23l0.493,0.536
		C42.158,28.842,42.009,32.583,39.613,34.798z M42.836,23.983c-0.671,0-1.216-0.544-1.216-1.215c0-0.67,0.545-1.215,1.216-1.215
		c0.67,0,1.215,0.545,1.215,1.215C44.051,23.44,43.506,23.983,42.836,23.983z M42.836,18.985c0-0.67,0.544-1.215,1.215-1.215
		c0.67,0,1.215,0.545,1.215,1.215c0,0.671-0.545,1.215-1.215,1.215C43.38,20.2,42.836,19.656,42.836,18.985z M46.073,27.221
		c-0.671,0-1.215-0.545-1.215-1.215c0-0.671,0.544-1.216,1.215-1.216c0.67,0,1.215,0.545,1.215,1.216
		C47.288,26.676,46.743,27.221,46.073,27.221z M47.192,23.533c-0.671,0-1.215-0.545-1.215-1.215c0-0.671,0.544-1.215,1.215-1.215
		c0.67,0,1.215,0.544,1.215,1.215C48.407,22.988,47.862,23.533,47.192,23.533z M47.954,18.985c-0.671,0-1.215-0.544-1.215-1.215
		c0-0.67,0.544-1.215,1.215-1.215s1.215,0.545,1.215,1.215C49.169,18.441,48.625,18.985,47.954,18.985z"/>
</g>
</svg>
