<?xml version="1.0" encoding="utf-8"?>
<!-- Generator: Adobe Illustrator 16.0.4, SVG Export Plug-In . SVG Version: 6.00 Build 0)  -->
<!DOCTYPE svg PUBLIC "-//W3C//DTD SVG 1.1//EN" "http://www.w3.org/Graphics/SVG/1.1/DTD/svg11.dtd">
<svg version="1.1" id="Layer_1" xmlns="http://www.w3.org/2000/svg" xmlns:xlink="http://www.w3.org/1999/xlink" x="0px" y="0px"
	 width="50px" height="50px" viewBox="0 0 50 50" enable-background="new 0 0 50 50" xml:space="preserve">
<path d="M18.994,26.501h-4.303v-7.125h4.303V26.501z M24.432,19.376h-4.303v4.613h4.303V19.376z M38.688,27.698v2h-0.959v1.25
	h-3.621c-0.233,1.196-1.287,2.104-2.553,2.104s-2.32-0.905-2.555-2.104h-7.703c-0.234,1.196-1.288,2.104-2.553,2.104
	c-1.266,0-2.318-0.905-2.553-2.104h-4.156v-1.25h-0.723v-2h0.723v-10.75h25.693v10.75H38.688z M20.348,30.448
	c0-0.884-0.72-1.604-1.604-1.604c-0.885,0-1.604,0.721-1.604,1.604s0.719,1.604,1.604,1.604
	C19.628,32.052,20.348,31.332,20.348,30.448z M33.158,30.448c0-0.884-0.721-1.604-1.604-1.604c-0.887,0-1.605,0.721-1.605,1.604
	s0.72,1.604,1.605,1.604C32.438,32.052,33.158,31.332,33.158,30.448z M36.729,17.948H13.035v12h3.156
	c0.233-1.197,1.287-2.104,2.553-2.104c1.265,0,2.318,0.906,2.553,2.104H29c0.234-1.197,1.289-2.104,2.555-2.104
	s2.318,0.906,2.553,2.104h2.621V17.948z M29.871,19.376h-4.305v4.613h4.305V19.376z M35.309,19.376h-4.305v4.613h4.305V19.376z"/>
</svg>
