<?xml version="1.0" encoding="utf-8"?>
<!-- Generator: Adobe Illustrator 16.0.4, SVG Export Plug-In . SVG Version: 6.00 Build 0)  -->
<!DOCTYPE svg PUBLIC "-//W3C//DTD SVG 1.1//EN" "http://www.w3.org/Graphics/SVG/1.1/DTD/svg11.dtd">
<svg version="1.1" id="Layer_1" xmlns="http://www.w3.org/2000/svg" xmlns:xlink="http://www.w3.org/1999/xlink" x="0px" y="0px"
	 width="50px" height="50px" viewBox="0 0 50 50" enable-background="new 0 0 50 50" xml:space="preserve">
<path d="M39.845,28.52v2.947h0.414v0.516h-1.49V20.917H20.596v11.065h-1.489v-0.517h0.413v-2.948h-1.654v2.948h0.414v1.343h1.526
	v6.14h1.632v1.743h3.31v-1.743h9.872v1.743h3.31v-1.743h1.632v-6.138h1.526v-1.344H41.5V28.52H39.845L39.845,28.52z M26.862,22.202
	h5.641v0.827h-5.641V22.202z M24.193,37.005c-0.629,0-1.141-0.511-1.141-1.139c0-0.63,0.512-1.14,1.141-1.14
	c0.631,0,1.142,0.51,1.142,1.14C25.335,36.494,24.824,37.005,24.193,37.005z M32.503,37.288h-5.641v-0.827h5.641V37.288z
	 M32.503,35.271h-5.641v-0.828h5.641V35.271z M32.351,32.784c0-0.927,0.753-1.681,1.681-1.681c0.926,0,1.679,0.754,1.679,1.681
	H32.351z M35.169,37.005c-0.628,0-1.139-0.511-1.139-1.139c0-0.63,0.511-1.14,1.139-1.14c0.631,0,1.14,0.51,1.14,1.14
	C36.309,36.494,35.8,37.005,35.169,37.005z M37.113,32.784h-0.577c0-1.384-1.124-2.507-2.506-2.507s-2.507,1.123-2.507,2.507h-9.272
	v-8.771h14.862V32.784z M38.837,20.295H20.526c1.464-2.132,5.009-3.29,9.155-3.29C33.829,17.005,37.374,18.163,38.837,20.295z
	 M14.752,20.785c-2.884,0-5.228-2.344-5.228-5.227s2.344-5.229,5.228-5.229c2.881,0,5.225,2.346,5.225,5.229
	S17.633,20.785,14.752,20.785z M14.752,11.146c-2.433,0-4.413,1.979-4.413,4.412c0,2.432,1.98,4.412,4.413,4.412
	c2.432,0,4.412-1.98,4.412-4.412C19.164,13.126,17.184,11.146,14.752,11.146z M14.449,10.456l0.303-1.147l0.3,1.147H14.449z
	 M15.052,20.662l-0.3,1.146l-0.303-1.146H15.052z M19.855,15.258l1.146,0.303l-1.146,0.299V15.258z M9.649,15.857L8.5,15.561
	l1.149-0.303V15.857z M15.553,15.564l0.002-0.002h-0.002l-0.769-3.797l-0.836,3.781l0,0v0.004v0.004l0,0l0.77,3.797l0.835-3.783
	h0.002L15.553,15.564z M14.26,15.55l0.521-2.347l0.476,2.355L14.26,15.55z M11.29,16.096l-0.3-1.072h0.117h0.116l0.179,0.783l0,0
	l0.154-0.783h0.118h0.12l0.154,0.777l0,0l0.178-0.777h0.113h0.113l-0.298,1.072h-0.106h-0.107l-0.172-0.845l-0.17,0.845h-0.104
	H11.29z M17.698,16.096v-1.072h0.787v0.095v0.095h-0.562v0.229h0.523v0.092v0.094h-0.523v0.279h0.588V16v0.096H17.698L17.698,16.096
	z"/>
</svg>
