<?xml version="1.0" encoding="utf-8"?>
<!-- Generator: Adobe Illustrator 16.0.4, SVG Export Plug-In . SVG Version: 6.00 Build 0)  -->
<!DOCTYPE svg PUBLIC "-//W3C//DTD SVG 1.1//EN" "http://www.w3.org/Graphics/SVG/1.1/DTD/svg11.dtd">
<svg version="1.1" id="Layer_1" xmlns="http://www.w3.org/2000/svg" xmlns:xlink="http://www.w3.org/1999/xlink" x="0px" y="0px"
	 width="50px" height="50px" viewBox="0 0 50 50" enable-background="new 0 0 50 50" xml:space="preserve">
<path d="M37.312,18.833v-1.5h-2.437v-5.25H15.124v5.25h-2.436v1.5h-0.5V22h2v-3.167h-0.5v-0.5h1.436v11.083h-0.739v6.625h0.739
	v0.043h0.793v1.832h4v-1.832h10.166v1.832h4v-1.832h0.793v-0.043h0.739v-6.625h-0.739V18.333h1.437v0.5h-0.5V22h2v-3.167H37.312z
	 M21.969,13.521h6.062v1h-6.062V13.521z M19.101,33.955c-0.676,0-1.225-0.549-1.225-1.226c0-0.676,0.549-1.226,1.225-1.226
	c0.677,0,1.226,0.549,1.226,1.226S19.778,33.955,19.101,33.955z M28.031,34.313h-6.062v-1h6.062V34.313z M28.031,32.146h-6.062v-1
	h6.062V32.146z M27.923,29.418c0-0.965,0.785-1.75,1.75-1.75c0.966,0,1.75,0.785,1.75,1.75H27.923z M30.896,33.955
	c-0.676,0-1.225-0.549-1.225-1.226c0-0.676,0.549-1.226,1.225-1.226c0.678,0,1.227,0.549,1.227,1.226S31.574,33.955,30.896,33.955z
	 M32.876,29.418h-0.453c0-1.518-1.233-2.75-2.75-2.75s-2.75,1.232-2.75,2.75h-9.799V15.521h15.752V29.418z"/>
</svg>
