<?xml version="1.0" encoding="utf-8"?>
<!-- Generator: Adobe Illustrator 16.0.4, SVG Export Plug-In . SVG Version: 6.00 Build 0)  -->
<!DOCTYPE svg PUBLIC "-//W3C//DTD SVG 1.1//EN" "http://www.w3.org/Graphics/SVG/1.1/DTD/svg11.dtd">
<svg version="1.1" id="Layer_1" xmlns="http://www.w3.org/2000/svg" xmlns:xlink="http://www.w3.org/1999/xlink" x="0px" y="0px"
	 width="226.77px" height="155.91px" viewBox="0 0 226.77 155.91" enable-background="new 0 0 226.77 155.91" xml:space="preserve">
<path d="M155.202,78.024l-7.646,7.124H60.649c-4.483,0-8.113,3.63-8.113,8.085c0,4.456,3.63,8.086,8.113,8.086h70.819L114.031,118.7
	c-3.163,3.162-3.163,8.278,0,11.44c3.162,3.163,8.306,3.163,11.468,0l46.369-46.203c1.54-1.513,2.393-3.796,2.365-5.996
	c0.027-2.2-0.825-4.291-2.365-5.831L125.499,25.77c-3.162-3.163-8.306-3.163-11.468,0c-3.163,3.163-3.163,8.306,0,11.468
	l17.437,17.437H60.649c-4.483,0-8.113,3.63-8.113,8.113s3.63,8.113,8.113,8.113l86.879-0.083L155.202,78.024z"/>
</svg>
