<?xml version="1.0" encoding="utf-8"?>
<!-- Generator: Adobe Illustrator 16.0.0, SVG Export Plug-In . SVG Version: 6.00 Build 0)  -->
<!DOCTYPE svg PUBLIC "-//W3C//DTD SVG 1.1//EN" "http://www.w3.org/Graphics/SVG/1.1/DTD/svg11.dtd">
<svg version="1.1" id="Layer_1" xmlns="http://www.w3.org/2000/svg" xmlns:xlink="http://www.w3.org/1999/xlink" x="0px" y="0px"
	 width="96px" height="96px" viewBox="0 0 96 96" enable-background="new 0 0 96 96" xml:space="preserve">
<g>
	<path d="M20.415,58.586c-0.874-0.726-1.396-1.841-1.429-2.972c-0.101-1.818,0.527-3.591,1.369-5.173
		c2.349-4.32,6.482-7.493,11.051-9.183c2.977-1.168,6.169-1.701,9.35-1.882c0.445-0.017,0.893-0.009,1.333-0.091
		c-4.375-1.309-8.635-3.111-13.188-3.733c-0.793-0.137-1.604-0.109-2.396-0.255c-1.126-0.074-2.245,0.101-3.365,0.181
		c-3.85,0.514-7.407,2.265-10.659,4.313c-3.08,1.994-5.975,4.305-8.446,7.023c-1.535,1.706-3.005,3.586-3.649,5.824
		c-0.214,0.616-0.095,1.269-0.123,1.904c0.055,0.885,0.604,1.655,1.227,2.25c1.404,1.293,3.201,2.082,5.021,2.589
		c2.124,0.566,4.314,0.832,6.499,1.017c4.329,0.387,8.677,0.289,13.017,0.326c-0.463-0.17-0.962-0.156-1.438-0.27
		C23.094,60.125,21.591,59.595,20.415,58.586z"/>
	<path d="M28.42,43.293c-2.848,1.667-5.48,3.889-7.086,6.813c-0.93,1.603-1.546,3.429-1.504,5.298l0.156-0.095
		c0.7-1.808,1.938-3.357,3.389-4.624c3.09-2.657,7.072-4.008,11.024-4.742c2.055-0.405,4.149-0.501,6.235-0.601
		c1.517,0.026,3.034-0.151,4.55-0.011c1.14,0.008,2.28,0.01,3.417,0.1c4.388,0.148,8.72,0.943,13.022,1.771
		c0.186,0.036,2.168,0.347,2.173,0.346c0.579,0.153,0.093,0.004-0.447-0.17c-0.203-0.081-0.408-0.155-0.62-0.207
		c-1.626-0.733-3.345-1.246-4.987-1.944c-2.377-0.934-4.736-1.912-7.12-2.828c-0.228-0.091-1.206-0.482-1.474-0.574
		c-1.277-0.486-2.563-0.946-3.849-1.407c-0.806-0.216-1.565-0.604-2.399-0.715C37.867,39.513,32.799,40.812,28.42,43.293z"/>
	<path d="M93.937,58.038c-9.965-2.458-19.583-6.109-29.063-10.005c-0.286-0.111-0.585-0.177-0.886-0.229
		C59,46.895,53.959,46.268,48.902,45.917c-3.748-0.255-7.52-0.212-11.256,0.216c-3.242,0.364-6.479,1.062-9.462,2.414
		c0.537-0.107,1.035-0.346,1.573-0.452c2.227-0.501,4.533-0.659,6.808-0.468c1.656,0.056,3.294,0.32,4.935,0.534
		c4.429,0.735,8.804,1.766,13.173,2.787c10.602,2.483,21.161,5.26,31.96,6.765c3.025,0.377,6.06,0.76,9.112,0.761v-0.051
		C95.13,58.358,94.536,58.184,93.937,58.038z"/>
</g>
</svg>
