<?xml version="1.0" encoding="utf-8"?>
<!-- Generator: Adobe Illustrator 16.0.4, SVG Export Plug-In . SVG Version: 6.00 Build 0)  -->
<!DOCTYPE svg PUBLIC "-//W3C//DTD SVG 1.1//EN" "http://www.w3.org/Graphics/SVG/1.1/DTD/svg11.dtd">
<svg version="1.1" id="Capa_1" xmlns="http://www.w3.org/2000/svg" xmlns:xlink="http://www.w3.org/1999/xlink" x="0px" y="0px"
	 width="226.77px" height="155.91px" viewBox="0 0 226.77 155.91" enable-background="new 0 0 226.77 155.91" xml:space="preserve">
<path d="M114.604,17.053c-27.582,0-49.939,27.813-49.939,62.121c0,34.307,22.357,62.119,49.939,62.119
	c27.58,0,49.939-27.812,49.939-62.119C164.543,44.866,142.184,17.053,114.604,17.053z M113.085,38.978l2.734-8.417l2.736,8.417
	h8.851l-7.159,5.756l2.734,8.695l-7.162-5.065l-7.158,5.271l2.735-8.936l-7.16-5.722H113.085z M142.486,80.943
	c-3.787,2.133-7.984,3.309-11.821,3.309c-0.058,0-0.109-0.01-0.168-0.01l9.104,12.383c3.17,4.244,3.552,6.393,3.552,8.125
	c0,6.716-6.246,12.18-13.267,12.18H99.321c-7.021,0.004-12.732-5.461-12.732-12.178c0-3.717,2.023-7.128,4.263-9.669l8.453-11.11
	c-0.319,0.018-0.626,0.053-0.953,0.053c-3.603,0-7.406-0.946-10.994-2.741c-9.934-4.968-14.619-14.334-10.894-21.787
	c2.227-4.448,7.074-7.104,12.975-7.104c3.604,0,7.406,0.948,10.994,2.743c5.929,2.965,9.968,7.498,11.486,12.256l3.146-4.136
	l2.653,3.607c1.601-4.321,5.208-8.453,10.416-11.389c3.789-2.131,7.986-3.308,11.822-3.308c5.519,0,10.016,2.361,12.332,6.475
	C156.379,65.904,152.165,75.49,142.486,80.943z M90.626,74.741C84.61,71.732,81.196,66.367,83,62.757
	c1.806-3.61,8.146-4.098,14.162-1.089s9.431,8.374,7.626,11.983S96.643,77.749,90.626,74.741z M145.913,62.231
	c1.981,3.517-1.164,9.045-7.024,12.346c-5.861,3.302-12.219,3.127-14.2-0.39s1.164-9.045,7.025-12.347
	C137.575,58.54,143.933,58.714,145.913,62.231z M130.437,99.88c2.691,0,4.872,2.181,4.872,4.872s-2.181,4.873-4.872,4.873h-29.232
	c-2.692,0-4.872-2.182-4.872-4.873s2.18-4.872,4.872-4.872H130.437z M105.312,88.659l6.851-9.228c1.596-2.152,4.209-2.152,5.808,0
	l6.851,9.228c1.598,2.151,0.712,3.913-1.969,3.913H107.28C104.6,92.572,103.716,90.811,105.312,88.659z"/>
</svg>
