<?xml version="1.0" encoding="utf-8"?>
<!-- Generator: Adobe Illustrator 17.1.0, SVG Export Plug-In . SVG Version: 6.00 Build 0)  -->
<!DOCTYPE svg PUBLIC "-//W3C//DTD SVG 1.1//EN" "http://www.w3.org/Graphics/SVG/1.1/DTD/svg11.dtd">
<svg version="1.1" xmlns="http://www.w3.org/2000/svg" xmlns:xlink="http://www.w3.org/1999/xlink" x="0px" y="0px"
	 viewBox="0 0 64 64" enable-background="new 0 0 64 64" xml:space="preserve">
<g id="Imagenes">
</g>
<g id="Layer_2">
	<polygon points="11,44 11,38 16,38 16,33 22,33 22,27 11,27 5,27 5,32 5,32 5,38 5,38 5,44 	"/>
	<polygon points="30,44 30,38 35,38 35,33 41,33 41,27 30,27 24,27 24,32 24,32 24,38 24,38 24,44 	"/>
	<polygon points="49,44 49,38 54,38 54,33 60,33 60,27 49,27 43,27 43,32 43,32 43,38 43,38 43,44 	"/>
	<path d="M14,25h2h9h2h9h2h9h2h9h4v-3h-4v-5c0-2.485-2.015-4.5-4.5-4.5S49,14.515,49,17v5h-2v-5c0-2.485-2.015-4.5-4.5-4.5
		S38,14.515,38,17v5h-2v-5c0-2.485-2.015-4.5-4.5-4.5S27,14.515,27,17v5h-2v-5c0-2.485-2.015-4.5-4.5-4.5S16,14.515,16,17v5h-2v-5
		c0-2.485-2.015-4.5-4.5-4.5S5,14.515,5,17v5H2v3h3H14z M52,17c0-0.827,0.673-1.5,1.5-1.5S55,16.173,55,17v5h-3V17z M41,17
		c0-0.827,0.673-1.5,1.5-1.5S44,16.173,44,17v5h-3V17z M30,17c0-0.827,0.673-1.5,1.5-1.5S33,16.173,33,17v5h-3V17z M19,17
		c0-0.827,0.673-1.5,1.5-1.5S22,16.173,22,17v5h-3V17z M8,17c0-0.827,0.673-1.5,1.5-1.5S11,16.173,11,17v5H8V17z"/>
	<path d="M5,53.5C5,55.985,7.015,58,9.5,58s4.5-2.015,4.5-4.5V49h2v4.5c0,2.485,2.015,4.5,4.5,4.5s4.5-2.015,4.5-4.5V49h2v4.5
		c0,2.485,2.015,4.5,4.5,4.5s4.5-2.015,4.5-4.5V49h2v4.5c0,2.485,2.015,4.5,4.5,4.5s4.5-2.015,4.5-4.5V49h2v4.5
		c0,2.485,2.015,4.5,4.5,4.5s4.5-2.015,4.5-4.5V49h4v-3h-4h-9h-2h-9h-2h-9h-2h-9h-2H5H2v3h3V53.5z M52,49h3v4.5
		c0,0.827-0.673,1.5-1.5,1.5S52,54.327,52,53.5V49z M41,49h3v4.5c0,0.827-0.673,1.5-1.5,1.5S41,54.327,41,53.5V49z M30,49h3v4.5
		c0,0.827-0.673,1.5-1.5,1.5S30,54.327,30,53.5V49z M19,49h3v4.5c0,0.827-0.673,1.5-1.5,1.5S19,54.327,19,53.5V49z M8,49h3v4.5
		c0,0.827-0.673,1.5-1.5,1.5S8,54.327,8,53.5V49z"/>
</g>
</svg>
