<?xml version="1.0" encoding="utf-8"?>
<!-- Generator: Adobe Illustrator 16.0.4, SVG Export Plug-In . SVG Version: 6.00 Build 0)  -->
<!DOCTYPE svg PUBLIC "-//W3C//DTD SVG 1.1//EN" "http://www.w3.org/Graphics/SVG/1.1/DTD/svg11.dtd">
<svg version="1.1" id="Layer_1" xmlns="http://www.w3.org/2000/svg" xmlns:xlink="http://www.w3.org/1999/xlink" x="0px" y="0px"
	 width="50px" height="50px" viewBox="0 0 50 50" enable-background="new 0 0 50 50" xml:space="preserve">
<path d="M30.933,20.049c0.01-0.027,0.024-0.051,0.028-0.08l1-5.969c0.024-0.146-0.017-0.295-0.11-0.406
	c-0.095-0.113-0.235-0.178-0.382-0.178H18.531c-0.147,0-0.287,0.064-0.382,0.178c-0.095,0.111-0.136,0.26-0.111,0.406l1,5.969
	c0.005,0.029,0.021,0.053,0.031,0.08c-2.076,1.713-3.402,4.305-3.402,7.201c0,5.146,4.187,9.334,9.333,9.334
	c5.147,0,9.334-4.188,9.334-9.334C34.334,24.354,33.008,21.762,30.933,20.049z M33.056,25.148c-1.353,0.881-2.914,1.354-4.535,1.354
	c-0.001,0-0.003,0-0.004,0c-3.821,0-7.105-2.553-8.06-6.229c1.309-0.855,2.868-1.357,4.544-1.357
	C28.869,18.916,32.121,21.57,33.056,25.148z M19.123,14.416h11.756l-0.836,4.99c-1.457-0.938-3.186-1.49-5.042-1.49
	s-3.586,0.553-5.042,1.492L19.123,14.416z M19.6,20.916c0.493,1.611,1.387,3.014,2.564,4.105c-1.495,1.428-3.423,2.235-5.493,2.299
	c0-0.023-0.003-0.047-0.003-0.07C16.667,24.715,17.809,22.445,19.6,20.916z M25,35.584c-4.232,0-7.73-3.176-8.257-7.268
	c2.342-0.08,4.523-1.012,6.198-2.656c1.565,1.164,3.498,1.842,5.574,1.842c0.002,0,0.003,0,0.005,0c1.683,0,3.302-0.469,4.737-1.32
	c0.045,0.351,0.076,0.705,0.076,1.068C33.334,31.846,29.596,35.584,25,35.584z M25,17.807c-0.276,0-0.5-0.223-0.5-0.5v-0.555h-0.555
	c-0.276,0-0.5-0.223-0.5-0.5c0-0.275,0.224-0.5,0.5-0.5H24.5v-0.555c0-0.275,0.224-0.5,0.5-0.5s0.5,0.225,0.5,0.5v0.555h0.556
	c0.276,0,0.5,0.225,0.5,0.5c0,0.277-0.224,0.5-0.5,0.5H25.5v0.555C25.5,17.584,25.276,17.807,25,17.807z"/>
</svg>
