<?xml version="1.0" encoding="utf-8"?>
<!-- Generator: Adobe Illustrator 16.0.4, SVG Export Plug-In . SVG Version: 6.00 Build 0)  -->
<!DOCTYPE svg PUBLIC "-//W3C//DTD SVG 1.1//EN" "http://www.w3.org/Graphics/SVG/1.1/DTD/svg11.dtd">
<svg version="1.1" id="Layer_1" xmlns="http://www.w3.org/2000/svg" xmlns:xlink="http://www.w3.org/1999/xlink" x="0px" y="0px"
	 width="50px" height="50px" viewBox="0 0 50 50" enable-background="new 0 0 50 50" xml:space="preserve">
<path d="M25,15.103c-4.08,0-8.062,0.59-8.062,7.64c0,6.703,3.617,12.155,8.062,12.155s8.062-5.453,8.062-12.155
	C33.062,15.691,29.08,15.103,25,15.103z M25,33.896c-3.895,0-7.062-5.004-7.062-11.155c0-6.14,3.199-6.64,7.062-6.64
	s7.062,0.5,7.062,6.64C32.062,28.893,28.895,33.896,25,33.896z M25,17.825c-2.842,0-5.873,0.431-5.873,5.572
	c0,1.616,0.287,2.672,0.905,3.322c0.663,0.701,1.571,0.795,2.372,0.795c0.375,0,0.777-0.023,1.199-0.051
	c0.889-0.055,1.903-0.055,2.793,0c0.422,0.027,0.822,0.051,1.197,0.051c2.328,0,3.278-1.193,3.278-4.117
	C30.873,18.254,27.842,17.825,25,17.825z M27.596,26.514c-0.355,0-0.736-0.023-1.138-0.049c-0.464-0.028-0.953-0.059-1.458-0.059
	s-0.994,0.03-1.458,0.059c-0.399,0.025-0.78,0.049-1.137,0.049c-0.847,0-1.323-0.141-1.647-0.482
	c-0.425-0.447-0.631-1.31-0.631-2.635c0-4.235,2.112-4.572,4.873-4.572c2.762,0,4.873,0.336,4.873,4.572
	C29.873,26.289,28.93,26.514,27.596,26.514z M24.999,28.588c-1.261,0-2.284,1.025-2.284,2.285c0,1.258,1.023,2.283,2.284,2.283
	c1.26,0,2.285-1.025,2.285-2.283C27.284,29.613,26.259,28.588,24.999,28.588z M24.999,32.158c-0.708,0-1.284-0.576-1.284-1.285
	c0-0.707,0.576-1.283,1.284-1.283c0.709,0,1.285,0.576,1.285,1.283C26.284,31.582,25.708,32.158,24.999,32.158z"/>
</svg>
