<?xml version="1.0" encoding="utf-8"?>
<!-- Generator: Adobe Illustrator 17.0.0, SVG Export Plug-In . SVG Version: 6.00 Build 0)  -->
<!DOCTYPE svg PUBLIC "-//W3C//DTD SVG 1.1//EN" "http://www.w3.org/Graphics/SVG/1.1/DTD/svg11.dtd">
<svg version="1.1" id="Capa_1" xmlns="http://www.w3.org/2000/svg" xmlns:xlink="http://www.w3.org/1999/xlink" x="0px" y="0px"
	 width="17.819px" height="13.004px" viewBox="0 0 17.819 13.004" enable-background="new 0 0 17.819 13.004" xml:space="preserve">
<path d="M8.909,4.12c1.315,0,2.381,1.066,2.381,2.381s-1.066,2.381-2.381,2.381S6.528,7.816,6.528,6.501S7.594,4.12,8.909,4.12z
	 M15.209,0.203c-0.269-0.27-0.705-0.27-0.973,0c-0.27,0.268-0.27,0.703,0,0.973C15.658,2.6,16.442,4.489,16.442,6.5
	c0,2.014-0.784,3.905-2.206,5.327c-0.27,0.27-0.27,0.706,0,0.975c0.134,0.134,0.31,0.201,0.487,0.201
	c0.176,0,0.353-0.067,0.485-0.201c1.684-1.684,2.61-3.92,2.61-6.302C17.819,4.123,16.892,1.885,15.209,0.203z M1.376,6.5
	c0-2.012,0.784-3.903,2.206-5.325c0.271-0.27,0.271-0.705,0-0.974c-0.268-0.269-0.705-0.269-0.973,0C0.926,1.884,0,4.122,0,6.5
	c0,2.382,0.927,4.618,2.609,6.302c0.135,0.135,0.31,0.202,0.485,0.202c0.177,0,0.353-0.067,0.486-0.202
	c0.271-0.268,0.271-0.703,0-0.974C2.16,10.406,1.376,8.515,1.376,6.5z M13.14,2.271c-0.269-0.269-0.704-0.269-0.973,0
	c-0.269,0.27-0.269,0.705,0,0.975c0.87,0.869,1.348,2.025,1.348,3.255c0,1.231-0.479,2.388-1.348,3.259
	c-0.269,0.27-0.269,0.705,0,0.973c0.134,0.137,0.311,0.202,0.486,0.202s0.353-0.065,0.486-0.202
	c1.131-1.131,1.753-2.632,1.753-4.231S14.271,3.401,13.14,2.271z M5.651,2.271c-0.27-0.269-0.705-0.269-0.974,0
	C3.548,3.401,2.925,4.902,2.925,6.5c0,1.6,0.623,3.103,1.753,4.231c0.134,0.137,0.312,0.203,0.486,0.203
	c0.176,0,0.354-0.066,0.486-0.203c0.27-0.268,0.27-0.703,0-0.973C4.78,8.889,4.3,7.731,4.3,6.499c0-1.229,0.479-2.387,1.35-3.257
	C5.921,2.974,5.921,2.54,5.651,2.271z"/>
</svg>
