<?xml version="1.0" encoding="utf-8"?>
<!-- Generator: Adobe Illustrator 16.0.0, SVG Export Plug-In . SVG Version: 6.00 Build 0)  -->
<!DOCTYPE svg PUBLIC "-//W3C//DTD SVG 1.1//EN" "http://www.w3.org/Graphics/SVG/1.1/DTD/svg11.dtd">
<svg version="1.1" id="Layer_1" xmlns="http://www.w3.org/2000/svg" xmlns:xlink="http://www.w3.org/1999/xlink" x="0px" y="0px"
	 width="96px" height="96px" viewBox="0 0 96 96" enable-background="new 0 0 96 96" xml:space="preserve">
<path d="M93.538,84.654c-0.892-1.16-2.51-1.406-3.714-0.623L41.249,20.74l0.53-0.404c1.229-0.943,1.481-2.672,0.619-3.932
	c1.786-3.199,2.51-6.988,2.059-11.139c-0.315-2.93-2.954-5.055-5.886-4.738c-2.938,0.316-5.058,2.955-4.74,5.891
	c0.257,2.369-0.164,4.193-1.287,5.582c-1.987,2.461-5.947,3.365-7.397,3.512C6.47,17.639,1.768,29.959,1.89,36.174
	c0.058,2.951,2.495,5.297,5.448,5.24c2.95-0.063,5.295-2.502,5.235-5.449c-0.001-0.082,0-8.26,13.649-9.816
	c0.226-0.023,0.89-0.094,1.829-0.271c0.097,0.334,0.249,0.656,0.475,0.955c0.97,1.266,2.788,1.512,4.059,0.537l0.178-0.135
	L81.25,90.588c-1.146,0.949-1.35,2.635-0.44,3.824c0.937,1.221,2.683,1.451,3.903,0.52l8.312-6.373
	C94.243,87.621,94.473,85.877,93.538,84.654z"/>
</svg>
