<?xml version="1.0" encoding="utf-8"?>
<!-- Generator: Adobe Illustrator 16.0.4, SVG Export Plug-In . SVG Version: 6.00 Build 0)  -->
<!DOCTYPE svg PUBLIC "-//W3C//DTD SVG 1.1//EN" "http://www.w3.org/Graphics/SVG/1.1/DTD/svg11.dtd">
<svg version="1.1" id="Layer_1" xmlns="http://www.w3.org/2000/svg" xmlns:xlink="http://www.w3.org/1999/xlink" x="0px" y="0px"
	 width="226.77px" height="155.91px" viewBox="0 0 226.77 155.91" enable-background="new 0 0 226.77 155.91" xml:space="preserve">
<g>
	<path d="M102.707,8.191c-2.855-2.855-7.479-2.855-10.334,0c-38.468,38.468-38.468,101.06,0,139.527
		c1.428,1.428,3.298,2.142,5.167,2.142s3.739-0.714,5.167-2.139c2.855-2.855,2.855-7.482,0-10.337
		c-32.768-32.771-32.768-86.089,0-118.859C105.562,15.673,105.562,11.046,102.707,8.191z"/>
	<path d="M124.062,147.722c1.427,1.425,3.298,2.139,5.166,2.139c1.869,0,3.74-0.714,5.167-2.142
		c38.469-38.468,38.469-101.059,0-139.527c-2.854-2.855-7.479-2.855-10.333,0c-2.855,2.853-2.855,7.481,0,10.334
		c32.768,32.77,32.768,86.087,0,118.859C121.207,140.237,121.207,144.866,124.062,147.722z"/>
</g>
</svg>
