<?xml version="1.0" encoding="utf-8"?>
<!-- Generator: Adobe Illustrator 17.0.0, SVG Export Plug-In . SVG Version: 6.00 Build 0)  -->
<!DOCTYPE svg PUBLIC "-//W3C//DTD SVG 1.1//EN" "http://www.w3.org/Graphics/SVG/1.1/DTD/svg11.dtd">
<svg version="1.1" id="Capa_1" xmlns="http://www.w3.org/2000/svg" xmlns:xlink="http://www.w3.org/1999/xlink" x="0px" y="0px"
	 width="21.439px" height="20.18px" viewBox="0 0 21.439 20.18" enable-background="new 0 0 21.439 20.18" xml:space="preserve">
<path d="M21.174,10.131c-2.731-3.219-4.716-4.154-8.474-4.289c-0.174-0.02-0.34-0.021-0.492-0.008c-0.207-0.617-0.7-1.068-1.3-1.16
	c0.064-0.645,0.462-0.967,0.887-1.301c0.395-0.314,0.804-0.637,0.804-1.23c0-1.18-0.855-2.143-1.906-2.143S8.787,0.963,8.787,2.143
	c0,0.127,0.093,0.23,0.204,0.23c0.112,0,0.203-0.104,0.203-0.23c0-0.928,0.672-1.686,1.499-1.686s1.5,0.758,1.5,1.686
	c0,0.338-0.24,0.547-0.632,0.857c-0.446,0.352-0.988,0.793-1.058,1.672C9.894,4.754,9.389,5.207,9.178,5.83
	c-0.14-0.008-0.285-0.006-0.439,0.012c-3.758,0.135-5.741,1.07-8.473,4.289c-0.516,0.691-0.207,1.809,0.289,2.176
	s1.439,0.373,1.843-0.166c1.784-2.832,3.258-3.949,6.491-4.598C9.044,7.525,9.194,7.502,9.33,7.469
	c0.29,0.502,0.79,0.836,1.361,0.836c0.576,0,1.078-0.34,1.367-0.848c0.15,0.041,0.316,0.066,0.491,0.086
	c3.232,0.648,4.706,1.766,6.49,4.598c0.401,0.539,1.347,0.533,1.843,0.166C21.379,11.94,21.689,10.822,21.174,10.131z
	 M17.341,11.004h-0.809H4.905H4.098c-0.252,0-0.457,0.23-0.457,0.514c0,0.285,0.205,0.516,0.457,0.516h0.807v8.146h11.628v-8.146
	h0.809c0.252,0,0.457-0.23,0.457-0.516C17.798,11.234,17.593,11.004,17.341,11.004z"/>
</svg>
