<svg width="18.134" xmlns="http://www.w3.org/2000/svg" height="18.134" viewBox="0 0 18.134 18.134" xmlns:xlink="http://www.w3.org/1999/xlink" enable-background="new 0 0 18.134 18.134">
<path d="m16.281,0h-14.427c-1.024,0-1.854,.829-1.854,1.854v14.426c0,1.025 .831,1.854 1.854,1.854h14.426c1.024,0 1.854-.828 1.854-1.854v-14.426c.001-1.025-.829-1.854-1.853-1.854zm-4.636,10.55c1.331,0 2.413,1.082 2.413,2.412 0,1.331-1.083,2.414-2.413,2.414h-3.708-.009c-.659,0-1.293-.148-1.835-.43-.646-.332-1.061-.795-1.293-1.127-.168-.237-.312-.502-.426-.782-.109-.271-.187-.548-.239-.841-.037-.219-.057-.428-.058-.623v-6.401c0-1.331 1.083-2.413 2.413-2.413 1.331,0 2.413,1.082 2.413,2.413v.384h2.741c1.331,0 2.413,1.082 2.413,2.413 0,1.33-1.083,2.412-2.413,2.412h-2.741v.169h2.742z"/>
<path d="m11.645,9.3c.735,0 1.331-.596 1.331-1.331s-.596-1.331-1.331-1.331h-3.823v-1.466c0-.733-.596-1.331-1.332-1.331-.734,0-1.331,.598-1.331,1.331v6.396c0,.058 .002,.216 .042,.443 .03,.172 .08,.383 .175,.62 .072,.179 .17,.372 .308,.567 .204,.291 .51,.584 .906,.785 .393,.205 .856,.31 1.337,.31 .003,0 .006,0 .009,0 1.448,0 3.708,0 3.708,0 .735,0 1.331-.597 1.331-1.331s-.596-1.33-1.331-1.33c0,0-2.26,0-3.708,0-.043,0-.075-.004-.095-.007-.006-.017-.013-.04-.016-.06-.002-.012-.004-.022-.004-.029v-2.236h3.824z"/>
</svg>
