<?xml version="1.0" encoding="utf-8"?>
<!-- Generator: Adobe Illustrator 16.0.4, SVG Export Plug-In . SVG Version: 6.00 Build 0)  -->
<!DOCTYPE svg PUBLIC "-//W3C//DTD SVG 1.1//EN" "http://www.w3.org/Graphics/SVG/1.1/DTD/svg11.dtd">
<svg version="1.1" id="Layer_1" xmlns="http://www.w3.org/2000/svg" xmlns:xlink="http://www.w3.org/1999/xlink" x="0px" y="0px"
	 width="50px" height="50px" viewBox="0 0 50 50" enable-background="new 0 0 50 50" xml:space="preserve">
<path d="M34.486,21.372c-0.095-0.133-0.246-0.213-0.409-0.213h-2.726v-1.962c0-0.276-0.224-0.5-0.5-0.5h-7.107v-1.072
	c0-0.276-0.224-0.5-0.5-0.5h-4.312c-0.275,0-0.5,0.224-0.5,0.5v1.072h-2.51c-0.276,0-0.5,0.224-0.5,0.5v11.396
	c0,0.005,0.002,0.009,0.002,0.013c0.001,0.041,0.015,0.078,0.023,0.115c0.007,0.025,0.009,0.053,0.02,0.075
	c0.014,0.03,0.035,0.054,0.054,0.08c0.02,0.026,0.033,0.054,0.057,0.076c0.02,0.019,0.045,0.03,0.066,0.046
	c0.032,0.021,0.062,0.044,0.099,0.059c0.004,0.002,0.007,0.006,0.011,0.008c0.057,0.021,0.113,0.029,0.17,0.029
	c0.095,0,0.179-0.033,0.254-0.078c0.019-0.011,0.032-0.021,0.048-0.033c0.071-0.056,0.129-0.125,0.162-0.209
	c0.002-0.004,0.006-0.006,0.007-0.01L19.5,22.16h13.867l-2.864,7.935H20.169c-0.276,0-0.5,0.224-0.5,0.5s0.224,0.5,0.5,0.5h10.684
	c0.211,0,0.398-0.132,0.472-0.329l3.225-8.936C34.603,21.676,34.58,21.505,34.486,21.372z M19.147,21.159
	c-0.212,0-0.398,0.132-0.472,0.33l-2.254,6.245v-8.037h2.51c0.276,0,0.5-0.224,0.5-0.5v-1.072h3.312v1.072
	c0,0.276,0.224,0.5,0.5,0.5h7.107v1.462H19.147z M29.815,23.087v0.993h1.061c0.276,0,0.5,0.224,0.5,0.5s-0.224,0.5-0.5,0.5h-1.061
	v1.127c0,0.275-0.225,0.5-0.5,0.5c-0.276,0-0.5-0.225-0.5-0.5V25.08h-1.062c-0.276,0-0.5-0.224-0.5-0.5s0.224-0.5,0.5-0.5h1.062
	v-0.993c0-0.276,0.224-0.5,0.5-0.5C29.591,22.587,29.815,22.811,29.815,23.087z M21.978,29.964c0.116,0.011,0.232,0.017,0.348,0.017
	c1.874,0,3.421-1.408,3.598-3.276c0.091-0.961-0.198-1.901-0.815-2.646c-0.616-0.745-1.484-1.205-2.446-1.295
	c-2.007-0.196-3.754,1.277-3.941,3.26c-0.089,0.937,0.189,1.849,0.771,2.584l-3.304,3.42c-0.191,0.199-0.187,0.516,0.013,0.707
	c0.098,0.095,0.223,0.141,0.348,0.141c0.131,0,0.262-0.051,0.359-0.152l3.312-3.432C20.733,29.662,21.331,29.902,21.978,29.964z
	 M22.316,23.746c0.083,0,0.166,0.004,0.251,0.012c0.694,0.066,1.323,0.399,1.771,0.938c0.445,0.539,0.655,1.219,0.589,1.916
	c-0.136,1.434-1.381,2.49-2.854,2.358c-0.696-0.065-1.324-0.399-1.771-0.938c-0.444-0.539-0.653-1.22-0.588-1.915
	C19.843,24.765,20.96,23.746,22.316,23.746z"/>
</svg>
