<?xml version="1.0" encoding="utf-8"?>
<!-- Generator: Adobe Illustrator 16.0.4, SVG Export Plug-In . SVG Version: 6.00 Build 0)  -->
<!DOCTYPE svg PUBLIC "-//W3C//DTD SVG 1.1//EN" "http://www.w3.org/Graphics/SVG/1.1/DTD/svg11.dtd">
<svg version="1.1" id="Layer_1" xmlns="http://www.w3.org/2000/svg" xmlns:xlink="http://www.w3.org/1999/xlink" x="0px" y="0px"
	 width="50px" height="50px" viewBox="0 0 50 50" enable-background="new 0 0 50 50" xml:space="preserve">
<path d="M33.662,21.857h-3.119v-0.916c0-0.701-0.316-1.875-2.438-1.875c-2.123,0-2.438,1.174-2.438,1.875v0.916h-0.474
	c-0.219-3.39-3.037-6.08-6.479-6.08c-3.584,0-6.5,2.916-6.5,6.5c0,3.484,2.758,6.33,6.205,6.484v3.262c0,0.276,0.225,0.5,0.5,0.5
	h1.969c0.236,0.973,1.107,1.699,2.15,1.699c1.045,0,1.916-0.728,2.15-1.699h5.824c0.236,0.973,1.107,1.699,2.15,1.699
	c1.045,0,1.916-0.728,2.148-1.699h1.973c0.275,0,0.5-0.224,0.5-0.5v-6.041C37.787,23.709,35.938,21.857,33.662,21.857z
	 M26.668,20.941c0-0.285,0-0.875,1.438-0.875c1.439,0,1.439,0.59,1.439,0.875v0.916H26.67v-0.916H26.668z M24.68,24.857h0.158v2.084
	h-1.605C23.842,26.352,24.336,25.646,24.68,24.857z M25.838,24.857h3.125v2.084h-3.125V24.857z M13.217,22.277
	c0-3.033,2.467-5.5,5.5-5.5c3.031,0,5.5,2.467,5.5,5.5c0,3.031-2.469,5.5-5.5,5.5C15.684,27.777,13.217,25.309,13.217,22.277z
	 M23.042,33.223c-0.672,0-1.219-0.547-1.219-1.219s0.547-1.219,1.219-1.219s1.219,0.547,1.219,1.219S23.713,33.223,23.042,33.223z
	 M33.166,33.223c-0.672,0-1.219-0.547-1.219-1.219s0.547-1.219,1.219-1.219s1.219,0.547,1.219,1.219S33.838,33.223,33.166,33.223z
	 M36.787,31.523H35.33c-0.221-0.992-1.105-1.738-2.164-1.738s-1.943,0.746-2.162,1.738h-5.798c-0.221-0.992-1.105-1.738-2.164-1.738
	s-1.943,0.746-2.162,1.738h-1.457v-2.787c0.914-0.1,1.77-0.391,2.531-0.832c0.055,0.021,0.115,0.037,0.178,0.037h7.332
	c0.277,0,0.5-0.226,0.5-0.5v-3.084c0-0.275-0.223-0.5-0.5-0.5h-4.449c0.082-0.324,0.143-0.658,0.174-1h8.476
	c1.723,0,3.125,1.401,3.125,3.125v5.541H36.787z M33.662,23.857h-1.699c-0.275,0-0.5,0.225-0.5,0.5v3.084c0,0.274,0.225,0.5,0.5,0.5
	h3.324c0.277,0,0.5-0.226,0.5-0.5v-1.459C35.787,24.811,34.834,23.857,33.662,23.857z M34.787,26.941h-2.324v-2.084h1.199
	c0.621,0,1.125,0.506,1.125,1.125V26.941z M18.424,22.936h-2.9v-0.002c0-0.387,0.099-0.721,0.295-0.998
	c0.197-0.281,0.566-0.608,1.109-0.992c0.242-0.168,0.414-0.323,0.514-0.465c0.101-0.141,0.148-0.297,0.148-0.471
	c0-0.188-0.055-0.34-0.164-0.455c-0.107-0.115-0.252-0.172-0.432-0.172c-0.191,0-0.34,0.072-0.445,0.215
	c-0.107,0.146-0.158,0.34-0.15,0.588h-0.817c-0.017-0.461,0.104-0.828,0.36-1.098c0.256-0.271,0.609-0.406,1.06-0.406
	c0.418,0,0.763,0.125,1.026,0.373c0.267,0.25,0.396,0.57,0.396,0.965c0,0.322-0.074,0.59-0.227,0.801
	c-0.15,0.214-0.432,0.451-0.846,0.716c-0.386,0.243-0.646,0.465-0.785,0.661l-0.004,0.007h1.86L18.424,22.936L18.424,22.936z
	 M20.54,22.936h0.822v-0.938h0.479v-0.666h-0.479V18.68h-0.467h-0.47l-1.571,2.594v0.363v0.361h1.686V22.936z M19.471,21.332
	l0.035-0.059l1.033-1.713v1.771L19.471,21.332L19.471,21.332z M17.336,23.623h0.229v2.191h-0.229h-0.229v-0.992H16.25v0.992h-0.229
	h-0.229v-2.191h0.229h0.229v0.822h0.856v-0.822H17.336z M19.208,25.01c0.057,0.043,0.086,0.113,0.088,0.211l0.004,0.205
	c0,0.084,0.006,0.166,0.014,0.24c0.01,0.076,0.021,0.125,0.031,0.146h0.506v-0.058c-0.035-0.019-0.061-0.043-0.074-0.071
	c-0.012-0.029-0.02-0.08-0.021-0.152l-0.012-0.359c-0.005-0.176-0.068-0.301-0.195-0.375c-0.021-0.014-0.045-0.025-0.071-0.037
	c0.047-0.018,0.09-0.039,0.129-0.066c0.141-0.096,0.213-0.25,0.213-0.461c0-0.182-0.064-0.33-0.191-0.44
	c-0.129-0.11-0.297-0.168-0.506-0.168h-0.879h-0.229v2.19h0.229h0.229v-0.867h0.456C19.059,24.947,19.153,24.969,19.208,25.01z
	 M18.473,24.002h0.549c0.111,0,0.195,0.023,0.252,0.07c0.058,0.049,0.084,0.121,0.084,0.217c0,0.1-0.028,0.17-0.088,0.219
	c-0.059,0.049-0.147,0.072-0.266,0.072h-0.531V24.002z M20.672,24.018c-0.066,0.053-0.098,0.123-0.098,0.215
	c0,0.064,0.033,0.115,0.104,0.15c0.066,0.037,0.209,0.08,0.43,0.129c0.318,0.07,0.533,0.152,0.642,0.246
	c0.106,0.092,0.16,0.24,0.16,0.445c0,0.207-0.08,0.369-0.242,0.49s-0.383,0.182-0.658,0.182c-0.276,0-0.493-0.062-0.649-0.191
	s-0.238-0.312-0.25-0.549h0.44c0.004,0.117,0.048,0.205,0.127,0.27c0.078,0.062,0.188,0.095,0.332,0.095
	c0.146,0,0.263-0.022,0.343-0.072c0.082-0.047,0.125-0.11,0.125-0.194c0-0.082-0.031-0.144-0.091-0.183
	c-0.059-0.039-0.182-0.08-0.368-0.121c-0.349-0.077-0.582-0.161-0.699-0.252c-0.115-0.09-0.174-0.229-0.174-0.418
	c0-0.215,0.075-0.383,0.229-0.508c0.155-0.123,0.362-0.187,0.625-0.187c0.246,0,0.444,0.064,0.601,0.193
	c0.154,0.129,0.239,0.303,0.258,0.523h-0.447c-0.008-0.104-0.053-0.188-0.137-0.248c-0.084-0.061-0.193-0.092-0.326-0.092
	C20.829,23.941,20.739,23.967,20.672,24.018z"/>
</svg>
