<?xml version="1.0" encoding="utf-8"?>
<!-- Generator: Adobe Illustrator 16.0.4, SVG Export Plug-In . SVG Version: 6.00 Build 0)  -->
<!DOCTYPE svg PUBLIC "-//W3C//DTD SVG 1.1//EN" "http://www.w3.org/Graphics/SVG/1.1/DTD/svg11.dtd">
<svg version="1.1" id="Layer_1" xmlns="http://www.w3.org/2000/svg" xmlns:xlink="http://www.w3.org/1999/xlink" x="0px" y="0px"
	 width="50px" height="50px" viewBox="0 0 50 50" enable-background="new 0 0 50 50" xml:space="preserve">
<path d="M18.644,15.829h-1v-2.128h1V15.829z M20.348,18.243c-0.163-1.076-1.083-1.905-2.204-1.905c-1.122,0-2.042,0.829-2.202,1.905
	H20.348z M22.221,15.814l-0.707-0.707l-1.505,1.504l0.707,0.707L22.221,15.814z M16.28,16.503l-1.505-1.505l-0.707,0.707
	l1.505,1.505L16.28,16.503z M17.733,20.686h-5v5.492h5V20.686z M40,30.576v2h-1.098v1.417h-3.965
	c-0.237,1.309-1.379,2.306-2.754,2.306c-1.377,0-2.519-0.997-2.756-2.306H20.9c-0.237,1.309-1.38,2.306-2.756,2.306
	c-1.375,0-2.518-0.997-2.754-2.306h-4.549v-1.417H10v-2h0.841V18.747h28.062v11.829H40z M19.951,33.493
	c0-0.996-0.811-1.808-1.807-1.808s-1.805,0.812-1.805,1.808s0.81,1.806,1.805,1.806C19.14,35.299,19.951,34.489,19.951,33.493z
	 M33.988,33.493c0-0.996-0.811-1.808-1.805-1.808c-0.996,0-1.807,0.812-1.807,1.808s0.811,1.806,1.807,1.806
	S33.988,34.489,33.988,33.493z M37.902,19.747H11.84v13.246h3.548c0.237-1.31,1.379-2.308,2.755-2.308s2.519,0.998,2.756,2.308
	h8.527c0.237-1.31,1.379-2.308,2.756-2.308c1.375,0,2.518,0.998,2.754,2.308H37.9V19.747H37.902z M24.663,29.373h2v-2.195h2.194v-2
	h-2.194V22.98h-2v2.197h-2.197v2h2.197V29.373z"/>
</svg>
