<?xml version="1.0" encoding="utf-8"?>
<!-- Generator: Adobe Illustrator 16.0.4, SVG Export Plug-In . SVG Version: 6.00 Build 0)  -->
<!DOCTYPE svg PUBLIC "-//W3C//DTD SVG 1.1//EN" "http://www.w3.org/Graphics/SVG/1.1/DTD/svg11.dtd">
<svg version="1.1" id="Layer_1" xmlns="http://www.w3.org/2000/svg" xmlns:xlink="http://www.w3.org/1999/xlink" x="0px" y="0px"
	 width="50px" height="50px" viewBox="0 0 50 50" enable-background="new 0 0 50 50" xml:space="preserve">
<path d="M23.043,19.329c0.164-1.103,1.105-1.948,2.253-1.948c1.146,0,2.086,0.847,2.252,1.948H23.043z M25.855,14.681h-1.121v2.179
	h1.121V14.681z M29.499,16.878l-0.793-0.792l-1.539,1.539l0.793,0.791L29.499,16.878z M23.424,17.511l-1.539-1.539l-0.792,0.793
	l1.538,1.539L23.424,17.511z M31.109,27.752h1.682v-1.658h1.659v-1.683h-1.659v-1.656h-1.682v1.656h-1.656v1.683h1.656V27.752z
	 M40,31.561h-1.075v1.402h-4.059c-0.263,1.342-1.444,2.355-2.863,2.355c-1.417,0-2.599-1.016-2.86-2.355h-8.635
	c-0.263,1.342-1.443,2.355-2.861,2.355s-2.601-1.016-2.862-2.355h-3.972v-1.402H10v-2.24h0.812v-3.969h5.929l3.249-5.608h18.935
	v9.578H40V31.561L40,31.561z M19.443,32.402c0-0.99-0.807-1.797-1.797-1.797c-0.992,0-1.799,0.807-1.799,1.797
	s0.807,1.797,1.799,1.797S19.443,33.393,19.443,32.402z M33.803,32.402c0-0.99-0.807-1.797-1.8-1.797
	c-0.989,0-1.797,0.807-1.797,1.797s0.808,1.797,1.797,1.797C32.996,34.199,33.803,33.393,33.803,32.402z M37.805,20.864H20.636
	l-3.247,5.607h-5.455v5.371h2.851c0.263-1.344,1.444-2.357,2.862-2.357s2.6,1.016,2.861,2.357h8.635
	c0.262-1.344,1.443-2.357,2.86-2.357c1.419,0,2.601,1.016,2.863,2.357h2.938V20.864L37.805,20.864z M25.044,26.354v-4.369h-3.761
	l-2.531,4.369H25.044z"/>
</svg>
