<?xml version="1.0" encoding="utf-8"?>
<!-- Generator: Adobe Illustrator 16.0.4, SVG Export Plug-In . SVG Version: 6.00 Build 0)  -->
<!DOCTYPE svg PUBLIC "-//W3C//DTD SVG 1.1//EN" "http://www.w3.org/Graphics/SVG/1.1/DTD/svg11.dtd">
<svg version="1.1" id="Layer_1" xmlns="http://www.w3.org/2000/svg" xmlns:xlink="http://www.w3.org/1999/xlink" x="0px" y="0px"
	 width="226.77px" height="155.91px" viewBox="0 0 226.77 155.91" enable-background="new 0 0 226.77 155.91" xml:space="preserve">
<g>
	<path d="M120.693,117.283c-4.037,0-7.309,3.271-7.309,7.308c0,4.037,3.272,7.309,7.309,7.309h56.029
		c4.037,0,7.309-3.271,7.309-7.309c0-4.036-3.271-7.308-7.309-7.308H120.693z"/>
	<path d="M42.738,51.509c0,4.037,3.272,7.308,7.309,7.308h19.489v19.489c0,4.037,3.271,7.309,7.308,7.309s7.309-3.271,7.309-7.309
		V58.817h21.925c4.037,0,7.308-3.271,7.308-7.308s-3.271-7.309-7.308-7.309H84.152V19.839c0-4.037-3.272-7.308-7.309-7.308
		s-7.308,3.271-7.308,7.308V44.2H50.046C46.01,44.2,42.738,47.472,42.738,51.509z"/>
	<path d="M174.166,24.57c-2.854-2.855-7.482-2.855-10.336,0L57.501,130.903c-2.853,2.853-2.853,7.481,0,10.334
		c1.425,1.428,3.298,2.142,5.167,2.142c1.868,0,3.742-0.714,5.169-2.142L174.166,34.907
		C177.021,32.054,177.021,27.423,174.166,24.57z"/>
</g>
</svg>
