<?xml version="1.0" encoding="utf-8"?>
<!-- Generator: Adobe Illustrator 16.0.4, SVG Export Plug-In . SVG Version: 6.00 Build 0)  -->
<!DOCTYPE svg PUBLIC "-//W3C//DTD SVG 1.1//EN" "http://www.w3.org/Graphics/SVG/1.1/DTD/svg11.dtd">
<svg version="1.1" id="Layer_1" xmlns="http://www.w3.org/2000/svg" xmlns:xlink="http://www.w3.org/1999/xlink" x="0px" y="0px"
	 width="226.77px" height="155.91px" viewBox="0 0 226.77 155.91" enable-background="new 0 0 226.77 155.91" xml:space="preserve">
<path d="M141.533,102.597h10.836V91.211h-14.604l-10.891-34.02c9.764-19.994-8.608-26.21-8.608-26.21V21.08h-11.358v9.901
	c0,0-18.564,8.36-8.003,26.21l-10.313,34.02H74.676v11.358h10.148L74.4,134.774h5.775l2.173-5.692h9.406l5.775-28.438h9.351v7.591
	h9.488v-7.591h10.836l7.398,28.492h9.405l2.173,5.693h5.775L141.533,102.597z M114.471,93.108v-9.433l-5.692,0.027v9.434h-7.371
	l9.158-36.551c-3.465-0.88-6.05-4.785-6.05-8.525c0-4.429,3.575-8.389,8.003-8.389s8.003,3.383,8.003,7.811
	c0,3.905-2.805,8.581-6.49,9.296l10.506,36.33H114.471z"/>
</svg>
