<?xml version="1.0" encoding="utf-8"?>
<!-- Generator: Adobe Illustrator 16.0.4, SVG Export Plug-In . SVG Version: 6.00 Build 0)  -->
<!DOCTYPE svg PUBLIC "-//W3C//DTD SVG 1.1//EN" "http://www.w3.org/Graphics/SVG/1.1/DTD/svg11.dtd">
<svg version="1.1" id="Layer_1" xmlns="http://www.w3.org/2000/svg" xmlns:xlink="http://www.w3.org/1999/xlink" x="0px" y="0px"
	 width="226.77px" height="155.91px" viewBox="0 0 226.77 155.91" enable-background="new 0 0 226.77 155.91" xml:space="preserve">
<path d="M154.187,108.897h-41.331L132.036,67.1h22.15c3.298,0,5.972-2.673,5.972-5.971s-2.674-5.971-5.972-5.971h-16.669
	l12.146-26.463c1.375-2.998,0.06-6.542-2.938-7.917c-3-1.375-6.543-0.062-7.918,2.936l-14.431,31.445H96.735
	c-2.289-0.458-17.685-4.48-17.685-29.542c0-3.298-2.673-5.971-5.971-5.971s-5.971,2.673-5.971,5.971
	c0,18.536,7.157,29.533,14.93,35.514c-7.774,5.981-14.93,16.978-14.93,35.514c0,3.298,2.673,5.971,5.971,5.971
	s5.971-2.673,5.971-5.971c0-25.007,14.886-29.013,17.677-29.542h22.17l-19.181,41.796H72.582c-3.298,0-5.971,2.674-5.971,5.972
	s2.673,5.971,5.971,5.971h21.653l-3.196,6.964c-1.375,2.998-0.062,6.541,2.936,7.918c0.809,0.372,1.654,0.545,2.488,0.545
	c2.261,0,4.427-1.291,5.432-3.482l5.479-11.944h46.812c3.298,0,5.972-2.673,5.972-5.971S157.484,108.897,154.187,108.897z"/>
</svg>
