<?xml version="1.0" encoding="utf-8"?>
<!-- Generator: Adobe Illustrator 16.0.4, SVG Export Plug-In . SVG Version: 6.00 Build 0)  -->
<!DOCTYPE svg PUBLIC "-//W3C//DTD SVG 1.1//EN" "http://www.w3.org/Graphics/SVG/1.1/DTD/svg11.dtd">
<svg version="1.1" id="Layer_1" xmlns="http://www.w3.org/2000/svg" xmlns:xlink="http://www.w3.org/1999/xlink" x="0px" y="0px"
	 width="226.77px" height="155.91px" viewBox="0 0 226.77 155.91" enable-background="new 0 0 226.77 155.91" xml:space="preserve">
<g>
	<path d="M161.753,134.479l-54.824-24.653l6.564-12.879l40.426,18.272c0.977,0.443,2,0.653,3.006,0.653
		c2.784,0,5.441-1.599,6.665-4.303c1.661-3.678,0.029-8.005-3.649-9.668l-39.799-17.994l17.562-34.449l21.842-8.378
		c3.769-1.444,5.651-5.671,4.207-9.44c-1.445-3.769-5.679-5.649-9.439-4.207L147.624,30l6.072-11.913
		c1.832-3.596,0.404-7.995-3.191-9.83c-3.6-1.837-7.997-0.405-9.832,3.193l-13.444,26.374L65.396,61.542
		c-2.753,1.057-4.602,3.661-4.687,6.609c-0.088,2.948,1.608,5.659,4.295,6.873l35.16,15.896l-6.58,12.904L71.011,93.672
		c-3.684-1.658-8.01-0.009-9.664,3.67c-1.654,3.684-0.012,8.007,3.669,9.664l21.92,9.855l-9.601,18.832
		c-1.832,3.596-0.404,7.994,3.191,9.829c1.065,0.544,2.198,0.799,3.313,0.799c2.66,0,5.225-1.459,6.517-3.993l9.924-19.467
		l55.478,24.946c0.972,0.438,1.99,0.646,2.993,0.646c2.79,0,5.453-1.605,6.67-4.314
		C167.078,140.461,165.434,136.134,161.753,134.479z M86.977,68.919l30.332-11.635l-10.502,20.6L86.977,68.919z"/>
</g>
</svg>
