<?xml version="1.0" encoding="utf-8"?>
<!-- Generator: Adobe Illustrator 17.0.0, SVG Export Plug-In . SVG Version: 6.00 Build 0)  -->
<!DOCTYPE svg PUBLIC "-//W3C//DTD SVG 1.1//EN" "http://www.w3.org/Graphics/SVG/1.1/DTD/svg11.dtd">
<svg version="1.1" id="Capa_1" xmlns="http://www.w3.org/2000/svg" xmlns:xlink="http://www.w3.org/1999/xlink" x="0px" y="0px"
	 width="18.04px" height="18.499px" viewBox="0 0 18.04 18.499" enable-background="new 0 0 18.04 18.499" xml:space="preserve">
<path d="M14.744,2.335v-1.88c0-0.25,0.143-0.455,0.32-0.455s0.322,0.205,0.322,0.455v1.88c0,0.251-0.145,0.456-0.322,0.456
	C14.888,2.791,14.744,2.586,14.744,2.335z M8.876,2.791c0.177,0,0.322-0.205,0.322-0.456v-1.88C9.198,0.205,9.053,0,8.876,0
	S8.555,0.205,8.555,0.455v1.88C8.555,2.586,8.7,2.791,8.876,2.791z M2.849,2.791c0.177,0,0.321-0.205,0.321-0.456v-1.88
	C3.17,0.205,3.026,0,2.849,0C2.672,0,2.528,0.205,2.528,0.455v1.88C2.527,2.586,2.672,2.791,2.849,2.791z M18.04,4.429h-0.023
	c0.012,0.074,0.023,0.15,0.023,0.229V17.1c0,0.768-0.616,1.399-1.367,1.399H1.367C0.615,18.499,0,17.869,0,17.1V4.658
	c0-0.079,0.01-0.155,0.023-0.229H0V2.647c0-0.798,0.615-1.449,1.367-1.449h0.782v1.137c0,0.466,0.307,0.832,0.699,0.832
	c0.391,0,0.698-0.366,0.698-0.832V1.198h4.633v1.137c0,0.466,0.307,0.832,0.697,0.832c0.391,0,0.699-0.366,0.699-0.832V1.198h4.792
	v1.137c0,0.466,0.307,0.832,0.697,0.832c0.392,0,0.699-0.366,0.699-0.832V1.198h0.91c0.752,0,1.367,0.651,1.367,1.449V4.429z
	 M16.812,16.127L16.811,4.778c0-0.122-0.022-0.238-0.052-0.349H1.113c-0.03,0.112-0.051,0.227-0.051,0.349v11.349
	c0,0.704,0.537,1.278,1.193,1.278h13.363C16.275,17.405,16.812,16.831,16.812,16.127z M2.458,7.926l0.337,1.536l1.67-0.794h0.028
	v6.936h1.979V6.849H4.789L2.458,7.926z M12.271,13.894h-0.002l0.808-0.674c1.28-1.131,2.331-2.303,2.331-3.784
	c0-1.576-1.078-2.735-3.071-2.735c-1.172,0-2.209,0.404-2.855,0.903l0.579,1.454c0.458-0.337,1.118-0.714,1.872-0.714
	c1.01,0,1.428,0.565,1.428,1.279c-0.013,1.023-0.943,2.008-2.869,3.731l-1.118,1.011v1.239h6.21v-1.685h-3.313V13.894z"/>
</svg>
