<?xml version="1.0" encoding="utf-8"?>
<!-- Generator: Adobe Illustrator 16.0.4, SVG Export Plug-In . SVG Version: 6.00 Build 0)  -->
<!DOCTYPE svg PUBLIC "-//W3C//DTD SVG 1.1//EN" "http://www.w3.org/Graphics/SVG/1.1/DTD/svg11.dtd">
<svg version="1.1" id="Layer_1" xmlns="http://www.w3.org/2000/svg" xmlns:xlink="http://www.w3.org/1999/xlink" x="0px" y="0px"
	 width="50px" height="50px" viewBox="0 0 50 50" enable-background="new 0 0 50 50" xml:space="preserve">
<path d="M29.877,25.472c-0.805-0.793-1.871-1.23-3.002-1.23c-0.506,0-0.99,0.102-1.451,0.268v-4.026
	c0-1.813-1.475-3.289-3.289-3.289c-1.812,0-3.289,1.475-3.289,3.289v8.806c0,1.813,1.478,3.289,3.289,3.289
	c0.762,0,1.475-0.271,2.057-0.744c0.763,0.619,1.691,0.972,2.684,0.972c1.156,0,2.24-0.454,3.054-1.279
	C31.582,29.844,31.559,27.127,29.877,25.472z M22.135,18.194c1.262,0,2.289,1.027,2.289,2.289v3.756h-4.578v-3.756
	C19.846,19.222,20.874,18.194,22.135,18.194z M19.846,29.289V25.24h4.312c-0.111,0.094-0.232,0.175-0.336,0.281
	c-1.514,1.54-1.607,3.935-0.328,5.601c-0.391,0.291-0.859,0.457-1.359,0.457C20.874,31.578,19.846,30.551,19.846,29.289z
	 M29.215,30.824c-1.23,1.25-3.393,1.268-4.64,0.038c-1.289-1.269-1.307-3.351-0.039-4.641c0.621-0.632,1.453-0.98,2.339-0.98
	c0.865,0,1.684,0.334,2.301,0.943C30.465,27.453,30.482,29.535,29.215,30.824z M29.623,28.648c0,0.275-0.225,0.5-0.5,0.5h-2.189
	c-0.039,0-0.08-0.005-0.119-0.016c-0.223-0.055-0.44-0.27-0.44-0.5v-2.233c0-0.276,0.224-0.5,0.5-0.5c0.274,0,0.5,0.224,0.5,0.5
	v1.749h1.75C29.398,28.148,29.623,28.373,29.623,28.648z"/>
</svg>
