<?xml version="1.0" encoding="utf-8"?>
<!-- Generator: Adobe Illustrator 16.0.4, SVG Export Plug-In . SVG Version: 6.00 Build 0)  -->
<!DOCTYPE svg PUBLIC "-//W3C//DTD SVG 1.1//EN" "http://www.w3.org/Graphics/SVG/1.1/DTD/svg11.dtd">
<svg version="1.1" id="Layer_1" xmlns="http://www.w3.org/2000/svg" xmlns:xlink="http://www.w3.org/1999/xlink" x="0px" y="0px"
	 width="50px" height="50px" viewBox="0 0 50 50" enable-background="new 0 0 50 50" xml:space="preserve">
<path d="M35.566,22.538c-1.43-0.592-2.767-0.48-3.811,0.283v-0.723c0.232,0.053,0.562,0.106,0.946,0.106c0,0,0,0,0.001,0
	c0.626,0,1.179-0.146,1.645-0.429c1.256-0.77,1.656-2.471,1.674-2.543c0.057-0.25-0.084-0.502-0.326-0.586
	c-0.023-0.008-0.582-0.192-1.285-0.192c-0.626,0-1.178,0.144-1.641,0.424c-0.437,0.269-0.764,0.647-1.014,1.033v-1.097
	c0-0.276-0.224-0.5-0.5-0.5c-0.275,0-0.5,0.224-0.5,0.5v4.004c-0.256-0.186-0.527-0.332-0.816-0.438
	c-1.156-3.961-4.809-6.715-8.955-6.715c-5.146,0-9.332,4.188-9.332,9.334s4.187,9.334,9.332,9.334c2.086,0,4.108-0.709,5.746-1.99
	c1.045,1.173,2.275,1.99,3.429,1.99c0.304,0,0.595-0.058,0.86-0.168c0.08-0.031,0.157-0.07,0.236-0.115
	c0.078,0.045,0.154,0.082,0.23,0.113c0.271,0.112,0.562,0.17,0.865,0.17c0,0,0,0,0.002,0c2.179,0,4.65-2.922,5.592-5.647
	C38.938,25.815,38.07,23.575,35.566,22.538z M33.292,19.733c0.304-0.185,0.679-0.277,1.118-0.277c0.175,0,0.338,0.014,0.479,0.035
	c-0.176,0.447-0.512,1.098-1.062,1.434c-0.306,0.186-0.685,0.281-1.123,0.281h-0.001c-0.174,0-0.336-0.016-0.477-0.035
	C32.402,20.722,32.738,20.073,33.292,19.733z M21.485,33.312v-1.52c0-0.275-0.223-0.5-0.5-0.5c-0.275,0-0.5,0.225-0.5,0.5v1.518
	c-4.209-0.252-7.577-3.635-7.81-7.85h1.478c0.275,0,0.5-0.225,0.5-0.5c0-0.277-0.225-0.5-0.5-0.5H12.68
	c0.271-4.178,3.625-7.518,7.807-7.768v1.434c0,0.275,0.224,0.5,0.5,0.5c0.275,0,0.5-0.225,0.5-0.5v-1.438
	c3.318,0.198,6.213,2.362,7.338,5.477c-0.597-0.016-1.228,0.104-1.878,0.373c-2.503,1.037-3.371,3.277-2.38,6.148
	c0.341,0.983,0.882,1.994,1.535,2.883C24.774,32.603,23.164,33.212,21.485,33.312z M37.002,28.36
	c-0.999,2.895-3.623,5.506-5.135,4.879c-0.088-0.035-0.184-0.094-0.303-0.188c-0.09-0.069-0.198-0.104-0.309-0.104
	c-0.109,0-0.218,0.035-0.309,0.104c-0.117,0.093-0.213,0.152-0.307,0.188c-1.478,0.611-4.133-1.985-5.131-4.881
	c-1.035-2.998,0.417-4.317,1.817-4.897c1.45-0.603,2.674-0.315,3.521,0.865c0.008,0.01,0.02,0.014,0.026,0.022
	c0.032,0.039,0.071,0.07,0.114,0.098c0.019,0.013,0.033,0.027,0.054,0.037c0.063,0.029,0.135,0.052,0.212,0.052
	s0.148-0.021,0.213-0.054c0.02-0.008,0.033-0.021,0.051-0.032c0.045-0.029,0.084-0.062,0.119-0.103
	c0.006-0.01,0.018-0.014,0.023-0.021c0.848-1.181,2.07-1.468,3.521-0.865C36.584,24.042,38.036,25.362,37.002,28.36z M30.949,32.142
	c0,0.277-0.225,0.5-0.5,0.5c-1.172,0-3.301-2.072-4.188-4.646c-0.091-0.261,0.049-0.545,0.309-0.636
	c0.262-0.09,0.547,0.05,0.637,0.31c0.822,2.392,2.703,3.974,3.243,3.974C30.727,31.642,30.949,31.866,30.949,32.142z M21.485,20.501
	v4.625c0,0.119-0.043,0.236-0.121,0.326l-2.375,2.75c-0.1,0.115-0.238,0.174-0.379,0.174c-0.115,0-0.231-0.041-0.326-0.123
	c-0.209-0.18-0.231-0.496-0.051-0.705l2.252-2.607v-4.439c0-0.277,0.225-0.5,0.5-0.5C21.262,20.001,21.485,20.224,21.485,20.501z"/>
</svg>
