<?xml version="1.0" encoding="utf-8"?>
<!-- Generator: Adobe Illustrator 16.0.0, SVG Export Plug-In . SVG Version: 6.00 Build 0)  -->
<!DOCTYPE svg PUBLIC "-//W3C//DTD SVG 1.1//EN" "http://www.w3.org/Graphics/SVG/1.1/DTD/svg11.dtd">
<svg version="1.1" id="Layer_1" xmlns="http://www.w3.org/2000/svg" xmlns:xlink="http://www.w3.org/1999/xlink" x="0px" y="0px"
	 width="96px" height="96px" viewBox="0 0 96 96" enable-background="new 0 0 96 96" xml:space="preserve">
<g>
	<path d="M89.276,30.563c-2.256-5.336-5.486-10.126-9.6-14.239c-4.114-4.114-8.904-7.345-14.238-9.601
		C59.915,4.388,54.048,3.203,48,3.203S36.085,4.388,30.563,6.724c-5.334,2.256-10.125,5.486-14.238,9.601
		c-4.114,4.113-7.344,8.903-9.6,14.238C4.388,36.085,3.203,41.951,3.203,48s1.185,11.915,3.521,17.437
		c2.256,5.336,5.486,10.126,9.6,14.239c4.114,4.114,8.904,7.345,14.238,9.601c5.523,2.336,11.39,3.521,17.438,3.521
		s11.915-1.185,17.438-3.521c5.334-2.256,10.125-5.486,14.238-9.601c4.114-4.113,7.344-8.903,9.6-14.238
		c2.336-5.522,3.521-11.389,3.521-17.438S91.612,36.085,89.276,30.563z M90.746,48c0,23.57-19.176,42.746-42.746,42.746
		S5.254,71.57,5.254,48S24.43,5.254,48,5.254S90.746,24.43,90.746,48z"/>
	<path d="M57.516,32.506L48.001,42.75l-9.966-10.244H9.946l0.139,31.123h26.986l11.002,10.879l10.592-10.879h27.386V32.506H57.516z
		 M47.996,71.124l-9.456-9.403H11.856V34.414h25.252L48.03,45.292l10.223-10.878h25.891v27.307H57.226L47.996,71.124z"/>
	<g>
		<polygon points="36.468,35.964 13.407,35.964 13.407,60.17 36.837,60.17 36.864,57.124 47.997,68.224 58.934,57.226 58.934,60.17 
			82.593,60.17 82.593,35.964 58.924,35.964 48.067,47.517 		"/>
	</g>
</g>
</svg>
