<?xml version="1.0" encoding="utf-8"?>
<!-- Generator: Adobe Illustrator 16.0.4, SVG Export Plug-In . SVG Version: 6.00 Build 0)  -->
<!DOCTYPE svg PUBLIC "-//W3C//DTD SVG 1.1//EN" "http://www.w3.org/Graphics/SVG/1.1/DTD/svg11.dtd">
<svg version="1.1" id="Layer_1" xmlns="http://www.w3.org/2000/svg" xmlns:xlink="http://www.w3.org/1999/xlink" x="0px" y="0px"
	 width="226.77px" height="155.91px" viewBox="0 0 226.77 155.91" enable-background="new 0 0 226.77 155.91" xml:space="preserve">
<g>
	<path d="M86.748,67.746c40.686-8.595,77.064-5.533,83.256-0.514c-0.636,3.552,1.439,7.111,4.97,8.241
		c0.741,0.236,1.491,0.351,2.229,0.351c3.094,0,5.965-1.979,6.959-5.082c1.457-4.555,0.437-9.228-2.807-12.814
		c-12.994-14.382-65.938-11.177-97.629-4.48c-17.028,3.596-22.953,2.146-24.583,1.469c0.056-0.178,0.126-0.36,0.2-0.502
		c1.939-3.474,0.741-7.874-2.714-9.881c-3.491-2.027-7.963-0.84-9.99,2.65c-2.349,4.046-3.686,10.712,0.275,16.188
		C52.394,70.939,65.047,72.33,86.748,67.746z"/>
	<path d="M84.312,104.287c40.683-8.593,77.066-5.53,83.257-0.515c-0.637,3.553,1.439,7.111,4.969,8.242
		c0.74,0.236,1.491,0.351,2.229,0.351c3.094,0,5.966-1.979,6.96-5.082c1.457-4.556,0.436-9.228-2.807-12.813
		c-12.992-14.383-65.936-11.175-97.629-4.48c-17.028,3.596-22.953,2.146-24.583,1.469c0.056-0.178,0.126-0.36,0.2-0.502
		c1.939-3.473,0.741-7.873-2.714-9.881c-3.488-2.026-7.961-0.838-9.99,2.65c-2.349,4.047-3.686,10.712,0.275,16.188
		C49.955,107.48,62.611,108.872,84.312,104.287z"/>
</g>
</svg>
