<?xml version="1.0" encoding="utf-8"?>
<!-- Generator: Adobe Illustrator 16.0.4, SVG Export Plug-In . SVG Version: 6.00 Build 0)  -->
<!DOCTYPE svg PUBLIC "-//W3C//DTD SVG 1.1//EN" "http://www.w3.org/Graphics/SVG/1.1/DTD/svg11.dtd">
<svg version="1.1" id="Layer_1" xmlns="http://www.w3.org/2000/svg" xmlns:xlink="http://www.w3.org/1999/xlink" x="0px" y="0px"
	 width="226.77px" height="155.91px" viewBox="0 0 226.77 155.91" enable-background="new 0 0 226.77 155.91" xml:space="preserve">
<g>
	<path d="M166.979,49.94c4.037,0,7.309-3.271,7.309-7.308s-3.271-7.308-7.309-7.308h-13.027l11.819-17.898
		c2.224-3.369,1.296-7.903-2.071-10.127c-3.369-2.224-7.904-1.296-10.126,2.07l-17.141,25.955h-39.56
		c-24.478,0-44.391,17.727-44.391,39.518v6.768v1.896c0,16.743,11.011,32.36,25.845,39.808l-10.02,15.172
		c-2.224,3.369-1.296,7.903,2.071,10.127c1.242,0.816,2.641,1.209,4.022,1.209c2.373,0,4.702-1.154,6.105-3.281l12.458-18.865
		c1.296,0.131,2.6,0.219,3.91,0.219h70.105c4.037,0,7.309-3.271,7.309-7.309c0-4.036-3.271-7.308-7.309-7.308h-64.507l16.087-24.361
		h19.188c4.036,0,7.309-3.271,7.309-7.309c0-4.037-3.272-7.308-7.309-7.308h-9.535l16.088-24.361h22.68V49.94z M86.473,110.979
		c-9.057-3.958-16.585-12.58-18.743-22.061h33.311L86.473,110.979z M110.693,74.302h-43.56c0.366-15.058,15.594-24.361,29.74-24.361
		h29.908L110.693,74.302z"/>
</g>
</svg>
