<?xml version="1.0" encoding="utf-8"?>
<!-- Generator: Adobe Illustrator 16.0.4, SVG Export Plug-In . SVG Version: 6.00 Build 0)  -->
<!DOCTYPE svg PUBLIC "-//W3C//DTD SVG 1.1//EN" "http://www.w3.org/Graphics/SVG/1.1/DTD/svg11.dtd">
<svg version="1.1" id="Layer_1" xmlns="http://www.w3.org/2000/svg" xmlns:xlink="http://www.w3.org/1999/xlink" x="0px" y="0px"
	 width="226.77px" height="155.91px" viewBox="0 0 226.77 155.91" enable-background="new 0 0 226.77 155.91" xml:space="preserve">
<g>
	<path d="M85.305,57.948c42.168-10.104,80.758-5.973,84.532-0.026c-0.007,0.002-0.015,0.014-0.021,0.039
		c-1.097,3.886,1.164,7.922,5.048,9.019c0.662,0.188,1.332,0.278,1.987,0.278c3.191,0,6.122-2.105,7.03-5.325
		c1.472-5.221,0.184-10.28-3.632-14.254c-14.655-15.252-67.35-11.369-98.35-3.944c-20.683,4.958-24.882,1.522-24.948,1.52l0,0
		c-0.122-0.404,0.117-1.615,0.47-2.37c1.776-3.576,0.351-7.927-3.215-9.754c-3.593-1.839-7.996-0.417-9.837,3.174
		c-0.526,1.025-4.962,10.251,1.028,17.869C51.419,61.831,64.099,63.03,85.305,57.948z"/>
	<path d="M184.137,116.277c0-4.036-3.271-7.308-7.309-7.308H50.152c-4.037,0-7.309,3.271-7.309,7.308s3.272,7.308,7.309,7.308
		h126.676C180.865,123.585,184.137,120.313,184.137,116.277z"/>
	<path d="M176.828,79.735H50.152c-4.037,0-7.309,3.272-7.309,7.309c0,4.037,3.272,7.309,7.309,7.309h126.676
		c4.037,0,7.309-3.271,7.309-7.309C184.137,83.008,180.865,79.735,176.828,79.735z"/>
</g>
</svg>
