<?xml version="1.0" encoding="utf-8"?>
<!-- Generator: Adobe Illustrator 16.0.4, SVG Export Plug-In . SVG Version: 6.00 Build 0)  -->
<!DOCTYPE svg PUBLIC "-//W3C//DTD SVG 1.1//EN" "http://www.w3.org/Graphics/SVG/1.1/DTD/svg11.dtd">
<svg version="1.1" id="Layer_1" xmlns="http://www.w3.org/2000/svg" xmlns:xlink="http://www.w3.org/1999/xlink" x="0px" y="0px"
	 width="226.77px" height="155.91px" viewBox="0 0 226.77 155.91" enable-background="new 0 0 226.77 155.91" xml:space="preserve">
<g>
	<path d="M89.023,14.617v126.676c0,4.037,3.271,7.309,7.309,7.309c4.036,0,7.308-3.271,7.308-7.309V14.617
		c0-4.037-3.272-7.309-7.308-7.309C92.295,7.309,89.023,10.58,89.023,14.617z"/>
	<path d="M130.438,148.602c4.036,0,7.309-3.271,7.309-7.309V14.617c0-4.037-3.272-7.309-7.309-7.309
		c-4.037,0-7.309,3.271-7.309,7.309v126.676C123.129,145.33,126.4,148.602,130.438,148.602z"/>
</g>
</svg>
