<?xml version="1.0" encoding="utf-8"?>
<!-- Generator: Adobe Illustrator 16.0.4, SVG Export Plug-In . SVG Version: 6.00 Build 0)  -->
<!DOCTYPE svg PUBLIC "-//W3C//DTD SVG 1.1//EN" "http://www.w3.org/Graphics/SVG/1.1/DTD/svg11.dtd">
<svg version="1.1" id="Layer_1" xmlns="http://www.w3.org/2000/svg" xmlns:xlink="http://www.w3.org/1999/xlink" x="0px" y="0px"
	 width="226.77px" height="155.91px" viewBox="0 0 226.77 155.91" enable-background="new 0 0 226.77 155.91" xml:space="preserve">
<g>
	<path d="M163.324,57.249c0-19.808-15.873-35.324-36.135-35.324H70.753c-4.037,0-7.308,3.272-7.308,7.309s3.271,7.308,7.308,7.308
		h56.437c12.266,0,21.52,8.901,21.52,20.707v7.308c0,12.544-9.855,23.144-21.52,23.144H70.753c-4.037,0-7.308,3.271-7.308,7.308
		s3.271,7.309,7.308,7.309h56.437c19.926,0,36.135-16.938,36.135-37.76V57.249z"/>
	<path d="M70.753,119.368c-4.037,0-7.308,3.272-7.308,7.309c0,4.037,3.271,7.309,7.308,7.309h85.263
		c4.037,0,7.309-3.271,7.309-7.309c0-4.036-3.271-7.309-7.309-7.309H70.753z"/>
</g>
</svg>
