<?xml version="1.0" encoding="utf-8"?>
<!-- Generator: Adobe Illustrator 16.0.0, SVG Export Plug-In . SVG Version: 6.00 Build 0)  -->
<!DOCTYPE svg PUBLIC "-//W3C//DTD SVG 1.1//EN" "http://www.w3.org/Graphics/SVG/1.1/DTD/svg11.dtd">
<svg version="1.1" id="Layer_1" xmlns="http://www.w3.org/2000/svg" xmlns:xlink="http://www.w3.org/1999/xlink" x="0px" y="0px"
	 width="96px" height="96px" viewBox="0 0 96 96" enable-background="new 0 0 96 96" xml:space="preserve">
<g>
	<path d="M84.908,51.409c0-20.089-13.189-36.698-30.149-39.044V6.336c0-2.81-2.276-5.087-5.086-5.087H43.57
		c-2.81,0-5.086,2.277-5.086,5.087v27.605c0,2.81,2.276,5.086,5.086,5.086h6.103c2.81,0,5.086-2.276,5.086-5.086v-9.185
		c10.203,2.384,17.943,13.426,17.943,26.652c0,12.746-7.187,23.461-16.836,26.356l-2.007,0.692
		c1.392-2.934,2.524-6.904,2.524-10.368c0-12.507-10.139-22.646-22.646-22.646c-12.506,0-22.646,10.139-22.646,22.646
		c0,9.201,5.491,17.115,13.374,20.658v6.003h56.739V77.766h-5.15C81.554,70.786,84.908,61.539,84.908,51.409z M33.466,84.971
		c-9.464,0-17.135-7.671-17.135-17.134c0-9.466,7.671-17.137,17.135-17.137c9.465,0,17.136,7.671,17.136,17.137
		C50.602,77.3,42.931,84.971,33.466,84.971z"/>
	<circle cx="25.994" cy="63.967" r="3.899"/>
	<circle cx="39.576" cy="62.35" r="3.94"/>
	<circle cx="35.396" cy="74.947" r="4.428"/>
</g>
</svg>
