<?xml version="1.0" encoding="utf-8"?>
<!-- Generator: Adobe Illustrator 16.0.4, SVG Export Plug-In . SVG Version: 6.00 Build 0)  -->
<!DOCTYPE svg PUBLIC "-//W3C//DTD SVG 1.1//EN" "http://www.w3.org/Graphics/SVG/1.1/DTD/svg11.dtd">
<svg version="1.1" id="Layer_1" xmlns="http://www.w3.org/2000/svg" xmlns:xlink="http://www.w3.org/1999/xlink" x="0px" y="0px"
	 width="226.77px" height="155.91px" viewBox="0 0 226.77 155.91" enable-background="new 0 0 226.77 155.91" xml:space="preserve">
<g>
	<path d="M91.646,98.333H105.4l-2.962,6.211H91.646c-2.572,0-4.658,2.085-4.658,4.657c0,2.573,2.085,4.658,4.658,4.658h6.349
		l-2.008,4.205c-1.107,2.321-0.124,5.102,2.199,6.209c0.647,0.309,1.331,0.454,2.003,0.454c1.74,0,3.409-0.978,4.208-2.651
		l3.919-8.217h26.805c2.572,0,4.657-2.085,4.657-4.658c0-2.572-2.085-4.657-4.657-4.657h-22.36l2.962-6.211h19.396
		c2.573,0,4.658-2.085,4.658-4.657c0-2.573-2.085-4.658-4.658-4.658h-14.953l2.701-5.663c1.107-2.321,0.125-5.101-2.197-6.208
		c-2.317-1.11-5.102-0.125-6.21,2.198l-4.614,9.674h-18.2c-2.572,0-4.658,2.085-4.658,4.657
		C86.988,96.248,89.073,98.333,91.646,98.333z"/>
	<path d="M93.874,31.491c-2.396-0.916-5.096,0.279-6.017,2.681c-0.922,2.402,0.279,5.096,2.681,6.017l32.495,12.464L90.289,67.456
		c-2.344,1.06-3.385,3.819-2.326,6.164c0.778,1.722,2.473,2.741,4.248,2.741c0.641,0,1.293-0.134,1.916-0.415l42.915-19.4
		c1.713-0.774,2.792-2.501,2.737-4.38s-1.232-3.54-2.987-4.212L93.874,31.491z"/>
</g>
</svg>
