<?xml version="1.0" encoding="utf-8"?>
<!-- Generator: Adobe Illustrator 16.0.4, SVG Export Plug-In . SVG Version: 6.00 Build 0)  -->
<!DOCTYPE svg PUBLIC "-//W3C//DTD SVG 1.1//EN" "http://www.w3.org/Graphics/SVG/1.1/DTD/svg11.dtd">
<svg version="1.1" id="Layer_1" xmlns="http://www.w3.org/2000/svg" xmlns:xlink="http://www.w3.org/1999/xlink" x="0px" y="0px"
	 width="226.77px" height="155.91px" viewBox="0 0 226.77 155.91" enable-background="new 0 0 226.77 155.91" xml:space="preserve">
<g>
	<path d="M70.815,87.581c1.019,2.254,3.238,3.59,5.559,3.59c0.839,0,1.693-0.176,2.506-0.545l74.185-33.536
		c2.244-1.012,3.657-3.274,3.586-5.734c-0.071-2.459-1.616-4.632-3.913-5.514L78.553,17.387c-3.152-1.213-6.671,0.368-7.876,3.51
		c-1.207,3.144,0.366,6.671,3.51,7.876l60.546,23.223L73.86,79.517C70.792,80.902,69.427,84.515,70.815,87.581z"/>
	<path d="M158.676,105.54c-1.533-2.996-5.231-4.242-8.234-2.705c-2.989,1.53-4.203,5.128-2.69,8.119
		c-1.481,0.333-5.339,0.643-13.955-1.416c-3.092-0.742-6.472-1.423-10.014-2.015l5.959-13.963c1.321-3.096-0.118-6.679-3.213-8.002
		c-3.092-1.323-6.679,0.114-8.002,3.213l-7.313,17.132c-17.133-1.553-34.814-0.427-41.513,6.545
		c-2.762,2.874-3.732,6.692-2.665,10.476c0.758,2.687,3.203,4.444,5.866,4.444c0.548,0,1.105-0.075,1.658-0.229
		c2.947-0.833,4.774-3.695,4.393-6.646c2.912-2.099,13.475-3.559,27.208-2.754l-5.421,12.699c-1.321,3.096,0.118,6.679,3.216,8.002
		c0.78,0.333,1.591,0.492,2.39,0.492c2.37,0,4.622-1.391,5.609-3.705l6.898-16.16c3.935,0.587,7.987,1.343,12.1,2.327
		c8.899,2.132,21.365,4.15,26.918-2.917C161.191,114.255,160.381,108.869,158.676,105.54z"/>
</g>
</svg>
