<?xml version="1.0" encoding="utf-8"?>
<!-- Generator: Adobe Illustrator 16.0.4, SVG Export Plug-In . SVG Version: 6.00 Build 0)  -->
<!DOCTYPE svg PUBLIC "-//W3C//DTD SVG 1.1//EN" "http://www.w3.org/Graphics/SVG/1.1/DTD/svg11.dtd">
<svg version="1.1" id="Layer_1" xmlns="http://www.w3.org/2000/svg" xmlns:xlink="http://www.w3.org/1999/xlink" x="0px" y="0px"
	 width="226.77px" height="155.91px" viewBox="0 0 226.77 155.91" enable-background="new 0 0 226.77 155.91" xml:space="preserve">
<g>
	<path d="M64.042,84.452c1.221,2.701,3.881,4.299,6.666,4.299c1.006,0,2.029-0.209,3.006-0.65l85.585-38.689
		c2.687-1.216,4.38-3.925,4.295-6.873s-1.935-5.554-4.687-6.611L73.319,3.101c-3.764-1.439-7.995,0.438-9.44,4.208
		c-1.445,3.769,0.438,7.995,4.207,9.439l69.237,26.556L67.692,74.78C64.016,76.444,62.381,80.773,64.042,84.452z"/>
	<path d="M70.729,120.423c-3.593-1.839-7.995-0.419-9.837,3.174c-2.002,3.913-2.955,10.247,0.958,15.222
		c6.504,8.272,20.997,5.937,31.331,3.459c9.481-2.271,18.734-3.537,27.067-4.101l5.354,11.004c1.268,2.6,3.869,4.113,6.578,4.113
		c1.071,0,2.162-0.236,3.193-0.738c3.63-1.767,5.141-6.142,3.374-9.77l-2.344-4.816c8.169,0.41,14.124,1.618,16.415,3.143
		c-0.365,3.475,1.81,6.807,5.283,7.789c0.662,0.188,1.332,0.277,1.988,0.277c3.191,0,6.121-2.104,7.03-5.325
		c1.259-4.463,0.114-8.962-3.14-12.349c-6.032-6.277-19.699-8.482-34.778-8.326l-6.473-13.301
		c15.065-0.783,26.653,0.815,30.086,3.101c-0.365,3.474,1.81,6.806,5.284,7.788c0.662,0.188,1.332,0.277,1.987,0.277
		c3.191,0,6.122-2.104,7.03-5.324c1.26-4.464,0.115-8.963-3.14-12.35c-7.786-8.102-28.286-9.42-48.13-7.629l-3.995-8.211
		c-1.769-3.631-6.144-5.14-9.769-3.373c-3.629,1.766-5.14,6.141-3.374,9.769l1.854,3.81c-3.81,0.653-7.45,1.392-10.794,2.193
		c-9.328,2.233-13.776,2.039-15.642,1.702c1.477-3.493,0.027-7.589-3.403-9.345c-3.593-1.842-7.995-0.416-9.837,3.174
		c-2.002,3.913-2.955,10.246,0.958,15.221c6.504,8.273,20.997,5.939,31.331,3.46c4.775-1.143,9.484-2.02,14.059-2.696l6.166,12.67
		c-8.443,0.871-16.668,2.282-23.63,3.948c-9.328,2.234-13.776,2.039-15.642,1.703C75.612,126.274,74.162,122.183,70.729,120.423z"/>
</g>
</svg>
