<?xml version="1.0" encoding="utf-8"?>
<!-- Generator: Adobe Illustrator 16.0.4, SVG Export Plug-In . SVG Version: 6.00 Build 0)  -->
<!DOCTYPE svg PUBLIC "-//W3C//DTD SVG 1.1//EN" "http://www.w3.org/Graphics/SVG/1.1/DTD/svg11.dtd">
<svg version="1.1" id="Layer_1" xmlns="http://www.w3.org/2000/svg" xmlns:xlink="http://www.w3.org/1999/xlink" x="0px" y="0px"
	 width="226.77px" height="155.91px" viewBox="0 0 226.77 155.91" enable-background="new 0 0 226.77 155.91" xml:space="preserve">
<g>
	<path d="M78.061,121.805c-4.037,0-7.308,3.271-7.308,7.309s3.271,7.309,7.308,7.309h70.647c4.037,0,7.309-3.271,7.309-7.309V80.391
		V26.797c0-4.037-3.271-7.309-7.309-7.309H78.061c-4.037,0-7.308,3.271-7.308,7.309c0,4.036,3.271,7.309,7.308,7.309h63.338v38.978
		h-56.03c-4.036,0-7.308,3.271-7.308,7.308c0,4.037,3.272,7.309,7.308,7.309h56.03v34.105H78.061z"/>
</g>
</svg>
