<?xml version="1.0" encoding="utf-8"?>
<!-- Generator: Adobe Illustrator 16.0.0, SVG Export Plug-In . SVG Version: 6.00 Build 0)  -->
<!DOCTYPE svg PUBLIC "-//W3C//DTD SVG 1.1//EN" "http://www.w3.org/Graphics/SVG/1.1/DTD/svg11.dtd">
<svg version="1.1" id="Layer_2" xmlns="http://www.w3.org/2000/svg" xmlns:xlink="http://www.w3.org/1999/xlink" x="0px" y="0px"
	 width="96px" height="96px" viewBox="0 0 96 96" enable-background="new 0 0 96 96" xml:space="preserve">
<g>
	<path d="M25.682,35.216c0.778,0.15,1.582,0.305,2.406,0.464c1.643,0.318,3.373,0.655,5.164,1.004
		c1.799,0.298,3.601,0.805,5.425,1.321c1.82,0.529,3.694,0.957,5.505,1.583c0.913,0.322,1.814,0.641,2.724,0.958l-7.341-23.139
		H15.924l-1.029,16.975c1.339,0.166,4.455,0.048,8.605,0.563C24.2,35.032,24.929,35.124,25.682,35.216z"/>
	<path d="M95.763,50.581l-3.534,0.552c-1.171,0.188-2.33,0.425-3.503,0.573c-2.089,0.222-4.157,0.516-6.232,0.691l-1.883-34.99
		H57.325L49.148,41.33c0.139,0.05,0.282,0.1,0.421,0.15c1.736,0.687,3.439,1.36,5.092,2.014c1.632,0.649,3.212,1.277,4.712,1.871
		c1.49,0.628,2.92,1.076,4.245,1.523c1.332,0.414,2.53,0.927,3.641,1.143c1.106,0.261,2.071,0.483,2.865,0.67
		c1.597,0.375,2.51,0.59,2.51,0.59l-0.052,0.467c0,0-0.94-0.095-2.585-0.265c-0.826-0.085-1.826-0.188-2.976-0.306
		c-1.167-0.079-2.42-0.438-3.827-0.684c-1.395-0.282-2.929-0.557-4.491-0.991c-1.573-0.404-3.229-0.83-4.944-1.269
		c-1.7-0.435-3.455-0.882-5.237-1.337c-19.283-4.367-30.991-4.583-34.033-4.554l-0.012,0.185c-1.366,0.081-2.73,0.207-4.083,0.381
		c-3.438,0.42-6.847,1.05-10.158,2.014c1.713-0.146,3.43-0.21,5.136-0.271c1.71-0.044,3.414-0.076,5.117-0.057
		c1.285,0.023,2.57,0.055,3.851,0.112l-2.243,35.857h19.636l1.124-24.168h2.708l6.276,24.187h12.112l7.329-22.946
		c0.794,0.093,1.591,0.166,2.39,0.201l1.397,22.727h18.832L82.608,54.52c2.159-0.403,4.263-1.068,6.386-1.57
		C91.28,52.228,93.53,51.398,95.763,50.581z"/>
</g>
</svg>
