<?xml version="1.0" encoding="utf-8"?>
<!-- Generator: Adobe Illustrator 16.0.0, SVG Export Plug-In . SVG Version: 6.00 Build 0)  -->
<!DOCTYPE svg PUBLIC "-//W3C//DTD SVG 1.1//EN" "http://www.w3.org/Graphics/SVG/1.1/DTD/svg11.dtd">
<svg version="1.1" id="Layer_2" xmlns="http://www.w3.org/2000/svg" xmlns:xlink="http://www.w3.org/1999/xlink" x="0px" y="0px"
	 width="96px" height="96px" viewBox="0 0 96 96" enable-background="new 0 0 96 96" xml:space="preserve">
<g>
	<path d="M19.48,56.563c0.042-2.653-0.014-5.31,0.033-7.964c-0.014-4.017,0.028-8.033,0.014-12.049
		c0.054-2.513-0.019-5.03,0.042-7.543c6.463,13.122,12.954,26.229,19.419,39.351c5.876,0.002,11.754,0,17.632,0
		c6.468-13.126,12.963-26.243,19.431-39.369c0.023,7.767,0.042,15.532,0.057,23.299c0.035,2.486-0.014,4.971,0.03,7.457
		c-0.007,2.744,0.002,5.487,0.015,8.231c5.154,0,10.309,0,15.464,0c0.002-20.999,0.002-41.997,0-62.998
		C88.262,4.98,84.905,4.95,81.547,4.945c-0.766-0.008-1.535,0.03-2.296-0.05H67.544c-6.578,16.711-13.159,33.422-19.74,50.133
		c-6.578-16.711-13.157-33.422-19.74-50.133H13.428c-2.041,0.125-4.092,0.03-6.138,0.082C6.192,4.98,5.098,4.976,4,4.978v62.998
		c5.155,0,10.31,0.002,15.462,0C19.452,64.171,19.495,60.364,19.48,56.563z"/>
	<path d="M73.78,81.747c5.947,0.012,11.894-0.026,17.838-0.017c0-3.573,0-7.146,0-10.72c-5.152,0.003-10.307,0.003-15.459,0
		c-0.047,2.499-0.063,4.999-0.106,7.498c-6.414-2.516-12.829-5.027-19.245-7.545c-0.111-0.045-0.222-0.066-0.339-0.068
		c-5.544,0-11.087,0-16.629,0c-0.339,0.019-0.697-0.059-1.021,0.068c-6.423,2.708-12.843,5.423-19.266,8.129
		c-0.026-2.693-0.073-5.388-0.09-8.082c-5.154,0.003-10.309,0-15.464,0.003v10.915c5.742-0.012,11.481,0.021,17.223,0.017
		c2.229,0.009,4.461-0.017,6.691,0.017c0.108-0.008,0.209-0.036,0.304-0.088c6.526-3.265,13.056-6.528,19.582-9.791
		c6.373,3.118,12.744,6.246,19.117,9.367c0.255,0.113,0.493,0.292,0.775,0.311C69.722,81.78,71.751,81.735,73.78,81.747z"/>
	<path d="M4,91.104h23.077c0-2.436,0-4.867,0.002-7.303c-7.693,0.003-15.386,0-23.08,0.003V91.104z"/>
	<path d="M36.253,91.104h23.096c0-2.436,0-4.867,0-7.303c-7.698,0.003-15.398,0.003-23.096,0
		C36.253,86.237,36.253,88.669,36.253,91.104z"/>
	<path d="M68.92,83.802c0.002,2.436,0,4.867,0.002,7.303H92v-7.3C84.307,83.802,76.614,83.805,68.92,83.802z"/>
</g>
</svg>
