<?xml version="1.0" encoding="utf-8"?>
<!-- Generator: Adobe Illustrator 16.0.4, SVG Export Plug-In . SVG Version: 6.00 Build 0)  -->
<!DOCTYPE svg PUBLIC "-//W3C//DTD SVG 1.1//EN" "http://www.w3.org/Graphics/SVG/1.1/DTD/svg11.dtd">
<svg version="1.1" id="Layer_1" xmlns="http://www.w3.org/2000/svg" xmlns:xlink="http://www.w3.org/1999/xlink" x="0px" y="0px"
	 width="50px" height="50px" viewBox="0 0 50 50" enable-background="new 0 0 50 50" xml:space="preserve">
<path d="M23.844,18.718c0-0.69,0.561-1.25,1.25-1.25c0.691,0,1.25,0.56,1.25,1.25c0,0.69-0.559,1.25-1.25,1.25
	C24.405,19.968,23.844,19.409,23.844,18.718z M27.844,27.344c-0.275,0-0.5,0.224-0.5,0.5c0,2.033-1.654,3.688-3.687,3.688
	c-2.034,0-3.688-1.654-3.688-3.688c0-2.034,1.654-3.688,3.688-3.688c0.275,0,0.5-0.224,0.5-0.5c0-0.276-0.225-0.5-0.5-0.5
	c-2.586,0-4.688,2.103-4.688,4.688c0,2.585,2.103,4.688,4.688,4.688c2.585,0,4.687-2.103,4.687-4.688
	C28.344,27.566,28.121,27.344,27.844,27.344z M23.657,25.375c0.138,0,0.25-0.112,0.25-0.25s-0.112-0.25-0.25-0.25
	c-1.637,0-2.969,1.333-2.969,2.969s1.332,2.969,2.969,2.969s2.968-1.332,2.968-2.969c0-0.139-0.111-0.25-0.25-0.25
	s-0.25,0.111-0.25,0.25c0,1.361-1.107,2.469-2.468,2.469c-1.362,0-2.469-1.107-2.469-2.469
	C21.188,26.481,22.295,25.375,23.657,25.375z M30.979,27.912c-0.123-0.248-0.424-0.346-0.67-0.225l-0.414,0.207l-1.014-1.74
	c-0.09-0.154-0.254-0.248-0.432-0.248h-2.855v-5.189c0-0.276-0.223-0.5-0.5-0.5c-0.275,0-0.5,0.224-0.5,0.5v5.689
	c0,0.275,0.225,0.5,0.5,0.5h3.068l1.104,1.896c0.092,0.158,0.26,0.248,0.434,0.248c0.074,0,0.15-0.016,0.223-0.053l0.834-0.416
	C31.002,28.459,31.102,28.158,30.979,27.912z"/>
</svg>
