<?xml version="1.0" encoding="utf-8"?>
<!-- Generator: Adobe Illustrator 16.0.4, SVG Export Plug-In . SVG Version: 6.00 Build 0)  -->
<!DOCTYPE svg PUBLIC "-//W3C//DTD SVG 1.1//EN" "http://www.w3.org/Graphics/SVG/1.1/DTD/svg11.dtd">
<svg version="1.1" id="Layer_1" xmlns="http://www.w3.org/2000/svg" xmlns:xlink="http://www.w3.org/1999/xlink" x="0px" y="0px"
	 width="226.77px" height="155.91px" viewBox="0 0 226.77 155.91" enable-background="new 0 0 226.77 155.91" xml:space="preserve">
<g>
	<path d="M86.588,66.179c10.3,0,18.678-8.378,18.678-18.678s-8.378-18.675-18.678-18.675S67.91,37.204,67.91,47.504
		S76.288,66.179,86.588,66.179z"/>
	<path d="M86.588,127.082c10.3,0,18.678-8.379,18.678-18.678c0-10.301-8.378-18.676-18.678-18.676S67.91,98.107,67.91,108.406
		C67.91,118.707,76.288,127.082,86.588,127.082z"/>
	<path d="M140.183,28.827c-10.3,0-18.678,8.377-18.678,18.677s8.378,18.678,18.678,18.678s18.677-8.378,18.677-18.678
		S150.482,28.827,140.183,28.827z"/>
	<path d="M158.859,108.406c0-10.299-8.377-18.678-18.677-18.678s-18.678,8.379-18.678,18.678c0,10.301,8.378,18.678,18.678,18.678
		S158.859,118.703,158.859,108.406z"/>
</g>
</svg>
