<?xml version="1.0" encoding="utf-8"?>
<!-- Generator: Adobe Illustrator 17.0.0, SVG Export Plug-In . SVG Version: 6.00 Build 0)  -->
<!DOCTYPE svg PUBLIC "-//W3C//DTD SVG 1.1//EN" "http://www.w3.org/Graphics/SVG/1.1/DTD/svg11.dtd">
<svg version="1.1" id="Capa_1" xmlns="http://www.w3.org/2000/svg" xmlns:xlink="http://www.w3.org/1999/xlink" x="0px" y="0px"
	 width="18.49px" height="18.507px" viewBox="0 0 18.49 18.507" enable-background="new 0 0 18.49 18.507" xml:space="preserve">
<path d="M6.218,5.786c0.453,0,0.82,0.367,0.82,0.82c0,0.453-0.367,0.82-0.82,0.82c-0.453,0-0.82-0.367-0.82-0.82
	C5.398,6.154,5.765,5.786,6.218,5.786z M6.251,8.871c1.103,0,1.997,0.894,1.997,1.997s-0.894,1.997-1.997,1.997
	s-1.997-0.894-1.997-1.997S5.148,8.871,6.251,8.871z M11.612,9.938c0.499,0,0.903,0.404,0.903,0.903
	c0,0.499-0.404,0.903-0.903,0.903c-0.499,0-0.903-0.404-0.903-0.903C10.709,10.342,11.113,9.938,11.612,9.938z M17.847,12.482
	l0.017-0.006c-0.895-2.669-2.403-5.18-4.527-7.306C11.263,3.098,8.826,1.621,6.23,0.716C6.02,0.617,5.788,0.558,5.542,0.558
	c-0.9,0-1.63,0.728-1.63,1.629c0,0.728,0.482,1.338,1.141,1.547L0.557,17.949l14.197-4.489c0.206,0.664,0.818,1.149,1.549,1.149
	c0.899,0,1.628-0.73,1.628-1.629C17.932,12.805,17.898,12.64,17.847,12.482z M10.997,13.781c-0.055-0.064-0.109-0.131-0.169-0.191
	c-1.009-1.009-2.644-1.009-3.654,0c-0.456,0.457-0.705,1.04-0.749,1.635l-4.601,1.456L5.779,4.173
	c1.929,0.647,3.743,1.735,5.28,3.272c1.538,1.536,2.626,3.351,3.271,5.28C14.331,12.725,10.997,13.781,10.997,13.781z"/>
</svg>
