<?xml version="1.0" encoding="utf-8"?>
<!-- Generator: Adobe Illustrator 16.0.0, SVG Export Plug-In . SVG Version: 6.00 Build 0)  -->
<!DOCTYPE svg PUBLIC "-//W3C//DTD SVG 1.1//EN" "http://www.w3.org/Graphics/SVG/1.1/DTD/svg11.dtd">
<svg version="1.1" id="Layer_1" xmlns="http://www.w3.org/2000/svg" xmlns:xlink="http://www.w3.org/1999/xlink" x="0px" y="0px"
	 width="96px" height="96px" viewBox="0 0 96 96" enable-background="new 0 0 96 96" xml:space="preserve">
<path d="M63.991,18.31c-3.495,0-6.849,0.613-9.967,1.728c-2.431-0.663-4.976-1.047-7.612-1.047c-3.237,0-6.343,0.556-9.25,1.539
	c-2.112-0.505-4.306-0.801-6.568-0.801C15.004,19.728,2.318,32.41,2.318,48c0,15.59,12.686,28.274,28.275,28.274
	c2.265,0,4.456-0.297,6.57-0.802c2.908,0.982,6.011,1.538,9.248,1.538c2.637,0,5.182-0.384,7.612-1.047
	c3.118,1.115,6.472,1.728,9.967,1.728c16.371,0,29.69-13.319,29.69-29.69C93.682,31.629,80.362,18.31,63.991,18.31z M59.431,67.631
	c-2.266-0.526-4.382-1.432-6.283-2.651c3.572-4.736,5.718-10.605,5.718-16.98c0-6.376-2.146-12.244-5.718-16.979
	c1.901-1.219,4.018-2.125,6.283-2.651C65.784,32.596,69.982,39.813,69.982,48S65.784,63.404,59.431,67.631z M43.82,48
	c0-5.911,2.57-11.217,6.634-14.91c3.132,4.161,5.012,9.313,5.012,14.91c0,5.596-1.88,10.75-5.012,14.911
	C46.391,59.218,43.82,53.91,43.82,48z M43.353,26.688c-5.575,5.4-9.052,12.956-9.052,21.311c0,8.357,3.477,15.912,9.052,21.313
	c-0.911,0.549-1.851,1.053-2.835,1.483C30.37,68.167,22.841,58.958,22.841,48c0-10.958,7.526-20.167,17.675-22.794
	C41.498,25.635,42.438,26.14,43.353,26.688z M30.594,72.875C16.879,72.875,5.718,61.716,5.718,48
	c0-13.715,11.161-24.873,24.876-24.873c0.3,0,0.592,0.035,0.892,0.045C23.064,28.254,17.401,37.466,17.401,48
	c0,10.534,5.663,19.747,14.087,24.83C31.188,72.84,30.894,72.875,30.594,72.875z M67.516,67.842
	c4.888-5.194,7.906-12.166,7.906-19.843c0-7.677-3.019-14.647-7.906-19.842C76.96,29.832,84.163,38.082,84.163,48
	C84.163,57.918,76.96,66.168,67.516,67.842z"/>
</svg>
