<?xml version="1.0" encoding="utf-8"?>
<!-- Generator: Adobe Illustrator 16.0.4, SVG Export Plug-In . SVG Version: 6.00 Build 0)  -->
<!DOCTYPE svg PUBLIC "-//W3C//DTD SVG 1.1//EN" "http://www.w3.org/Graphics/SVG/1.1/DTD/svg11.dtd">
<svg version="1.1" id="Layer_1" xmlns="http://www.w3.org/2000/svg" xmlns:xlink="http://www.w3.org/1999/xlink" x="0px" y="0px"
	 width="50px" height="50px" viewBox="0 0 50 50" enable-background="new 0 0 50 50" xml:space="preserve">
<path d="M22.437,17.501c-5.146,0-9.333,4.187-9.333,9.332s4.187,9.334,9.333,9.334c5.147,0,9.334-4.188,9.334-9.334
	S27.582,17.501,22.437,17.501z M22.437,35.167c-4.595,0-8.333-3.737-8.333-8.334c0-4.595,3.738-8.332,8.333-8.332
	c4.595,0,8.334,3.737,8.334,8.332C30.771,31.43,27.031,35.167,22.437,35.167z M33.596,35.361h3.301v1.306h-5.143v-0.002
	c0-0.688,0.174-1.281,0.521-1.772c0.348-0.492,1.004-1.078,1.967-1.754c0.432-0.3,0.733-0.574,0.91-0.824
	c0.176-0.25,0.264-0.529,0.264-0.836c0-0.334-0.097-0.604-0.289-0.808c-0.193-0.203-0.448-0.305-0.767-0.305
	c-0.338,0-0.603,0.127-0.791,0.383c-0.19,0.254-0.278,0.603-0.265,1.039h-1.453c-0.023-0.815,0.189-1.465,0.645-1.945
	c0.453-0.479,1.078-0.719,1.875-0.719c0.742,0,1.35,0.222,1.821,0.662c0.47,0.44,0.703,1.01,0.703,1.707
	c0,0.571-0.134,1.047-0.401,1.422c-0.267,0.377-0.768,0.799-1.502,1.269c-0.68,0.432-1.144,0.821-1.393,1.17L33.596,35.361z
	 M26.604,16.584c0-0.689,0.561-1.25,1.25-1.25s1.25,0.561,1.25,1.25s-0.561,1.25-1.25,1.25S26.604,17.273,26.604,16.584z
	 M30.604,15.333c0-1.104,0.896-2,2-2s2,0.896,2,2s-0.896,2.001-2,2.001S30.604,16.438,30.604,15.333z M34.271,20.833
	c0,0.829-0.672,1.5-1.5,1.5s-1.5-0.671-1.5-1.5c0-0.828,0.672-1.5,1.5-1.5S34.271,20.005,34.271,20.833z"/>
</svg>
