<?xml version="1.0" encoding="utf-8"?>
<!-- Generator: Adobe Illustrator 16.0.0, SVG Export Plug-In . SVG Version: 6.00 Build 0)  -->
<!DOCTYPE svg PUBLIC "-//W3C//DTD SVG 1.1//EN" "http://www.w3.org/Graphics/SVG/1.1/DTD/svg11.dtd">
<svg version="1.1" id="Layer_1" xmlns="http://www.w3.org/2000/svg" xmlns:xlink="http://www.w3.org/1999/xlink" x="0px" y="0px"
	 width="96px" height="96px" viewBox="0 0 96 96" enable-background="new 0 0 96 96" xml:space="preserve">
<g>
	<path d="M56.53,20.539v-9.104c0-0.6-0.063-1.184-0.181-1.748h1.862v-3.29h8.119V2.828h-8.119V1.476H37.789v8.211h1.862
		c-0.118,0.564-0.181,1.148-0.181,1.748v0.211h-4.1v-0.411c0-1.675-1.358-3.034-3.035-3.034s-3.035,1.359-3.035,3.034v7.546
		c0,1.675,1.358,3.035,3.035,3.035s3.035-1.36,3.035-3.035v-0.41h4.1v2.169c-7.985,2.509-13.778,13.902-13.778,22.717V81.73v0.276
		v7.597c0,2.718,2.204,4.921,4.921,4.921h34.774c2.717,0,4.921-2.203,4.921-4.921v-7.597V81.73V43.256
		C70.308,34.441,64.515,23.048,56.53,20.539z M42.752,63.453c-5.564,0-9.449-4.301-9.449-10.457c0-6.339,3.992-10.768,9.708-10.768
		c5.564,0,9.45,4.289,9.45,10.432C52.46,60.114,47.584,63.453,42.752,63.453z M62.697,69.031H52.46v-3.21l1.655-1.607
		c2.43-2.313,3.582-3.588,3.593-4.597c0-0.459-0.053-0.509-0.56-0.509c-0.55,0-1.048,0.346-1.296,0.556l-1.632,1.356l-1.851-4.096
		l0.936-0.786c1.144-0.965,2.616-1.497,4.146-1.497c3.418,0,4.975,2.491,4.975,4.806c0,1.944-0.948,3.523-2.374,5.116h2.644V69.031z
		"/>
	<path d="M42.907,47.298c-2.928,0-3.966,3.04-3.966,5.645c0,2.623,1.233,5.444,3.94,5.444c2.741,0,3.967-2.824,3.967-5.622
		C46.849,50.873,46.024,47.298,42.907,47.298z"/>
</g>
</svg>
