<?xml version="1.0" encoding="utf-8"?>
<!-- Generator: Adobe Illustrator 16.0.0, SVG Export Plug-In . SVG Version: 6.00 Build 0)  -->
<!DOCTYPE svg PUBLIC "-//W3C//DTD SVG 1.1//EN" "http://www.w3.org/Graphics/SVG/1.1/DTD/svg11.dtd">
<svg version="1.1" id="Layer_1" xmlns="http://www.w3.org/2000/svg" xmlns:xlink="http://www.w3.org/1999/xlink" x="0px" y="0px"
	 width="96px" height="96px" viewBox="0 0 96 96" enable-background="new 0 0 96 96" xml:space="preserve">
<g>
	<path d="M92.008,48.918c-3.214,0-6.343,2.259-7.778,5.729c-1.558,3.762-0.279,5.913,2.966,5.913c3.057,0,6.299-2.119,7.855-5.882
		C96.26,51.761,95.698,48.918,92.008,48.918z M91.665,54.678c-0.755,1.829-1.89,3.18-3.353,3.18c-1.621,0-1.292-1.766-0.708-3.18
		c0.575-1.397,1.724-3.055,3.259-3.055C92.373,51.575,92.288,53.173,91.665,54.678z"/>
	<polygon points="14.924,49.21 11.721,49.21 11.679,49.21 10.224,52.728 9.339,55.174 8.16,49.21 8.119,49.21 4.99,49.21 
		4.948,49.21 0.376,60.269 0.415,60.269 3.618,60.269 3.659,60.269 5.106,56.768 5.994,54.319 7.178,60.269 7.217,60.269 
		10.349,60.269 10.39,60.269 14.963,49.21 	"/>
	<polygon points="30.614,51.802 30.655,51.802 31.726,49.21 31.685,49.21 16.227,49.21 16.186,49.21 11.612,60.269 11.651,60.269 
		14.998,60.269 15.04,60.269 16.647,56.383 20.31,56.383 20.349,56.383 21.416,53.804 21.375,53.804 17.715,53.804 18.542,51.802 
		24.186,51.802 20.683,60.269 20.722,60.269 24.069,60.269 24.11,60.269 27.612,51.802 	"/>
	<path d="M33.306,49.21h-0.039L24.99,60.269h0.039h3.277h0.039l0.99-1.458h3.333l-0.201,1.458h0.038h3.334h0.041l0.868-11.058
		h-0.038H33.306z M33.031,56.506h-2.097l2.637-3.89L33.031,56.506z"/>
	<polygon points="42.512,54.325 38.708,54.325 38.666,54.325 37.51,57.12 37.552,57.12 41.355,57.12 41.396,57.12 42.553,54.325 	
		"/>
	<polygon points="58.086,49.21 54.036,49.21 53.997,49.21 49.375,56.03 50.39,49.21 50.352,49.21 46.302,49.21 46.26,49.21 
		41.688,60.269 41.729,60.269 44.73,60.269 44.769,60.269 46.32,56.521 46.96,54.801 47.469,53.241 46.423,60.269 46.465,60.269 
		48.777,60.269 48.815,60.269 53.588,53.241 52.622,55.169 51.867,56.889 50.47,60.269 50.512,60.269 53.513,60.269 53.555,60.269 
		58.127,49.21 	"/>
	<polygon points="74.924,51.802 75.994,49.21 75.956,49.21 59.396,49.21 59.355,49.21 54.782,60.269 54.821,60.269 63.408,60.269 
		63.446,60.269 64.515,57.689 64.473,57.689 59.278,57.689 59.994,55.953 64.216,55.953 64.257,55.953 65.325,53.372 65.283,53.372 
		61.063,53.372 61.709,51.802 68.453,51.802 64.951,60.269 64.993,60.269 68.34,60.269 68.379,60.269 71.881,51.802 74.883,51.802 	
		"/>
	<path d="M81.878,55.063c1.353-0.354,2.327-1.429,2.855-2.703c0.888-2.15,0.168-3.149-3.275-3.149h-0.042h-4.838h-0.042
		l-4.572,11.058h0.042h3.344h0.042l1.593-3.855h0.993c1.58,0,1.613,0.476,1.016,1.92c-0.407,0.983-0.611,1.688-0.628,1.935h0.038
		h3.392h0.039l0.141-0.338c-0.4,0-0.154-0.492,0.443-1.935C83.339,55.768,82.791,55.492,81.878,55.063z M81.322,52.942
		c-0.318,0.769-0.99,1.044-2.039,1.044h-1.294l0.907-2.195h1.54C81.226,51.791,81.646,52.159,81.322,52.942z"/>
	<path d="M52.661,43.409c0.564-0.387,1.126-0.745,1.688-1.08c-1.104-0.399-2.228-0.759-3.378-1.032
		c-3.303,1.125-6.326,1.749-9.519,0.426c-1.521,0.541-3.046,1.319-4.587,2.334C41.975,45.874,46.844,47.425,52.661,43.409z"/>
	<path d="M73.043,39.04c0.304-0.118,0.614-0.235,0.932-0.349c-5.95-1.737-10.732-1.267-14.849-0.173
		c0.688,0.284,1.372,0.586,2.055,0.903C65.449,38.282,69.508,38.383,73.043,39.04z"/>
	<path d="M13.375,47.068c8.417-6.899,14.716-5.943,20.453-4.066c-1.392-2.031-6.93-2.762-11.724-2.762
		c-0.334,0-0.528,0.005-0.53,0.005c-0.172,0.006-0.332-0.112-0.38-0.281c-0.047-0.17,0.025-0.35,0.178-0.438
		c0.041-0.023,2.086-1.184,5.593-2.336c-15.214-2.187-26.107,4.101-26.107,4.101S16.747,40.906,13.375,47.068z"/>
	<path d="M34.337,42.675c0.36,0.609,0.438,1.289,0.235,2.032c4.077-3.151,8.039-4.685,12.08-4.685c3.92,0,7.419,1.404,10.803,2.761
		c3.217,1.291,6.254,2.509,9.485,2.509c2.401,0,4.669-0.688,6.938-2.103c3.491-2.177,7.502-3.282,11.929-3.282
		c2.572,0,4.904,0.383,6.735,0.824c-4.473-1.879-8.343-2.798-11.757-2.798c-3.643,0-6.276,1.047-8.6,1.972
		c-1.948,0.773-3.784,1.505-5.896,1.505c0,0,0,0-0.003,0c-1.565,0-3.167-0.405-4.904-1.239c-6.536-3.14-13.363-4.731-20.293-4.731
		c-9.25,0-16.169,2.884-18.587,4.05C25.427,39.525,32.691,39.902,34.337,42.675z"/>
	<path d="M79.695,41.483c1.159,0.484,2.178,0.978,3.013,1.424c0.874,0.5,1.771,1.043,2.688,1.632l0.216-0.314
		c-0.038-0.029-1.007-0.73-2.68-1.629c-0.91-0.52-1.793-0.986-2.656-1.412C80.083,41.278,79.89,41.377,79.695,41.483z"/>
</g>
</svg>
