<?xml version="1.0" encoding="utf-8"?>
<!-- Generator: Adobe Illustrator 16.0.0, SVG Export Plug-In . SVG Version: 6.00 Build 0)  -->
<!DOCTYPE svg PUBLIC "-//W3C//DTD SVG 1.1//EN" "http://www.w3.org/Graphics/SVG/1.1/DTD/svg11.dtd">
<svg version="1.1" id="Layer_1" xmlns="http://www.w3.org/2000/svg" xmlns:xlink="http://www.w3.org/1999/xlink" x="0px" y="0px"
	 width="96px" height="96px" viewBox="0 0 96 96" enable-background="new 0 0 96 96" xml:space="preserve">
<g>
	<path d="M67.951,72.389c3.404,0.018,6.922-0.946,9.525-3.221c2.422-2.111,3.563-5.381,3.572-8.54
		c0.006-3.168,0.031-6.341-0.025-9.513c-0.125-4.9,0.141-9.821-0.256-14.713c-0.822-9.727-2.809-19.588-7.68-28.156
		c-1.227-2.062-2.584-4.087-4.35-5.73c-0.818-0.737-1.803-1.48-2.959-1.438C54.025,1.071,42.273,1.081,30.52,1.071
		c-0.908-0.053-1.756,0.349-2.438,0.917c-1.803,1.473-3.219,3.354-4.432,5.322c-5.229,8.623-7.33,18.733-8.215,28.666
		c-0.27,4.467-0.057,8.947-0.162,13.422c-0.076,3.856-0.008,7.719-0.043,11.576c-0.055,2.101,0.477,4.223,1.613,5.999
		c2.402,3.79,7.07,5.482,11.406,5.416c-4.666,6.913-9.936,14.219-14.654,21.097l-0.002,1.431l7.166-0.005
		c1.537-1.937,2.799-4.04,4.273-6.019l46.072,0.001l4.287,6.032l7.002,0.007l0.012-1.381L67.951,72.389z M67.156,64.115
		c-2.377-0.307-4.527-2.425-4.455-4.896c-0.184-2.355,1.668-4.522,3.908-5.045c2.889-0.765,6.115,1.685,6.096,4.687
		C72.992,61.829,70.07,64.488,67.156,64.115z M20.93,40.042c-0.145-1.577-0.035-3.158-0.092-4.736
		c-0.242-6.749,0.988-13.554,3.654-19.766c1.344-3.016,3.045-5.922,5.383-8.278c1.031-0.963,2.266-2,3.773-1.902
		c9.666,0.014,19.338,0.01,29.002,0.003c1.135-0.07,2.135,0.597,2.967,1.292c1.836,1.584,3.246,3.598,4.473,5.678
		c4.113,7.367,5.594,15.984,5.314,24.349c-0.025,1.57,0.162,3.224-0.568,4.68c-0.775,1.759-2.604,3.075-4.547,3.079
		c-14.758,0.003-29.52-0.003-44.277,0C23.541,44.481,21.281,42.46,20.93,40.042z M62.025,75.742l-28.459,0.003l2.143-3.276
		l24.352-0.013L62.025,75.742z M27.447,64.021c-1.998-0.426-3.623-2.104-3.965-4.115c-0.457-2.478,1.277-5.064,3.693-5.692
		c2.951-0.89,6.277,1.57,6.309,4.648C33.746,61.986,30.484,64.771,27.447,64.021z M28.039,84.721
		c1.381-2.195,2.936-4.342,4.373-6.496l31.215-0.02c1.564,2.105,3.008,4.293,4.514,6.436L28.039,84.721z"/>
	<path d="M59.863,16.924l-5.195,0.01l-6.219,7.34l-6.322-7.354l-5.273-0.002L36.852,36.53l5.77-0.018l-0.002-11.327l5.627,6.645
		l5.674-6.578l0.01,11.279c1.979-0.003,3.984,0.003,5.965-0.007L59.863,16.924z"/>
</g>
</svg>
