<?xml version="1.0" encoding="utf-8"?>
<!-- Generator: Adobe Illustrator 16.0.0, SVG Export Plug-In . SVG Version: 6.00 Build 0)  -->
<!DOCTYPE svg PUBLIC "-//W3C//DTD SVG 1.1//EN" "http://www.w3.org/Graphics/SVG/1.1/DTD/svg11.dtd">
<svg version="1.1" id="Layer_2" xmlns="http://www.w3.org/2000/svg" xmlns:xlink="http://www.w3.org/1999/xlink" x="0px" y="0px"
	 width="96px" height="96px" viewBox="0 0 96 96" enable-background="new 0 0 96 96" xml:space="preserve">
<g>
	<path d="M95.056,49.86c-0.05-0.057-0.109-0.12-0.184-0.195c-0.705-0.711-1.415-1.419-2.127-2.125
		c-2.352-2.328-5.031-4.125-8.179-5.175c-2.052-0.685-4.122-1.032-6.208-1.032c0,0,0,0-0.002,0c-1.517,0-3.043,0.184-4.574,0.558
		c-2.379,0.581-4.498,1.706-6.494,3.103c-0.952,0.666-2.219,1.834-3.346,2.938l-0.864,0.86c-0.767,0.775-1.385,1.43-1.653,1.714
		c-1.519,1.612-2.969,3.294-4.563,4.825c-1.626,1.563-3.434,2.908-5.608,3.667c-0.709,0.248-1.443,0.355-2.174,0.484
		c-0.144,0.02-0.277,0.034-0.412,0.048h-1.219c-0.132-0.013-0.27-0.026-0.422-0.048c-0.73-0.129-1.465-0.236-2.175-0.484
		c-2.172-0.759-3.98-2.104-5.605-3.667c-1.595-1.531-3.046-3.213-4.564-4.825c-0.431-0.457-1.141-1.172-1.635-1.665l-0.843-0.879
		c-0.024-0.03-0.05-0.062-0.078-0.089c-0.994-0.979-2.049-1.888-3.172-2.715c-1.509-1.109-3.119-2.043-4.874-2.701
		c-2.052-0.768-4.15-1.111-6.278-1.111c-0.982,0-1.971,0.074-2.965,0.211c-3.469,0.479-6.548,1.881-9.313,4.001
		c-1.647,1.266-3.107,2.734-4.515,4.258c-0.018,0.02-0.03,0.035-0.046,0.053l-0.32,0.325l0.364,0.338
		c0.008,0.009,0.016,0.016,0.024,0.024c1.744,1.648,3.476,3.311,5.196,4.982l0.576,0.586l0.507-0.566
		c0.72-0.796,1.457-1.574,2.249-2.303c1.829-1.684,3.876-2.911,6.384-3.285c0.596-0.089,1.181-0.135,1.755-0.135
		c1.863,0,3.622,0.48,5.28,1.539c1.157,0.74,2.188,1.633,3.21,2.539l0.86,0.862c0.311,0.333,0.692,0.742,0.947,1.012
		c1.835,1.939,3.602,3.943,5.553,5.772c2.245,2.106,4.671,3.935,7.553,5.087c2.041,0.816,4.147,1.323,6.347,1.338h1.219
		c2.195-0.016,4.297-0.522,6.338-1.338c2.882-1.152,5.307-2.98,7.554-5.087c1.949-1.829,3.717-3.833,5.552-5.772
		c0.198-0.211,0.644-0.672,1.133-1.174l0.856-0.867c0.45-0.45,0.85-0.835,1.038-0.99c1.48-1.21,3.04-2.266,4.947-2.668
		c0.816-0.172,1.614-0.257,2.396-0.257c2.202,0,4.272,0.676,6.2,1.996c1.366,0.934,2.535,2.089,3.642,3.307l0.223,0.247
		c0.094,0.104,0.188,0.207,0.279,0.311c0.005,0.006,0.009,0.01,0.015,0.016l0.364,0.406l0.374-0.367
		c0.008-0.007,0.014-0.011,0.02-0.018c1.743-1.708,3.508-3.395,5.268-5.084c0.088-0.085,0.154-0.152,0.21-0.215l0.28-0.267
		L95.056,49.86z M27.019,53.02c-1.085-0.963-2.161-1.891-3.384-2.673c-1.796-1.147-3.793-1.729-5.936-1.729
		c-0.625,0-1.277,0.05-1.934,0.147c-2.511,0.374-4.809,1.55-7.029,3.594c-0.625,0.574-1.245,1.2-1.976,1.997
		c-1.572-1.522-3.016-2.907-4.393-4.212c1.115-1.187,2.422-2.487,3.898-3.619c2.735-2.096,5.593-3.326,8.737-3.761
		c0.954-0.132,1.895-0.199,2.799-0.199c2.052,0,4.021,0.349,5.852,1.034c1.541,0.577,3.038,1.408,4.578,2.541
		c1.039,0.765,2.062,1.64,3.03,2.591c0.012,0.013,0.023,0.026,0.032,0.041l0.016,0.019l0.014,0.015l0.013,0.016l-4.28,4.233
		L27.019,53.02z M47.449,66.766c-1.891-0.014-3.821-0.421-5.895-1.25c-2.386-0.954-4.665-2.493-7.171-4.844
		c-1.395-1.309-2.73-2.747-4.021-4.138c-0.492-0.53-0.984-1.06-1.479-1.585c-0.26-0.273-0.654-0.695-0.968-1.03l4.268-4.222
		c0.488,0.489,1.193,1.198,1.613,1.645c0.477,0.506,0.957,1.031,1.423,1.539c1.017,1.109,2.067,2.257,3.184,3.328
		c2.037,1.957,3.96,3.209,6.05,3.939c0.714,0.249,1.412,0.369,2.087,0.485l0.278,0.049l0.023,0.003l0.022,0.003
		c0.208,0.029,0.4,0.05,0.586,0.065V66.766z M67.225,54.949c-0.496,0.525-0.988,1.055-1.48,1.585
		c-1.289,1.391-2.624,2.829-4.019,4.138c-2.506,2.351-4.785,3.89-7.172,4.844c-2.071,0.828-3.998,1.235-5.886,1.25v-6.01
		c0.188-0.017,0.378-0.039,0.575-0.067l0.025-0.003l0.023-0.003l0.277-0.049c0.676-0.116,1.374-0.236,2.087-0.485
		c2.089-0.73,4.012-1.982,6.049-3.939c1.115-1.071,2.167-2.219,3.184-3.328c0.465-0.508,0.945-1.033,1.423-1.539
		c0.57-0.605,1.123-1.179,1.653-1.714l4.395,4.148C67.745,54.406,67.236,54.938,67.225,54.949z M89.263,54.354l-0.036-0.04
		c-0.958-1.053-2.263-2.401-3.855-3.491c-2.142-1.466-4.459-2.209-6.889-2.21c-0.864,0-1.755,0.096-2.647,0.283
		c-2.255,0.476-4.029,1.741-5.467,2.917c-0.232,0.19-0.674,0.617-1.152,1.096l-4.387-4.141c1.313-1.281,2.422-2.261,3.158-2.776
		c2.146-1.501,4.08-2.428,6.083-2.917c1.423-0.348,2.865-0.522,4.286-0.523h0.002c1.934,0.001,3.893,0.327,5.823,0.971
		c2.813,0.938,5.335,2.536,7.705,4.884c0.584,0.578,1.164,1.157,1.742,1.737C92.192,51.521,90.714,52.938,89.263,54.354z"/>
	<path d="M38.185,35.254c0-1.28-0.584-2.171-1.377-2.672c-0.711-0.47-1.635-0.681-2.558-0.681c-0.308,0-0.519,0.017-0.761,0.049
		l0.307-2.104h4.049v-1.652h-5.441l-0.696,5.312c0.422-0.064,0.858-0.098,1.442-0.098c2.104,0,2.994,0.794,2.994,1.991
		c0,1.264-1.117,1.928-2.283,1.928c-0.955,0-1.861-0.308-2.315-0.551l-0.404,1.506c0.552,0.308,1.569,0.616,2.785,0.616
		C36.516,38.897,38.185,37.262,38.185,35.254z"/>
	<path d="M43.674,38.897c2.235,0,3.708-1.75,3.708-3.757c0-2.139-1.407-3.434-3.221-3.434c-1.054,0-1.847,0.422-2.365,1.021h-0.048
		c0.259-1.457,1.327-2.817,3.528-3.076c0.406-0.049,0.73-0.049,1.021-0.049l-0.016-1.555c-0.244-0.017-0.566-0.017-1.005,0.032
		c-1.505,0.13-2.768,0.647-3.738,1.555c-1.103,1.053-1.831,2.704-1.831,4.729C39.707,36.953,41.116,38.897,43.674,38.897z
		 M41.813,34.25c0.308-0.632,0.971-1.086,1.717-1.086c1.165,0,1.829,0.875,1.829,2.09c0,1.263-0.664,2.153-1.699,2.153
		c-1.28,0-1.943-1.134-1.977-2.526C41.683,34.605,41.73,34.411,41.813,34.25z"/>
	<polygon points="53.519,29.878 49.081,38.719 51.188,38.719 55.64,29.473 55.64,28.193 48.564,28.193 48.564,29.846 53.519,29.846 
			"/>
	<path d="M56.975,36.014c0,1.474,1.279,2.884,3.74,2.884c2.251,0,3.838-1.264,3.838-3.142c0-1.312-0.858-2.219-2.009-2.656v-0.049
		c1.15-0.566,1.619-1.489,1.619-2.379c0-1.297-1.035-2.656-3.302-2.656c-1.993,0-3.515,1.165-3.515,2.882
		c0,0.923,0.503,1.798,1.604,2.332v0.049C57.735,33.812,56.975,34.703,56.975,36.014z M60.765,29.392
		c1.068,0,1.505,0.761,1.505,1.489c0,0.794-0.6,1.377-1.311,1.587c-1.005-0.274-1.717-0.793-1.717-1.651
		C59.242,30.056,59.759,29.392,60.765,29.392z M60.569,33.941c1.166,0.324,1.959,0.907,1.959,1.976c0,0.906-0.695,1.57-1.749,1.57
		c-1.115,0-1.797-0.81-1.764-1.699C59.016,34.913,59.582,34.233,60.569,33.941z"/>
	<path d="M36.724,42.298c0.508-0.327,1.322-0.068,1.865,0.13l0.066-0.906c-0.803-0.223-1.932-0.361-2.696,0.035
		c-0.736,0.389-0.889,1.017-0.889,1.456c0,0.837,0.411,1.207,1.435,1.681l0.247,0.121c0.526,0.25,0.948,0.5,0.948,0.948
		c0,0.302-0.076,0.561-0.412,0.758c-0.564,0.346-1.491,0.026-2.047-0.224l-0.057,0.99c0.803,0.242,2.113,0.389,2.87-0.025
		c0.688-0.353,0.956-1.06,0.956-1.524c0-0.88-0.382-1.242-1.463-1.793l-0.25-0.12c-0.534-0.276-0.889-0.432-0.927-0.88
		C36.342,42.694,36.456,42.471,36.724,42.298z"/>
	<polygon points="47.866,47.454 47.866,41.404 45.935,41.404 44.483,45.903 42.991,41.404 41.05,41.404 41.05,47.454 42.221,47.454 
		42.221,42.447 44.002,47.454 44.924,47.454 46.695,42.447 46.695,47.454 	"/>
	<path d="M54.132,43.694c0.268-0.432,0.21-1.181-0.047-1.56c-0.556-0.802-1.593-0.751-2.267-0.751h-1.791v6.051h1.286v-2.629
		c0.198,0,0.347,0,0.524,0.026c0.702,0.103,0.713,0.56,0.9,1.086l0.553,1.517h1.356l-0.78-2.009
		c-0.208-0.534-0.278-0.81-0.862-1.008C53.343,44.341,53.887,44.116,54.132,43.694z M52.927,43.479
		c-0.139,0.275-0.425,0.517-1.099,0.509h-0.515v-1.758h0.524c0.515,0,0.801,0.086,1.039,0.396
		C53.024,42.841,53.036,43.263,52.927,43.479z"/>
	<polygon points="57.541,47.475 58.906,47.475 58.906,42.295 60.599,42.295 60.599,41.425 55.847,41.425 55.847,42.295 
		57.541,42.295 	"/>
</g>
</svg>
