<?xml version="1.0" encoding="utf-8"?>
<!-- Generator: Adobe Illustrator 16.0.4, SVG Export Plug-In . SVG Version: 6.00 Build 0)  -->
<!DOCTYPE svg PUBLIC "-//W3C//DTD SVG 1.1//EN" "http://www.w3.org/Graphics/SVG/1.1/DTD/svg11.dtd">
<svg version="1.1" id="Layer_1" xmlns="http://www.w3.org/2000/svg" xmlns:xlink="http://www.w3.org/1999/xlink" x="0px" y="0px"
	 width="50px" height="50px" viewBox="0 0 50 50" enable-background="new 0 0 50 50" xml:space="preserve">
<path d="M38.889,15.31H28.114l-4.446,7.682l-8.548-6.268l-0.591,0.808l7.766,5.692h-7.97v5.893H12.89v2h1.436v2.266h6.538
	c0.248,1.871,1.838,3.324,3.779,3.324c1.938,0,3.528-1.453,3.775-3.324H38.89L38.889,15.31L38.889,15.31z M24.642,35.707
	c-1.561,0-2.83-1.268-2.83-2.826s1.27-2.824,2.83-2.824c1.559,0,2.827,1.268,2.827,2.824C27.469,34.439,26.2,35.707,24.642,35.707z
	 M37.889,32.381h-9.472c-0.247-1.871-1.837-3.324-3.775-3.324c-1.94,0-3.531,1.453-3.779,3.324h-5.538v-8.157h8.785l4.581-7.914
	h9.198V32.381z M26.2,24.347l3.57-6.164h4.735v6.164H26.2z M13.199,20.425c0-0.8,0.649-1.449,1.45-1.449s1.45,0.649,1.45,1.449
	c0,0.801-0.649,1.449-1.45,1.449S13.199,21.226,13.199,20.425z M12.243,18.327c-0.626,0-1.133-0.509-1.133-1.134
	s0.507-1.133,1.133-1.133s1.133,0.508,1.133,1.133S12.869,18.327,12.243,18.327z M13.778,14.193c0-0.496,0.403-0.9,0.901-0.9
	s0.9,0.404,0.9,0.9c0,0.498-0.402,0.902-0.9,0.902S13.778,14.691,13.778,14.193z"/>
</svg>
