<?xml version="1.0" encoding="utf-8"?>
<!-- Generator: Adobe Illustrator 16.0.4, SVG Export Plug-In . SVG Version: 6.00 Build 0)  -->
<!DOCTYPE svg PUBLIC "-//W3C//DTD SVG 1.1//EN" "http://www.w3.org/Graphics/SVG/1.1/DTD/svg11.dtd">
<svg version="1.1" id="Layer_1" xmlns="http://www.w3.org/2000/svg" xmlns:xlink="http://www.w3.org/1999/xlink" x="0px" y="0px"
	 width="50px" height="50px" viewBox="0 0 50 50" enable-background="new 0 0 50 50" xml:space="preserve">
<g>
	<path d="M40.817,22.63c-0.538-4.045-2.771-6.997-5.521-6.997H22.571c-2.753,0-4.985,2.951-5.524,6.996
		c-1.935,1.002-2.938,3.051-2.938,5.423c0,1.76,0.556,3.341,1.631,4.451v3.933h5v-2.304h16.385v2.304h5v-3.933
		c1.075-1.109,1.631-2.69,1.631-4.451C43.756,25.683,42.753,23.633,40.817,22.63z M22.572,17.134h12.725
		c1.771,0,3.319,2.103,3.899,4.952c-0.271-0.048-0.556-0.077-0.85-0.093c0-0.006,0.002-0.013,0.002-0.019
		c0-1.685-1.368-3.055-3.053-3.055s-3.055,1.37-3.055,3.055H19.936c-0.448,0-0.869,0.041-1.269,0.112
		C19.25,19.236,20.801,17.134,22.572,17.134z M37.35,21.975h-4.106c0-1.133,0.922-2.055,2.055-2.055
		C36.429,19.919,37.35,20.841,37.35,21.975z M19.232,30.028c-1.093,0-1.978-0.883-1.978-1.976c0-1.092,0.885-1.977,1.978-1.977
		c1.09,0,1.975,0.885,1.975,1.977C21.207,29.146,20.322,30.028,19.232,30.028z M34.67,29.707H23.195c-0.276,0-0.5-0.225-0.5-0.5
		c0-0.276,0.224-0.5,0.5-0.5H34.67c0.276,0,0.5,0.224,0.5,0.5C35.17,29.482,34.946,29.707,34.67,29.707z M34.67,27.977H23.195
		c-0.276,0-0.5-0.225-0.5-0.5s0.224-0.5,0.5-0.5H34.67c0.276,0,0.5,0.225,0.5,0.5S34.946,27.977,34.67,27.977z M38.633,30.028
		c-1.092,0-1.977-0.883-1.977-1.976c0-1.092,0.885-1.977,1.977-1.977s1.976,0.885,1.976,1.977
		C40.607,29.146,39.725,30.028,38.633,30.028z M11.295,13.563c-2.789,0-5.051,2.261-5.051,5.051c0,2.79,2.262,5.051,5.051,5.051
		s5.051-2.261,5.051-5.051C16.346,15.825,14.084,13.563,11.295,13.563z M12.154,17.395l-0.185,0.99h-1.258v0.254v0.253h1.162
		l-0.187,0.99h-0.879c0.039,0.166,0.089,0.318,0.144,0.456c0.156,0.365,0.397,0.548,0.729,0.548c0.222,0,0.404-0.081,0.552-0.244
		c0.147-0.162,0.237-0.384,0.268-0.663h1.336c-0.07,0.639-0.301,1.146-0.688,1.521c-0.39,0.374-0.88,0.562-1.476,0.562
		c-0.771,0-1.348-0.284-1.731-0.853c-0.23-0.347-0.392-0.789-0.482-1.326H8.757l0.185-0.99h0.42v-0.239v-0.268H8.757l0.185-0.99
		h0.512c0.1-0.556,0.262-1.007,0.488-1.354c0.385-0.58,0.961-0.87,1.731-0.87c0.58,0,1.064,0.195,1.455,0.587
		c0.391,0.392,0.627,0.92,0.709,1.587H12.5c-0.037-0.308-0.133-0.551-0.289-0.729c-0.154-0.18-0.344-0.271-0.566-0.271
		c-0.321,0-0.559,0.185-0.709,0.553c-0.057,0.139-0.102,0.304-0.139,0.497L12.154,17.395L12.154,17.395z"/>
</g>
</svg>
