<?xml version="1.0" encoding="utf-8"?>
<!-- Generator: Adobe Illustrator 16.0.4, SVG Export Plug-In . SVG Version: 6.00 Build 0)  -->
<!DOCTYPE svg PUBLIC "-//W3C//DTD SVG 1.1//EN" "http://www.w3.org/Graphics/SVG/1.1/DTD/svg11.dtd">
<svg version="1.1" id="Layer_1" xmlns="http://www.w3.org/2000/svg" xmlns:xlink="http://www.w3.org/1999/xlink" x="0px" y="0px"
	 width="50px" height="50px" viewBox="0 0 50 50" enable-background="new 0 0 50 50" xml:space="preserve">
<g>
	<path d="M12.033,23.794c-0.03,0.289,0.176,0.461,0.457,0.379s0.562,0.086,0.63,0.369c0.065,0.285,0.315,0.381,0.555,0.213
		c0.24-0.168,0.562-0.102,0.718,0.146c0.154,0.246,0.424,0.256,0.594,0.02c0.173-0.236,0.498-0.279,0.726-0.096
		c0.228,0.183,0.481,0.107,0.567-0.174c0.086-0.279,0.38-0.426,0.656-0.326c0.273,0.102,0.489-0.055,0.479-0.348
		c-0.01-0.293,0.221-0.527,0.516-0.521c0.291,0.006,0.445-0.213,0.342-0.485c-0.105-0.273,0.037-0.57,0.315-0.658
		c0.278-0.09,0.354-0.349,0.166-0.572c-0.188-0.225-0.149-0.551,0.085-0.725c0.235-0.177,0.223-0.443-0.029-0.595
		c-0.25-0.151-0.318-0.473-0.154-0.715c0.166-0.242,0.066-0.489-0.219-0.553c-0.287-0.063-0.457-0.345-0.381-0.628
		c0.078-0.278-0.096-0.481-0.385-0.448c-0.292,0.035-0.544-0.177-0.562-0.47c-0.018-0.293-0.248-0.428-0.512-0.299
		c-0.264,0.125-0.572,0.008-0.684-0.264c-0.112-0.27-0.375-0.324-0.582-0.117c-0.209,0.205-0.538,0.193-0.73-0.022
		c-0.193-0.222-0.459-0.187-0.591,0.075c-0.129,0.263-0.442,0.357-0.698,0.213c-0.252-0.145-0.494-0.024-0.531,0.267
		c-0.038,0.289-0.305,0.481-0.592,0.429c-0.289-0.054-0.478,0.137-0.418,0.424s-0.131,0.557-0.422,0.598
		c-0.289,0.043-0.404,0.283-0.258,0.535c0.148,0.254,0.059,0.568-0.201,0.703c-0.262,0.133-0.291,0.397-0.07,0.59
		c0.222,0.191,0.238,0.518,0.037,0.729c-0.205,0.213-0.147,0.475,0.125,0.582c0.182,0.072,0.291,0.23,0.312,0.408l-1.492,0.881
		c-0.229-0.074-0.486-0.059-0.709,0.074c-0.41,0.24-0.545,0.771-0.304,1.18c0.243,0.41,0.771,0.545,1.181,0.303
		c0.223-0.131,0.362-0.35,0.405-0.586l1.534-0.906C12,23.505,12.049,23.642,12.033,23.794z M9.536,24.608l-0.396-0.223l-0.004-0.455
		l0.389-0.23l0.396,0.223l0.004,0.453L9.536,24.608z M12.508,20.306c0.332-1.289,1.648-2.067,2.938-1.736
		c1.289,0.33,2.068,1.646,1.736,2.937c-0.33,1.289-1.647,2.068-2.938,1.736c-0.413-0.104-0.773-0.313-1.062-0.591l1.069-0.633
		c0.317,0.164,0.708,0.17,1.039-0.026c0.36-0.214,0.546-0.604,0.519-0.998l-0.613,0.362c-0.219,0.127-0.502,0.05-0.635-0.176
		c-0.134-0.227-0.065-0.514,0.151-0.641l0.613-0.363c-0.33-0.213-0.765-0.24-1.126-0.027c-0.328,0.197-0.512,0.541-0.521,0.896
		l-1.109,0.656C12.415,21.269,12.384,20.784,12.508,20.306z M11.913,20.151c0.415-1.619,2.065-2.594,3.685-2.178
		c1.62,0.416,2.598,2.063,2.18,3.686c-0.416,1.619-2.065,2.594-3.686,2.18c-0.58-0.15-1.074-0.459-1.455-0.865l0.227-0.135
		c0.345,0.352,0.783,0.619,1.294,0.752c1.479,0.379,2.991-0.516,3.372-1.994c0.382-1.481-0.514-2.994-1.994-3.375
		c-1.479-0.381-2.994,0.514-3.374,1.994c-0.147,0.574-0.101,1.154,0.097,1.672l-0.224,0.131
		C11.805,21.446,11.746,20.798,11.913,20.151z"/>
	<path d="M9.184,15.956c0.135,0.145,0.209,0.42,0.166,0.613l-0.054,0.229c-0.044,0.193,0.081,0.355,0.279,0.363l0.237,0.008
		c0.196,0.009,0.444,0.149,0.549,0.318l0.129,0.198c0.104,0.168,0.31,0.195,0.453,0.06l0.174-0.162
		c0.145-0.131,0.42-0.207,0.611-0.164l0.232,0.056c0.191,0.043,0.355-0.084,0.363-0.279l0.009-0.238
		c0.006-0.197,0.149-0.445,0.315-0.551l0.201-0.125c0.166-0.107,0.192-0.311,0.06-0.455l-0.162-0.174
		c-0.136-0.146-0.209-0.42-0.165-0.613l0.053-0.232c0.045-0.19-0.08-0.354-0.279-0.36l-0.237-0.011
		c-0.195-0.008-0.443-0.147-0.548-0.315l-0.129-0.201c-0.104-0.166-0.31-0.192-0.453-0.06l-0.174,0.162
		c-0.146,0.134-0.422,0.207-0.613,0.164l-0.23-0.053c-0.191-0.043-0.355,0.082-0.363,0.279L9.6,14.651
		c-0.009,0.195-0.15,0.443-0.316,0.551l-0.201,0.125c-0.168,0.105-0.193,0.309-0.061,0.453L9.184,15.956z M10.966,14.829
		c0.538,0,0.974,0.438,0.974,0.975c0,0.539-0.436,0.975-0.974,0.975s-0.975-0.436-0.975-0.975
		C9.991,15.267,10.428,14.829,10.966,14.829z"/>
	<path d="M41.331,30.431h-1.125v-4.004h-2.308l-3.229-5.572H21.477l-3.228,5.572h-6.554v4.004h-0.86v2h0.86v1.449h4.625
		c0.238,1.33,1.396,2.344,2.793,2.344s2.556-1.014,2.793-2.344h8.684c0.237,1.33,1.396,2.344,2.795,2.344
		c1.396,0,2.555-1.014,2.792-2.344h4.028v-1.449h1.125L41.331,30.431L41.331,30.431z M19.113,35.224
		c-1.016,0-1.842-0.826-1.842-1.844c0-1.017,0.826-1.844,1.842-1.844c1.018,0,1.845,0.827,1.845,1.844
		C20.958,34.397,20.131,35.224,19.113,35.224z M33.387,35.224c-1.019,0-1.847-0.826-1.847-1.844c0-1.017,0.828-1.844,1.847-1.844
		c1.016,0,1.842,0.827,1.842,1.844C35.229,34.397,34.402,35.224,33.387,35.224z M39.206,32.88h-3.028
		c-0.236-1.33-1.396-2.344-2.792-2.344c-1.397,0-2.558,1.014-2.795,2.344h-8.684c-0.237-1.33-1.396-2.344-2.794-2.344
		c-1.396,0-2.555,1.014-2.791,2.344h-3.625v-5.453h6.129l3.229-5.572h12.041l3.227,5.572h1.885L39.206,32.88L39.206,32.88z"/>
	<rect x="27.52" y="23.024" width="5.367" height="4.342"/>
	<polygon points="20.215,27.366 26.52,27.366 26.52,23.024 22.729,23.024 	"/>
	<polygon points="33.887,27.366 35.936,27.366 33.887,23.829 	"/>
</g>
</svg>
