<?xml version="1.0" encoding="utf-8"?>
<!-- Generator: Adobe Illustrator 16.0.4, SVG Export Plug-In . SVG Version: 6.00 Build 0)  -->
<!DOCTYPE svg PUBLIC "-//W3C//DTD SVG 1.1//EN" "http://www.w3.org/Graphics/SVG/1.1/DTD/svg11.dtd">
<svg version="1.1" id="Layer_1" xmlns="http://www.w3.org/2000/svg" xmlns:xlink="http://www.w3.org/1999/xlink" x="0px" y="0px"
	 width="50px" height="50px" viewBox="0 0 50 50" enable-background="new 0 0 50 50" xml:space="preserve">
<path d="M40.248,30.802h-0.906v-3.395H37.32l-2.793-4.819H23.042l-2.79,4.819h-5.691v3.395H13.88v2h0.681v1.187h4.002
	c0.232,1.152,1.256,2.023,2.479,2.023s2.242-0.871,2.477-2.023h7.384c0.232,1.152,1.256,2.023,2.477,2.023
	c1.223,0,2.244-0.871,2.477-2.023h3.49v-1.187h0.906v-2H40.248z M21.04,35.012c-0.843,0-1.529-0.684-1.529-1.523
	c0-0.842,0.688-1.527,1.529-1.527s1.525,0.686,1.525,1.527C22.565,34.328,21.881,35.012,21.04,35.012z M33.377,35.012
	c-0.842,0-1.527-0.684-1.527-1.523c0-0.842,0.686-1.527,1.527-1.527c0.84,0,1.525,0.686,1.525,1.527
	C34.902,34.328,34.219,35.012,33.377,35.012z M38.342,32.986h-2.488c-0.232-1.154-1.254-2.026-2.477-2.026s-2.244,0.872-2.477,2.026
	h-7.386c-0.231-1.154-1.254-2.026-2.476-2.026c-1.224,0-2.246,0.872-2.479,2.026h-3.002v-4.579h5.27l2.79-4.819h10.334l2.791,4.819
	h1.6V32.986L38.342,32.986z M33.877,25.346l1.705,2.943h-1.705V25.346z M28.373,24.533h4.504v3.756h-4.504V24.533z M24.164,24.533
	h3.209v3.756h-5.386L24.164,24.533z M20.369,13.988H9.749v12.089h10.62V13.988z M19.369,25.077h-8.62V14.988h8.62V25.077z
	 M13.305,21.33h5.08v1h-5.08V21.33z M13.305,23.128h5.08v1h-5.08V23.128z M12.365,22.33h-0.673v-1h0.673V22.33z M12.365,24.128
	h-0.673v-1h0.673V24.128z M14.117,20.212l-2.351-2.089l0.664-0.748l1.695,1.507l3.564-3.084l0.654,0.757L14.117,20.212z"/>
</svg>
