<?xml version="1.0" encoding="utf-8"?>
<!-- Generator: Adobe Illustrator 16.0.4, SVG Export Plug-In . SVG Version: 6.00 Build 0)  -->
<!DOCTYPE svg PUBLIC "-//W3C//DTD SVG 1.1//EN" "http://www.w3.org/Graphics/SVG/1.1/DTD/svg11.dtd">
<svg version="1.1" id="Layer_1" xmlns="http://www.w3.org/2000/svg" xmlns:xlink="http://www.w3.org/1999/xlink" x="0px" y="0px"
	 width="50px" height="50px" viewBox="0 0 50 50" enable-background="new 0 0 50 50" xml:space="preserve">
<g>
	<path d="M39.999,30.035h-0.884v-3.268h-1.93l-2.67-4.609h-10.97l-2.67,4.609h-5.441v3.268h-0.667v1.844h0.667v1.15h3.83
		c0.215,1.104,1.188,1.939,2.354,1.939s2.138-0.836,2.353-1.939h7.1c0.215,1.104,1.188,1.939,2.354,1.939s2.139-0.836,2.354-1.939
		h3.338v-1.15h0.884v-1.844H39.999z M21.617,34.047c-0.815,0-1.479-0.662-1.479-1.479c0-0.814,0.663-1.479,1.479-1.479
		c0.816,0,1.478,0.664,1.478,1.479C23.095,33.385,22.433,34.047,21.617,34.047z M33.424,34.047c-0.814,0-1.479-0.662-1.479-1.479
		c0-0.814,0.664-1.479,1.479-1.479c0.815,0,1.479,0.664,1.479,1.479C34.902,33.385,34.239,34.047,33.424,34.047z M38.193,32.107
		h-2.416c-0.217-1.104-1.188-1.938-2.354-1.938s-2.138,0.836-2.354,1.938h-7.099c-0.215-1.104-1.188-1.938-2.353-1.938
		s-2.138,0.836-2.354,1.938h-2.908v-4.418h5.05l2.671-4.609h9.907l2.67,4.609h1.539v4.418H38.193z"/>
	<rect x="28.618" y="24.002" width="4.345" height="3.591"/>
	<polygon points="33.885,27.594 35.534,27.594 33.885,24.748 	"/>
	<polygon points="22.527,27.594 27.697,27.594 27.697,24.002 24.607,24.002 	"/>
	<path d="M20.052,24.792l0.107-4.809l-5.061-4.951l-5.099,5.184l5.065,4.951L20.052,24.792z M13.999,21.004
		c-0.471-0.456-0.504-1.136-0.083-1.738l-0.572-0.556l0.34-0.351l0.55,0.531c0.34-0.328,0.655-0.473,0.911-0.543l0.236,0.504
		c-0.182,0.053-0.531,0.164-0.882,0.525c-0.424,0.438-0.322,0.854-0.095,1.073c0.293,0.284,0.645,0.22,1.326-0.076
		c0.803-0.353,1.382-0.36,1.888,0.128c0.447,0.434,0.564,1.15,0.095,1.828l0.588,0.57l-0.346,0.356l-0.572-0.554
		c-0.324,0.322-0.756,0.562-1.09,0.623l-0.247-0.504c0.333-0.071,0.726-0.262,1.034-0.578c0.39-0.403,0.421-0.898,0.098-1.213
		c-0.312-0.303-0.718-0.268-1.294-0.014C15.097,21.378,14.491,21.483,13.999,21.004z"/>
</g>
</svg>
