<?xml version="1.0" encoding="utf-8"?>
<!-- Generator: Adobe Illustrator 16.0.4, SVG Export Plug-In . SVG Version: 6.00 Build 0)  -->
<!DOCTYPE svg PUBLIC "-//W3C//DTD SVG 1.1//EN" "http://www.w3.org/Graphics/SVG/1.1/DTD/svg11.dtd">
<svg version="1.1" id="Layer_1" xmlns="http://www.w3.org/2000/svg" xmlns:xlink="http://www.w3.org/1999/xlink" x="0px" y="0px"
	 width="50px" height="50px" viewBox="0 0 50 50" enable-background="new 0 0 50 50" xml:space="preserve">
<path d="M13.658,16.982h-4.74v-1.153h0.168v-2.203h2.617v0.576H9.662v1.627h1.05v-1.193h1.151v1.193h1.795V16.982z M13.658,17.491
	h-4.74v1.151h4.74V17.491z M13.658,19.148h-4.74v1.154h4.74V19.148z M14.073,23.185v-2.307H8.5v2.307h0.875v1.059H8.5v2.305h1.059
	v7.064h1.012v1.008h0.143v0.602H10.57v1.152h1.436v-1.152h-0.143v-0.602h0.143v-1.008h1.014v-7.064h1.056v-2.305H13.2v-1.059H14.073
	z M41.5,31.262h-0.042v0.998h-1.789v3.182h-4.454V32.26H23.562v3.182h-4.455V32.26H17.32v-0.998h-0.043l0.043-0.184v-9.663h2.207
	l1.568-6.857h16.588l1.566,6.857h2.208v9.663L41.5,31.262z M22.207,23.736h-3.289v3.29h3.289V23.736z M34.91,29.16H23.867v0.893
	H34.91V29.16z M34.91,26.393H23.867v0.893H34.91V26.393z M34.91,23.624H23.867v0.892H34.91V23.624z M36.125,21.179
	c0-0.814-0.663-1.479-1.479-1.479c-0.814,0-1.479,0.664-1.479,1.479c0,0.081,0.012,0.159,0.023,0.236H36.1
	C36.113,21.338,36.125,21.26,36.125,21.179z M37.016,21.179c0,0.081-0.016,0.157-0.023,0.236h0.432l-1.16-5.076H22.516l-1.16,5.076
	h10.947c-0.009-0.079-0.023-0.155-0.023-0.236c0-1.307,1.062-2.369,2.369-2.369C35.953,18.81,37.016,19.873,37.016,21.179z
	 M39.859,23.736H36.57v3.29h3.289V23.736z"/>
</svg>
