<?xml version="1.0" encoding="utf-8"?>
<!-- Generator: Adobe Illustrator 16.0.4, SVG Export Plug-In . SVG Version: 6.00 Build 0)  -->
<!DOCTYPE svg PUBLIC "-//W3C//DTD SVG 1.1//EN" "http://www.w3.org/Graphics/SVG/1.1/DTD/svg11.dtd">
<svg version="1.1" id="Layer_1" xmlns="http://www.w3.org/2000/svg" xmlns:xlink="http://www.w3.org/1999/xlink" x="0px" y="0px"
	 width="50px" height="50px" viewBox="0 0 50 50" enable-background="new 0 0 50 50" xml:space="preserve">
<g>
	<path d="M12.312,22.516l1.64-1.642l1.641,1.642c-0.021,0.299,0.079,0.604,0.307,0.832c0.418,0.418,1.097,0.418,1.517,0
		c0.418-0.418,0.418-1.1,0-1.517c-0.229-0.229-0.534-0.327-0.833-0.308l-1.641-1.642l1.332-1.331c0.433,0.1,0.905-0.018,1.242-0.354
		c0.37-0.368,0.471-0.901,0.317-1.362l-0.627,0.627c-0.222,0.222-0.588,0.214-0.818-0.017c-0.231-0.23-0.238-0.598-0.017-0.818
		L16.999,16c-0.463-0.156-0.994-0.055-1.363,0.316c-0.337,0.336-0.452,0.81-0.351,1.242l-1.332,1.332l-1.332-1.332
		c0.101-0.434-0.015-0.906-0.352-1.242c-0.369-0.371-0.9-0.473-1.364-0.316l0.626,0.627c0.223,0.223,0.215,0.59-0.016,0.82
		c-0.23,0.229-0.596,0.236-0.819,0.015l-0.626-0.627c-0.155,0.465-0.054,0.996,0.316,1.364c0.337,0.338,0.809,0.451,1.243,0.352
		l1.332,1.33l-1.641,1.643c-0.299-0.021-0.604,0.076-0.832,0.306c-0.419,0.419-0.419,1.099,0,1.517c0.418,0.42,1.097,0.42,1.516,0
		C12.232,23.119,12.33,22.812,12.312,22.516z M16.257,22.189l0.546-0.146l0.4,0.4l-0.146,0.543l-0.546,0.147l-0.398-0.397
		L16.257,22.189z M11.393,23.133l-0.546-0.146l-0.146-0.545l0.399-0.398l0.545,0.146l0.147,0.545L11.393,23.133z"/>
	<path d="M40,28.636h-1.025v-3.696h-2.149l-2.997-5.174H21.557l-2.997,5.174h-6.09v3.696h-0.782v1.935h0.782v1.326h4.294
		c0.229,1.235,1.31,2.174,2.611,2.174c1.3,0,2.381-0.938,2.61-2.174h8.026c0.229,1.235,1.311,2.174,2.611,2.174
		s2.382-0.938,2.61-2.174h3.742V30.57H40V28.636z M19.375,33.104c-0.933,0-1.692-0.758-1.692-1.689c0-0.934,0.759-1.693,1.692-1.693
		s1.692,0.76,1.692,1.693C21.066,32.346,20.307,33.104,19.375,33.104z M32.622,33.104c-0.935,0-1.693-0.758-1.693-1.689
		c0-0.934,0.759-1.693,1.693-1.693c0.934,0,1.692,0.76,1.692,1.693C34.314,32.346,33.556,33.104,32.622,33.104z M38.007,30.93
		h-2.774c-0.229-1.236-1.31-2.177-2.61-2.177c-1.302,0-2.382,0.938-2.611,2.177h-8.026c-0.229-1.236-1.31-2.177-2.61-2.177
		c-1.301,0-2.383,0.938-2.611,2.177h-3.326v-5.022h5.68l2.997-5.175H33.27l2.997,5.175h1.74V30.93z"/>
	<polygon points="33.105,25.83 34.988,25.83 33.105,22.578 	"/>
	<rect x="27.196" y="21.799" width="4.942" height="4.031"/>
	<polygon points="20.395,25.83 26.229,25.83 26.229,21.799 22.729,21.799 	"/>
</g>
</svg>
