<?xml version="1.0" encoding="utf-8"?>
<!-- Generator: Adobe Illustrator 16.0.4, SVG Export Plug-In . SVG Version: 6.00 Build 0)  -->
<!DOCTYPE svg PUBLIC "-//W3C//DTD SVG 1.1//EN" "http://www.w3.org/Graphics/SVG/1.1/DTD/svg11.dtd">
<svg version="1.1" id="Layer_1" xmlns="http://www.w3.org/2000/svg" xmlns:xlink="http://www.w3.org/1999/xlink" x="0px" y="0px"
	 width="50px" height="50px" viewBox="0 0 50 50" enable-background="new 0 0 50 50" xml:space="preserve">
<path d="M40,11.593v26.364h-0.9V12.493H10.9v25.464H10V11.593H40z M11.429,14.915h27.143v-1.8H11.429V14.915z M11.429,17.425h27.143
	v-1.8H11.429V17.425z M11.429,19.937h27.143v-1.801H11.429V19.937z M36.455,33.588h0.863v1.801h-0.863v1.125h-3.26
	c-0.209,1.076-1.159,1.893-2.297,1.893c-1.139,0-2.088-0.814-2.299-1.893h-6.932c-0.211,1.076-1.16,1.893-2.298,1.893
	c-1.138,0-2.088-0.814-2.298-1.893h-3.739v-1.125h-0.651v-1.801h0.651V30.4h5.312l2.607-4.502h10.711L34.57,30.4h1.884
	L36.455,33.588L36.455,33.588z M20.813,36.062c0-0.795-0.647-1.441-1.443-1.441s-1.444,0.646-1.444,1.441
	c0,0.797,0.647,1.443,1.444,1.443S20.813,36.859,20.813,36.062z M32.342,36.062c0-0.795-0.648-1.441-1.443-1.441
	c-0.797,0-1.444,0.646-1.444,1.441c0,0.797,0.647,1.443,1.444,1.443C31.693,37.506,32.342,36.859,32.342,36.062z M35.555,31.301
	h-1.502l-2.607-4.502h-9.673l-2.607,4.502h-4.931v4.312h2.839c0.21-1.078,1.16-1.893,2.298-1.893c1.138,0,2.087,0.814,2.298,1.893
	h6.933c0.209-1.078,1.16-1.893,2.297-1.893c1.139,0,2.088,0.814,2.299,1.893h2.359v-4.312H35.555z M26.206,31.205h4.242v-3.506
	h-4.242V31.205z M31.348,31.205h1.61l-1.61-2.777V31.205z M20.259,31.205h5.047v-3.506H22.29L20.259,31.205z"/>
</svg>
