<?xml version="1.0" encoding="utf-8"?>
<!-- Generator: Adobe Illustrator 16.0.4, SVG Export Plug-In . SVG Version: 6.00 Build 0)  -->
<!DOCTYPE svg PUBLIC "-//W3C//DTD SVG 1.1//EN" "http://www.w3.org/Graphics/SVG/1.1/DTD/svg11.dtd">
<svg version="1.1" id="Layer_1" xmlns="http://www.w3.org/2000/svg" xmlns:xlink="http://www.w3.org/1999/xlink" x="0px" y="0px"
	 width="50px" height="50px" viewBox="0 0 50 50" enable-background="new 0 0 50 50" xml:space="preserve">
<g>
	<path d="M32.301,27.541c-0.312-2.542-1.714-4.406-3.449-4.406h-7.704c-1.735,0-3.138,1.865-3.45,4.406
		c-1.096,0.627-1.673,1.821-1.673,3.209c0,0.869,0.235,1.658,0.671,2.289v2.787h3.659v-1.395h9.29v1.395h3.658v-2.787
		c0.436-0.629,0.672-1.418,0.672-2.289C33.975,29.361,33.396,28.168,32.301,27.541z M19.126,31.945c-0.66,0-1.196-0.533-1.196-1.195
		s0.536-1.196,1.196-1.196c0.661,0,1.197,0.534,1.197,1.196S19.787,31.945,19.126,31.945z M19.554,27.068
		c-0.238,0-0.458,0.028-0.672,0.061c0.345-1.668,1.242-2.896,2.267-2.896h7.705c1.023,0,1.92,1.228,2.266,2.896
		c-0.115-0.017-0.236-0.023-0.357-0.031c0-0.01,0.004-0.02,0.004-0.029c0-1.055-0.858-1.913-1.914-1.913
		c-1.054,0-1.912,0.858-1.912,1.913H19.554z M28.475,31.813h-6.948c-0.203,0-0.366-0.164-0.366-0.366
		c0-0.201,0.164-0.365,0.366-0.365h6.948c0.202,0,0.365,0.164,0.365,0.365C28.84,31.649,28.676,31.813,28.475,31.813z
		 M28.475,30.766h-6.948c-0.203,0-0.366-0.164-0.366-0.366s0.164-0.366,0.366-0.366h6.948c0.202,0,0.365,0.164,0.365,0.366
		S28.676,30.766,28.475,30.766z M27.672,27.068c0-0.65,0.53-1.181,1.182-1.181c0.65,0,1.181,0.53,1.181,1.181H27.672z
		 M30.874,31.945c-0.661,0-1.197-0.533-1.197-1.195s0.536-1.196,1.197-1.196c0.66,0,1.196,0.534,1.196,1.196
		C32.068,31.412,31.534,31.945,30.874,31.945z"/>
	<g>
		<rect x="16.025" y="14.024" width="17.95" height="1.463"/>
	</g>
	<g>
		<path d="M24.013,19.688c0,0.545,0.441,0.988,0.987,0.988c0.545,0,0.986-0.442,0.986-0.988S25,17.412,25,17.412
			S24.013,19.143,24.013,19.688z"/>
		<path d="M21.04,18.057c0,0.545,0.441,0.987,0.988,0.987c0.545,0,0.988-0.442,0.988-0.987c0-0.547-0.988-2.278-0.988-2.278
			S21.04,17.509,21.04,18.057z"/>
		<path d="M26.984,18.057c0,0.545,0.441,0.987,0.988,0.987c0.545,0,0.987-0.442,0.987-0.987c0-0.547-0.987-2.278-0.987-2.278
			S26.984,17.509,26.984,18.057z"/>
		<polygon points="40,24.099 40,22.634 38.048,22.634 38.048,14.391 11.952,14.391 11.952,22.634 10,22.634 10,24.099 
			11.952,24.099 11.952,24.333 10,24.333 10,25.795 11.952,25.795 11.952,26.028 10,26.028 10,27.491 11.952,27.491 11.952,27.726 
			10,27.726 10,29.189 11.952,29.189 11.952,29.422 10,29.422 10,30.885 11.952,30.885 11.952,31.119 10,31.119 10,32.582 
			11.952,32.582 11.952,32.814 10,32.814 10,34.278 11.952,34.278 11.952,34.513 10,34.513 10,35.976 14.635,35.976 14.635,34.513 
			12.683,34.513 12.683,34.278 14.635,34.278 14.635,32.814 12.683,32.814 12.683,32.582 14.635,32.582 14.635,31.119 
			12.683,31.119 12.683,30.885 14.635,30.885 14.635,29.422 12.683,29.422 12.683,29.189 14.635,29.189 14.635,27.726 
			12.683,27.726 12.683,27.491 14.635,27.491 14.635,26.028 12.683,26.028 12.683,25.795 14.635,25.795 14.635,24.333 
			12.683,24.333 12.683,24.099 14.635,24.099 14.635,22.634 12.683,22.634 12.683,15.123 37.316,15.123 37.316,22.634 
			35.365,22.634 35.365,24.099 37.316,24.099 37.316,24.333 35.365,24.333 35.365,25.795 37.316,25.795 37.316,26.028 
			35.365,26.028 35.365,27.491 37.316,27.491 37.316,27.726 35.365,27.726 35.365,29.189 37.316,29.189 37.316,29.422 
			35.365,29.422 35.365,30.885 37.316,30.885 37.316,31.119 35.365,31.119 35.365,32.582 37.316,32.582 37.316,32.814 
			35.365,32.814 35.365,34.278 37.316,34.278 37.316,34.513 35.365,34.513 35.365,35.976 40,35.976 40,34.513 38.048,34.513 
			38.048,34.278 40,34.278 40,32.814 38.048,32.814 38.048,32.582 40,32.582 40,31.119 38.048,31.119 38.048,30.885 40,30.885 
			40,29.422 38.048,29.422 38.048,29.189 40,29.189 40,27.726 38.048,27.726 38.048,27.491 40,27.491 40,26.028 38.048,26.028 
			38.048,25.795 40,25.795 40,24.333 38.048,24.333 38.048,24.099 		"/>
	</g>
</g>
</svg>
