<?xml version="1.0" encoding="utf-8"?>
<!-- Generator: Adobe Illustrator 16.0.4, SVG Export Plug-In . SVG Version: 6.00 Build 0)  -->
<!DOCTYPE svg PUBLIC "-//W3C//DTD SVG 1.1//EN" "http://www.w3.org/Graphics/SVG/1.1/DTD/svg11.dtd">
<svg version="1.1" id="Layer_1" xmlns="http://www.w3.org/2000/svg" xmlns:xlink="http://www.w3.org/1999/xlink" x="0px" y="0px"
	 width="50px" height="50px" viewBox="0 0 50 50" enable-background="new 0 0 50 50" xml:space="preserve">
<path d="M17.143,20.454c0.2-0.149,0.189-0.377-0.025-0.505c-0.212-0.129-0.271-0.402-0.131-0.607
	c0.14-0.206,0.056-0.416-0.187-0.469c-0.243-0.055-0.388-0.293-0.323-0.533c0.066-0.236-0.081-0.41-0.327-0.383
	c-0.248,0.029-0.462-0.148-0.478-0.398c-0.016-0.248-0.211-0.361-0.436-0.252c-0.223,0.105-0.485,0.006-0.58-0.225
	c-0.095-0.229-0.318-0.275-0.495-0.1c-0.177,0.174-0.457,0.164-0.622-0.021c-0.164-0.188-0.39-0.158-0.501,0.064
	c-0.11,0.224-0.376,0.304-0.594,0.182c-0.215-0.123-0.419-0.021-0.452,0.227c-0.032,0.246-0.259,0.409-0.503,0.361
	c-0.245-0.044-0.405,0.117-0.354,0.361c0.051,0.244-0.111,0.473-0.358,0.507c-0.246,0.037-0.344,0.241-0.219,0.456
	c0.127,0.216,0.049,0.482-0.172,0.597c-0.221,0.113-0.247,0.339-0.059,0.502c0.188,0.162,0.202,0.439,0.031,0.619
	c-0.174,0.181-0.126,0.402,0.105,0.494c0.155,0.062,0.249,0.196,0.267,0.347l-1.268,0.749c-0.194-0.062-0.413-0.05-0.602,0.062
	c-0.349,0.204-0.463,0.655-0.258,1.003c0.207,0.348,0.656,0.463,1.003,0.257c0.189-0.11,0.308-0.297,0.344-0.498l1.304-0.771
	c0.078,0.086,0.12,0.203,0.106,0.332c-0.026,0.246,0.149,0.393,0.388,0.322c0.239-0.07,0.479,0.072,0.536,0.313
	c0.057,0.241,0.268,0.323,0.472,0.181c0.203-0.145,0.478-0.086,0.609,0.124c0.132,0.21,0.36,0.218,0.506,0.019
	c0.146-0.201,0.423-0.237,0.615-0.082c0.192,0.156,0.41,0.092,0.482-0.148c0.073-0.236,0.323-0.359,0.558-0.275
	c0.233,0.086,0.417-0.048,0.408-0.297c-0.008-0.248,0.188-0.447,0.437-0.441c0.248,0.006,0.379-0.18,0.291-0.411
	c-0.09-0.233,0.032-0.486,0.268-0.562c0.236-0.076,0.3-0.295,0.141-0.486C16.911,20.879,16.942,20.604,17.143,20.454z M9.237,23.506
	L8.9,23.316L8.897,22.93l0.331-0.195l0.337,0.189l0.003,0.387L9.237,23.506z M11.763,19.852c0.283-1.097,1.401-1.76,2.497-1.478
	c1.095,0.28,1.757,1.399,1.476,2.494c-0.282,1.096-1.401,1.758-2.497,1.478c-0.351-0.092-0.657-0.269-0.902-0.503l0.909-0.536
	c0.27,0.139,0.602,0.145,0.883-0.023c0.306-0.182,0.463-0.516,0.44-0.85l-0.521,0.311c-0.185,0.107-0.426,0.041-0.539-0.148
	c-0.113-0.193-0.056-0.438,0.129-0.546l0.521-0.309c-0.28-0.181-0.65-0.204-0.957-0.023c-0.279,0.169-0.435,0.46-0.443,0.763
	l-0.944,0.558C11.685,20.668,11.658,20.256,11.763,19.852z M16.241,21c-0.354,1.376-1.756,2.204-3.132,1.854
	c-0.493-0.129-0.914-0.391-1.237-0.735l0.193-0.114c0.292,0.299,0.664,0.525,1.098,0.639c1.257,0.321,2.543-0.438,2.867-1.693
	c0.323-1.262-0.438-2.545-1.696-2.868c-1.257-0.323-2.544,0.437-2.867,1.694c-0.125,0.488-0.085,0.98,0.083,1.42l-0.19,0.111
	c-0.194-0.486-0.244-1.037-0.102-1.586c0.353-1.377,1.755-2.205,3.131-1.852S16.596,19.622,16.241,21z M8.938,16.154
	c0.115,0.121,0.178,0.355,0.14,0.521L9.035,16.87c-0.038,0.165,0.069,0.302,0.237,0.31l0.202,0.008
	c0.167,0.006,0.378,0.127,0.467,0.271l0.108,0.169c0.088,0.143,0.263,0.166,0.385,0.05l0.147-0.139
	c0.123-0.11,0.357-0.175,0.521-0.14l0.198,0.047c0.163,0.037,0.302-0.071,0.308-0.236l0.008-0.203
	c0.005-0.168,0.127-0.378,0.269-0.468l0.171-0.106c0.141-0.091,0.163-0.264,0.05-0.387l-0.138-0.146
	c-0.114-0.123-0.177-0.357-0.14-0.521l0.045-0.197c0.037-0.162-0.069-0.302-0.238-0.307l-0.202-0.009
	c-0.166-0.007-0.377-0.126-0.466-0.271l-0.108-0.171c-0.09-0.141-0.263-0.164-0.385-0.049l-0.149,0.138
	c-0.123,0.112-0.357,0.176-0.521,0.141l-0.196-0.047c-0.163-0.035-0.303,0.07-0.309,0.237l-0.006,0.203
	c-0.007,0.166-0.128,0.376-0.269,0.468L8.853,15.62c-0.143,0.09-0.164,0.262-0.051,0.386L8.938,16.154z M10.453,15.195
	c0.457,0,0.827,0.371,0.827,0.828c0,0.459-0.37,0.828-0.827,0.828c-0.458,0-0.828-0.369-0.828-0.828
	C9.625,15.566,9.996,15.195,10.453,15.195z M38.812,23.24c-0.488-3.612-2.479-6.245-4.935-6.245H22.416
	c-2.455,0-4.447,2.633-4.935,6.244c-1.771,0.896-2.689,2.753-2.689,4.907c0,1.653,0.544,3.135,1.597,4.139v3.414h4.249v-2.076
	h15.017v2.076h4.249v-3.415c1.053-1.005,1.597-2.483,1.597-4.138C41.5,25.994,40.582,24.136,38.812,23.24z M22.416,18.271h11.462
	c1.616,0,3.03,1.914,3.556,4.506c-0.264-0.051-0.542-0.077-0.831-0.092c0-0.006,0.002-0.011,0.002-0.017
	c0-1.504-1.224-2.728-2.728-2.728c-1.503,0-2.726,1.224-2.726,2.728h-11.11c-0.419,0-0.814,0.038-1.184,0.106
	C19.384,20.186,20.799,18.271,22.416,18.271z M35.755,22.669h-3.752c0-1.034,0.843-1.878,1.876-1.878
	C34.913,20.791,35.755,21.635,35.755,22.669z M19.407,29.927c-0.981,0-1.779-0.796-1.779-1.78c0-0.983,0.798-1.78,1.779-1.78
	c0.984,0,1.781,0.797,1.781,1.78C21.188,29.131,20.391,29.927,19.407,29.927z M33.315,29.607H22.978
	c-0.234,0-0.425-0.188-0.425-0.424c0-0.234,0.19-0.426,0.425-0.426h10.338c0.234,0,0.425,0.19,0.425,0.426
	S33.55,29.607,33.315,29.607z M33.315,28.051H22.978c-0.234,0-0.425-0.189-0.425-0.426c0-0.232,0.19-0.424,0.425-0.424h10.338
	c0.234,0,0.425,0.189,0.425,0.424S33.55,28.051,33.315,28.051z M36.886,29.927c-0.982,0-1.78-0.796-1.78-1.78
	c0-0.983,0.798-1.78,1.78-1.78c0.981,0,1.779,0.797,1.779,1.78C38.665,29.131,37.868,29.927,36.886,29.927z"/>
</svg>
