<?xml version="1.0" encoding="utf-8"?>
<!-- Generator: Adobe Illustrator 16.0.4, SVG Export Plug-In . SVG Version: 6.00 Build 0)  -->
<!DOCTYPE svg PUBLIC "-//W3C//DTD SVG 1.1//EN" "http://www.w3.org/Graphics/SVG/1.1/DTD/svg11.dtd">
<svg version="1.1" id="Layer_1" xmlns="http://www.w3.org/2000/svg" xmlns:xlink="http://www.w3.org/1999/xlink" x="0px" y="0px"
	 width="50px" height="50px" viewBox="0 0 50 50" enable-background="new 0 0 50 50" xml:space="preserve">
<path d="M36.98,29.167c-0.547-4.06-2.785-7.017-5.541-7.017H18.562c-2.758,0-4.995,2.957-5.543,7.017
	C11.031,30.172,10,32.258,10,34.678c0,1.858,0.61,3.521,1.793,4.649v3.835h4.772V40.83h16.869v2.332h4.771v-3.837
	C39.391,38.197,40,36.534,40,34.678C40,32.258,38.969,30.172,36.98,29.167z M18.562,23.583h12.877c1.813,0,3.402,2.149,3.992,5.062
	c-0.295-0.054-0.609-0.086-0.933-0.103c0-0.006,0.002-0.011,0.002-0.017c0-1.689-1.374-3.063-3.062-3.063
	c-1.689,0-3.062,1.374-3.062,3.063H15.898c-0.471,0-0.914,0.041-1.33,0.119C15.158,25.732,16.747,23.583,18.562,23.583z
	 M33.547,28.525h-4.215c0-1.164,0.945-2.108,2.107-2.108S33.547,27.361,33.547,28.525z M15.183,36.676
	c-1.103,0-1.999-0.893-1.999-1.998c0-1.104,0.896-2.001,1.999-2.001c1.104,0,2,0.896,2,2.001
	C17.183,35.783,16.287,36.676,15.183,36.676z M30.807,36.32H19.194c-0.264,0-0.478-0.215-0.478-0.479
	c0-0.265,0.213-0.478,0.478-0.478h11.613c0.264,0,0.478,0.213,0.478,0.478C31.284,36.105,31.07,36.32,30.807,36.32z M30.807,34.568
	H19.194c-0.264,0-0.478-0.215-0.478-0.478c0-0.265,0.213-0.477,0.478-0.477h11.613c0.264,0,0.478,0.212,0.478,0.477
	C31.284,34.354,31.07,34.568,30.807,34.568z M34.816,36.676c-1.104,0-2-0.893-2-1.998c0-1.104,0.896-2.001,2-2.001s2,0.896,2,2.001
	C36.816,35.783,35.92,36.676,34.816,36.676z M19.893,6.838v11.775h10.214V6.838H19.893z M21.501,9.984
	c0.174-0.197,0.476-0.215,0.674-0.041l1.835,1.632l3.82-3.306c0.199-0.172,0.501-0.15,0.673,0.049s0.151,0.502-0.048,0.673
	l-4.454,3.854l-2.46-2.188C21.344,10.482,21.326,10.182,21.501,9.984z M21.78,17.021h-0.439c-0.264,0-0.477-0.215-0.477-0.478
	c0-0.265,0.213-0.478,0.477-0.478h0.439c0.264,0,0.478,0.213,0.478,0.478C22.258,16.807,22.044,17.021,21.78,17.021z M21.78,15.111
	h-0.439c-0.264,0-0.477-0.215-0.477-0.478c0-0.265,0.213-0.478,0.477-0.478h0.439c0.264,0,0.478,0.213,0.478,0.478
	C22.258,14.896,22.044,15.111,21.78,15.111z M28.532,17.021h-5.393c-0.264,0-0.478-0.215-0.478-0.478
	c0-0.265,0.213-0.478,0.478-0.478h5.393c0.264,0,0.478,0.213,0.478,0.478C29.009,16.807,28.796,17.021,28.532,17.021z
	 M28.532,15.111h-5.393c-0.264,0-0.478-0.215-0.478-0.478c0-0.265,0.213-0.478,0.478-0.478h5.393c0.264,0,0.478,0.213,0.478,0.478
	C29.009,14.896,28.796,15.111,28.532,15.111z"/>
</svg>
