<?xml version="1.0" encoding="utf-8"?>
<!-- Generator: Adobe Illustrator 16.0.4, SVG Export Plug-In . SVG Version: 6.00 Build 0)  -->
<!DOCTYPE svg PUBLIC "-//W3C//DTD SVG 1.1//EN" "http://www.w3.org/Graphics/SVG/1.1/DTD/svg11.dtd">
<svg version="1.1" id="Layer_1" xmlns="http://www.w3.org/2000/svg" xmlns:xlink="http://www.w3.org/1999/xlink" x="0px" y="0px"
	 width="50px" height="50px" viewBox="0 0 50 50" enable-background="new 0 0 50 50" xml:space="preserve">
<path d="M14.37,15.579c0-1.619-1.316-2.936-2.936-2.936c-1.617,0-2.935,1.315-2.935,2.936c0,1.288,0.84,2.371,1.995,2.768H8.709
	v2.516h1.781v1.123H8.709v1.257h1.781v1.094H8.709v1.259h1.781v1.092H8.709v1.258h1.781v1.094H8.709v1.258h1.781v1.094H8.709v1.258
	h1.781v0.416c-0.771,0.357-1.311,1.135-1.311,2.039c0,1.244,1.012,2.254,2.253,2.254c1.242,0,2.255-1.01,2.255-2.254
	c0-0.904-0.539-1.682-1.312-2.039v-0.416h2.016V31.39h-2.016v-1.094h2.016v-1.258h-2.016v-1.094h2.016v-1.258h-2.016v-1.092h2.016
	v-1.259h-2.016v-1.094h2.016v-1.257h-2.016v-1.123h2.016v-2.516h-2.02C13.53,17.95,14.37,16.867,14.37,15.579z M9.758,15.579
	c0-0.926,0.753-1.678,1.678-1.678c0.926,0,1.678,0.752,1.678,1.678c0,0.924-0.752,1.677-1.678,1.677
	C10.511,17.256,9.758,16.503,9.758,15.579z M12.431,35.101c0,0.551-0.446,0.996-0.995,0.996c-0.55,0-0.996-0.445-0.996-0.996
	c0-0.549,0.446-0.996,0.996-0.996C11.985,34.104,12.431,34.552,12.431,35.101z M41.459,31.024v-9.578H39.27l-1.553-6.797H21.276
	l-1.556,6.797h-2.188v9.578l-0.041,0.182h0.041v0.99h1.773v3.152h4.415v-3.152H35.27v3.152h4.416v-3.152h1.773v-0.99H41.5
	L41.459,31.024z M22.377,27.008h-3.262v-3.26h3.262V27.008z M34.969,30.007H24.024v-0.883h10.945V30.007z M34.969,27.263H24.024
	V26.38h10.945V27.263z M34.969,24.519H24.024v-0.883h10.945V24.519z M36.148,21.446h-2.883c-0.012-0.076-0.023-0.154-0.023-0.234
	c0-0.809,0.658-1.466,1.467-1.466c0.807,0,1.465,0.657,1.465,1.466C36.172,21.292,36.16,21.37,36.148,21.446z M34.707,18.863
	c-1.295,0-2.35,1.054-2.35,2.349c0,0.08,0.018,0.156,0.025,0.234H21.53l1.15-5.031h13.626l1.15,5.031h-0.428
	c0.008-0.078,0.023-0.154,0.023-0.234C37.055,19.917,36.002,18.863,34.707,18.863z M39.873,27.008h-3.26v-3.26h3.26V27.008z"/>
</svg>
