<?xml version="1.0" encoding="utf-8"?>
<!-- Generator: Adobe Illustrator 16.0.4, SVG Export Plug-In . SVG Version: 6.00 Build 0)  -->
<!DOCTYPE svg PUBLIC "-//W3C//DTD SVG 1.1//EN" "http://www.w3.org/Graphics/SVG/1.1/DTD/svg11.dtd">
<svg version="1.1" id="Layer_1" xmlns="http://www.w3.org/2000/svg" xmlns:xlink="http://www.w3.org/1999/xlink" x="0px" y="0px"
	 width="50px" height="50px" viewBox="0 0 50 50" enable-background="new 0 0 50 50" xml:space="preserve">
<g>
	<path d="M38.658,25.943c-0.517-3.821-2.623-6.605-5.217-6.605H21.32c-2.596,0-4.702,2.784-5.218,6.605
		c-1.872,0.945-2.842,2.91-2.842,5.188c0,1.748,0.574,3.312,1.688,4.375v3.611h4.492v-2.195h15.878v2.195h4.493v-3.611
		c1.112-1.061,1.688-2.627,1.688-4.375C41.5,28.854,40.528,26.889,38.658,25.943z M21.32,20.687h12.121
		c1.708,0,3.203,2.023,3.76,4.766c-0.279-0.053-0.574-0.081-0.879-0.098c0-0.006,0.002-0.01,0.002-0.017
		c0-1.59-1.293-2.884-2.882-2.884c-1.59,0-2.882,1.294-2.882,2.884H18.813c-0.444,0-0.86,0.039-1.252,0.113
		C18.116,22.71,19.611,20.687,21.32,20.687z M35.426,25.338h-3.969c0-1.095,0.891-1.985,1.984-1.985S35.426,24.244,35.426,25.338z
		 M18.14,33.01c-1.038,0-1.881-0.84-1.881-1.881s0.843-1.883,1.881-1.883c1.04,0,1.883,0.842,1.883,1.883
		C20.021,32.17,19.179,33.01,18.14,33.01z M32.846,32.676H21.915c-0.249,0-0.449-0.201-0.449-0.449s0.201-0.449,0.449-0.449h10.931
		c0.248,0,0.449,0.201,0.449,0.449S33.094,32.676,32.846,32.676z M32.846,31.027H21.915c-0.249,0-0.449-0.201-0.449-0.449
		s0.201-0.449,0.449-0.449h10.931c0.248,0,0.449,0.201,0.449,0.449S33.094,31.027,32.846,31.027z M36.621,33.01
		c-1.039,0-1.883-0.84-1.883-1.881s0.844-1.883,1.883-1.883s1.881,0.842,1.881,1.883S37.66,33.01,36.621,33.01z"/>
	<path d="M21.069,17.498c-0.423-2.941-2.853-5.227-5.855-5.424l-0.002-0.743c-0.001-0.247-0.202-0.447-0.449-0.447
		c0,0-0.001,0-0.002,0c-0.248,0.001-0.448,0.203-0.447,0.451l0.002,0.741c-3,0.223-5.413,2.521-5.816,5.467l5.836-0.021l0.022,6.131
		c0.001,0.402-0.154,0.781-0.437,1.065c-0.284,0.286-0.661,0.443-1.077,0.444l-0.084,0.004c-0.001,0-0.003,0-0.005,0
		c-0.828,0-1.504-0.673-1.507-1.502c-0.001-0.248-0.202-0.448-0.449-0.448h-0.001c-0.248,0.001-0.449,0.203-0.448,0.451
		c0.005,1.323,1.083,2.398,2.419,2.398c0.003,0,0.006,0,0.008,0l0.084-0.004c0.642-0.002,1.245-0.254,1.697-0.711
		c0.452-0.455,0.7-1.061,0.698-1.703l-0.022-6.127L21.069,17.498z"/>
</g>
</svg>
