<?xml version="1.0" encoding="utf-8"?>
<!-- Generator: Adobe Illustrator 16.0.4, SVG Export Plug-In . SVG Version: 6.00 Build 0)  -->
<!DOCTYPE svg PUBLIC "-//W3C//DTD SVG 1.1//EN" "http://www.w3.org/Graphics/SVG/1.1/DTD/svg11.dtd">
<svg version="1.1" id="Layer_1" xmlns="http://www.w3.org/2000/svg" xmlns:xlink="http://www.w3.org/1999/xlink" x="0px" y="0px"
	 width="50px" height="50px" viewBox="0 0 50 50" enable-background="new 0 0 50 50" xml:space="preserve">
<path d="M37.441,27.895c-0.465-3.438-2.359-5.943-4.695-5.943H21.837c-2.337,0-4.23,2.505-4.695,5.943
	c-1.686,0.852-2.559,2.619-2.559,4.668c0,1.574,0.518,2.983,1.52,3.938v3.249h4.043v-1.977h14.292v1.977h4.043V36.5
	c1.002-0.956,1.52-2.364,1.52-3.939C40,30.514,39.127,28.745,37.441,27.895z M21.837,23.163h10.909c1.537,0,2.883,1.822,3.383,4.288
	c-0.25-0.047-0.516-0.073-0.789-0.087c0-0.005,0.002-0.011,0.002-0.015c0-1.432-1.164-2.596-2.596-2.596
	c-1.43,0-2.594,1.164-2.594,2.596H19.58c-0.398,0-0.773,0.035-1.127,0.101C18.954,24.985,20.3,23.163,21.837,23.163z M34.533,27.35
	h-3.572c0-0.984,0.803-1.787,1.785-1.787C33.732,25.562,34.533,26.364,34.533,27.35z M18.974,34.255
	c-0.935,0-1.692-0.757-1.692-1.694c0-0.936,0.759-1.693,1.692-1.693c0.937,0,1.694,0.758,1.694,1.693
	C20.668,33.498,19.91,34.255,18.974,34.255z M32.211,33.954h-9.838c-0.225,0-0.405-0.181-0.405-0.405
	c0-0.223,0.183-0.404,0.405-0.404h9.838c0.225,0,0.404,0.182,0.404,0.404C32.615,33.773,32.436,33.954,32.211,33.954z
	 M32.211,32.471h-9.838c-0.225,0-0.405-0.181-0.405-0.404c0-0.223,0.183-0.403,0.405-0.403h9.838c0.225,0,0.404,0.181,0.404,0.403
	C32.615,32.29,32.436,32.471,32.211,32.471z M35.609,34.255c-0.938,0-1.695-0.757-1.695-1.694c0-0.936,0.758-1.693,1.695-1.693
	c0.934,0,1.691,0.758,1.691,1.693C37.303,33.498,36.543,34.255,35.609,34.255z M12.965,13.35v1.154h1.618v1.618h-1.618v1.154h1.618
	v1.618h-1.618v1.154h1.618v1.618h-1.618v1.232c0.935,0.29,1.618,1.15,1.618,2.179c0,1.266-1.027,2.291-2.292,2.291
	c-1.267,0-2.292-1.025-2.292-2.291c0-0.929,0.555-1.724,1.35-2.084V10.25h1.616v1.482h1.618v1.618H12.965z"/>
</svg>
