<?xml version="1.0" encoding="utf-8"?>
<!-- Generator: Adobe Illustrator 16.0.4, SVG Export Plug-In . SVG Version: 6.00 Build 0)  -->
<!DOCTYPE svg PUBLIC "-//W3C//DTD SVG 1.1//EN" "http://www.w3.org/Graphics/SVG/1.1/DTD/svg11.dtd">
<svg version="1.1" id="Layer_1" xmlns="http://www.w3.org/2000/svg" xmlns:xlink="http://www.w3.org/1999/xlink" x="0px" y="0px"
	 width="50px" height="50px" viewBox="0 0 50 50" enable-background="new 0 0 50 50" xml:space="preserve">
<path d="M33.393,27.797c-0.358-2.921-1.97-5.065-3.963-5.065h-8.856c-1.994,0-3.606,2.143-3.966,5.064
	c-1.259,0.722-1.924,2.093-1.924,3.688c0,1,0.271,1.908,0.772,2.633v3.203h4.206v-1.604H30.34v1.604h4.206v-3.203
	c0.501-0.725,0.772-1.633,0.772-2.633C35.316,29.891,34.652,28.518,33.393,27.797z M18.248,32.859c-0.759,0-1.375-0.614-1.375-1.375
	c0-0.76,0.616-1.375,1.375-1.375s1.375,0.615,1.375,1.375C19.623,32.245,19.007,32.859,18.248,32.859z M18.739,27.254
	c-0.273,0-0.525,0.032-0.772,0.071c0.396-1.919,1.427-3.331,2.605-3.331h8.856c1.178,0,2.208,1.412,2.604,3.331
	c-0.132-0.021-0.271-0.028-0.409-0.038c0-0.012,0.003-0.021,0.003-0.033c0-1.212-0.985-2.199-2.198-2.199
	c-1.212,0-2.197,0.986-2.197,2.199H18.739z M28.994,32.708h-7.987c-0.232,0-0.421-0.188-0.421-0.42s0.188-0.42,0.421-0.42h7.987
	c0.232,0,0.421,0.188,0.421,0.42S29.227,32.708,28.994,32.708z M28.994,31.504h-7.987c-0.232,0-0.421-0.188-0.421-0.42
	s0.188-0.42,0.421-0.42h7.987c0.232,0,0.421,0.188,0.421,0.42S29.227,31.504,28.994,31.504z M28.072,27.254
	c0-0.749,0.607-1.357,1.357-1.357c0.747,0,1.356,0.608,1.356,1.357H28.072z M31.752,32.859c-0.76,0-1.376-0.614-1.376-1.375
	c0-0.76,0.616-1.375,1.376-1.375c0.759,0,1.374,0.615,1.374,1.375C33.126,32.245,32.511,32.859,31.752,32.859z M40,12.68v24.64
	h-0.841v-23.8H10.842v23.8H10V12.68H40z M11.401,14.102H38.6v1.683H11.402L11.401,14.102L11.401,14.102z M11.401,16.449H38.6v1.682
	H11.402L11.401,16.449L11.401,16.449z M11.401,18.795H38.6v1.682H11.402L11.401,18.795L11.401,18.795z"/>
</svg>
