<?xml version="1.0" encoding="utf-8"?>
<!-- Generator: Adobe Illustrator 16.0.4, SVG Export Plug-In . SVG Version: 6.00 Build 0)  -->
<!DOCTYPE svg PUBLIC "-//W3C//DTD SVG 1.1//EN" "http://www.w3.org/Graphics/SVG/1.1/DTD/svg11.dtd">
<svg version="1.1" id="Layer_1" xmlns="http://www.w3.org/2000/svg" xmlns:xlink="http://www.w3.org/1999/xlink" x="0px" y="0px"
	 width="50px" height="50px" viewBox="0 0 50 50" enable-background="new 0 0 50 50" xml:space="preserve">
<g>
	<path d="M36.785,12.05v13.654h-2.666v-2.256c0.479-0.692,0.736-1.559,0.736-2.515c0-1.524-0.635-2.835-1.838-3.524
		c-0.343-2.791-1.883-4.838-3.787-4.838H20.77c-1.905,0-3.445,2.047-3.789,4.838c-1.203,0.688-1.838,2-1.838,3.524
		c0,0.956,0.26,1.823,0.737,2.515v2.256h-2.666V12.05H10v25.9h3.215v-10.64h9.131v-1.606H19.9v-0.729h10.201v0.729h-2.447v1.606
		h9.132v10.64H40v-25.9H36.785z M18.549,22.246c-0.725,0-1.312-0.587-1.312-1.313s0.588-1.314,1.312-1.314
		c0.729,0,1.314,0.588,1.314,1.314S19.275,22.246,18.549,22.246z M19.02,16.89c-0.263,0-0.502,0.031-0.737,0.067
		c0.378-1.833,1.364-3.182,2.489-3.182h8.461c1.125,0,2.108,1.349,2.486,3.182c-0.123-0.02-0.259-0.026-0.391-0.036
		c0-0.011,0.003-0.021,0.003-0.032c0-1.158-0.94-2.101-2.101-2.101c-1.158,0-2.1,0.942-2.1,2.101L19.02,16.89L19.02,16.89z
		 M28.814,22.101h-7.631c-0.223,0-0.401-0.18-0.401-0.402c0-0.222,0.18-0.402,0.401-0.402h7.631c0.224,0,0.402,0.18,0.402,0.402
		C29.217,21.921,29.038,22.101,28.814,22.101z M28.814,20.951h-7.631c-0.223,0-0.401-0.18-0.401-0.402
		c0-0.222,0.18-0.402,0.401-0.402h7.631c0.224,0,0.402,0.18,0.402,0.402C29.217,20.771,29.038,20.951,28.814,20.951z M27.936,16.89
		c0-0.715,0.582-1.297,1.297-1.297s1.297,0.582,1.297,1.297H27.936z M31.451,22.246c-0.727,0-1.314-0.587-1.314-1.313
		s0.59-1.314,1.314-1.314s1.312,0.588,1.312,1.314C32.766,21.659,32.176,22.246,31.451,22.246z"/>
</g>
</svg>
