<?xml version="1.0" encoding="utf-8"?>
<!-- Generator: Adobe Illustrator 16.0.4, SVG Export Plug-In . SVG Version: 6.00 Build 0)  -->
<!DOCTYPE svg PUBLIC "-//W3C//DTD SVG 1.1//EN" "http://www.w3.org/Graphics/SVG/1.1/DTD/svg11.dtd">
<svg version="1.1" id="Layer_1" xmlns="http://www.w3.org/2000/svg" xmlns:xlink="http://www.w3.org/1999/xlink" x="0px" y="0px"
	 width="50px" height="50px" viewBox="0 0 50 50" enable-background="new 0 0 50 50" xml:space="preserve">
<path d="M34.281,29.34c-0.41-3.191-2.176-5.526-4.354-5.526h-9.859c-2.178,0-3.942,2.333-4.354,5.526
	c-1.451,0.789-2.201,2.356-2.201,4.164c0,1.233,0.354,2.353,1.034,3.191V40h4.33v-1.787h12.239V40h4.33v-3.306
	c0.684-0.839,1.035-1.958,1.035-3.19C36.482,31.697,35.732,30.131,34.281,29.34z M20.069,25.112h9.859
	c1.336,0,2.506,1.595,2.951,3.759c-0.174-0.029-0.355-0.047-0.541-0.06c0-0.006,0.002-0.011,0.002-0.017
	c0-1.332-1.082-2.414-2.412-2.414s-2.412,1.082-2.412,2.414h-9.488c-0.321,0-0.623,0.029-0.91,0.076
	C17.563,26.707,18.733,25.112,20.069,25.112z M31.475,28.795h-3.092c0-0.854,0.693-1.549,1.545-1.549
	C30.781,27.246,31.475,27.941,31.475,28.795z M17.481,35.035c-0.844,0-1.53-0.684-1.53-1.531c0-0.846,0.687-1.531,1.53-1.531
	c0.847,0,1.531,0.686,1.531,1.531C19.014,34.352,18.328,35.035,17.481,35.035z M29.443,34.83h-8.89c-0.24,0-0.435-0.192-0.435-0.433
	c0-0.239,0.194-0.433,0.435-0.433h8.89c0.238,0,0.434,0.193,0.434,0.433S29.684,34.83,29.443,34.83z M29.443,33.49h-8.89
	c-0.24,0-0.435-0.193-0.435-0.433c0-0.24,0.194-0.433,0.435-0.433h8.89c0.238,0,0.434,0.192,0.434,0.433
	C29.877,33.297,29.684,33.49,29.443,33.49z M32.516,35.035c-0.846,0-1.533-0.684-1.533-1.531c0-0.846,0.688-1.531,1.533-1.531
	c0.844,0,1.529,0.686,1.529,1.531C34.045,34.352,33.357,35.035,32.516,35.035z M44.053,33.139H42.32v2.539h-5.195V24.979h1.982
	c-0.24-7.582-6.469-13.68-14.108-13.68c-7.64,0-13.868,6.098-14.108,13.68h1.983v10.698H7.678v-2.539H5.947v-5.62h1.731v-2.539
	h1.914C9.833,16.682,16.643,10,25,10c8.356,0,15.167,6.681,15.407,14.979h1.914v2.539h1.732V33.139z"/>
</svg>
