<?xml version="1.0" encoding="utf-8"?>
<!-- Generator: Adobe Illustrator 16.0.4, SVG Export Plug-In . SVG Version: 6.00 Build 0)  -->
<!DOCTYPE svg PUBLIC "-//W3C//DTD SVG 1.1//EN" "http://www.w3.org/Graphics/SVG/1.1/DTD/svg11.dtd">
<svg version="1.1" id="Layer_1" xmlns="http://www.w3.org/2000/svg" xmlns:xlink="http://www.w3.org/1999/xlink" x="0px" y="0px"
	 width="50px" height="50px" viewBox="0 0 50 50" enable-background="new 0 0 50 50" xml:space="preserve">
<path d="M38.687,26.596h-0.959v-3.543h-2.093l-2.897-5.002H20.835l-2.897,5.002h-5.903v3.543h-0.724v2h0.724v1.25h4.155
	c0.234,1.197,1.289,2.104,2.554,2.104c1.264,0,2.319-0.905,2.553-2.104H29c0.234,1.197,1.289,2.104,2.555,2.104
	c1.265,0,2.32-0.905,2.554-2.104h3.621v-1.25h0.959v-2H38.687z M18.744,30.949c-0.885,0-1.604-0.72-1.604-1.604
	s0.72-1.604,1.604-1.604c0.884,0,1.604,0.72,1.604,1.604S19.627,30.949,18.744,30.949z M31.553,30.949
	c-0.885,0-1.604-0.72-1.604-1.604s0.719-1.604,1.604-1.604c0.884,0,1.604,0.72,1.604,1.604S32.438,30.949,31.553,30.949z
	 M36.728,28.846h-2.621c-0.233-1.197-1.289-2.104-2.554-2.104c-1.266,0-2.32,0.905-2.555,2.104h-7.703
	c-0.234-1.197-1.289-2.104-2.553-2.104c-1.265,0-2.32,0.905-2.554,2.104h-3.155v-4.793h5.479l2.897-5.002h10.75l2.896,5.002h1.669
	v4.793H36.728z M32.053,20.861l1.789,3.086h-1.789V20.861z M26.338,20.051h4.715v3.896h-4.715V20.051z M21.988,20.051h3.352v3.896
	H19.73L21.988,20.051z"/>
</svg>
