<?xml version="1.0" encoding="utf-8"?>
<!-- Generator: Adobe Illustrator 16.0.4, SVG Export Plug-In . SVG Version: 6.00 Build 0)  -->
<!DOCTYPE svg PUBLIC "-//W3C//DTD SVG 1.1//EN" "http://www.w3.org/Graphics/SVG/1.1/DTD/svg11.dtd">
<svg version="1.1" id="Layer_1" xmlns="http://www.w3.org/2000/svg" xmlns:xlink="http://www.w3.org/1999/xlink" x="0px" y="0px"
	 width="50px" height="50px" viewBox="0 0 50 50" enable-background="new 0 0 50 50" xml:space="preserve">
<path d="M20.693,30.033c0,0,0.912,1.598,0.912,2.102s-0.406,0.912-0.912,0.912c-0.502,0-0.909-0.407-0.909-0.912
	C19.784,31.631,20.693,30.033,20.693,30.033z M20.009,29.328h-1.045v5.569H17.15v0.856h1.056v0.789H10v-0.789h1.057v-8.823h2.469
	V14.896H10.77v-1.439h29.076v1.439H14.965v12.035h2.186v7.178h1.023v-5.177l0.004-0.395h0.389h1.828l0.612,0.785l-0.623,0.485
	L20.009,29.328z M15.799,28.299h-3.395v2.533h3.395V28.299z M40,31.553c0,0.855-0.23,1.632-0.66,2.252v2.738h-3.598v-1.371h-9.133
	v1.371h-3.598v-2.738c-0.43-0.62-0.66-1.396-0.66-2.252c0-1.365,0.567-2.539,1.646-3.155c0.308-2.499,1.687-4.332,3.392-4.332h7.575
	c1.705,0,3.084,1.833,3.392,4.332C39.432,29.015,40,30.188,40,31.553z M26.576,31.553c0-0.65-0.526-1.176-1.176-1.176
	c-0.65,0-1.176,0.525-1.176,1.176s0.525,1.176,1.176,1.176C26.05,32.729,26.576,32.203,26.576,31.553z M33.084,27.934
	c0-1.037,0.843-1.881,1.88-1.881s1.88,0.844,1.88,1.881c0,0.01-0.003,0.02-0.003,0.029c0.118,0.008,0.238,0.015,0.351,0.031
	c-0.338-1.642-1.221-2.849-2.228-2.849h-7.575c-1.007,0-1.89,1.208-2.229,2.849c0.212-0.033,0.427-0.061,0.66-0.061H33.084z
	 M34.951,32.24c0-0.199-0.161-0.361-0.359-0.361H27.76c-0.199,0-0.359,0.162-0.359,0.361c0,0.198,0.16,0.358,0.359,0.358h6.832
	C34.79,32.599,34.951,32.438,34.951,32.24z M34.951,31.209c0-0.199-0.161-0.359-0.359-0.359H27.76c-0.199,0-0.359,0.16-0.359,0.359
	s0.16,0.359,0.359,0.359h6.832C34.79,31.568,34.951,31.408,34.951,31.209z M36.125,27.934c0-0.641-0.521-1.161-1.161-1.161
	s-1.159,0.521-1.159,1.161H36.125z M38.126,31.553c0-0.65-0.526-1.176-1.175-1.176c-0.651,0-1.178,0.525-1.178,1.176
	s0.525,1.176,1.178,1.176C37.6,32.729,38.126,32.203,38.126,31.553z"/>
</svg>
