<?xml version="1.0" encoding="utf-8"?>
<!-- Generator: Adobe Illustrator 16.0.4, SVG Export Plug-In . SVG Version: 6.00 Build 0)  -->
<!DOCTYPE svg PUBLIC "-//W3C//DTD SVG 1.1//EN" "http://www.w3.org/Graphics/SVG/1.1/DTD/svg11.dtd">
<svg version="1.1" id="Layer_1" xmlns="http://www.w3.org/2000/svg" xmlns:xlink="http://www.w3.org/1999/xlink" x="0px" y="0px"
	 width="50px" height="50px" viewBox="0 0 50 50" enable-background="new 0 0 50 50" xml:space="preserve">
<path d="M37.543,31.023v-9.71h-2.219l-1.646-7.199H16.325l-1.646,7.199h-2.219v9.71l-0.137,0.594h0.137v0.965h1.673v3.304h5v-3.304
	h11.737v3.304h5v-3.304h1.672v-0.965h0.137L37.543,31.023z M17.541,27.143h-3.417v-3.417h3.417V27.143z M30.738,30.324H19.266v-1
	h11.472V30.324z M30.738,27.447H19.266v-1h11.472V27.447z M30.738,24.571H19.266v-1h11.472V24.571z M31.939,21.313H28.99
	c-0.012-0.08-0.023-0.161-0.023-0.246c0-0.826,0.674-1.499,1.5-1.499s1.498,0.673,1.498,1.499
	C31.965,21.152,31.953,21.233,31.939,21.313z M30.465,18.568c-1.377,0-2.498,1.121-2.498,2.499c0,0.085,0.016,0.164,0.023,0.246
	H16.731l1.188-5.199h14.166l1.188,5.199h-0.334c0.008-0.082,0.025-0.161,0.025-0.246C32.965,19.689,31.844,18.568,30.465,18.568z
	 M35.881,27.143h-3.416v-3.417h3.416V27.143z"/>
</svg>
