<?xml version="1.0" encoding="utf-8"?>
<!-- Generator: Adobe Illustrator 16.0.0, SVG Export Plug-In . SVG Version: 6.00 Build 0)  -->
<!DOCTYPE svg PUBLIC "-//W3C//DTD SVG 1.1//EN" "http://www.w3.org/Graphics/SVG/1.1/DTD/svg11.dtd">
<svg version="1.1" id="Layer_2" xmlns="http://www.w3.org/2000/svg" xmlns:xlink="http://www.w3.org/1999/xlink" x="0px" y="0px"
	 width="96px" height="96px" viewBox="0 0 96 96" enable-background="new 0 0 96 96" xml:space="preserve">
<path d="M91.244,41.664c-4.635,0.011-9.268-0.022-13.902,0.021c-7.33,0.002-14.662,0-21.992,0.002
	c-1.971-0.043-3.939-0.013-5.912-0.021c-2.449-0.001-4.904,0.002-7.355-0.001c-1.785,0.043-3.57,0.011-5.355,0.021
	c-6.375,0.002-12.752-0.002-19.129,0.002c1.48-7.014,5.477-13.457,11.074-17.935c3.256-2.621,7.045-4.584,11.072-5.711
	c0.219-0.058,0.436-0.137,0.662-0.134c0.268,0.07,0.445,0.304,0.619,0.501c0.316,0.425,0.539,0.951,0.502,1.492
	c-0.004,5.309,0,10.617-0.002,15.926c4.402,0,8.805,0.001,13.209,0c0.002-5.256,0.002-10.511,0-15.766
	c-0.029-0.535,0.066-1.084,0.324-1.557c0.316-0.485,0.98-0.599,1.51-0.448c3.713,1.046,7.225,2.8,10.295,5.132
	c4.326,3.262,7.775,7.667,9.926,12.639c4.566,0,9.135,0.001,13.701,0c-0.479-1.632-1.068-3.23-1.74-4.793
	c-3.322-7.722-8.934-14.425-15.916-19.102c-5.414-3.644-11.645-6.063-18.1-7.036c0.002-0.914,0.002-1.83,0.002-2.744H41.525
	c0,0.901,0,1.802,0,2.703c-5.203,0.75-10.271,2.434-14.887,4.955c-5.297,2.887-9.998,6.863-13.711,11.619
	C8.334,27.28,5.275,34.326,4.164,41.687c-0.818-0.002-1.635-0.002-2.451-0.002v12.649c0.904,0.016,1.813-0.036,2.717,0.042
	c4.236-0.006,8.475,0,12.711-0.002c0.852-0.075,1.709-0.024,2.564-0.04c6.848,0,13.695,0,20.543,0
	c0.506,0.005,1.018-0.019,1.521,0.039c4.232,0.002,8.469,0.002,12.703,0c0.584-0.063,1.172-0.031,1.758-0.039
	c7.535,0,15.07,0.001,22.607,0c-0.912,4.884-3.004,9.54-6.045,13.468c-3.617,4.697-8.592,8.347-14.176,10.345
	c-0.76,0.267-1.527,0.532-2.311,0.716c-0.467,0.119-1.004-0.043-1.285-0.442c-0.271-0.395-0.303-0.896-0.287-1.362
	c0.002-5.628,0.002-11.256,0-16.884c-4.404-0.001-8.807,0-13.207,0c0,5.628-0.004,11.258,0,16.886
	c0.027,0.616-0.184,1.26-0.617,1.702c-0.408,0.294-0.939,0.104-1.381-0.005c-3.561-1.025-6.93-2.7-9.902-4.911
	c-4.68-3.466-8.357-8.261-10.512-13.672c-4.598,0-9.195-0.004-13.795,0.002c1.176,4.146,2.973,8.114,5.313,11.735
	c2.896,4.487,6.615,8.438,10.912,11.607c5.848,4.325,12.779,7.17,19.98,8.203c0,0.708,0,1.418,0,2.127h13.211
	c0-0.72,0-1.438,0-2.158c6.057-0.912,11.922-3.099,17.094-6.38c5.119-3.238,9.563-7.537,12.963-12.552
	c3.734-5.49,6.186-11.845,7.098-18.424c0.799-0.005,1.6,0.01,2.396-0.007V41.692C93.275,41.675,92.26,41.698,91.244,41.664z"/>
</svg>
