<?xml version="1.0" encoding="utf-8"?>
<!-- Generator: Adobe Illustrator 17.1.0, SVG Export Plug-In . SVG Version: 6.00 Build 0)  -->
<!DOCTYPE svg PUBLIC "-//W3C//DTD SVG 1.1//EN" "http://www.w3.org/Graphics/SVG/1.1/DTD/svg11.dtd">
<svg version="1.1" xmlns="http://www.w3.org/2000/svg" xmlns:xlink="http://www.w3.org/1999/xlink" x="0px" y="0px"
	 viewBox="0 0 64 64" enable-background="new 0 0 64 64" xml:space="preserve">
<g id="Imagenes">
</g>
<g id="Layer_2">
	<path d="M24.992,29.403L6.597,26.709c0.971,3.255,2.841,5.876,5.301,7.265L8.41,57.8c-0.28,1.913,1.043,3.69,2.956,3.97
		c1.913,0.28,3.69-1.043,3.97-2.956l3.555-24.279C21.235,33.694,23.37,31.874,24.992,29.403z"/>
	<path d="M19.129,5.299c-3.874-0.567-7.672,1.705-10.21,5.58l18.391,2.693C25.991,9.132,23.003,5.866,19.129,5.299z"/>
	<path d="M10.878,15.574l2.471,4.404l3.631-3.511l2.468,4.404l3.629-3.511l2.471,4.405l2.487-2.404
		c0.037-1.275-0.041-2.516-0.237-3.697l-19.944-2.92c-0.689,1.406-1.221,2.963-1.564,4.628l0.96,1.713L10.878,15.574z"/>
	<path d="M26.055,27.537c0.753-1.533,1.323-3.245,1.659-5.084l-2.64,2.553l-2.471-4.404l-3.631,3.512l-2.468-4.404l-3.63,3.511
		l-2.471-4.404l-3.629,3.512l-0.896-1.599c-0.052,1.343,0.026,2.649,0.234,3.888L26.055,27.537z"/>
	<path d="M55.668,25.899L37.64,30.442c2.141,2.637,4.872,4.344,7.676,4.687L51.2,58.478c0.472,1.874,2.375,3.011,4.249,2.539
		c1.874-0.472,3.011-2.375,2.539-4.249l-5.996-23.794C53.836,31.3,55.114,28.803,55.668,25.899z"/>
	<path d="M41.036,5.867c-3.797,0.957-6.438,4.508-7.301,9.059l18.024-4.542C48.842,6.786,44.833,4.91,41.036,5.867z"/>
	<path d="M35.328,23.147l2.011-4.631l3.967,3.125l2.013-4.633l3.964,3.126l2.012-4.632l3.968,3.126l1.379-3.172
		c-0.453-1.192-0.999-2.309-1.632-3.326l-19.546,4.926c-0.099,1.563,0.004,3.205,0.324,4.874L35.328,23.147z"/>
	<path d="M50.095,18.68l-2.012,4.633l-3.964-3.126l-2.012,4.632l-3.967-3.125l-2.011,4.632l-1.439-1.135
		c0.466,1.26,1.037,2.438,1.702,3.504l19.545-4.925c0.11-1.705-0.018-3.504-0.411-5.332l-1.464,3.368L50.095,18.68z"/>
</g>
</svg>
