<?xml version="1.0" encoding="utf-8"?>
<!-- Generator: Adobe Illustrator 16.0.0, SVG Export Plug-In . SVG Version: 6.00 Build 0)  -->
<!DOCTYPE svg PUBLIC "-//W3C//DTD SVG 1.1//EN" "http://www.w3.org/Graphics/SVG/1.1/DTD/svg11.dtd">
<svg version="1.1" id="Layer_2" xmlns="http://www.w3.org/2000/svg" xmlns:xlink="http://www.w3.org/1999/xlink" x="0px" y="0px"
	 width="96px" height="96px" viewBox="0 0 96 96" enable-background="new 0 0 96 96" xml:space="preserve">
<path d="M95.276,46.632c-0.334-0.935-0.718-1.852-1.071-2.781c-2.339-6.153-8.244-9.925-14.426-9.925
	c-1.123,0-2.254,0.125-3.375,0.381c-3.754,0.86-7.463,1.917-11.193,2.881c-3.578,0.924-7.154,1.855-10.738,2.756
	c-0.735,0.185-1.485,0.319-2.236,0.319c-0.443,0-0.887-0.047-1.329-0.158c-1.008-0.254-1.994-0.603-2.975-0.95
	c-1.201-0.424-2.393-0.877-3.674-0.988c-0.261-0.022-0.521-0.033-0.779-0.033c-1.187,0-2.354,0.22-3.502,0.514
	c-6.303,1.613-12.603,3.239-18.896,4.891c-1.254,0.329-2.507,0.528-3.77,0.528c-0.742,0-1.486-0.069-2.237-0.221
	c-0.719-0.145-1.414-0.366-2.105-0.753c0.125-0.04,0.192-0.064,0.261-0.083c5.935-1.536,11.868-3.075,17.805-4.606
	c3.156-0.813,6.31-1.633,9.475-2.408c0.787-0.192,1.586-0.315,2.387-0.315c0.575,0,1.149,0.063,1.722,0.209
	c0.984,0.251,1.955,0.564,2.914,0.9c1.291,0.451,2.57,0.932,3.962,0.932c0.018,0,0.035,0,0.052,0
	c1.292-0.011,2.564-0.194,3.812-0.515c4.681-1.207,9.357-2.432,14.033-3.656c0.141-0.037,0.671-0.197,0.671-0.197
	s-0.411-0.324-0.525-0.424c-0.378-0.333-0.813-0.659-1.214-0.984c0.053-0.03,1.041-0.31,1.041-0.31s-0.551-0.464-0.714-0.612
	c-2.041-1.856-4.323-2.773-6.832-2.773c-0.9,0-1.829,0.118-2.787,0.353c-2.306,0.566-4.602,1.175-6.91,1.73
	c-0.787,0.189-1.575,0.29-2.36,0.29c-0.94,0-1.877-0.145-2.806-0.456c-0.919-0.308-1.844-0.6-2.755-0.929
	c-1.144-0.413-2.299-0.648-3.471-0.648c-0.683,0-1.371,0.08-2.066,0.251c-1.847,0.455-3.694,0.908-5.535,1.384
	c-9.996,2.581-19.989,5.168-29.983,7.754c-0.886,0.229-0.938,0.255-0.596,1.13c0.419,1.069,0.936,2.1,1.412,3.146
	c0.968,2.125,2.37,3.922,4.162,5.408c3.004,2.49,6.32,3.751,9.912,3.751c1.283,0,2.601-0.161,3.953-0.484
	c4.453-1.064,8.867-2.291,13.303-3.429c2.722-0.698,5.445-1.389,8.18-2.037c0.721-0.171,1.44-0.261,2.156-0.261
	c1.018,0,2.029,0.182,3.026,0.57c0.925,0.361,1.868,0.682,2.812,0.991c0.827,0.271,1.673,0.525,2.541,0.525
	c0.126,0,0.253-0.005,0.381-0.017c1.203-0.11,2.42-0.238,3.587-0.534c6.178-1.562,12.346-3.165,18.509-4.786
	c1.392-0.366,2.78-0.672,4.2-0.672c0.509,0,1.021,0.039,1.54,0.129c0.921,0.16,1.818,0.389,2.732,0.859
	c-0.182,0.059-0.273,0.093-0.366,0.118c-8.748,2.273-17.495,4.547-26.244,6.815c-1.125,0.292-2.268,0.523-3.429,0.523
	c-0.089,0-0.179-0.001-0.269-0.004c-1.483-0.046-2.888-0.495-4.238-1.088c-1.295-0.569-2.619-1.004-4.027-1.004
	c-0.181,0-0.362,0.007-0.546,0.022c-0.891,0.072-1.79,0.188-2.655,0.404c-4.538,1.131-9.066,2.299-13.595,3.464
	c-0.155,0.04-0.351,0.167-0.399,0.299c-0.036,0.099,0.105,0.31,0.22,0.408c0.429,0.368,0.881,0.709,1.343,1.076
	c-0.112,0.035-0.204,0.063-0.292,0.095c-0.21,0.076-0.542,0.172-0.542,0.172s0.259,0.275,0.4,0.42
	c2.092,1.812,4.446,2.82,7.064,2.82c0.617,0,1.25-0.056,1.896-0.171c1.903-0.338,3.766-0.911,5.634-1.424
	c1.047-0.288,2.099-0.515,3.181-0.534c0.047-0.001,0.095-0.001,0.143-0.001c1.464,0,2.853,0.371,4.18,0.995
	c1.229,0.579,2.529,0.916,3.88,1.028c0.29,0.024,0.579,0.036,0.866,0.036c1.204,0,2.391-0.2,3.562-0.503
	c11.376-2.943,22.75-5.891,34.125-8.838c0.315-0.081,0.652-0.169,0.652-0.169L95.276,46.632z M68.43,32.669
	c0.196,0.155,0.393,0.31,0.58,0.466l-0.079,0.021c-4.563,1.195-9.127,2.39-13.695,3.567c-1.248,0.322-2.489,0.49-3.739,0.5
	c-1.221,0-2.356-0.398-3.559-0.82l-0.239-0.084c-1.143-0.399-2.082-0.689-2.956-0.912c-0.584-0.149-1.205-0.225-1.845-0.225
	c-0.78,0-1.599,0.108-2.506,0.33c-2.792,0.684-5.622,1.414-8.358,2.12l-1.122,0.289c-4.395,1.133-8.787,2.271-13.18,3.409
	l-4.626,1.198c-0.054,0.014-0.107,0.031-0.18,0.055l-0.106,0.034l-0.267,0.085c-0.457-0.253-0.899-0.547-1.329-0.883l4.579-1.195
	c4.431-1.156,8.861-2.312,13.292-3.463l1.277-0.332c2.983-0.775,6.069-1.578,9.109-2.333c1.008-0.251,1.832-0.368,2.594-0.368
	c0.554,0,1.063,0.062,1.557,0.188c1.074,0.276,2.124,0.631,3.286,1.033l0.187,0.065c1.153,0.4,2.346,0.813,3.632,0.813
	c0.218,0,0.436-0.012,0.648-0.036c0.988-0.111,2.037-0.241,3.042-0.493c3.13-0.785,6.306-1.608,9.377-2.404l3.306-0.856l0.779-0.203
	l0.121,0.098C68.147,32.446,68.289,32.558,68.43,32.669z M82.309,40.918c-0.53-0.092-1.062-0.137-1.625-0.137
	c-1.499,0-2.965,0.331-4.327,0.689c-7.13,1.875-13.01,3.395-18.505,4.784c-1.141,0.289-2.359,0.416-3.51,0.521
	c-0.112,0.01-0.224,0.015-0.335,0.015c-0.793,0-1.581-0.237-2.385-0.5c-0.83-0.272-1.81-0.601-2.786-0.981
	c-1.03-0.401-2.109-0.604-3.208-0.604c-0.739,0-1.504,0.092-2.271,0.274c-2.605,0.617-5.158,1.261-8.189,2.039
	c-1.566,0.402-3.129,0.814-4.692,1.227c-2.815,0.744-5.727,1.512-8.604,2.2c-1.305,0.312-2.596,0.47-3.836,0.47
	c-3.455,0-6.682-1.224-9.593-3.636c-0.427-0.354-0.831-0.727-1.21-1.117c3.01,2.478,6.377,3.733,10.024,3.733
	c1.297,0,2.646-0.161,4.011-0.479c2.9-0.675,5.821-1.459,8.646-2.217c1.427-0.383,2.854-0.767,4.284-1.138
	c3.301-0.857,5.842-1.504,8.241-2.099c0.775-0.192,1.55-0.29,2.304-0.29c1.157,0,2.306,0.23,3.417,0.684
	c0.729,0.298,1.536,0.584,2.538,0.902c0.813,0.258,1.692,0.497,2.607,0.497c0.206,0,0.411-0.012,0.608-0.037l0.192-0.023
	c1.068-0.13,2.172-0.265,3.24-0.537c6.004-1.525,11.904-3.064,17.923-4.638c1.475-0.386,3-0.785,4.541-0.785
	c0.243,0,0.488,0.01,0.735,0.031c2.069,0.178,3.806,0.868,5.294,2.106l-0.373,0.097l-0.28-0.144
	C84.124,41.28,83.09,41.054,82.309,40.918z M29.674,52.063c-0.028-0.023-0.054-0.049-0.078-0.077
	c-0.015-0.018-0.024-0.042-0.048-0.087c0.059-0.029,0.113-0.069,0.174-0.085c4.509-1.155,9.015-2.323,13.53-3.454
	c0.946-0.237,1.911-0.436,2.881-0.436c0.408,0,0.816,0.035,1.225,0.117c0.956,0.192,1.898,0.497,2.808,0.851
	c1.362,0.53,2.73,1.017,4.196,1.133c0.206,0.017,0.412,0.024,0.617,0.024c1.059,0,2.102-0.205,3.126-0.467
	c4.862-1.243,9.717-2.512,14.574-3.773c4.541-1.179,9.081-2.361,13.62-3.542c0.151-0.039,0.299-0.084,0.515-0.145
	c-0.12-0.131-0.197-0.23-0.288-0.313c-1.684-1.54-3.674-2.347-5.94-2.542c-0.261-0.022-0.521-0.033-0.778-0.033
	c-1.595,0-3.127,0.398-4.667,0.801c-5.969,1.561-11.94,3.118-17.92,4.637c-1.099,0.279-2.24,0.41-3.37,0.548
	c-0.184,0.022-0.366,0.033-0.547,0.033c-0.838,0-1.655-0.219-2.456-0.473c-0.843-0.267-1.683-0.554-2.5-0.888
	c-1.187-0.485-2.39-0.721-3.606-0.721c-0.802,0-1.61,0.103-2.424,0.304c-2.753,0.683-5.501,1.388-8.246,2.101
	c-4.306,1.118-8.586,2.344-12.918,3.352c-1.337,0.311-2.637,0.465-3.897,0.465c-3.921,0-7.468-1.491-10.598-4.399
	c-1.782-1.655-3.086-3.639-3.828-5.971c-0.044-0.139-0.08-0.28-0.114-0.421c-0.011-0.044-0.001-0.094-0.001-0.179
	c0.465-0.124,0.93-0.25,1.396-0.37c10.983-2.845,21.965-5.693,32.952-8.526c0.949-0.245,1.919-0.412,2.887-0.571
	c0.312-0.052,0.622-0.075,0.929-0.075c0.877,0,1.737,0.19,2.583,0.459c0.855,0.272,1.708,0.553,2.547,0.87
	c1.265,0.476,2.538,0.705,3.82,0.705c0.996,0,1.997-0.138,3.006-0.403c2.075-0.546,4.151-1.088,6.234-1.599
	c0.943-0.231,1.86-0.349,2.748-0.349c2.412,0,4.614,0.864,6.586,2.648c0.088,0.079,0.171,0.162,0.31,0.293
	c-0.618,0.161-1.174,0.308-1.731,0.452c-4.225,1.091-8.447,2.198-12.679,3.259c-0.972,0.244-1.978,0.369-2.976,0.481
	c-0.199,0.022-0.397,0.033-0.592,0.033c-1.268,0-2.46-0.438-3.656-0.851c-1.098-0.379-2.202-0.756-3.325-1.044
	c-0.56-0.144-1.121-0.204-1.682-0.204c-0.912,0-1.821,0.16-2.714,0.382c-3.47,0.863-6.93,1.768-10.391,2.667
	c-6.113,1.588-12.223,3.185-18.334,4.779c-0.116,0.03-0.232,0.064-0.434,0.119c0.2,0.188,0.34,0.335,0.496,0.463
	c1.972,1.617,4.204,2.358,6.66,2.358c0.356,0,0.717-0.016,1.083-0.046c1.901-0.16,3.696-0.785,5.525-1.251
	c5.345-1.36,10.678-2.767,16.023-4.125c0.936-0.238,1.904-0.366,2.866-0.483c0.255-0.031,0.506-0.045,0.756-0.045
	c1.459,0,2.831,0.491,4.195,1c0.522,0.195,1.049,0.378,1.57,0.576c0.955,0.362,1.919,0.534,2.891,0.534
	c0.738,0,1.479-0.099,2.224-0.288c3.595-0.913,7.186-1.843,10.777-2.771c3.732-0.965,7.44-2.032,11.197-2.884
	c1.109-0.251,2.223-0.373,3.322-0.373c6.412,0,12.353,4.114,14.362,10.413c0.193,0.606,0.188,0.609-0.409,0.764
	c-11.347,2.94-22.694,5.881-34.043,8.818c-1.141,0.295-2.274,0.458-3.398,0.458c-1.483,0-2.952-0.282-4.404-0.914
	c-0.862-0.375-1.754-0.722-2.666-0.935c-0.606-0.142-1.209-0.203-1.81-0.203c-1.164,0-2.318,0.231-3.467,0.558
	c-1.76,0.502-3.52,1.037-5.314,1.375c-0.696,0.131-1.377,0.195-2.041,0.195C34.048,54.769,31.738,53.822,29.674,52.063z
	 M94.723,46.914l-7.226,1.872c-8.966,2.323-17.932,4.646-26.899,6.966c-1.266,0.328-2.39,0.487-3.437,0.487
	c-0.278,0-0.555-0.012-0.825-0.034c-1.307-0.108-2.555-0.438-3.708-0.982c-1.491-0.702-2.928-1.042-4.393-1.042l-0.151,0.001
	c-1.219,0.021-2.354,0.291-3.304,0.552c-0.374,0.103-0.747,0.208-1.121,0.313c-1.459,0.411-2.969,0.835-4.468,1.102
	c-0.61,0.108-1.219,0.163-1.809,0.163c-2.333,0-4.537-0.855-6.526-2.516l0.046-0.014l0.207-0.065
	c1.718,1.032,3.557,1.554,5.49,1.554c0.696,0,1.414-0.069,2.133-0.204c1.571-0.295,3.128-0.744,4.634-1.177l0.725-0.208
	c1.29-0.368,2.348-0.539,3.33-0.539c0.594,0,1.149,0.063,1.696,0.19c0.952,0.222,1.879,0.601,2.581,0.906
	c1.458,0.634,3.006,0.956,4.603,0.956c1.124,0,2.309-0.159,3.523-0.474c9.011-2.333,18.021-4.667,27.032-7.001l7.011-1.817
	c0.211-0.055,0.39-0.101,0.534-0.18c0.14,0.359,0.277,0.72,0.408,1.086l0.029,0.077L94.723,46.914z"/>
<g>
	<path fill-rule="evenodd" clip-rule="evenodd" stroke="#000000" stroke-width="0.5" stroke-miterlimit="10" d="M93.553,45.286
		c-11.347,2.94-22.694,5.881-34.043,8.818c-2.647,0.685-5.249,0.654-7.802-0.457c-0.862-0.375-1.754-0.722-2.666-0.935
		c-1.78-0.416-3.536-0.141-5.277,0.355c-1.76,0.502-3.52,1.037-5.314,1.375c-3.37,0.633-6.363-0.293-8.964-2.51
		c-0.028-0.023-0.054-0.049-0.078-0.077c-0.015-0.018-0.024-0.042-0.048-0.087c0.059-0.029,0.113-0.069,0.174-0.085
		c4.509-1.155,9.015-2.323,13.53-3.454c1.343-0.336,2.725-0.596,4.106-0.318c0.956,0.192,1.898,0.497,2.808,0.851
		c1.362,0.53,2.73,1.017,4.196,1.133c1.271,0.101,2.521-0.13,3.743-0.443c4.862-1.243,9.717-2.512,14.574-3.773
		c4.541-1.179,9.081-2.361,13.62-3.542c0.151-0.039,0.299-0.084,0.515-0.145c-0.12-0.131-0.197-0.23-0.288-0.313
		c-1.684-1.54-3.674-2.347-5.94-2.542c-1.879-0.161-3.656,0.3-5.445,0.768c-5.969,1.561-11.94,3.118-17.92,4.637
		c-1.099,0.279-2.24,0.41-3.37,0.548c-1.03,0.126-2.029-0.131-3.003-0.44c-0.843-0.267-1.683-0.554-2.5-0.888
		c-1.969-0.804-3.982-0.924-6.03-0.417c-2.753,0.683-5.501,1.388-8.246,2.101c-4.306,1.118-8.586,2.344-12.918,3.352
		c-5.493,1.278-10.359-0.091-14.495-3.934c-1.782-1.655-3.086-3.639-3.828-5.971c-0.044-0.139-0.08-0.28-0.114-0.421
		c-0.011-0.044-0.001-0.094-0.001-0.179c0.465-0.124,0.93-0.25,1.396-0.37c10.983-2.845,21.965-5.693,32.952-8.526
		c0.949-0.245,1.919-0.412,2.887-0.571c1.201-0.199,2.37,0.021,3.513,0.384c0.855,0.272,1.708,0.553,2.547,0.87
		c2.246,0.846,4.517,0.91,6.827,0.301c2.075-0.546,4.151-1.088,6.234-1.599c3.506-0.86,6.636-0.142,9.334,2.299
		c0.088,0.079,0.171,0.162,0.31,0.293c-0.618,0.161-1.174,0.308-1.731,0.452c-4.225,1.091-8.447,2.198-12.679,3.259
		c-0.972,0.244-1.978,0.369-2.976,0.481c-1.493,0.168-2.868-0.341-4.248-0.818c-1.098-0.379-2.202-0.756-3.325-1.044
		c-1.47-0.377-2.953-0.181-4.396,0.178c-3.47,0.863-6.93,1.768-10.391,2.667c-6.113,1.588-12.223,3.185-18.334,4.779
		c-0.116,0.03-0.232,0.064-0.434,0.119c0.2,0.188,0.34,0.335,0.496,0.463c2.258,1.852,4.857,2.554,7.743,2.312
		c1.901-0.16,3.696-0.785,5.525-1.251c5.345-1.36,10.678-2.767,16.023-4.125c0.936-0.238,1.904-0.366,2.866-0.483
		c1.746-0.212,3.354,0.358,4.951,0.955c0.522,0.195,1.049,0.378,1.57,0.576c1.679,0.637,3.39,0.684,5.115,0.246
		c3.595-0.913,7.186-1.843,10.777-2.771c3.732-0.965,7.44-2.032,11.197-2.884c7.581-1.719,15.33,2.661,17.684,10.04
		C94.155,45.128,94.15,45.131,93.553,45.286z"/>
	<path fill-rule="evenodd" clip-rule="evenodd" d="M42.903,66.478l-1.104-0.47c-0.25-0.091-0.32-0.243-0.317-0.494
		c0.012-0.801,0.002-1.602,0.006-2.403c0.001-0.404,0.106-0.484,0.502-0.456l1.158-0.003v-0.814l-1.384-0.725
		c-0.109-0.046-0.199-0.133-0.305-0.186c-0.133-0.066-0.274-0.167-0.412-0.168c-2.148-0.011-4.297-0.014-6.446,0.005
		c-0.165,0.002-0.385,0.146-0.483,0.29c-0.439,0.64-0.843,1.304-1.261,1.958c-0.062,0.097-0.131,0.189-0.228,0.326l-1.045-1.455
		l-1.833-0.925c-0.167-0.074-0.338-0.192-0.51-0.198c-0.728-0.022-1.457-0.01-2.185-0.009c-1.481,0-2.961-0.006-4.442,0.01
		c-0.151,0.001-0.41,0.108-0.431,0.207c-0.061,0.276-0.041,0.576-0.011,0.862c0.008,0.08,0.151,0.178,0.251,0.21
		c0.377,0.121,0.76,0.222,1.144,0.323c0.262,0.069,0.356,0.217,0.35,0.498c-0.021,0.789-0.025,1.579,0.001,2.367
		c0.011,0.353-0.123,0.452-0.443,0.42c-0.18-0.018-0.364-0.003-0.545-0.003c-0.792,0-0.85,0.061-0.802,0.849
		c0.003,0.048-0.01,0.112,0.017,0.143c0.099,0.119,0.189,0.283,0.32,0.33c0.406,0.147,0.824,0.262,1.244,0.364
		c0.372,0.09,0.751,0.204,1.128,0.209c1.614,0.023,3.229,0.01,4.843,0.009c0.573,0,0.573,0,0.666-0.583
		c0.196,0.046,0.391,0.081,0.578,0.14c0.448,0.142,0.885,0.38,1.341,0.423c0.758,0.071,1.528,0.028,2.292,0.013
		c0.14-0.003,0.324-0.065,0.407-0.166c0.134-0.164,0.248-0.13,0.408-0.083c0.333,0.098,0.673,0.242,1.012,0.245
		c2.111,0.022,4.224,0.015,6.336,0.007l0.491-0.003v-0.938C43.153,66.558,42.991,66.517,42.903,66.478z M28.634,65.162
		c0.278,0.376,0.504,0.682,0.744,1.006C28.692,66.164,28.559,65.997,28.634,65.162z M41.159,66.648h-7.012v-0.686
		c0.425,0,0.835,0,1.244,0c0.267,0,0.473-0.11,0.476-0.39c0.013-1.21,0.006-2.42-0.061-3.662c-0.078,0.112-0.158,0.222-0.231,0.337
		c-0.87,1.374-1.744,2.745-2.601,4.126c-0.14,0.226-0.289,0.311-0.552,0.303c-0.655-0.019-1.312-0.017-1.967,0
		c-0.234,0.006-0.373-0.074-0.51-0.26c-1.047-1.43-2.104-2.851-3.159-4.275c-0.072-0.096-0.148-0.189-0.221-0.283
		c-0.03,0.005-0.061,0.01-0.091,0.015v1.04c0,0.85-0.002,1.7,0.001,2.549c0.001,0.437,0.089,0.529,0.533,0.552
		c0.23,0.013,0.461,0.005,0.691,0.006c0.575,0,0.578,0.003,0.489,0.628c-0.099,0.007-0.205,0.021-0.311,0.021
		c-1.688,0.001-3.375-0.005-5.062,0.007c-0.285,0.002-0.376-0.081-0.381-0.368c-0.006-0.31,0.127-0.366,0.392-0.351
		c0.303,0.017,0.607,0.004,0.911,0.001c0.309-0.003,0.477-0.161,0.478-0.472c0.003-1.117,0.001-2.234,0.002-3.351
		c0-0.281-0.169-0.387-0.419-0.395c-0.315-0.008-0.631-0.011-0.947-0.004c-0.237,0.005-0.416,0.005-0.417-0.331
		c-0.001-0.346,0.176-0.357,0.434-0.357c1.797,0.006,3.594,0.003,5.391,0.003c0.292,0,0.587-0.029,0.873,0.011
		c0.166,0.023,0.372,0.117,0.467,0.247c0.753,1.027,1.484,2.071,2.223,3.11c0.076,0.105,0.155,0.208,0.262,0.354
		c0.102-0.144,0.179-0.246,0.248-0.354c0.659-1.034,1.31-2.073,1.981-3.098c0.083-0.126,0.275-0.257,0.417-0.258
		c2.063-0.017,4.127-0.011,6.191-0.009c0.071,0,0.142,0.017,0.238,0.029v0.71c-0.36,0-0.731-0.003-1.103,0.001
		c-0.554,0.006-0.689,0.142-0.69,0.69c-0.002,0.972-0.003,1.942,0,2.914c0.002,0.426,0.115,0.546,0.535,0.557
		c0.411,0.011,0.822,0.002,1.258,0.002V66.648z"/>
	<path fill-rule="evenodd" clip-rule="evenodd" d="M57.349,62.092c-1.751-0.883-3.188-1.295-4.944-1.316
		c-1.298-0.016-2.597-0.003-3.895-0.003c-1.42,0-2.839-0.009-4.259,0.012c-0.167,0.002-0.403,0.129-0.48,0.269
		c-0.151,0.272-0.036,0.892,0.123,0.991c0.059,0.037,0.135,0.047,0.204,0.066c0.428,0.118,0.863,0.215,1.279,0.365
		c0.113,0.041,0.24,0.238,0.243,0.365c0.017,0.837-0.004,1.674-0.001,2.512c0.001,0.219-0.09,0.311-0.297,0.318
		c-0.291,0.009-0.582,0.03-0.872,0.032c-0.695,0.005-0.733,0.042-0.717,0.75c0.001,0.048,0,0.097,0.004,0.146
		c0.015,0.227,0.139,0.335,0.361,0.386c0.421,0.098,0.833,0.231,1.254,0.332c0.384,0.091,0.773,0.214,1.163,0.224l6.815,0.009
		v-0.806l-1.62-0.758c-0.364-0.134-0.31-0.317-0.29-0.588c0.023-0.3,0.275-0.283,0.428-0.288c0.521-0.016,1.043-0.015,1.565-0.004
		c1.07,0.022,2.143-0.001,3.172-0.313c0.51-0.155,0.679-0.285,1.183-0.697C58.806,63.09,57.589,62.213,57.349,62.092z
		 M56.065,63.192c-0.214,0.204-0.48,0.375-0.753,0.49c-0.87,0.366-1.788,0.529-2.73,0.535c-0.947,0.005-1.894,0.016-2.839-0.006
		c-0.331-0.007-0.43,0.104-0.399,0.417c0.024,0.241,0.003,0.485,0.005,0.728c0.005,0.485,0.131,0.631,0.621,0.655
		c0.397,0.02,0.797,0.004,1.225,0.004v0.629h-7.117v-0.623c0.267,0,0.54,0.005,0.813-0.001c0.206-0.005,0.411-0.023,0.616-0.042
		c0.28-0.024,0.411-0.197,0.415-0.461c0.016-1.104,0.026-2.208,0.035-3.313c0.003-0.329-0.224-0.4-0.489-0.404
		c-0.458-0.006-0.917-0.001-1.398-0.001v-0.712h0.413c2.645,0,5.29-0.008,7.935,0.004c0.975,0.004,1.935,0.152,2.848,0.511
		c0.276,0.109,0.547,0.27,0.772,0.463C56.388,62.367,56.402,62.874,56.065,63.192z"/>
	<path fill-rule="evenodd" clip-rule="evenodd" d="M52.846,62.16c-0.223-0.135-0.488-0.262-0.74-0.276
		c-0.895-0.05-1.791-0.05-2.687-0.067c-0.017,0-0.036,0.03-0.052,0.044c0,0.543,0,1.085,0,1.681
		c1.035-0.043,2.053,0.108,3.052-0.175c0.149-0.042,0.296-0.112,0.427-0.196C53.3,62.88,53.307,62.441,52.846,62.16z M51.426,63.237
		l-0.001-0.591l1.373-0.001C52.798,62.645,52.266,63.364,51.426,63.237z"/>
	<path fill-rule="evenodd" clip-rule="evenodd" d="M76.667,66.85l-1.736-1.051v-0.163h-0.27l-3.143-1.903
		c0.656-0.248,1.25-0.456,1.831-0.695c0.717-0.296,1.453-0.448,2.232-0.417c0.274,0.011,0.503,0.008,0.503,0.008v-0.894
		l-1.563-0.715c-0.334-0.257-0.648-0.266-1.004-0.266c-1.869-0.001-3.738,0-5.608,0c-0.764,0-0.764,0-0.953,0.801
		c-0.457-0.243-0.892-0.479-1.332-0.706c-0.092-0.048-0.201-0.09-0.302-0.091c-2.392-0.005-4.782-0.002-7.174-0.005
		c-0.253,0-0.413,0.114-0.398,0.361c0.021,0.338-0.19,0.744,0.242,0.981c0.03,0.016,0.072,0.009,0.106,0.018
		c0.454,0.115,0.913,0.217,1.358,0.358c0.1,0.032,0.22,0.199,0.223,0.306c0.019,0.837,0.007,1.675,0.012,2.512
		c0.001,0.244-0.107,0.358-0.35,0.357c-0.328-0.002-0.656,0.001-0.983,0.002c-0.553,0.001-0.622,0.071-0.624,0.631
		c-0.001,0.098,0.001,0.194,0.004,0.292c0.01,0.26,0.143,0.381,0.405,0.421c0.295,0.043,0.586,0.128,0.875,0.208
		c0.406,0.112,0.809,0.331,1.214,0.337c2.257,0.034,4.515,0.016,6.772,0.016c0.061,0,0.14,0.02,0.179-0.01
		c0.108-0.084,0.217-0.178,0.291-0.29c0.046-0.072,0.03-0.185,0.051-0.342c0.32,0.124,0.597,0.211,0.855,0.337
		c0.504,0.246,1.026,0.322,1.585,0.313l6.7-0.01L76.667,66.85z M65.636,62.642l0.641-0.003c-0.245,0.09-0.509,0.217-0.754,0.307
		C65.514,62.924,65.472,62.712,65.636,62.642z M66.949,65.593l0.001,0.781c-0.434-0.162-0.792-0.295-1.148-0.428
		c-0.005-0.033-0.009-0.066-0.013-0.1c0.558-0.196,1.109-0.426,1.681-0.567c0.159-0.039,0.63,0.313,0.63,0.313L66.949,65.593z
		 M74.585,66.588h-7.302v-0.653h1.802c0,0-0.541-0.391-0.679-0.486c-0.63-0.433-1.266-0.858-1.912-1.266
		c-0.111-0.07-0.302-0.086-0.427-0.043c-0.793,0.268-1.57,0.581-2.368,0.831c-0.359,0.113-0.301,0.349-0.292,0.595
		c0.009,0.281,0.212,0.375,0.444,0.384c0.436,0.019,0.874,0.01,1.311,0.014c0.059,0,0.117,0.011,0.211,0.02
		c0.009,0.14,0.015,0.268,0.026,0.396c0.02,0.219-0.075,0.294-0.295,0.294c-2.282-0.006-4.564-0.004-6.847-0.006
		c-0.047,0-0.095-0.013-0.174-0.023v-0.683c0.392,0,0.775,0.004,1.16-0.001c0.598-0.008,0.762-0.169,0.765-0.755
		c0.004-0.922,0.003-1.845,0-2.768c-0.001-0.483-0.14-0.626-0.627-0.638c-0.424-0.01-0.848-0.002-1.273-0.002
		c-0.022-0.07-0.047-0.114-0.051-0.16c-0.046-0.582-0.044-0.583,0.546-0.583c2.076,0,4.152,0,6.228,0
		c0.622,0,0.671,0.067,0.501,0.74c-0.448,0-0.906-0.004-1.365,0.001c-0.437,0.005-0.559,0.127-0.563,0.568
		c-0.005,0.545-0.001,1.09-0.001,1.71c1.904-0.708,3.761-1.4,5.617-2.091c-0.008-0.05-0.017-0.101-0.025-0.151h-1.623v-0.748
		c0.149-0.01,0.301-0.028,0.453-0.028c1.894-0.002,3.788-0.001,5.681-0.001c0.649,0,0.659,0.012,0.535,0.78
		c-1.898-0.382-3.45,0.692-5.243,1.256c0.187,0.129,0.288,0.204,0.393,0.272c1.016,0.664,2.042,1.313,3.044,1.997
		c0.43,0.294,1.014,0.655,1.014,0.655l1.335-0.001V66.588z"/>
</g>
</svg>
