<?xml version="1.0" encoding="utf-8"?>
<!-- Generator: Adobe Illustrator 16.0.0, SVG Export Plug-In . SVG Version: 6.00 Build 0)  -->
<!DOCTYPE svg PUBLIC "-//W3C//DTD SVG 1.1//EN" "http://www.w3.org/Graphics/SVG/1.1/DTD/svg11.dtd">
<svg version="1.1" id="Layer_1" xmlns="http://www.w3.org/2000/svg" xmlns:xlink="http://www.w3.org/1999/xlink" x="0px" y="0px"
	 width="96px" height="96px" viewBox="0 0 96 96" enable-background="new 0 0 96 96" xml:space="preserve">
<g>
	<path d="M17.395,25.099c0,4.727,0,9.393,0,14.175c7.645,0,15.181,0,22.763,0c0,12.664,0,25.21,0,37.857c5.275,0,10.437,0,15.728,0
		c0-12.634,0-25.222,0-37.903c7.647,0,15.161,0,22.722,0c0-4.756,0-9.419,0-14.129C58.16,25.099,37.755,25.099,17.395,25.099z"/>
	<path d="M80.869,15.13C72.09,6.351,60.417,1.515,48,1.515S23.91,6.351,15.131,15.13C6.35,23.91,1.516,35.583,1.516,48
		S6.35,72.09,15.131,80.87C23.91,89.649,35.583,94.485,48,94.485s24.09-4.835,32.869-13.615C89.65,72.09,94.484,60.417,94.484,48
		S89.65,23.91,80.869,15.13z M48,90.525C24.552,90.525,5.476,71.448,5.476,48S24.552,5.475,48,5.475S90.524,24.552,90.524,48
		S71.448,90.525,48,90.525z"/>
</g>
</svg>
