<?xml version="1.0" encoding="utf-8"?>
<!-- Generator: Adobe Illustrator 16.0.4, SVG Export Plug-In . SVG Version: 6.00 Build 0)  -->
<!DOCTYPE svg PUBLIC "-//W3C//DTD SVG 1.1//EN" "http://www.w3.org/Graphics/SVG/1.1/DTD/svg11.dtd">
<svg version="1.1" id="Layer_1" xmlns="http://www.w3.org/2000/svg" xmlns:xlink="http://www.w3.org/1999/xlink" x="0px" y="0px"
	 width="50px" height="50px" viewBox="0 0 50 50" enable-background="new 0 0 50 50" xml:space="preserve">
<path d="M33.721,21.465l-0.943-0.943l-3.299-3.299c-0.001-0.002-0.002-0.002-0.003-0.002l-0.939-0.941
	c-0.195-0.194-0.513-0.194-0.707,0c-0.195,0.195-0.195,0.513,0,0.707l0.598,0.599c-3.409,3.58-4.905,7.687-5.159,8.44l-6.989,6.988
	c-0.195,0.195-0.195,0.512,0,0.707c0.098,0.098,0.226,0.146,0.354,0.146s0.256-0.049,0.354-0.146l6.986-6.984
	c0.742-0.25,4.858-1.747,8.444-5.162l0.599,0.599c0.098,0.099,0.227,0.146,0.354,0.146s0.256-0.049,0.354-0.146
	C33.917,21.977,33.917,21.66,33.721,21.465z M31.213,21.312l-1.264-1.264c-0.195-0.195-0.513-0.195-0.707,0
	c-0.195,0.195-0.195,0.512,0,0.707l1.207,1.207c-2.276,1.83-4.604,2.945-5.889,3.477c0.628-1.524,2.069-4.521,4.568-7.152
	l2.583,2.583C31.548,21.025,31.38,21.166,31.213,21.312z"/>
</svg>
