<?xml version="1.0" encoding="utf-8"?>
<!-- Generator: Adobe Illustrator 16.0.4, SVG Export Plug-In . SVG Version: 6.00 Build 0)  -->
<!DOCTYPE svg PUBLIC "-//W3C//DTD SVG 1.1//EN" "http://www.w3.org/Graphics/SVG/1.1/DTD/svg11.dtd">
<svg version="1.1" id="Layer_1" xmlns="http://www.w3.org/2000/svg" xmlns:xlink="http://www.w3.org/1999/xlink" x="0px" y="0px"
	 width="50px" height="50px" viewBox="0 0 50 50" enable-background="new 0 0 50 50" xml:space="preserve">
<path d="M25.5,19.347v-2.688c0-0.276-0.224-0.5-0.5-0.5s-0.5,0.224-0.5,0.5v2.687c-1.114,0.277-1.955,1.464-1.955,2.881v8.671
	c0,1.623,1.101,2.942,2.454,2.942c1.355,0,2.457-1.319,2.457-2.942v-8.671C27.455,20.81,26.615,19.624,25.5,19.347z M26.455,30.898
	c0,1.07-0.654,1.941-1.457,1.941s-1.454-0.871-1.454-1.941v-0.273h0.879c0.276,0,0.5-0.225,0.5-0.5s-0.224-0.5-0.5-0.5h-0.879V28.25
	h0.879c0.276,0,0.5-0.225,0.5-0.5s-0.224-0.5-0.5-0.5h-0.879v-1.375h0.879c0.276,0,0.5-0.225,0.5-0.5c0-0.276-0.224-0.5-0.5-0.5
	h-0.879V23.5h0.879c0.276,0,0.5-0.224,0.5-0.5s-0.224-0.5-0.5-0.5h-0.879v-0.273c0-1.071,0.652-1.942,1.454-1.942
	s1.457,0.871,1.457,1.942V30.898z"/>
</svg>
