<?xml version="1.0" encoding="utf-8"?>
<!-- Generator: Adobe Illustrator 16.0.4, SVG Export Plug-In . SVG Version: 6.00 Build 0)  -->
<!DOCTYPE svg PUBLIC "-//W3C//DTD SVG 1.1//EN" "http://www.w3.org/Graphics/SVG/1.1/DTD/svg11.dtd">
<svg version="1.1" id="Layer_1" xmlns="http://www.w3.org/2000/svg" xmlns:xlink="http://www.w3.org/1999/xlink" x="0px" y="0px"
	 width="50px" height="50px" viewBox="0 0 50 50" enable-background="new 0 0 50 50" xml:space="preserve">
<path d="M27.506,22.485V19.91c0-0.174-0.09-0.335-0.238-0.426l-1.621-0.993v-3.579c0-0.276-0.224-0.5-0.5-0.5h-4.416
	c-0.276,0-0.5,0.224-0.5,0.5v3.58l-1.619,0.992c-0.148,0.091-0.239,0.252-0.239,0.426v12.474c0,0.276,0.224,0.5,0.5,0.5h3.975
	c0.725,1.591,2.32,2.704,4.179,2.704c2.535,0,4.6-2.062,4.6-4.6C31.628,28.718,28.129,23.412,27.506,22.485z M21.231,15.412h3.416
	v2.625h-3.416V15.412z M19.374,31.884v-3.722h2.029c0.276,0,0.5-0.225,0.5-0.5c0-0.276-0.224-0.5-0.5-0.5h-2.029v-2.688h2.029
	c0.276,0,0.5-0.224,0.5-0.5s-0.224-0.5-0.5-0.5h-2.029V20.19l1.882-1.153h3.368l1.881,1.153v2.362
	c-0.743,1.111-4.077,6.224-4.077,8.438c0,0.307,0.033,0.604,0.091,0.896L19.374,31.884L19.374,31.884z M27.027,34.588
	c-1.984,0-3.6-1.615-3.6-3.599c0-1.546,2.311-5.425,3.6-7.412c1.291,1.987,3.601,5.866,3.601,7.412
	C30.628,32.973,29.014,34.588,27.027,34.588z M27.527,33.662c0,0.275-0.223,0.5-0.5,0.5c-1.75,0-3.173-1.423-3.173-3.173
	c0-0.276,0.224-0.5,0.5-0.5s0.5,0.224,0.5,0.5c0,1.198,0.975,2.173,2.173,2.173C27.305,33.162,27.527,33.386,27.527,33.662z"/>
</svg>
