<?xml version="1.0" encoding="iso-8859-1"?>
<!-- Generator: Adobe Illustrator 17.0.0, SVG Export Plug-In . SVG Version: 6.00 Build 0)  -->
<!DOCTYPE svg PUBLIC "-//W3C//DTD SVG 1.1//EN" "http://www.w3.org/Graphics/SVG/1.1/DTD/svg11.dtd">
<svg version="1.1" id="Capa_1" xmlns="http://www.w3.org/2000/svg" xmlns:xlink="http://www.w3.org/1999/xlink" x="0px" y="0px"
	 width="64px" height="64px" viewBox="0 0 64 64" style="enable-background:new 0 0 64 64;" xml:space="preserve">
<g>
	<path d="M49.19,5.69L17.428,42.381c-1.126,1.301-1.373,3.062-0.798,4.562l-7.219,8.34c-0.765,0.884-0.669,2.222,0.215,2.986
		c0.884,0.766,2.222,0.67,2.987-0.214l7.219-8.34c1.567,0.354,3.274-0.143,4.4-1.443l31.761-36.692
		c1.627-1.879,1.422-4.721-0.457-6.347C53.658,3.605,50.816,3.81,49.19,5.69z M51.056,11.622l-2.426,2.803l1.401,1.212
		c0.221,0.191,0.245,0.525,0.054,0.747c-0.191,0.221-0.525,0.245-0.747,0.054l-1.401-1.213l-2.31,2.669l1.401,1.212
		c0.221,0.192,0.245,0.526,0.054,0.747c-0.191,0.222-0.525,0.245-0.747,0.054l-1.401-1.213l-2.311,2.669l1.401,1.213
		c0.221,0.191,0.245,0.526,0.054,0.747c-0.191,0.221-0.525,0.245-0.747,0.054l-1.401-1.213l-2.31,2.668l1.401,1.213
		c0.221,0.192,0.245,0.526,0.054,0.747c-0.192,0.222-0.525,0.245-0.747,0.054l-1.401-1.213l-2.31,2.669l1.401,1.213
		c0.221,0.191,0.245,0.526,0.054,0.747c-0.191,0.221-0.525,0.245-0.747,0.054l-1.401-1.213l-2.31,2.668l1.401,1.213
		c0.221,0.191,0.245,0.526,0.054,0.747c-0.192,0.222-0.525,0.245-0.747,0.054l-1.401-1.213l-2.311,2.669l1.401,1.213
		c0.221,0.191,0.245,0.526,0.054,0.747c-0.191,0.221-0.525,0.245-0.747,0.054l-1.401-1.213l-2.31,2.668l1.401,1.213
		c0.221,0.191,0.245,0.526,0.054,0.747c-0.191,0.221-0.525,0.245-0.747,0.054l-1.401-1.213l-2.31,2.669l1.401,1.213
		c0.221,0.191,0.245,0.525,0.054,0.746c-0.191,0.221-0.526,0.246-0.747,0.055l-1.401-1.213l-2.31,2.668l1.401,1.213
		c0.221,0.191,0.245,0.525,0.054,0.746c-0.192,0.222-0.525,0.246-0.747,0.055l-1.401-1.213l-0.433,0.5
		c-0.287,0.331-0.788,0.367-1.12,0.08c-0.331-0.287-0.368-0.788-0.081-1.12l30.578-35.324c0.287-0.331,0.789-0.367,1.12-0.081
		C51.307,10.789,51.343,11.291,51.056,11.622z"/>
</g>
</svg>
