<?xml version="1.0" encoding="utf-8"?>
<!-- Generator: Adobe Illustrator 16.0.4, SVG Export Plug-In . SVG Version: 6.00 Build 0)  -->
<!DOCTYPE svg PUBLIC "-//W3C//DTD SVG 1.1//EN" "http://www.w3.org/Graphics/SVG/1.1/DTD/svg11.dtd">
<svg version="1.1" id="Layer_1" xmlns="http://www.w3.org/2000/svg" xmlns:xlink="http://www.w3.org/1999/xlink" x="0px" y="0px"
	 width="50px" height="50px" viewBox="0 0 50 50" enable-background="new 0 0 50 50" xml:space="preserve">
<path d="M21.897,17.676c-2.677,0-4.853,2.176-4.853,4.851V35.16c0,2.674,2.176,4.85,4.853,4.85c2.674,0,4.849-2.176,4.849-4.85
	V22.527C26.746,19.853,24.571,17.676,21.897,17.676z M25.746,35.16c0,2.123-1.727,3.85-3.849,3.85c-2.125,0-3.853-1.727-3.853-3.85
	V22.527c0-2.123,1.728-3.851,3.853-3.851c2.122,0,3.849,1.729,3.849,3.851V35.16z M22.397,23.729v1.808h1.184
	c0.275,0,0.5,0.223,0.5,0.5c0,0.275-0.225,0.5-0.5,0.5h-1.184v1.807h1.184c0.275,0,0.5,0.224,0.5,0.5c0,0.275-0.225,0.5-0.5,0.5
	h-1.184v1.807h1.184c0.275,0,0.5,0.225,0.5,0.5s-0.225,0.5-0.5,0.5h-1.184v1.807h1.184c0.275,0,0.5,0.225,0.5,0.5
	c0,0.276-0.225,0.5-0.5,0.5h-1.184v0.834c0,0.275-0.226,0.5-0.5,0.5c-0.277,0-0.5-0.225-0.5-0.5v-0.834H20.21
	c-0.275,0-0.5-0.224-0.5-0.5c0-0.275,0.225-0.5,0.5-0.5h1.187V32.15H20.21c-0.275,0-0.5-0.225-0.5-0.5s0.225-0.5,0.5-0.5h1.187
	v-1.807H20.21c-0.275,0-0.5-0.225-0.5-0.5c0-0.276,0.225-0.5,0.5-0.5h1.187v-1.807H20.21c-0.275,0-0.5-0.225-0.5-0.5
	c0-0.277,0.225-0.5,0.5-0.5h1.187v-1.808H20.21c-0.275,0-0.5-0.224-0.5-0.5s0.225-0.5,0.5-0.5h1.187v-0.833
	c0-0.276,0.223-0.5,0.5-0.5c0.274,0,0.5,0.224,0.5,0.5v0.833h1.184c0.275,0,0.5,0.224,0.5,0.5s-0.225,0.5-0.5,0.5H22.397z
	 M26.66,16.87c0,1.065,0.631,1.736,1.705,1.736c0.363,0,0.766-0.079,1.002-0.174l0.182,0.939c-0.221,0.11-0.719,0.229-1.365,0.229
	c-1.838,0-2.784-1.144-2.784-2.659c0-1.814,1.295-2.824,2.901-2.824c0.625,0,1.1,0.126,1.312,0.237l-0.244,0.955
	c-0.244-0.103-0.584-0.197-1.01-0.197C27.402,15.11,26.66,15.687,26.66,16.87z M30.871,9.99c-1.15,0-2.086,0.936-2.086,2.086
	c0,1.15,0.936,2.085,2.086,2.085c1.148,0,2.084-0.936,2.084-2.085C32.955,10.924,32.02,9.99,30.871,9.99z M30.871,13.161
	c-0.6,0-1.086-0.487-1.086-1.085c0-0.598,0.486-1.086,1.086-1.086c0.598,0,1.084,0.487,1.084,1.086
	C31.955,12.674,31.469,13.161,30.871,13.161z"/>
</svg>
