<?xml version="1.0" encoding="utf-8"?>
<!-- Generator: Adobe Illustrator 16.0.0, SVG Export Plug-In . SVG Version: 6.00 Build 0)  -->
<!DOCTYPE svg PUBLIC "-//W3C//DTD SVG 1.1//EN" "http://www.w3.org/Graphics/SVG/1.1/DTD/svg11.dtd">
<svg version="1.1" id="Layer_1" xmlns="http://www.w3.org/2000/svg" xmlns:xlink="http://www.w3.org/1999/xlink" x="0px" y="0px"
	 width="96px" height="96px" viewBox="0 0 96 96" enable-background="new 0 0 96 96" xml:space="preserve">
<g>
	<path d="M48,1.838C22.546,1.838,1.838,22.546,1.838,48S22.546,94.162,48,94.162S94.162,73.454,94.162,48S73.454,1.838,48,1.838z
		 M48,85.024c-20.415,0-37.024-16.609-37.024-37.024S27.585,10.976,48,10.976S85.024,27.585,85.024,48S68.415,85.024,48,85.024z"/>
	<path d="M31.009,54.997c0,9.384,7.607,16.991,16.991,16.991s16.992-7.607,16.992-16.991C64.992,45.612,48,24.012,48,24.012
		S31.009,45.612,31.009,54.997z"/>
</g>
</svg>
