<?xml version="1.0" encoding="utf-8"?>
<!-- Generator: Adobe Illustrator 17.0.0, SVG Export Plug-In . SVG Version: 6.00 Build 0)  -->
<!DOCTYPE svg PUBLIC "-//W3C//DTD SVG 1.1//EN" "http://www.w3.org/Graphics/SVG/1.1/DTD/svg11.dtd">
<svg version="1.1" id="Capa_1" xmlns="http://www.w3.org/2000/svg" xmlns:xlink="http://www.w3.org/1999/xlink" x="0px" y="0px"
	 width="15.239px" height="18.338px" viewBox="0 0 15.239 18.338" enable-background="new 0 0 15.239 18.338" xml:space="preserve">
<path d="M9.382,5.851C9.062,5.342,8.696,4.789,8.227,4.108C7.976,3.745,7.722,3.382,7.468,3.021L7.263,2.73
	C7.05,2.425,6.837,2.12,6.632,1.824c-0.14-0.227-0.278-0.382-0.419-0.473C6.117,1.29,6.019,1.259,5.921,1.259H5.905H5.902
	C5.797,1.265,5.695,1.304,5.6,1.379C5.476,1.475,5.365,1.626,5.265,1.825C5.135,2.029,5.004,2.238,4.871,2.446l-0.148,0.23
	L4.599,2.871C4.371,3.227,4.145,3.582,3.922,3.938C3.494,4.614,3.161,5.16,2.87,5.655C2.278,6.669,1.823,7.552,1.482,8.357
	c-0.76,1.792-1.012,3.326-0.766,4.693c0.165,0.924,0.565,1.796,1.193,2.589l0.006,0.01l0.009,0.007
	C2.441,16.155,3,16.569,3.587,16.887c0.856,0.464,1.723,0.699,2.574,0.699c0.42,0,0.838-0.06,1.239-0.177
	c0.307-0.092,0.609-0.218,0.891-0.377c0.31-0.173,0.605-0.389,0.872-0.636c0.902-0.77,1.531-1.609,1.919-2.567
	c0.103-0.257,0.18-0.531,0.242-0.864c0.042-0.232,0.07-0.47,0.082-0.692c0.141-1.128-0.047-2.321-0.573-3.644
	C10.502,7.797,10.028,6.889,9.382,5.851z M5.315,16.533c-2.456-0.373-4.144-2.667-3.769-5.121c0.063-0.417,0.262-1.568,0.349-1.175
	c1.177,5.271,5.784,6.02,5.784,6.02C6.954,16.549,6.143,16.659,5.315,16.533z M14.599,4.884c-0.004,0.079-0.013,0.169-0.028,0.258
	c-0.022,0.128-0.049,0.233-0.085,0.332c-0.135,0.364-0.352,0.683-0.666,0.976c-0.094,0.095-0.199,0.178-0.309,0.247
	c-0.102,0.062-0.211,0.111-0.323,0.148c-0.144,0.046-0.296,0.07-0.449,0.07c-0.306,0-0.613-0.09-0.918-0.27
	c-0.205-0.122-0.4-0.281-0.578-0.469l-0.007-0.007l-0.006-0.01c-0.218-0.301-0.357-0.633-0.415-0.986
	c-0.086-0.515,0-1.091,0.26-1.762c0.116-0.296,0.269-0.622,0.469-0.997c0.097-0.182,0.206-0.375,0.352-0.63
	c0.075-0.13,0.151-0.26,0.228-0.39l0.09-0.154l0.026-0.046l0.105-0.181c0.036-0.078,0.081-0.145,0.134-0.19
	c0.051-0.042,0.109-0.067,0.169-0.07c0.001,0,0.002,0,0.002,0c0.07,0,0.124,0.017,0.175,0.054c0.062,0.041,0.117,0.111,0.172,0.207
	c0.056,0.088,0.117,0.185,0.179,0.28l0.029,0.047l0.092,0.145c0.077,0.118,0.153,0.238,0.229,0.359
	c0.159,0.25,0.281,0.453,0.388,0.64c0.219,0.382,0.379,0.718,0.491,1.027C14.583,4.01,14.647,4.457,14.599,4.884z"/>
</svg>
