<?xml version="1.0" encoding="utf-8"?>
<!-- Generator: Adobe Illustrator 16.0.0, SVG Export Plug-In . SVG Version: 6.00 Build 0)  -->
<!DOCTYPE svg PUBLIC "-//W3C//DTD SVG 1.1//EN" "http://www.w3.org/Graphics/SVG/1.1/DTD/svg11.dtd">
<svg version="1.1" id="Layer_1" xmlns="http://www.w3.org/2000/svg" xmlns:xlink="http://www.w3.org/1999/xlink" x="0px" y="0px"
	 width="96px" height="96px" viewBox="0 0 96 96" enable-background="new 0 0 96 96" xml:space="preserve">
<path d="M91.032,23.715c5.173-5.176,5.173-13.569-0.003-18.746c-5.174-5.175-13.568-5.176-18.744,0l-9.411,9.412
	c-0.068,0.067-0.123,0.14-0.187,0.207l-6.494-6.494L42.232,22.052l7.692,7.691L11.244,68.424
	C9.832,69.837-3.479,87.063,2.729,93.272c6.208,6.208,23.435-7.104,24.849-8.517l38.679-38.68l7.305,7.304L87.52,39.421
	l-6.107-6.107c0.067-0.064,0.141-0.121,0.209-0.188L91.032,23.715z M22.93,80.112c-3.047,3.049-12.113,8.071-15.332,8.29
	c0.219-3.218,5.241-12.283,8.291-15.332l38.679-38.683l7.046,7.043L22.93,80.112z"/>
</svg>
