<?xml version="1.0" encoding="utf-8"?>
<!-- Generator: Adobe Illustrator 16.0.4, SVG Export Plug-In . SVG Version: 6.00 Build 0)  -->
<!DOCTYPE svg PUBLIC "-//W3C//DTD SVG 1.1//EN" "http://www.w3.org/Graphics/SVG/1.1/DTD/svg11.dtd">
<svg version="1.1" id="Layer_1" xmlns="http://www.w3.org/2000/svg" xmlns:xlink="http://www.w3.org/1999/xlink" x="0px" y="0px"
	 width="50px" height="50px" viewBox="0 0 50 50" enable-background="new 0 0 50 50" xml:space="preserve">
<path d="M32.107,28.918c0.032-0.164-0.02-0.333-0.137-0.451l-7.135-7.135l0.639-0.639c0.094-0.094,0.146-0.221,0.146-0.354
	c0-0.133-0.053-0.26-0.146-0.354l-1.466-1.465c-0.094-0.094-0.221-0.146-0.354-0.146c-0.133,0-0.26,0.053-0.354,0.146l-0.432,0.433
	c-0.342-0.345-1.007-1.014-2.301-2.314c-0.862-0.863-2.118-0.933-2.905-0.146c-0.421,0.42-0.598,0.935-0.512,1.488
	c0.071,0.46,0.328,0.922,0.741,1.335c1.297,1.292,1.966,1.957,2.312,2.301l-0.516,0.517c-0.195,0.195-0.195,0.512,0,0.707
	l1.465,1.465c0.098,0.098,0.226,0.146,0.354,0.146s0.256-0.049,0.354-0.146l0.64-0.64l7.134,7.135
	c0.096,0.095,0.223,0.146,0.354,0.146c0.032,0,0.064-0.003,0.097-0.009c0.423-0.083,1.177-0.267,1.466-0.558
	C31.84,30.092,32.023,29.34,32.107,28.918z M21.507,23.246l-0.758-0.758l0.518-0.519c0.095-0.095,0.146-0.226,0.145-0.359
	c-0.001-0.134-0.058-0.264-0.154-0.357c-0.1-0.096-2.659-2.644-2.659-2.644c-0.258-0.258-0.421-0.536-0.459-0.781
	c-0.036-0.23,0.04-0.436,0.231-0.626c0.408-0.41,1.016-0.329,1.489,0.145c0,0,2.562,2.573,2.638,2.652
	c0.092,0.102,0.222,0.161,0.358,0.165c0.133,0,0.269-0.05,0.366-0.146l0.434-0.435l0.758,0.758L21.507,23.246z M30.857,29.663
	c-0.081,0.06-0.386,0.16-0.71,0.238l-6.909-6.909l0.921-0.921l6.909,6.909C30.991,29.303,30.896,29.604,30.857,29.663z
	 M32.87,32.997c0,0.585-0.474,1.059-1.06,1.059c-0.585,0-1.06-0.474-1.06-1.059s1.06-2.154,1.06-2.154S32.87,32.412,32.87,32.997z"
	/>
</svg>
