<?xml version="1.0" encoding="utf-8"?>
<!-- Generator: Adobe Illustrator 16.0.4, SVG Export Plug-In . SVG Version: 6.00 Build 0)  -->
<!DOCTYPE svg PUBLIC "-//W3C//DTD SVG 1.1//EN" "http://www.w3.org/Graphics/SVG/1.1/DTD/svg11.dtd">
<svg version="1.1" id="Layer_1" xmlns="http://www.w3.org/2000/svg" xmlns:xlink="http://www.w3.org/1999/xlink" x="0px" y="0px"
	 width="50px" height="50px" viewBox="0 0 50 50" enable-background="new 0 0 50 50" xml:space="preserve">
<path d="M21.605,26.421c-0.546,0-0.989-0.442-0.989-0.99s0.989-2.281,0.989-2.281s0.989,1.734,0.989,2.281
	S22.152,26.421,21.605,26.421z M20.86,22.384h-1.134v6.046h-1.967v0.93h1.144v0.855H10v-0.855h1.145v-9.574h6.615v7.788h1.11v-5.617
	l0.005-0.429h0.421h1.983l0.664,0.853l-0.675,0.526L20.86,22.384z M16.293,21.268H12.61v2.749h3.683V21.268z M28.491,23.215
	c0.112,0.146,0.215,0.305,0.299,0.477c0.083,0.173,0.144,0.351,0.188,0.531l6.111-3.573L28.491,23.215z M25.627,23.234
	c-0.974,0.508-1.353,1.711-0.844,2.686c0.509,0.975,1.712,1.354,2.685,0.846c0.976-0.509,1.355-1.71,0.847-2.687
	C27.807,23.104,26.604,22.726,25.627,23.234z M27.574,12.671h-1.561v4.1h1.561V12.671z M26.014,37.329h1.561v-4.101h-1.561V37.329z
	 M35.9,24.219v1.562H40v-1.562H35.9z M31.943,17.945l0.552,0.552l2.899-2.899l-0.553-0.552L31.943,17.945z M31.943,32.055
	l2.899,2.899l0.552-0.552l-2.898-2.899L31.943,32.055z M22.409,35.532h2.004v-0.354v-0.352h-2.004v-0.871h2.161v-0.364v-0.362
	h-3.018v4.1h3.113v-0.365V36.6h-2.256V35.532z M22.504,16.771v-1.734H24.3v-0.354v-0.351h-1.796v-0.933h2.062v-0.365v-0.363h-2.917
	v4.1h0.429H22.504z"/>
</svg>
