<?xml version="1.0" encoding="utf-8"?>
<!-- Generator: Adobe Illustrator 16.0.4, SVG Export Plug-In . SVG Version: 6.00 Build 0)  -->
<!DOCTYPE svg PUBLIC "-//W3C//DTD SVG 1.1//EN" "http://www.w3.org/Graphics/SVG/1.1/DTD/svg11.dtd">
<svg version="1.1" id="Layer_1" xmlns="http://www.w3.org/2000/svg" xmlns:xlink="http://www.w3.org/1999/xlink" x="0px" y="0px"
	 width="50px" height="50px" viewBox="0 0 50 50" enable-background="new 0 0 50 50" xml:space="preserve">
<path d="M16.584,23.566h1.175v1.176h-1.175V23.566z M18.347,24.742h1.174v-1.176h-1.174V24.742z M20.108,24.742h1.175v-1.176h-1.175
	V24.742z M16.584,26.535h1.175v-1.176h-1.175V26.535z M18.347,26.535h1.174v-1.176h-1.174V26.535z M20.108,26.535h1.175v-1.176
	h-1.175V26.535z M16.584,28.328h1.175v-1.176h-1.175V28.328z M18.347,28.328h1.174v-1.176h-1.174V28.328z M20.108,28.328h1.175
	v-1.176h-1.175V28.328z M35.267,22.228c0,0.441-0.066,0.879-0.199,1.297c-0.073,0.36-0.299,0.709-0.517,1.043
	c-0.181,0.279-0.366,0.568-0.473,0.892c-0.164,0.501-0.073,2.189,0.021,3.134c0.004,1.523-1.093,2.82-2.787,3.355
	c-0.049,0.016-0.101,0.023-0.15,0.023c-0.105,0-0.209-0.033-0.297-0.098c-0.127-0.095-0.203-0.244-0.203-0.402
	c0-0.012,0.002-0.057,0.003-0.066c0-2.704-1.142-4.588-2.167-4.588c-1.014,0-2.143,1.845-2.166,4.502
	c0.016,0.048,0.023,0.1,0.023,0.152c0,0.305-0.289,0.543-0.586,0.491c-0.029-0.002-0.058-0.007-0.084-0.016
	c-1.097-0.345-1.935-1.011-2.396-1.834h-8.055c-0.275,0-0.5-0.224-0.5-0.5v-8.433c0-0.275,0.225-0.5,0.5-0.5h1.92v-0.675
	c0-0.276,0.224-0.5,0.5-0.5c0.275,0,0.5,0.224,0.5,0.5v0.675h3.859c0.338-0.895,0.961-1.66,1.793-2.144
	c1.51-0.864,3.454-0.603,4.689,0.575c1.234-1.178,3.184-1.438,4.688-0.576C34.47,19.286,35.267,20.699,35.267,22.228z
	 M22.937,29.114c-0.024-0.155-0.043-0.312-0.043-0.472c0.01-0.099,0.019-0.207,0.027-0.314h-1.05v-1.176h1.122
	c0.008-0.213,0.013-0.42,0.013-0.617h-1.135v-1.176h1c-0.108-0.28-0.267-0.541-0.429-0.791c-0.219-0.334-0.443-0.682-0.53-1.09
	c-0.119-0.369-0.187-0.807-0.187-1.252c0-0.184,0.014-0.364,0.035-0.545h-3.607v0.467c0,0.276-0.223,0.5-0.5,0.5
	c-0.275,0-0.5-0.224-0.5-0.5v-0.467h-1.418v7.433H22.937L22.937,29.114z M34.267,22.228c0-1.174-0.605-2.256-1.582-2.824
	c-1.244-0.715-2.888-0.383-3.795,0.763c-0.189,0.237-0.595,0.237-0.783,0c-0.582-0.733-1.435-1.155-2.338-1.155
	c-0.506,0-1.012,0.137-1.461,0.396c-0.975,0.565-1.58,1.647-1.58,2.821c0,0.344,0.051,0.68,0.15,0.998
	c0.061,0.272,0.221,0.518,0.402,0.801c0.207,0.317,0.441,0.679,0.588,1.125c0.275,0.847,0.066,3.1,0.021,3.543
	c0.002,0.806,0.561,1.574,1.469,2.043c0.19-2.834,1.502-4.92,3.139-4.92c1.646,0,2.964,2.111,3.146,4.918
	c0.903-0.473,1.459-1.246,1.459-2.092c-0.041-0.395-0.252-2.648,0.024-3.495c0.146-0.446,0.379-0.807,0.585-1.123
	c0.184-0.283,0.342-0.527,0.389-0.754C34.215,22.902,34.267,22.566,34.267,22.228z M32.394,19.908
	c-0.363-0.209-0.756-0.315-1.166-0.315c-0.276,0-0.5,0.224-0.5,0.5s0.224,0.5,0.5,0.5c0.232,0,0.457,0.062,0.666,0.183
	c0.488,0.283,0.793,0.841,0.793,1.453c0,0.176-0.027,0.351-0.104,0.588c-0.003,0.01-0.01,0.035-0.016,0.062
	c-0.043,0.073-0.121,0.194-0.187,0.292c-0.229,0.356-0.547,0.847-0.757,1.486c-0.086,0.263,0.059,0.545,0.32,0.631
	c0.052,0.017,0.104,0.024,0.154,0.024c0.211,0,0.406-0.135,0.477-0.346c0.169-0.516,0.422-0.908,0.646-1.254
	c0.228-0.347,0.264-0.426,0.287-0.486c0.01-0.025,0.044-0.151,0.051-0.179c0.082-0.267,0.125-0.543,0.125-0.819
	C33.687,21.259,33.19,20.371,32.394,19.908z"/>
</svg>
