<?xml version="1.0" encoding="iso-8859-1"?>
<!-- Generator: Adobe Illustrator 17.0.0, SVG Export Plug-In . SVG Version: 6.00 Build 0)  -->
<!DOCTYPE svg PUBLIC "-//W3C//DTD SVG 1.1//EN" "http://www.w3.org/Graphics/SVG/1.1/DTD/svg11.dtd">
<svg version="1.1" id="Capa_1" xmlns="http://www.w3.org/2000/svg" xmlns:xlink="http://www.w3.org/1999/xlink" x="0px" y="0px"
	 width="64px" height="64px" viewBox="0 0 64 64" style="enable-background:new 0 0 64 64;" xml:space="preserve">
<g>
	<path d="M17.617,38.311c-0.297,5.514-0.602,14.364,0.058,20.044c0.318,2.743,3.018,3.381,4.688,1.182
		c1.927-2.536,4.528-6.697,7.449-13.348c1.11-2.528,2.718-2.527,3.841-0.004c3.017,6.778,5.789,10.972,7.846,13.494
		c1.745,2.14,4.509,1.421,4.828-1.322c0.66-5.681,0.354-14.531,0.058-20.045c-0.148-2.758,0.872-6.905,1.854-9.486
		c2.559-6.725,2.488-13.504,2.429-15.132c0.004-0.124,0.019-0.246,0.019-0.371c0-5.661-4.59-10.25-10.25-10.25
		c-3.488,0-6.565,1.747-8.417,4.409c-1.852-2.663-4.929-4.409-8.417-4.409c-5.66,0-10.25,4.589-10.25,10.25
		c0,0-0.523,7.789,2.411,15.503C16.745,31.406,17.764,35.554,17.617,38.311z M19.362,9.872c1.665-1.802,4.1-2.716,7.24-2.716
		c0.552,0,1,0.448,1,1s-0.448,1-1,1c-2.559,0-4.5,0.697-5.77,2.073c-1.954,2.116-1.735,5.15-1.733,5.181
		c0.045,0.55-0.366,1.032-0.917,1.076c-0.027,0.002-0.054,0.003-0.081,0.003c-0.516,0-0.954-0.397-0.996-0.92
		C17.092,16.408,16.822,12.623,19.362,9.872z"/>
</g>
</svg>
