<?xml version="1.0" encoding="utf-8"?>
<!-- Generator: Adobe Illustrator 16.0.0, SVG Export Plug-In . SVG Version: 6.00 Build 0)  -->
<!DOCTYPE svg PUBLIC "-//W3C//DTD SVG 1.1//EN" "http://www.w3.org/Graphics/SVG/1.1/DTD/svg11.dtd">
<svg version="1.1" id="Layer_1" xmlns="http://www.w3.org/2000/svg" xmlns:xlink="http://www.w3.org/1999/xlink" x="0px" y="0px"
	 width="96px" height="96px" viewBox="0 0 96 96" enable-background="new 0 0 96 96" xml:space="preserve">
<path d="M86.346,21.123c0-11.295-9.156-20.451-20.451-20.451c0,0-12.738,2.223-17.895,2.223S30.105,0.672,30.105,0.672
	c-11.295,0-20.451,9.156-20.451,20.451c0,0,0.01,5.28,2.304,11.179c0.063,4.137,1.269,60.921,19.881,62.905
	c19.315,2.059,1.704-22.652,12.498-39.126c1.332-2.032,2.516-3.688,3.496-3.728s2.165,1.696,3.497,3.728
	c10.792,16.475-6.818,41.185,12.497,39.126C81.601,93.312,83.5,41.432,83.689,33.165C86.336,26.929,86.346,21.123,86.346,21.123z"/>
</svg>
