<?xml version="1.0" encoding="utf-8"?>
<!-- Generator: Adobe Illustrator 17.1.0, SVG Export Plug-In . SVG Version: 6.00 Build 0)  -->
<!DOCTYPE svg PUBLIC "-//W3C//DTD SVG 1.1//EN" "http://www.w3.org/Graphics/SVG/1.1/DTD/svg11.dtd">
<svg version="1.1" xmlns="http://www.w3.org/2000/svg" xmlns:xlink="http://www.w3.org/1999/xlink" x="0px" y="0px"
	 viewBox="0 0 64 64" enable-background="new 0 0 64 64" xml:space="preserve">
<g id="Imagenes">
</g>
<g id="Layer_2">
	<path d="M41.345,25.038c-1.191,0-2.372,0.103-3.532,0.307c4.631,0.832,11.406,4.388,17.046,16.727l0.132,0.246
		c1.162,2.324,2.188,3.108,4.064,3.108c0.437,0,1.459-0.24,2.205-1.149c0.89-1.086,1.128-2.822,0.689-5.02
		C60.607,32.544,51.51,25.038,41.345,25.038z"/>
	<path d="M48.268,43.571c0.176,0.881,0.248,1.688,0.23,2.429h7.953c-0.872-0.731-1.986-1.816-2.501-2.944l-0.147-0.321
		c-0.971-2.129-2.255-4.942-4.112-7.632c-0.98-1.42-2.123-2.805-3.461-4.038c-2.92-2.69-6.781-4.654-11.987-4.654
		c-3.626,0-6.505,0.838-8.793,2.187c0.41-0.023,0.82-0.05,1.233-0.05C37.632,28.549,46.847,36.466,48.268,43.571z"/>
	<path d="M23.557,29.942c3.919,0.819,9.226,3.621,14.095,11.782c0.345,0.578,0.686,1.185,1.026,1.818
		c0.417,0.777,0.83,1.594,1.237,2.458c0.093,0.198,0.189,0.379,0.282,0.582l0.132,0.246C40.36,46.89,40.391,46.94,40.422,47
		c1.124,2.182,2.145,2.936,3.972,2.936c0.437,0,1.459-0.24,2.205-1.149c0.389-0.474,0.646-1.08,0.784-1.787
		c0.061-0.314,0.104-0.644,0.115-1c0.021-0.676-0.047-1.422-0.209-2.233c-0.389-1.943-1.443-3.949-2.97-5.824
		c-0.596-0.732-1.266-1.441-2.002-2.121c-3.885-3.587-9.561-6.273-15.633-6.273c-0.988,0-1.966,0.088-2.933,0.228
		c-0.129,0.019-0.26,0.03-0.389,0.051c-0.07,0.011-0.14,0.015-0.21,0.027c0.045,0.008,0.094,0.021,0.139,0.029
		C23.377,29.902,23.468,29.923,23.557,29.942z"/>
	<path d="M39.288,47.812l-0.357-0.787c-0.004-0.008-0.008-0.017-0.011-0.025c-0.146-0.322-0.297-0.657-0.454-1
		c-2.522-5.508-6.671-13.455-16.4-14.621c-0.101-0.012-0.2-0.028-0.302-0.039c-0.314-0.033-0.635-0.056-0.961-0.075
		c-0.399-0.022-0.805-0.036-1.222-0.036C5.251,31.229,2.443,43.531,2.061,51h39.836C41.014,50.203,39.824,48.985,39.288,47.812z
		 M20.708,39.721c0-0.934,0.757-1.692,1.692-1.692c0.934,0,1.692,0.757,1.692,1.692c0,0.934-0.757,1.692-1.692,1.692
		C21.466,41.413,20.708,40.656,20.708,39.721z M26.261,47c-0.218,0.683-0.85,1.18-1.605,1.18c-0.755,0-1.387-0.498-1.604-1.18
		c-0.052-0.162-0.087-0.332-0.087-0.511c0-0.171,0.033-0.333,0.08-0.489c0.211-0.694,0.848-1.203,1.612-1.203
		c0.763,0,1.401,0.509,1.612,1.203c0.047,0.156,0.08,0.317,0.08,0.489C26.348,46.668,26.312,46.838,26.261,47z M28.04,43.669
		c-0.934,0-1.692-0.757-1.692-1.692c0-0.934,0.757-1.692,1.692-1.692c0.934,0,1.692,0.757,1.692,1.692
		C29.731,42.911,28.974,43.669,28.04,43.669z"/>
</g>
</svg>
