<?xml version="1.0" encoding="utf-8"?>
<!-- Generator: Adobe Illustrator 17.1.0, SVG Export Plug-In . SVG Version: 6.00 Build 0)  -->
<!DOCTYPE svg PUBLIC "-//W3C//DTD SVG 1.1//EN" "http://www.w3.org/Graphics/SVG/1.1/DTD/svg11.dtd">
<svg version="1.1" xmlns="http://www.w3.org/2000/svg" xmlns:xlink="http://www.w3.org/1999/xlink" x="0px" y="0px"
	 viewBox="0 0 64 64" enable-background="new 0 0 64 64" xml:space="preserve">
<g id="Imagenes">
</g>
<g id="Layer_2">
	<path d="M13.576,16.948C13.894,16.22,14.613,16,15.408,16h4.683c-0.807-3.074-3.597-5.344-6.924-5.344
		C9.209,10.656,6,13.864,6,17.822c0,3.958,3.209,7.167,7.167,7.167c1.8,0,3.441-0.669,4.7-1.765l-3.929-4.243
		C13.399,18.398,13.257,17.675,13.576,16.948z"/>
	<path d="M34,35.395v-1.041L49.092,18H49H20.324h-4.917l3.627,3.93L30,33.812v0.974v1.54V56.54c-4.71,0.177-8.25,0.931-8.25,1.835
		c0,1.036,4.645,1.875,10.375,1.875S42.5,59.411,42.5,58.375c0-0.92-3.666-1.683-8.5-1.843V36.818V35.395z M25.667,24L22,20h20
		l-4.167,4H25.667z"/>
</g>
</svg>
