<?xml version="1.0" encoding="utf-8"?>
<!-- Generator: Adobe Illustrator 17.1.0, SVG Export Plug-In . SVG Version: 6.00 Build 0)  -->
<!DOCTYPE svg PUBLIC "-//W3C//DTD SVG 1.1//EN" "http://www.w3.org/Graphics/SVG/1.1/DTD/svg11.dtd">
<svg version="1.1" xmlns="http://www.w3.org/2000/svg" xmlns:xlink="http://www.w3.org/1999/xlink" x="0px" y="0px"
	 viewBox="0 0 64 64" enable-background="new 0 0 64 64" xml:space="preserve">
<g id="Imagenes">
</g>
<g id="Layer_2">
	<path d="M53.31,29.587c-0.964-1.019-2.153-1.504-3.473-1.62c-1.455-0.129-2.794,0.324-3.923,1.284
		c-0.504,0.428-1.612,0.289-1.769-0.566c-0.083-0.45-0.01-0.795,0.241-1.176c0.403-0.613,0.73-1.276,1.09-1.917
		c0.39-0.695,0.785-1.387,1.167-2.086c0.55-1.005,1.085-2.019,1.639-3.022c0.393-0.711,0.814-1.406,1.201-2.12
		c0.048-0.089,0.011-0.317-0.062-0.364c-0.826-0.534-1.65-1.075-2.508-1.554c-0.795-0.443-1.621-0.834-2.452-1.207
		c-0.873-0.391-1.766-0.74-2.658-1.088c-0.092-0.036-0.3,0.02-0.345,0.097c-0.55,0.942-1.082,1.894-1.615,2.846
		c-0.419,0.748-0.828,1.502-1.247,2.25c-0.249,0.445-0.51,0.882-0.763,1.324c-0.334,0.583-0.65,1.177-1.005,1.748
		c-0.129,0.208-0.038,0.258,0.112,0.338c0.549,0.294,1.152,0.523,1.63,0.907c0.809,0.651,1.58,1.363,2.288,2.123
		c0.484,0.519,0.899,1.129,1.226,1.759c0.4,0.771,0.718,1.593,0.991,2.419c0.219,0.663,0.419,1.362,0.448,2.053
		c0.046,1.079,0.154,2.179-0.135,3.246c-0.246,0.904-0.469,1.822-0.812,2.69c-0.252,0.638-0.674,1.211-1.033,1.806
		c-0.651,1.078-1.501,1.981-2.522,2.711c-0.672,0.481-1.381,0.91-2.095,1.376c1.529,2.78,3.074,5.588,4.629,8.414
		c0.498-0.187,0.968-0.353,1.429-0.539c0.775-0.311,1.56-0.603,2.314-0.961c0.636-0.302,1.24-0.676,1.847-1.036
		c0.775-0.46,1.541-0.934,2.302-1.416c0.063-0.04,0.109-0.215,0.075-0.283c-0.185-0.366-0.392-0.722-0.603-1.074
		c-0.444-0.741-0.903-1.474-1.34-2.219c-0.366-0.624-0.706-1.263-1.063-1.891c-0.388-0.681-0.787-1.355-1.172-2.038
		c-0.273-0.485-0.511-0.991-0.8-1.466c-0.21-0.345-0.409-0.658-0.394-1.101c0.016-0.481,0.228-0.793,0.609-1.011
		c0.378-0.215,0.773-0.195,1.131,0.057c0.308,0.217,0.566,0.531,0.901,0.679c0.578,0.255,1.193,0.431,1.802,0.61
		c0.795,0.233,1.603,0.097,2.362-0.111c0.76-0.208,1.491-0.564,2.077-1.13c0.298-0.288,0.621-0.569,0.846-0.911
		c0.448-0.679,0.777-1.404,0.929-2.23c0.158-0.857,0.072-1.68-0.172-2.469C54.387,30.912,53.911,30.223,53.31,29.587z"/>
	<path d="M20.403,33.143c0.044-4.903,2.528-8.305,6.765-10.546c-0.19-0.363-0.362-0.707-0.548-1.044
		c-0.358-0.646-0.731-1.284-1.085-1.932c-0.577-1.058-1.138-2.125-1.719-3.181c-0.374-0.68-0.792-1.335-1.149-2.023
		c-0.152-0.293-0.293-0.328-0.587-0.224c-1.322,0.467-2.616,0.998-3.867,1.632c-1.246,0.632-2.449,1.331-3.589,2.143
		c-0.186,0.132-0.205,0.22-0.105,0.395c0.292,0.507,0.579,1.017,0.865,1.528c0.52,0.928,1.041,1.855,1.554,2.785
		c0.339,0.614,0.657,1.24,1.001,1.851c0.611,1.085,1.257,2.152,1.845,3.25c0.256,0.478,0.235,1.109-0.276,1.465
		c-0.524,0.365-0.992,0.376-1.487-0.012c-0.66-0.518-1.377-0.881-2.187-1.099c-1.212-0.327-2.375-0.198-3.51,0.293
		c-0.228,0.099-0.43,0.254-0.653,0.364c-0.65,0.322-1.131,0.836-1.543,1.407c-0.465,0.645-0.74,1.376-0.908,2.16
		c-0.181,0.844-0.11,1.674,0.122,2.476c0.301,1.041,0.921,1.898,1.744,2.614c0.587,0.511,1.275,0.872,1.997,1.043
		c0.697,0.165,1.457,0.143,2.182,0.094c0.797-0.053,1.529-0.369,2.177-0.855c0.596-0.447,1.167-0.963,1.977-0.372
		c0.339,0.247,0.568,1.085,0.357,1.438c-0.83,1.388-1.654,2.78-2.46,4.182c-0.436,0.758-0.821,1.545-1.246,2.31
		c-0.466,0.838-0.957,1.663-1.427,2.499c-0.247,0.44-0.219,0.494,0.224,0.761c0.502,0.301,0.994,0.622,1.503,0.911
		c0.846,0.481,1.692,0.966,2.56,1.405c0.581,0.294,1.195,0.524,1.803,0.762c0.564,0.221,1.139,0.415,1.728,0.628
		c1.559-2.836,3.101-5.641,4.635-8.432C22.891,41.46,20.359,38.075,20.403,33.143z"/>
	<path d="M30.86,24.622C27.014,25.128,24.133,28,23.305,31c5.788,0,11.569,0,17.373,0C39.298,26,35.065,24.069,30.86,24.622z"/>
	<path d="M41.008,33c-1.027,0-2.008,0-3.021,0c0.076,1-0.335,2.943-1.37,4.186c-1.038,1.246-2.356,1.904-3.938,2.058
		c-1.776,0.172-3.419-0.177-4.763-1.408C26.488,36.529,25.811,35,25.949,33c-1.021,0-1.984,0-3.056,0
		c-0.025,4,1.536,6.493,4.781,8.26c3.123,1.701,6.333,1.594,9.295-0.359C39.758,39.062,41.141,36,41.008,33z"/>
	<path d="M28.421,20.057c0.339,0.622,0.677,1.243,0.991,1.82c0.684-0.092,1.32-0.257,1.953-0.245
		c0.974,0.019,1.944,0.163,2.917,0.242c0.1,0.008,0.26-0.031,0.3-0.102c0.26-0.453,0.491-0.922,0.738-1.382
		c0.234-0.436,0.475-0.868,0.706-1.288c-1.33-2.531-2.655-5.053-4.021-7.652c-0.086,0.155-0.142,0.249-0.192,0.346
		c-0.205,0.4-0.403,0.804-0.613,1.201c-0.255,0.484-0.518,0.964-0.78,1.445c-0.233,0.427-0.466,0.853-0.703,1.278
		c-0.249,0.447-0.508,0.889-0.753,1.339c-0.249,0.456-0.462,0.934-0.735,1.375c-0.273,0.44-0.305,0.787-0.026,1.23
		C28.283,19.791,28.349,19.926,28.421,20.057z"/>
	<path d="M29.711,36.227c1.145,0.889,3.077,1.113,4.397,0.121c1.105-0.83,1.75-2.348,1.435-3.348c-2.385,0-4.772,0-7.154,0
		C28.052,34,28.667,35.417,29.711,36.227z"/>
	<path d="M34.862,44.854c-0.134-0.256-0.294-0.351-0.64-0.263c-0.596,0.151-1.221,0.223-1.837,0.249
		c-1.064,0.045-2.132,0.05-3.188-0.282c-0.274,0.631-0.536,1.234-0.804,1.85c2.401,0.93,4.782,0.93,7.204,0.094
		c-0.005-0.083,0.011-0.156-0.015-0.209C35.347,45.811,35.112,45.329,34.862,44.854z"/>
	<path d="M57.79,38.737c1.11-1.637,1.659-3.487,1.63-5.496c-0.045-3.162-1.349-5.827-3.774-7.708
		c-1.31-1.016-2.707-1.68-4.174-1.984c0.049-0.083,0.097-0.167,0.144-0.251c0.24-0.434,0.472-0.872,0.705-1.31
		c0.2-0.377,0.401-0.754,0.606-1.129c0.155-0.284,0.315-0.565,0.475-0.846c0.24-0.422,0.48-0.845,0.707-1.274
		c0.438-0.827,0.317-1.944-0.287-2.656c-0.291-0.343-0.605-0.549-0.813-0.686l-0.091-0.061l-0.467-0.336
		c-0.406-0.294-0.827-0.597-1.274-0.888c-0.806-0.524-1.547-0.977-2.266-1.385c-0.436-0.247-0.877-0.443-1.266-0.616l-0.322-0.144
		c-0.208-0.095-0.415-0.193-0.623-0.29c-0.589-0.278-1.198-0.565-1.861-0.806c-0.776-0.282-1.554-0.523-2.308-0.755
		c-0.384-0.119-0.769-0.238-1.151-0.362c-0.234-0.076-0.592-0.176-1.005-0.176c-0.562,0-1.607,0.194-2.283,1.49
		c-0.14,0.268-0.278,0.536-0.416,0.805l-3.925-7.097l-1.769-3.199l-1.74,3.215l-3.856,7.124c-0.197-0.338-0.392-0.677-0.583-1.018
		c-0.473-0.844-1.268-1.328-2.182-1.328c-0.241,0-0.487,0.035-0.732,0.105c-0.44,0.125-0.953,0.272-1.468,0.449l-0.601,0.203
		c-0.718,0.241-1.46,0.49-2.202,0.799c-1.296,0.539-2.462,1.037-3.62,1.663c-0.976,0.528-1.879,1.131-2.752,1.714l-0.534,0.356
		c-0.397,0.263-0.75,0.549-1.061,0.802c-0.123,0.099-0.245,0.199-0.368,0.295l-1.344,1.046l0.819,1.494l2.769,5.05
		c-1.554,0.313-3.006,1.021-4.336,2.115c-2.3,1.893-3.549,4.473-3.611,7.462c-0.055,2.645,0.856,5.04,2.633,6.928
		c1.49,1.582,3.247,2.566,5.24,2.937c-0.307,0.553-0.614,1.106-0.92,1.659c-0.136,0.247-0.268,0.495-0.401,0.744
		c-0.17,0.319-0.34,0.639-0.519,0.953c-0.127,0.223-0.264,0.441-0.401,0.658c-0.134,0.214-0.268,0.429-0.397,0.647
		c-0.616,1.047-0.164,2.264,0.629,2.836c0.821,0.593,1.645,1.182,2.476,1.763c1.302,0.91,2.657,1.659,4.027,2.226l0.489,0.203
		c0.781,0.326,1.589,0.662,2.429,0.954c0.798,0.277,1.6,0.514,2.375,0.743c0.328,0.097,0.655,0.194,0.982,0.294l1.041,0.487
		c0.407,3.425,3.694,6.095,7.689,6.095c4.027,0,7.332-2.713,7.696-6.176l1.097-0.367l0.493-0.176l1.057-0.326
		c0.211-0.062,0.422-0.127,0.634-0.186c0.52-0.143,1.058-0.295,1.61-0.496c0.825-0.301,1.71-0.666,2.786-1.145
		c0.689-0.307,1.353-0.649,1.974-1.014c0.929-0.547,1.837-1.115,2.697-1.688c0.542-0.361,1.015-0.75,1.472-1.127l0.153-0.126
		c0.888-0.728,0.96-2.003,0.516-2.814c-0.233-0.426-0.477-0.846-0.721-1.265l-0.253-0.435l-0.342-0.591
		c-0.325-0.562-0.651-1.124-0.972-1.688c-0.121-0.213-0.241-0.426-0.36-0.64c0.728-0.136,1.426-0.356,2.087-0.658
		C55.286,41.551,56.702,40.342,57.79,38.737z M49.667,41.155c-0.503,0-1.018-0.043-1.544-0.122c0.362,0.654,0.669,1.208,0.976,1.761
		c0.338,0.609,0.673,1.219,1.017,1.824c0.436,0.766,0.879,1.528,1.32,2.291c0.319,0.552,0.645,1.1,0.951,1.659
		c0.043,0.078,0.028,0.261-0.03,0.309c-0.477,0.392-0.951,0.792-1.464,1.134c-0.852,0.567-1.721,1.109-2.603,1.628
		c-0.572,0.337-1.167,0.64-1.774,0.91c-0.874,0.39-1.758,0.763-2.657,1.091c-0.692,0.252-1.413,0.422-2.121,0.63
		c-0.504,0.148-1.007,0.296-1.553,0.457c-0.286-0.497-0.574-0.98-0.844-1.471c-0.259-0.471-0.495-0.954-0.75-1.427
		c-0.454-0.84-0.921-1.674-1.371-2.517c-0.167-0.313-0.223-0.418-0.374-0.418c-0.091,0-0.217,0.038-0.423,0.091
		c-0.852,0.22-1.707,0.405-2.542,0.592c2.324,0.801,3.997,3.005,3.997,5.606c0,3.276-2.651,5.932-5.92,5.932
		c-3.27,0-5.92-2.656-5.92-5.932c0-2.569,1.632-4.75,3.912-5.575c-0.786-0.216-1.618-0.454-2.465-0.684
		c-0.096-0.026-0.18-0.061-0.256-0.061c-0.136,0-0.247,0.057-0.352,0.271c-0.479,0.969-1.019,1.905-1.537,2.855
		c-0.409,0.751-0.822,1.498-1.233,2.248c-0.084,0.153-0.172,0.303-0.294,0.52c-1.097-0.335-2.204-0.639-3.286-1.014
		c-0.951-0.33-1.877-0.731-2.808-1.116c-1.291-0.534-2.502-1.217-3.646-2.017c-0.822-0.575-1.638-1.159-2.451-1.746
		c-0.05-0.036-0.099-0.16-0.075-0.2c0.263-0.447,0.553-0.878,0.81-1.328c0.324-0.567,0.618-1.15,0.934-1.722
		c0.619-1.122,1.244-2.24,1.865-3.361c0.207-0.374,0.407-0.753,0.655-1.211c-0.507,0.077-1,0.116-1.479,0.116
		c-2.191,0-4.087-0.811-5.656-2.477c-1.441-1.53-2.134-3.41-2.09-5.515c0.05-2.413,1.026-4.432,2.882-5.96
		c1.459-1.201,3.102-1.845,4.952-1.845c0.473,0,0.959,0.042,1.459,0.128c-1.467-2.676-2.902-5.293-4.36-7.954
		c0.43-0.335,0.847-0.703,1.305-1.007c1.03-0.682,2.049-1.392,3.133-1.978c1.107-0.598,2.274-1.091,3.437-1.576
		c0.875-0.364,1.784-0.648,2.682-0.956c0.45-0.154,0.908-0.287,1.365-0.417c0.067-0.019,0.129-0.029,0.187-0.029
		c0.18,0,0.319,0.095,0.437,0.306c0.564,1.006,1.16,1.994,1.739,2.992c0.211,0.364,0.408,0.737,0.639,1.156
		c1.867-3.449,3.703-6.842,5.564-10.281c1.916,3.465,3.801,6.874,5.715,10.334c0.258-0.469,0.505-0.899,0.734-1.339
		c0.476-0.914,0.939-1.834,1.415-2.747c0.153-0.294,0.29-0.415,0.509-0.415c0.106,0,0.232,0.028,0.388,0.079
		c1.131,0.366,2.277,0.689,3.393,1.094c0.8,0.29,1.562,0.683,2.339,1.037c0.48,0.218,0.971,0.419,1.428,0.678
		c0.735,0.417,1.455,0.862,2.163,1.323c0.572,0.372,1.117,0.783,1.673,1.178c0.185,0.131,0.395,0.242,0.538,0.41
		c0.079,0.093,0.102,0.317,0.045,0.426c-0.374,0.706-0.784,1.393-1.169,2.094c-0.443,0.807-0.863,1.627-1.308,2.433
		c-0.235,0.425-0.512,0.826-0.751,1.249c-0.346,0.613-0.674,1.236-1.047,1.923c0.52-0.099,1.025-0.147,1.516-0.147
		c1.796,0,3.399,0.641,4.837,1.757c1.982,1.538,2.965,3.667,3,6.156c0.022,1.548-0.391,3.025-1.286,4.346
		c-0.869,1.282-1.991,2.259-3.386,2.896C51.767,40.96,50.742,41.155,49.667,41.155z"/>
	<path d="M28.535,55.182c0,1.893,1.534,3.432,3.42,3.432c1.886,0,3.42-1.54,3.42-3.432s-1.534-3.432-3.42-3.432
		C30.069,51.75,28.535,53.29,28.535,55.182z"/>
</g>
</svg>
