<svg width="16.911" xmlns="http://www.w3.org/2000/svg" height="17.725" viewBox="0 0 16.911 17.725" xmlns:xlink="http://www.w3.org/1999/xlink" enable-background="new 0 0 16.911 17.725">
<path d="m16.414,0h-7.064c-.276,0-.498,.223-.498,.498v3.19h-5.34c-.533,0-.971,.336-.971,.745l-1.227,8.32h-.319c-.55,0-.995,.448-.995,.997v2.978c0,.549 .445,.997 .995,.997h13.679c.55,0 .995-.447 .995-.997v-2.978c0-.549-.445-.997-.995-.997h-.319l-1.226-8.32c0-.035-.008-.069-.016-.104h3.301c.275,0 .497-.224 .497-.498v-3.333c0-.275-.221-.498-.497-.498zm-11.515,5.063c-0-.158 .133-.286 .297-.286h5.631c.165,0 .299,.128 .299,.286v1.025c0,.158-.134,.289-.299,.289h-5.631c-.164,0-.297-.13-.297-.289v-1.025zm4.887,4.694h-1.196c-.269,0-.486-.211-.486-.469v-1.15c0-.258 .218-.469 .486-.469h1.196c.269,0 .486,.211 .486,.469v1.15c.001,.258-.217,.469-.486,.469zm.487,1.002v1.151c0,.258-.218,.469-.486,.469h-1.196c-.269,0-.486-.211-.486-.469v-1.151c0-.258 .218-.469 .486-.469h1.196c.268-.001 .486,.21 .486,.469zm-3.195-.988h-1.195c-.269,0-.488-.211-.488-.469v-1.15c0-.258 .22-.469 .488-.469h1.195c.27,0 .487,.211 .487,.469v1.15c.001,.258-.217,.469-.487,.469zm.488,1.002v1.151c0,.258-.218,.469-.487,.469h-1.195c-.269,0-.488-.211-.488-.469v-1.151c0-.26 .22-.469 .488-.469h1.195c.269-.001 .487,.208 .487,.469zm6.911,2.756c.275,0 .499,.223 .499,.499v.713c0,.276-.224,.498-.499,.498h-13.285c-.275,0-.498-.221-.498-.498v-.713c0-.275 .223-.499 .498-.499h13.285zm1.543-10.478c0,.276-.223,.498-.498,.498h-5.279c-.277,0-.498-.221-.498-.498v-1.771c0-.276 .221-.498 .498-.498h5.279c.275,0 .498,.221 .498,.498v1.771z"/>
</svg>
