<?xml version="1.0" encoding="utf-8"?>
<!-- Generator: Adobe Illustrator 16.0.0, SVG Export Plug-In . SVG Version: 6.00 Build 0)  -->
<!DOCTYPE svg PUBLIC "-//W3C//DTD SVG 1.1//EN" "http://www.w3.org/Graphics/SVG/1.1/DTD/svg11.dtd">
<svg version="1.1" id="Layer_1" xmlns="http://www.w3.org/2000/svg" xmlns:xlink="http://www.w3.org/1999/xlink" x="0px" y="0px"
	 width="96px" height="96px" viewBox="0 0 96 96" enable-background="new 0 0 96 96" xml:space="preserve">
<g>
	<path d="M90.665,66.585L33.122,8.896l1.77-1.771L28.028,0.26L0.333,27.955l6.865,6.865l1.771-1.771l57.543,57.688
		c6.67,6.67,17.483,6.67,24.152,0C97.335,84.067,97.335,73.255,90.665,66.585z M85.642,85.568c-4.073,4.073-10.699,4.073-14.771,0
		L16.634,31.332l14.771-14.771l54.236,54.236C89.714,74.87,89.714,81.496,85.642,85.568z"/>
	<path d="M54.196,45.606c0,0-4.398-4.137-7.974-1.243s-9.527,0.778-9.527,0.778l37.301,37.301c2.349,2.348,6.17,2.348,8.519,0
		c2.347-2.348,2.347-6.17-0.001-8.518L54.196,45.606z"/>
</g>
</svg>
