<?xml version="1.0" encoding="utf-8"?>
<!-- Generator: Adobe Illustrator 16.0.4, SVG Export Plug-In . SVG Version: 6.00 Build 0)  -->
<!DOCTYPE svg PUBLIC "-//W3C//DTD SVG 1.1//EN" "http://www.w3.org/Graphics/SVG/1.1/DTD/svg11.dtd">
<svg version="1.1" id="Layer_1" xmlns="http://www.w3.org/2000/svg" xmlns:xlink="http://www.w3.org/1999/xlink" x="0px" y="0px"
	 width="50px" height="50px" viewBox="0 0 50 50" enable-background="new 0 0 50 50" xml:space="preserve">
<path d="M30.715,18.717c-1.574-1.653-3.689-1.887-5.356-1.905c-0.532,0.015-2.859,0.187-3.445,1.261
	c-0.132,0.242-0.043,0.546,0.2,0.678c0.241,0.132,0.546,0.043,0.678-0.2c0.199-0.365,1.549-0.766,2.555-0.739
	c2.184,0.024,3.616,0.517,4.644,1.595c0.991,1.041,1.379,2.246,1.092,3.393c-0.335,1.336-1.522,2.431-3.258,3.003
	c-0.271,0.09-0.676,0.195-1.152,0.321c-0.795,0.209-1.712,0.451-2.6,0.748v-0.71c2.937-0.254,5.25-2.723,5.25-5.725
	c0-0.276-0.225-0.5-0.5-0.5h-10.5c-0.276,0-0.5,0.224-0.5,0.5c0,3.001,2.313,5.47,5.25,5.725v1.079
	c-1.634,0.663-2.941,1.565-2.814,2.877c0.041,0.424,0.291,1.175,1.5,1.452c0.3,0.068,0.646,0.101,1.019,0.101
	c0.095,0,0.197-0.011,0.295-0.015v0.531h-2.312c-0.276,0-0.5,0.225-0.5,0.5c0,0.276,0.224,0.5,0.5,0.5h5.625
	c0.276,0,0.5-0.224,0.5-0.5c0-0.275-0.224-0.5-0.5-0.5h-2.312v-0.633c1.514-0.25,3.07-0.891,3.583-1.73
	c0.144-0.236,0.068-0.543-0.167-0.688c-0.238-0.145-0.543-0.068-0.688,0.166c-0.295,0.485-1.496,1.002-2.729,1.239v-2.599
	c1.044-0.373,2.144-0.664,2.854-0.852c0.502-0.132,0.925-0.244,1.211-0.338c2.068-0.682,3.495-2.034,3.915-3.709
	C32.426,21.551,31.951,20.015,30.715,18.717z M19.583,22.978h3.654c0.276,0,0.5-0.224,0.5-0.5s-0.224-0.5-0.5-0.5h-4.145
	c-0.116-0.334-0.207-0.679-0.245-1.042h9.447c-0.25,2.385-2.273,4.25-4.724,4.25C21.892,25.187,20.428,24.299,19.583,22.978z
	 M23.072,30.657c-0.396,0.02-0.774,0.01-1.091-0.063c-0.687-0.156-0.717-0.471-0.728-0.574c-0.062-0.639,0.752-1.207,1.819-1.682
	V30.657z"/>
</svg>
