<?xml version="1.0" encoding="utf-8"?>
<!-- Generator: Adobe Illustrator 16.0.0, SVG Export Plug-In . SVG Version: 6.00 Build 0)  -->
<!DOCTYPE svg PUBLIC "-//W3C//DTD SVG 1.1//EN" "http://www.w3.org/Graphics/SVG/1.1/DTD/svg11.dtd">
<svg version="1.1" id="Layer_1" xmlns="http://www.w3.org/2000/svg" xmlns:xlink="http://www.w3.org/1999/xlink" x="0px" y="0px"
	 width="96px" height="96px" viewBox="0 0 96 96" enable-background="new 0 0 96 96" xml:space="preserve">
<g>
	<circle fill-rule="evenodd" clip-rule="evenodd" cx="65.098" cy="17.463" r="2.17"/>
	<circle fill-rule="evenodd" clip-rule="evenodd" cx="46.674" cy="49.216" r="2.17"/>
	<circle fill-rule="evenodd" clip-rule="evenodd" cx="23.939" cy="34.412" r="2.17"/>
	<circle fill-rule="evenodd" clip-rule="evenodd" cx="26.802" cy="77.989" r="2.169"/>
	<circle fill-rule="evenodd" clip-rule="evenodd" cx="67.825" cy="62.782" r="2.169"/>
	<path fill-rule="evenodd" clip-rule="evenodd" d="M58.089,56.404c3.503-0.698,8.298-0.308,12.485,0.777
		c-9.545-5.944-19.695-2.42-29.209,0.609c0.382-4.74-0.185-13.376-0.185-13.376s1.452-0.537,3.301-1.115
		c1.106-0.345,2.493-1.063,2.493-1.063l-0.026-2.896c-8.653,3.568-19.271,5.615-28.74,3.841c7.201,3.587,13.239,2.688,19.442,1.862
		c0.12,1.222,0.625,8.44-0.432,17.975c-0.838,7.211-2.613,14.218-6.591,20.448c-2.831,4.434-6.368,7.919-12.11,8.328
		c0.699,0.458,1.392,0.827,2.128,1.055c3.409,1.055,6.372-0.06,9.12-2.004c2.579-1.826,4.104-3.987,5.772-6.919
		c4.8-8.432,5.866-22.722,5.866-22.722s7.163-2.607,10.09-3.491c1.733-0.523,3.419-0.939,3.419-0.939s3.571,9.419,10.932,11.501
		C62.49,65.612,59.348,60.793,58.089,56.404z"/>
	<path fill-rule="evenodd" clip-rule="evenodd" d="M56.184,49.574c-0.5-5.661-0.492-10.769-0.492-10.769s0.781-0.571,1.599-0.979
		c6.796-3.39,12.494-8.104,16.821-14.392c2.027-2.946,3.383-6.179,3.924-9.723C78.8,8.7,76.663,4.047,71.572,2.746
		c1.532,2.69,4.28,7,0.84,15.177C68.876,25.12,59.62,33.366,55.856,34.752c0.404-5.141,1.399-10.462,3.424-15.148
		c4.22-9.77,7.714-11.102,9.58-12.317c-1.18-1.418-2.972-2.198-5.175-0.873c-2.587,1.557-14.73,11.461-11.318,43.367
		C53.65,49.638,55.193,49.684,56.184,49.574z"/>
	<path fill-rule="evenodd" clip-rule="evenodd" d="M19.45,86.706c-0.7-3.169,0.226-6.371,1.772-9.099
		c3.607-6.456,10.586-10.833,10.586-10.833l0.473-4.667c-7.452,4.037-13.705,9.271-16.717,17.053
		c-0.556,1.435-0.777,3.141-0.448,4.748C15.684,85.874,17.413,86.965,19.45,86.706z"/>
	<path fill-rule="evenodd" clip-rule="evenodd" d="M83.213,62.891c-0.582-3.467-4.381-7.456-7.554-8.168
		c3.645,3.547,5.263,7.568,2.928,12.38c-2.501,5.148-6.807,6.919-12.338,6.265c4.39,2.016,8.806,2.619,12.921-0.418
		C82.492,70.497,83.905,67.003,83.213,62.891z"/>
	<path fill-rule="evenodd" clip-rule="evenodd" d="M22.766,25.773c-2.564-1.879-4.95-2.19-6.919-1.019
		c-2.121,1.263-3.628,4.601-3.138,7.24c0.565,3.035,2.732,4.588,5.604,5.85C14.818,31.752,16.77,26.548,22.766,25.773z"/>
	<path fill-rule="evenodd" clip-rule="evenodd" d="M36.239,37.745c1.008-0.333,1.798-0.595,2.86-0.946
		c-2.193-6.17-5.427-11.745-12.671-14.609C31.158,26.594,34.445,31.905,36.239,37.745z"/>
</g>
</svg>
