<?xml version="1.0" encoding="utf-8"?>
<!-- Generator: Adobe Illustrator 16.0.4, SVG Export Plug-In . SVG Version: 6.00 Build 0)  -->
<!DOCTYPE svg PUBLIC "-//W3C//DTD SVG 1.1//EN" "http://www.w3.org/Graphics/SVG/1.1/DTD/svg11.dtd">
<svg version="1.1" id="Layer_1" xmlns="http://www.w3.org/2000/svg" xmlns:xlink="http://www.w3.org/1999/xlink" x="0px" y="0px"
	 width="50px" height="50px" viewBox="0 0 50 50" enable-background="new 0 0 50 50" xml:space="preserve">
<path d="M28.022,26.502c-0.276,0-0.5-0.225-0.5-0.5c0-1.521-1.237-2.76-2.761-2.76c-0.276,0-0.5-0.225-0.5-0.5
	c0-0.276,0.224-0.5,0.5-0.5c2.074,0,3.761,1.688,3.761,3.76C28.522,26.277,28.299,26.502,28.022,26.502z M33.807,33.703
	c0,1.438-1.171,2.609-2.609,2.609c-1.439,0-2.609-1.172-2.609-2.609c0-0.551,0.173-1.061,0.466-1.482l-1.61-1.853
	c-0.783,0.481-1.695,0.774-2.681,0.774c-1.08,0-2.081-0.338-2.909-0.908l-1.994,1.82c0.114,0.244,0.182,0.516,0.182,0.803
	c0,1.062-0.863,1.926-1.924,1.926s-1.924-0.863-1.924-1.926c0-1.061,0.863-1.924,1.924-1.924c0.41,0,0.789,0.133,1.102,0.353
	l1.866-1.704c-0.902-0.928-1.463-2.188-1.463-3.58c0-2.835,2.307-5.143,5.142-5.143c0.184,0,0.357,0.035,0.536,0.056l0.499-2.246
	c-0.902-0.411-1.534-1.315-1.534-2.372c0-1.438,1.17-2.609,2.608-2.609c1.439,0,2.61,1.172,2.61,2.609
	c0,1.439-1.171,2.609-2.61,2.609c-0.033,0-0.065-0.008-0.101-0.01l-0.493,2.217c2.092,0.652,3.625,2.584,3.625,4.889
	c0,1.489-0.646,2.82-1.662,3.762l1.529,1.758c0.411-0.27,0.898-0.429,1.426-0.429C32.635,31.093,33.807,32.264,33.807,33.703z
	 M26.871,17.907c0.889,0,1.61-0.724,1.61-1.61s-0.722-1.609-1.61-1.609c-0.887,0-1.608,0.723-1.608,1.609
	S25.983,17.907,26.871,17.907z M19.041,32.857c0-0.51-0.415-0.924-0.924-0.924c-0.509,0-0.924,0.414-0.924,0.924
	c0,0.511,0.415,0.926,0.924,0.926C18.625,33.783,19.041,33.368,19.041,32.857z M24.762,30.145c2.283,0,4.142-1.858,4.142-4.143
	s-1.858-4.143-4.142-4.143c-2.284,0-4.142,1.858-4.142,4.143S22.479,30.145,24.762,30.145z M32.807,33.703
	c0-0.889-0.723-1.61-1.609-1.61c-0.422,0-0.802,0.166-1.089,0.433c-0.021,0.025-0.034,0.056-0.06,0.078
	c-0.012,0.011-0.026,0.014-0.039,0.022c-0.26,0.286-0.422,0.661-0.422,1.077c0,0.888,0.722,1.609,1.609,1.609
	C32.084,35.312,32.807,34.591,32.807,33.703z"/>
</svg>
