<?xml version="1.0" encoding="utf-8"?>
<!-- Generator: Adobe Illustrator 16.0.4, SVG Export Plug-In . SVG Version: 6.00 Build 0)  -->
<!DOCTYPE svg PUBLIC "-//W3C//DTD SVG 1.1//EN" "http://www.w3.org/Graphics/SVG/1.1/DTD/svg11.dtd">
<svg version="1.1" id="Layer_1" xmlns="http://www.w3.org/2000/svg" xmlns:xlink="http://www.w3.org/1999/xlink" x="0px" y="0px"
	 width="226.77px" height="155.91px" viewBox="0 0 226.77 155.91" enable-background="new 0 0 226.77 155.91" xml:space="preserve">
<g>
	<path d="M113.385,124.723c25.797,0,46.781-20.984,46.781-46.781c0-25.797-20.984-46.754-46.781-46.754S66.604,52.172,66.604,77.941
		S87.588,124.723,113.385,124.723z M113.385,39.108c19.884,0,36.303,15.017,38.558,34.268c-0.027,0.055,0.275,3.685,0.275,4.565
		c0,0.055,0,0.137,0,0.192c-6.243,2.942-21.066,8.938-38.833,8.938c-17.794,0-32.646-6.023-38.833-8.938c0-0.055,0-0.11,0-0.165
		c0-0.88,0.33-4.565,0.274-4.648C77.109,54.069,93.528,39.108,113.385,39.108z M113.385,90.317c17.188,0,31.463-5.253,38.668-8.471
		c-1.952,19.608-18.536,34.983-38.668,34.983s-36.716-15.375-38.668-34.983C81.867,85.037,96.168,90.317,113.385,90.317z"/>
	<path d="M141.024,71.093c1.98,0.632,3.96,1.348,5.886,2.09c0.192,0.083,0.385,0.11,0.604,0.11c0.66,0,1.266-0.385,1.513-1.018
		c0.33-0.825-0.082-1.788-0.907-2.118c-1.98-0.77-4.016-1.513-6.078-2.173c-0.853-0.275-1.76,0.193-2.035,1.045
		C139.704,69.911,140.172,70.818,141.024,71.093z"/>
	<path d="M116.52,66.666c2.035,0.083,4.126,0.248,6.216,0.467c0.055,0,0.11,0,0.192,0c0.825,0,1.513-0.605,1.623-1.43
		c0.109-0.88-0.55-1.705-1.431-1.788c-2.145-0.248-4.317-0.413-6.436-0.495c-0.907-0.055-1.649,0.66-1.677,1.568
		C114.952,65.868,115.64,66.61,116.52,66.666z"/>
	<path d="M128.924,68.041c2.035,0.385,4.07,0.825,6.105,1.32c0.137,0.027,0.274,0.055,0.412,0.055c0.715,0,1.375-0.495,1.567-1.237
		c0.221-0.88-0.302-1.76-1.183-1.98c-2.09-0.522-4.207-0.99-6.298-1.375c-0.88-0.165-1.732,0.413-1.897,1.292
		C127.438,67.023,128.043,67.875,128.924,68.041z"/>
	<path d="M103.924,67.133c0.055,0,0.11,0,0.192,0c2.062-0.248,4.153-0.413,6.188-0.495c0.907-0.027,1.595-0.77,1.567-1.677
		c-0.027-0.908-0.771-1.623-1.678-1.568c-2.117,0.083-4.29,0.248-6.436,0.495c-0.88,0.11-1.54,0.908-1.43,1.788
		C102.384,66.528,103.099,67.133,103.924,67.133z"/>
	<path d="M91.438,69.416c0.138,0,0.275-0.027,0.413-0.055c2.035-0.523,4.07-0.963,6.105-1.32c0.88-0.165,1.457-1.018,1.293-1.897
		c-0.165-0.88-0.99-1.485-1.898-1.293c-2.09,0.385-4.208,0.853-6.298,1.375c-0.88,0.22-1.402,1.101-1.183,1.98
		C90.035,68.92,90.695,69.416,91.438,69.416z"/>
	<path d="M79.364,73.293c0.192,0,0.413-0.027,0.605-0.11c1.925-0.77,3.905-1.458,5.885-2.09c0.854-0.275,1.32-1.183,1.046-2.035
		c-0.303-0.88-1.21-1.348-2.063-1.073c-2.062,0.66-4.098,1.403-6.077,2.173c-0.825,0.33-1.238,1.265-0.908,2.118
		C78.1,72.908,78.704,73.293,79.364,73.293z"/>
</g>
</svg>
