<?xml version="1.0" encoding="utf-8"?>
<!-- Generator: Adobe Illustrator 16.0.0, SVG Export Plug-In . SVG Version: 6.00 Build 0)  -->
<!DOCTYPE svg PUBLIC "-//W3C//DTD SVG 1.1//EN" "http://www.w3.org/Graphics/SVG/1.1/DTD/svg11.dtd">
<svg version="1.1" id="Layer_1" xmlns="http://www.w3.org/2000/svg" xmlns:xlink="http://www.w3.org/1999/xlink" x="0px" y="0px"
	 width="96px" height="96px" viewBox="0 0 96 96" enable-background="new 0 0 96 96" xml:space="preserve">
<g>
	<path d="M61.323,38.4V21.756c1.837-0.598,3.166-2.325,3.166-4.362V6.474c0-2.533-2.054-4.587-4.587-4.587H36.098
		c-2.533,0-4.587,2.054-4.587,4.587v10.92c0,2.037,1.329,3.765,3.166,4.362V38.4c-9.763,4.971-16.126,15.152-16.126,26.264
		c0,16.238,13.211,29.449,29.449,29.449s29.449-13.211,29.449-29.449C77.449,53.553,71.086,43.371,61.323,38.4z M23.137,64.664
		c0-10.657,6.706-19.743,16.127-23.281V17.394h-3.166V6.474h23.805v10.92h-3.166v23.989c9.421,3.538,16.127,12.624,16.127,23.281
		H23.137z"/>
	<circle cx="49.25" cy="35.5" r="3.5"/>
	<circle cx="45.75" cy="52.73" r="6"/>
</g>
</svg>
