<?xml version="1.0" encoding="utf-8"?>
<!-- Generator: Adobe Illustrator 16.0.0, SVG Export Plug-In . SVG Version: 6.00 Build 0)  -->
<!DOCTYPE svg PUBLIC "-//W3C//DTD SVG 1.1//EN" "http://www.w3.org/Graphics/SVG/1.1/DTD/svg11.dtd">
<svg version="1.1" id="Layer_2" xmlns="http://www.w3.org/2000/svg" xmlns:xlink="http://www.w3.org/1999/xlink" x="0px" y="0px"
	 width="96px" height="96px" viewBox="0 0 96 96" enable-background="new 0 0 96 96" xml:space="preserve">
<g>
	<path d="M79.022,50.837c0-2.676,0-6.404-4.978-6.404c-3.919,0-5.152,2.732-5.152,6.167v23.715H58.551V50.837
		c0-2.676,0-6.404-4.979-6.404c-3.909,0-5.161,2.732-5.161,6.167v23.715H38.088V37.619h9.94v4.42h0.163
		c1.353-2.292,4.012-5.325,9.602-5.325c4.924,0,7.262,1.726,9.564,5.234c1.307-1.863,3.901-5.234,9.154-5.234
		c6.905,0,12.277,4.056,12.277,11.821v21.697c3.607-6.603,5.659-14.177,5.659-22.232C94.448,22.348,73.653,1.552,48,1.552
		S1.552,22.348,1.552,48S22.347,94.448,48,94.448c15.881,0,29.895-7.976,38.271-20.134h-7.248V50.837z"/>
</g>
</svg>
