<?xml version="1.0" encoding="utf-8"?>
<!-- Generator: Adobe Illustrator 16.0.0, SVG Export Plug-In . SVG Version: 6.00 Build 0)  -->
<!DOCTYPE svg PUBLIC "-//W3C//DTD SVG 1.1//EN" "http://www.w3.org/Graphics/SVG/1.1/DTD/svg11.dtd">
<svg version="1.1" id="Layer_1" xmlns="http://www.w3.org/2000/svg" xmlns:xlink="http://www.w3.org/1999/xlink" x="0px" y="0px"
	 width="96px" height="96px" viewBox="0 0 96 96" enable-background="new 0 0 96 96" xml:space="preserve">
<path d="M80.893,87.084l-16.28-57.331V23.99c2.993-0.985,5.16-3.808,5.16-7.126V8.233c0-4.136-3.364-7.5-7.5-7.5H33.704
	c-4.136,0-7.5,3.364-7.5,7.5v8.631c0,3.318,2.167,6.141,5.16,7.126v5.763L15.06,87.173c-0.505,2.066-0.103,4.132,1.104,5.669
	c1.209,1.541,3.116,2.425,5.231,2.425h53.01c2.239,0,4.244-0.945,5.5-2.593C81.102,91.104,81.455,89.126,80.893,87.084z M41,49
	c-1.933,0-3.5-1.567-3.5-3.5S39.067,42,41,42s3.5,1.567,3.5,3.5S42.933,49,41,49z M52.5,64c-3.313,0-6-2.687-6-6s2.687-6,6-6
	s6,2.687,6,6S55.813,64,52.5,64z M62.591,40.936l0.028,0.101L36.363,30.448V19.364h-2.66c-1.378,0-2.5-1.121-2.5-2.5V8.233
	c0-1.379,1.122-2.5,2.5-2.5h28.569c1.378,0,2.5,1.121,2.5,2.5v8.631c0,1.379-1.122,2.5-2.5,2.5h-2.66v11.084L62.591,40.936z"/>
</svg>
