<?xml version="1.0" encoding="utf-8"?>
<!-- Generator: Adobe Illustrator 16.0.0, SVG Export Plug-In . SVG Version: 6.00 Build 0)  -->
<!DOCTYPE svg PUBLIC "-//W3C//DTD SVG 1.1//EN" "http://www.w3.org/Graphics/SVG/1.1/DTD/svg11.dtd">
<svg version="1.1" id="Layer_1" xmlns="http://www.w3.org/2000/svg" xmlns:xlink="http://www.w3.org/1999/xlink" x="0px" y="0px"
	 width="96px" height="96px" viewBox="0 0 96 96" enable-background="new 0 0 96 96" xml:space="preserve">
<path d="M92.716,71.415c-1.656-1.655-4.091-2.042-6.12-1.177L32.57,16.212c-7.063-7.063-18.555-7.063-25.619,0
	c-7.063,7.064-7.063,18.556,0,25.619c1.955,1.954,5.123,1.955,7.077,0c1.954-1.954,1.955-5.123,0-7.077
	c-3.161-3.162-3.161-8.304,0-11.465s8.304-3.161,11.465,0l54.021,54.019c-0.881,2.035-0.501,4.485,1.161,6.147
	c2.175,2.174,5.7,2.174,7.874,0l4.167-4.167C94.889,77.115,94.89,73.589,92.716,71.415z"/>
</svg>
