<?xml version="1.0" encoding="utf-8"?>
<!-- Generator: Adobe Illustrator 16.0.0, SVG Export Plug-In . SVG Version: 6.00 Build 0)  -->
<!DOCTYPE svg PUBLIC "-//W3C//DTD SVG 1.1//EN" "http://www.w3.org/Graphics/SVG/1.1/DTD/svg11.dtd">
<svg version="1.1" id="Layer_1" xmlns="http://www.w3.org/2000/svg" xmlns:xlink="http://www.w3.org/1999/xlink" x="0px" y="0px"
	 width="96px" height="96px" viewBox="0 0 96 96" enable-background="new 0 0 96 96" xml:space="preserve">
<path d="M94.516,68.777c-0.544-0.741-1.464-1.037-2.301-0.819c-0.029-0.047-0.05-0.095-0.082-0.14
	c-4.628-6.311-13.584-7.755-19.894-3.126l-0.976,0.714L29.482,7.899C24.389,0.889,14.544-0.67,7.534,4.423
	c-7.01,5.093-8.57,14.939-3.477,21.949c1.409,1.939,4.124,2.37,6.063,0.96s2.369-4.124,0.96-6.063
	c-2.279-3.137-1.581-7.544,1.556-9.823c3.138-2.28,7.544-1.582,9.824,1.556l41.78,57.506l-0.98,0.707
	c-6.353,4.571-7.746,13.534-3.175,19.886c0.033,0.045,0.072,0.078,0.107,0.121c-0.465,0.729-0.469,1.696,0.068,2.442
	c0.704,0.978,2.068,1.201,3.046,0.496l4.456-3.207c0.978-0.704,1.201-2.068,0.497-3.045c-0.608-0.846-1.711-1.124-2.629-0.728
	c-0.012-0.015-0.018-0.034-0.027-0.048c-2.383-3.311-1.683-8.018,1.628-10.401l4.509-3.286l4.518-3.273
	c3.289-2.413,7.982-1.623,10.395,1.666c0.01,0.014,0.026,0.025,0.037,0.041c-0.66,0.751-0.736,1.886-0.12,2.726
	c0.712,0.972,2.079,1.182,3.05,0.469l4.427-3.247C95.019,71.115,95.229,69.749,94.516,68.777z"/>
</svg>
