<?xml version="1.0" encoding="utf-8"?>
<!-- Generator: Adobe Illustrator 16.0.0, SVG Export Plug-In . SVG Version: 6.00 Build 0)  -->
<!DOCTYPE svg PUBLIC "-//W3C//DTD SVG 1.1//EN" "http://www.w3.org/Graphics/SVG/1.1/DTD/svg11.dtd">
<svg version="1.1" id="Layer_1" xmlns="http://www.w3.org/2000/svg" xmlns:xlink="http://www.w3.org/1999/xlink" x="0px" y="0px"
	 width="96px" height="96px" viewBox="0 0 96 96" enable-background="new 0 0 96 96" xml:space="preserve">
<g>
	<path d="M89.065,64.266c-1.021,0-1.917-0.683-2.186-1.667l-2.105-7.685L80.12,72.766c-0.261,1-1.165,1.693-2.193,1.693
		c-0.015,0-0.035,0-0.053-0.001c-1.049-0.024-1.944-0.767-2.163-1.794l-7.658-36.048l-6.625,24.835
		c-0.264,0.992-1.162,1.682-2.188,1.682l-16.627-0.024c-1.019,0-1.915-0.683-2.183-1.667l-2.105-7.684l-4.658,17.851
		c-0.261,1-1.161,1.694-2.19,1.694c-0.018,0-0.035,0-0.053-0.001c-1.049-0.024-1.944-0.767-2.163-1.794l-7.661-36.049l-6.622,24.836
		c-0.264,0.992-1.162,1.682-2.188,1.682H2.125v32.862h91.75V64.266H89.065z"/>
	<path d="M2.125,1.162v54.357h8.922l8.612-32.295c0.266-0.994,1.164-1.682,2.188-1.682c0.02,0,0.04,0,0.058,0.001
		c1.049,0.027,1.939,0.769,2.158,1.794l7.638,35.936l4.377-16.783c0.258-0.993,1.154-1.688,2.181-1.694c0.002,0,0.007,0,0.013,0
		c1.019,0,1.914,0.682,2.183,1.667l3.888,14.19L57.5,56.666l8.61-32.287c0.266-0.994,1.167-1.682,2.188-1.682
		c0.021,0,0.04,0,0.061,0.001c1.047,0.027,1.939,0.769,2.158,1.794l7.636,35.937l4.379-16.784c0.259-0.993,1.152-1.688,2.178-1.693
		c0.006,0,0.008,0,0.013,0c1.021,0,1.915,0.682,2.187,1.667l3.887,14.189h3.08V1.162H2.125z"/>
</g>
</svg>
