<?xml version="1.0" encoding="utf-8"?>
<!-- Generator: Adobe Illustrator 16.0.0, SVG Export Plug-In . SVG Version: 6.00 Build 0)  -->
<!DOCTYPE svg PUBLIC "-//W3C//DTD SVG 1.1//EN" "http://www.w3.org/Graphics/SVG/1.1/DTD/svg11.dtd">
<svg version="1.1" id="Layer_1" xmlns="http://www.w3.org/2000/svg" xmlns:xlink="http://www.w3.org/1999/xlink" x="0px" y="0px"
	 width="96px" height="96px" viewBox="0 0 96 96" enable-background="new 0 0 96 96" xml:space="preserve">
<path d="M70.674,77.476c-6.654,0.727-11.565,5.846-18.551,4.508c-4.611-0.884-5.086-4.825-4.904-8.785h1.079V69.94h3.598V7.56
	h-11.91c-0.277-3.582-4.499-6.339-9.854-6.339s-9.578,2.757-9.854,6.339H8.365V69.94h32.221v3.258h1.164
	c-0.031,6.545,1.173,12.122,8.877,14.213c5.539,1.503,10.059-0.318,15.035-2.557c3.409-1.534,6.906-2.441,10.615-1.568
	c2.742,0.645,5.594,6.188,5.724,8.777c0.182,3.611,5.812,3.629,5.629,0C87.162,82.743,79.672,76.49,70.674,77.476z M30.131,5.388
	c3.035,0,5.161,1.194,5.616,2.172H24.513C24.97,6.582,27.095,5.388,30.131,5.388z M14.021,38.749V13.214h32.22v4.285h-8.225v4.799
	h8.225v5.484h-8.225v4.799h8.225v6.168H14.021z"/>
</svg>
