<?xml version="1.0" encoding="utf-8"?>
<!-- Generator: Adobe Illustrator 16.0.4, SVG Export Plug-In . SVG Version: 6.00 Build 0)  -->
<!DOCTYPE svg PUBLIC "-//W3C//DTD SVG 1.1//EN" "http://www.w3.org/Graphics/SVG/1.1/DTD/svg11.dtd">
<svg version="1.1" id="Layer_1" xmlns="http://www.w3.org/2000/svg" xmlns:xlink="http://www.w3.org/1999/xlink" x="0px" y="0px"
	 width="50px" height="50px" viewBox="0 0 50 50" enable-background="new 0 0 50 50" xml:space="preserve">
<path d="M33.141,16.953h-2.804v-2.805c0-0.277-0.224-0.5-0.5-0.5h-4.131c-0.276,0-0.5,0.223-0.5,0.5v2.805h-2.804
	c-0.276,0-0.5,0.223-0.5,0.5v0.279c-1.101,0.225-2.324,0.74-3.359,1.834c-0.965,1.02-1.677,2.305-1.473,4.406
	c0.044,0.457,0.694,0.983,0.236,1.864c0,0-0.982,1.729-0.948,2.019c0,0-0.019,0.526,0.797,0.543c0,0,0.203,0.026,0.145,0.475
	l-0.009,0.654c0,0,0.025,0.195,0.382,0.312c0,0,0.067,0.068-0.034,0.197c0,0-0.188,0.209,0.137,0.659
	c0.118,0.166,0.312,0.373,0.193,0.798c0,0-0.151,0.821,0.17,1.019c0,0,0.366,0.436,1.841,0.254c0.515-0.064,1.467-0.314,2.034,0.397
	c0,0,1.355,2.578,1.459,3.188c0,0,2.314-4.121,5.138-4.756c0,0-0.688-1.552,0.712-3.562c0,0,1.754-2.313,1.807-3.589
	c0,0,0.196-0.979-0.337-2.362h2.349c0.276,0,0.5-0.226,0.5-0.5v-4.131C33.641,17.176,33.417,16.953,33.141,16.953z M27.111,27.541
	c-1.193,0.041-1.252-0.756-1.812-1.373c-0.082,0.006-0.161,0.014-0.245,0.016c-1.398,0.041-1.142-1.447-1.688-1.852
	c-1.31-0.973-3.151-0.127-4.114-1.111c-0.311-0.316-0.576-0.617-0.617-1.029c-0.098-0.993,0.133-1.424,0.625-1.944
	c0.81-0.854,1.754-1.274,2.644-1.488v2.826c0,0.274,0.224,0.5,0.5,0.5h2.804v2.806c0,0.274,0.224,0.5,0.5,0.5h4.131
	c0.058,0,0.108-0.017,0.158-0.033C29.56,26.611,28.437,27.496,27.111,27.541z M32.641,21.084h-2.804c-0.275,0-0.5,0.223-0.5,0.5
	v2.805h-3.131v-2.805c0-0.277-0.224-0.5-0.5-0.5h-2.803v-3.131h2.803c0.276,0,0.5-0.225,0.5-0.5v-2.805h3.131v2.805
	c0,0.275,0.225,0.5,0.5,0.5h2.804V21.084z"/>
</svg>
