<?xml version="1.0" encoding="utf-8"?>
<!-- Generator: Adobe Illustrator 16.0.0, SVG Export Plug-In . SVG Version: 6.00 Build 0)  -->
<!DOCTYPE svg PUBLIC "-//W3C//DTD SVG 1.1//EN" "http://www.w3.org/Graphics/SVG/1.1/DTD/svg11.dtd">
<svg version="1.1" id="Layer_1" xmlns="http://www.w3.org/2000/svg" xmlns:xlink="http://www.w3.org/1999/xlink" x="0px" y="0px"
	 width="96px" height="96px" viewBox="0 0 96 96" enable-background="new 0 0 96 96" xml:space="preserve">
<g>
	<path d="M94.174,37.128c-0.708-2.182-2.723-3.647-5.011-3.647c-0.548,0-1.097,0.088-1.632,0.262
		c-1.342,0.436-2.432,1.367-3.071,2.621c-0.641,1.256-0.753,2.686-0.318,4.026c0.709,2.182,2.724,3.648,5.013,3.648
		c0.547,0,1.096-0.088,1.633-0.263C93.554,42.875,95.073,39.895,94.174,37.128z"/>
	<path d="M73.424,81.868c-1.111,0-2.179,0.349-3.088,1.009c-1.138,0.826-1.886,2.048-2.106,3.44
		c-0.221,1.392,0.114,2.785,0.941,3.923c0.991,1.363,2.591,2.177,4.283,2.177c1.109,0,2.177-0.349,3.085-1.009
		c1.14-0.828,1.889-2.05,2.109-3.441c0.221-1.391-0.114-2.785-0.942-3.925C76.715,82.681,75.114,81.868,73.424,81.868z"/>
	<path d="M25.664,82.875c-0.908-0.659-1.975-1.008-3.085-1.008c-1.69,0-3.291,0.813-4.28,2.173
		c-0.828,1.142-1.164,2.536-0.943,3.926c0.221,1.392,0.969,2.614,2.108,3.441c0.909,0.661,1.976,1.01,3.085,1.01
		c1.691,0,3.292-0.813,4.281-2.175c0.828-1.14,1.163-2.534,0.942-3.926C27.553,84.926,26.804,83.704,25.664,82.875z"/>
	<path d="M8.474,33.743c-0.537-0.174-1.087-0.263-1.633-0.263c-2.289,0-4.303,1.466-5.013,3.648c-0.436,1.34-0.323,2.77,0.317,4.024
		c0.639,1.255,1.729,2.187,3.069,2.622c0.537,0.175,1.086,0.263,1.633,0.263c2.289,0,4.303-1.466,5.012-3.648
		C12.758,37.623,11.239,34.641,8.474,33.743z"/>
	<path d="M48.001,14.129c2.908,0,5.274-2.365,5.274-5.273c0-2.908-2.366-5.274-5.274-5.274c-2.908,0-5.273,2.366-5.273,5.274
		C42.728,11.764,45.093,14.129,48.001,14.129z"/>
	<circle cx="68.563" cy="44.077" r="8.907"/>
	<circle cx="60.709" cy="68.251" r="8.908"/>
	<circle cx="35.291" cy="68.251" r="8.908"/>
	<circle cx="27.436" cy="44.077" r="8.907"/>
	<circle cx="48" cy="29.137" r="8.908"/>
	<circle cx="48" cy="50.243" r="8.907"/>
</g>
</svg>
