<?xml version="1.0" encoding="utf-8"?>
<!-- Generator: Adobe Illustrator 16.0.0, SVG Export Plug-In . SVG Version: 6.00 Build 0)  -->
<!DOCTYPE svg PUBLIC "-//W3C//DTD SVG 1.1//EN" "http://www.w3.org/Graphics/SVG/1.1/DTD/svg11.dtd">
<svg version="1.1" id="Layer_1" xmlns="http://www.w3.org/2000/svg" xmlns:xlink="http://www.w3.org/1999/xlink" x="0px" y="0px"
	 width="96px" height="96px" viewBox="0 0 96 96" enable-background="new 0 0 96 96" xml:space="preserve">
<path d="M85.514,23.598c3.579,0,6.479-2.901,6.479-6.479s-2.901-6.479-6.479-6.479s-6.479,2.9-6.479,6.479
	c0,1.398,0.447,2.69,1.2,3.749c-8.462,6.594-24.719,15.49-30.622-7.462c2.935-0.618,5.138-3.22,5.138-6.339
	c0-3.578-2.901-6.479-6.479-6.479s-6.479,2.901-6.479,6.479c0,3.579,2.9,6.479,6.479,6.479c0.223,0,0.443-0.012,0.66-0.034
	c-0.235,16.637,0.345,31.809-17.286,22.144c0.275-0.719,0.433-1.498,0.433-2.314c0-3.579-2.9-6.479-6.479-6.479
	s-6.479,2.901-6.479,6.479s2.901,6.479,6.479,6.479c1.965,0,3.721-0.877,4.91-2.258c10.791,12.775,5.517,15.357-13.656,15.6
	c0.069-0.379,0.111-0.769,0.111-1.168c0-3.579-2.9-6.479-6.479-6.479s-6.479,2.901-6.479,6.479s2.901,6.479,6.479,6.479
	c3.065,0,5.627-2.131,6.3-4.991c12.842,4.515,16.124,8.439,10.512,17.298c-1.079-0.803-2.41-1.282-3.857-1.282
	c-3.579,0-6.479,2.9-6.479,6.479s2.9,6.479,6.479,6.479s6.479-2.901,6.479-6.479c0-1.513-0.523-2.901-1.392-4.004
	c13.276-9.777,19.568-9.538,20.258,10.612c-2.962,0.597-5.193,3.213-5.193,6.351c0,3.579,2.9,6.479,6.479,6.479
	s6.479-2.901,6.479-6.479c0-2.902-1.909-5.359-4.54-6.183c5.819-10.22,10.832-11.85,21.274-6.625
	c-0.345,0.792-0.539,1.665-0.539,2.584c0,3.579,2.901,6.479,6.479,6.479s6.479-2.9,6.479-6.479s-2.9-6.479-6.479-6.479
	c-1.985,0-3.76,0.895-4.948,2.301c-7.675-7.878-13.519-18.596,1.069-23.329c0.647,2.896,3.228,5.063,6.319,5.063
	c3.579,0,6.479-2.901,6.479-6.479s-2.9-6.479-6.479-6.479c-2.827,0-5.225,1.813-6.11,4.337c-9.478-6.702-1.006-19.236,5.07-26.282
	C81.815,22.73,83.562,23.598,85.514,23.598z M42.677,58.253c-1.436,0-2.601-1.164-2.601-2.6s1.165-2.6,2.601-2.6
	s2.601,1.164,2.601,2.6S44.113,58.253,42.677,58.253z M56.552,46.057c-2.119,0-3.836-1.716-3.836-3.836
	c0-2.119,1.717-3.836,3.836-3.836c2.119,0,3.836,1.717,3.836,3.836C60.388,44.341,58.67,46.057,56.552,46.057z"/>
</svg>
