<?xml version="1.0" encoding="utf-8"?>
<!-- Generator: Adobe Illustrator 16.0.4, SVG Export Plug-In . SVG Version: 6.00 Build 0)  -->
<!DOCTYPE svg PUBLIC "-//W3C//DTD SVG 1.1//EN" "http://www.w3.org/Graphics/SVG/1.1/DTD/svg11.dtd">
<svg version="1.1" id="Layer_1" xmlns="http://www.w3.org/2000/svg" xmlns:xlink="http://www.w3.org/1999/xlink" x="0px" y="0px"
	 width="226.77px" height="155.91px" viewBox="0 0 226.77 155.91" enable-background="new 0 0 226.77 155.91" xml:space="preserve">
<g>
	<path d="M60.197,55.624c10.3,0,18.678-8.378,18.678-18.678s-8.378-18.675-18.678-18.675S41.52,26.649,41.52,36.949
		S49.897,55.624,60.197,55.624z"/>
	<path d="M121.1,96.228c-10.3,0-18.677,8.377-18.677,18.677s8.377,18.678,18.677,18.678c10.299,0,18.678-8.378,18.678-18.678
		S131.398,96.228,121.1,96.228z"/>
	<path d="M43.99,148.61c1.24,0.818,2.638,1.211,4.02,1.211c2.373,0,4.702-1.154,6.104-3.281l85.263-129.114
		c2.225-3.369,1.297-7.903-2.07-10.127c-3.371-2.224-7.905-1.296-10.127,2.07L41.917,138.483
		C39.693,141.853,40.621,146.386,43.99,148.61z"/>
	<path d="M148.707,114.904c0,10.3,8.379,18.678,18.678,18.678c10.301,0,18.678-8.378,18.678-18.678s-8.377-18.677-18.678-18.677
		C157.086,96.228,148.707,104.604,148.707,114.904z"/>
</g>
</svg>
