<?xml version="1.0" encoding="utf-8"?>
<!-- Generator: Adobe Illustrator 16.0.0, SVG Export Plug-In . SVG Version: 6.00 Build 0)  -->
<!DOCTYPE svg PUBLIC "-//W3C//DTD SVG 1.1//EN" "http://www.w3.org/Graphics/SVG/1.1/DTD/svg11.dtd">
<svg version="1.1" id="Layer_1" xmlns="http://www.w3.org/2000/svg" xmlns:xlink="http://www.w3.org/1999/xlink" x="0px" y="0px"
	 width="96px" height="96px" viewBox="0 0 96 96" enable-background="new 0 0 96 96" xml:space="preserve">
<path d="M2.75,1.8v19.165v34.452v6.368v24.657V94.2h90.5v-7.758V64.044v-6.37V20.965V1.8H2.75z M47.931,7.203V7.198
	c0.015,0,0.026,0.001,0.047,0.001V7.198c0.006,0,0.015,0,0.022,0.001c0.008-0.001,0.017-0.001,0.023-0.001v0.001
	c0.017,0,0.031-0.001,0.049-0.001v0.005c11.374,0.302,18.355,6.739,18.242,18c-0.176,16.231-7.014,26.075-18.263,25.903v0.004
	c-0.009,0-0.018-0.001-0.028-0.001c-0.003,0-0.01,0.001-0.016,0.001c0,0-0.007,0-0.008,0c-0.003,0-0.006,0-0.006,0
	c-0.008,0-0.017-0.001-0.017-0.001c-0.012,0-0.021,0.001-0.03,0.001v-0.004c-11.248,0.172-18.084-9.672-18.26-25.903
	C29.572,13.942,36.554,7.505,47.931,7.203z M10.813,38.539L22.424,48l-11.611,9.461V38.539z M52.185,88.787l-4.196-26.209
	l-4.197,26.209c0,0-12.416,0.015-21.604,0.015s-0.004-27.275-0.004-27.275c0.691-1.714,2.116-2.438,3.543-3.023l9.649-4.442
	l4.638-3.908l7.982,7.922l7.968-7.922l4.636,3.908l9.648,4.442c1.429,0.586,3.252,1.56,3.544,3.023c0,0,8.508,27.275,0.024,27.275
	S52.185,88.787,52.185,88.787z M76.069,57.461V38.539L87.681,48L76.069,57.461z"/>
</svg>
