<?xml version="1.0" encoding="utf-8"?>
<!-- Generator: Adobe Illustrator 16.0.0, SVG Export Plug-In . SVG Version: 6.00 Build 0)  -->
<!DOCTYPE svg PUBLIC "-//W3C//DTD SVG 1.1//EN" "http://www.w3.org/Graphics/SVG/1.1/DTD/svg11.dtd">
<svg version="1.1" id="Layer_1" xmlns="http://www.w3.org/2000/svg" xmlns:xlink="http://www.w3.org/1999/xlink" x="0px" y="0px"
	 width="96px" height="96px" viewBox="0 0 96 96" enable-background="new 0 0 96 96" xml:space="preserve">
<g>
	<path d="M43.014,24.272c6.188-0.523,9.496-6.217,8.688-14.963c-0.562-6.071-4.373-9.181-10.645-8.676
		c-6.514,0.524-9.677,3.001-9.063,9.045C32.843,18.088,37.003,24.776,43.014,24.272z"/>
	<path d="M34.936,50.246l-4.422-24.476c-0.368-2.052-2.153-3.545-4.237-3.545h-7.368c-2.378,0-4.307,1.928-4.307,4.307
		c0,2.378,1.929,4.305,4.307,4.305h3.768l5.104,28.376c0.208,1.153,0.858,2.115,1.744,2.747c-1.137,2.812-1.769,5.881-1.769,9.097
		c0,13.432,10.928,24.362,24.361,24.362c9.869,0,17.113-5.435,21.687-12.872c0.676,0.289,1.406,0.446,2.144,0.446
		c0.982,0,1.975-0.264,2.87-0.819c2.561-1.589,3.348-4.95,1.761-7.511l-4.342-6.998c-0.444-3.183-1.508-6.17-3.063-8.838
		c1.568-0.729,2.658-2.201,2.658-4.043c0-2.534-2.055-4.588-4.588-4.588l-12.986-0.018l-3.064-17.234
		c-0.687-5.187-5.447-8.831-10.635-8.148c-5.188,0.687-8.837,5.448-8.15,10.635l1.94,14.652 M52.117,88.323
		c-9.521,0-17.266-7.746-17.266-17.267c0-4.559,1.779-8.708,4.677-11.798h25.178c2.898,3.09,4.677,7.239,4.677,11.798
		C69.383,80.577,61.639,88.323,52.117,88.323z"/>
</g>
</svg>
