<?xml version="1.0" encoding="utf-8"?>
<!-- Generator: Adobe Illustrator 16.0.0, SVG Export Plug-In . SVG Version: 6.00 Build 0)  -->
<!DOCTYPE svg PUBLIC "-//W3C//DTD SVG 1.1//EN" "http://www.w3.org/Graphics/SVG/1.1/DTD/svg11.dtd">
<svg version="1.1" id="Layer_1" xmlns="http://www.w3.org/2000/svg" xmlns:xlink="http://www.w3.org/1999/xlink" x="0px" y="0px"
	 width="96px" height="96px" viewBox="0 0 96 96" enable-background="new 0 0 96 96" xml:space="preserve">
<g>
	<polygon points="83.547,48 83.547,58.732 12.453,58.732 12.453,15.834 1.75,15.834 1.75,80.166 12.453,80.166 12.453,69.436 
		83.547,69.436 83.547,80.166 94.25,80.166 94.25,48 	"/>
	<path d="M19.666,53.865h7.981c2.498,0,4.523-2.024,4.523-4.523c0-2.497-2.026-4.524-4.523-4.524h-7.981
		c-2.498,0-4.523,2.027-4.523,4.524C15.143,51.841,17.168,53.865,19.666,53.865z"/>
	<circle cx="28.171" cy="35.088" r="7.31"/>
	<path d="M40.355,53.865h34.688c2.691,0,4.874-2.181,4.874-4.873s-1.874-4.388-4.874-4.873l-34.688-7.311
		c-2.777-0.324-4.874,9.491-4.874,12.184S37.664,53.865,40.355,53.865z"/>
</g>
</svg>
