<?xml version="1.0" encoding="utf-8"?>
<!-- Generator: Adobe Illustrator 16.0.4, SVG Export Plug-In . SVG Version: 6.00 Build 0)  -->
<!DOCTYPE svg PUBLIC "-//W3C//DTD SVG 1.1//EN" "http://www.w3.org/Graphics/SVG/1.1/DTD/svg11.dtd">
<svg version="1.1" id="Capa_1" xmlns="http://www.w3.org/2000/svg" xmlns:xlink="http://www.w3.org/1999/xlink" x="0px" y="0px"
	 width="226.77px" height="155.91px" viewBox="0 0 226.77 155.91" enable-background="new 0 0 226.77 155.91" xml:space="preserve">
<path d="M159.67,114.496c0-17.966-7.256-26.797-10.148-26.797c-1.625-2.74-2.791-4.567-4.354-7.309c2.322,0,7.224,2.459,9.687,4.924
	c4.815,4.821,9.688,14.565,9.688,29.182H159.67z M64.97,45.487l-5.179,3.235c0,0-4.872,2.58-4.872,9.745
	c0,4.219,3.657,6.636,7.8,8.022c3.725-4.446,5.472-8.87,5.155-13.184C67.645,50.196,66.373,47.538,64.97,45.487z M67.937,67.743
	c3.559-4.875,5.174-9.849,4.792-14.851c-0.309-4.029-1.875-7.401-3.62-9.995l10.17-6.356c0,0-1.003-4.585-2.436-14.617
	c-1.432-10.032,7.308-4.872,7.308-4.872s3.584,1.147,12.181,9.744c7.309,7.309,7.309,17.053,7.309,17.053v26.797
	c0,0,12.468,0,26.797,0c10.658,0,11.048,7.308,11.048,7.308h-1.304H74.407v-9.598C74.407,68.357,71.501,68.328,67.937,67.743z
	 M79.279,47.504c0,2.017,1.637,3.654,3.654,3.654s3.654-1.637,3.654-3.654s-1.637-3.654-3.654-3.654S79.279,45.487,79.279,47.504z
	 M84.151,146.166c6.57,0,8.705-4.422,9.401-7.309H74.75C75.447,141.744,77.582,146.166,84.151,146.166z M135.31,146.166
	c6.57,0,8.704-4.422,9.401-7.309h-18.803C126.605,141.744,128.739,146.166,135.31,146.166z M74.407,80.391l-4.872,7.309h3.569h1.303
	h68.211h1.304h1.133l-4.873-7.309H74.407z M142.618,90.136H74.407l-4.872,7.308h3.569h1.303h68.211h1.304h1.133h2.436l-2.436-3.654
	L142.618,90.136z M142.618,99.88H74.407l-4.872,7.309h4.872h1.133h1.303H91.46h1.303h33.935h1.304h14.616h1.304h1.133h2.436
	l-2.436-3.654L142.618,99.88z M142.618,109.625h-14.616l-2.437,3.653l-2.437,3.654h2.437h1.133h1.304h14.616h1.304h1.133h2.436
	l-2.436-3.654L142.618,109.625z M142.618,119.369h-14.616l-2.437,3.654l-2.437,3.653h2.437h1.133h1.304h14.616h1.304h1.133h2.436
	l-2.436-3.653L142.618,119.369z M142.618,129.113h-14.616l-2.437,3.654l-2.437,3.654h2.437h19.489h2.436l-2.436-3.654
	L142.618,129.113z M91.46,109.625H76.843l-2.436,3.653l-2.436,3.654h2.436h1.133h1.303H91.46h1.303h1.133h2.436l-2.436-3.654
	L91.46,109.625z M91.46,119.369H76.843l-2.436,3.654l-2.436,3.653h2.436h1.133h1.303H91.46h1.303h1.133h2.436l-2.436-3.653
	L91.46,119.369z M91.46,129.113H76.843l-2.436,3.654l-2.436,3.654h2.436h19.489h2.436l-2.436-3.654L91.46,129.113z M152.621,125.592
	l4.357,2.18l4.873-9.744l-4.358-2.179L152.621,125.592z M162.175,119.97l2.438,9.743l4.727-1.182l-2.438-9.744L162.175,119.97z
	 M168.44,112.548l-2.923,3.897l9.744,7.309l2.924-3.898L168.44,112.548z"/>
</svg>
