<?xml version="1.0" encoding="utf-8"?>
<!-- Generator: Adobe Illustrator 16.0.4, SVG Export Plug-In . SVG Version: 6.00 Build 0)  -->
<!DOCTYPE svg PUBLIC "-//W3C//DTD SVG 1.1//EN" "http://www.w3.org/Graphics/SVG/1.1/DTD/svg11.dtd">
<svg version="1.1" id="Layer_1" xmlns="http://www.w3.org/2000/svg" xmlns:xlink="http://www.w3.org/1999/xlink" x="0px" y="0px"
	 width="226.77px" height="155.91px" viewBox="0 0 226.77 155.91" enable-background="new 0 0 226.77 155.91" xml:space="preserve">
<g>
	<path d="M59.791,119.369h107.188c4.037,0,7.309-3.271,7.309-7.309s-3.271-7.309-7.309-7.309H59.791
		c-4.037,0-7.308,3.271-7.308,7.309S55.754,119.369,59.791,119.369z"/>
	<path d="M59.791,85.264h107.188c4.037,0,7.309-3.271,7.309-7.309c0-4.036-3.271-7.308-7.309-7.308H59.791
		c-4.037,0-7.308,3.271-7.308,7.308C52.482,81.992,55.754,85.264,59.791,85.264z"/>
	<path d="M59.791,51.158h107.188c4.037,0,7.309-3.272,7.309-7.309s-3.271-7.308-7.309-7.308H59.791
		c-4.037,0-7.308,3.271-7.308,7.308S55.754,51.158,59.791,51.158z"/>
</g>
</svg>
