<?xml version="1.0" encoding="utf-8"?>
<!-- Generator: Adobe Illustrator 16.0.4, SVG Export Plug-In . SVG Version: 6.00 Build 0)  -->
<!DOCTYPE svg PUBLIC "-//W3C//DTD SVG 1.1//EN" "http://www.w3.org/Graphics/SVG/1.1/DTD/svg11.dtd">
<svg version="1.1" id="Layer_1" xmlns="http://www.w3.org/2000/svg" xmlns:xlink="http://www.w3.org/1999/xlink" x="0px" y="0px"
	 width="50px" height="50px" viewBox="0 0 50 50" enable-background="new 0 0 50 50" xml:space="preserve">
<path d="M34.161,25.259c0.046-0.172,0.025-0.359-0.086-0.516l-3.166-4.426c-0.122-0.169-0.321-0.269-0.53-0.258
	c-0.209,0.009-0.397,0.123-0.505,0.303L28.87,22.06c-0.173,0.294-0.076,0.673,0.218,0.846c0.296,0.174,0.672,0.076,0.847-0.217
	l0.521-0.882l2.136,2.987h-6.224c-0.197,0-0.382,0.093-0.499,0.252c-0.116,0.159-0.15,0.363-0.09,0.551l0.047,0.149H24.18
	l0.047-0.149c0.06-0.188,0.026-0.392-0.09-0.551c-0.117-0.159-0.302-0.252-0.499-0.252h-6.071l2.136-2.987l0.521,0.882
	c0.175,0.293,0.553,0.391,0.847,0.217c0.293-0.173,0.391-0.552,0.218-0.846l-1.004-1.698c-0.107-0.18-0.296-0.294-0.505-0.303
	c-0.204-0.009-0.408,0.088-0.53,0.258l-3.166,4.426c-0.058,0.08-0.087,0.17-0.101,0.262c-0.015,0.016-0.036,0.024-0.049,0.042
	c-0.117,0.159-0.15,0.363-0.091,0.551l1.235,3.912c0.081,0.257,0.319,0.432,0.589,0.432h4.735c0.27,0,0.508-0.175,0.589-0.432
	l0.798-2.527h2.426l0.798,2.527c0.081,0.257,0.319,0.432,0.59,0.432h4.734c0.271,0,0.508-0.175,0.589-0.432l1.235-3.912
	C34.198,25.485,34.19,25.37,34.161,25.259z M21.951,28.706H18.12l-0.845-2.676h5.521L21.951,28.706z M31.886,28.706h-3.83
	L27.21,26.03h5.521L31.886,28.706z"/>
</svg>
