<?xml version="1.0" encoding="utf-8"?>
<!-- Generator: Adobe Illustrator 16.0.4, SVG Export Plug-In . SVG Version: 6.00 Build 0)  -->
<!DOCTYPE svg PUBLIC "-//W3C//DTD SVG 1.1//EN" "http://www.w3.org/Graphics/SVG/1.1/DTD/svg11.dtd">
<svg version="1.1" id="Layer_1" xmlns="http://www.w3.org/2000/svg" xmlns:xlink="http://www.w3.org/1999/xlink" x="0px" y="0px"
	 width="226.77px" height="155.91px" viewBox="0 0 226.77 155.91" enable-background="new 0 0 226.77 155.91" xml:space="preserve">
<g>
	<path d="M158.502,26.058L142.523,10.08c-1.073-1.073-2.53-1.678-4.043-1.678H72.31c-0.083,0-0.137,0.027-0.22,0.027
		c-0.22,0-0.413,0.027-0.605,0.055c-0.165,0.027-0.33,0.055-0.495,0.083c-0.193,0.055-0.358,0.11-0.55,0.165
		c-0.165,0.055-0.33,0.11-0.495,0.192s-0.33,0.165-0.495,0.275c-0.165,0.083-0.33,0.193-0.467,0.303s-0.275,0.22-0.413,0.33
		c-0.165,0.137-0.302,0.275-0.44,0.413c-0.055,0.055-0.11,0.11-0.165,0.165c-0.055,0.082-0.11,0.165-0.165,0.22
		c-0.138,0.165-0.248,0.33-0.357,0.495c-0.083,0.165-0.165,0.303-0.248,0.468s-0.165,0.357-0.22,0.522
		c-0.055,0.165-0.11,0.357-0.165,0.522c-0.055,0.165-0.083,0.357-0.11,0.522c-0.027,0.192-0.055,0.413-0.055,0.605
		c0,0.083-0.027,0.192-0.027,0.275v104.949c0,1.348,0.468,2.641,1.32,3.658l19.114,22.826c1.073,1.293,2.695,2.035,4.373,2.035
		h63.035c3.163,0,5.693-2.558,5.693-5.693V30.019C160.18,28.588,159.574,27.131,158.502,26.058z M78.305,117.338l-0.275-0.33v-90.62
		l6.848,5.775v84.625H83.75c-1.265,0-2.283,1.018-2.283,2.282c0,1.266,1.018,2.283,2.283,2.283h1.128v3.822l-5.996-7.178
		C78.718,117.75,78.525,117.531,78.305,117.338z M96.292,121.023c0.33,0.192,0.715,0.357,1.128,0.357h6.848
		c1.265,0,2.283-1.018,2.283-2.283c0-1.265-1.018-2.282-2.283-2.282h-6.848c-0.413,0-0.798,0.138-1.128,0.358V35.822h52.475v99.448
		l-2.613-3.74c-0.715-1.045-2.146-1.293-3.19-0.551c-1.045,0.716-1.292,2.146-0.55,3.191l1.458,2.062h-47.58V121.023z
		 M140.708,24.38H93.376l-5.418-4.565l47.772-0.027c0,0,1.677,1.348,2.53,2.146L140.708,24.38z"/>
	<path d="M136.226,64.314c1.265,0,2.282-1.018,2.282-2.283v-6.848c0-1.265-1.018-2.283-2.282-2.283
		c-1.266,0-2.283,1.018-2.283,2.283v6.848C133.942,63.296,134.96,64.314,136.226,64.314z"/>
	<path d="M136.226,91.706c1.265,0,2.282-1.018,2.282-2.282v-6.849c0-1.265-1.018-2.282-2.282-2.282
		c-1.266,0-2.283,1.018-2.283,2.282v6.849C133.942,90.688,134.96,91.706,136.226,91.706z"/>
	<path d="M136.226,50.618c1.265,0,2.282-1.018,2.282-2.283v-6.848c0-1.265-1.018-2.283-2.282-2.283
		c-1.266,0-2.283,1.018-2.283,2.283v6.848C133.942,49.6,134.96,50.618,136.226,50.618z"/>
	<path d="M136.226,78.01c1.265,0,2.282-1.018,2.282-2.283v-6.848c0-1.265-1.018-2.283-2.282-2.283c-1.266,0-2.283,1.018-2.283,2.283
		v6.848C133.942,76.992,134.96,78.01,136.226,78.01z"/>
	<path d="M138.508,116.788v-6.849c0-1.265-1.018-2.282-2.282-2.282c-1.266,0-2.283,1.018-2.283,2.282v6.849
		c0,1.265,1.018,2.282,2.283,2.282C137.49,119.07,138.508,118.053,138.508,116.788z"/>
	<path d="M131.66,116.788h-6.849c-1.265,0-2.282,1.018-2.282,2.282c0,1.266,1.018,2.283,2.282,2.283h6.849
		c1.265,0,2.282-1.018,2.282-2.283C133.942,117.806,132.925,116.788,131.66,116.788z"/>
	<path d="M117.964,116.788h-6.849c-1.265,0-2.283,1.018-2.283,2.282c0,1.266,1.018,2.283,2.283,2.283h6.849
		c1.265,0,2.282-1.018,2.282-2.283C120.246,117.806,119.229,116.788,117.964,116.788z"/>
	<path d="M136.226,105.402c1.265,0,2.282-1.018,2.282-2.283v-6.848c0-1.266-1.018-2.283-2.282-2.283
		c-1.266,0-2.283,1.018-2.283,2.283v6.848C133.942,104.357,134.96,105.402,136.226,105.402z"/>
	<path d="M142.771,126.689l-3.383-4.813c-0.715-1.045-2.145-1.292-3.19-0.55c-1.045,0.715-1.292,2.145-0.55,3.189l3.383,4.813
		c0.44,0.632,1.155,0.962,1.87,0.962c0.44,0,0.907-0.137,1.293-0.412C143.266,129.164,143.514,127.734,142.771,126.689z"/>
</g>
</svg>
