<?xml version="1.0" encoding="utf-8"?>
<!-- Generator: Adobe Illustrator 16.0.4, SVG Export Plug-In . SVG Version: 6.00 Build 0)  -->
<!DOCTYPE svg PUBLIC "-//W3C//DTD SVG 1.1//EN" "http://www.w3.org/Graphics/SVG/1.1/DTD/svg11.dtd">
<svg version="1.1" id="Layer_1" xmlns="http://www.w3.org/2000/svg" xmlns:xlink="http://www.w3.org/1999/xlink" x="0px" y="0px"
	 width="226.77px" height="155.91px" viewBox="0 0 226.77 155.91" enable-background="new 0 0 226.77 155.91" xml:space="preserve">
<g>
	<path d="M160.139,45.2c0-0.165-0.027-0.357-0.055-0.522c0-0.083,0-0.165-0.027-0.248c-0.028-0.11-0.056-0.22-0.11-0.33
		c-0.028-0.138-0.083-0.275-0.138-0.413c-0.027-0.055-0.055-0.11-0.082-0.165c-0.083-0.165-0.166-0.358-0.275-0.495
		c0,0,0-0.028-0.027-0.028c-0.055-0.055-0.11-0.11-0.166-0.192c-0.109-0.137-0.191-0.248-0.329-0.385
		c-0.083-0.083-0.192-0.165-0.275-0.22c-0.11-0.083-0.192-0.165-0.302-0.248c-0.111-0.083-0.221-0.11-0.33-0.192
		c-0.11-0.055-0.221-0.11-0.33-0.165c-0.139-0.055-0.248-0.083-0.386-0.11c-0.11-0.028-0.22-0.083-0.33-0.083
		c-0.165-0.028-0.329-0.028-0.495-0.055c-0.082,0-0.137-0.027-0.22-0.027h-0.056l0,0H91.576c-0.688,0-1.348,0.165-1.925,0.495
		L68.611,53.781c-0.028,0.027-0.055,0.055-0.083,0.055c-0.248,0.165-0.495,0.33-0.715,0.55c0,0-0.027,0-0.027,0.027
		c-0.22,0.22-0.385,0.468-0.55,0.715c-0.055,0.083-0.083,0.137-0.11,0.22c-0.11,0.192-0.192,0.413-0.275,0.633
		c-0.027,0.083-0.055,0.165-0.083,0.248c-0.083,0.302-0.138,0.605-0.138,0.935l0,0v53.519c0,2.146,1.733,3.905,3.905,3.905h68.536
		c0.907,0,1.787-0.33,2.475-0.907l17.162-14.219c0.879-0.743,1.402-1.843,1.402-2.997V45.228
		C160.139,45.228,160.139,45.228,160.139,45.2z M152.328,94.676L152.328,94.676h-4.812c-0.854,0-1.568,0.688-1.568,1.568
		c0,0.853,0.688,1.567,1.568,1.567l0.962,0.056l-5.528,4.564v-43.15l9.352-6.546v41.94H152.328z M80.712,103.807
		c-0.495-0.715-1.458-0.907-2.172-0.412l-3.905,2.641c-0.11,0.082-0.193,0.192-0.275,0.303V61.096l60.807-0.027v45.763H79.035
		l1.265-0.852C81.015,105.484,81.207,104.522,80.712,103.807z M93.088,49.133h50.77l-5.913,4.153l-52.722,0.027L93.088,49.133z"/>
	<path d="M91.521,79.715c0.853,0,1.567-0.688,1.567-1.567v-4.675c0-0.853-0.688-1.567-1.567-1.567s-1.567,0.688-1.567,1.567v4.703
		C89.98,79.027,90.668,79.715,91.521,79.715z"/>
	<path d="M91.521,70.31c0.853,0,1.567-0.688,1.567-1.568v-4.703c0-0.853-0.688-1.568-1.567-1.568s-1.567,0.688-1.567,1.568v4.703
		C89.98,69.622,90.668,70.31,91.521,70.31z"/>
	<path d="M91.521,89.148c0.853,0,1.567-0.688,1.567-1.567v-4.703c0-0.853-0.688-1.567-1.567-1.567s-1.567,0.688-1.567,1.567v4.703
		C89.98,88.434,90.668,89.148,91.521,89.148z"/>
	<path d="M83.325,103.588c0.303,0,0.605-0.084,0.88-0.275l3.905-2.641c0.715-0.495,0.907-1.457,0.413-2.172
		c-0.495-0.716-1.458-0.908-2.173-0.413l-3.905,2.64c-0.715,0.496-0.908,1.458-0.413,2.173
		C82.335,103.367,82.83,103.588,83.325,103.588z"/>
	<path d="M128.73,97.784h4.703c0.854,0,1.568-0.688,1.568-1.567c0-0.881-0.688-1.568-1.568-1.568h-4.703
		c-0.852,0-1.566,0.688-1.566,1.568C127.164,97.097,127.852,97.784,128.73,97.784z"/>
	<path d="M119.325,97.784h4.703c0.853,0,1.567-0.688,1.567-1.567c0-0.881-0.688-1.568-1.567-1.568h-4.703
		c-0.853,0-1.567,0.688-1.567,1.568C117.758,97.097,118.445,97.784,119.325,97.784z"/>
	<path d="M109.919,97.784h4.704c0.852,0,1.566-0.688,1.566-1.567c0-0.881-0.688-1.568-1.566-1.568h-4.704
		c-0.853,0-1.567,0.688-1.567,1.568C108.352,97.097,109.04,97.784,109.919,97.784z"/>
	<path d="M90.778,97.784c0.028,0,0.66,0,0.743,0h4.263c0.853,0,1.568-0.688,1.568-1.567c0-0.881-0.688-1.568-1.568-1.568h-2.695
		v-2.365c0-0.852-0.688-1.566-1.567-1.566s-1.567,0.688-1.567,1.566v2.861c0,0.33,0,0.66,0,1.072
		C89.98,96.959,89.98,97.784,90.778,97.784z"/>
	<path d="M100.486,97.784h4.703c0.853,0,1.568-0.688,1.568-1.567c0-0.881-0.688-1.541-1.568-1.541h-4.703
		c-0.853,0-1.568,0.688-1.568,1.568C98.918,97.124,99.634,97.784,100.486,97.784z"/>
</g>
</svg>
