<?xml version="1.0" encoding="utf-8"?>
<!-- Generator: Adobe Illustrator 17.1.0, SVG Export Plug-In . SVG Version: 6.00 Build 0)  -->
<!DOCTYPE svg PUBLIC "-//W3C//DTD SVG 1.1//EN" "http://www.w3.org/Graphics/SVG/1.1/DTD/svg11.dtd">
<svg version="1.1" xmlns="http://www.w3.org/2000/svg" xmlns:xlink="http://www.w3.org/1999/xlink" x="0px" y="0px"
	 viewBox="0 0 64 64" enable-background="new 0 0 64 64" xml:space="preserve">
<g id="Imagenes">
</g>
<g id="Layer_2">
	<path d="M22,41.062c0,0-0.578-6.89,6.35-6.89c4.478-0.196,6.689,2.11,6.595,5.829l-0.066,1.561
		c1.215-2.094,5.279-2.587,7.051-0.302c1.056-2.352,5.789-2.042,7.102-0.198c0.5-0.844,1.885-1.531,3.031-1.531
		c0.029-2.129,0-4.257,0-6.469c-0.625,0.656-1.222,0.944-1.432,1.075c-4.672,2.921-11.357,1.992-15.067-2.098
		c-0.77-0.848-1.354-1.799-1.772-2.802c-0.84,0.688-2.001,1.094-3.292,1.094c-2.745,0-4.752-1.656-4.773-3.937
		c-0.002-0.176-0.021-0.416-0.042-0.709c-0.178-2.447-0.665-9.244,4.795-13.699C14.761,12.181,6.057,21.029,6.057,31.042
		C6.057,52.542,15,56,22,56C22,53.852,22,41.062,22,41.062z"/>
	<path d="M38.006,25.475c-0.013,3.874,2.81,7.028,6.298,7.035c3.662,0.008,6.664-2.99,6.696-6.687
		c0.031-3.588-2.932-6.809-6.278-6.823C41.13,18.985,38.018,21.986,38.006,25.475z M47.962,25.949
		c0.009,1.635-1.343,3.014-2.959,3.019C43.305,28.973,41.99,27.64,42,25.925c0.009-1.64,1.348-2.934,3.027-2.925
		C46.609,23.009,47.953,24.359,47.962,25.949z"/>
	<path d="M54,54c0,0-16,0-19,0s-3-2-3-2s0-9,0-11c0,0,0-3-3.505-3C25.25,38,25,41,25,41s0,10,0,13c0,4.75,4,5,4,5s22.969,0,24.969,0
		c0,0,3.062,0,3.062-2.5C57.031,54.031,54,54,54,54z"/>
	<path d="M41.213,10.065c-1.889,0-4.197,0.526-7.005,1.901c-0.228,0.112-0.446,0.228-0.659,0.347
		c-7.379,4.107-5.84,12.19-5.823,14.062c0.012,1.307,1.405,1.955,2.773,1.955c1.28,0,2.523-0.574,2.608-1.699
		c0.004-0.058,0.02-0.111,0.018-0.173c-0.076-2.295,0.069-6.125,4.881-9.125c2.619-1.632,5.375-2.042,7.483-2.042
		c2.128,0,3.594,0.417,3.594,0.417S47.396,10.066,41.213,10.065z"/>
	<path d="M36,49.192C36,50.743,37.048,52,38.34,52h0.319c1.292,0,2.34-1.257,2.34-2.808V48h-5V49.192z"/>
	<path d="M41,44.808C41,43.257,39.952,42,38.66,42H38.34C37.048,42,36,43.257,36,44.808V46h5V44.808z"/>
	<path d="M48,44.808C48,43.257,46.952,42,45.66,42H45.34C44.048,42,43,43.257,43,44.808V46h5V44.808z"/>
	<path d="M43,49.192C43,50.743,44.048,52,45.34,52h0.319c1.292,0,2.34-1.257,2.34-2.808V48h-5V49.192z"/>
	<path d="M50,49.192C50,50.743,51.073,52,52.357,52h0.317C53.959,52,55,50.743,55,49.192V48h-5V49.192z"/>
	<path d="M55,44.808C55,43.257,53.959,42,52.674,42h-0.317C51.073,42,50,43.257,50,44.808V46h5V44.808z"/>
</g>
</svg>
