<?xml version="1.0" encoding="utf-8"?>
<!-- Generator: Adobe Illustrator 16.0.4, SVG Export Plug-In . SVG Version: 6.00 Build 0)  -->
<!DOCTYPE svg PUBLIC "-//W3C//DTD SVG 1.1//EN" "http://www.w3.org/Graphics/SVG/1.1/DTD/svg11.dtd">
<svg version="1.1" id="Layer_1" xmlns="http://www.w3.org/2000/svg" xmlns:xlink="http://www.w3.org/1999/xlink" x="0px" y="0px"
	 width="50px" height="50px" viewBox="0 0 50 50" enable-background="new 0 0 50 50" xml:space="preserve">
<path d="M22.732,28.021c0-0.275,0.224-0.5,0.5-0.5h1.03v-0.965c0-0.275,0.224-0.5,0.5-0.5c0.276,0,0.5,0.225,0.5,0.5v0.965h1.03
	c0.276,0,0.5,0.225,0.5,0.5c0,0.276-0.224,0.5-0.5,0.5h-1.03v1.096c0,0.275-0.224,0.5-0.5,0.5c-0.276,0-0.5-0.225-0.5-0.5v-1.096
	h-1.03C22.957,28.521,22.732,28.298,22.732,28.021z M30.137,22.65l-0.812,1.252h2.188c0.171,0,0.33,0.088,0.423,0.233
	c0.091,0.146,0.103,0.327,0.028,0.481l-3.407,7.174c-0.083,0.174-0.26,0.286-0.452,0.286H21.29c-0.193,0-0.369-0.111-0.452-0.286
	l-3.407-7.174c-0.074-0.155-0.062-0.336,0.029-0.481c0.092-0.145,0.251-0.233,0.423-0.233h7.898l2.263-2.773
	c-0.28-0.74-0.177-1.583,0.295-2.23c0.371-0.511,0.919-0.847,1.544-0.946c0.623-0.101,1.25,0.051,1.763,0.424
	c1.055,0.768,1.289,2.25,0.521,3.305C31.695,22.331,30.932,22.699,30.137,22.65z M30.722,24.902H18.672l2.932,6.175h6.184
	L30.722,24.902z M29.983,21.626c0.521,0.104,1.062-0.104,1.373-0.533c0.442-0.609,0.308-1.465-0.301-1.909
	c-0.297-0.215-0.658-0.302-1.019-0.245c-0.361,0.057-0.677,0.251-0.892,0.546c-0.312,0.428-0.345,1.005-0.083,1.471
	c0.101,0.179,0.081,0.401-0.049,0.561l-1.945,2.384h1.062l1.335-2.057C29.578,21.673,29.784,21.585,29.983,21.626z"/>
</svg>
