<?xml version="1.0" encoding="utf-8"?>
<!-- Generator: Adobe Illustrator 16.0.4, SVG Export Plug-In . SVG Version: 6.00 Build 0)  -->
<!DOCTYPE svg PUBLIC "-//W3C//DTD SVG 1.1//EN" "http://www.w3.org/Graphics/SVG/1.1/DTD/svg11.dtd">
<svg version="1.1" id="Layer_1" xmlns="http://www.w3.org/2000/svg" xmlns:xlink="http://www.w3.org/1999/xlink" x="0px" y="0px"
	 width="50px" height="50px" viewBox="0 0 50 50" enable-background="new 0 0 50 50" xml:space="preserve">
<path d="M19.973,30.243h7.009c0.193,0,0.369-0.111,0.452-0.286l3.506-7.379c0.074-0.155,0.062-0.336-0.028-0.481
	c-0.093-0.145-0.251-0.233-0.424-0.233h-2.276l0.854-1.316c0.813,0.043,1.602-0.325,2.083-0.989c0.38-0.523,0.534-1.162,0.434-1.801
	c-0.102-0.638-0.444-1.199-0.966-1.579c-0.523-0.381-1.164-0.536-1.803-0.434c-0.638,0.101-1.199,0.445-1.578,0.967
	c-0.483,0.664-0.589,1.529-0.299,2.287l-2.337,2.864H16.47c-0.171,0-0.331,0.088-0.423,0.233c-0.091,0.145-0.103,0.327-0.029,0.481
	l3.504,7.379C19.604,30.131,19.779,30.243,19.973,30.243z M27.908,19.389c0.13-0.159,0.148-0.381,0.049-0.561
	c-0.271-0.484-0.238-1.083,0.086-1.528c0.223-0.307,0.551-0.508,0.926-0.567c0.376-0.059,0.75,0.031,1.058,0.254
	c0.307,0.223,0.508,0.552,0.567,0.926c0.059,0.375-0.031,0.75-0.254,1.057c-0.323,0.445-0.884,0.663-1.427,0.553
	c-0.202-0.041-0.406,0.047-0.518,0.218l-1.376,2.122h-1.13L27.908,19.389z M29.696,22.864l-3.03,6.379h-6.377l-3.029-6.379H29.696z
	 M34.031,25.758c0,0.276-0.225,0.5-0.5,0.5h-2.769l-2.27,5.187c-0.08,0.182-0.26,0.299-0.458,0.299h-8.657
	c-0.276,0-0.5-0.224-0.5-0.5s0.224-0.5,0.5-0.5h8.33l2.27-5.186c0.08-0.183,0.259-0.3,0.458-0.3h3.095
	C33.807,25.258,34.031,25.481,34.031,25.758z M22.421,33.128c0,0.64-0.518,1.157-1.156,1.157c-0.64,0-1.157-0.518-1.157-1.157
	c0-0.639,0.518-1.156,1.157-1.156C21.904,31.972,22.421,32.489,22.421,33.128z M26.537,33.128c0,0.64-0.52,1.157-1.158,1.157
	c-0.638,0-1.157-0.518-1.157-1.157c0-0.639,0.519-1.156,1.157-1.156C26.018,31.972,26.537,32.489,26.537,33.128z"/>
</svg>
