<?xml version="1.0" encoding="utf-8"?>
<!-- Generator: Adobe Illustrator 16.0.0, SVG Export Plug-In . SVG Version: 6.00 Build 0)  -->
<!DOCTYPE svg PUBLIC "-//W3C//DTD SVG 1.1//EN" "http://www.w3.org/Graphics/SVG/1.1/DTD/svg11.dtd">
<svg version="1.1" id="Layer_1" xmlns="http://www.w3.org/2000/svg" xmlns:xlink="http://www.w3.org/1999/xlink" x="0px" y="0px"
	 width="96px" height="96px" viewBox="0 0 96 96" enable-background="new 0 0 96 96" xml:space="preserve">
<path d="M67.121,33.121L88.609,33.1l5.615-10.428H74.537c-6.377,0.246-13.514,0.396-18.477,5.025
	c-5.725,4.331-7.074,13.847-15.145,14.897c-6.988,0.772-14.072,0.151-21.104,0.312c-2.143,3.237-4.082,6.612-6.184,9.881
	l26.15,0.001c-2.305,3.966-4.908,9.078-9.924,9.924c-7.203,0.997-14.512-0.011-21.746,0.515c-2.635,2.979-4.309,6.667-6.334,10.064
	c7.889,0.011,15.787,0.086,23.686-0.012c7.203-0.171,14.941-2.809,18.885-9.238c3.012-4.009,5.252-10.011,10.953-10.577
	c7.084-0.58,14.223-0.044,21.338-0.301l6.131-10.01l-25.969,0.021C59.512,39.283,61.826,33.85,67.121,33.121z"/>
</svg>
