<?xml version="1.0" encoding="utf-8"?>
<!-- Generator: Adobe Illustrator 16.0.4, SVG Export Plug-In . SVG Version: 6.00 Build 0)  -->
<!DOCTYPE svg PUBLIC "-//W3C//DTD SVG 1.1//EN" "http://www.w3.org/Graphics/SVG/1.1/DTD/svg11.dtd">
<svg version="1.1" id="Layer_1" xmlns="http://www.w3.org/2000/svg" xmlns:xlink="http://www.w3.org/1999/xlink" x="0px" y="0px"
	 width="226.77px" height="155.91px" viewBox="0 0 226.77 155.91" enable-background="new 0 0 226.77 155.91" xml:space="preserve">
<g>
	<path d="M160.042,38.435c0-0.028-0.027-0.055-0.027-0.11c-0.11-0.495-0.302-0.99-0.604-1.43c-0.083-0.11-0.193-0.192-0.275-0.302
		c-0.082-0.11-0.192-0.22-0.303-0.303c-0.137-0.137-0.275-0.248-0.439-0.357c-0.083-0.055-0.166-0.11-0.248-0.165
		c-0.385-0.22-0.797-0.385-1.21-0.495h-0.027c-0.22-0.055-0.44-0.055-0.66-0.055c-0.056,0-0.083,0-0.138,0h-0.439H97.007
		c-0.633,0-1.293,0.165-1.843,0.44L68.762,49.353c-1.348,0.688-2.172,2.063-2.172,3.576v63.722c0,2.229,1.815,4.043,4.042,4.043
		h65.951c1.018,0,2.007-0.385,2.75-1.072l19.554-18.234c0.826-0.77,1.293-1.842,1.293-2.942V39.259v-0.027
		C160.125,38.957,160.07,38.709,160.042,38.435z M98.547,43.275h44.554l-7.839,5.418h-36.44v-0.715c0-0.88-0.715-1.623-1.623-1.623
		s-1.623,0.715-1.623,1.623l0.027,0.77l-8.938,0.055C86.666,48.803,97.97,43.66,98.547,43.275z M78.058,111.04
		c-0.44-0.771-1.43-1.018-2.2-0.577l-1.21,0.715V56.173l20.957,0.083v2.035c0,0.88,0.715,1.623,1.623,1.623s1.623-0.715,1.623-1.623
		v-2.008l32.26,0.138v56.187H78.058C78.333,112.141,78.36,111.535,78.058,111.04z M139.141,108.73V55.926l12.898-8.966v49.587
		l-3.218-0.055l0,0c-0.88,0-1.622,0.742-1.622,1.649c0,0.853,0.688,1.567,1.512,1.622L139.141,108.73z"/>
	<path d="M101.132,99.736h3.96l0,0c0.88,0,1.623-0.715,1.623-1.595S106,96.52,105.12,96.52h-3.988l0,0
		c-0.88,0-1.623,0.715-1.623,1.622C99.51,98.994,100.252,99.736,101.132,99.736z"/>
	<path d="M97.227,67.889c0.88,0,1.623-0.715,1.623-1.623v-3.988c0-0.88-0.715-1.623-1.623-1.623s-1.623,0.715-1.623,1.623v3.988
		C95.604,67.146,96.319,67.889,97.227,67.889z"/>
	<path d="M144.861,96.574l-3.988-0.055l0,0c-0.88,0-1.623,0.742-1.623,1.622s0.716,1.65,1.623,1.65l3.988-0.056l0,0
		c0.88,0,1.622-0.688,1.622-1.567S145.741,96.574,144.861,96.574z"/>
	<path d="M97.227,83.785c0.88,0,1.623-0.715,1.623-1.622v-3.988c0-0.88-0.715-1.623-1.623-1.623s-1.623,0.715-1.623,1.623v3.988
		C95.604,83.043,96.319,83.785,97.227,83.785z"/>
	<path d="M97.227,91.734c0.88,0,1.623-0.716,1.623-1.623v-3.988c0-0.88-0.715-1.623-1.623-1.623s-1.623,0.716-1.623,1.623v3.988
		C95.604,90.991,96.319,91.734,97.227,91.734z"/>
	<path d="M97.227,75.837c0.88,0,1.623-0.715,1.623-1.623v-3.988c0-0.88-0.715-1.623-1.623-1.623s-1.623,0.715-1.623,1.623v3.988
		C95.604,75.095,96.319,75.837,97.227,75.837z"/>
	<path d="M124.977,99.764l3.988-0.027l0,0c0.88,0,1.623-0.688,1.623-1.595c0-0.88-0.716-1.595-1.623-1.595l-3.988-0.027l0,0
		c-0.88,0-1.622,0.742-1.622,1.622C123.382,99.021,124.097,99.764,124.977,99.764z"/>
	<path d="M117.029,99.736l3.987-0.027l0,0c0.88,0,1.622-0.715,1.622-1.595s-0.715-1.595-1.622-1.595l-3.987-0.027l0,0
		c-0.881,0-1.623,0.742-1.623,1.622C115.406,99.021,116.148,99.736,117.029,99.736z"/>
	<path d="M109.081,99.736h3.988l0,0c0.88,0,1.623-0.715,1.623-1.595s-0.715-1.595-1.623-1.595l-3.988-0.027l0,0
		c-0.88,0-1.623,0.715-1.623,1.622C107.458,99.021,108.201,99.736,109.081,99.736z"/>
	<path d="M93.79,103.367c0.275,0,0.55-0.082,0.825-0.221l3.411-2.007c0.77-0.44,1.018-1.431,0.577-2.2l-0.027-0.027
		c0.138-0.248,0.248-0.523,0.248-0.825v-3.988c0-0.88-0.715-1.622-1.623-1.622s-1.623,0.715-1.623,1.622v3.988
		c0,0.247,0.055,0.468,0.137,0.659l-2.778,1.65c-0.77,0.44-1.018,1.431-0.577,2.201C92.689,103.092,93.239,103.367,93.79,103.367z"
		/>
	<path d="M80.093,111.453c0.275,0,0.55-0.083,0.825-0.221l3.41-2.008c0.77-0.439,1.018-1.43,0.578-2.199
		c-0.44-0.771-1.43-1.018-2.2-0.578l-3.41,2.008c-0.771,0.439-1.018,1.43-0.578,2.2C79.021,111.15,79.543,111.453,80.093,111.453z"
		/>
	<path d="M86.941,107.41c0.275,0,0.55-0.082,0.825-0.221l3.41-2.008c0.77-0.439,1.018-1.43,0.578-2.199
		c-0.44-0.771-1.43-1.018-2.2-0.578l-3.411,2.008c-0.77,0.439-1.018,1.43-0.577,2.2C85.869,107.107,86.391,107.41,86.941,107.41z"/>
</g>
</svg>
