<?xml version="1.0" encoding="utf-8"?>
<!-- Generator: Adobe Illustrator 16.0.0, SVG Export Plug-In . SVG Version: 6.00 Build 0)  -->
<!DOCTYPE svg PUBLIC "-//W3C//DTD SVG 1.1//EN" "http://www.w3.org/Graphics/SVG/1.1/DTD/svg11.dtd">
<svg version="1.1" id="Layer_1" xmlns="http://www.w3.org/2000/svg" xmlns:xlink="http://www.w3.org/1999/xlink" x="0px" y="0px"
	 width="96px" height="96px" viewBox="0 0 96 96" enable-background="new 0 0 96 96" xml:space="preserve">
<g>
	<path d="M31.194,31.543L44.68,52.476h5.031L62.995,32.75l7.24,25.339c3.064-1.715,7.004-3.136,11.655-3.136
		c1.057,0,2.115,0.085,3.175,0.232L70.442,6.986h-6.441L47.095,32.045L32,6.986h-7.648L8.406,54.821
		c4.131,0.081,9.352,1.11,14.304,4.647L31.194,31.543z"/>
	<path d="M64.816,66.725c-21.284-17.511-39.089,0-39.089,0C15.699,54.849,1.373,59.277,1.373,59.277
		c-0.54,5.501,2.182,10.52,5.245,14.326h10.548c1.658-1.365,4.861-2.24,7.579,0h9.899c1.658-1.365,4.862-2.24,7.58,0h7.45
		c1.659-1.365,4.862-2.24,7.579,0h9.462c1.659-1.365,4.862-2.24,7.579,0h14.204c4.776-5.985,6.199-11.006,6.199-11.006
		C77.097,51.626,64.816,66.725,64.816,66.725z"/>
	<path d="M32.189,88.994c0.01,0,0.022,0,0.032,0c0.167-3.479,2.426-6.243,5.213-6.243c2.787,0,5.045,2.765,5.214,6.243
		c2.026,0,4.136,0,6.246,0c0.168-3.479,2.424-6.243,5.215-6.243c2.786,0,5.044,2.765,5.211,6.243
		c15.012,0.497,23.91-8.328,27.827-12.781H8C10.625,79.803,22.173,88.994,32.189,88.994z"/>
</g>
</svg>
