<?xml version="1.0" encoding="utf-8"?>
<!-- Generator: Adobe Illustrator 17.0.0, SVG Export Plug-In . SVG Version: 6.00 Build 0)  -->
<!DOCTYPE svg PUBLIC "-//W3C//DTD SVG 1.1//EN" "http://www.w3.org/Graphics/SVG/1.1/DTD/svg11.dtd">
<svg version="1.1" id="Capa_1" xmlns="http://www.w3.org/2000/svg" xmlns:xlink="http://www.w3.org/1999/xlink" x="0px" y="0px"
	 width="18.136px" height="18.137px" viewBox="0 0 18.136 18.137" enable-background="new 0 0 18.136 18.137" xml:space="preserve">
<path d="M5.555,11.666c-1.193,0-3.631,0.014-4.922,0.024V2.354c0-0.954,0.772-1.725,1.726-1.727h11.887c0,1.232,0,3.484,0,5.166
	c0,2.438,0,4.929,0,5.134c0,0.033-0.006,0.141-0.034,0.253c-0.043,0.178-0.126,0.353-0.262,0.476
	c-0.14,0.12-0.356,0.253-0.909,0.261c-0.328-0.005-0.493-0.076-0.618-0.156c-0.181-0.119-0.312-0.34-0.388-0.576
	c-0.036-0.114-0.058-0.224-0.068-0.297c-0.007-0.034-0.008-0.064-0.01-0.08v-0.002c0-0.093,0-0.532,0-2.54
	c0-0.48-0.041-0.924-0.147-1.343c-0.152-0.618-0.495-1.207-1.04-1.578C10.225,4.97,9.575,4.84,8.883,4.84c-1.144,0-1.982,0-3.925,0
	c-0.821,0-1.549,0.318-2.082,0.794C2.347,6.108,1.967,6.761,1.96,7.527C1.959,7.87,2.048,8.232,2.233,8.553
	c0.279,0.486,0.75,0.852,1.325,1.075c0.578,0.23,1.273,0.341,2.121,0.342c0.127,0.001,0.208,0.026,0.276,0.057
	c0.099,0.051,0.187,0.133,0.262,0.273c0.074,0.14,0.121,0.329,0.121,0.518c0.001,0.256-0.086,0.489-0.2,0.62
	C6.017,11.569,5.898,11.661,5.555,11.666z M16.085,0.657c0,1.242,0,3.47,0,5.138c0,2.438,0,4.93,0,5.134
	c-0.001,0.252-0.034,0.658-0.231,1.138c-0.193,0.472-0.587,1.022-1.248,1.353c-0.436,0.222-0.965,0.341-1.568,0.339
	c-0.005,0-0.01,0-0.016,0c-0.637,0-1.202-0.176-1.632-0.469c-0.435-0.293-0.719-0.678-0.901-1.029
	c-0.359-0.714-0.37-1.323-0.377-1.396l-0.001-0.018v-0.013c0,0,0,0,0-2.569c0.001-0.421-0.043-0.745-0.111-0.961
	C9.933,7.086,9.857,6.981,9.779,6.908C9.725,6.858,9.66,6.816,9.553,6.776C9.412,6.722,9.191,6.681,8.881,6.681
	c-1.144,0-1.982,0-3.925,0c-0.33-0.001-0.64,0.135-0.857,0.328C3.878,7.201,3.793,7.434,3.8,7.527
	c0.001,0.047,0.007,0.071,0.028,0.107c0.021,0.038,0.065,0.097,0.18,0.17c0.225,0.148,0.759,0.329,1.669,0.325
	c0.389,0,0.764,0.086,1.09,0.248c0.326,0.16,0.598,0.39,0.807,0.651c0.418,0.525,0.604,1.161,0.606,1.792
	c-0.001,0.631-0.19,1.282-0.638,1.814c-0.443,0.534-1.176,0.887-1.991,0.878c-0.825,0-2.265,0.007-3.497,0.017
	c-0.537,0.001-1.035,0.005-1.425,0.008v2.247c0,0.954,0.772,1.725,1.726,1.725h13.426c0.953,0,1.726-0.771,1.726-1.725V2.357
	C17.509,1.506,16.895,0.804,16.085,0.657z"/>
</svg>
