<?xml version="1.0" encoding="utf-8"?>
<!-- Generator: Adobe Illustrator 17.0.0, SVG Export Plug-In . SVG Version: 6.00 Build 0)  -->
<!DOCTYPE svg PUBLIC "-//W3C//DTD SVG 1.1//EN" "http://www.w3.org/Graphics/SVG/1.1/DTD/svg11.dtd">
<svg version="1.1" id="Capa_1" xmlns="http://www.w3.org/2000/svg" xmlns:xlink="http://www.w3.org/1999/xlink" x="0px" y="0px"
	 width="17.811px" height="17.173px" viewBox="0 0 17.811 17.173" enable-background="new 0 0 17.811 17.173" xml:space="preserve">
<path d="M17.466,9.793L10.022,7.65C9.704,7.559,9.546,7.736,9.67,8.042l0.85,2.099c0.125,0.306-0.025,0.659-0.333,0.782
	c0,0-1.962,0.783-3.447,0.783c-1.124,0-2.555-0.422-2.555-0.422c-0.317-0.094-0.384,0.02-0.146,0.251c0,0,1.855,3.394,6.137,3.124
	c0.719-0.046,1.481-0.141,1.481-0.141c0.325-0.061,0.693,0.141,0.817,0.449l0.795,1.963c0.125,0.308,0.366,0.326,0.539,0.043
	l3.925-6.498C17.904,10.191,17.784,9.884,17.466,9.793z M8.142,9.13l-0.85-2.098C7.168,6.726,7.317,6.375,7.625,6.251
	c0,0,1.963-0.785,3.447-0.785c1.123,0,2.555,0.424,2.555,0.424c0.316,0.092,0.384-0.02,0.146-0.253c0,0-1.855-3.394-6.137-3.122
	c-0.72,0.044-1.48,0.141-1.48,0.141C5.83,2.717,5.462,2.515,5.337,2.208L4.542,0.245C4.417-0.064,4.175-0.083,4.004,0.199
	L0.078,6.698C-0.093,6.982,0.026,7.29,0.346,7.381l7.443,2.143C8.107,9.614,8.267,9.438,8.142,9.13z"/>
</svg>
