<svg width="17.938" xmlns="http://www.w3.org/2000/svg" height="16.311" viewBox="0 0 17.938 16.311" xmlns:xlink="http://www.w3.org/1999/xlink" enable-background="new 0 0 17.938 16.311">
<path d="M17.938,4.803V3.377h-1.271V1.283L15.546,0l-1.121,1.283v2.094h-1.046V1.283L12.258,0l-1.121,1.283v2.094H10.09V1.283  L8.969,0l-1.12,1.283v2.094H6.802V1.283L5.681,0L4.56,1.283v2.094H3.513V1.283L2.393,0L1.271,1.283v2.094H0v1.426h1.271v8.273H0  v1.43h1.271v1.805h2.242v-1.805H4.56v1.805h2.241v-1.805h1.047v1.805h2.24v-1.805h1.048v1.805h2.241v-1.805h1.046v1.805h2.241  v-1.805h1.271v-1.43h-1.271V4.803H17.938z M4.561,13.076H3.514V4.803h1.047V13.076z M7.848,13.076H6.802V4.803h1.046V13.076z   M11.137,13.076H10.09V4.803h1.047V13.076z M14.425,13.076h-1.046V4.803h1.046V13.076z"/>
</svg>
