<?xml version="1.0" encoding="utf-8"?>
<!-- Generator: Adobe Illustrator 16.0.4, SVG Export Plug-In . SVG Version: 6.00 Build 0)  -->
<!DOCTYPE svg PUBLIC "-//W3C//DTD SVG 1.1//EN" "http://www.w3.org/Graphics/SVG/1.1/DTD/svg11.dtd">
<svg version="1.1" id="Layer_1" xmlns="http://www.w3.org/2000/svg" xmlns:xlink="http://www.w3.org/1999/xlink" x="0px" y="0px"
	 width="50px" height="50px" viewBox="0 0 50 50" enable-background="new 0 0 50 50" xml:space="preserve">
<path d="M18.655,31.396c0,0.276-0.223,0.5-0.5,0.5c-1.271,0-3.59-2.265-4.559-5.076c-0.09-0.262,0.049-0.545,0.311-0.635
	c0.261-0.093,0.546,0.049,0.636,0.31c0.912,2.647,3.009,4.401,3.612,4.401C18.433,30.896,18.655,31.12,18.655,31.396z
	 M38.703,30.543c-0.007,0.271-0.229,0.488-0.5,0.488c-0.004,0-0.009,0-0.013,0l-2.862-0.068l1.771,1.389
	c0.217,0.17,0.254,0.484,0.084,0.702c-0.099,0.126-0.246,0.191-0.394,0.191c-0.108,0-0.218-0.035-0.31-0.106l-2.354-1.847
	c-0.521,1.634-2.497,2.466-5.912,2.466c-0.178,0-0.359-0.002-0.549-0.006c-1.833-0.043-3.706-0.309-5.258-0.766
	c-0.754,0.506-1.484,0.771-2.155,0.771c-0.326,0-0.64-0.061-0.935-0.183c-0.092-0.038-0.183-0.083-0.273-0.14
	c-0.093,0.057-0.184,0.103-0.273,0.14c-0.679,0.28-1.478,0.233-2.309-0.142c-1.859-0.838-3.847-3.301-4.727-5.855
	c-1.082-3.128-0.139-5.569,2.588-6.698c1.617-0.669,3.076-0.536,4.221,0.355v-4.493c0-0.276,0.225-0.5,0.5-0.5s0.5,0.224,0.5,0.5
	v1.372c0.279-0.464,0.664-0.937,1.189-1.259c0.502-0.307,1.101-0.462,1.779-0.462c0.766,0,1.369,0.203,1.396,0.211
	c0.241,0.083,0.383,0.335,0.325,0.585c-0.018,0.078-0.453,1.932-1.814,2.767c-0.504,0.307-1.104,0.462-1.783,0.462
	c-0.458,0-0.839-0.07-1.092-0.131v0.947c1.145-0.893,2.604-1.025,4.221-0.354c0.562,0.232,1.027,0.533,1.437,0.871l-0.586-2.877
	c-0.009-0.038-0.001-0.073,0-0.11c-0.041-0.096-0.068-0.196-0.068-0.306c0-1.557,4.425-1.636,5.312-1.636s5.312,0.079,5.312,1.636
	c0,0.111-0.028,0.213-0.069,0.31c0,0.04,0.006,0.079-0.004,0.12l-2.08,9.146c0.574,0.403,0.965,0.899,1.137,1.503l2.602-1.7
	c0.229-0.149,0.54-0.087,0.691,0.146c0.15,0.23,0.087,0.541-0.146,0.691l-1.972,1.289l2.886,0.068
	C38.491,30.038,38.71,30.268,38.703,30.543z M20.046,19.371c0.169,0.026,0.372,0.048,0.592,0.048c0.492,0,0.918-0.105,1.262-0.315
	c0.644-0.394,1.021-1.16,1.209-1.659c-0.17-0.027-0.373-0.05-0.594-0.05c-0.492,0-0.916,0.106-1.258,0.315
	C20.617,18.102,20.235,18.87,20.046,19.371z M32.103,27.542l1.809-7.945c-1.379,0.46-3.473,0.497-4.053,0.497
	c-0.584,0-2.697-0.037-4.076-0.505l0.896,4.398c0.015,0.068,0.013,0.136-0.001,0.2c0.162,0.789,0.123,1.674-0.113,2.633
	c0.226-0.006,0.451-0.012,0.678-0.012c0.191,0,0.387,0.002,0.582,0.008C29.64,26.859,31.051,27.109,32.103,27.542z M25.649,18.459
	c0.445,0.26,1.893,0.635,4.207,0.635c2.316,0,3.764-0.375,4.211-0.635c-0.447-0.261-1.895-0.636-4.211-0.636
	C27.541,17.823,26.097,18.198,25.649,18.459z M21.166,32.545c-1.438-0.613-2.383-1.443-2.358-2.471
	c0.041-1.848,3.189-2.934,6.719-3.199c0.9-3.064-0.645-4.45-2.144-5.07c-1.139-0.472-2.745-0.688-3.932,0.968
	c-0.007,0.009-0.017,0.012-0.023,0.02c-0.092,0.113-0.226,0.189-0.383,0.189c-0.155,0-0.291-0.076-0.382-0.188
	c-0.008-0.009-0.02-0.011-0.023-0.02c-1.188-1.656-2.793-1.44-3.933-0.969c-1.562,0.646-3.179,2.115-2.024,5.448
	c0.784,2.282,2.588,4.548,4.191,5.271c0.58,0.263,1.089,0.307,1.516,0.129c0.104-0.043,0.217-0.112,0.348-0.215
	c0.182-0.143,0.436-0.143,0.617,0c0.131,0.103,0.244,0.172,0.347,0.215C20.175,32.848,20.694,32.75,21.166,32.545z M33.272,30.414
	c0.029-1.271-1.09-2.078-3.307-2.417l-0.031,1.354c-0.006,0.271-0.229,0.488-0.5,0.488c-0.004,0-0.008,0-0.012,0
	c-0.275-0.007-0.494-0.234-0.488-0.512l0.033-1.45c-0.369-0.03-0.754-0.053-1.17-0.062c-0.188-0.006-0.374-0.008-0.559-0.008
	c-0.207,0-0.408,0.006-0.609,0.01l-0.033,1.453c-0.006,0.272-0.229,0.489-0.5,0.489c-0.004,0-0.008,0-0.012,0
	c-0.275-0.007-0.494-0.235-0.488-0.512l0.031-1.383c-0.721,0.052-1.393,0.138-2.005,0.25l-0.032,1.426
	c-0.006,0.272-0.229,0.489-0.5,0.489c-0.004,0-0.008,0-0.012,0c-0.275-0.008-0.494-0.235-0.488-0.512l0.027-1.182
	c-1.741,0.451-2.799,1.124-2.812,1.757c-0.023,1.031,2.965,2.54,7.883,2.655C31.38,32.841,33.235,32.05,33.272,30.414z"/>
</svg>
