<?xml version="1.0" encoding="utf-8"?>
<!-- Generator: Adobe Illustrator 16.0.4, SVG Export Plug-In . SVG Version: 6.00 Build 0)  -->
<!DOCTYPE svg PUBLIC "-//W3C//DTD SVG 1.1//EN" "http://www.w3.org/Graphics/SVG/1.1/DTD/svg11.dtd">
<svg version="1.1" id="Layer_1" xmlns="http://www.w3.org/2000/svg" xmlns:xlink="http://www.w3.org/1999/xlink" x="0px" y="0px"
	 width="50px" height="50px" viewBox="0 0 50 50" enable-background="new 0 0 50 50" xml:space="preserve">
<path d="M22.48,18.776v2.73h-2.73c-0.276,0-0.5,0.224-0.5,0.5v4.039c0,0.277,0.224,0.5,0.5,0.5h2.73v2.73c0,0.275,0.224,0.5,0.5,0.5
	h4.04c0.275,0,0.5-0.225,0.5-0.5v-2.73h2.729c0.276,0,0.5-0.223,0.5-0.5v-4.039c0-0.276-0.224-0.5-0.5-0.5H27.52v-2.73
	c0-0.276-0.225-0.5-0.5-0.5h-4.04C22.704,18.276,22.48,18.5,22.48,18.776z M23.48,22.007v-2.73h3.04v2.73c0,0.276,0.224,0.5,0.5,0.5
	h2.729v3.04H27.02c-0.276,0-0.5,0.224-0.5,0.5v2.729h-3.04v-2.729c0-0.276-0.224-0.5-0.5-0.5h-2.73v-3.04h2.73
	C23.257,22.507,23.48,22.284,23.48,22.007z M35.327,17.143c-3.062-1.688-6.632-2.58-10.327-2.58c-3.696,0-7.267,0.893-10.327,2.58
	c-0.171,0.095-0.271,0.28-0.257,0.476c0.568,7.652,4.43,14.288,10.331,17.75c0.078,0.047,0.166,0.068,0.253,0.068
	s0.175-0.021,0.253-0.068c5.901-3.463,9.765-10.1,10.331-17.751C35.598,17.421,35.498,17.236,35.327,17.143z M25,34.354
	c-5.393-3.287-8.944-9.411-9.561-16.49c2.849-1.508,6.146-2.303,9.561-2.303c3.413,0,6.711,0.795,9.561,2.303
	C33.945,24.943,30.395,31.066,25,34.354z"/>
</svg>
