<?xml version="1.0" encoding="utf-8"?>
<!-- Generator: Adobe Illustrator 16.0.0, SVG Export Plug-In . SVG Version: 6.00 Build 0)  -->
<!DOCTYPE svg PUBLIC "-//W3C//DTD SVG 1.1//EN" "http://www.w3.org/Graphics/SVG/1.1/DTD/svg11.dtd">
<svg version="1.1" id="Layer_2" xmlns="http://www.w3.org/2000/svg" xmlns:xlink="http://www.w3.org/1999/xlink" x="0px" y="0px"
	 width="96px" height="96px" viewBox="0 0 96 96" enable-background="new 0 0 96 96" xml:space="preserve">
<g>
	<path d="M47.893,70.668c6.608,7.958,25.98,5.543,25.98-11.813s0-56.354,0-56.354L59.063,2.49v23.599v29.027l-0.189,0.367
		l-0.959,0.567h-1.15l-0.774-0.757c0,0-27.378-40.583-32.527-47.751S4.215,2.501,4.215,12.406c0,16.844,0,77.932,0,77.932h14.811
		c0,0,0-56.439,0-58.998s1.356-1.424,1.92-0.577s23.683,35.59,23.683,35.59L47.893,70.668z"/>
	<path d="M77.721,2.648v54.954c0,16.415-10.707,22.313-20.781,22.368c-8.336-0.357-12.626-5.914-17.766-13.714
		c-0.681-1.032-1.328-2.012-1.952-2.909L23.711,42.113v28.932l0.499,0.785l0.199,0.296c0.575,0.819,1.169,1.722,1.797,2.675
		c4.949,7.512,13.233,20.082,30.313,20.694l0.278,0.005c21.463,0,36.452-15.584,36.452-37.897V2.648H77.721z"/>
</g>
</svg>
