<?xml version="1.0" encoding="utf-8"?>
<!-- Generator: Adobe Illustrator 16.0.4, SVG Export Plug-In . SVG Version: 6.00 Build 0)  -->
<!DOCTYPE svg PUBLIC "-//W3C//DTD SVG 1.1//EN" "http://www.w3.org/Graphics/SVG/1.1/DTD/svg11.dtd">
<svg version="1.1" id="Layer_1" xmlns="http://www.w3.org/2000/svg" xmlns:xlink="http://www.w3.org/1999/xlink" x="0px" y="0px"
	 width="226.77px" height="155.91px" viewBox="0 0 226.77 155.91" enable-background="new 0 0 226.77 155.91" xml:space="preserve">
<g>
	<path d="M54.918,74.708c6.95,0,12.588-5.635,12.588-12.587c0-2.28-0.653-4.39-1.715-6.234l6.85-15.917l41.126,86.896
		c-1.982,2.223-3.225,5.123-3.225,8.338c0,6.949,5.635,12.588,12.587,12.588c6.95,0,12.587-5.635,12.587-12.588
		c0-2.678-0.85-5.148-2.275-7.189l19.377-23.846l9.842,22.49c-2.09,2.248-3.396,5.234-3.396,8.545
		c0,6.949,5.635,12.588,12.588,12.588c6.95,0,12.588-5.635,12.588-12.588c0-6.117-4.366-11.207-10.149-12.342l-10.86-24.82
		c2.427-2.295,3.959-5.523,3.959-9.123c0-6.953-5.635-12.588-12.588-12.588c-6.955,0-12.589,5.635-12.589,12.588
		c0,2.453,0.73,4.723,1.944,6.656l-20.062,24.734L81.028,29.416c2.176-2.263,3.527-5.323,3.527-8.709
		c0-6.952-5.635-12.587-12.587-12.587c-6.95,0-12.585,5.635-12.585,12.587c0,3.762,1.686,7.102,4.302,9.408L55.262,49.57
		c-0.117-0.002-0.224-0.034-0.344-0.034c-6.952-0.002-12.587,5.632-12.587,12.585C42.331,69.071,47.966,74.708,54.918,74.708z"/>
</g>
</svg>
