<?xml version="1.0" encoding="utf-8"?>
<!-- Generator: Adobe Illustrator 16.0.4, SVG Export Plug-In . SVG Version: 6.00 Build 0)  -->
<!DOCTYPE svg PUBLIC "-//W3C//DTD SVG 1.1//EN" "http://www.w3.org/Graphics/SVG/1.1/DTD/svg11.dtd">
<svg version="1.1" id="Capa_1" xmlns="http://www.w3.org/2000/svg" xmlns:xlink="http://www.w3.org/1999/xlink" x="0px" y="0px"
	 width="20.117px" height="26.658px" viewBox="0 0 20.117 26.658" enable-background="new 0 0 20.117 26.658" xml:space="preserve">
<path d="M14.569,14.941c-1.014,0-1.836,0.82-1.836,1.836c0,1.013,0.822,1.837,1.836,1.837c1.017,0,1.839-0.824,1.839-1.837
	C16.406,15.763,15.585,14.941,14.569,14.941z M14.569,17.945c-0.646,0-1.168-0.522-1.168-1.168s0.521-1.17,1.168-1.17
	c0.646,0,1.171,0.521,1.171,1.17C15.737,17.423,15.214,17.945,14.569,17.945z M5.847,14.941c-1.016,0-1.838,0.82-1.838,1.836
	c0,1.013,0.822,1.837,1.838,1.837c1.014,0,1.836-0.824,1.836-1.837C7.683,15.763,6.858,14.941,5.847,14.941z M5.847,17.945
	c-0.646,0-1.169-0.522-1.169-1.168s0.521-1.17,1.169-1.17c0.646,0,1.169,0.521,1.169,1.17C7.015,17.423,6.492,17.945,5.847,17.945z
	 M19.058,14.882v-2.59l-0.006-0.006c-0.047-1.875-0.496-2.892-0.496-2.892c0-0.746-0.604-1.349-1.352-1.349H3.235
	c-0.745,0-1.35,0.603-1.35,1.349c0,0-0.452,1.016-0.497,2.892l-0.005,0.005v0.388l-0.373,0.278v0.032
	c-0.003,0-0.005-0.002-0.007-0.002c-0.108,0-0.196,0.266-0.196,0.591c0,0.325,0.088,0.591,0.196,0.591
	c0.002,0,0.004-0.002,0.007-0.002v0.047l0.372,0.305v0.967c0,0.074,0.008,0.145,0.02,0.217c-0.186,0.01-0.333,0.182-0.333,0.393
	v0.479c0,0.221,0.16,0.396,0.356,0.396h1.78c0.105,0,0.201-0.055,0.267-0.137h0.278c0-1.166,0.941-2.111,2.105-2.119
	c1.165,0.008,2.107,0.953,2.107,2.119h4.514c0-1.166,0.939-2.111,2.105-2.119c1.164,0.008,2.105,0.953,2.105,2.119h1.018
	c0.314,0,0.605-0.107,0.836-0.291h0.42c0.189,0,0.348-0.154,0.348-0.347v-0.979C19.31,15.056,19.201,14.923,19.058,14.882z
	 M5.778,11.932H1.914c0.094-1.615,0.479-2.484,0.479-2.484c0-0.088,0.009-0.176,0.024-0.258h3.358c0.133,0,0.237,0.111,0.237,0.249
	v2.242h0.001C6.017,11.817,5.91,11.932,5.778,11.932z M10.944,11.732c0,0.138-0.106,0.251-0.235,0.251H6.832
	c-0.132,0-0.236-0.113-0.236-0.251V9.492c0-0.138,0.105-0.251,0.236-0.251h3.875c0.131,0,0.235,0.113,0.235,0.251L10.944,11.732
	L10.944,11.732z M15.789,11.732c0,0.138-0.104,0.251-0.238,0.251h-3.875c-0.131,0-0.235-0.113-0.235-0.251V9.492
	c0-0.138,0.104-0.251,0.235-0.251h3.875c0.134,0,0.238,0.113,0.238,0.251V11.732z M15.817,14.154c0.007-0.067,0.058-0.12,0.119-0.12
	h2.138c0.062,0,0.112,0.053,0.118,0.12H15.817z M15.817,13.917c0.007-0.066,0.058-0.123,0.119-0.123h2.138
	c0.062,0,0.112,0.056,0.118,0.123H15.817z M15.817,13.681c0.007-0.068,0.058-0.122,0.119-0.122h2.138
	c0.062,0,0.112,0.054,0.118,0.122H15.817z M15.817,13.443c0.007-0.068,0.058-0.122,0.119-0.122h2.138
	c0.062,0,0.112,0.054,0.118,0.122H15.817z"/>
</svg>
