<?xml version="1.0" encoding="utf-8"?>
<!-- Generator: Adobe Illustrator 16.0.4, SVG Export Plug-In . SVG Version: 6.00 Build 0)  -->
<!DOCTYPE svg PUBLIC "-//W3C//DTD SVG 1.1//EN" "http://www.w3.org/Graphics/SVG/1.1/DTD/svg11.dtd">
<svg version="1.1" id="Layer_1" xmlns="http://www.w3.org/2000/svg" xmlns:xlink="http://www.w3.org/1999/xlink" x="0px" y="0px"
	 width="226.77px" height="155.91px" viewBox="0 0 226.77 155.91" enable-background="new 0 0 226.77 155.91" xml:space="preserve">
<g>
	<g>
		<path d="M160.166,55.293c0-10.286-28.602-14.136-46.644-14.136c-13.036,0-46.919,2.475-46.919,13.751
			c0,0.138,0.055,0.275,0.055,0.413c-0.028,0.192-0.055,0.357-0.055,0.55v47.633c0,1.431,0.688,2.751,1.87,3.549
			c1.127,0.797,11.991,7.673,45.653,7.7h0.027h0.221h0.027c33.855-0.027,43.262-7.123,44.224-7.948
			c0.99-0.824,1.54-2.035,1.54-3.301V55.898c0-0.028,0-0.055,0-0.083C160.166,55.623,160.166,55.458,160.166,55.293z M113.55,49.82
			c17.079,0,29.263,2.833,34.983,5.061c-5.418,1.402-16.611,2.97-34.983,2.97c-18.234,0-29.647-1.705-35.148-3.218
			C84.15,52.488,96.389,49.82,113.55,49.82z M114.265,106.117c-23.542,0-34.9-3.575-38.971-5.253V62.691
			c7.673,2.53,20.435,3.795,38.256,3.795c20.05,0,31.462-1.513,37.98-3.465v37.98C147.846,102.68,137.477,106.117,114.265,106.117z"
			/>
	</g>
</g>
<path d="M146.554,82.576c-0.165,0-0.303-0.027-0.468-0.056c-1.87-0.522-3.851-1.018-5.83-1.457
	c-0.936-0.221-1.513-1.128-1.293-2.062c0.22-0.936,1.155-1.513,2.062-1.293c2.035,0.467,4.043,0.963,5.968,1.513
	c0.936,0.247,1.458,1.21,1.211,2.117C148.011,82.054,147.296,82.576,146.554,82.576z M80.246,80.953
	c-0.798,0-1.541-0.577-1.706-1.402c-0.192-0.936,0.413-1.843,1.375-2.036c1.842-0.357,3.877-0.743,6.05-1.072
	c0.935-0.165,1.843,0.495,1.98,1.43c0.165,0.935-0.495,1.843-1.43,1.98c-2.146,0.33-4.125,0.715-5.941,1.072
	C80.466,80.926,80.356,80.953,80.246,80.953z M134.673,79.854c-0.11,0-0.221,0-0.303-0.028c-1.98-0.357-3.988-0.688-5.94-0.962
	c-0.936-0.138-1.623-1.018-1.485-1.953s0.99-1.623,1.953-1.485c2.007,0.275,4.042,0.605,6.077,0.99
	c0.936,0.165,1.568,1.073,1.403,2.008C136.213,79.275,135.498,79.854,134.673,79.854z M122.764,77.818c-0.109,0-0.22,0-0.302,0
	c-2.035-0.165-4.07-0.275-6.023-0.357c-0.963-0.028-1.705-0.853-1.65-1.788c0.056-0.936,0.825-1.706,1.788-1.65
	c2.008,0.083,4.07,0.192,6.16,0.385c0.963,0.083,1.65,0.907,1.596,1.87C124.249,77.075,123.562,77.735,122.764,77.818z
	 M92.264,79.001c-0.853,0-1.595-0.633-1.705-1.513c-0.11-0.962,0.55-1.815,1.513-1.925c1.953-0.248,3.988-0.467,6.105-0.66
	c0.962-0.082,1.788,0.605,1.87,1.568s-0.605,1.788-1.567,1.87c-2.063,0.193-4.07,0.413-5.996,0.661
	C92.402,79.001,92.319,79.001,92.264,79.001z M104.283,77.103c-0.853-0.055-1.567-0.742-1.623-1.623
	c-0.055-0.962,0.66-1.788,1.623-1.842c1.98-0.138,4.016-0.248,6.133-0.303c0.962-0.027,1.76,0.715,1.788,1.678
	c0.027,0.962-0.715,1.76-1.678,1.788c-2.09,0.055-4.098,0.165-6.05,0.302C104.42,77.103,104.338,77.103,104.283,77.103z"/>
</svg>
