<?xml version="1.0" encoding="utf-8"?>
<!-- Generator: Adobe Illustrator 17.0.0, SVG Export Plug-In . SVG Version: 6.00 Build 0)  -->
<!DOCTYPE svg PUBLIC "-//W3C//DTD SVG 1.1//EN" "http://www.w3.org/Graphics/SVG/1.1/DTD/svg11.dtd">
<svg version="1.1" id="Capa_1" xmlns="http://www.w3.org/2000/svg" xmlns:xlink="http://www.w3.org/1999/xlink" x="0px" y="0px"
	 width="19.035px" height="19.035px" viewBox="0 0 19.035 19.035" enable-background="new 0 0 19.035 19.035" xml:space="preserve">
<path d="M15.239,0.002C11.509,0,7.776,0.002,4.045,0C3.691,0,3.347,0.027,2.998,0.104c-1.77,0.389-2.95,1.894-2.974,3.67
	C-0.021,7.451,0.011,11.125,0.012,14.8c0,0.416,0.017,0.822,0.115,1.237c0.407,1.729,1.836,2.94,3.678,2.979
	c1.902,0.037,3.808,0.008,5.711,0.008c1.837,0,3.675-0.002,5.512,0.002c0.354,0.001,0.697-0.029,1.045-0.109
	c1.759-0.406,2.961-1.896,2.962-3.706c0.001-3.808,0.002-7.616,0-11.424C19.034,1.681,17.353,0.003,15.239,0.002z M15.2,15.251
	c-1.104,1.1-2.827,1.381-4.249,0.674c-0.208-0.104-0.393-0.05-0.578-0.022c-3.359,0.47-6.579-1.871-7.17-5.218
	C3.134,10.291,3.082,9.897,3.1,9.496C3.084,9.144,3.116,8.793,3.187,8.448c0.025-0.121-0.003-0.221-0.055-0.327
	C2.121,5.993,3.15,3.587,5.387,2.868c0.916-0.295,1.82-0.218,2.69,0.191c0.145,0.066,0.281,0.103,0.438,0.08
	c2.074-0.283,3.909,0.232,5.445,1.674c1.199,1.125,1.867,2.52,2.006,4.166c0.044,0.535,0.016,1.062-0.068,1.589
	c-0.019,0.127,0.01,0.237,0.069,0.354C16.685,12.386,16.384,14.07,15.2,15.251z M11.78,9.22c-0.503-0.25-1.042-0.353-1.577-0.479
	C9.612,8.603,9.005,8.526,8.438,8.294C8.182,8.188,7.969,8.028,7.949,7.72C7.93,7.382,8.083,7.13,8.372,6.966
	C8.487,6.903,8.613,6.839,8.741,6.82c0.84-0.145,1.614-0.053,2.208,0.65c0.116,0.139,0.24,0.271,0.401,0.36
	c0.317,0.179,0.762,0.123,1.038-0.131c0.222-0.205,0.273-0.565,0.128-0.899c-0.11-0.25-0.275-0.464-0.498-0.615
	C10.55,5.181,8.983,5.077,7.387,5.789C6.362,6.247,5.923,7.295,6.182,8.354C6.36,9.093,6.873,9.513,7.547,9.771
	c0.542,0.211,1.116,0.309,1.678,0.453c0.423,0.108,0.856,0.188,1.264,0.34c0.625,0.23,0.725,0.867,0.268,1.352
	c-0.516,0.545-2.198,0.607-2.837-0.275c-0.112-0.154-0.233-0.303-0.36-0.443c-0.279-0.309-0.773-0.391-1.093-0.189
	c-0.336,0.211-0.446,0.612-0.295,1.034c0.148,0.414,0.435,0.714,0.786,0.954c0.779,0.534,1.665,0.662,2.58,0.668
	c0.902-0.004,1.762-0.141,2.519-0.684C13.248,12.121,13.295,9.968,11.78,9.22z"/>
</svg>
