<?xml version="1.0" encoding="utf-8"?>
<!-- Generator: Adobe Illustrator 16.0.0, SVG Export Plug-In . SVG Version: 6.00 Build 0)  -->
<!DOCTYPE svg PUBLIC "-//W3C//DTD SVG 1.1//EN" "http://www.w3.org/Graphics/SVG/1.1/DTD/svg11.dtd">
<svg version="1.1" id="Layer_2" xmlns="http://www.w3.org/2000/svg" xmlns:xlink="http://www.w3.org/1999/xlink" x="0px" y="0px"
	 width="96px" height="96px" viewBox="0 0 96 96" enable-background="new 0 0 96 96" xml:space="preserve">
<g>
	<path d="M93.426,42.056l-8.873-9.349l2.441-7.806c0.178-0.568-0.068-1.186-0.591-1.474l-9.531-5.269l-1.949-7.325
		c-0.13-0.489-0.542-0.853-1.045-0.922l-9.201-1.256l-6.569-5.93c-0.233-0.212-0.535-0.324-0.842-0.324
		c-0.11,0-0.221,0.016-0.33,0.045L48,4.879l-8.935-2.432c-0.109-0.029-0.22-0.045-0.331-0.045c-0.307,0-0.608,0.112-0.841,0.324
		l-6.569,5.93l-9.202,1.256c-0.502,0.069-0.915,0.433-1.044,0.922l-1.95,7.325l-9.53,5.269c-0.522,0.288-0.769,0.905-0.591,1.474
		l2.44,7.806l-8.873,9.349c-0.447,0.471-0.461,1.205-0.032,1.694l7.019,7.986L4.896,67.469c-0.097,0.325-0.058,0.674,0.107,0.97
		c0.165,0.297,0.442,0.514,0.769,0.601l13.368,3.616l7.571,20.129c0.122,0.326,0.374,0.586,0.696,0.721
		c0.154,0.061,0.316,0.093,0.479,0.093c0.178,0,0.356-0.036,0.521-0.112L48,84.551l19.591,8.935
		c0.166,0.076,0.343,0.112,0.521,0.112c0.163,0,0.325-0.032,0.479-0.093c0.322-0.135,0.574-0.395,0.696-0.721l7.572-20.129
		l13.369-3.616c0.326-0.087,0.604-0.304,0.768-0.601c0.166-0.296,0.204-0.645,0.108-0.97L86.44,51.736l7.02-7.986
		C93.888,43.261,93.874,42.526,93.426,42.056z M85.039,51.429l4.862,16.397L75.912,71.61l-7.799,20.731L48,83.17l-20.113,9.172
		L20.09,71.61L6.101,67.826l4.861-16.397l-7.477-8.508l9.379-9.886l-2.66-8.508l10-5.527l2.087-7.842l9.587-1.307l6.856-6.193
		L48,6.18l9.266-2.521l6.857,6.193l9.586,1.307L75.796,19l10,5.527l-2.661,8.508l9.381,9.886L85.039,51.429z"/>
	<path d="M83.905,25.701l-9.499-5.25l-1.983-7.452l-9.106-1.241l-6.514-5.882L48,8.271l-8.802-2.396l-6.514,5.882l-9.107,1.241
		l-1.984,7.452l-9.499,5.25l2.527,8.083l-8.912,9.39l7.104,8.082l-4.619,15.58l13.29,3.595l7.408,19.693L48,81.409l19.107,8.715
		l7.408-19.693l13.291-3.595l-4.619-15.58l7.103-8.082l-8.913-9.39L83.905,25.701z M71.791,66.767L62.33,36.655l-9.461,30.111
		h-9.736l-9.461-30.111l-9.461,30.111h-9.421L28.96,21.662h9.422L48,52.273l9.627-30.652l9.413,0.041l14.172,45.104H71.791z"/>
</g>
</svg>
