<?xml version="1.0" encoding="utf-8"?>
<!-- Generator: Adobe Illustrator 16.0.4, SVG Export Plug-In . SVG Version: 6.00 Build 0)  -->
<!DOCTYPE svg PUBLIC "-//W3C//DTD SVG 1.1//EN" "http://www.w3.org/Graphics/SVG/1.1/DTD/svg11.dtd">
<svg version="1.1" id="Layer_1" xmlns="http://www.w3.org/2000/svg" xmlns:xlink="http://www.w3.org/1999/xlink" x="0px" y="0px"
	 width="50px" height="50px" viewBox="0 0 50 50" enable-background="new 0 0 50 50" xml:space="preserve">
<path d="M35.767,16.655c0-3.77-3.064-6.834-6.832-6.834c-2.052,0-3.891,0.914-5.145,2.351c-3.06-0.049-5.468,0.85-7.106,2.714
	c-3.229,3.675-2.353,9.675-2.313,9.929c0.038,0.247,0.251,0.424,0.494,0.424c0.025,0,0.051-0.002,0.076-0.006
	c0.273-0.042,0.46-0.297,0.418-0.569c-0.009-0.058-0.849-5.789,2.076-9.117c1.31-1.49,3.203-2.281,5.625-2.364
	c-0.579,0.976-0.922,2.104-0.951,3.312c-0.147,0.03-0.283,0.064-0.397,0.102c-1.346,0.432-2.289,1.24-2.8,2.402
	c-1.221,2.771,0.488,6.56,0.561,6.72c0.082,0.178,0.259,0.291,0.455,0.291c0.196,0,0.373-0.113,0.455-0.291
	c0.61-1.331,1.408-2.04,2.306-2.052c0.877,0.002,1.641,0.61,1.854,1.043c0.77,1.57-1.273,3.798-2.125,4.523
	c-0.193,0.165-0.233,0.448-0.091,0.66c1.389,2.068,1.268,2.938,1.072,3.27c-0.348,0.594-1.477,0.517-1.574,0.517
	c-0.401,0.008-0.775-1.328-0.991-2.144c-0.318-1.201-0.593-2.236-1.357-2.408c-1.749-0.395-2.956-0.156-3.593,0.703
	c-1.475,1.994,1.011,6.483,1.26,6.903c0.691,2.015,2.489,3.265,4.935,3.429c0.178,0.012,0.355,0.018,0.531,0.018
	c2.319,0,4.456-1.012,5.205-2.51c1.087-2.174,1.452-3.662,1.774-4.973c0.271-1.121,0.509-2.088,1.151-3.261
	c1.512-2.761,2.398-5.305,2.637-7.56c0.001-0.014-0.004-0.025-0.003-0.038C34.835,20.584,35.767,18.728,35.767,16.655z
	 M28.935,10.82c3.216,0,5.832,2.617,5.832,5.834c0,3.216-2.616,5.832-5.832,5.832c-3.123,0-5.671-2.467-5.819-5.553
	c0.001-0.029,0.01-0.058,0.006-0.088c-0.002-0.013-0.009-0.022-0.012-0.035c-0.001-0.052-0.008-0.104-0.008-0.156
	C23.101,13.438,25.718,10.82,28.935,10.82z M29.862,28.955c-0.705,1.289-0.969,2.363-1.249,3.502
	c-0.31,1.262-0.659,2.69-1.697,4.766c-0.613,1.227-2.715,2.074-4.774,1.939c-0.958-0.063-3.269-0.461-4.094-2.838
	c-0.964-1.691-2.186-4.789-1.364-5.9c0.474-0.641,1.658-0.528,2.55-0.33c0.215,0.131,0.475,1.109,0.63,1.695
	c0.371,1.401,0.783,2.99,1.955,2.885c0.069,0.007,1.759,0.145,2.436-1c0.535-0.904,0.252-2.207-0.866-3.979
	c0.874-0.841,3.103-3.279,2.048-5.428c-0.328-0.67-1.388-1.603-2.727-1.603c-0.012,0-0.024,0-0.037,0.001
	c-0.755,0.009-1.772,0.329-2.661,1.655c-0.398-1.219-0.888-3.333-0.186-4.924c0.397-0.899,1.114-1.506,2.19-1.851
	c0.04-0.013,0.096-0.024,0.143-0.037c0.423,3.364,3.297,5.977,6.773,5.977c1.208,0,2.342-0.318,3.328-0.871
	C31.927,24.527,31.123,26.656,29.862,28.955z M24.435,16.655c0-0.276,0.224-0.5,0.5-0.5h3.5v-3.501c0-0.276,0.225-0.5,0.5-0.5
	c0.276,0,0.5,0.224,0.5,0.5v3.501h3.5c0.276,0,0.5,0.224,0.5,0.5c0,0.276-0.224,0.5-0.5,0.5h-3.5v3.5c0,0.276-0.224,0.5-0.5,0.5
	c-0.275,0-0.5-0.224-0.5-0.5v-3.5h-3.5C24.658,17.155,24.435,16.932,24.435,16.655z"/>
</svg>
