<svg width="18.135" xmlns="http://www.w3.org/2000/svg" height="18.134" viewBox="0 0 18.135 18.134" xmlns:xlink="http://www.w3.org/1999/xlink" enable-background="new 0 0 18.135 18.134">
<path d="m16.28,0h-14.426c-1.024,0-1.854,.829-1.854,1.854v14.426c0,1.025 .83,1.854 1.854,1.854h14.426c1.024,0 1.855-.828 1.855-1.854v-14.426c.001-1.025-.831-1.854-1.855-1.854zm-4.18,1.944c1.334,0 2.414,1.08 2.414,2.414s-1.08,2.414-2.414,2.414c-1.333,0-2.413-1.08-2.413-2.414s1.08-2.414 2.413-2.414zm-4.457,1.089c.929,0 1.681,.755 1.681,1.683s-.752,1.681-1.681,1.681c-.929,0-1.682-.754-1.682-1.682s.754-1.682 1.682-1.682zm-3.203,.268c.657,0 1.191,.532 1.191,1.19 0,.656-.534,1.189-1.191,1.189-.657,0-1.19-.533-1.19-1.189-0-.658 .533-1.19 1.19-1.19zm10.794,6.696c-0,.003-0,.005-0,.007 0,0 0,.005 0,.007v6.18h-6.243v-3.231h-3.515v-2.631h-2.57v-2.947c-.003-.033-.006-.07-.006-.106 0-.699 .691-1.267 1.543-1.267 .85,0 1.54,.563 1.543,1.263v.002 .002 .004 .213c.398-.389 .995-.633 1.661-.633 1.052,0 1.93,.613 2.134,1.428 .572-.523 1.402-.854 2.326-.854 1.723,.001 3.12,1.147 3.127,2.563z"/>
</svg>
