<?xml version="1.0" encoding="utf-8"?>
<!-- Generator: Adobe Illustrator 16.0.4, SVG Export Plug-In . SVG Version: 6.00 Build 0)  -->
<!DOCTYPE svg PUBLIC "-//W3C//DTD SVG 1.1//EN" "http://www.w3.org/Graphics/SVG/1.1/DTD/svg11.dtd">
<svg version="1.1" id="Layer_1" xmlns="http://www.w3.org/2000/svg" xmlns:xlink="http://www.w3.org/1999/xlink" x="0px" y="0px"
	 width="50px" height="50px" viewBox="0 0 50 50" enable-background="new 0 0 50 50" xml:space="preserve">
<path d="M38.762,22.824c-0.529-0.797-1.725-1.762-4.412-1.833c-0.574-0.016-1.33,0.043-2.139,0.104
	c-1.324,0.101-2.826,0.215-3.658,0.018c-0.684-0.161-1.529-0.523-2.426-0.907c-0.834-0.357-1.777-0.751-2.755-1.065
	c-0.35-3.164-3.036-5.633-6.291-5.633c-3.492,0-6.334,2.841-6.334,6.333c0,2.335,1.273,4.374,3.16,5.472l-0.24-0.034
	c-0.252,1.776-0.676,9.292,2.064,10.868c0.354,0.203,0.9,0.346,1.494,0.346c0.903,0,1.918-0.33,2.537-1.278
	c1.147-1.76,2.148-2.875,8.017-3.58c4.082-0.491,5.424-1.6,6.402-2.409l0.086-0.072c0.348-0.285,0.912-0.629,1.51-0.992
	c1.359-0.826,2.9-1.764,3.322-2.851C39.324,24.734,39.371,23.738,38.762,22.824z M11.747,19.841c0-2.941,2.393-5.333,5.334-5.333
	c2.939,0,5.332,2.393,5.332,5.333c0,2.94-2.393,5.333-5.332,5.333C14.139,25.174,11.747,22.782,11.747,19.841z M18.924,34.667
	c-0.677,1.037-2.197,0.897-2.695,0.61c-1.752-1.006-1.97-6.631-1.604-9.601c0.755,0.319,1.585,0.496,2.455,0.496
	c3.367,0,6.121-2.645,6.312-5.965c0.809,0.278,1.588,0.596,2.339,0.917c0.689,0.295,1.35,0.577,1.957,0.778
	c0.186,0.5,1.812,5.149,0.152,8.712c-0.062,0.008-0.119,0.017-0.182,0.023C21.479,31.384,20.235,32.658,18.924,34.667z
	 M38.17,24.947c-0.301,0.771-1.748,1.65-2.91,2.357c-0.631,0.383-1.225,0.744-1.627,1.076l-0.088,0.072
	c-0.77,0.636-1.789,1.477-4.541,1.984c1.184-3.188,0.295-6.809-0.172-8.282c0.973,0.113,2.27,0.026,3.455-0.064
	c0.779-0.059,1.514-0.115,2.035-0.102c2.26,0.059,3.207,0.787,3.607,1.387C38.354,24.014,38.279,24.664,38.17,24.947z
	 M17.081,24.025c-0.275,0-0.5-0.224-0.5-0.5v-3.184h-3.186c-0.275,0-0.5-0.224-0.5-0.5c0-0.276,0.225-0.5,0.5-0.5h3.186v-3.185
	c0-0.276,0.225-0.5,0.5-0.5s0.5,0.224,0.5,0.5v3.185h3.184c0.276,0,0.5,0.224,0.5,0.5c0,0.276-0.224,0.5-0.5,0.5h-3.184v3.184
	C17.581,23.802,17.356,24.025,17.081,24.025z"/>
</svg>
