<?xml version="1.0" encoding="utf-8"?>
<!-- Generator: Adobe Illustrator 16.0.0, SVG Export Plug-In . SVG Version: 6.00 Build 0)  -->
<!DOCTYPE svg PUBLIC "-//W3C//DTD SVG 1.1//EN" "http://www.w3.org/Graphics/SVG/1.1/DTD/svg11.dtd">
<svg version="1.1" id="Layer_1" xmlns="http://www.w3.org/2000/svg" xmlns:xlink="http://www.w3.org/1999/xlink" x="0px" y="0px"
	 width="96px" height="96px" viewBox="0 0 96 96" enable-background="new 0 0 96 96" xml:space="preserve">
<g>
	<path d="M38.971,13.211c-2.279-0.464-4.563-0.368-6.431,0.267c-2.219,0.758-3.708,2.256-4.087,4.111
		c-0.229,1.132,0.502,2.237,1.636,2.468c0.139,0.029,0.28,0.042,0.418,0.042c0.973,0,1.846-0.685,2.049-1.677
		c0.069-0.344,0.595-0.729,1.336-0.981c1.158-0.395,2.704-0.442,4.245-0.128c1.134,0.23,2.238-0.501,2.469-1.634
		C40.834,14.546,40.103,13.44,38.971,13.211z"/>
	<path d="M34.682,45.282c-1.132,0.711-7.2-0.094-14.284-4.101c-1.006-0.57-2.281-0.216-2.854,0.789
		c-0.568,1.007-0.215,2.284,0.792,2.854c4.829,2.732,10.729,4.845,14.919,4.845c1.464,0,2.724-0.26,3.652-0.841
		c0.979-0.615,1.274-1.907,0.659-2.887C36.952,44.964,35.661,44.667,34.682,45.282z"/>
	<path d="M62.108,17.44c0.741,0.252,1.267,0.638,1.336,0.981c0.203,0.992,1.076,1.677,2.049,1.677c0.138,0,0.279-0.013,0.418-0.042
		c1.134-0.23,1.865-1.336,1.636-2.468c-0.379-1.855-1.868-3.354-4.087-4.111c-1.867-0.635-4.151-0.73-6.431-0.267
		c-1.132,0.229-1.863,1.335-1.635,2.468c0.23,1.133,1.335,1.864,2.469,1.634C59.404,16.998,60.95,17.046,62.108,17.44z"/>
	<path d="M83.341,28.018c-0.078-0.067-0.154-0.094-0.234-0.157c1.064-2.045,1.619-4.364,1.619-6.718
		c0-7.786-6.153-14.146-13.798-14.354c-2.187-3.846-6.73-6.342-11.78-6.342c-4.699,0-8.825,2.152-11.147,5.378
		c-2.322-3.226-6.448-5.378-11.147-5.378c-5.05,0-9.594,2.496-11.78,6.342c-7.645,0.208-13.798,6.567-13.798,14.354
		c0,2.354,0.555,4.673,1.619,6.718c-0.08,0.063-0.156,0.089-0.234,0.157C7.266,32.07,3.947,38.771,3.947,45.76
		c0,11.617,9.426,20.377,21.926,20.377l7.218-0.001l-0.005,0.051c-0.296,3.17-0.22,8.637,2.973,12.638
		c1.393,1.747,3.195,3.012,5.386,3.79v7.99c0,2.73,2.216,4.946,4.947,4.946h3.217c2.731,0,4.947-2.216,4.947-4.946v-7.99
		c2.19-0.778,3.993-2.043,5.386-3.79c3.192-4.001,3.269-9.468,2.973-12.638l-0.005-0.051l7.218,0.001
		c12.5,0,21.926-8.76,21.926-20.377C92.053,38.771,88.734,32.07,83.341,28.018z M45.743,63.128c-1.221,0-2.151-0.997-2.993-2.037
		c-0.19,0.269-0.412,0.515-0.652,0.745l-16.225,0.002c-10.048,0-17.625-6.912-17.625-16.077c0-5.834,2.991-11.629,7.703-14.821
		c1.029-0.766,4.3-2.774,7.032-2.873c1.187-0.042,2.114-1.039,2.071-2.226c-0.042-1.186-1.001-2.122-2.226-2.071
		c-2.31,0.083-4.604,0.966-6.357,1.853l0.005-0.014c-0.664-1.38-1.018-2.894-1.018-4.465c0-5.609,4.486-10.173,10-10.173
		c0.222,0,0.463,0.012,0.749,0.032l1.541,0.116l0.565-1.437c1.19-3.02,4.622-5.049,8.538-5.049c4.937,0,8.864,3.234,8.864,7.208
		L45.743,63.128z M70.127,61.837l-16.225-0.002c-0.24-0.229-0.462-0.476-0.652-0.745c-0.842,1.04-1.772,2.037-2.993,2.037
		l0.026-51.286c0-3.974,3.928-7.208,8.864-7.208c3.916,0,7.348,2.029,8.538,5.049l0.565,1.437l1.541-0.116
		c0.286-0.021,0.527-0.032,0.749-0.032c5.514,0,10,4.563,10,10.173c0,1.571-0.354,3.085-1.018,4.465l0.005,0.014
		c-1.754-0.886-4.048-1.77-6.357-1.853c-1.225-0.051-2.184,0.885-2.226,2.071c-0.043,1.187,0.885,2.183,2.071,2.226
		c2.732,0.098,6.003,2.107,7.032,2.873c4.712,3.192,7.703,8.987,7.703,14.821C87.752,54.926,80.175,61.837,70.127,61.837z"/>
	<path d="M75.603,41.182c-7.084,4.007-13.152,4.812-14.284,4.101c-0.979-0.615-2.271-0.318-2.885,0.659
		c-0.615,0.979-0.319,2.271,0.659,2.887c0.929,0.581,2.188,0.841,3.652,0.841c4.189,0,10.09-2.112,14.919-4.845
		c1.007-0.569,1.36-1.847,0.792-2.854C77.884,40.966,76.608,40.611,75.603,41.182z"/>
</g>
</svg>
