<?xml version="1.0" encoding="utf-8"?>
<!-- Generator: Adobe Illustrator 17.1.0, SVG Export Plug-In . SVG Version: 6.00 Build 0)  -->
<!DOCTYPE svg PUBLIC "-//W3C//DTD SVG 1.1//EN" "http://www.w3.org/Graphics/SVG/1.1/DTD/svg11.dtd">
<svg version="1.1" xmlns="http://www.w3.org/2000/svg" xmlns:xlink="http://www.w3.org/1999/xlink" x="0px" y="0px"
	 viewBox="0 0 64 64" enable-background="new 0 0 64 64" xml:space="preserve">
<g id="Imagenes">
</g>
<g id="Layer_2">
	<path d="M27,60.191C27,61.742,28.257,63,29.809,63h0.383C31.743,63,33,61.742,33,60.191V57h-6V60.191z"/>
	<path d="M12.336,31.812c3.589,9.711,13.08,14.95,13.08,23.188H27h6h1.5c0-8.111,8.897-13.551,12.791-22.812
		c-4.073,2.113-10.733,2.959-17.142,2.959C23.374,35.147,16.319,34.201,12.336,31.812z"/>
	<path d="M30.149,33.147c9.201,0,16.111-2.111,18.314-4.523c1.839-7.325,1.347-11.544,0.684-13.706
		C46.683,18.789,38.375,20.8,30.15,20.8c-8.533,0-17.154-2.164-19.25-6.323c-0.565,1.937-1.115,5.99,0.331,13.206
		C12.304,30.459,19.764,33.147,30.149,33.147z"/>
	<path d="M30.15,18.8c9.304,0,16.92-2.554,17.66-5.8c0.039-0.171,0.073-0.342,0.073-0.517c0-0.163-0.034-0.323-0.068-0.483
		c-0.073-0.342-0.224-0.675-0.444-1C45.956,8.909,41.631,7.228,36,6.526V11v1v0.471l-0.363,0.3C35.62,12.785,35.5,12.877,35.31,13
		c-0.681,0.441-2.452,1.375-5.31,1.375S25.371,13.441,24.69,13c-0.189-0.123-0.31-0.215-0.327-0.229L24,12.471V12v-1V6.565
		C18.515,7.289,14.319,8.947,12.929,11c-0.22,0.325-0.371,0.658-0.444,1c-0.034,0.16-0.068,0.32-0.068,0.483
		c0,0.174,0.034,0.346,0.073,0.517C13.23,16.246,20.846,18.8,30.15,18.8z"/>
	<path d="M30,12.375c1.112,0,2.004-0.168,2.69-0.375c0.592-0.178,1.033-0.384,1.31-0.54V11V6.32V5.325v-0.43
		c-0.292,0.14-0.611,0.261-0.959,0.364C32.175,5.515,31.163,5.667,30,5.667c-1.142,0-2.139-0.147-2.995-0.395
		C26.64,5.166,26.305,5.041,26,4.895v0.456v0.997V11v0.463c0.274,0.155,0.711,0.36,1.298,0.537
		C27.984,12.207,28.878,12.375,30,12.375z"/>
	<path d="M30,3.667c1.987,0,3.623-0.529,3.935-1.222C33.969,2.368,34,2.289,34,2.208c0-0.56-0.875-1.04-2.145-1.285
		C31.298,0.816,30.673,0.75,30,0.75s-1.298,0.066-1.855,0.174C26.875,1.168,26,1.648,26,2.208c0,0.081,0.031,0.159,0.065,0.237
		C26.377,3.137,28.013,3.667,30,3.667z"/>
</g>
</svg>
