<?xml version="1.0" encoding="utf-8"?>
<!-- Generator: Adobe Illustrator 16.0.4, SVG Export Plug-In . SVG Version: 6.00 Build 0)  -->
<!DOCTYPE svg PUBLIC "-//W3C//DTD SVG 1.1//EN" "http://www.w3.org/Graphics/SVG/1.1/DTD/svg11.dtd">
<svg version="1.1" id="Layer_1" xmlns="http://www.w3.org/2000/svg" xmlns:xlink="http://www.w3.org/1999/xlink" x="0px" y="0px"
	 width="50px" height="50px" viewBox="0 0 50 50" enable-background="new 0 0 50 50" xml:space="preserve">
<path d="M27.178,30.294c-0.275,0-0.5-0.225-0.5-0.5v-0.933h-0.873c-0.276,0-0.5-0.224-0.5-0.5c0-0.275,0.224-0.5,0.5-0.5h0.873
	v-0.814c0-0.276,0.225-0.5,0.5-0.5c0.276,0,0.5,0.224,0.5,0.5v0.814h0.875c0.276,0,0.5,0.225,0.5,0.5c0,0.276-0.224,0.5-0.5,0.5
	h-0.875v0.933C27.678,30.069,27.455,30.294,27.178,30.294z M32.95,22.313l-0.98,1.511h2.544c0.171,0,0.33,0.088,0.423,0.232
	c0.091,0.146,0.103,0.327,0.028,0.481l-3.797,7.993c-0.083,0.174-0.259,0.285-0.452,0.285h-7.592c-0.193,0-0.369-0.11-0.452-0.285
	l-0.401-0.847c-0.842,0.709-1.895,1.152-3.049,1.152c-0.002,0-0.054,0-0.056,0c-2.707-0.031-4.883-2.373-4.851-5.22
	c0.033-2.694,4.418-9.27,4.605-9.548c0.094-0.14,0.261-0.205,0.421-0.222c0.169,0.002,0.325,0.089,0.416,0.231
	c0.116,0.183,1.916,3.024,3.171,5.744h5.225l2.559-3.138c-0.32-0.812-0.211-1.747,0.311-2.46c0.403-0.557,1.002-0.924,1.683-1.031
	c0.68-0.104,1.363,0.058,1.921,0.462c1.15,0.838,1.405,2.453,0.568,3.604C34.676,21.975,33.828,22.376,32.95,22.313z M18.678,31.777
	l0.012-0.963l-1.948-1.696c-0.208-0.182-0.23-0.497-0.048-0.706c0.181-0.208,0.499-0.229,0.706-0.048l1.306,1.138l0.016-1.292
	l-1.947-1.697c-0.208-0.182-0.23-0.498-0.048-0.706c0.183-0.208,0.498-0.229,0.706-0.048l1.305,1.138l0.023-2.002
	c0.003-0.273,0.227-0.494,0.5-0.494c0.002,0,0.004,0,0.006,0c0.276,0.003,0.498,0.23,0.494,0.507l-0.023,1.931l1.342-1.045
	c0.217-0.17,0.531-0.131,0.702,0.087c0.169,0.218,0.13,0.532-0.087,0.702l-1.971,1.535l-0.016,1.324l1.342-1.045
	c0.217-0.17,0.531-0.131,0.702,0.087c0.169,0.219,0.13,0.532-0.087,0.702l-1.972,1.536l-0.013,1.067
	c1.919-0.244,3.436-1.964,3.459-4.068c0.021-1.789-2.453-6.217-3.812-8.443c-1.411,2.193-3.988,6.562-4.01,8.353
	C15.292,29.743,16.764,31.491,18.678,31.777z M33.723,24.824H23.367c0.388,0.944,0.666,1.822,0.742,2.521
	c0.426-1.296,1.634-2.241,3.071-2.241c1.789,0,3.245,1.456,3.245,3.246s-1.456,3.246-3.245,3.246c-1.605,0-2.933-1.173-3.191-2.706
	c-0.177,0.756-0.52,1.438-0.976,2.025l0.428,0.901h6.961L33.723,24.824z M27.178,30.596c1.238,0,2.246-1.008,2.246-2.246
	s-1.008-2.246-2.246-2.246c-1.237,0-2.245,1.007-2.245,2.246S25.94,30.596,27.178,30.596z M32.799,21.289
	c0.606,0.121,1.229-0.122,1.587-0.616c0.513-0.704,0.356-1.693-0.348-2.206c-0.342-0.248-0.759-0.349-1.177-0.283
	c-0.417,0.066-0.783,0.29-1.03,0.632c-0.359,0.494-0.397,1.161-0.096,1.7c0.101,0.179,0.081,0.401-0.049,0.562l-2.243,2.749h1.334
	l1.504-2.317C32.395,21.335,32.598,21.249,32.799,21.289z"/>
</svg>
