<?xml version="1.0" encoding="utf-8"?>
<!-- Generator: Adobe Illustrator 16.0.4, SVG Export Plug-In . SVG Version: 6.00 Build 0)  -->
<!DOCTYPE svg PUBLIC "-//W3C//DTD SVG 1.1//EN" "http://www.w3.org/Graphics/SVG/1.1/DTD/svg11.dtd">
<svg version="1.1" id="Capa_1" xmlns="http://www.w3.org/2000/svg" xmlns:xlink="http://www.w3.org/1999/xlink" x="0px" y="0px"
	 width="20.551px" height="32.464px" viewBox="0 0 20.551 32.464" enable-background="new 0 0 20.551 32.464" xml:space="preserve">
<path d="M14.538,14.792c-0.144,0.058-0.288,0.156-0.476,0.251c-0.379-0.484-0.793-0.938-1.146-1.454
	c0.062-0.157,0.102-0.345,0.193-0.475c0.506-0.12,1.012-0.24,1.121-0.756c-0.424-0.133-1.002-0.025-1.566,0
	c-0.557,0.026-1.174-0.043-1.562,0.168c0.209,0.433,0.849,0.438,1.312,0.614c-0.025,0.251-0.271,0.19-0.449,0.193
	c-1.483,0.031-3.13,0-4.499-0.025c0.1-0.401,0.204-0.801,0.335-1.174C7.73,11.94,7.61,11.789,7.525,11.606
	c0.143-0.426,0.894-0.242,1.425-0.278c-0.012-0.129,0.028-0.308-0.028-0.391c-0.438,0-0.874,0-1.313,0
	c-0.221,0.208-0.424,0.435-0.62,0.671c-0.173-0.111-0.395-0.183-0.645-0.183c-0.154,0-0.294,0.028-0.424,0.073
	c-0.052,0.178-0.089,0.359-0.089,0.55c0,0.254,0.055,0.489,0.142,0.712c0.115,0.032,0.241,0.054,0.371,0.054
	c0.348,0,0.638-0.137,0.809-0.333c-0.034,0.126-0.077,0.261-0.132,0.414c-0.231,0.653-0.563,1.483-0.783,2.037
	c-0.543-0.261-1.067-0.436-1.787-0.391c-2,0.122-3.347,1.703-3.299,3.576c0.049,1.795,1.439,3.409,3.495,3.409
	c1.981,0,3.556-1.612,3.494-3.604c-0.04-1.269-0.656-1.96-1.342-2.683c0.052-0.115,0.092-0.242,0.14-0.362
	c1.172,1.287,2.319,2.599,3.463,3.913c-0.11,0.383,0.183,0.571,0.448,0.67c0.062,0.304,0.133,0.595,0.221,0.867
	c-0.188-0.05-0.225,0.056-0.192,0.226c0.211,0.053,0.603,0.039,0.754-0.058c0.078-0.233-0.144-0.174-0.25-0.226
	c-0.084-0.26-0.106-0.58-0.192-0.838c0.125-0.094,0.211-0.232,0.33-0.337c0.35-0.045,0.655-0.127,1.008-0.168
	c0.521,1.473,1.609,2.6,3.385,2.6c1.955,0,3.502-1.555,3.488-3.521C19.389,15.653,17.032,13.833,14.538,14.792z M6.855,16.301
	c0.357,0.447,0.679,1.044,0.614,1.929c-0.104,1.453-1.28,2.565-2.711,2.627c-1.524,0.062-3.068-1.182-2.934-3.047
	c0.097-1.381,1.156-2.472,2.513-2.601c0.73-0.066,1.263,0.116,1.705,0.393c-0.128,0.649-0.721,1.573-1.313,1.956
	c-0.181,0.117-0.387,0.127-0.418,0.336c-0.093,0.576,0.772,0.574,0.754,0.026c0.655-0.471,1.156-1.096,1.481-1.899
	C6.654,15.967,6.759,16.184,6.855,16.301z M10.852,17.838c-0.045-0.077-0.053-0.19-0.057-0.307
	c-0.042-0.128,0.182,0.016,0.141-0.111c0.021-0.086-0.026-0.103-0.026-0.168c-0.16-0.063-0.439-0.01-0.645-0.024
	c-0.02,0.16,0.019,0.263,0.197,0.224c-0.016,0.153,0.016,0.262,0.027,0.392c-0.08,0.022-0.154-0.093-0.196-0.14
	c-1.019-1.123-2.088-2.387-3.103-3.526c0.026-0.085,0.033-0.191,0.111-0.223c1.611,0,3.223,0,4.833,0
	C11.706,15.247,11.286,16.554,10.852,17.838z M12.443,18.34c-0.362,0.05-0.737,0.085-1.118,0.113
	c0.467-1.379,0.911-2.774,1.368-4.164c0.312,0.328,0.574,0.711,0.896,1.034C12.891,15.999,12.32,16.939,12.443,18.34z
	 M13.952,15.881c0.549,0.602,1.021,1.271,1.508,1.932c-0.778,0.14-1.58,0.265-2.375,0.39C13.086,17.142,13.368,16.361,13.952,15.881
	z M15.823,20.857c-1.312-0.039-2.226-0.83-2.628-2.067c0.755-0.047,1.763-0.42,2.459-0.476c0.322-0.026,0.664,0.05,0.646-0.362
	c-0.014-0.254-0.245-0.265-0.42-0.42c-0.25-0.226-0.459-0.65-0.726-1.006c-0.252-0.335-0.545-0.66-0.729-0.979
	c0.492-0.218,0.996-0.389,1.732-0.337c1.484,0.106,2.688,1.403,2.568,3.021C18.618,19.792,17.271,20.898,15.823,20.857z"/>
</svg>
