<?xml version="1.0" encoding="utf-8"?>
<!-- Generator: Adobe Illustrator 16.0.4, SVG Export Plug-In . SVG Version: 6.00 Build 0)  -->
<!DOCTYPE svg PUBLIC "-//W3C//DTD SVG 1.1//EN" "http://www.w3.org/Graphics/SVG/1.1/DTD/svg11.dtd">
<svg version="1.1" id="Layer_1" xmlns="http://www.w3.org/2000/svg" xmlns:xlink="http://www.w3.org/1999/xlink" x="0px" y="0px"
	 width="50px" height="50px" viewBox="0 0 50 50" enable-background="new 0 0 50 50" xml:space="preserve">
<path d="M33.751,22c-0.859,0-1.67,0.207-2.393,0.564l-2.67-4.398h2.938c0.275,0,0.5-0.224,0.5-0.5s-0.225-0.5-0.5-0.5h-3.75
	c-0.275,0-0.5,0.224-0.5,0.5c0,0.021,0.01,0.039,0.012,0.06c-0.015,0.109,0,0.223,0.062,0.325l0.905,1.491h-7.896
	c-0.019,0-0.034,0.012-0.054,0.014l-0.842-1.389h1.688c0.275,0,0.5-0.224,0.5-0.5s-0.225-0.5-0.5-0.5h-4.25
	c-0.275,0-0.5,0.224-0.5,0.5s0.225,0.5,0.5,0.5h1.393l1.312,2.163l-1.27,2.135C17.767,22.168,17.028,22,16.25,22
	c-2.987,0-5.417,2.43-5.417,5.417c0,2.987,2.43,5.417,5.417,5.417c2.774,0,5.065-2.1,5.378-4.792h3.04
	c0.091,0,0.179-0.026,0.253-0.071c0.002-0.001,0.005,0,0.007-0.002c0.067-0.041,0.117-0.097,0.157-0.158
	c0.003-0.006,0.01-0.008,0.014-0.014l4.088-6.88l1.319,2.173c-1.315,0.989-2.173,2.559-2.173,4.327c0,2.987,2.43,5.417,5.417,5.417
	s5.417-2.43,5.417-5.417S36.737,22,33.751,22z M20.294,21.297l3.486,5.744h-2.131c-0.117-1.696-1.015-3.18-2.338-4.09L20.294,21.297
	z M20.63,27.042h-3.749l1.915-3.223C19.827,24.55,20.517,25.713,20.63,27.042z M16.251,31.833c-2.436,0-4.417-1.981-4.417-4.417
	c0-2.435,1.981-4.417,4.417-4.417c0.592,0,1.154,0.121,1.671,0.333l-2.351,3.953c-0.092,0.154-0.094,0.346-0.004,0.502
	c0.088,0.156,0.254,0.253,0.435,0.253h4.603C20.298,30.179,18.474,31.833,16.251,31.833z M24.665,26.57l-3.66-6.029h7.242
	L24.665,26.57z M33.751,31.833c-2.436,0-4.417-1.981-4.417-4.417c0-1.406,0.673-2.647,1.701-3.457l2.331,3.841
	c0.095,0.155,0.259,0.241,0.428,0.241c0.089,0,0.18-0.023,0.26-0.073c0.235-0.143,0.311-0.45,0.168-0.687l-2.339-3.854
	c0.569-0.268,1.198-0.429,1.868-0.429c2.436,0,4.417,1.981,4.417,4.417C38.168,29.852,36.187,31.833,33.751,31.833z"/>
</svg>
