<?xml version="1.0" encoding="utf-8"?>
<!-- Generator: Adobe Illustrator 16.0.4, SVG Export Plug-In . SVG Version: 6.00 Build 0)  -->
<!DOCTYPE svg PUBLIC "-//W3C//DTD SVG 1.1//EN" "http://www.w3.org/Graphics/SVG/1.1/DTD/svg11.dtd">
<svg version="1.1" id="Layer_1" xmlns="http://www.w3.org/2000/svg" xmlns:xlink="http://www.w3.org/1999/xlink" x="0px" y="0px"
	 width="50px" height="50px" viewBox="0 0 50 50" enable-background="new 0 0 50 50" xml:space="preserve">
<path d="M20.512,21.347c-4.49,0-8.144,3.653-8.144,8.144c0,4.489,3.653,8.143,8.144,8.143c4.489,0,8.143-3.653,8.143-8.143
	C28.654,25,25.001,21.347,20.512,21.347z M20.512,37.242c-4.275,0-7.754-3.478-7.754-7.752c0-4.276,3.479-7.754,7.754-7.754
	c4.274,0,7.752,3.479,7.752,7.754C28.264,33.764,24.786,37.242,20.512,37.242z M20.512,26.865c-1.447,0-2.625,1.178-2.625,2.625
	c0,1.446,1.178,2.625,2.625,2.625s2.625-1.178,2.625-2.625C23.137,28.041,21.959,26.865,20.512,26.865z M20.512,30.557
	c-0.59,0-1.068-0.479-1.068-1.066c0-0.589,0.479-1.068,1.068-1.068s1.067,0.479,1.067,1.068
	C21.579,30.078,21.102,30.557,20.512,30.557z M39.527,14.121C39.823,13.695,40,13.182,40,12.625C40,11.178,38.822,10,37.375,10
	c-0.479,0-0.921,0.138-1.309,0.362l-0.002-0.005l-19.967,9.589l0.006,0.012C12.505,21.629,10,25.268,10,29.488
	C10,35.283,14.715,40,20.512,40c4.164,0,7.76-2.44,9.459-5.961l0.014,0.006L39.527,14.121z M37.266,15.24l-6.302,13.155
	c-0.513-4.926-4.44-8.852-9.366-9.359l13.16-6.321C34.805,14.083,35.898,15.182,37.266,15.24z M38.441,12.625
	c0,0.256-0.094,0.488-0.243,0.672l-0.003-0.001l-0.006,0.011c-0.196,0.233-0.486,0.385-0.814,0.385c-0.59,0-1.068-0.479-1.068-1.067
	s0.479-1.067,1.068-1.067S38.441,12.038,38.441,12.625z M20.512,38.442c-4.938,0-8.953-4.017-8.953-8.954
	c0-4.938,4.017-8.954,8.953-8.954c4.938,0,8.953,4.017,8.953,8.954C29.465,34.426,25.448,38.442,20.512,38.442z M19.57,24.288
	c0-0.52,0.421-0.941,0.939-0.941c0.52,0,0.94,0.421,0.94,0.941s-0.421,0.94-0.94,0.94C19.991,25.228,19.57,24.807,19.57,24.288z
	 M21.451,34.928c0,0.52-0.422,0.941-0.939,0.941c-0.52,0-0.941-0.422-0.941-0.941s0.422-0.941,0.941-0.941
	C21.029,33.986,21.451,34.408,21.451,34.928z M26.771,29.607c0,0.52-0.42,0.939-0.94,0.939s-0.94-0.42-0.94-0.939
	s0.422-0.939,0.94-0.939C26.352,28.668,26.771,29.088,26.771,29.607z M16.132,29.607c0,0.52-0.422,0.939-0.94,0.939
	c-0.52,0-0.94-0.42-0.94-0.939s0.421-0.939,0.94-0.939C15.71,28.668,16.132,29.088,16.132,29.607z"/>
</svg>
