<?xml version="1.0" encoding="utf-8"?>
<!-- Generator: Adobe Illustrator 16.0.0, SVG Export Plug-In . SVG Version: 6.00 Build 0)  -->
<!DOCTYPE svg PUBLIC "-//W3C//DTD SVG 1.1//EN" "http://www.w3.org/Graphics/SVG/1.1/DTD/svg11.dtd">
<svg version="1.1" id="Layer_1" xmlns="http://www.w3.org/2000/svg" xmlns:xlink="http://www.w3.org/1999/xlink" x="0px" y="0px"
	 width="96px" height="96px" viewBox="0 0 96 96" enable-background="new 0 0 96 96" xml:space="preserve">
<g>
	<path d="M80.864,15.146C72.116,6.375,60.465,1.545,48.056,1.545c-12.414,0-24.085,4.829-32.861,13.598
		C6.407,23.922,1.567,35.613,1.567,48.059c0,25.583,20.855,46.396,46.489,46.396c12.402,0,24.053-4.824,32.806-13.583
		c8.752-8.757,13.571-20.411,13.571-32.813C94.433,35.607,89.615,23.918,80.864,15.146z M48.056,89.798
		c-23.066,0-41.833-18.724-41.833-41.739c0-23.081,18.766-41.857,41.833-41.857c23.005,0,41.72,18.777,41.72,41.857
		C89.776,71.074,71.061,89.798,48.056,89.798z"/>
	<path d="M61.849,52.93c0,1.506,1.558,1.621,2.448,1.506c1.78-0.347,3.559-1.855,4.004-4.986c-1.224,0.695-2.335,0.929-3.67,1.16
		C63.295,50.841,61.849,51.421,61.849,52.93z"/>
	<path d="M48.056,8.048c-22.025,0-39.935,17.858-39.935,40.011c0,22.034,17.91,39.893,39.935,39.893
		c22.024,0,39.934-17.859,39.934-39.893C87.99,25.907,70.08,8.048,48.056,8.048z M32.595,44.115c-0.334-0.462-1.002-0.58-1.893-0.58
		c-3.336,0-4.227,4.524-4.227,6.495c0,2.089,0.445,3.942,2.67,3.942c2.002,0,2.892-1.971,3.337-3.13h7.341
		c-1.334,6.03-5.005,8.93-10.79,8.93c-8.565,0-10.233-5.682-10.233-9.626c0-7.191,4.449-12.524,12.125-12.524
		c5.563,0,9.79,2.667,9.678,8.582h-7.453C33.262,45.159,33.04,44.579,32.595,44.115z M52.172,59.191c0,0-2.003,0.116-3.227,0.116
		c-1.557,0.116-3.781,0.233-5.005-0.464c-1.334-0.812-1.89-2.436-1.89-3.941c0-1.045,0.222-1.856,0.445-2.783l1.779-8.351h-3.337
		l1.001-4.871h3.337l1.223-6.146h7.564l-1.334,6.146h4.003l-1,4.871h-3.783l-1.334,6.611c0,0.347-0.223,1.275-0.223,1.971
		c0,0.696,0.778,1.044,1.223,1.044c0.91,0,1.511,0,1.669,0L52.172,59.191z M74.197,59.191h-7.342l0.445-2.204h-0.111
		c-1.333,1.74-4.004,2.553-6.229,2.553c-3.56,0-6.674-1.509-6.674-5.568c0-5.566,4.005-7.537,9.9-8.002
		c2.112-0.115,5.672-0.695,6.006-2.202c0.223-1.391-1.445-1.508-2.558-1.391c-1.557,0-2.446,0.578-3.226,1.622h-7.342
		c1.781-4.755,5.339-6.61,10.345-6.61c3.671,0,9.9,0.58,9.9,5.684C77.311,46.319,74.197,59.191,74.197,59.191z M79.203,60.002
		c-1.113,0-2.114-0.811-2.114-2.086c0-1.161,1.001-2.087,2.114-2.087c1.111,0,2.113,0.926,2.113,2.087
		C81.315,59.191,80.314,60.002,79.203,60.002z"/>
	<path d="M79.203,56.176c-0.89,0-1.669,0.811-1.669,1.74c0,1.044,0.779,1.74,1.669,1.74c1,0,1.668-0.695,1.668-1.74
		C80.871,56.987,80.203,56.176,79.203,56.176z M80.203,59.191h-0.334v0l-0.667-1.044h-0.445v1.044h-0.333v-2.436h0.89
		c0.555,0,0.889,0.231,0.889,0.695c0,0.35-0.334,0.58-0.667,0.695L80.203,59.191z"/>
	<path d="M79.314,56.987h-0.557v0.813h0.445c0.333,0,0.556,0,0.556-0.35C79.758,57.105,79.536,56.987,79.314,56.987z"/>
</g>
</svg>
