<?xml version="1.0" encoding="utf-8"?>
<!-- Generator: Adobe Illustrator 16.0.0, SVG Export Plug-In . SVG Version: 6.00 Build 0)  -->
<!DOCTYPE svg PUBLIC "-//W3C//DTD SVG 1.1//EN" "http://www.w3.org/Graphics/SVG/1.1/DTD/svg11.dtd">
<svg version="1.1" id="Layer_2" xmlns="http://www.w3.org/2000/svg" xmlns:xlink="http://www.w3.org/1999/xlink" x="0px" y="0px"
	 width="96px" height="96px" viewBox="0 0 96 96" enable-background="new 0 0 96 96" xml:space="preserve">
<g>
	<path d="M45.837,58.557c2.518-0.432,5.174-1.447,7.229-2.761c1.279-0.818,3.217-2.432,3.785-3.149l0.436-0.551H42.2
		c-14.678,0-15.117-0.01-16.227-0.316c-0.628-0.174-1.472-0.484-1.877-0.689c-0.871-0.439-1.84-1.46-1.968-2.068
		c-0.286-1.354,0.289-2.575,0.962-3.842c1.858-3.169,5.979-7.031,10.341-9.69c1.817-1.107,5.332-2.81,7.341-3.554
		c2.835-1.05,5.53-1.737,9.099-2.321c1.948-0.319,2.66-0.335,18.337-0.418c8.97-0.048,16.626-0.164,16.626-0.164l0.066-7.028
		l-19.385,0.058c-21.105,0.063-20.222,0.029-24.838,0.977c-9.911,2.034-21.873,8.654-29.697,16.435
		c-3.428,3.409-7.527,8.952-8.723,11.799c-0.653,1.552-1.079,3.307-1.081,4.446c-0.001,0.81,0.052,0.955,0.556,1.513
		c0.543,0.601,1.538,1.089,2.859,1.402c0.306,0.072,9.4,0.139,20.21,0.148C41.772,58.794,44.643,58.763,45.837,58.557z"/>
	<path d="M94.269,38.771c-0.544-0.602-1.538-1.09-2.859-1.402c-0.306-0.073-9.4-0.139-20.21-0.148
		c-16.971-0.014-19.841,0.018-21.038,0.224c-2.515,0.433-5.172,1.448-7.227,2.762c-1.279,0.818-3.217,2.432-3.785,3.15l-0.436,0.549
		h15.087c14.676,0,15.117,0.01,16.226,0.317c0.628,0.174,1.473,0.484,1.877,0.688c0.87,0.44,1.839,1.46,1.969,2.069
		c0.285,1.354-0.289,2.574-0.964,3.842c-1.857,3.168-5.978,7.031-10.339,9.69c-1.819,1.107-5.332,2.81-7.341,3.553
		c-2.836,1.05-5.531,1.738-9.101,2.322c-1.946,0.318-2.658,0.335-18.335,0.418c-8.97,0.048-16.627,0.163-16.627,0.163l-0.066,7.028
		l19.384-0.058c21.106-0.063,20.223-0.028,24.84-0.976c9.909-2.035,21.873-8.654,29.697-16.436
		c3.428-3.408,7.526-8.952,8.723-11.798c0.652-1.552,1.079-3.307,1.08-4.447C94.826,39.474,94.772,39.328,94.269,38.771z"/>
</g>
</svg>
