<?xml version="1.0" encoding="utf-8"?>
<!-- Generator: Adobe Illustrator 17.0.0, SVG Export Plug-In . SVG Version: 6.00 Build 0)  -->
<!DOCTYPE svg PUBLIC "-//W3C//DTD SVG 1.1//EN" "http://www.w3.org/Graphics/SVG/1.1/DTD/svg11.dtd">
<svg version="1.1" id="Capa_1" xmlns="http://www.w3.org/2000/svg" xmlns:xlink="http://www.w3.org/1999/xlink" x="0px" y="0px"
	 width="10.175px" height="14.751px" viewBox="0 0 10.175 14.751" enable-background="new 0 0 10.175 14.751" xml:space="preserve">
<path d="M9.754,11.604v2.537H0.421v-1.658c1.086-0.449,2.271-1.616,2.271-3.009c0-0.287,0-0.552-0.041-0.819H0.644V6.527h1.64
	C2.18,6.014,2.12,5.44,2.12,4.867c0-2.557,1.862-4.257,4.626-4.257c1.105,0,1.943,0.245,2.395,0.492L8.648,3.456
	c-0.41-0.225-0.983-0.368-1.739-0.368c-1.454,0-1.904,0.921-1.904,1.923c0,0.534,0.084,1.005,0.206,1.517h2.804v2.128H5.477
	c0.021,0.492-0.04,0.982-0.185,1.453c-0.183,0.513-0.511,1.024-1.002,1.453v0.042H9.754z"/>
</svg>
