<?xml version="1.0" encoding="utf-8"?>
<!-- Generator: Adobe Illustrator 16.0.4, SVG Export Plug-In . SVG Version: 6.00 Build 0)  -->
<!DOCTYPE svg PUBLIC "-//W3C//DTD SVG 1.1//EN" "http://www.w3.org/Graphics/SVG/1.1/DTD/svg11.dtd">
<svg version="1.1" id="Layer_1" xmlns="http://www.w3.org/2000/svg" xmlns:xlink="http://www.w3.org/1999/xlink" x="0px" y="0px"
	 width="50px" height="50px" viewBox="0 0 50 50" enable-background="new 0 0 50 50" xml:space="preserve">
<path d="M37.128,21.25c-1.813-0.752-3.507-0.574-4.794,0.479v-1.282c0.275,0.069,0.745,0.162,1.293,0.162
	c0.755,0,1.419-0.172,1.975-0.512c1.516-0.927,2-2.99,2.021-3.077c0.057-0.25-0.084-0.502-0.326-0.585
	c-0.028-0.009-0.7-0.234-1.553-0.234c-0.754,0-1.417,0.172-1.972,0.511c-0.663,0.407-1.12,1.029-1.438,1.609v-1.79
	c0-0.276-0.224-0.5-0.5-0.5s-0.5,0.224-0.5,0.5v5.201c-0.385-0.315-0.806-0.552-1.255-0.708c0.297-1.24,0.492-2.256,0.593-3.606
	c0.014-0.195-0.086-0.381-0.258-0.476c-3.062-1.688-6.632-2.58-10.327-2.58c-3.696,0-7.268,0.893-10.326,2.581
	c-0.172,0.095-0.271,0.28-0.258,0.475c0.568,7.653,4.431,14.289,10.331,17.751c0.078,0.045,0.165,0.068,0.253,0.068
	s0.175-0.023,0.253-0.068c1.692-0.994,3.229-2.281,4.592-3.809c1.458,2.348,3.597,4.276,5.542,4.276
	c0.361,0,0.706-0.067,1.023-0.199c0.111-0.045,0.223-0.103,0.336-0.172c0.113,0.069,0.224,0.126,0.334,0.171
	c0.32,0.133,0.666,0.2,1.026,0.2c2.649,0,5.664-3.578,6.816-6.919C41.215,25.229,40.164,22.506,37.128,21.25z M34.293,17.564
	c0.395-0.242,0.882-0.364,1.449-0.364c0.287,0,0.551,0.032,0.76,0.069c-0.227,0.619-0.688,1.525-1.422,1.975
	c-0.396,0.241-0.885,0.364-1.453,0.364c-0.285,0-0.547-0.032-0.755-0.069C33.079,18.973,33.52,18.039,34.293,17.564z M20.087,34.154
	c-5.394-3.287-8.943-9.41-9.561-16.489c2.849-1.508,6.146-2.304,9.561-2.304c3.412,0,6.71,0.796,9.561,2.303
	c-0.104,1.141-0.284,2.055-0.55,3.158c-0.446-0.041-0.913-0.015-1.395,0.081c0.183-0.702,0.285-1.273,0.398-2.046
	c0.032-0.223-0.088-0.44-0.295-0.531c-2.295-1.001-4.904-1.505-7.521-1.53c-0.062-0.026-0.129-0.043-0.2-0.043
	s-0.139,0.017-0.2,0.043c-2.615,0.025-5.225,0.529-7.521,1.53c-0.206,0.091-0.327,0.309-0.295,0.531
	c0.82,5.581,3.636,10.477,7.723,13.428c0.009,0.006,0.021,0.004,0.03,0.01c0.078,0.05,0.164,0.084,0.263,0.084
	s0.185-0.035,0.263-0.084c0.01-0.006,0.021-0.004,0.03-0.01c1.25-0.902,2.382-2.006,3.39-3.268c0.182,0.479,0.396,0.959,0.644,1.432
	C23.131,31.933,21.682,33.183,20.087,34.154z M23.418,27.844c-0.842,1.142-1.792,2.145-2.831,3.003v-6.968h3.06
	C23.131,24.99,23.048,26.33,23.418,27.844z M14.514,23.878h5.073v6.956C17.418,29.043,15.683,26.648,14.514,23.878z M19.587,22.878
	h-5.477c-0.438-1.208-0.773-2.473-0.99-3.784c1.994-0.813,4.224-1.233,6.467-1.29V22.878L19.587,22.878z M24.268,22.896
	c-0.028-0.005-0.057-0.018-0.088-0.018h-3.593v-5.074c2.245,0.056,4.477,0.476,6.468,1.29c-0.116,0.749-0.233,1.305-0.479,2.145
	c-0.013,0.005-0.024,0.007-0.037,0.013C25.568,21.651,24.824,22.218,24.268,22.896z M39.065,28.393
	c-1.262,3.652-4.594,6.915-6.521,6.119c-0.121-0.049-0.249-0.129-0.401-0.249c-0.091-0.072-0.199-0.108-0.311-0.108
	c-0.109,0-0.22,0.036-0.311,0.108c-0.148,0.118-0.28,0.198-0.406,0.251c-1.884,0.779-5.254-2.469-6.516-6.121
	c-0.059-0.169-0.104-0.33-0.148-0.491c-0.006-0.044-0.022-0.085-0.039-0.127c-0.913-3.367,0.825-4.903,2.508-5.6
	c1.849-0.766,3.422-0.396,4.506,1.113c0.007,0.009,0.02,0.013,0.025,0.021c0.033,0.04,0.072,0.072,0.116,0.101
	c0.019,0.012,0.032,0.025,0.052,0.035c0.064,0.03,0.136,0.051,0.213,0.051s0.148-0.021,0.213-0.052
	c0.02-0.009,0.033-0.022,0.05-0.033c0.045-0.028,0.085-0.062,0.119-0.103c0.007-0.009,0.019-0.012,0.024-0.021
	c1.081-1.51,2.655-1.879,4.505-1.112C38.528,22.912,40.378,24.589,39.065,28.393z M31.333,33.039c0,0.276-0.224,0.5-0.5,0.5
	c-0.81,0-1.755-0.779-2.247-1.246c-1.229-1.164-2.26-2.777-2.829-4.431c-0.09-0.261,0.049-0.546,0.311-0.636
	c0.261-0.092,0.546,0.049,0.636,0.311c0.511,1.482,1.472,2.988,2.571,4.029c0.811,0.77,1.361,0.973,1.56,0.973
	C31.109,32.539,31.333,32.764,31.333,33.039z"/>
</svg>
