<?xml version="1.0" encoding="utf-8"?>
<!-- Generator: Adobe Illustrator 16.0.4, SVG Export Plug-In . SVG Version: 6.00 Build 0)  -->
<!DOCTYPE svg PUBLIC "-//W3C//DTD SVG 1.1//EN" "http://www.w3.org/Graphics/SVG/1.1/DTD/svg11.dtd">
<svg version="1.1" id="Layer_1" xmlns="http://www.w3.org/2000/svg" xmlns:xlink="http://www.w3.org/1999/xlink" x="0px" y="0px"
	 width="50px" height="50px" viewBox="0 0 50 50" enable-background="new 0 0 50 50" xml:space="preserve">
<path d="M31.025,24.852c-0.579-0.24-1.142-0.35-1.672-0.34c0.208-0.063,0.409-0.138,0.589-0.248
	c1.144-0.701,1.507-2.247,1.521-2.312c0.058-0.25-0.084-0.502-0.325-0.584c-0.021-0.007-0.528-0.177-1.167-0.177
	c-0.571,0-1.075,0.131-1.498,0.39c-0.347,0.212-0.612,0.502-0.828,0.804v-0.817c0-0.276-0.225-0.5-0.5-0.5
	c-0.276,0-0.5,0.224-0.5,0.5v3.489c-0.327-0.224-0.685-0.377-1.063-0.462v-4.616c0-0.174-0.089-0.335-0.239-0.426l-1.62-0.993
	v-3.579c0-0.276-0.224-0.5-0.5-0.5h-4.416c-0.276,0-0.5,0.224-0.5,0.5v3.58l-1.619,0.992c-0.148,0.091-0.239,0.252-0.239,0.426
	v12.474c0,0.275,0.224,0.5,0.5,0.5h5.489c1.051,1.453,2.441,2.566,3.724,2.566c0.279,0,0.546-0.053,0.792-0.154
	c0.064-0.026,0.127-0.057,0.191-0.092c0.062,0.035,0.125,0.064,0.188,0.091c0.249,0.103,0.517,0.155,0.795,0.155
	c1.977,0,4.212-2.635,5.061-5.096C34.086,27.823,33.297,25.792,31.025,24.852z M28.995,22.434c0.351-0.215,0.897-0.274,1.332-0.22
	c-0.16,0.39-0.448,0.917-0.906,1.198c-0.352,0.214-0.896,0.275-1.333,0.221C28.248,23.243,28.536,22.715,28.995,22.434z
	 M28.442,24.655c0.012,0,0.021-0.004,0.033-0.004c-0.293,0.09-0.57,0.228-0.829,0.405v-0.484
	C27.854,24.614,28.13,24.655,28.442,24.655z M19.309,15.481h3.416v2.625h-3.416V15.481z M17.451,31.953V28.23h2.029
	c0.276,0,0.5-0.224,0.5-0.5c0-0.275-0.224-0.5-0.5-0.5h-2.029v-2.688h2.029c0.276,0,0.5-0.224,0.5-0.5s-0.224-0.5-0.5-0.5h-2.029
	v-3.284l1.882-1.153h3.368l1.881,1.153v4.271c-0.425,0.035-0.866,0.135-1.317,0.323c-2.272,0.94-3.06,2.971-2.161,5.572
	c0.176,0.511,0.415,1.028,0.696,1.529L17.451,31.953L17.451,31.953z M32.242,30.098c-0.871,2.523-3.229,4.872-4.529,4.342
	c-0.074-0.031-0.156-0.082-0.258-0.162c-0.091-0.072-0.2-0.107-0.31-0.107c-0.11,0-0.22,0.036-0.311,0.107
	c-0.1,0.078-0.183,0.13-0.262,0.162c-1.28,0.533-3.654-1.814-4.525-4.342c-0.915-2.646,0.365-3.812,1.599-4.322
	c1.274-0.527,2.346-0.28,3.092,0.758c0.007,0.009,0.018,0.013,0.025,0.021c0.033,0.041,0.072,0.072,0.116,0.102
	c0.019,0.012,0.032,0.025,0.052,0.035c0.064,0.031,0.136,0.051,0.213,0.051l0,0c0.001,0,0.001,0,0.002,0
	c0.076,0,0.146-0.021,0.21-0.051c0.019-0.01,0.034-0.023,0.051-0.035c0.044-0.028,0.083-0.061,0.117-0.1
	c0.007-0.01,0.019-0.014,0.025-0.022c0.743-1.039,1.815-1.284,3.092-0.757C31.877,26.286,33.156,27.45,32.242,30.098z
	 M26.922,33.503c0,0.276-0.224,0.5-0.5,0.5c-0.602,0-1.267-0.51-1.719-0.938h-0.001c-0.904-0.857-1.662-2.043-2.08-3.258
	c-0.09-0.262,0.049-0.546,0.31-0.636c0.259-0.091,0.545,0.048,0.635,0.31c0.362,1.052,1.043,2.119,1.822,2.858c0,0,0,0,0.001,0
	c0.576,0.545,0.939,0.665,1.031,0.665C26.698,33.003,26.922,33.227,26.922,33.503z"/>
</svg>
