<?xml version="1.0" encoding="utf-8"?>
<!-- Generator: Adobe Illustrator 16.0.4, SVG Export Plug-In . SVG Version: 6.00 Build 0)  -->
<!DOCTYPE svg PUBLIC "-//W3C//DTD SVG 1.1//EN" "http://www.w3.org/Graphics/SVG/1.1/DTD/svg11.dtd">
<svg version="1.1" id="Layer_1" xmlns="http://www.w3.org/2000/svg" xmlns:xlink="http://www.w3.org/1999/xlink" x="0px" y="0px"
	 width="50px" height="50px" viewBox="0 0 50 50" enable-background="new 0 0 50 50" xml:space="preserve">
<path d="M30.644,23.91c-0.579-0.24-1.142-0.35-1.673-0.34c0.208-0.063,0.409-0.138,0.589-0.248c1.145-0.701,1.507-2.247,1.522-2.312
	c0.057-0.25-0.084-0.502-0.326-0.584c-0.02-0.006-0.409-0.128-0.925-0.163v-4.338c0-0.276-0.225-0.5-0.5-0.5h-12
	c-0.276,0-0.5,0.224-0.5,0.5v16.5c0,0.277,0.224,0.5,0.5,0.5h5.473c0.917,0.98,1.979,1.652,2.976,1.652
	c0.279,0,0.547-0.053,0.793-0.154c0.063-0.026,0.127-0.057,0.19-0.092c0.063,0.035,0.125,0.064,0.188,0.09
	c0.249,0.104,0.516,0.156,0.795,0.156c1.976,0,4.211-2.635,5.06-5.096C33.703,26.879,32.915,24.849,30.644,23.91z M27.264,23.628
	c0.208,0.042,0.485,0.083,0.796,0.083c0.012,0,0.021-0.004,0.033-0.004c-0.293,0.09-0.57,0.228-0.829,0.404V23.628z M29.039,22.468
	c-0.352,0.214-0.898,0.274-1.333,0.221c0.16-0.39,0.447-0.917,0.906-1.199c0.351-0.214,0.897-0.273,1.332-0.22
	C29.785,21.661,29.497,22.188,29.039,22.468z M20.331,16.424v2.333h-2.499v-2.333H20.331z M17.832,31.924V19.757h2.999
	c0.276,0,0.5-0.224,0.5-0.5v-2.833h7.5v3.916c-0.268,0.065-0.517,0.161-0.74,0.297c-0.345,0.212-0.612,0.502-0.828,0.804v-0.817
	c0-0.276-0.224-0.5-0.5-0.5s-0.5,0.224-0.5,0.5v3.488c-0.938-0.642-2.123-0.726-3.381-0.204c-2.272,0.94-3.06,2.97-2.161,5.572
	c0.287,0.832,0.734,1.682,1.274,2.443H17.832L17.832,31.924z M31.859,29.156c-0.871,2.521-3.229,4.875-4.528,4.34
	c-0.075-0.031-0.157-0.082-0.258-0.162c-0.092-0.072-0.2-0.106-0.311-0.106s-0.219,0.036-0.31,0.106
	c-0.101,0.08-0.184,0.131-0.263,0.164c-1.276,0.531-3.654-1.816-4.525-4.342c-0.915-2.648,0.365-3.813,1.599-4.323
	c1.274-0.529,2.346-0.281,3.092,0.756c0.007,0.01,0.019,0.014,0.025,0.022c0.034,0.041,0.073,0.072,0.117,0.101
	c0.018,0.013,0.031,0.025,0.051,0.035c0.065,0.031,0.136,0.051,0.213,0.051l0,0c0.001,0,0.001,0,0.002,0
	c0.076,0,0.146-0.021,0.21-0.051c0.02-0.008,0.034-0.022,0.052-0.035c0.044-0.027,0.083-0.06,0.116-0.1
	c0.007-0.009,0.02-0.013,0.026-0.021c0.744-1.039,1.813-1.285,3.091-0.757C31.495,25.343,32.773,26.508,31.859,29.156z
	 M26.54,32.561c0,0.275-0.225,0.5-0.5,0.5c-0.603,0-1.268-0.51-1.721-0.938l-0.001-0.002c-0.904-0.856-1.662-2.043-2.08-3.258
	c-0.09-0.261,0.049-0.545,0.31-0.635c0.258-0.092,0.545,0.048,0.635,0.311c0.362,1.051,1.043,2.119,1.822,2.857c0,0,0,0,0.001,0
	c0.578,0.545,0.94,0.665,1.033,0.665C26.315,32.061,26.54,32.283,26.54,32.561z"/>
</svg>
