<?xml version="1.0" encoding="utf-8"?>
<!-- Generator: Adobe Illustrator 16.0.4, SVG Export Plug-In . SVG Version: 6.00 Build 0)  -->
<!DOCTYPE svg PUBLIC "-//W3C//DTD SVG 1.1//EN" "http://www.w3.org/Graphics/SVG/1.1/DTD/svg11.dtd">
<svg version="1.1" id="Layer_1" xmlns="http://www.w3.org/2000/svg" xmlns:xlink="http://www.w3.org/1999/xlink" x="0px" y="0px"
	 width="50px" height="50px" viewBox="0 0 50 50" enable-background="new 0 0 50 50" xml:space="preserve">
<path d="M39.999,30.835h-1.136v-9.638h-8.274c0.639-0.224,1.229-0.57,1.721-1.062l0.354-0.354l-2.862-2.865l2.161-2.162
	l-0.707-0.707l-2.161,2.163l-2.863-2.864l-0.354,0.354c-1.774,1.774-1.774,4.662-0.002,6.437c0.492,0.492,1.082,0.84,1.722,1.062
	h-7.57l-3.25,5.606h-5.902v4.031H9.999v2h0.873v1.462h3.965c0.238,1.337,1.403,2.357,2.809,2.357c1.404,0,2.568-1.021,2.808-2.357
	h8.743c0.236,1.337,1.402,2.357,2.807,2.357c1.405,0,2.571-1.021,2.811-2.357h4.052v-1.462h1.136v-2H39.999z M26.254,14.785
	l4.972,4.972c-1.357,1.021-3.422,0.892-4.645-0.329C25.317,18.162,25.209,16.175,26.254,14.785z M17.646,35.654
	c-1.025,0-1.859-0.832-1.859-1.856s0.834-1.858,1.859-1.858c1.023,0,1.856,0.834,1.856,1.858S18.67,35.654,17.646,35.654z
	 M32.002,35.654c-1.024,0-1.856-0.832-1.856-1.856s0.832-1.858,1.856-1.858s1.86,0.834,1.86,1.858S33.026,35.654,32.002,35.654z
	 M37.863,33.297h-3.052c-0.238-1.338-1.403-2.358-2.811-2.358c-1.404,0-2.568,1.021-2.807,2.358h-8.743
	c-0.237-1.338-1.402-2.358-2.808-2.358c-1.406,0-2.57,1.021-2.809,2.358H11.87v-5.493h5.479l3.25-5.606H37.86v11.1H37.863z
	 M18.751,27.746l2.531-4.367h3.761v4.367H18.751z"/>
</svg>
