<?xml version="1.0" encoding="utf-8"?>
<!-- Generator: Adobe Illustrator 16.0.4, SVG Export Plug-In . SVG Version: 6.00 Build 0)  -->
<!DOCTYPE svg PUBLIC "-//W3C//DTD SVG 1.1//EN" "http://www.w3.org/Graphics/SVG/1.1/DTD/svg11.dtd">
<svg version="1.1" id="Layer_1" xmlns="http://www.w3.org/2000/svg" xmlns:xlink="http://www.w3.org/1999/xlink" x="0px" y="0px"
	 width="50px" height="50px" viewBox="0 0 50 50" enable-background="new 0 0 50 50" xml:space="preserve">
<g>
	<path d="M39.999,26.91h-1.136v-9.638H20.024l-3.249,5.606h-5.903v4.032H9.999v2h0.873v1.461h3.965
		c0.238,1.338,1.403,2.357,2.809,2.357c1.404,0,2.568-1.021,2.808-2.357h8.743c0.236,1.338,1.401,2.357,2.807,2.357
		s2.571-1.021,2.811-2.357h4.052V28.91h1.136v-2H39.999z M17.646,31.73c-1.025,0-1.859-0.834-1.859-1.857s0.834-1.857,1.859-1.857
		c1.023,0,1.856,0.834,1.856,1.857S18.67,31.73,17.646,31.73z M32.002,31.73c-1.024,0-1.856-0.834-1.856-1.857
		s0.832-1.857,1.856-1.857c1.025,0,1.86,0.834,1.86,1.857S33.027,31.73,32.002,31.73z M37.863,29.373h-3.052
		c-0.238-1.338-1.403-2.359-2.811-2.359c-1.404,0-2.569,1.021-2.807,2.359h-8.743c-0.237-1.338-1.402-2.359-2.808-2.359
		s-2.57,1.021-2.809,2.359H11.87v-5.494h5.479l3.249-5.606h17.264v11.1H37.863z"/>
	<polygon points="25.043,23.822 25.043,19.455 21.282,19.455 18.751,23.822 	"/>
	<rect x="26.005" y="19.455" width="4.973" height="4.367"/>
	<rect x="31.876" y="19.455" width="4.972" height="4.367"/>
</g>
</svg>
