<?xml version="1.0" encoding="utf-8"?>
<!-- Generator: Adobe Illustrator 16.0.4, SVG Export Plug-In . SVG Version: 6.00 Build 0)  -->
<!DOCTYPE svg PUBLIC "-//W3C//DTD SVG 1.1//EN" "http://www.w3.org/Graphics/SVG/1.1/DTD/svg11.dtd">
<svg version="1.1" id="Layer_1" xmlns="http://www.w3.org/2000/svg" xmlns:xlink="http://www.w3.org/1999/xlink" x="0px" y="0px"
	 width="50px" height="50px" viewBox="0 0 50 50" enable-background="new 0 0 50 50" xml:space="preserve">
<path d="M36.206,19.749c-1.562,0-2.832,1.271-2.832,2.832v3.282c-0.516-0.159-1.057-0.209-1.591-0.146v-4.758h0.356
	c0.276,0,0.5-0.225,0.5-0.5v-3.307c0-0.276-0.224-0.5-0.5-0.5H20.379c-0.276,0-0.5,0.224-0.5,0.5v3.308c0,0.276,0.224,0.5,0.5,0.5
	h0.357v1.631l-1.195-0.508c-0.136-0.058-0.292-0.054-0.424,0.017l-7.88,4.051c-0.118,0.062-0.207,0.166-0.248,0.293
	c-0.041,0.125-0.029,0.263,0.031,0.381l3.215,6.252c0.089,0.173,0.264,0.271,0.445,0.271c0.077,0,0.155-0.019,0.228-0.057
	l5.827-2.995v2.17c0,0.276,0.224,0.5,0.5,0.5H31.28c0.09,0,0.17-0.03,0.242-0.071c0.233,0.047,0.474,0.071,0.718,0.071l0,0
	c0.824,0,1.601-0.286,2.241-0.788c0.493,0.383,1.087,0.6,1.722,0.6c1.562,0,2.832-1.271,2.832-2.832v-7.363
	C39.038,21.02,37.768,19.749,36.206,19.749z M36.206,20.749c1.01,0,1.832,0.821,1.832,1.832v3.06h-3.664v-3.06
	C34.374,21.57,35.195,20.749,36.206,20.749z M34.141,27.438c0.908,0.924,1,2.348,0.291,3.377l-3.665-3.725
	c0.435-0.291,0.943-0.447,1.477-0.447C32.962,26.643,33.636,26.924,34.141,27.438z M20.88,17.652h10.761v2.308H20.88V17.652z
	 M14.897,32.174l-2.757-5.363l7.227-3.716l3.611,1.534l-0.854,3.829l-1.027,0.528c-0.06,0.018-0.113,0.045-0.161,0.082
	L14.897,32.174z M21.737,31.966v-2.185l1.053-0.541c0.132-0.067,0.227-0.19,0.259-0.336l0.995-4.465
	c0.053-0.235-0.07-0.476-0.292-0.568l-2.015-0.855V20.96h9.046v1.69h-6.031c-0.276,0-0.5,0.224-0.5,0.5c0,0.275,0.224,0.5,0.5,0.5
	h6.031v1.261h-4.448c-0.276,0-0.5,0.224-0.5,0.5s0.224,0.5,0.5,0.5h4.448v0.062c-0.406,0.17-0.786,0.403-1.108,0.721
	c-0.151,0.148-0.278,0.312-0.397,0.479h-2.941c-0.276,0-0.5,0.224-0.5,0.5s0.224,0.5,0.5,0.5h2.442
	c-0.133,0.41-0.195,0.835-0.182,1.263h-2.262c-0.276,0-0.5,0.224-0.5,0.5c0,0.275,0.224,0.5,0.5,0.5h2.44
	c0.169,0.522,0.445,1.02,0.856,1.438c0.035,0.035,0.077,0.061,0.112,0.094L21.737,31.966L21.737,31.966z M32.242,31.966
	c-0.72,0-1.394-0.282-1.897-0.795c-0.909-0.924-1.001-2.349-0.29-3.378l3.665,3.725C33.286,31.809,32.775,31.966,32.242,31.966
	L32.242,31.966z M36.206,31.775c-0.37,0-0.724-0.107-1.022-0.312c1.044-1.422,0.945-3.432-0.33-4.729
	c-0.036-0.035-0.08-0.062-0.117-0.096h3.302v3.305C38.038,30.954,37.216,31.775,36.206,31.775z M17.537,28.432
	c0.215,0.409,0.086,0.963-0.489,1.37l0.283,0.54l-0.38,0.194l-0.275-0.525c-0.353,0.173-0.765,0.265-1.044,0.242l-0.036-0.422
	c0.282,0.014,0.646-0.047,0.984-0.222c0.43-0.219,0.607-0.577,0.452-0.875c-0.15-0.285-0.479-0.342-1.006-0.271
	c-0.724,0.106-1.229,0.062-1.468-0.39c-0.226-0.434-0.042-0.94,0.473-1.303l-0.275-0.524l0.373-0.19l0.266,0.504
	c0.367-0.175,0.657-0.218,0.88-0.219l0.028,0.419c-0.158,0.002-0.465,0.017-0.852,0.212c-0.466,0.237-0.516,0.565-0.405,0.774
	c0.141,0.271,0.435,0.291,1.058,0.21C16.841,27.857,17.296,27.968,17.537,28.432z M20.861,25.521c0-0.328,0.266-0.595,0.594-0.595
	s0.594,0.267,0.594,0.595s-0.266,0.594-0.594,0.594S20.861,25.85,20.861,25.521z"/>
</svg>
