<?xml version="1.0" encoding="utf-8"?>
<!-- Generator: Adobe Illustrator 16.0.4, SVG Export Plug-In . SVG Version: 6.00 Build 0)  -->
<!DOCTYPE svg PUBLIC "-//W3C//DTD SVG 1.1//EN" "http://www.w3.org/Graphics/SVG/1.1/DTD/svg11.dtd">
<svg version="1.1" id="Layer_1" xmlns="http://www.w3.org/2000/svg" xmlns:xlink="http://www.w3.org/1999/xlink" x="0px" y="0px"
	 width="50px" height="50px" viewBox="0 0 50 50" enable-background="new 0 0 50 50" xml:space="preserve">
<path d="M36.454,25.472c-0.805-0.793-1.871-1.23-3.002-1.23c-0.505,0-0.99,0.102-1.451,0.268v-4.026
	c0-1.813-1.475-3.289-3.288-3.289c-1.721,0-3.122,1.333-3.262,3.019h-1.933v-0.917c0-0.276-0.224-0.5-0.5-0.5
	c-0.275,0-0.5,0.224-0.5,0.5v0.917h-6.333v-0.917c0-0.276-0.224-0.5-0.5-0.5c-0.275,0-0.5,0.224-0.5,0.5v0.917h-2.417
	c-0.275,0-0.5,0.224-0.5,0.5v10.167c0,0.275,0.225,0.5,0.5,0.5h13.167c0.078,0,0.149-0.021,0.216-0.053
	c0.604,0.756,1.521,1.25,2.562,1.25c0.762,0,1.476-0.271,2.057-0.744c0.762,0.619,1.691,0.972,2.684,0.972
	c1.157,0,2.241-0.454,3.053-1.279C38.16,29.844,38.137,27.127,36.454,25.472z M35.363,25.869l-4.533,4.605
	c-0.948-1.273-0.865-3.085,0.282-4.253c0.622-0.632,1.453-0.98,2.34-0.98C34.148,25.242,34.809,25.466,35.363,25.869z
	 M28.713,18.194c1.262,0,2.288,1.027,2.288,2.289v3.756h-4.577v-3.463c0.003-0.021,0.014-0.041,0.014-0.063
	s-0.011-0.042-0.014-0.063v-0.167C26.424,19.222,27.451,18.194,28.713,18.194z M13.27,30.379v-9.167h1.917v0.667
	c0,0.276,0.225,0.5,0.5,0.5c0.276,0,0.5-0.224,0.5-0.5v-0.667h6.333v0.667c0,0.276,0.225,0.5,0.5,0.5c0.276,0,0.5-0.224,0.5-0.5
	v-0.667h1.904v8.077c0,0.383,0.079,0.748,0.2,1.09H13.27L13.27,30.379z M26.424,29.289V25.24h4.312
	c-0.112,0.094-0.232,0.175-0.337,0.281c-1.514,1.54-1.606,3.935-0.327,5.601c-0.393,0.291-0.86,0.457-1.359,0.457
	C27.451,31.578,26.424,30.551,26.424,29.289z M35.792,30.824c-1.11,1.129-2.976,1.242-4.248,0.35l4.53-4.604
	C37.023,27.847,36.94,29.658,35.792,30.824z M14.396,23.588h1.415v1.417h-1.415V23.588z M16.521,23.588h1.415v1.417h-1.415V23.588z
	 M18.646,23.588h1.415v1.417h-1.415V23.588z M20.771,23.588h1.415v1.417h-1.415V23.588z M22.896,23.588h1.415v1.417h-1.415V23.588z
	 M14.396,25.75h1.415v1.416h-1.415V25.75z M16.521,25.75h1.415v1.416h-1.415V25.75z M18.646,25.75h1.415v1.416h-1.415V25.75z
	 M20.771,25.75h1.415v1.416h-1.415V25.75z M22.896,25.75h1.415v1.416h-1.415V25.75z M14.396,27.912h1.415v1.416h-1.415V27.912z
	 M16.521,27.912h1.415v1.416h-1.415V27.912z M18.646,27.912h1.415v1.416h-1.415V27.912z M20.771,27.912h1.415v1.416h-1.415V27.912z
	 M22.896,27.912h1.415v1.416h-1.415V27.912z"/>
</svg>
