<?xml version="1.0" encoding="utf-8"?>
<!-- Generator: Adobe Illustrator 16.0.4, SVG Export Plug-In . SVG Version: 6.00 Build 0)  -->
<!DOCTYPE svg PUBLIC "-//W3C//DTD SVG 1.1//EN" "http://www.w3.org/Graphics/SVG/1.1/DTD/svg11.dtd">
<svg version="1.1" id="Layer_1" xmlns="http://www.w3.org/2000/svg" xmlns:xlink="http://www.w3.org/1999/xlink" x="0px" y="0px"
	 width="50px" height="50px" viewBox="0 0 50 50" enable-background="new 0 0 50 50" xml:space="preserve">
<path d="M35.228,23.461c-1.41,0-2.558,1.147-2.558,2.557v2.817c-0.418-0.119-0.853-0.157-1.284-0.114v-4.074h0.256
	c0.276,0,0.5-0.224,0.5-0.5V21.23c0-0.276-0.224-0.5-0.5-0.5h-2.877l0.688-4.305c0.019-0.117-0.013-0.227-0.065-0.322
	c0-0.006,0.002-0.011,0.002-0.017c0-1.842-4.304-2.806-8.555-2.806s-8.554,0.964-8.554,2.806c0,0.002,0.001,0.004,0.001,0.006
	c-0.053,0.096-0.082,0.206-0.062,0.322l3.076,18.298c-0.001,0.009-0.006,0.019-0.006,0.027c0,1.563,3.484,1.98,5.545,1.98
	c1.945,0,4.493-0.346,5.291-1.317c0.002-0.002,0.004-0.002,0.006-0.004l0.001-0.002c0.002,0,0.002,0,0.002-0.002
	c0.004-0.004,0.004-0.009,0.008-0.013c0.035-0.045,0.057-0.096,0.084-0.144h4.66c0.084,0,0.157-0.025,0.228-0.062
	c0.202,0.039,0.409,0.062,0.62,0.062c0.726,0,1.408-0.246,1.977-0.678c0.438,0.326,0.963,0.511,1.52,0.511
	c1.41,0,2.558-1.147,2.558-2.558v-6.496C37.785,24.608,36.64,23.461,35.228,23.461z M35.228,24.461c0.858,0,1.558,0.698,1.558,1.557
	v2.641h-3.114v-2.641C33.671,25.159,34.37,24.461,35.228,24.461z M33.364,30.342c0.763,0.777,0.855,1.965,0.287,2.844l-3.127-3.179
	c0.359-0.225,0.773-0.349,1.207-0.349C32.351,29.659,32.931,29.9,33.364,30.342z M30.386,26.021h-5.261c-0.276,0-0.5,0.224-0.5,0.5
	c0,0.275,0.224,0.5,0.5,0.5h5.261v0.994h-3.863c-0.276,0-0.5,0.224-0.5,0.5c0,0.275,0.224,0.5,0.5,0.5h3.781
	c-0.318,0.147-0.619,0.334-0.878,0.588c-0.128,0.125-0.235,0.266-0.34,0.406h-2.563c-0.276,0-0.5,0.225-0.5,0.5
	c0,0.276,0.224,0.5,0.5,0.5h2.072c-0.088,0.295-0.148,0.598-0.15,0.912c0,0.028,0.007,0.055,0.008,0.083h-1.93
	c-0.276,0-0.5,0.224-0.5,0.5s0.224,0.5,0.5,0.5h2.106c0.154,0.456,0.399,0.878,0.744,1.233h-6.849v-9.59h7.861L30.386,26.021
	L30.386,26.021z M31.144,23.647h-9.375V21.73h9.375V23.647z M20.834,14.28c4.889,0,7.555,1.193,7.555,1.806
	c0,0.613-2.666,1.806-7.555,1.806c-4.888,0-7.554-1.193-7.554-1.806C13.281,15.473,15.947,14.28,20.834,14.28z M16.292,34.741
	c0.003-0.037,0.012-0.074,0.004-0.113l-2.869-17.066c1.562,0.877,4.496,1.33,7.408,1.33c2.921,0,5.868-0.455,7.426-1.338
	l-0.508,3.176h-6.485c-0.275,0-0.5,0.224-0.5,0.5v2.917c0,0.276,0.225,0.5,0.5,0.5h0.256v10.089c0,0.277,0.225,0.5,0.5,0.5h2.455
	c-0.776,0.263-2.018,0.482-3.645,0.483C17.874,35.72,16.389,35.014,16.292,34.741z M30.101,33.553
	c-0.429-0.435-0.662-1.012-0.656-1.623c0.004-0.44,0.135-0.859,0.369-1.222l3.123,3.175C32.054,34.413,30.837,34.302,30.101,33.553z
	 M35.228,34.07c-0.291,0-0.568-0.084-0.812-0.234c0.892-1.268,0.788-3.027-0.327-4.179h2.695v2.856
	C36.785,33.372,36.087,34.07,35.228,34.07z"/>
</svg>
