<?xml version="1.0" encoding="utf-8"?>
<!-- Generator: Adobe Illustrator 16.0.4, SVG Export Plug-In . SVG Version: 6.00 Build 0)  -->
<!DOCTYPE svg PUBLIC "-//W3C//DTD SVG 1.1//EN" "http://www.w3.org/Graphics/SVG/1.1/DTD/svg11.dtd">
<svg version="1.1" id="Layer_1" xmlns="http://www.w3.org/2000/svg" xmlns:xlink="http://www.w3.org/1999/xlink" x="0px" y="0px"
	 width="50px" height="50px" viewBox="0 0 50 50" enable-background="new 0 0 50 50" xml:space="preserve">
<path d="M30.084,17.88H19.916c-0.276,0-0.5,0.224-0.5,0.5v2.859c0,0.276,0.224,0.5,0.5,0.5h0.241v9.879c0,0.276,0.224,0.5,0.5,0.5
	h8.686c0.276,0,0.5-0.224,0.5-0.5V21.74h0.241c0.275,0,0.5-0.224,0.5-0.5V18.38C30.584,18.104,30.359,17.88,30.084,17.88z
	 M20.416,18.88h9.168v1.859h-9.168V18.88z M28.843,31.121h-7.686v-1.188h3.778c0.276,0,0.5-0.224,0.5-0.5s-0.224-0.5-0.5-0.5h-3.778
	v-0.955h3.778c0.276,0,0.5-0.224,0.5-0.5s-0.224-0.5-0.5-0.5h-3.778v-0.955h3.778c0.276,0,0.5-0.224,0.5-0.5
	c0-0.276-0.224-0.5-0.5-0.5h-3.778v-0.955h5.146c0.276,0,0.5-0.224,0.5-0.5s-0.224-0.5-0.5-0.5h-5.146v-1.326h7.686V31.121z"/>
</svg>
