<?xml version="1.0" encoding="utf-8"?>
<!-- Generator: Adobe Illustrator 16.0.4, SVG Export Plug-In . SVG Version: 6.00 Build 0)  -->
<!DOCTYPE svg PUBLIC "-//W3C//DTD SVG 1.1//EN" "http://www.w3.org/Graphics/SVG/1.1/DTD/svg11.dtd">
<svg version="1.1" id="Layer_1" xmlns="http://www.w3.org/2000/svg" xmlns:xlink="http://www.w3.org/1999/xlink" x="0px" y="0px"
	 width="50px" height="50px" viewBox="0 0 50 50" enable-background="new 0 0 50 50" xml:space="preserve">
<path d="M37.132,23.833c0,0.276-0.224,0.5-0.5,0.5h-4.144l-3.335,7.623c-0.079,0.183-0.261,0.3-0.458,0.3H16.191
	c-0.276,0-0.5-0.224-0.5-0.5c0-0.275,0.224-0.5,0.5-0.5h12.177l3.335-7.623c0.079-0.183,0.26-0.3,0.458-0.3h4.471
	C36.908,23.333,37.132,23.557,37.132,23.833z M20.072,32.952c-0.925,0-1.672,0.748-1.672,1.67c0,0.924,0.747,1.672,1.672,1.672
	c0.922,0,1.67-0.748,1.67-1.672C21.742,33.7,20.994,32.952,20.072,32.952z M26.014,32.952c-0.923,0-1.672,0.748-1.672,1.67
	c0,0.924,0.749,1.672,1.672,1.672c0.924,0,1.671-0.748,1.671-1.672C27.685,33.7,26.938,32.952,26.014,32.952z M15.893,29.521
	l-2.944-10.918c-0.334-1.242,0.404-2.524,1.646-2.858l4.867-1.312c0.532-0.145,1.078-0.07,1.557,0.147
	c0.493-0.612,1.271-0.949,2.078-0.86l5.009,0.564c0.619,0.07,1.176,0.377,1.564,0.865c0.388,0.486,0.563,1.097,0.493,1.716
	L28.896,28.1c-0.07,0.618-0.378,1.174-0.864,1.562c-0.416,0.333-0.923,0.509-1.448,0.509c-0.089,0-0.178-0.005-0.268-0.015
	l-2.502-0.376c-0.065,0.023-0.128,0.055-0.194,0.072l-4.868,1.312c-0.199,0.054-0.404,0.081-0.608,0.081
	C17.091,31.247,16.166,30.538,15.893,29.521z M21.827,15.176c0.226,0.258,0.403,0.559,0.495,0.902l0.197,0.734
	c0.198-0.342,0.584-0.554,1.003-0.508c0.563,0.064,0.969,0.573,0.904,1.137c-0.063,0.564-0.571,0.97-1.135,0.904
	c-0.144-0.016-0.275-0.062-0.394-0.129l0.364,1.355c0.53-0.034,1.011,0.332,1.086,0.867c0.064,0.451-0.181,0.863-0.566,1.055
	l1.271,4.717c0.157-0.439,0.583-0.738,1.066-0.684c0.562,0.063,0.969,0.572,0.903,1.137c-0.062,0.562-0.57,0.969-1.135,0.904
	c-0.229-0.025-0.419-0.139-0.576-0.283c0.071,0.51-0.018,1.025-0.277,1.479c-0.035,0.062-0.081,0.113-0.121,0.17l1.533,0.23
	c0.338,0.036,0.685-0.062,0.962-0.284s0.453-0.539,0.493-0.894l1.268-11.233c0.04-0.354-0.06-0.702-0.281-0.979
	c-0.223-0.279-0.54-0.455-0.895-0.494l-5.009-0.565C22.538,14.663,22.11,14.848,21.827,15.176z M13.913,18.346l2.945,10.916
	c0.188,0.693,0.936,1.127,1.634,0.939l4.868-1.312c0.344-0.093,0.632-0.313,0.809-0.621c0.178-0.31,0.225-0.668,0.132-1.014
	l-2.942-10.916c-0.071-0.268-0.229-0.488-0.429-0.66c-0.044-0.025-0.087-0.054-0.12-0.089c-0.214-0.146-0.466-0.237-0.736-0.237
	c-0.117,0-0.234,0.017-0.351,0.047l-4.866,1.312C14.146,16.9,13.722,17.635,13.913,18.346z M16.474,19.979
	c0.549-0.146,0.872-0.711,0.726-1.258c-0.147-0.55-0.711-0.873-1.259-0.726c-0.549,0.146-0.871,0.711-0.725,1.258
	C15.364,19.801,15.926,20.126,16.474,19.979z M19.965,19.037c0.547-0.146,0.871-0.712,0.725-1.26
	c-0.148-0.547-0.712-0.871-1.26-0.725c-0.548,0.147-0.873,0.713-0.725,1.26C18.853,18.859,19.417,19.186,19.965,19.037z
	 M17.245,22.834c0.548-0.148,0.872-0.712,0.724-1.259c-0.146-0.548-0.71-0.873-1.259-0.726c-0.547,0.148-0.87,0.711-0.724,1.26
	C16.134,22.657,16.698,22.98,17.245,22.834z M20.2,19.909c-0.548,0.147-0.872,0.712-0.726,1.26c0.147,0.547,0.711,0.871,1.26,0.726
	c0.548-0.148,0.872-0.713,0.725-1.261C21.312,20.087,20.749,19.764,20.2,19.909z M18.015,25.688
	c0.549-0.146,0.872-0.711,0.725-1.258c-0.147-0.549-0.711-0.871-1.258-0.725c-0.55,0.148-0.873,0.711-0.726,1.258
	C16.903,25.514,17.466,25.837,18.015,25.688z M20.969,22.766c-0.547,0.147-0.872,0.711-0.725,1.26
	c0.147,0.547,0.713,0.871,1.26,0.724c0.548-0.147,0.872-0.711,0.724-1.259C22.081,22.941,21.517,22.618,20.969,22.766z
	 M18.25,26.562c-0.548,0.147-0.871,0.711-0.724,1.26c0.146,0.547,0.711,0.871,1.259,0.725c0.548-0.148,0.871-0.713,0.724-1.26
	C19.362,26.74,18.797,26.413,18.25,26.562z M21.74,25.62c-0.547,0.147-0.872,0.713-0.726,1.26c0.147,0.547,0.712,0.872,1.261,0.726
	c0.547-0.148,0.871-0.713,0.724-1.26C22.851,25.798,22.288,25.475,21.74,25.62z M26.884,18.753c0.564,0.063,1.071-0.342,1.136-0.905
	c0.063-0.562-0.342-1.072-0.904-1.136c-0.563-0.063-1.073,0.343-1.137,0.904C25.914,18.182,26.32,18.689,26.884,18.753z
	 M26.552,21.691c0.564,0.062,1.072-0.342,1.136-0.904c0.064-0.562-0.341-1.073-0.904-1.137c-0.562-0.063-1.072,0.342-1.137,0.906
	C25.583,21.12,25.988,21.628,26.552,21.691z M26.221,24.63c0.563,0.063,1.071-0.342,1.136-0.903
	c0.063-0.564-0.342-1.072-0.905-1.136s-1.073,0.341-1.135,0.903C25.25,24.059,25.657,24.566,26.221,24.63z"/>
</svg>
