<?xml version="1.0" encoding="utf-8"?>
<!-- Generator: Adobe Illustrator 16.0.0, SVG Export Plug-In . SVG Version: 6.00 Build 0)  -->
<!DOCTYPE svg PUBLIC "-//W3C//DTD SVG 1.1//EN" "http://www.w3.org/Graphics/SVG/1.1/DTD/svg11.dtd">
<svg version="1.1" id="Layer_1" xmlns="http://www.w3.org/2000/svg" xmlns:xlink="http://www.w3.org/1999/xlink" x="0px" y="0px"
	 width="96px" height="96px" viewBox="0 0 96 96" enable-background="new 0 0 96 96" xml:space="preserve">
<g>
	<path d="M64,28.587h-0.25v-7.756h-31.5v7.756H32c-4.136,0-7.5,3.364-7.5,7.5v49.148c0,4.136,3.364,7.5,7.5,7.5h32
		c4.136,0,7.5-3.364,7.5-7.5V36.087C71.5,31.951,68.136,28.587,64,28.587z M66.5,85.235c0,1.379-1.121,2.5-2.5,2.5H32
		c-1.379,0-2.5-1.121-2.5-2.5V71.033h37V85.235z M66.5,42.533h-37v-6.446c0-1.379,1.121-2.5,2.5-2.5h5.25v-7.756h21.5v7.756H64
		c1.379,0,2.5,1.121,2.5,2.5V42.533z"/>
	<path d="M63.875,8.188c0-2.719-2.203-4.923-4.923-4.923H37.048c-2.72,0-4.923,2.204-4.923,4.923v8.614h31.75V8.188z"/>
</g>
</svg>
