<?xml version="1.0" encoding="utf-8"?>
<!-- Generator: Adobe Illustrator 16.0.4, SVG Export Plug-In . SVG Version: 6.00 Build 0)  -->
<!DOCTYPE svg PUBLIC "-//W3C//DTD SVG 1.1//EN" "http://www.w3.org/Graphics/SVG/1.1/DTD/svg11.dtd">
<svg version="1.1" id="Layer_1" xmlns="http://www.w3.org/2000/svg" xmlns:xlink="http://www.w3.org/1999/xlink" x="0px" y="0px"
	 width="50px" height="50px" viewBox="0 0 50 50" enable-background="new 0 0 50 50" xml:space="preserve">
<path d="M32.755,29.933c-0.091-0.097-0.217-0.152-0.351-0.156c-0.104-0.006-0.262,0.046-0.356,0.137l-0.342,0.322l-1.121-1.111
	h0.144c0.276,0,0.5-0.225,0.5-0.5v-8.332l0.489-0.519l0.332,0.312c0.097,0.092,0.222,0.126,0.357,0.137
	c0.133-0.004,0.258-0.061,0.349-0.156l1.618-1.715c0.092-0.097,0.142-0.226,0.138-0.357c-0.005-0.132-0.062-0.258-0.158-0.35
	l-2.549-2.403c-0.201-0.19-0.518-0.181-0.705,0.021l-1.619,1.715c-0.092,0.096-0.141,0.225-0.137,0.356s0.061,0.259,0.157,0.351
	l0.332,0.312l-1.552,1.644h-6.562l-1.552-1.644l0.332-0.312c0.097-0.092,0.153-0.218,0.157-0.351s-0.045-0.262-0.137-0.356
	L18.9,15.262c-0.188-0.201-0.504-0.211-0.705-0.021l-2.549,2.403c-0.098,0.092-0.153,0.217-0.158,0.35
	c-0.004,0.133,0.046,0.262,0.138,0.357l1.618,1.715c0.091,0.097,0.216,0.152,0.349,0.156c0.136,0.002,0.263-0.045,0.357-0.137
	l0.332-0.312l0.147,0.156c-0.029,0.063-0.047,0.133-0.047,0.207v8.486c0,0.276,0.225,0.5,0.5,0.5h0.439l-1.041,1.103l-0.33-0.312
	c-0.098-0.092-0.262-0.143-0.357-0.137c-0.133,0.004-0.259,0.061-0.35,0.156l-1.619,1.713c-0.091,0.098-0.141,0.227-0.137,0.358
	s0.061,0.259,0.156,0.349l2.549,2.405c0.098,0.093,0.221,0.138,0.344,0.138c0.133,0,0.266-0.054,0.363-0.158l1.617-1.713
	c0.188-0.199,0.18-0.516-0.021-0.705l-0.331-0.313l0.826-0.875v0.571c0,0.275,0.224,0.5,0.5,0.5h6.621c0.275,0,0.5-0.225,0.5-0.5
	v-0.984l1.217,1.288l-0.331,0.313c-0.2,0.189-0.209,0.506-0.021,0.707l1.619,1.713c0.098,0.104,0.229,0.156,0.362,0.156
	c0.123,0,0.247-0.045,0.343-0.138l2.549-2.405c0.096-0.09,0.152-0.217,0.156-0.349c0.004-0.133-0.046-0.262-0.137-0.358
	L32.755,29.933z M30.902,18.317c0.093-0.098,0.142-0.227,0.138-0.358s-0.062-0.259-0.157-0.351l-0.332-0.312l0.932-0.985
	l0.524,0.494l-0.245,0.262c-0.189,0.199-0.182,0.517,0.021,0.705c0.097,0.093,0.22,0.138,0.343,0.138
	c0.133,0,0.266-0.054,0.363-0.157l0.246-0.262l0.57,0.537l-0.933,0.988l-0.332-0.312c-0.097-0.092-0.229-0.139-0.356-0.137
	c-0.134,0.004-0.259,0.061-0.35,0.156l-0.861,0.912h-0.814L30.902,18.317z M17.96,18.704l-0.332,0.312l-0.933-0.988l0.57-0.537
	l0.246,0.262c0.098,0.104,0.23,0.157,0.363,0.157c0.123,0,0.246-0.045,0.343-0.138c0.201-0.188,0.21-0.506,0.021-0.705l-0.245-0.262
	l0.524-0.494l0.932,0.985l-0.332,0.312c-0.098,0.092-0.153,0.218-0.157,0.351c-0.004,0.134,0.045,0.263,0.138,0.358l1.245,1.318
	h-0.815l-0.86-0.912C18.479,18.522,18.159,18.512,17.96,18.704z M19.1,31.681c-0.189,0.201-0.182,0.518,0.02,0.707l0.331,0.313
	l-0.933,0.985l-0.569-0.537l0.29-0.308c0.189-0.2,0.182-0.517-0.02-0.707s-0.517-0.181-0.707,0.021l-0.291,0.308l-0.523-0.493
	l0.932-0.986l0.331,0.312c0.097,0.093,0.224,0.122,0.358,0.138c0.132-0.004,0.258-0.062,0.349-0.158l2.032-2.15h0.296v0.551
	L19.1,31.681z M26.425,31.201v-2.565c0-0.275-0.224-0.5-0.5-0.5s-0.5,0.225-0.5,0.5v2.565h-1.237v-2.565c0-0.275-0.225-0.5-0.5-0.5
	c-0.276,0-0.5,0.225-0.5,0.5v2.565h-1.192v-2.578c0-0.276-0.224-0.5-0.5-0.5h-2.11v-7.486H30.23v7.486h-2.113
	c-0.276,0-0.5,0.224-0.5,0.5v0.812c0,0.006,0,0.012,0,0.018v1.749H26.425z M32.779,32.463l-0.291-0.308
	c-0.189-0.2-0.506-0.211-0.707-0.021c-0.2,0.19-0.209,0.507-0.02,0.707l0.29,0.308l-0.569,0.537l-0.933-0.985l0.331-0.313
	c0.2-0.189,0.209-0.506,0.02-0.707l-2.285-2.42v-0.138h0.556c0.007,0.007,0.009,0.017,0.017,0.022l2.158,2.142
	c0.191,0.188,0.5,0.192,0.695,0.008l0.331-0.312l0.933,0.986L32.779,32.463z M23.604,24.169c0,0.541-0.438,0.979-0.979,0.979
	c-0.542,0-0.98-0.438-0.98-0.979c0-0.54,0.438-0.979,0.98-0.979C23.164,23.19,23.604,23.629,23.604,24.169z M26.988,25.149
	c-0.539,0-0.979-0.438-0.979-0.979c0-0.54,0.439-0.979,0.979-0.979c0.541,0,0.979,0.438,0.979,0.979S27.529,25.149,26.988,25.149z"
	/>
</svg>
