<?xml version="1.0" encoding="utf-8"?>
<!-- Generator: Adobe Illustrator 16.0.4, SVG Export Plug-In . SVG Version: 6.00 Build 0)  -->
<!DOCTYPE svg PUBLIC "-//W3C//DTD SVG 1.1//EN" "http://www.w3.org/Graphics/SVG/1.1/DTD/svg11.dtd">
<svg version="1.1" id="Layer_1" xmlns="http://www.w3.org/2000/svg" xmlns:xlink="http://www.w3.org/1999/xlink" x="0px" y="0px"
	 width="50px" height="50px" viewBox="0 0 50 50" enable-background="new 0 0 50 50" xml:space="preserve">
<path d="M18.801,29.825c0.727,0,1.408-0.257,1.965-0.704c0.729,0.586,1.617,0.921,2.564,0.921c1.111,0,2.152-0.437,2.934-1.229
	c1.59-1.617,1.568-4.227-0.049-5.817c-0.773-0.762-1.799-1.182-2.885-1.182c-0.475,0-0.932,0.095-1.365,0.248v-3.818
	c0-1.745-1.42-3.165-3.164-3.165c-1.746,0-3.166,1.42-3.166,3.165v8.417C15.635,28.405,17.055,29.825,18.801,29.825z M16.635,26.66
	v-3.849h4.039c-0.092,0.079-0.191,0.145-0.277,0.231c-1.448,1.474-1.543,3.765-0.328,5.364c-0.366,0.268-0.803,0.418-1.268,0.418
	C17.605,28.825,16.635,27.854,16.635,26.66z M25.551,28.111c-1.049,1.064-2.805,1.179-4.012,0.348l4.295-4.365
	C26.721,25.304,26.635,27.01,25.551,28.111z M25.123,23.392l-4.299,4.369c-0.885-1.209-0.799-2.915,0.285-4.017
	c0.59-0.6,1.379-0.931,2.221-0.931C23.982,22.813,24.602,23.02,25.123,23.392z M18.801,16.078c1.193,0,2.164,0.971,2.164,2.165
	v3.568h-4.33v-3.568C16.635,17.049,17.605,16.078,18.801,16.078z M34.365,24.377c0,0.276-0.223,0.5-0.5,0.5h-3.5l-2.836,6.484
	c-0.08,0.182-0.26,0.3-0.459,0.3H16.365c-0.275,0-0.5-0.224-0.5-0.5s0.225-0.5,0.5-0.5h10.379l2.836-6.484
	c0.08-0.182,0.26-0.3,0.459-0.3h3.826C34.143,23.877,34.365,24.101,34.365,24.377z M20.129,33.491c0,0.791-0.641,1.431-1.43,1.431
	c-0.791,0-1.432-0.641-1.432-1.431s0.641-1.431,1.432-1.431C19.488,32.061,20.129,32.702,20.129,33.491z M25.217,33.491
	c0,0.791-0.641,1.431-1.432,1.431c-0.789,0-1.432-0.641-1.432-1.431s0.643-1.431,1.432-1.431
	C24.576,32.061,25.217,32.702,25.217,33.491z"/>
</svg>
