<?xml version="1.0" encoding="utf-8"?>
<!-- Generator: Adobe Illustrator 16.0.4, SVG Export Plug-In . SVG Version: 6.00 Build 0)  -->
<!DOCTYPE svg PUBLIC "-//W3C//DTD SVG 1.1//EN" "http://www.w3.org/Graphics/SVG/1.1/DTD/svg11.dtd">
<svg version="1.1" id="Layer_1" xmlns="http://www.w3.org/2000/svg" xmlns:xlink="http://www.w3.org/1999/xlink" x="0px" y="0px"
	 width="50px" height="50px" viewBox="0 0 50 50" enable-background="new 0 0 50 50" xml:space="preserve">
<path d="M29.328,19.822l-1.621-0.993V15.25c0-0.276-0.223-0.5-0.5-0.5h-4.416c-0.275,0-0.5,0.224-0.5,0.5v3.581l-1.617,0.991
	c-0.148,0.091-0.24,0.252-0.24,0.426V34.75c0,0.275,0.226,0.5,0.5,0.5h8.049c0.104,0,0.195-0.039,0.275-0.094
	c0.182-0.075,0.309-0.254,0.309-0.461V20.248C29.566,20.074,29.475,19.913,29.328,19.822z M21.434,24.146h7.133v6.381h-7.133V24.146
	z M23.291,15.75h3.416v2.625h-3.416V15.75z M23.316,19.375h3.367l1.883,1.153v2.618h-7.133v-2.617L23.316,19.375z M21.434,31.527
	h7.133v2.723h-7.133V31.527z M26.373,27.615l-1.584,2.333c-0.098,0.143-0.256,0.219-0.414,0.219c-0.098,0-0.195-0.028-0.281-0.086
	c-0.229-0.155-0.287-0.466-0.133-0.694l1.08-1.592l-1.021-0.044c-0.184-0.008-0.35-0.117-0.428-0.283
	c-0.08-0.167-0.062-0.362,0.047-0.512l1.582-2.167c0.164-0.224,0.479-0.27,0.699-0.109c0.223,0.163,0.271,0.476,0.107,0.699
	l-1.031,1.413l0.984,0.043c0.182,0.008,0.344,0.113,0.426,0.274C26.486,27.271,26.475,27.465,26.373,27.615z"/>
</svg>
