<?xml version="1.0" encoding="utf-8"?>
<!-- Generator: Adobe Illustrator 16.0.0, SVG Export Plug-In . SVG Version: 6.00 Build 0)  -->
<!DOCTYPE svg PUBLIC "-//W3C//DTD SVG 1.1//EN" "http://www.w3.org/Graphics/SVG/1.1/DTD/svg11.dtd">
<svg version="1.1" id="Layer_1" xmlns="http://www.w3.org/2000/svg" xmlns:xlink="http://www.w3.org/1999/xlink" x="0px" y="0px"
	 width="96px" height="96px" viewBox="0 0 96 96" enable-background="new 0 0 96 96" xml:space="preserve">
<g>
	<path d="M75.497,26.305c-2.351-4.314-11.83-4.107-20.141-0.552l0.883-2.555l-31.496-0.133l-0.346,0.811l-7.608-0.033l-0.377,1.123
		l22.483,0.06l-0.568,1.493L23.36,26.457l-0.223,0.751l-7.546-0.031l-0.379,1.149l22.482,0.062l-0.509,1.465L22.22,29.791
		l-0.313,0.779l-7.485-0.03l-0.378,1.084l39.29,0.167c1.89-3.016,5.003-2.505,3.839,0.014c5.52,0.024,11.069,0.048,16.619,0.071
		c1.29-2.739,5.313-2.754,3.647,0.015l16.715,0.071C100.185,21.294,85.526,21.45,75.497,26.305z"/>
	<polygon points="52.103,34.844 20.295,34.711 19.95,35.518 12.652,35.486 12.275,36.604 34.727,36.699 34.19,38.162 18.911,38.098 
		18.688,38.877 11.484,38.847 11.075,39.969 33.559,40.064 33.022,41.496 17.772,41.432 17.459,42.209 10.285,42.181 9.907,43.301 
		32.391,43.394 31.854,44.797 16.76,44.701 16.414,45.634 9.087,45.603 8.74,46.568 31.224,46.694 30.685,48.157 15.499,48.033 
		15.185,48.901 7.951,48.87 7.542,49.993 30.023,50.088 29.52,51.458 14.27,51.394 13.986,52.202 6.781,52.143 6.405,53.198 
		28.889,53.324 28.414,54.697 13.133,54.661 12.664,55.627 5.552,55.534 5.175,56.625 44.309,56.789 	"/>
	<polygon points="72.557,34.956 55.876,34.887 47.958,56.649 64.734,56.721 	"/>
	<polygon points="68.289,56.734 85.062,56.804 92.891,35.041 76.208,34.973 	"/>
	<path d="M30.285,62.245c-0.525-1.001-1.616-1.006-2.739-0.354c-0.097,0.064,0.187-0.371,0.063-0.404
		c-5.642-0.114-11.413,0.017-17.056-0.104l-0.382,0.813l-6.923-0.029l-0.473,1.085l22.108,0.093l-0.568,1.496L9.13,64.775
		l-0.191,0.746l-6.89-0.028l-0.441,1.123l21.954,0.093l-0.475,1.462L8.026,68.107l-0.349,0.749l-6.799-0.031l-0.441,1.118
		l24.198,0.102l2.336-6.444c0.472-0.994,1.56-0.739,1.029,0.224c-0.666,2.396-1.608,3.861-2.272,6.259l2.246,0.01l2.585-6.82
		c0.219-0.402,1.408-0.742,0.933,0.535c-0.694,1.962-1.765,4.33-2.332,6.257l2.277,0.009l1.514-3.854l0.409-1.185
		C34.838,62.39,33.444,60.169,30.285,62.245z"/>
	<path d="M78.63,66.877l1.146-5.17l-2.339-0.009l-1.411,8.91c-0.282,0.686-0.315,0.876-1.312,0.714l-0.692,1.553
		c2.087,0.229,3.307-0.171,4.153-1.634l5.53-9.483l-2.34-0.01L78.63,66.877z"/>
	<path d="M63.737,64.012l0.852-2.585c-1.594,0.116-2.44,1.577-2.345,1.332l0.505-1.123l-1.125-0.035l-1.089-0.005l-3.278,8.623
		l2.182-0.023l2.487-5.941C62.177,63.881,63.485,63.979,63.737,64.012z"/>
	<path d="M57.788,62.305c-0.775-0.845-1.994-0.85-3.055-0.45v0.005c-0.592,0.214-1.122,0.55-1.498,0.926
		c-0.851,0.898-1.981,3.079-2.082,4.855l-0.001,0.467c0.058,1.155,0.646,2.028,2.145,2.131c0.496,0.028,0.971,0.004,1.407-0.152
		v-0.003c0.746-0.247,1.372-0.742,1.874-1.52c0.752-1.213,1.504-2.395,1.669-3.952C58.375,63.646,58.254,62.835,57.788,62.305z
		 M55.53,65.816c-0.252,0.683-0.504,1.461-0.819,1.991l-0.004,0.002c-0.123,0.222-0.217,0.374-0.345,0.497
		c-0.717,0.683-1.28,0.34-1.185-0.409c0.068-0.687,0.573-1.808,0.981-2.711c0.219-0.438,0.378-0.87,0.564-1.213l0.003,0.003v-0.008
		c0.159-0.34,0.316-0.587,0.502-0.713c0.404-0.307,1.028-0.369,1.032,0.221C56.258,64.01,55.844,64.944,55.53,65.816z"/>
	<path d="M43.89,68.01c-0.093-0.063-0.093-0.248-0.03-0.467l1.544-4.171l0.997,0.003l0.571-1.808l-0.812-0.003l0.915-2.487
		l-2.401-0.012l-0.913,2.487l-0.937-0.002l-0.727,1.773l0.997,0.005l-1.765,4.764c-0.883,2.428,1.267,2.345,2.859,1.947l0.637-1.902
		H44.45C44.141,68.136,43.951,68.103,43.89,68.01z"/>
	<path d="M40.527,66.064c1.036-1.867,1.141-4.547-1.852-4.562c-0.188,0-0.407,0.031-0.592,0.062h0.003
		c-1.034,0.121-2.032,0.616-2.692,1.579c-4.143,6.033-0.254,8.293,2.655,6.433c0.846-0.527,1.628-1.424,2.07-2.701l-2.06-0.01
		h-0.187c-0.819,2.488-3.003,2.167-1.525-0.82c0.625,0.003,1.188,0.005,1.717,0.008v0.002
		C38.843,66.057,39.591,66.062,40.527,66.064z M37.041,64.397c0.16-0.438,0.416-1.335,1.04-1.554v-0.002
		c0.091-0.031,0.184-0.064,0.278-0.062c0.374-0.028,0.47,0,0.652,0.252c0.218,0.347-0.066,1.032-0.254,1.374l-0.683-0.004
		L37.041,64.397z"/>
	<path d="M52.208,61.375c-1.562,0.118-2.438,1.578-2.313,1.331l0.506-1.12l-1.153-0.038l-1.093-0.005l-3.278,8.621l2.214-0.021
		l1.609-4.354c0.253-0.688,0.6-1.153,0.879-1.586c0.221-0.373,1.526-0.276,1.778-0.24L52.208,61.375z"/>
	<path d="M69.672,61.448c-1.562,0.116-2.44,1.579-2.313,1.332l0.505-1.123l-1.153-0.035l-1.093-0.005l-3.28,8.621l2.216-0.021
		l2.485-5.941c0.219-0.373,1.559-0.273,1.811-0.242L69.672,61.448z"/>
	<path d="M72.674,67.011c-0.821,2.489-2.973,2.166-1.496-0.82l4.182,0.012c1.035-1.867,1.141-4.54-1.884-4.552
		c-0.19-0.002-1.955-0.043-3.25,1.641c-4.173,6.031-0.286,8.29,2.621,6.434c0.843-0.531,1.628-1.428,2.103-2.704L72.674,67.011z
		 M72.875,62.991c0.091-0.03,0.201-0.066,0.316-0.066c0.256-0.021,0.478,0.088,0.621,0.255c0.275,0.325-0.067,1.018-0.224,1.36
		l-1.748,0.005C72.029,64.107,72.253,63.208,72.875,62.991z"/>
</g>
</svg>
