<?xml version="1.0" encoding="utf-8"?>
<!-- Generator: Adobe Illustrator 16.0.0, SVG Export Plug-In . SVG Version: 6.00 Build 0)  -->
<!DOCTYPE svg PUBLIC "-//W3C//DTD SVG 1.1//EN" "http://www.w3.org/Graphics/SVG/1.1/DTD/svg11.dtd">
<svg version="1.1" id="Layer_1" xmlns="http://www.w3.org/2000/svg" xmlns:xlink="http://www.w3.org/1999/xlink" x="0px" y="0px"
	 width="96px" height="96px" viewBox="0 0 96 96" enable-background="new 0 0 96 96" xml:space="preserve">
<path d="M48,0.82C21.943,0.82,0.819,21.943,0.819,48S21.943,95.18,48,95.18c26.058,0,47.181-21.123,47.181-47.18
	S74.058,0.82,48,0.82z M48,83.386c-19.542,0-35.385-15.845-35.385-35.386c0-17.385,12.541-31.831,29.067-34.813v43.106
	L24.206,38.485l-9.321,9.487l33.122,33.454l33.288-33.289l-9.653-9.652L53.998,56.129V13.132C70.683,15.981,83.386,30.503,83.386,48
	C83.386,67.541,67.543,83.386,48,83.386z"/>
</svg>
