<?xml version="1.0" encoding="utf-8"?>
<!-- Generator: Adobe Illustrator 16.0.0, SVG Export Plug-In . SVG Version: 6.00 Build 0)  -->
<!DOCTYPE svg PUBLIC "-//W3C//DTD SVG 1.1//EN" "http://www.w3.org/Graphics/SVG/1.1/DTD/svg11.dtd">
<svg version="1.1" id="Layer_1" xmlns="http://www.w3.org/2000/svg" xmlns:xlink="http://www.w3.org/1999/xlink" x="0px" y="0px"
	 width="96px" height="96px" viewBox="0 0 96 96" enable-background="new 0 0 96 96" xml:space="preserve">
<g>
	<path d="M53.44,19.067v36.12l14.873-14.874l7.693,7.693L47.84,76.173L19.673,48.007l7.694-7.693l15.193,15.193V19.064
		c-13.698,2.568-24.066,14.649-24,29.071c0.074,16.187,13.269,29.303,29.438,29.305c0.047,0,0.091,0,0.137,0
		c7.864-0.036,15.243-3.132,20.777-8.718c5.535-5.586,8.563-12.993,8.527-20.856C77.374,33.59,67.014,21.63,53.44,19.067z"/>
	<path d="M0,0v96h96V0H0z M76.641,76.379c-7.58,7.65-17.686,11.891-28.455,11.94c-0.063,0-0.125,0-0.188,0
		c-22.147,0-40.216-17.965-40.317-40.135C7.578,25.953,25.583,7.783,47.815,7.68h0.345c10.725,0.049,20.784,4.243,28.351,11.809
		c7.565,7.566,11.76,17.626,11.809,28.326C88.369,58.584,84.222,68.729,76.641,76.379z"/>
</g>
</svg>
