<?xml version="1.0" encoding="utf-8"?>
<!-- Generator: Adobe Illustrator 16.0.4, SVG Export Plug-In . SVG Version: 6.00 Build 0)  -->
<!DOCTYPE svg PUBLIC "-//W3C//DTD SVG 1.1//EN" "http://www.w3.org/Graphics/SVG/1.1/DTD/svg11.dtd">
<svg version="1.1" id="Layer_1" xmlns="http://www.w3.org/2000/svg" xmlns:xlink="http://www.w3.org/1999/xlink" x="0px" y="0px"
	 width="226.77px" height="155.91px" viewBox="0 0 226.77 155.91" enable-background="new 0 0 226.77 155.91" xml:space="preserve">
<g>
	<path d="M113.232,56.432c4.776,0.354,9.262,2.402,12.637,5.771c3.92,3.922,5.982,9.157,5.81,14.733
		c-0.026,0.845,0.616,1.562,1.46,1.627l45.76,3.601c0.041,0.006,0.082,0.006,0.123,0.006c0.385,0,0.761-0.143,1.053-0.4
		c0.322-0.285,0.512-0.689,0.531-1.121c0.743-18.708-6.414-37.021-19.637-50.241c-13.418-13.418-31.623-20.485-50.604-19.63
		c-0.426,0.022-0.826,0.209-1.108,0.529c-0.285,0.319-0.429,0.738-0.4,1.16l2.911,42.495
		C111.824,55.75,112.448,56.376,113.232,56.432z"/>
	<path d="M96.05,90.793l-33.986,28.11c-0.326,0.268-0.528,0.657-0.565,1.077c-0.042,0.418,0.092,0.838,0.36,1.162
		c1.357,1.614,2.663,3.047,3.993,4.377c12.695,12.694,29.577,19.684,47.534,19.684c7.108,0,14.131-1.111,20.873-3.301
		c0.409-0.134,0.748-0.429,0.936-0.816c0.188-0.39,0.21-0.838,0.058-1.242l-16.119-43.379c-0.287-0.773-1.128-1.191-1.914-0.971
		c-6.646,1.887-14.021,0.104-19.076-4.633C97.561,90.312,96.665,90.286,96.05,90.793z"/>
	<path d="M105.244,11.703c-0.341-0.275-0.794-0.395-1.215-0.338c-14.563,2.042-27.762,8.624-38.176,19.041
		c-23.128,23.125-26.307,59.329-7.559,86.089c0.253,0.36,0.648,0.6,1.084,0.66c0.071,0.01,0.142,0.014,0.212,0.014
		c0.366,0,0.724-0.126,1.009-0.359l33.847-27.994c0.609-0.504,0.752-1.376,0.338-2.051c-4.867-7.898-3.688-17.998,2.87-24.556
		c2.692-2.689,6.093-4.546,9.834-5.362c0.765-0.166,1.294-0.87,1.243-1.654l-2.901-42.364
		C105.795,12.385,105.583,11.98,105.244,11.703z"/>
</g>
</svg>
