<?xml version="1.0" encoding="utf-8"?>
<!-- Generator: Adobe Illustrator 16.0.4, SVG Export Plug-In . SVG Version: 6.00 Build 0)  -->
<!DOCTYPE svg PUBLIC "-//W3C//DTD SVG 1.1//EN" "http://www.w3.org/Graphics/SVG/1.1/DTD/svg11.dtd">
<svg version="1.1" id="Layer_1" xmlns="http://www.w3.org/2000/svg" xmlns:xlink="http://www.w3.org/1999/xlink" x="0px" y="0px"
	 width="50px" height="50px" viewBox="0 0 50 50" enable-background="new 0 0 50 50" xml:space="preserve">
<path d="M35.203,25.988l-4.75-2.743v-5.441c0-0.179-0.096-0.344-0.25-0.433L25.5,14.657v-3.353c0-0.277-0.224-0.5-0.5-0.5
	s-0.5,0.223-0.5,0.5v3.353l-4.703,2.715c-0.154,0.089-0.25,0.254-0.25,0.433v5.441l-4.75,2.743c-0.154,0.088-0.25,0.254-0.25,0.432
	v5.721c0,0.178,0.096,0.344,0.25,0.432l4.703,2.715v3.408c0,0.277,0.224,0.5,0.5,0.5s0.5-0.223,0.5-0.5v-3.408l4.5-2.598l4.5,2.598
	v3.408c0,0.277,0.224,0.5,0.5,0.5s0.5-0.223,0.5-0.5v-3.408l4.703-2.715c0.154-0.088,0.25-0.254,0.25-0.432V26.42
	C35.453,26.242,35.357,26.076,35.203,25.988z M24.453,31.852L20,34.422l-4.453-2.57v-5.143L20,24.138l4.453,2.571V31.852z
	 M20.547,23.234v-5.142L25,15.521l4.453,2.571v5.142L25,25.805L20.547,23.234z M34.453,31.852L30,34.422l-4.453-2.57v-5.143
	L30,24.138l4.453,2.571V31.852z"/>
</svg>
