<?xml version="1.0" encoding="utf-8"?>
<!-- Generator: Adobe Illustrator 17.1.0, SVG Export Plug-In . SVG Version: 6.00 Build 0)  -->
<!DOCTYPE svg PUBLIC "-//W3C//DTD SVG 1.1//EN" "http://www.w3.org/Graphics/SVG/1.1/DTD/svg11.dtd">
<svg version="1.1" xmlns="http://www.w3.org/2000/svg" xmlns:xlink="http://www.w3.org/1999/xlink" x="0px" y="0px"
	 viewBox="0 0 64 64" enable-background="new 0 0 64 64" xml:space="preserve">
<g id="Imagenes">
</g>
<g id="Layer_2">
	<path d="M7.042,35C7.55,43.002,14.53,49.042,23,49.042c16.191,0,18.766-15.083,25.083-15.083c2.385,0,6.373,0.415,9.958,3.125
		c-0.931-4.381-5.027-12.042-12.078-12.042c-5.838,0-9.088,2.521-10.02,4.021c-0.356,2.521-2.177,7.111-8.657,8.35
		c-4.161,0.796-8.215-0.93-8.328-5.412c1.308,3.372,5.752,3.378,7.601,3.233c4.303-0.336,7.524-3.666,7.524-8.191
		c0-4.626-3.814-10.394-15.081-9.068C11.478,18.859,6.441,25.549,7.042,35z"/>
</g>
</svg>
