<?xml version="1.0" encoding="utf-8"?>
<!-- Generator: Adobe Illustrator 16.0.4, SVG Export Plug-In . SVG Version: 6.00 Build 0)  -->
<!DOCTYPE svg PUBLIC "-//W3C//DTD SVG 1.1//EN" "http://www.w3.org/Graphics/SVG/1.1/DTD/svg11.dtd">
<svg version="1.1" id="Layer_1" xmlns="http://www.w3.org/2000/svg" xmlns:xlink="http://www.w3.org/1999/xlink" x="0px" y="0px"
	 width="50px" height="50px" viewBox="0 0 50 50" enable-background="new 0 0 50 50" xml:space="preserve">
<path d="M22.541,31.209c0,0.275-0.224,0.5-0.5,0.5c-2.344,0-4.25-1.907-4.25-4.25c0-0.276,0.224-0.5,0.5-0.5s0.5,0.224,0.5,0.5
	c0,1.792,1.458,3.25,3.25,3.25C22.317,30.709,22.541,30.933,22.541,31.209z M34.099,34.521c-0.1,0.124-0.244,0.188-0.392,0.188
	c-0.11,0-0.22-0.036-0.312-0.109l-3.955-3.165c-0.785,0.787-1.869,1.274-3.065,1.274c-0.28,0-0.556-0.032-0.819-0.083
	c-1.039,0.707-2.252,1.083-3.514,1.083c-3.445,0-6.25-2.804-6.25-6.25c0-3.292,5.598-11.595,5.836-11.947
	c0.096-0.138,0.299-0.231,0.414-0.22c0.163,0,0.316,0.08,0.41,0.214c0.14,0.2,3.402,4.895,4.951,8.674
	c1.893,0.465,3.305,2.163,3.305,4.196c0,0.833-0.248,1.604-0.657,2.267l3.97,3.176C34.235,33.991,34.271,34.306,34.099,34.521z
	 M24.341,32.178c-1.361-0.73-2.3-2.152-2.3-3.803c0-2.35,1.881-4.256,4.214-4.321c-1.232-2.797-3.322-6.041-4.21-7.367
	c-1.776,2.709-5.254,8.485-5.254,10.771c0,2.895,2.354,5.25,5.25,5.25C22.847,32.709,23.629,32.526,24.341,32.178z M29.707,28.375
	c0-1.838-1.495-3.333-3.333-3.333s-3.333,1.495-3.333,3.333s1.495,3.333,3.333,3.333S29.707,30.213,29.707,28.375z"/>
</svg>
