<?xml version="1.0" encoding="utf-8"?>
<!-- Generator: Adobe Illustrator 16.0.0, SVG Export Plug-In . SVG Version: 6.00 Build 0)  -->
<!DOCTYPE svg PUBLIC "-//W3C//DTD SVG 1.1//EN" "http://www.w3.org/Graphics/SVG/1.1/DTD/svg11.dtd">
<svg version="1.1" id="Layer_1" xmlns="http://www.w3.org/2000/svg" xmlns:xlink="http://www.w3.org/1999/xlink" x="0px" y="0px"
	 width="96px" height="96px" viewBox="0 0 96 96" enable-background="new 0 0 96 96" xml:space="preserve">
<g>
	<path d="M47.702,20.388c1.024,0.709,2.431,0.452,3.14-0.573c0.399-0.576,0.482-1.272,0.304-1.901l4.056-8.493l-6.439,6.877
		c-0.635,0.065-1.241,0.386-1.631,0.952C46.421,18.273,46.678,19.68,47.702,20.388z"/>
	<path d="M29.676,67.045h15.295h12.719h15.294c8.222,0,14.91-6.688,14.91-14.911c0-8.222-6.688-14.909-14.91-14.909h-4.036V22.831
		c0-2.26-1.504-4.147-3.559-4.773c0-0.082,0.012-0.159,0.012-0.24c0-9.104-7.406-16.511-16.511-16.511S32.38,8.713,32.38,17.817
		H13.121c-2.77,0-5.015,2.244-5.015,5.014v26.064c0,2.77,2.245,5.014,5.015,5.014h50.812c2.77,0,5.015-2.244,5.015-5.014v-4.651
		h4.036c4.351,0,7.89,3.539,7.89,7.89c0,4.352-3.539,7.891-7.89,7.891H57.689H44.971H29.676c-8.222,0-14.909,6.689-14.909,14.911
		s6.688,14.91,14.909,14.91h24.56c1.396,2.867,4.331,4.848,7.735,4.848h5.89c4.755,0,8.608-3.854,8.608-8.607
		c0-4.755-3.854-8.609-8.608-8.609h-5.89c-3.601,0-6.681,2.212-7.966,5.349H29.676c-4.351,0-7.89-3.539-7.89-7.89
		C21.786,70.584,25.325,67.045,29.676,67.045z M48.89,6.302c6.62,0,11.987,5.367,11.987,11.986S55.51,30.273,48.89,30.273
		c-6.619,0-11.985-5.366-11.985-11.985S42.271,6.302,48.89,6.302z"/>
</g>
</svg>
