<?xml version="1.0" encoding="utf-8"?>
<!-- Generator: Adobe Illustrator 16.0.4, SVG Export Plug-In . SVG Version: 6.00 Build 0)  -->
<!DOCTYPE svg PUBLIC "-//W3C//DTD SVG 1.1//EN" "http://www.w3.org/Graphics/SVG/1.1/DTD/svg11.dtd">
<svg version="1.1" id="Layer_1" xmlns="http://www.w3.org/2000/svg" xmlns:xlink="http://www.w3.org/1999/xlink" x="0px" y="0px"
	 width="50px" height="50px" viewBox="0 0 50 50" enable-background="new 0 0 50 50" xml:space="preserve">
<path d="M25.656,25.39h0.254l0.154-0.479h0.895l0.16,0.479h0.262h0.26l-0.834-2.359h-0.285h-0.285L25.4,25.39H25.656z
	 M26.514,23.556l0.314,0.947h-0.627L26.514,23.556z M29.029,25.39c0.287,0,0.504-0.063,0.654-0.188
	c0.147-0.126,0.223-0.31,0.223-0.55c0-0.198-0.074-0.352-0.227-0.455c-0.041-0.028-0.093-0.055-0.146-0.075
	c0.029-0.015,0.055-0.03,0.078-0.047c0.145-0.103,0.217-0.25,0.217-0.446c0-0.188-0.064-0.333-0.193-0.438
	c-0.127-0.105-0.305-0.158-0.533-0.158h-0.906H27.96v2.357h0.235H29.029L29.029,25.39z M28.43,23.437h0.545
	c0.129,0,0.228,0.021,0.291,0.061c0.064,0.04,0.096,0.102,0.096,0.181c0,0.093-0.03,0.162-0.092,0.209
	c-0.061,0.046-0.151,0.068-0.274,0.068h-0.563v-0.519H28.43z M28.43,24.351h0.59c0.131,0,0.23,0.024,0.297,0.072
	c0.064,0.049,0.099,0.123,0.099,0.221c0,0.113-0.031,0.197-0.097,0.252c-0.063,0.058-0.159,0.084-0.289,0.084h-0.6V24.351z
	 M24.854,31.711c0,0.276-0.223,0.5-0.5,0.5c-2.344,0-4.25-1.905-4.25-4.25c0-0.276,0.226-0.5,0.5-0.5c0.277,0,0.5,0.224,0.5,0.5
	c0,1.792,1.459,3.25,3.25,3.25C24.631,31.211,24.854,31.435,24.854,31.711z M31.896,24.2c0-2.206-1.795-4-4-4
	c-0.168,0-0.326,0.028-0.486,0.049c-2.639-4.573-2.859-4.521-3.186-4.438c-0.115,0.031-0.218,0.104-0.285,0.203
	c-0.238,0.353-5.836,8.656-5.836,11.947c0,3.445,2.805,6.25,6.25,6.25c3.446,0,6.25-2.805,6.25-6.25
	c0-0.229-0.033-0.492-0.084-0.768C31.355,26.461,31.896,25.398,31.896,24.2z M30.896,24.2c0,1.653-1.347,3-3,3c-1.654,0-3-1.347-3-3
	c0-1.654,1.346-3,3-3C29.55,21.2,30.896,22.545,30.896,24.2z M29.604,27.961c0,2.896-2.354,5.25-5.25,5.25
	c-2.895,0-5.25-2.354-5.25-5.25c0-2.283,3.472-8.05,5.25-10.762c0.451,0.689,1.222,1.896,2.043,3.299
	c-1.463,0.595-2.5,2.027-2.5,3.702c0,2.206,1.793,4,4,4c0.605,0,1.177-0.146,1.691-0.39C29.59,27.856,29.604,27.918,29.604,27.961z"
	/>
</svg>
