<?xml version="1.0" encoding="utf-8"?>
<!-- Generator: Adobe Illustrator 16.0.4, SVG Export Plug-In . SVG Version: 6.00 Build 0)  -->
<!DOCTYPE svg PUBLIC "-//W3C//DTD SVG 1.1//EN" "http://www.w3.org/Graphics/SVG/1.1/DTD/svg11.dtd">
<svg version="1.1" id="Layer_1" xmlns="http://www.w3.org/2000/svg" xmlns:xlink="http://www.w3.org/1999/xlink" x="0px" y="0px"
	 width="50px" height="50px" viewBox="0 0 50 50" enable-background="new 0 0 50 50" xml:space="preserve">
<path d="M24.854,31.71c0,0.276-0.224,0.5-0.5,0.5c-2.343,0-4.25-1.905-4.25-4.25c0-0.276,0.224-0.5,0.5-0.5s0.5,0.224,0.5,0.5
	c0,1.792,1.458,3.25,3.25,3.25C24.63,31.21,24.854,31.434,24.854,31.71z M26.754,26.145h-0.413v-4.131h0.413h1.587
	c0.399,0,0.711,0.092,0.937,0.277c0.225,0.184,0.336,0.439,0.336,0.768c0,0.344-0.125,0.604-0.379,0.781
	c-0.041,0.029-0.086,0.057-0.137,0.082c0.098,0.037,0.184,0.082,0.258,0.135c0.265,0.182,0.396,0.446,0.396,0.795
	c0,0.422-0.13,0.743-0.393,0.963c-0.262,0.22-0.643,0.33-1.145,0.33H26.754z M27.167,23.631h0.985c0.216,0,0.377-0.04,0.482-0.12
	c0.107-0.08,0.16-0.203,0.16-0.365c0-0.141-0.057-0.246-0.168-0.315c-0.113-0.07-0.281-0.104-0.509-0.104h-0.952L27.167,23.631
	L27.167,23.631z M27.167,25.426h1.048c0.225,0,0.393-0.048,0.506-0.146c0.112-0.098,0.168-0.245,0.168-0.441
	c0-0.173-0.058-0.301-0.173-0.386c-0.114-0.086-0.288-0.129-0.519-0.129h-1.03V25.426z M30.52,27.193
	c0.051,0.273,0.084,0.537,0.084,0.767c0,3.446-2.804,6.25-6.25,6.25s-6.25-2.804-6.25-6.25c0-3.292,5.598-11.596,5.836-11.947
	c0.067-0.101,0.169-0.173,0.285-0.203c0.326-0.08,0.548-0.136,3.185,4.438c0.16-0.02,0.32-0.049,0.486-0.049c2.205,0,4,1.794,4,4
	C31.896,25.396,31.355,26.46,30.52,27.193z M27.896,21.198c-1.654,0-3,1.346-3,3c0,1.654,1.346,3,3,3c1.653,0,3-1.347,3-3
	C30.896,22.543,29.55,21.198,27.896,21.198z M29.587,27.811c-0.517,0.242-1.084,0.389-1.69,0.389c-2.207,0-4-1.795-4-4
	c0-1.676,1.037-3.107,2.5-3.702c-0.821-1.401-1.592-2.608-2.043-3.299c-1.778,2.712-5.249,8.479-5.249,10.763
	c0,2.895,2.355,5.25,5.25,5.25s5.25-2.355,5.25-5.25C29.604,27.917,29.59,27.855,29.587,27.811z"/>
</svg>
