<?xml version="1.0" encoding="utf-8"?>
<!-- Generator: Adobe Illustrator 16.0.4, SVG Export Plug-In . SVG Version: 6.00 Build 0)  -->
<!DOCTYPE svg PUBLIC "-//W3C//DTD SVG 1.1//EN" "http://www.w3.org/Graphics/SVG/1.1/DTD/svg11.dtd">
<svg version="1.1" id="Layer_1" xmlns="http://www.w3.org/2000/svg" xmlns:xlink="http://www.w3.org/1999/xlink" x="0px" y="0px"
	 width="50px" height="50px" viewBox="0 0 50 50" enable-background="new 0 0 50 50" xml:space="preserve">
<path d="M24.854,31.71c0,0.276-0.224,0.5-0.5,0.5c-2.343,0-4.25-1.905-4.25-4.25c0-0.276,0.224-0.5,0.5-0.5s0.5,0.224,0.5,0.5
	c0,1.792,1.458,3.25,3.25,3.25C24.63,31.21,24.854,31.434,24.854,31.71z M26.465,26.145h-0.447l1.461-4.131h0.5h0.5l1.461,4.131
	h-0.457h-0.457l-0.279-0.84H27.18l-0.271,0.84H26.465z M27.418,24.592h1.098l-0.549-1.659L27.418,24.592z M30.52,27.193
	c0.051,0.273,0.084,0.537,0.084,0.767c0,3.446-2.804,6.25-6.25,6.25s-6.25-2.804-6.25-6.25c0-3.292,5.598-11.596,5.836-11.947
	c0.067-0.101,0.169-0.173,0.285-0.203c0.328-0.08,0.548-0.136,3.185,4.438c0.16-0.02,0.32-0.049,0.486-0.049c2.205,0,4,1.794,4,4
	C31.896,25.396,31.355,26.46,30.52,27.193z M27.896,21.198c-1.654,0-3,1.346-3,3c0,1.654,1.346,3,3,3c1.653,0,3-1.347,3-3
	C30.896,22.543,29.55,21.198,27.896,21.198z M29.587,27.811c-0.517,0.242-1.084,0.389-1.69,0.389c-2.207,0-4-1.795-4-4
	c0-1.676,1.037-3.107,2.5-3.702c-0.821-1.401-1.592-2.608-2.043-3.299c-1.778,2.712-5.249,8.479-5.249,10.763
	c0,2.895,2.355,5.25,5.25,5.25s5.25-2.355,5.25-5.25C29.604,27.917,29.589,27.855,29.587,27.811z"/>
</svg>
