<?xml version="1.0" encoding="utf-8"?>
<!-- Generator: Adobe Illustrator 16.0.4, SVG Export Plug-In . SVG Version: 6.00 Build 0)  -->
<!DOCTYPE svg PUBLIC "-//W3C//DTD SVG 1.1//EN" "http://www.w3.org/Graphics/SVG/1.1/DTD/svg11.dtd">
<svg version="1.1" id="Layer_1" xmlns="http://www.w3.org/2000/svg" xmlns:xlink="http://www.w3.org/1999/xlink" x="0px" y="0px"
	 width="50px" height="50px" viewBox="0 0 50 50" enable-background="new 0 0 50 50" xml:space="preserve">
<g>
	<path d="M37.552,22.279c-0.573-4.252-2.917-7.35-5.806-7.35h-2.242c0.312-0.169,0.534-0.489,0.534-0.87c0-0.552-0.447-1-1-1h-6.951
		c-0.553,0-1,0.448-1,1c0,0.381,0.222,0.701,0.534,0.87h-3.365c-2.89,0-5.232,3.098-5.808,7.349
		c-2.083,1.053-3.163,3.239-3.163,5.772c0,1.947,0.64,3.689,1.879,4.871v4.019h5v-2.442h17.672v2.442h5v-4.019
		c1.239-1.182,1.879-2.924,1.879-4.871C40.715,25.519,39.635,23.333,37.552,22.279z M18.256,16.431h13.49
		c1.9,0,3.564,2.253,4.184,5.303c-0.31-0.059-0.639-0.09-0.978-0.107c0-0.006,0.002-0.012,0.002-0.019
		c0-1.77-1.438-3.209-3.208-3.209s-3.208,1.439-3.208,3.209H15.464c-0.493,0-0.957,0.044-1.394,0.125
		C14.689,18.684,16.354,16.431,18.256,16.431z M33.954,21.606h-4.416c0-1.218,0.989-2.209,2.208-2.209
		C32.964,19.397,33.954,20.39,33.954,21.606z M14.715,30.146c-1.154,0-2.094-0.938-2.094-2.096c0-1.156,0.938-2.094,2.094-2.094
		c1.157,0,2.096,0.938,2.096,2.094C16.811,29.211,15.872,30.146,14.715,30.146z M31.083,29.773H18.917c-0.276,0-0.5-0.225-0.5-0.5
		s0.224-0.5,0.5-0.5h12.166c0.276,0,0.5,0.225,0.5,0.5S31.359,29.773,31.083,29.773z M31.083,27.939H18.917
		c-0.276,0-0.5-0.225-0.5-0.5s0.224-0.5,0.5-0.5h12.166c0.276,0,0.5,0.225,0.5,0.5S31.359,27.939,31.083,27.939z M35.285,30.146
		c-1.157,0-2.096-0.938-2.096-2.096c0-1.156,0.938-2.094,2.096-2.094c1.154,0,2.094,0.938,2.094,2.094
		C37.379,29.211,36.439,30.146,35.285,30.146z"/>
</g>
</svg>
