<?xml version="1.0" encoding="utf-8"?>
<!-- Generator: Adobe Illustrator 16.0.4, SVG Export Plug-In . SVG Version: 6.00 Build 0)  -->
<!DOCTYPE svg PUBLIC "-//W3C//DTD SVG 1.1//EN" "http://www.w3.org/Graphics/SVG/1.1/DTD/svg11.dtd">
<svg version="1.1" id="Layer_1" xmlns="http://www.w3.org/2000/svg" xmlns:xlink="http://www.w3.org/1999/xlink" x="0px" y="0px"
	 width="50px" height="50px" viewBox="0 0 50 50" enable-background="new 0 0 50 50" xml:space="preserve">
<g>
	<path d="M40,26.262h-0.758v-2.801h-1.654l-2.291-3.955H17.529l-2.291,3.955h-4.667v2.801H10v1.581h0.572v0.988h3.285
		c0.185,0.946,1.019,1.663,2.019,1.663s1.833-0.717,2.019-1.663h14.447c0.185,0.946,1.019,1.663,2.019,1.663
		s1.834-0.717,2.019-1.663h2.863v-0.988H40V26.262z M15.876,29.703c-0.699,0-1.269-0.568-1.269-1.268s0.569-1.269,1.269-1.269
		s1.268,0.569,1.268,1.269S16.576,29.703,15.876,29.703z M34.36,29.703c-0.698,0-1.269-0.568-1.269-1.268s0.57-1.269,1.269-1.269
		c0.7,0,1.269,0.569,1.269,1.269S35.061,29.703,34.36,29.703z M38.451,28.04h-2.072c-0.185-0.946-1.019-1.663-2.019-1.663
		s-1.834,0.717-2.019,1.663H17.895c-0.185-0.946-1.019-1.663-2.019-1.663s-1.834,0.717-2.019,1.663h-2.495v-3.789h4.332l2.291-3.954
		H34.84l2.291,3.954h1.32V28.04L38.451,28.04z"/>
	<rect x="21.881" y="21.087" width="10.419" height="3.081"/>
	<polygon points="33.092,21.087 33.092,24.168 36.17,24.168 34.385,21.087 	"/>
	<polygon points="16.657,24.168 21.091,24.168 21.091,21.087 18.441,21.087 	"/>
</g>
</svg>
