<?xml version="1.0" encoding="utf-8"?>
<!-- Generator: Adobe Illustrator 17.0.0, SVG Export Plug-In . SVG Version: 6.00 Build 0)  -->
<!DOCTYPE svg PUBLIC "-//W3C//DTD SVG 1.1//EN" "http://www.w3.org/Graphics/SVG/1.1/DTD/svg11.dtd">
<svg version="1.1" id="Capa_1" xmlns="http://www.w3.org/2000/svg" xmlns:xlink="http://www.w3.org/1999/xlink" x="0px" y="0px"
	 width="17.582px" height="18.264px" viewBox="0 0 17.582 18.264" enable-background="new 0 0 17.582 18.264" xml:space="preserve">
<path d="M17.261,4.398c-0.227-0.688-0.711-1.167-1.272-1.501c0.015,0.037,0.028,0.071,0.041,0.108
	c0.745,2.259,0.132,4.861-1.058,6.055c-1.428,1.436-3.559,2.428-5.118,2.428c-1.609,0-3.099,0-3.099,0s-0.914,0.145-1.154,1.25
	c-0.241,1.105-0.769,3.171-0.769,3.171s-0.117,0.962-1.128,0.962c-0.523,0-1.142,0-1.617,0c-0.03,0.145-0.051,0.252-0.062,0.312
	c-0.168,1.009,0.529,1.08,0.529,1.08s1.37,0,2.381,0s1.127-0.961,1.127-0.961s0.528-2.066,0.77-3.172s1.153-1.248,1.153-1.248
	s1.49,0,3.101,0c0.871,0,3.462-0.709,5.119-2.428C17.372,9.239,18.007,6.658,17.261,4.398z M4.063,15.164
	c0,0,0.529-2.066,0.77-3.173c0.241-1.104,1.152-1.248,1.152-1.248s1.49,0,3.102,0c1.68,0,3.837-1.088,5.118-2.428
	c1.163-1.218,1.802-3.798,1.057-6.058C14.517,0,11.033,0,11.033,0h-6.97C3.486,0,3.247,0.816,3.247,0.816S0.194,14.034,0.026,15.043
	c-0.168,1.01,0.529,1.082,0.529,1.082s1.37,0,2.38,0S4.063,15.164,4.063,15.164z M6.045,6.784c0.178-0.86,0.729-3.319,0.729-3.319
	S7.076,2.893,7.62,2.897c0.675,0.01,1.544,0.039,1.544,0.039s1.769,0.024,2.01,1.272c0.241,1.25-0.474,2.469-1.001,2.803
	c-0.528,0.332-1.148,0.65-1.839,0.65s-1.94,0-1.94,0S5.865,7.647,6.045,6.784z"/>
</svg>
