<?xml version="1.0" encoding="utf-8"?>
<!-- Generator: Adobe Illustrator 17.0.0, SVG Export Plug-In . SVG Version: 6.00 Build 0)  -->
<!DOCTYPE svg PUBLIC "-//W3C//DTD SVG 1.1//EN" "http://www.w3.org/Graphics/SVG/1.1/DTD/svg11.dtd">
<svg version="1.1" id="Capa_1" xmlns="http://www.w3.org/2000/svg" xmlns:xlink="http://www.w3.org/1999/xlink" x="0px" y="0px"
	 width="20.75px" height="17.021px" viewBox="0 0 20.75 17.021" enable-background="new 0 0 20.75 17.021" xml:space="preserve">
<path d="M20.73,4.672c0,0.073-0.006,0.146-0.019,0.219l-0.999,5.94c-0.039,0.233-0.168,0.423-0.332,0.557
	c-0.166,0.133-0.376,0.214-0.605,0.214c-0.004,0-0.009,0-0.02,0h-0.047c-0.003,0-0.008,0-0.013,0s-0.009,0-0.019,0L8.422,11.393
	c-0.079-0.002-0.153-0.013-0.225-0.03c-0.023,0.115-0.058,0.233-0.117,0.353c-0.122,0.252-0.351,0.496-0.686,0.637
	c-0.209,0.085-0.359,0.331-0.355,0.546c0.004,0.135,0.045,0.243,0.154,0.34c0.109,0.094,0.318,0.189,0.695,0.19
	c1.593,0,10.647,0.021,10.647,0.021c0.216,0.002,0.392,0.178,0.39,0.394c0,0.216-0.175,0.391-0.393,0.391c0,0-0.029,0-0.076,0
	c0,0,0,0-0.002,0c0,0-0.139-0.001-0.38-0.001l-0.632-0.002c0.555,0.202,0.951,0.727,0.951,1.351c0,0.792-0.642,1.438-1.438,1.438
	c-0.794,0-1.44-0.645-1.44-1.438c0-0.627,0.403-1.155,0.961-1.352l-0.637-0.001c-0.648-0.003-1.369-0.004-2.108-0.005
	c-1.058-0.003-2.152-0.006-3.118-0.007l-0.686-0.001c0.581,0.185,1.004,0.722,1.004,1.365c0,0.792-0.644,1.438-1.439,1.438
	c-0.796,0-1.439-0.645-1.439-1.438c0-0.644,0.424-1.181,1.006-1.366l-0.688-0.002c-0.233,0-0.426,0-0.561,0
	c-0.507,0-0.918-0.133-1.208-0.381c-0.291-0.249-0.429-0.602-0.425-0.934c0.004-0.528,0.309-1.036,0.83-1.265
	c0.168-0.076,0.238-0.16,0.291-0.264c0.052-0.103,0.072-0.235,0.071-0.353c0.001-0.11-0.016-0.206-0.022-0.238
	c-0.035-0.097-0.198-0.543-0.427-1.186C6.657,8.865,6.305,7.887,5.944,6.885C5.222,4.883,4.462,2.776,4.319,2.404
	c-0.108-0.28-0.278-0.457-0.428-0.573C3.756,1.729,3.635,1.679,3.602,1.668L1.547,1.152c-0.153,0.054-0.324,0.085-0.51,0.085
	C0.465,1.237,0,0.96,0,0.619C0,0.276,0.465,0,1.037,0c0.47,0,0.865,0.188,0.99,0.447l1.865,0.466l0.01,0.003
	c0.029,0.01,0.238,0.074,0.49,0.255c0.255,0.18,0.554,0.484,0.734,0.952c0.015,0.039,0.041,0.106,0.068,0.178l0.153,0.526
	l2.702,7.807c0,0,8.166,0.106,10.607,0.189c0.149,0.005,0.409-0.26,0.434-0.406c0.281-1.476,0.809-4.531,1.084-6.1
	c0.078-0.445,0.429-0.57,0.551-0.219C20.782,4.239,20.725,4.517,20.73,4.672z"/>
</svg>
