<?xml version="1.0" encoding="utf-8"?>
<!-- Generator: Adobe Illustrator 16.0.4, SVG Export Plug-In . SVG Version: 6.00 Build 0)  -->
<!DOCTYPE svg PUBLIC "-//W3C//DTD SVG 1.1//EN" "http://www.w3.org/Graphics/SVG/1.1/DTD/svg11.dtd">
<svg version="1.1" id="Layer_1" xmlns="http://www.w3.org/2000/svg" xmlns:xlink="http://www.w3.org/1999/xlink" x="0px" y="0px"
	 width="226.77px" height="155.91px" viewBox="0 0 226.77 155.91" enable-background="new 0 0 226.77 155.91" xml:space="preserve">
<path d="M122.117,88.96h3.238c14.731,0,27.654-13.064,27.654-27.956v-5.469c0-13.883-11.889-24.353-27.654-24.353H80.375
	c-2.736,0-4.953,2.217-4.953,4.952c0,2.735,2.217,4.953,4.953,4.953h44.981c8.82,0,17.749,4.962,17.749,14.448v5.469
	c0,9.447-8.46,18.051-17.749,18.051H80.375c-2.736,0-4.953,2.218-4.953,4.953c0,2.734,2.217,4.952,4.953,4.952h26.601
	l-15.369,13.206H80.374c-2.735,0-4.952,2.218-4.952,4.953c0,2.645,2.078,4.785,4.688,4.926l-4.626,3.975
	c-2.075,1.783-2.311,4.91-0.528,6.983c0.979,1.14,2.366,1.726,3.759,1.726c1.143,0,2.292-0.394,3.226-1.197l13.337-11.46h51.129
	c2.735,0,4.952-2.217,4.952-4.952s-2.217-4.953-4.952-4.953h-39.603l15.065-12.945C121.962,89.142,122.031,89.046,122.117,88.96z"/>
</svg>
