<?xml version="1.0" encoding="utf-8"?>
<!-- Generator: Adobe Illustrator 17.1.0, SVG Export Plug-In . SVG Version: 6.00 Build 0)  -->
<!DOCTYPE svg PUBLIC "-//W3C//DTD SVG 1.1//EN" "http://www.w3.org/Graphics/SVG/1.1/DTD/svg11.dtd">
<svg version="1.1" xmlns="http://www.w3.org/2000/svg" xmlns:xlink="http://www.w3.org/1999/xlink" x="0px" y="0px"
	 viewBox="0 0 64 64" enable-background="new 0 0 64 64" xml:space="preserve">
<g id="Imagenes">
</g>
<g id="Layer_2">
	<path d="M5,45v1v3h20l2-3h1.667l2,3c0,0,20.167,0,24.417,0c1.922,0,3.106-1.432,3.832-3H59l0.111-0.445C59.828,43.787,60,42,60,42
		H5V45z"/>
	<path d="M35.5,22c-1.381,0-2.5,1.119-2.5,2.5V40h5V24.5C38,23.119,36.881,22,35.5,22z"/>
	<path d="M40,27.5V40h5V27.5c0-1.381-1.119-2.5-2.5-2.5S40,26.119,40,27.5z"/>
	<path d="M52,30.5c0-1.381-1.119-2.5-2.5-2.5S47,29.119,47,30.5V40h5V30.5z"/>
	<path d="M4.908,25.951L26,34.063V40h5V21.5c0-1.381-1.119-2.5-2.5-2.5S26,20.119,26,21.5v7.206L6.703,21.285
		c-1.495-0.575-3.109,0.004-3.604,1.292S3.413,25.376,4.908,25.951z"/>
</g>
</svg>
