<?xml version="1.0" encoding="utf-8"?>
<!-- Generator: Adobe Illustrator 16.0.4, SVG Export Plug-In . SVG Version: 6.00 Build 0)  -->
<!DOCTYPE svg PUBLIC "-//W3C//DTD SVG 1.1//EN" "http://www.w3.org/Graphics/SVG/1.1/DTD/svg11.dtd">
<svg version="1.1" id="Layer_1" xmlns="http://www.w3.org/2000/svg" xmlns:xlink="http://www.w3.org/1999/xlink" x="0px" y="0px"
	 width="50px" height="50px" viewBox="0 0 50 50" enable-background="new 0 0 50 50" xml:space="preserve">
<path d="M33.666,16.917c0,0.276-0.224,0.5-0.5,0.5H31.26l-1.563,7.194c-0.05,0.229-0.253,0.394-0.489,0.394h-9.729v6.099
	c0,0.276-0.224,0.5-0.5,0.5h-2.145c-0.276,0-0.5-0.224-0.5-0.5c0-0.275,0.224-0.5,0.5-0.5h1.645v-6.099c0-0.276,0.224-0.5,0.5-0.5
	h3.459v-3.124h-3.953c-0.276,0-0.5-0.224-0.5-0.5c0-0.275,0.224-0.5,0.5-0.5h9.566c0.277,0,0.5,0.225,0.5,0.5
	c0,0.276-0.223,0.5-0.5,0.5h-4.613v3.124h5.367l1.562-7.194c0.051-0.229,0.254-0.394,0.489-0.394h2.31
	C33.442,16.417,33.666,16.641,33.666,16.917z M28.838,29.454c0,2.276-1.854,4.129-4.13,4.129s-4.129-1.853-4.129-4.129
	s1.852-4.129,4.129-4.129S28.838,27.178,28.838,29.454z M27.838,29.454c0-1.726-1.404-3.129-3.13-3.129
	c-1.725,0-3.129,1.403-3.129,3.129s1.404,3.129,3.129,3.129C26.434,32.583,27.838,31.18,27.838,29.454z M26.527,29.454
	c0,1.003-0.816,1.819-1.82,1.819c-1.003,0-1.819-0.816-1.819-1.819c0-1.004,0.816-1.82,1.819-1.82
	C25.711,27.634,26.527,28.45,26.527,29.454z M25.527,29.454c0-0.452-0.368-0.82-0.82-0.82s-0.819,0.368-0.819,0.82
	s0.368,0.819,0.819,0.819C25.16,30.273,25.527,29.906,25.527,29.454z"/>
</svg>
