<?xml version="1.0" encoding="utf-8"?>
<!-- Generator: Adobe Illustrator 17.1.0, SVG Export Plug-In . SVG Version: 6.00 Build 0)  -->
<!DOCTYPE svg PUBLIC "-//W3C//DTD SVG 1.1//EN" "http://www.w3.org/Graphics/SVG/1.1/DTD/svg11.dtd">
<svg version="1.1" xmlns="http://www.w3.org/2000/svg" xmlns:xlink="http://www.w3.org/1999/xlink" x="0px" y="0px"
	 viewBox="0 0 64 64" enable-background="new 0 0 64 64" xml:space="preserve">
<g id="Imagenes">
</g>
<g id="Layer_2">
	<path d="M13.93,56.306C32.802,54.105,47,40,50,26c0.677-3.158-0.831-5.557-3.306-7.168c-0.788,0.674-1.613,1.3-2.467,1.859
		c0.41,0.499,0.592,0.99,0.439,1.395c-0.377,0.995-2.566,1.089-4.889,0.209c-2.323-0.88-3.9-2.401-3.522-3.396
		c0.285-0.752,1.604-0.987,3.233-0.679c0.268-0.388,0.627-0.932,1.03-1.594c-1.36-0.209-2.742-0.277-4.056-0.197
		c-17.995,1.092-3.113,16.471-25.214,34.151C9.378,51.803,6.977,57.117,13.93,56.306z"/>
	<path d="M42.083,20.792c0.476-0.245,0.944-0.516,1.405-0.81c0.789-0.504,1.551-1.076,2.287-1.689
		c5.685-4.745,9.626-12.128,9.626-12.128c-1.142-1.783-3.629-2.897-5.971-2.897c-1.213,0-2.388,0.299-3.316,0.96
		c-0.658,5.278-2.899,9.841-4.537,12.588c-0.4,0.672-0.761,1.232-1.057,1.669c-0.467,0.69-0.77,1.079-0.77,1.079L42.083,20.792z"/>
</g>
</svg>
