<?xml version="1.0" encoding="utf-8"?>
<!-- Generator: Adobe Illustrator 17.1.0, SVG Export Plug-In . SVG Version: 6.00 Build 0)  -->
<!DOCTYPE svg PUBLIC "-//W3C//DTD SVG 1.1//EN" "http://www.w3.org/Graphics/SVG/1.1/DTD/svg11.dtd">
<svg version="1.1" xmlns="http://www.w3.org/2000/svg" xmlns:xlink="http://www.w3.org/1999/xlink" x="0px" y="0px"
	 viewBox="0 0 64 64" enable-background="new 0 0 64 64" xml:space="preserve">
<g id="Imagenes">
</g>
<g id="Layer_2">
	<path d="M19,59h23c0,0,0-22,0-26c0-6-7.474-6-7.474-17H37V8H24v8h2.474C26.474,27,19,27,19,33C19,37,19,59,19,59z M30.5,30.474
		c4.636,0,8.395,3.758,8.395,8.395s-3.758,8.395-8.395,8.395s-8.395-3.758-8.395-8.395S25.864,30.474,30.5,30.474z"/>
	<path d="M30.617,45.615c3.035,0,5.54-2.093,6.131-4.864c0.051-0.194,0.093-0.379,0.116-0.543c0.021-0.143,0.035-0.278,0.035-0.392
		c0-0.027-0.003-0.051-0.004-0.077c0.003-0.073,0.011-0.143,0.011-0.217c0-1.805-0.815-3.422-2.102-4.538
		c-0.018-0.016-0.036-0.033-0.055-0.048c-0.055-0.048-0.109-0.095-0.159-0.136c-0.263-0.215-0.44-0.319-0.44-0.319v0.001
		c0.119,2.874-0.884,3.864-1.857,3.707c-2.49-0.402-2.401-2.819-1.001-4.724c0.394-0.536,0.886-1.034,1.461-1.432
		c-1.846,0.214-3.219,0.824-4.214,1.743c-1.224,1.132-1.842,2.76-1.925,4.81c-0.872-0.469-1.414-1.067-1.728-1.566
		c-0.327-0.52-0.424-0.924-0.424-0.924c-0.549,2.669-0.288,4.55,0.399,5.878C25.835,44.116,28.044,45.615,30.617,45.615z"/>
</g>
</svg>
