<?xml version="1.0" encoding="utf-8"?>
<!-- Generator: Adobe Illustrator 16.0.0, SVG Export Plug-In . SVG Version: 6.00 Build 0)  -->
<!DOCTYPE svg PUBLIC "-//W3C//DTD SVG 1.1//EN" "http://www.w3.org/Graphics/SVG/1.1/DTD/svg11.dtd">
<svg version="1.1" id="Layer_2" xmlns="http://www.w3.org/2000/svg" xmlns:xlink="http://www.w3.org/1999/xlink" x="0px" y="0px"
	 width="96px" height="96px" viewBox="0 0 96 96" enable-background="new 0 0 96 96" xml:space="preserve">
<g>
	<path d="M53.755,46.3c-0.213-0.144-21.564-14.322-46.309-20.476l-0.635-0.157L6.56,26.271c-0.391,0.942-1.117,2.717-1.603,4.06
		c-0.003,0-0.007-0.002-0.01-0.002C2.687,35.801,1.42,41.787,1.42,48.074c0,24.519,18.949,44.6,43,46.43
		c3.939-2.564,9.389-6.622,13.688-11.71c0.003-0.011,0.005-0.02,0.008-0.032c5.182-6.198,7.629-13.582,6.706-20.293
		C63.948,56.122,60.224,50.682,53.755,46.3z M58.789,79.344c4.93-33.266-41.69-46.173-52.335-48.676
		c0.33-0.888,0.791-2.057,1.262-3.204c24.208,6.168,44.983,19.961,45.188,20.099c6.093,4.128,9.596,9.214,10.408,15.114
		C64.061,68.11,62.416,74.043,58.789,79.344z"/>
	<path d="M47.997,1.496c-17.177,0-32.172,9.306-40.247,23.145c22.514,1.259,75.504,7.496,84.434,38.178
		c1.545-4.636,2.396-9.589,2.396-14.744C94.58,22.349,73.725,1.496,47.997,1.496z"/>
</g>
</svg>
