<?xml version="1.0" encoding="utf-8"?>
<!-- Generator: Adobe Illustrator 16.0.4, SVG Export Plug-In . SVG Version: 6.00 Build 0)  -->
<!DOCTYPE svg PUBLIC "-//W3C//DTD SVG 1.1//EN" "http://www.w3.org/Graphics/SVG/1.1/DTD/svg11.dtd">
<svg version="1.1" id="Layer_1" xmlns="http://www.w3.org/2000/svg" xmlns:xlink="http://www.w3.org/1999/xlink" x="0px" y="0px"
	 width="226.77px" height="155.91px" viewBox="0 0 226.77 155.91" enable-background="new 0 0 226.77 155.91" xml:space="preserve">
<g>
	<path d="M60.351,130.703c1.135,2.725,3.798,4.5,6.748,4.5h92.571c4.037,0,7.309-3.271,7.309-7.309v-21.924
		c0-4.037-3.271-7.309-7.309-7.309s-7.309,3.271-7.309,7.309v14.615H84.661l33.476-33.697c2.68-2.699,2.844-7.004,0.373-9.896
		L82.946,35.323h69.416v4.872c0,4.037,3.271,7.308,7.309,7.308s7.309-3.271,7.309-7.308v-12.18c0-4.037-3.271-7.309-7.309-7.309
		H67.099c-2.851,0-5.442,1.659-6.636,4.249c-1.194,2.59-0.772,5.637,1.077,7.805l41.484,48.603l-41.109,41.381
		C59.834,124.838,59.218,127.977,60.351,130.703z"/>
</g>
</svg>
