<?xml version="1.0" encoding="utf-8"?>
<!-- Generator: Adobe Illustrator 16.0.0, SVG Export Plug-In . SVG Version: 6.00 Build 0)  -->
<!DOCTYPE svg PUBLIC "-//W3C//DTD SVG 1.1//EN" "http://www.w3.org/Graphics/SVG/1.1/DTD/svg11.dtd">
<svg version="1.1" id="Layer_1" xmlns="http://www.w3.org/2000/svg" xmlns:xlink="http://www.w3.org/1999/xlink" x="0px" y="0px"
	 width="96px" height="96px" viewBox="0 0 96 96" enable-background="new 0 0 96 96" xml:space="preserve">
<g>
	<path d="M75.778,47.965H70.15l-1.183,2.555h-2.56l5.244-10.463h2.899l4.951,10.151c5.207-0.546,10.495-1.05,15.949-1.541
		c-7.759-6.949-15.615-12.673-24.269-17.734c-6.867,2.567-14.182,5.676-21.702,9.124h2.983c0.888,0.014,1.902,0.033,2.829,0.84
		c0.373,0.311,0.996,1.016,0.996,2.265c0,1.429-0.828,2.434-2.241,2.793c0.78,1.249,2.229,3.765,2.683,4.565h-2.834
		c-0.494-0.959-2.144-4.144-2.34-4.416h-2.26v4.416h-2.38v-9.273C31.518,48.418,15.388,56.906,0.55,65.067
		c29.614-8.255,52.265-11.967,76.384-14.586L75.778,47.965z M64.112,50.52h-2.408v-8.661h-4.068v-1.802h10.559v1.802h-4.083V50.52z"
		/>
	<polygon points="71.021,46.149 74.952,46.149 73.084,41.979 	"/>
	<path d="M53.695,43.856c0.169-0.212,0.254-0.477,0.254-0.781c0-0.304-0.083-0.589-0.233-0.812c-0.312-0.468-0.777-0.51-1.452-0.521
		h-2.971v2.688h2.535C52.462,44.431,53.244,44.431,53.695,43.856z"/>
</g>
</svg>
