<?xml version="1.0" encoding="utf-8"?>
<!-- Generator: Adobe Illustrator 16.0.4, SVG Export Plug-In . SVG Version: 6.00 Build 0)  -->
<!DOCTYPE svg PUBLIC "-//W3C//DTD SVG 1.1//EN" "http://www.w3.org/Graphics/SVG/1.1/DTD/svg11.dtd">
<svg version="1.1" id="Layer_1" xmlns="http://www.w3.org/2000/svg" xmlns:xlink="http://www.w3.org/1999/xlink" x="0px" y="0px"
	 width="50px" height="50px" viewBox="0 0 50 50" enable-background="new 0 0 50 50" xml:space="preserve">
<g>
	<path d="M40,26.79h-1.075v-3.973H27.277l-0.067-5.605h-7.22l-3.248,5.605h-5.931v3.973H10v2.24h0.811v1.401h3.972
		c0.262,1.342,1.445,2.356,2.862,2.356s2.599-1.016,2.861-2.356h8.635c0.262,1.342,1.445,2.356,2.862,2.356
		c1.418,0,2.601-1.016,2.863-2.356h4.059V29.03H40V26.79z M17.645,31.67c-0.992,0-1.798-0.808-1.798-1.798s0.807-1.797,1.798-1.797
		s1.797,0.807,1.797,1.797C19.442,30.864,18.636,31.67,17.645,31.67z M32.003,31.67c-0.991,0-1.798-0.808-1.798-1.798
		s0.807-1.797,1.798-1.797s1.799,0.807,1.799,1.797C33.802,30.864,32.995,31.67,32.003,31.67z M37.805,29.312h-2.938
		c-0.263-1.342-1.445-2.357-2.863-2.357c-1.417,0-2.601,1.017-2.862,2.357h-8.635c-0.262-1.342-1.444-2.357-2.861-2.357
		s-2.6,1.017-2.862,2.357h-2.851v-5.372h5.456l3.248-5.606h5.467l0.067,5.606h11.634V29.312z"/>
	<polygon points="18.752,23.821 25.042,23.821 25.042,19.452 21.281,19.452 	"/>
</g>
</svg>
