<?xml version="1.0" encoding="utf-8"?>
<!-- Generator: Adobe Illustrator 16.0.0, SVG Export Plug-In . SVG Version: 6.00 Build 0)  -->
<!DOCTYPE svg PUBLIC "-//W3C//DTD SVG 1.1//EN" "http://www.w3.org/Graphics/SVG/1.1/DTD/svg11.dtd">
<svg version="1.1" id="Layer_2" xmlns="http://www.w3.org/2000/svg" xmlns:xlink="http://www.w3.org/1999/xlink" x="0px" y="0px"
	 width="96px" height="96px" viewBox="0 0 96 96" enable-background="new 0 0 96 96" xml:space="preserve">
<g>
	<path fill-rule="evenodd" clip-rule="evenodd" d="M79.624,39.96c-0.041-2.681-1.588-4.492-3.723-4.571
		c-2.666-0.102-5.345-0.079-8.012,0.023c-1.939,0.075-3.616,1.941-3.625,3.879c-0.021,4.119-0.023,8.239,0.002,12.359
		c0.01,1.705,1.217,3.028,2.816,3.136c0.819,0.054,1.644,0.009,2.591,0.009c-0.05-0.199-0.333-0.605-0.338-1.395
		c-0.025-3.952-0.031-7.905-0.001-11.857c0-1.516,2.896-1.452,3.976-1.15c0.595,0.166,1.246,0.454,1.246,2.215
		c0,1.759,0.074,8.996,0.054,13.494c-0.008,1.859-0.671,2.609-2.486,2.623l-15.366,0.01c-1.398,0.016-1.813-0.541-1.812-1.889
		l0.016-48.938c0.004-2.507,0.79-4.811,2.465-6.749c-0.223,0-1.836,0.39-2.999,1.103c-3.048,1.87-5.542,4.242-5.545,7.785
		c-0.012,17.202,0.013,34.406-0.034,51.609c-0.004,1.488,0.456,1.889,1.906,1.877l24.051,0.018c2.704,0.045,4.771-2.324,4.813-4.552
		C79.731,52.655,79.723,46.306,79.624,39.96z"/>
	<path fill-rule="evenodd" clip-rule="evenodd" d="M86.323,36.808c-0.036-4.382-3.281-8.023-7.271-8.123
		c-4.839-0.119-9.687-0.099-14.527,0.012c-3.51,0.079-6.935,3.77-6.944,7.263c-0.013,5.01-0.016,10.021,0.003,15.031
		c0.008,2.18,1.597,3.768,3.759,3.812c0.804,0.017,1.609,0.001,2.218,0.001c-0.18-0.507-0.869-1.055-0.896-2.636
		c-0.085-4.842-0.074-9.686-0.03-14.528c0.022-2.542,1.644-4.153,4.186-4.188c3.395-0.049,6.792-0.043,10.188-0.007
		c2.384,0.025,3.945,1.632,3.948,4.015c0.013,7.906,0.038,15.812-0.04,23.715c-0.009,0.906-0.493,1.908-1.019,2.69
		c-0.935,1.391-2.473,1.54-4.022,1.538c-8.406-0.006-16.812-0.002-25.218-0.003c-0.909-0.001-1.796-0.11-1.791,1.293
		c0.032,7.35,0.017,15.959,0.016,23.633l5.978-3.207c0.065-0.253,0.097-0.536,0.092-0.866l0.017-13.526
		c0.002-2.528,0.004-2.531,2.61-2.532c6.736-0.002,13.474-0.093,20.208,0.029c5.104,0.093,8.383-3.688,8.499-8.366
		C86.492,53.512,86.392,45.157,86.323,36.808z"/>
	<path fill-rule="evenodd" clip-rule="evenodd" d="M47.155,91.463l-0.089-54.911c0.005-1.488-0.455-1.931-1.906-1.919l-24.051,0.025
		c-2.704-0.046-4.771,2.323-4.812,4.551c-0.114,6.345-0.104,12.693-0.007,19.04c0.043,2.68,1.588,4.491,3.723,4.571
		c2.668,0.102,5.345,0.078,8.013-0.024c1.94-0.075,3.615-1.941,3.626-3.879c0.021-4.119,0.021-8.239-0.002-12.359
		c-0.012-1.704-1.218-3.028-2.818-3.134c-0.818-0.056-1.644-0.01-2.591-0.01c0.265,0.458,0.335,0.719,0.34,1.394
		c0.025,3.952,0.03,7.904,0,11.857c0,1.474-2.897,1.452-3.976,1.15c-0.595-0.166-1.226-1.43-1.246-2.214
		c-0.119-4.496-0.074-8.996-0.055-13.495c0.009-1.858,0.672-2.566,2.486-2.579l15.366-0.054c1.399-0.016,1.814,0.541,1.813,1.888
		l-0.06,53.479L47.155,91.463z"/>
	<path fill-rule="evenodd" clip-rule="evenodd" d="M47.2,10.616c0.075-2.365,0.761-4.538,2.353-6.381
		c-0.223,0-1.753,0.39-2.916,1.103c-2.972,1.821-5.493,4.126-5.615,7.523c-0.004,0.029-0.003,0.063-0.005,0.093
		c-0.001,0.056-0.007,0.11-0.007,0.167c0,0.026,0,0.051,0,0.077c0,0.032-0.004,0.06-0.004,0.093
		c0.002,0.079,0.002,0.159,0.003,0.238l0.024,11.354c0,0.199-0.001,0.398-0.001,0.6c-0.001,2.528-0.004,2.53-2.61,2.531
		c-6.735,0.002-13.474,0.093-20.207-0.028c-5.105-0.093-8.383,3.688-8.5,8.365C9.508,44.695,9.607,53.05,9.676,61.4
		c0.037,4.383,3.281,8.024,7.272,8.123c4.839,0.119,9.686,0.099,14.526-0.012c3.51-0.08,6.936-3.77,6.945-7.262
		c0.013-5.011,0.016-10.021-0.003-15.031c-0.008-2.182-1.598-3.769-3.76-3.812c-0.804-0.017-1.608-0.003-2.218-0.003
		c0.635,0.644,0.882,1.783,0.896,2.637c0.085,4.841,0.072,9.686,0.029,14.528c-0.021,2.542-1.644,4.151-4.186,4.188
		c-3.395,0.048-6.792,0.043-10.188,0.006c-2.384-0.027-3.944-1.632-3.948-4.016c-0.012-7.904-0.037-15.81,0.04-23.714
		c0.009-0.907,0.493-1.907,1.019-2.689c0.935-1.392,2.473-1.539,4.022-1.539c8.406,0.007,16.813,0.002,25.219,0.003
		c0.909,0,1.796,0.11,1.79-1.291C47.104,24.619,47.197,17.72,47.2,10.616z"/>
</g>
</svg>
