<?xml version="1.0" encoding="utf-8"?>
<!-- Generator: Adobe Illustrator 16.0.4, SVG Export Plug-In . SVG Version: 6.00 Build 0)  -->
<!DOCTYPE svg PUBLIC "-//W3C//DTD SVG 1.1//EN" "http://www.w3.org/Graphics/SVG/1.1/DTD/svg11.dtd">
<svg version="1.1" id="Layer_1" xmlns="http://www.w3.org/2000/svg" xmlns:xlink="http://www.w3.org/1999/xlink" x="0px" y="0px"
	 width="50px" height="50px" viewBox="0 0 50 50" enable-background="new 0 0 50 50" xml:space="preserve">
<path d="M27.781,27.035v2.188h-2.188c-0.275,0-0.5,0.226-0.5,0.5v3.363c0,0.275,0.225,0.5,0.5,0.5h2.188v2.188
	c0,0.275,0.224,0.5,0.5,0.5h3.36c0.276,0,0.5-0.225,0.5-0.5v-2.188h2.188c0.276,0,0.5-0.225,0.5-0.5v-3.363
	c0-0.274-0.224-0.5-0.5-0.5h-2.188v-2.188c0-0.277-0.224-0.5-0.5-0.5h-3.36C28.005,26.535,27.781,26.758,27.781,27.035z
	 M28.781,29.723v-2.188h2.36v2.188c0,0.277,0.225,0.5,0.5,0.5h2.188v2.363h-2.188c-0.275,0-0.5,0.223-0.5,0.5v2.188h-2.36v-2.188
	c0-0.277-0.225-0.5-0.5-0.5h-2.188v-2.363h2.188C28.558,30.223,28.781,30,28.781,29.723z M38.597,25.602
	c-1.962-1.084-4.177-1.771-6.496-2.035v-9.426c0-0.276-0.224-0.5-0.5-0.5h-6.25c-0.275,0-0.5,0.224-0.5,0.5v5.5h-5.75
	c-0.275,0-0.5,0.224-0.5,0.5v4.5h-5.75c-0.275,0-0.5,0.224-0.5,0.5v8.25c0,0.275,0.225,0.5,0.5,0.5h6.25h4.117
	c1.51,2.959,3.733,5.408,6.491,7.025c0.078,0.047,0.165,0.068,0.253,0.068s0.175-0.021,0.253-0.068
	c4.937-2.896,8.165-8.443,8.641-14.84C38.868,25.881,38.769,25.695,38.597,25.602z M18.601,32.891h-5.25v-7.25h5.25V32.891z
	 M25.851,20.141v-5.5h5.25v8.836c-0.378-0.021-0.757-0.033-1.139-0.033c-1.403,0-2.781,0.16-4.111,0.462V20.141z M19.601,32.891
	v-7.75v-4.5h5.25v3.375v0.146c-1.234,0.354-2.421,0.832-3.522,1.44c-0.172,0.094-0.271,0.279-0.258,0.476
	c0.181,2.426,0.759,4.729,1.675,6.813H19.601z M29.962,39.902c-4.427-2.721-7.346-7.756-7.868-13.578
	c2.348-1.232,5.061-1.881,7.868-1.881c2.809,0,5.521,0.647,7.868,1.881C37.309,32.146,34.39,37.182,29.962,39.902z M25.893,10.91
	L11.967,22.771c-0.094,0.08-0.209,0.119-0.324,0.119c-0.142,0-0.281-0.062-0.381-0.177c-0.179-0.211-0.152-0.524,0.058-0.705
	L25.36,10.05c0.02-0.018,0.043-0.022,0.062-0.034h-2.279c-0.275,0-0.5-0.226-0.5-0.5c0-0.277,0.225-0.5,0.5-0.5h3.249
	c0.276,0,0.5,0.223,0.5,0.5v3.248c0,0.276-0.224,0.5-0.5,0.5c-0.275,0-0.5-0.224-0.5-0.5V10.91z"/>
</svg>
