<?xml version="1.0" encoding="utf-8"?>
<!-- Generator: Adobe Illustrator 17.1.0, SVG Export Plug-In . SVG Version: 6.00 Build 0)  -->
<!DOCTYPE svg PUBLIC "-//W3C//DTD SVG 1.1//EN" "http://www.w3.org/Graphics/SVG/1.1/DTD/svg11.dtd">
<svg version="1.1" xmlns="http://www.w3.org/2000/svg" xmlns:xlink="http://www.w3.org/1999/xlink" x="0px" y="0px"
	 viewBox="0 0 64 64" enable-background="new 0 0 64 64" xml:space="preserve">
<g id="Imagenes">
</g>
<g id="Layer_2">
	<path d="M37,12h3V8H22v4h3v11h0l-8,7v31h29V30l-9-7V12z M42,31v3c-8-3-14,4-22,0v-2l6.857-6L28,25v-2V12h6v11v2l1.333,1L42,31z"/>
	<path d="M36,2c-3,0-7,0-10,0s-3,4-3,4h16C39,6,39,2,36,2z"/>
</g>
</svg>
