<?xml version="1.0" encoding="utf-8"?>
<!-- Generator: Adobe Illustrator 16.0.0, SVG Export Plug-In . SVG Version: 6.00 Build 0)  -->
<!DOCTYPE svg PUBLIC "-//W3C//DTD SVG 1.1//EN" "http://www.w3.org/Graphics/SVG/1.1/DTD/svg11.dtd">
<svg version="1.1" id="Layer_1" xmlns="http://www.w3.org/2000/svg" xmlns:xlink="http://www.w3.org/1999/xlink" x="0px" y="0px"
	 width="96px" height="96px" viewBox="0 0 96 96" enable-background="new 0 0 96 96" xml:space="preserve">
<g>
	<path fill-rule="evenodd" clip-rule="evenodd" d="M10.704,94.671c-0.012-0.255-0.03-0.511-0.03-0.766
		c-0.003-25.384-0.003-50.768,0-76.152c0-1.024-0.117-0.797,0.785-1.159c7.858-3.159,15.921-5.694,24.127-7.78
		c6.861-1.744,13.781-3.211,20.774-4.312c4.168-0.657,8.341-1.325,12.535-1.783c5.229-0.57,10.482-0.933,15.728-1.381
		c0.2-0.018,0.405-0.003,0.68-0.003c0,0.212,0,0.393,0,0.573c0,16.461-0.002,32.924,0.01,49.386c0,0.391-0.121,0.602-0.447,0.811
		c-5.634,3.593-11.261,7.194-16.879,10.813c-0.391,0.251-0.671,0.28-1.093,0.051c-7.416-4.046-14.919-7.925-22.645-11.355
		c-1.866-0.828-3.771-1.57-5.66-2.35c-0.167-0.068-0.343-0.118-0.582-0.201c0,0.259,0,0.442,0,0.627c0,14.824,0,29.648,0.002,44.474
		c0,0.17,0.017,0.339,0.025,0.509C28.924,94.671,19.814,94.671,10.704,94.671z"/>
	<path fill-rule="evenodd" clip-rule="evenodd" d="M51.139,94.671c-0.01-0.204-0.028-0.407-0.03-0.611c0-7.982,0-15.966,0-23.948
		c0-0.201,0-0.401,0-0.713c0.608,0.285,1.135,0.51,1.64,0.776c4.758,2.515,9.514,5.034,14.26,7.57
		c0.336,0.179,0.56,0.164,0.871-0.036c5.653-3.626,11.311-7.239,16.97-10.855c0.124-0.081,0.254-0.15,0.454-0.266
		c0,0.249,0,0.429,0,0.607c0,8.938,0,17.876,0,26.814c0,0.22,0.02,0.439,0.028,0.661C73.933,94.671,62.537,94.671,51.139,94.671z"/>
</g>
</svg>
