<?xml version="1.0" encoding="utf-8"?>
<!-- Generator: Adobe Illustrator 16.0.4, SVG Export Plug-In . SVG Version: 6.00 Build 0)  -->
<!DOCTYPE svg PUBLIC "-//W3C//DTD SVG 1.1//EN" "http://www.w3.org/Graphics/SVG/1.1/DTD/svg11.dtd">
<svg version="1.1" id="Layer_1" xmlns="http://www.w3.org/2000/svg" xmlns:xlink="http://www.w3.org/1999/xlink" x="0px" y="0px"
	 width="226.77px" height="155.91px" viewBox="0 0 226.77 155.91" enable-background="new 0 0 226.77 155.91" xml:space="preserve">
<g>
	<path d="M156.398,83.648c-2.062,0-3.74,1.678-3.74,3.74v2.997h-25.825c0-0.082,0-0.137,0-0.22
		c-0.357-1.348-0.824-2.668-1.402-3.878c-0.303-0.66-1.072-0.935-1.732-0.633c-0.66,0.303-0.936,1.073-0.633,1.733
		c0.44,0.935,0.798,1.952,1.101,2.997H110.58L97.186,76.91c0.11,0.027,0.247,0.055,0.385,0.055c0.083,0,0.165,0,0.248-0.027
		c1.238-0.247,2.475-0.412,3.713-0.522c0.715-0.055,1.265-0.688,1.21-1.402c-0.055-0.716-0.688-1.266-1.402-1.21
		c-1.32,0.109-2.695,0.302-4.016,0.55c-0.715,0.138-1.155,0.825-1.018,1.54c0,0.055,0.028,0.082,0.055,0.138L80.052,59.584
		l2.035-2.035c1.43-1.431,1.43-3.713,0-5.144c-1.43-1.43-3.712-1.43-5.143,0l-9.269,9.269c-1.43,1.43-1.43,3.713,0,5.143
		c0.715,0.716,1.65,1.073,2.585,1.073s1.87-0.357,2.585-1.073l1.925-1.925l31.6,31.848c0.715,0.715,1.65,1.1,2.667,1.1h43.646v2.998
		c0,2.062,1.678,3.74,3.74,3.74s3.74-1.678,3.74-3.74V87.389C160.139,85.326,158.461,83.648,156.398,83.648z"/>
	<path d="M105.409,73.774c-0.715-0.055-1.32,0.522-1.375,1.238c-0.027,0.715,0.522,1.319,1.238,1.375
		c1.265,0.055,2.502,0.22,3.685,0.468c0.083,0.027,0.165,0.027,0.248,0.027c0.605,0,1.155-0.44,1.265-1.045
		c0.138-0.716-0.33-1.403-1.018-1.541C108.159,73.995,106.784,73.83,105.409,73.774z"/>
	<path d="M121.195,84.253c0.248,0.357,0.66,0.522,1.045,0.522c0.275,0,0.551-0.082,0.771-0.247c0.577-0.413,0.715-1.237,0.275-1.815
		c-0.825-1.1-1.761-2.146-2.806-3.08c-0.522-0.495-1.348-0.44-1.843,0.082c-0.495,0.523-0.439,1.348,0.083,1.843
		C119.655,82.383,120.48,83.291,121.195,84.253z"/>
	<path d="M112.504,77.817c1.155,0.44,2.283,0.963,3.3,1.567c0.221,0.138,0.44,0.193,0.66,0.193c0.44,0,0.88-0.221,1.128-0.633
		c0.357-0.605,0.165-1.431-0.468-1.788c-1.155-0.688-2.42-1.292-3.74-1.787c-0.66-0.248-1.43,0.082-1.678,0.77
		S111.845,77.57,112.504,77.817z"/>
	<g>
		<path d="M117.4,62.224l-0.963,0.248c-0.138,0.027-0.33,0.082-0.495,0.082c-0.633,0-1.21-0.55-1.21-1.183
			c0-0.55,0.357-1.018,0.907-1.183l1.788-0.522c0.522-0.138,0.907-0.22,1.293-0.22h0.027c0.742,0,1.375,0.604,1.375,1.375v10.065
			c0,0.743-0.605,1.375-1.375,1.375c-0.743,0-1.375-0.604-1.375-1.375C117.4,70.887,117.4,62.224,117.4,62.224z"/>
		<path d="M123.203,70.942c-0.247-0.221-0.468-0.605-0.468-0.99c0-0.715,0.605-1.32,1.32-1.32c0.385,0,0.66,0.138,0.88,0.33
			c0.716,0.605,1.458,0.935,2.448,0.935c1.045,0,1.787-0.604,1.787-1.512v-0.028c0-1.018-0.907-1.595-2.447-1.595h-0.44
			c-0.66,0-1.183-0.55-1.183-1.183c0-0.385,0.165-0.688,0.605-1.128l2.447-2.447h-3.85c-0.633,0-1.183-0.55-1.183-1.183
			s0.55-1.183,1.183-1.183h6.105c0.797,0,1.402,0.468,1.402,1.21c0,0.688-0.33,1.045-0.825,1.54l-2.447,2.338
			c1.705,0.275,3.383,1.183,3.383,3.521v0.027c0,2.365-1.733,4.098-4.511,4.098C125.568,72.372,124.221,71.822,123.203,70.942z"/>
		<path d="M134.451,71.189c-0.33-0.22-0.55-0.604-0.55-1.045c0-0.715,0.605-1.32,1.32-1.32c0.33,0,0.55,0.083,0.742,0.248
			c0.771,0.55,1.513,0.797,2.393,0.797c1.155,0,2.035-0.632,2.035-1.732v-0.027c0-1.072-0.907-1.705-2.228-1.705
			c-1.045,0-1.513,0.33-1.897,0.33s-0.688-0.165-1.265-0.55c-0.386-0.275-0.551-0.633-0.495-1.101l0.247-4.263
			c0.027-0.66,0.55-1.183,1.21-1.183h5.445c0.66,0,1.211,0.55,1.211,1.21s-0.551,1.21-1.211,1.21h-4.235l-0.137,2.173
			c0.495-0.138,0.962-0.22,1.649-0.22c2.476,0,4.4,1.183,4.4,4.015v0.028c0,2.667-1.925,4.345-4.675,4.345
			C136.651,72.372,135.441,71.904,134.451,71.189z"/>
		<path d="M144.875,62.279v-0.028c0-1.513,1.21-2.75,2.777-2.75c1.568,0,2.751,1.21,2.751,2.723v0.027
			c0,1.513-1.211,2.751-2.778,2.751C146.03,65.002,144.875,63.819,144.875,62.279z M144.93,66.597c0-0.33,0.275-0.605,0.605-0.605
			h4.208c0.33,0,0.604,0.275,0.604,0.605s-0.274,0.605-0.604,0.605h-4.208C145.205,67.174,144.93,66.927,144.93,66.597z
			 M148.918,62.279v-0.028c0-0.77-0.522-1.457-1.32-1.457s-1.265,0.66-1.265,1.43v0.027c0,0.771,0.522,1.458,1.319,1.458
			C148.45,63.736,148.918,63.049,148.918,62.279z"/>
	</g>
</g>
</svg>
