<?xml version="1.0" encoding="utf-8"?>
<!-- Generator: Adobe Illustrator 17.0.0, SVG Export Plug-In . SVG Version: 6.00 Build 0)  -->
<!DOCTYPE svg PUBLIC "-//W3C//DTD SVG 1.1//EN" "http://www.w3.org/Graphics/SVG/1.1/DTD/svg11.dtd">
<svg version="1.1" id="Capa_1" xmlns="http://www.w3.org/2000/svg" xmlns:xlink="http://www.w3.org/1999/xlink" x="0px" y="0px"
	 width="17.443px" height="13.683px" viewBox="0 0 17.443 13.683" enable-background="new 0 0 17.443 13.683" xml:space="preserve">
<path d="M8.418,8.245V4.507c0-0.245,0.2-0.447,0.449-0.447h6.615V1.842c0-0.618-0.497-1.125-1.104-1.125H2.017
	c-0.608,0-1.104,0.507-1.104,1.125v9.999c0,0.619,0.497,1.125,1.104,1.125h12.362c0.608,0,1.104-0.506,1.104-1.125v-3.15H8.868
	C8.618,8.692,8.418,8.492,8.418,8.245z M16.175,4.742H9.507c-0.195,0-0.355,0.141-0.355,0.317v2.637
	c0,0.174,0.159,0.317,0.355,0.317h6.668c0.196,0,0.355-0.142,0.355-0.317V5.059C16.53,4.882,16.371,4.742,16.175,4.742z
	 M10.891,7.402c-0.568,0-1.026-0.46-1.026-1.026c0-0.568,0.459-1.026,1.026-1.026s1.026,0.459,1.026,1.026
	S11.457,7.402,10.891,7.402z"/>
</svg>
