<svg width="18.29" xmlns="http://www.w3.org/2000/svg" height="12.66" viewBox="0 0 18.29 12.66" xmlns:xlink="http://www.w3.org/1999/xlink" enable-background="new 0 0 18.29 12.66">
<path d="m5.271,5.363c-2.911,0-5.271,3.268-5.271,7.297h18.29c0-1.137-.192-2.207-.527-3.166-.004-.012-.005-.021-.009-.033l-.041-.113c-.029-.076-.057-.154-.087-.23l-2.707-7.248c.139-.193 .222-.43 .222-.686 0-.654-.53-1.184-1.185-1.184h-10.584c-.653,0-1.184,.529-1.184,1.184 0,.655 .529,1.186 1.184,1.186h8.761c.014,.047 .021,.098 .039,.146l1.068,2.864c-.074-.006-.147-.016-.224-.016l-7.745-.001zm.317,5.285c-.904,0-1.637-.732-1.637-1.637 0-.905 .731-1.637 1.637-1.637 .903,0 1.636,.732 1.636,1.637 0,.905-.732,1.637-1.636,1.637zm7.82-1.637c0,.904-.732,1.637-1.636,1.637-.904,0-1.638-.732-1.638-1.637 0-.905 .732-1.637 1.638-1.637 .903,.001 1.636,.733 1.636,1.637z"/>
</svg>
