<?xml version="1.0" encoding="utf-8"?>
<!-- Generator: Adobe Illustrator 16.0.4, SVG Export Plug-In . SVG Version: 6.00 Build 0)  -->
<!DOCTYPE svg PUBLIC "-//W3C//DTD SVG 1.1//EN" "http://www.w3.org/Graphics/SVG/1.1/DTD/svg11.dtd">
<svg version="1.1" id="Layer_1" xmlns="http://www.w3.org/2000/svg" xmlns:xlink="http://www.w3.org/1999/xlink" x="0px" y="0px"
	 width="226.77px" height="155.91px" viewBox="0 0 226.77 155.91" enable-background="new 0 0 226.77 155.91" xml:space="preserve">
<path d="M134.084,118.617H116.21v11.299c0,2.086,1.692,3.76,3.76,3.76h20.709c2.086,0,3.76-1.693,3.76-3.76V26.369
	c0-2.086-1.693-3.76-3.76-3.76H119.97c-2.087,0-3.76,1.693-3.76,3.76v9.41h17.874c0.512,0,0.944,0.414,0.944,0.945
	c0,0.531-0.413,0.945-0.944,0.945H116.21v5.65h10.354c0.512,0,0.945,0.413,0.945,0.945c0,0.531-0.413,0.945-0.945,0.945H116.21v3.76
	h17.874c0.512,0,0.944,0.414,0.944,0.945c0,0.532-0.413,0.945-0.944,0.945H116.21v5.649h10.354c0.512,0,0.945,0.414,0.945,0.945
	c0,0.531-0.413,0.945-0.945,0.945H116.21v3.76h17.874c0.512,0,0.944,0.414,0.944,0.945c0,0.532-0.413,0.945-0.944,0.945H116.21v5.65
	h10.354c0.512,0,0.945,0.414,0.945,0.945c0,0.532-0.413,0.945-0.945,0.945H116.21v3.76h17.874c0.512,0,0.944,0.414,0.944,0.945
	c0,0.532-0.413,0.945-0.944,0.945H116.21v5.65h10.354c0.512,0,0.945,0.414,0.945,0.945s-0.413,0.945-0.945,0.945H116.21v5.648
	h17.874c0.512,0,0.944,0.414,0.944,0.945s-0.413,0.945-0.944,0.945H116.21v3.76h10.354c0.512,0,0.945,0.414,0.945,0.945
	s-0.413,0.945-0.945,0.945H116.21v5.648h17.874c0.512,0,0.944,0.414,0.944,0.945s-0.413,0.945-0.944,0.945H116.21v3.701h10.354
	c0.512,0,0.945,0.412,0.945,0.945c0,0.531-0.413,0.943-0.945,0.943H116.21v5.65h17.874c0.512,0,0.944,0.414,0.944,0.945
	S134.615,118.617,134.084,118.617z M108.67,34.381c0-7.264-5.905-13.17-13.17-13.17c-6.851,0-12.48,5.237-13.11,11.93
	c-0.039,0.414-0.059,0.827-0.059,1.26c0,0.02,0,0.965,0,2.362c0,0.295,0,0.61,0,0.945h0.944H106.8h0.945
	c0.512,0,0.944-0.413,0.944-0.945v-2.382H108.67z M108.788,40.503v0.945c0,13.917,0,61.538,0,68.704c0,0.59-4.843,9.842-4.843,9.842
	c-0.157,0.314-0.492,0.512-0.847,0.512h-7.5H95.52h-7.5c-0.354,0-0.688-0.197-0.847-0.512c0,0-4.842-9.252-4.842-9.842
	c0-7.166,0-54.806,0-68.704v-0.945c0-0.512,0.413-0.945,0.944-0.945H95.52h0.079h12.244
	C108.375,39.559,108.788,39.972,108.788,40.503z M102.41,122.258c0.177,0.295,0.177,0.65,0.02,0.926l-5.157,9.783
	c-0.513,0.965-0.887,1.732-1.831,1.732c-0.945,0-1.339-0.768-1.851-1.732l-5.473-10.02c-0.138-0.295-0.138-0.531,0.039-0.826
	c0.178-0.275,0.473-0.355,0.808-0.355h12.638C101.938,121.785,102.232,121.963,102.41,122.258z"/>
</svg>
