<?xml version="1.0" encoding="utf-8"?>
<!-- Generator: Adobe Illustrator 16.0.0, SVG Export Plug-In . SVG Version: 6.00 Build 0)  -->
<!DOCTYPE svg PUBLIC "-//W3C//DTD SVG 1.1//EN" "http://www.w3.org/Graphics/SVG/1.1/DTD/svg11.dtd">
<svg version="1.1" id="Layer_1" xmlns="http://www.w3.org/2000/svg" xmlns:xlink="http://www.w3.org/1999/xlink" x="0px" y="0px"
	 width="96px" height="96px" viewBox="0 0 96 96" enable-background="new 0 0 96 96" xml:space="preserve">
<g>
	<path fill-rule="evenodd" clip-rule="evenodd" d="M53.066,95.194c0-5.482,0-10.927,0-16.447c0.239,0,0.465,0,0.69,0
		c7.786,0,15.571-0.002,23.356,0.008c0.409,0.002,0.698-0.112,0.985-0.404c7.548-7.688,11.866-16.872,12.489-27.646
		c0.69-11.947-3.047-22.427-11.063-31.314C73.791,13.034,66.743,8.715,58.413,6.736C44.527,3.442,31.908,6.26,20.814,15.261
		C13.61,21.107,8.873,28.646,6.618,37.657c-2.474,9.89-1.519,19.49,2.819,28.729c2.107,4.487,4.976,8.448,8.462,11.971
		c0.292,0.296,0.586,0.398,0.989,0.398c7.894-0.01,15.787-0.008,23.68-0.008c0.229,0,0.458,0,0.715,0c0,5.509,0,10.957,0,16.497
		c-7.925-0.807-15.206-3.362-21.747-7.859C10.634,79.891,3.778,69.632,1.42,56.596C-3.475,29.536,15.225,4.807,41.5,1.208
		c27.01-3.699,50.901,15.723,53.599,41.939C97.904,70.41,77.737,92.681,53.066,95.194z"/>
	<path d="M74.511,42.977c-1.125-6.391-4.35-11.644-9.335-15.808c-3.532-2.95-7.6-4.83-12.12-5.744l-0.528-0.114l-0.266,0.495
		L47.884,29.9l-4.377-8.095l-0.265-0.495l-0.528,0.114c-4.521,0.914-8.588,2.794-12.12,5.744c-4.985,4.164-8.211,9.417-9.336,15.808
		c-1.562,8.876,0.757,16.709,6.891,23.349c4.005,4.333,9.006,6.972,14.815,8.095l0.202,0.044c0.808-1.518,1.625-3.093,2.44-4.629
		l2.278-4.276v-0.276v0.276l2.278,4.276c0.815,1.536,1.633,3.111,2.441,4.629l0.202-0.044c5.809-1.123,10.809-3.762,14.814-8.095
		C73.755,59.686,76.073,51.853,74.511,42.977z M59.108,57.021c-2.978,3.608-7.114,5.35-11.224,5.361
		c-4.11-0.012-8.246-1.753-11.224-5.361c-6.212-7.525-3.363-18.955,6.192-22.618c0.363-0.141,0.552-0.114,0.753,0.273
		c1.264,2.432,2.558,4.847,3.854,7.262c0.094,0.174,0.413,0.84,0.413,0.84s0.005-0.008,0.012-0.022
		c0.008,0.015,0.012,0.022,0.012,0.022s0.32-0.666,0.413-0.84c1.296-2.415,2.59-4.83,3.854-7.262
		c0.201-0.388,0.39-0.414,0.754-0.273C62.471,38.065,65.32,49.495,59.108,57.021z"/>
</g>
</svg>
