<?xml version="1.0" encoding="utf-8"?>
<!-- Generator: Adobe Illustrator 16.0.0, SVG Export Plug-In . SVG Version: 6.00 Build 0)  -->
<!DOCTYPE svg PUBLIC "-//W3C//DTD SVG 1.1//EN" "http://www.w3.org/Graphics/SVG/1.1/DTD/svg11.dtd">
<svg version="1.1" id="Layer_1" xmlns="http://www.w3.org/2000/svg" xmlns:xlink="http://www.w3.org/1999/xlink" x="0px" y="0px"
	 width="96px" height="96px" viewBox="0 0 96 96" enable-background="new 0 0 96 96" xml:space="preserve">
<g>
	<path d="M48,1.5C22.319,1.5,1.5,22.319,1.5,48c0,3.461,0.391,6.83,1.107,10.076c2.996-4.831,16.762-25.734,41.487-31.101
		c0,0-36.445,14.881-39.181,38.512C11.824,82.5,28.508,94.5,48,94.5c25.681,0,46.5-20.819,46.5-46.5S73.681,1.5,48,1.5z
		 M30.131,67.131C0.902,65.803,20.3,46.272,20.3,46.272c23.017-24.976,53.208-22.983,53.208-22.983
		C25.879,39.63,36.11,57.167,36.11,57.167c2.392,7.705,43.045,9.964,43.045,9.964H30.131z"/>
</g>
</svg>
