<?xml version="1.0" encoding="utf-8"?>
<!-- Generator: Adobe Illustrator 16.0.4, SVG Export Plug-In . SVG Version: 6.00 Build 0)  -->
<!DOCTYPE svg PUBLIC "-//W3C//DTD SVG 1.1//EN" "http://www.w3.org/Graphics/SVG/1.1/DTD/svg11.dtd">
<svg version="1.1" id="Layer_1" xmlns="http://www.w3.org/2000/svg" xmlns:xlink="http://www.w3.org/1999/xlink" x="0px" y="0px"
	 width="50px" height="50px" viewBox="0 0 50 50" enable-background="new 0 0 50 50" xml:space="preserve">
<path d="M25.834,29.615c0,0.852-0.69,1.542-1.542,1.542c-0.851,0-1.541-0.69-1.541-1.542c0-0.853,0.69-1.542,1.541-1.542
	C25.144,28.074,25.834,28.764,25.834,29.615z M24.334,32.99c-0.552,0-1,0.447-1,1c0,0.552,0.448,1,1,1c0.552,0,1-0.448,1-1
	C25.334,33.438,24.886,32.99,24.334,32.99z M30.251,27.657c0-0.23-0.188-0.417-0.417-0.417c-0.23,0-0.417,0.187-0.417,0.417
	c0,0.229,0.187,0.417,0.417,0.417C30.063,28.074,30.251,27.888,30.251,27.657z M35.576,13.214l-5.223,1.741l-0.295,1.55
	c2.045,0.406,3.564,1.137,3.564,2.232c0,0.004-0.001,0.007-0.001,0.011c0.049,0.093,0.075,0.199,0.057,0.311l-2.84,16.752
	c0.005,0.029,0.017,0.057,0.017,0.086c0,1.471-3.232,1.862-5.144,1.862c-1.91,0-5.143-0.392-5.143-1.862
	c0-0.01,0.005-0.019,0.006-0.028l-2.12-13.315c-0.068,0.003-0.133,0.021-0.203,0.021c-0.003,0-0.061,0-0.063,0
	c-2.297-0.034-4.139-1.931-4.106-4.229c0.034-2.264,1.903-4.105,4.166-4.105c1.177,0.017,2.217,0.466,2.992,1.265
	c0.266,0.274,0.473,0.586,0.652,0.913c1.162-0.192,2.465-0.29,3.819-0.303c1.133,0,2.291,0.075,3.359,0.224l0.354-1.859
	c0.034-0.178,0.161-0.324,0.333-0.381l5.5-1.833c0.265-0.089,0.545,0.055,0.632,0.316C35.979,12.844,35.838,13.127,35.576,13.214z
	 M22.27,17.369c0.092,0.357,0.154,0.723,0.148,1.101c-0.008,0.568-0.133,1.109-0.35,1.603c1.1,0.185,2.34,0.287,3.645,0.287
	c0.964,0,1.838-0.055,2.623-0.144l0.551-2.893c-0.905-0.126-1.962-0.206-3.173-0.206c-0.003,0-0.006,0-0.008,0
	C24.492,17.115,23.322,17.206,22.27,17.369z M18.253,21.574c0.184,0,0.362-0.023,0.538-0.054c0.002,0,0.004-0.002,0.006-0.002
	c0.004,0,0.008,0.001,0.012,0c0.602-0.109,1.143-0.39,1.577-0.79c-1.317-0.369-2.584-0.983-2.584-1.991c0-0.276,0.224-0.5,0.5-0.5
	c0.276,0,0.5,0.224,0.5,0.5c0,0.202,0.569,0.721,2.242,1.128c0.224-0.425,0.366-0.9,0.374-1.41c0.006-0.416-0.069-0.82-0.215-1.196
	c-0.024-0.033-0.038-0.072-0.053-0.111c-0.15-0.346-0.356-0.668-0.626-0.946c-0.589-0.607-1.38-0.948-2.226-0.961l0,0
	c-1.769,0-3.188,1.399-3.214,3.119c-0.025,1.746,1.375,3.188,3.121,3.214l0.049,0.5L18.253,21.574L18.253,21.574z M19.441,22.379
	l0.198,1.247c1.621-0.808,5.224-0.862,6.112-0.862c0.356,0,1.154,0.009,2.086,0.071l0.303-1.592
	c-0.795,0.076-1.617,0.115-2.427,0.115c-1.52,0-2.965-0.132-4.217-0.374C20.972,21.641,20.261,22.13,19.441,22.379z M32.474,20.184
	c-0.809,0.435-1.977,0.745-3.293,0.936l-0.343,1.802c1.14,0.122,2.307,0.338,3.05,0.717L32.474,20.184z M28.393,25.263
	c1.728-0.165,2.812-0.465,3.178-0.689c-0.349-0.212-1.343-0.495-2.92-0.665L28.393,25.263z M27.647,23.826
	c-0.578-0.037-1.201-0.062-1.896-0.062c-3.309,0-5.291,0.489-5.819,0.811c0.529,0.322,2.511,0.811,5.819,0.811
	c0.583,0,1.108-0.02,1.608-0.046L27.647,23.826z M29.831,35.906c-0.002-0.036-0.011-0.071-0.003-0.108l1.718-10.135
	c-0.897,0.349-2.188,0.53-3.347,0.624l-0.418,2.188c0.094-0.041,0.194-0.065,0.303-0.065c0.414,0,0.75,0.336,0.75,0.75
	s-0.336,0.75-0.75,0.75c-0.208,0-0.396-0.085-0.533-0.224l-0.411,2.162c0.038-0.005,0.071-0.021,0.111-0.021
	c0.46,0,0.833,0.373,0.833,0.833s-0.373,0.833-0.833,0.833c-0.148,0-0.281-0.05-0.402-0.117l-0.356,1.877
	c-0.046,0.24-0.256,0.407-0.491,0.407c-0.031,0-0.062-0.003-0.094-0.01c-0.271-0.052-0.45-0.312-0.398-0.584l1.658-8.713
	c-0.631,0.028-1.15,0.034-1.417,0.034c-0.833,0-4.052-0.049-5.787-0.72l1.613,10.13c0.006,0.036-0.002,0.07-0.004,0.104
	c0.133,0.286,1.669,0.86,4.141,0.86C28.108,36.76,29.616,36.222,29.831,35.906z M29.873,17.485l-0.492,2.583
	c2.062-0.353,3.243-0.948,3.243-1.331C32.624,18.394,31.674,17.847,29.873,17.485z"/>
</svg>
