<?xml version="1.0" encoding="utf-8"?>
<!-- Generator: Adobe Illustrator 16.0.0, SVG Export Plug-In . SVG Version: 6.00 Build 0)  -->
<!DOCTYPE svg PUBLIC "-//W3C//DTD SVG 1.1//EN" "http://www.w3.org/Graphics/SVG/1.1/DTD/svg11.dtd">
<svg version="1.1" id="Layer_1" xmlns="http://www.w3.org/2000/svg" xmlns:xlink="http://www.w3.org/1999/xlink" x="0px" y="0px"
	 width="96px" height="96px" viewBox="0 0 96 96" enable-background="new 0 0 96 96" xml:space="preserve">
<g>
	<path fill-rule="evenodd" clip-rule="evenodd" d="M89.991,36.571L59.424,6.005c-3.053-3.053-7.111-4.734-11.429-4.734
		c-4.317,0-8.375,1.681-11.428,4.734L6.001,36.571c-6.301,6.302-6.301,16.555,0,22.856l30.566,30.567
		c3.053,3.052,7.111,4.734,11.429,4.734c4.317,0,8.375-1.682,11.428-4.734l30.566-30.567c3.053-3.053,4.734-7.111,4.734-11.428
		S93.043,39.624,89.991,36.571z M88.295,57.732L57.729,88.299c-2.6,2.6-6.057,4.032-9.733,4.032s-7.133-1.432-9.732-4.032
		L7.697,57.732c-5.367-5.367-5.367-14.099,0-19.465L38.264,7.701c2.6-2.6,6.056-4.032,9.732-4.032s7.133,1.432,9.733,4.032
		l30.566,30.566c2.6,2.6,4.032,6.056,4.032,9.732S90.895,55.132,88.295,57.732z"/>
	<path fill-rule="evenodd" clip-rule="evenodd" d="M68.65,31.677c-3.473-3.463-6.387-3.458-9.876,0.031
		c-1.673,1.673-3.347,3.346-5.24,5.239c0.497-3.661-0.503-5.947-2.906-7.166c-2.495-1.266-4.952-0.708-7.333,1.668
		c-1.357,1.356-2.704,2.723-4.075,4.064c-0.36,0.352-0.627,0.909-1.291,0.784c0.327-3.166-0.798-5.457-3.242-6.608
		c-2.398-1.13-4.855-0.558-7.082,1.666c-4.449,4.443-8.896,8.889-13.339,13.339c-2.048,2.05-2.264,4.318-0.596,6.055
		c1.628,1.695,4.033,1.497,6.038-0.505c3.318-3.314,6.632-6.632,9.948-9.947c1.281-1.282,2.553-2.572,3.847-3.84
		c0.906-0.888,1.894-0.999,2.799-0.044c0.882,0.929,0.4,1.68-0.388,2.443c-2.03,1.963-4.01,3.978-6.002,5.98
		c-1.904,1.914-2.081,4.297-0.451,5.922c1.672,1.667,3.963,1.504,5.91-0.439c4.413-4.405,8.818-8.817,13.228-13.224
		c0.339-0.338,0.661-0.71,1.052-0.976c0.886-0.6,1.738-0.443,2.423,0.341c0.692,0.792,0.499,1.493-0.244,2.212
		c-1.991,1.927-3.928,3.909-5.887,5.868c-0.264,0.264-0.541,0.517-0.789,0.794c-1.479,1.647-1.439,3.974,0.087,5.468
		c1.516,1.484,3.852,1.489,5.45-0.09c4.056-4.007,13.07-13.022,13.07-13.022l6.53,6.432l-6.354,0.003
		c-2.484,0.022-4.294,2.03-3.959,4.367c0.305,2.133,1.852,3.386,4.312,3.397c4.849,0.022,9.698-0.016,14.548,0.018
		c1.928,0.014,3.482-0.553,4.266-2.43c0.787-1.885,0.075-3.37-1.303-4.726C77.395,40.416,73.027,36.042,68.65,31.677z"/>
	<path fill-rule="evenodd" clip-rule="evenodd" d="M71.466,59.635c0-0.062,0-0.098,0-0.098h-0.015
		c-0.021-0.096-0.056-0.19-0.118-0.272l-1.989-2.614c-0.133-0.174-0.339-0.276-0.558-0.276c-0.219,0-0.425,0.102-0.558,0.276
		l-1.988,2.614c-0.063,0.082-0.097,0.176-0.119,0.272h-6.454v-2.173h-1.898l0.013,2.173H32.568v-2.38h-1.774l0.01,5.866
		c0.069,1.462-0.61,2.764-1.93,3.785c1.291,0.058,2.976-0.226,3.472-1.56c0.3-0.804,0.191-0.813,0.191-0.813
		s7.67,0.006,10.865,0.006l28.033-0.023h0.021v-0.042c0.037-0.069,0.017-3.729,0.011-4.637C71.47,59.705,71.469,59.67,71.466,59.635
		z M67.794,59.538l0.992-1.304l0.993,1.304H67.794z"/>
	<path fill-rule="evenodd" clip-rule="evenodd" d="M28.689,59.608l-1.861-2.241c-0.308-0.37-0.938-0.37-1.245,0l-1.861,2.241
		c-0.137,0.165-0.195,0.369-0.183,0.57v4.391h3.363c-0.288,0.864-0.869,1.645-1.724,2.306c1.291,0.058,3.039-0.226,3.536-1.56
		c0.154-0.37,0.155-0.891,0.155-0.891c0-0.004,0-0.007,0-0.011l0,0v-4.202C28.892,60,28.833,59.781,28.689,59.608z M25.104,60.313
		l1.102-1.616l1.102,1.616H25.104z"/>
	<rect x="56.614" y="54.533" fill-rule="evenodd" clip-rule="evenodd" width="1.413" height="1.413"/>
	<rect x="59.282" y="54.533" fill-rule="evenodd" clip-rule="evenodd" width="1.413" height="1.413"/>
</g>
</svg>
