<?xml version="1.0" encoding="utf-8"?>
<!-- Generator: Adobe Illustrator 16.0.4, SVG Export Plug-In . SVG Version: 6.00 Build 0)  -->
<!DOCTYPE svg PUBLIC "-//W3C//DTD SVG 1.1//EN" "http://www.w3.org/Graphics/SVG/1.1/DTD/svg11.dtd">
<svg version="1.1" id="Layer_1" xmlns="http://www.w3.org/2000/svg" xmlns:xlink="http://www.w3.org/1999/xlink" x="0px" y="0px"
	 width="226.77px" height="155.91px" viewBox="0 0 226.77 155.91" enable-background="new 0 0 226.77 155.91" xml:space="preserve">
<g>
	<path d="M166.889,133.191l-2.67,2.365c-0.952,0.953-2.494,0.648-3.444-0.305c-0.952-0.952-0.952-2.494,0-3.443l2.818-2.819
		l-7.194-7.842l-6.796,6.797c-0.952,0.952-2.495,0.952-3.444,0c-0.953-0.952-0.953-2.495,0-3.444l6.945-6.945l-7.194-7.842
		l-3.615,3.615c-0.952,0.952-2.495,0.952-3.444,0c-0.953-0.953-0.953-2.495,0-3.445l3.764-3.764l-7.193-7.842l-7.742,7.742
		c-0.953,0.952-2.494,0.952-3.445,0c-0.952-0.953-0.952-2.494,0-3.445l7.891-7.891l-8.357-9.11l-3.395,3.394
		c-0.952,0.953-2.494,0.953-3.444,0c-0.952-0.953-0.952-2.494,0-3.445l3.542-3.541l-8.357-9.111l-8.792,8.791
		c-0.953,0.953-2.495,0.953-3.444,0c-0.953-0.952-0.953-2.494,0-3.444l8.94-8.94l-7.194-7.842l-3.174,3.174
		c-0.953,0.952-2.495,0.952-3.445,0c-0.952-0.953-0.952-2.495,0-3.445l3.323-3.323l-7.193-7.842L83.83,57.3
		c-0.953,0.953-2.495,0.953-3.444,0c-0.953-0.953-0.953-2.495,0-3.444l7.449-7.45l-8.358-9.111l-2.953,2.952
		c-0.953,0.953-2.495,0.953-3.445,0c-0.953-0.952-0.953-2.495,0-3.444l3.101-3.102l-7.198-7.844l-7.08,7.079
		c-0.953,0.953-2.495,0.953-3.445,0c-0.952-0.953-0.952-2.495,0-3.445l6.619-7.228L49.654,5.996
		c-1.852-1.951-3.352-1.354-3.352,1.337V146.19c0,2.692,2.18,4.872,4.872,4.872h126.677c2.691,0,3.425-1.632,1.642-3.646
		L166.889,133.191z M65.791,134.01V56.891l71.312,77.119H65.791z"/>
</g>
</svg>
