<?xml version="1.0" encoding="utf-8"?>
<!-- Generator: Adobe Illustrator 17.0.0, SVG Export Plug-In . SVG Version: 6.00 Build 0)  -->
<!DOCTYPE svg PUBLIC "-//W3C//DTD SVG 1.1//EN" "http://www.w3.org/Graphics/SVG/1.1/DTD/svg11.dtd">
<svg version="1.1" id="Capa_1" xmlns="http://www.w3.org/2000/svg" xmlns:xlink="http://www.w3.org/1999/xlink" x="0px" y="0px"
	 width="16.606px" height="20.208px" viewBox="0 0 16.606 20.208" enable-background="new 0 0 16.606 20.208" xml:space="preserve">
<path d="M8.022,14.071c4.085,0.045,5.325-3.418,3.051-7.102C9.858,5.006,8.232,2.575,8.72,0C6.9,3.108-0.131,13.983,8.022,14.071z
	 M7.024,7.909c0.282,0.442,0.494,0.933,0.574,1.487c0.13-0.767-0.375-2.153,0.55-3.718c0.14-0.233,0.244-0.449,0.335-0.621
	C8.211,6.645,9.12,8.144,9.797,9.354c1.271,2.272,0.578,4.407-1.703,4.379C4.965,13.696,5.842,10.516,7.024,7.909z M16.606,17.814
	l-0.645,2.394l-7.676-2.073L0.6,19.979l-0.579-2.408l3.268-0.785L0,15.899l0.645-2.394l7.676,2.073l7.686-1.845l0.578,2.41
	l-3.267,0.785L16.606,17.814z"/>
</svg>
