<?xml version="1.0" encoding="utf-8"?>
<!-- Generator: Adobe Illustrator 16.0.4, SVG Export Plug-In . SVG Version: 6.00 Build 0)  -->
<!DOCTYPE svg PUBLIC "-//W3C//DTD SVG 1.1//EN" "http://www.w3.org/Graphics/SVG/1.1/DTD/svg11.dtd">
<svg version="1.1" id="Layer_1" xmlns="http://www.w3.org/2000/svg" xmlns:xlink="http://www.w3.org/1999/xlink" x="0px" y="0px"
	 width="50px" height="50px" viewBox="0 0 50 50" enable-background="new 0 0 50 50" xml:space="preserve">
<path d="M21.286,27.811c0,0.275-0.224,0.5-0.5,0.5c-1.829,0-3.317-1.488-3.317-3.317c0-0.276,0.224-0.5,0.5-0.5
	c0.276,0,0.5,0.224,0.5,0.5c0,1.278,1.04,2.317,2.317,2.317C21.062,27.311,21.286,27.533,21.286,27.811z M34.035,13.812v22.376
	c0,0.275-0.225,0.5-0.5,0.5c-0.277,0-0.5-0.225-0.5-0.5V14.312h-6.75v1.177h0.611c0.68,0,1.232,0.553,1.232,1.233v1.082h0.963
	c1.199,0,2.175,0.975,2.175,2.173v8.509c0,1.198-0.976,2.174-2.175,2.174h-2.354c-0.021,0.107-0.074,0.211-0.167,0.287
	c-0.165,0.137-0.588,0.586-0.577,1.038c0.006,0.288,0.195,0.573,0.562,0.847c0.409,0.309,0.862,0.9,0.915,1.644
	c0.048,0.683-0.242,1.344-0.861,1.964c-0.098,0.098-0.227,0.146-0.354,0.146c-0.129,0-0.256-0.049-0.354-0.146
	c-0.194-0.195-0.194-0.512,0-0.708c0.406-0.405,0.599-0.806,0.571-1.187c-0.031-0.438-0.34-0.779-0.518-0.914
	c-0.626-0.469-0.951-1.019-0.961-1.631c-0.01-0.553,0.24-1.017,0.487-1.342h-2.105c-0.714,0-1.354-0.359-1.759-0.931
	c-0.271,0.048-0.547,0.084-0.832,0.084c-2.657,0-4.819-2.163-4.819-4.82c0-2.467,3.955-8.378,4.405-9.044
	c0.187-0.274,0.642-0.274,0.828,0c0.148,0.219,0.678,1.011,1.319,2.057c0.271-0.118,0.556-0.2,0.857-0.2h0.483v-1.082
	c0-0.68,0.553-1.233,1.233-1.233h0.191v-1.677c0-0.276,0.224-0.5,0.5-0.5h7.75C33.812,13.312,34.035,13.536,34.035,13.812z
	 M20.786,28.812c2.106,0,3.819-1.714,3.819-3.82c0-1.643-2.464-5.773-3.819-7.859c-1.355,2.085-3.819,6.216-3.819,7.859
	C16.966,27.1,18.68,28.812,20.786,28.812z M30.268,22.65h-5.28c0.374,0.904,0.618,1.729,0.618,2.342
	c0,0.281-0.037,0.552-0.083,0.821h4.745V24.52h-3.398c-0.275,0-0.5-0.224-0.5-0.5s0.225-0.5,0.5-0.5h3.398V22.65z M30.268,28.486
	v-1.673h-5.025c-0.479,1.168-1.401,2.108-2.56,2.606c0.198,0.147,0.437,0.24,0.694,0.24h5.717
	C29.74,29.66,30.268,29.133,30.268,28.486z M29.094,18.805h-5.717c-0.119,0-0.235,0.018-0.346,0.052
	c0.516,0.875,1.053,1.848,1.506,2.794h5.73v-1.672C30.268,19.332,29.74,18.805,29.094,18.805z M26.896,16.49h-1.804
	c-0.129,0-0.233,0.104-0.233,0.233v1.082h2.271v-1.082C27.131,16.593,27.025,16.49,26.896,16.49z"/>
</svg>
