<?xml version="1.0" encoding="utf-8"?>
<!-- Generator: Adobe Illustrator 17.1.0, SVG Export Plug-In . SVG Version: 6.00 Build 0)  -->
<!DOCTYPE svg PUBLIC "-//W3C//DTD SVG 1.1//EN" "http://www.w3.org/Graphics/SVG/1.1/DTD/svg11.dtd">
<svg version="1.1" xmlns="http://www.w3.org/2000/svg" xmlns:xlink="http://www.w3.org/1999/xlink" x="0px" y="0px"
	 viewBox="0 0 64 64" enable-background="new 0 0 64 64" xml:space="preserve">
<g id="Imagenes">
</g>
<g id="Layer_2">
	<path d="M43.469,25.196c1.006,1.056,1.162,2.311,1.281,3.355c0.143,1.251,0.268,1.989,1.192,2.625
		c0.889,0.611,2.072,0.909,3.325,1.223c2.175,0.546,4.639,1.166,6.381,3.604c1.689,2.366,2.311,4.437,1.847,6.154
		c-0.332,1.229-1.226,2.202-2.584,2.814c-0.75,0.337-1.517,0.508-2.283,0.508c-2.098,0-4.136-1.229-6.231-3.757
		c-1.335-1.612-1.826-2.997-2.259-4.219c-0.379-1.069-0.678-1.915-1.496-2.697c-0.662-0.634-1.738-0.884-2.984-1.172
		c-1.844-0.428-4.14-0.959-6.059-3.039c-1.138-1.233-1.851-2.285-2.171-3.188c-0.025,0.001-0.049,0.002-0.073,0.002
		c-0.347,1.153-1.212,3.196-3.314,5.298c-1.869,1.869-4.085,2.37-5.865,2.771c-1.217,0.275-2.269,0.512-2.938,1.09
		c-1.33,1.15-2.012,2.194-2.803,3.403c-0.323,0.495-0.655,1.002-1.042,1.533c-0.777,1.068-2.894,3.554-5.754,3.554
		c-0.621,0-1.235-0.122-1.824-0.363c-0.403-0.165-1.76-0.828-2.294-2.436c-0.453-1.364-0.16-2.928,0.873-4.649
		c2.134-3.556,4.671-3.772,6.709-3.946c1.314-0.112,2.353-0.2,3.232-1.08c1.305-1.305,1.594-2.44,1.901-3.641
		c0.283-1.107,0.575-2.251,1.641-3.317c0.082-0.082,0.169-0.157,0.255-0.234C9.465,29.523,2,38.487,2,45.375
		c0,0-0.917,3.708,30,3.708c31.042,0,30.125-3.708,30.125-3.708C62.125,38.374,54.414,29.232,43.469,25.196z"/>
	<path d="M13.271,35.657c-1.908,0.163-3.557,0.303-5.164,2.982c-0.709,1.181-0.947,2.215-0.69,2.989
		c0.272,0.819,1.009,1.156,1.154,1.216c0.347,0.142,0.706,0.214,1.066,0.214c1.996,0,3.671-2.09,4.137-2.73
		c0.366-0.502,0.679-0.983,0.986-1.451c0.836-1.28,1.627-2.488,3.169-3.821c1.048-0.906,2.387-1.208,3.805-1.529
		c1.687-0.381,3.432-0.774,4.892-2.234c1.565-1.565,2.318-3.076,2.671-4.039c-1.744-0.309-3.181-1.054-4.086-2.08
		c-1.013,0.217-2.791,0.736-3.921,1.866c-0.678,0.678-0.872,1.437-1.117,2.397c-0.326,1.278-0.732,2.868-2.425,4.561
		C16.352,35.395,14.716,35.534,13.271,35.657z"/>
	<path d="M40.109,31.685c1.47,0.341,2.858,0.663,3.917,1.677c1.16,1.112,1.585,2.312,1.997,3.474
		c0.396,1.117,0.805,2.272,1.914,3.61c1.668,2.013,3.246,3.033,4.691,3.033c0.487,0,0.965-0.108,1.462-0.332
		c0.816-0.367,1.298-0.862,1.474-1.511c0.292-1.08-0.257-2.668-1.544-4.471c-1.314-1.839-3.221-2.318-5.24-2.826
		c-1.369-0.344-2.785-0.7-3.971-1.515c-1.72-1.183-1.901-2.771-2.046-4.047c-0.139-1.218-0.259-1.937-1.125-2.54
		c-1.462-1.018-3.076-1.315-4.347-1.366c-0.793,1.07-2.137,1.877-3.803,2.273c0.239,0.457,0.692,1.132,1.581,2.094
		C36.569,30.864,38.369,31.281,40.109,31.685z"/>
	<path d="M31.125,25.417c0.127,0,0.246-0.016,0.37-0.022c0.706-0.031,1.365-0.145,1.957-0.329c0.83-0.258,1.511-0.644,1.974-1.119
		c0.18-0.185,0.323-0.38,0.429-0.587c0.079-0.153,0.134-0.31,0.168-0.472c0.024-0.115,0.06-0.227,0.06-0.345
		c0-1.588-2.22-2.875-4.958-2.875s-4.958,1.287-4.958,2.875c0,0.198,0.035,0.392,0.101,0.579c0.06,0.171,0.154,0.335,0.264,0.493
		c0.714,1.028,2.422,1.756,4.435,1.794C31.02,25.408,31.071,25.417,31.125,25.417z"/>
</g>
</svg>
