<?xml version="1.0" encoding="utf-8"?>
<!-- Generator: Adobe Illustrator 16.0.4, SVG Export Plug-In . SVG Version: 6.00 Build 0)  -->
<!DOCTYPE svg PUBLIC "-//W3C//DTD SVG 1.1//EN" "http://www.w3.org/Graphics/SVG/1.1/DTD/svg11.dtd">
<svg version="1.1" id="Layer_1" xmlns="http://www.w3.org/2000/svg" xmlns:xlink="http://www.w3.org/1999/xlink" x="0px" y="0px"
	 width="50px" height="50px" viewBox="0 0 50 50" enable-background="new 0 0 50 50" xml:space="preserve">
<path d="M31.839,18.755c-0.145-0.092-0.322-0.106-0.477-0.037l-1.295,0.577v-3.42c0-0.276-0.224-0.5-0.5-0.5H18.435
	c-0.275,0-0.5,0.224-0.5,0.5v18.25c0,0.275,0.225,0.5,0.5,0.5h11.133c0.276,0,0.5-0.225,0.5-0.5v-6.064
	c0.07-0.03,0.142-0.056,0.213-0.088c1.134-0.535,1.865-1.383,1.771-1.992c0.004-0.023,0.014-0.043,0.014-0.067v-6.738
	C32.065,19.005,31.979,18.847,31.839,18.755z M21.722,16.312h4.562v0.5h-4.562V16.312z M24.002,34.062
	c-0.519,0-0.938-0.42-0.938-0.938s0.42-0.938,0.938-0.938s0.938,0.42,0.938,0.938S24.521,34.062,24.002,34.062z M31.065,25.352
	c-0.516-0.024-1.168,0.113-1.823,0.425c-1.248,0.593-2.021,1.561-1.74,2.162c0.19,0.403,0.81,0.541,1.565,0.416v3.27H18.935v-14
	h10.133v2.116l-3.186,1.42c-0.181,0.08-0.297,0.259-0.297,0.457v6.178c-0.516-0.024-1.167,0.112-1.822,0.427
	c-1.25,0.592-2.023,1.56-1.74,2.161c0.285,0.607,1.531,0.625,2.776,0.032c1.134-0.535,1.866-1.383,1.772-1.992
	c0.002-0.023,0.014-0.043,0.014-0.066v-6.415l4.48-1.998V25.352L31.065,25.352z"/>
</svg>
