<?xml version="1.0" encoding="utf-8"?>
<!-- Generator: Adobe Illustrator 16.0.4, SVG Export Plug-In . SVG Version: 6.00 Build 0)  -->
<!DOCTYPE svg PUBLIC "-//W3C//DTD SVG 1.1//EN" "http://www.w3.org/Graphics/SVG/1.1/DTD/svg11.dtd">
<svg version="1.1" id="Layer_1" xmlns="http://www.w3.org/2000/svg" xmlns:xlink="http://www.w3.org/1999/xlink" x="0px" y="0px"
	 width="50px" height="50px" viewBox="0 0 50 50" enable-background="new 0 0 50 50" xml:space="preserve">
<path d="M21.854,27.946h1.437v1.437c0,0.275,0.224,0.5,0.5,0.5h2.42c0.276,0,0.5-0.225,0.5-0.5v-1.437h1.437
	c0.275,0,0.5-0.224,0.5-0.5v-2.42c0-0.276-0.225-0.5-0.5-0.5H26.71V23.09c0-0.276-0.224-0.5-0.5-0.5h-2.42
	c-0.276,0-0.5,0.224-0.5,0.5v1.436h-1.437c-0.275,0-0.5,0.224-0.5,0.5v2.42C21.354,27.723,21.578,27.946,21.854,27.946z
	 M22.354,25.526h1.437c0.276,0,0.5-0.224,0.5-0.5V23.59h1.42v1.436c0,0.276,0.224,0.5,0.5,0.5h1.437v1.42H26.21
	c-0.276,0-0.5,0.224-0.5,0.5v1.437h-1.42v-1.437c0-0.276-0.224-0.5-0.5-0.5h-1.437V25.526z M32.833,20.312h-5.041v-1.625
	c0-0.276-0.224-0.5-0.5-0.5h-4.584c-0.276,0-0.5,0.224-0.5,0.5v1.625h-5.041c-0.276,0-0.5,0.224-0.5,0.5v10.5
	c0,0.275,0.224,0.5,0.5,0.5h15.666c0.276,0,0.5-0.225,0.5-0.5v-10.5C33.333,20.537,33.109,20.312,32.833,20.312z M23.208,19.188
	h3.584v1.125h-3.584V19.188z M32.333,30.812H17.667v-9.5h14.666V30.812z"/>
</svg>
