<?xml version="1.0" encoding="utf-8"?>
<!-- Generator: Adobe Illustrator 16.0.4, SVG Export Plug-In . SVG Version: 6.00 Build 0)  -->
<!DOCTYPE svg PUBLIC "-//W3C//DTD SVG 1.1//EN" "http://www.w3.org/Graphics/SVG/1.1/DTD/svg11.dtd">
<svg version="1.1" id="Layer_1" xmlns="http://www.w3.org/2000/svg" xmlns:xlink="http://www.w3.org/1999/xlink" x="0px" y="0px"
	 width="50px" height="50px" viewBox="0 0 50 50" enable-background="new 0 0 50 50" xml:space="preserve">
<path d="M20.723,26.059h-7.177v-2h0.015v-7.493h2v7.493h5.162v-7.493h2v7.493h5.163v-7.493h2v7.493h5.162v-7.493h2v16.985h-2v-7.492
	h-5.162v7.492h-2v-7.492h-5.163v7.492h-2V26.059z M14.345,13.156h-0.896v1.702H13h-0.451V10.55h0.448h1.723
	c0.41,0,0.74,0.11,0.991,0.33c0.251,0.22,0.377,0.509,0.377,0.868c0,0.414-0.14,0.717-0.419,0.908
	c-0.074,0.051-0.158,0.094-0.252,0.129c0.053,0.021,0.101,0.045,0.144,0.07c0.246,0.146,0.374,0.393,0.385,0.738l0.021,0.706
	c0.004,0.141,0.02,0.24,0.044,0.299c0.025,0.059,0.074,0.105,0.146,0.141v0.114h-0.994c-0.023-0.045-0.044-0.141-0.062-0.288
	c-0.018-0.147-0.026-0.307-0.028-0.477l-0.006-0.398c-0.005-0.193-0.062-0.331-0.172-0.413
	C14.784,13.195,14.601,13.156,14.345,13.156z M13.448,12.433h1.043c0.231,0,0.406-0.047,0.521-0.142
	c0.116-0.095,0.175-0.238,0.175-0.43c0-0.189-0.056-0.331-0.164-0.426c-0.111-0.095-0.276-0.143-0.497-0.143h-1.078V12.433
	L13.448,12.433z M21.274,14.857h0.422h0.418v-4.271h-0.688c-0.106,0.24-0.266,0.425-0.475,0.554
	c-0.207,0.129-0.441,0.187-0.703,0.173v0.601h1.025L21.274,14.857L21.274,14.857z M21.825,37.933
	c0.416-0.267,0.699-0.505,0.85-0.718c0.152-0.213,0.229-0.481,0.229-0.807c0-0.395-0.133-0.717-0.398-0.967
	c-0.268-0.25-0.611-0.375-1.031-0.375c-0.45,0-0.807,0.137-1.062,0.407c-0.258,0.271-0.379,0.64-0.365,1.103h0.824
	c-0.008-0.248,0.041-0.445,0.147-0.59c0.107-0.145,0.259-0.217,0.449-0.217c0.181,0,0.324,0.059,0.435,0.173
	c0.109,0.115,0.164,0.269,0.164,0.457c0,0.175-0.052,0.331-0.15,0.474c-0.099,0.142-0.271,0.297-0.516,0.467
	c-0.545,0.384-0.916,0.713-1.113,0.992s-0.295,0.615-0.295,1.006l0,0h2.912v-0.737h-1.869l0.002-0.007
	C21.177,38.396,21.44,38.176,21.825,37.933z M28.847,14.304c-0.196,0-0.349-0.062-0.453-0.188c-0.104-0.126-0.157-0.31-0.161-0.55
	h-0.817c0.006,0.449,0.136,0.796,0.392,1.039c0.254,0.243,0.613,0.364,1.076,0.364c0.449,0,0.807-0.123,1.07-0.369
	s0.396-0.579,0.396-0.999c0-0.381-0.122-0.666-0.365-0.855c-0.074-0.061-0.16-0.109-0.259-0.146l0.114-0.076
	c0.254-0.193,0.381-0.441,0.381-0.744c0-0.35-0.122-0.636-0.365-0.858c-0.244-0.222-0.559-0.334-0.94-0.334
	c-0.445,0-0.791,0.118-1.036,0.354c-0.245,0.236-0.37,0.57-0.376,1.006h0.773c0.004-0.215,0.056-0.38,0.156-0.496
	c0.101-0.116,0.242-0.175,0.427-0.175c0.157,0,0.285,0.052,0.381,0.154s0.144,0.236,0.144,0.402c0,0.174-0.049,0.308-0.146,0.401
	c-0.078,0.076-0.185,0.122-0.316,0.138c-0.086,0.01-0.167,0.017-0.243,0.02c-0.075,0.003-0.126,0.002-0.148-0.002v0.621
	c0.021-0.006,0.068-0.008,0.146-0.007c0.074,0.001,0.156,0.004,0.244,0.01c0.158,0.012,0.289,0.065,0.394,0.161
	c0.116,0.111,0.176,0.258,0.176,0.439c0,0.207-0.06,0.374-0.176,0.501C29.196,14.243,29.038,14.304,28.847,14.304z M29.931,37.729
	h0.48v0.668h-0.48v0.94h-0.825v-0.94h-1.69v-0.362v-0.363l1.579-2.604h0.469h0.469L29.931,37.729L29.931,37.729z M29.104,35.951
	l-1.035,1.721l-0.035,0.059h1.07V35.951z M35.948,14.304c-0.181,0-0.321-0.049-0.425-0.146c-0.104-0.098-0.166-0.243-0.188-0.433
	h-0.844c0.041,0.383,0.186,0.687,0.434,0.91c0.248,0.223,0.562,0.335,0.943,0.335c0.479,0,0.856-0.137,1.138-0.41
	s0.421-0.644,0.421-1.11c0-0.404-0.12-0.735-0.359-0.993c-0.242-0.258-0.553-0.387-0.932-0.387c-0.272,0-0.526,0.073-0.761,0.22
	l0.145-0.905h1.731v-0.712h-2.333l-0.28,2.32l0.738,0.035c0.055-0.09,0.132-0.161,0.233-0.214c0.1-0.053,0.209-0.079,0.325-0.079
	c0.188,0,0.34,0.073,0.454,0.219c0.115,0.146,0.174,0.337,0.174,0.575c0,0.232-0.058,0.42-0.171,0.562
	C36.279,14.232,36.132,14.304,35.948,14.304z M37.451,37.975c0,0.434-0.139,0.787-0.411,1.062c-0.275,0.274-0.627,0.412-1.057,0.412
	c-0.48,0-0.847-0.181-1.095-0.539c-0.25-0.361-0.374-0.888-0.374-1.58c0-0.764,0.139-1.338,0.413-1.723
	c0.256-0.359,0.627-0.541,1.113-0.541l0.088,0.003c0.354,0,0.645,0.103,0.87,0.308s0.348,0.476,0.363,0.81h-0.829
	c0.002-0.133-0.037-0.239-0.115-0.319c-0.08-0.08-0.186-0.119-0.318-0.119h-0.034c-0.253-0.002-0.438,0.119-0.558,0.362
	c-0.094,0.188-0.149,0.466-0.17,0.829c0.228-0.238,0.5-0.357,0.82-0.357c0.379,0,0.688,0.131,0.93,0.392
	S37.451,37.566,37.451,37.975z M36.613,37.994c0-0.222-0.059-0.4-0.173-0.535c-0.115-0.137-0.269-0.203-0.457-0.203
	c-0.189,0-0.343,0.068-0.457,0.203c-0.115,0.135-0.174,0.313-0.174,0.535c0,0.225,0.061,0.412,0.182,0.559
	c0.119,0.148,0.27,0.224,0.449,0.224c0.204,0,0.36-0.065,0.469-0.198C36.56,38.444,36.613,38.25,36.613,37.994z"/>
</svg>
