<?xml version="1.0" encoding="utf-8"?>
<!-- Generator: Adobe Illustrator 16.0.0, SVG Export Plug-In . SVG Version: 6.00 Build 0)  -->
<!DOCTYPE svg PUBLIC "-//W3C//DTD SVG 1.1//EN" "http://www.w3.org/Graphics/SVG/1.1/DTD/svg11.dtd">
<svg version="1.1" id="Layer_2" xmlns="http://www.w3.org/2000/svg" xmlns:xlink="http://www.w3.org/1999/xlink" x="0px" y="0px"
	 width="96px" height="96px" viewBox="0 0 96 96" enable-background="new 0 0 96 96" xml:space="preserve">
<g>
	<path d="M47.999,1.817C22.494,1.817,1.818,22.494,1.818,48c0,25.505,20.676,46.183,46.181,46.183S94.182,73.505,94.182,48
		C94.182,22.494,73.504,1.817,47.999,1.817z M85.341,50.186L60.59,68.591c-3.617,2.184-7.856,3.439-12.39,3.439
		c-13.27,0-24.029-10.759-24.029-24.029S34.93,23.97,48.2,23.97c4.532,0,8.773,1.257,12.39,3.44l24.75,18.406
		c0.602,0.449,0.974,1.279,0.974,2.184C86.314,48.898,85.943,49.732,85.341,50.186z"/>
	<path d="M77.086,46.38L58.962,32.791c-0.444-0.331-0.996-0.331-1.442,0c-0.445,0.342-0.723,0.958-0.723,1.626v27.164
		c0,0.667,0.278,1.29,0.723,1.626c0.224,0.163,0.472,0.248,0.722,0.248c0.249,0,0.5-0.085,0.721-0.248l18.124-13.583
		c0.447-0.333,0.721-0.953,0.721-1.623C77.807,47.328,77.533,46.715,77.086,46.38z"/>
</g>
</svg>
