<?xml version="1.0" encoding="utf-8"?>
<!-- Generator: Adobe Illustrator 16.0.0, SVG Export Plug-In . SVG Version: 6.00 Build 0)  -->
<!DOCTYPE svg PUBLIC "-//W3C//DTD SVG 1.1//EN" "http://www.w3.org/Graphics/SVG/1.1/DTD/svg11.dtd">
<svg version="1.1" id="Layer_1" xmlns="http://www.w3.org/2000/svg" xmlns:xlink="http://www.w3.org/1999/xlink" x="0px" y="0px"
	 width="96px" height="96px" viewBox="0 0 96 96" enable-background="new 0 0 96 96" xml:space="preserve">
<path d="M92.034,62.343C87.998,58.309,81,58.752,76.271,63.28L32.717,19.728c4.531-4.729,4.974-11.725,0.938-15.764
	c-4.1-4.097-11.257-3.586-15.987,1.143c-2.485,2.484-3.793,5.64-3.893,8.669c-3.029,0.1-6.183,1.407-8.667,3.891
	c-4.731,4.731-5.242,11.889-1.143,15.989C8.002,37.69,15,37.247,19.729,32.719l43.554,43.553C58.752,81,58.309,87.996,62.345,92.035
	c4.099,4.098,11.256,3.587,15.986-1.143c2.486-2.484,3.794-5.64,3.893-8.668c3.029-0.101,6.183-1.408,8.668-3.892
	C95.623,73.603,96.134,66.444,92.034,62.343z"/>
</svg>
