<?xml version="1.0" encoding="utf-8"?>
<!-- Generator: Adobe Illustrator 17.1.0, SVG Export Plug-In . SVG Version: 6.00 Build 0)  -->
<!DOCTYPE svg PUBLIC "-//W3C//DTD SVG 1.1//EN" "http://www.w3.org/Graphics/SVG/1.1/DTD/svg11.dtd">
<svg version="1.1" xmlns="http://www.w3.org/2000/svg" xmlns:xlink="http://www.w3.org/1999/xlink" x="0px" y="0px"
	 viewBox="0 0 64 64" enable-background="new 0 0 64 64" xml:space="preserve">
<g id="Imagenes">
</g>
<g id="Layer_2">
	<path d="M33,27c18.237,0,26-5,26-5s-0.318-3.187-6.64-5.538c-0.052,1.402-0.49,2.843-1.328,4.169l-0.363,0.575l-0.638,0.234
		c-3.909,1.437-10.367,2.329-16.853,2.329c-4.078,0-11.682-0.369-16.799-2.843l-0.522-0.253l-0.306-0.493
		c-0.134-0.217-0.932-1.563-1.177-3.202C9.275,19.253,9,22,9,22S14.763,27,33,27z"/>
	<path d="M14.125,50.938c1.5,1.5,5.214,1.297,6.812,0.062C23.688,48.875,24,46.912,24,46.912c-6.625,0.059-11-3.971-11-3.971
		C12.25,47.547,12.593,49.406,14.125,50.938z"/>
	<path d="M44,46.971c0.72,1.857,1.532,3.071,3.062,4.154c3,2.125,7.273,0.365,7.941-1.938S55,42,55,42C51,46.5,44,46.971,44,46.971z
		"/>
	<path d="M32.615,30.171c-21.086,0-24.22-6.269-24.22-6.269s-2.392,18.32,18.53,21.25c0.524,3.436,1.804,9.969,4.265,12.848
		c0,0,3.355,3.092,5.872,0c2.646-3.25,3.02-6.615,3.939-13.036c21.437-3.379,18.684-20.207,18.684-20.207
		S53.701,30.171,32.615,30.171z"/>
	<path d="M33.178,21.769c6.235,0,12.446-0.84,16.163-2.206c0.787-1.246,1.111-2.553,1.019-3.753c-0.17-2.232-1.799-4.09-4.726-4.456
		c-0.208-0.026-0.41-0.038-0.608-0.038c-2.379,0-4.069,1.771-4.893,2.878c-0.375,0.503-0.57,0.869-0.57,0.869
		s0.035-0.378-0.019-0.902c-0.121-1.17-0.689-3.074-3.106-3.16c-0.062-0.002-0.122-0.003-0.182-0.003
		c-2.68,0-3.793,2.157-4.132,3.023C32.039,14.236,32,14.375,32,14.375s-0.039-0.138-0.127-0.353C31.523,13.159,30.364,11,27.525,11
		c-0.462,0-0.97,0.057-1.525,0.187c-1.827,0.427-2.607,2.071-2.941,3.502C22.771,15.923,22.812,17,22.812,17
		s-0.128-1.136-0.698-2.165c-0.472-0.852-1.245-1.631-2.507-1.631c-0.264,0-0.549,0.034-0.857,0.109
		c-2,0.484-2.498,1.71-2.447,2.912c0.063,1.468,0.947,2.9,0.947,2.9C21.092,20.983,27.146,21.769,33.178,21.769z"/>
</g>
</svg>
