<?xml version="1.0" encoding="utf-8"?>
<!-- Generator: Adobe Illustrator 16.0.4, SVG Export Plug-In . SVG Version: 6.00 Build 0)  -->
<!DOCTYPE svg PUBLIC "-//W3C//DTD SVG 1.1//EN" "http://www.w3.org/Graphics/SVG/1.1/DTD/svg11.dtd">
<svg version="1.1" id="Layer_1" xmlns="http://www.w3.org/2000/svg" xmlns:xlink="http://www.w3.org/1999/xlink" x="0px" y="0px"
	 width="226.77px" height="155.91px" viewBox="0 0 226.77 155.91" enable-background="new 0 0 226.77 155.91" xml:space="preserve">
<path d="M159.368,103.614h-2.255V45.503c0-0.413-0.33-0.743-0.742-0.743h-86c-0.412,0-0.742,0.33-0.742,0.743v0.742v57.342h-2.256
	c-0.412,0-0.742,0.33-0.742,0.743v0.742v5.336v0.742h0.742h91.28h0.742c0.413,0,0.743-0.33,0.743-0.742v-6.051
	C160.139,103.944,159.781,103.614,159.368,103.614z M99.579,84.061H87.367c-1.54,0-2.667-0.88-2.667-2.338
	c0-0.962,0.439-1.814,1.292-2.475l6.408-5.253c2.778-2.283,3.878-3.548,3.878-5.391c0-1.897-1.265-2.915-3.025-2.915
	c-1.402,0-2.42,0.604-3.657,1.952c-0.33,0.33-0.908,0.688-1.678,0.688c-1.266,0-2.256-0.99-2.256-2.255
	c0-0.55,0.221-1.128,0.578-1.54c1.815-2.09,3.933-3.301,7.343-3.301c4.676,0,7.756,2.723,7.756,6.958v0.056
	c0,3.768-1.925,5.638-5.913,8.718l-3.658,2.833h7.839c1.183,0,2.145,0.963,2.145,2.146S100.789,84.061,99.579,84.061z
	 M119.71,74.957h-3.795v3.686c0,1.266-1.018,2.283-2.283,2.283c-1.265,0-2.282-1.018-2.282-2.283v-3.686h-3.795
	c-1.211,0-2.229-0.99-2.229-2.228s1.018-2.2,2.229-2.2h3.795v-3.686c0-1.265,1.018-2.282,2.282-2.282
	c1.266,0,2.283,1.018,2.283,2.282v3.686h3.795c1.21,0,2.228,0.99,2.228,2.228C121.938,73.995,120.92,74.957,119.71,74.957z
	 M140.529,104.357c0,0.412-0.33,0.742-0.742,0.742h-0.743h-14.383h-0.743v-0.742v-3.768v-0.743c0-0.412,0.33-0.742,0.743-0.742
	h15.099c0.412,0,0.742,0.33,0.742,0.742v4.511H140.529z M142.015,77.075c0,4.235-3.08,7.37-8.113,7.37
	c-3.218,0-5.638-0.99-7.453-2.585c-0.44-0.385-0.825-1.072-0.825-1.76c0-1.293,1.101-2.393,2.393-2.393
	c0.716,0,1.183,0.302,1.568,0.604c1.292,1.101,2.64,1.678,4.4,1.678c1.87,0,3.189-1.072,3.189-2.723v-0.055
	c0-1.843-1.649-2.86-4.4-2.86h-0.77c-1.155,0-2.118-0.963-2.118-2.118c0-0.688,0.303-1.265,1.073-2.035l4.372-4.4h-6.958
	c-1.154,0-2.117-0.962-2.117-2.117s0.963-2.118,2.117-2.118h10.974c1.458,0,2.503,0.825,2.503,2.173c0,1.21-0.577,1.897-1.485,2.778
	l-4.4,4.207c3.053,0.522,6.051,2.118,6.051,6.299V77.075z"/>
</svg>
