<?xml version="1.0" encoding="utf-8"?>
<!-- Generator: Adobe Illustrator 16.0.0, SVG Export Plug-In . SVG Version: 6.00 Build 0)  -->
<!DOCTYPE svg PUBLIC "-//W3C//DTD SVG 1.1//EN" "http://www.w3.org/Graphics/SVG/1.1/DTD/svg11.dtd">
<svg version="1.1" id="Layer_1" xmlns="http://www.w3.org/2000/svg" xmlns:xlink="http://www.w3.org/1999/xlink" x="0px" y="0px"
	 width="96px" height="96px" viewBox="0 0 96 96" enable-background="new 0 0 96 96" xml:space="preserve">
<path fill-rule="evenodd" clip-rule="evenodd" d="M82.77,17.667C75.667,9.513,66.717,4.487,56.059,2.566
	c-1.707-0.308-3.436-0.485-5.155-0.723c-1.927,0-3.854,0-5.781,0c-1.75,0.242-3.51,0.425-5.248,0.736
	c-8.718,1.555-16.376,5.318-22.908,11.286C9.156,20.999,4.348,29.818,2.513,40.24c-0.284,1.613-0.443,3.248-0.661,4.872
	c0,1.927,0,3.854,0,5.781c0.115,0.887,0.234,1.772,0.345,2.66C3.523,64.129,7.94,73.225,15.495,80.72
	C23.59,88.754,33.4,93.17,44.783,94.03c7.547,0.57,14.78-0.795,21.719-3.79c0.264-0.114,0.519-0.252,0.777-0.379l-15.104-0.015
	c-8.549,0.552-16.646-0.861-24.199-4.976C11.493,75.892,3.011,57.213,7.06,38.879C12.095,16.08,35.042,1.703,57.71,7.174
	c9.653,2.33,17.574,7.428,23.588,15.319c7.26,9.526,9.93,20.319,8.134,32.135c-1.342,8.829-5.284,16.438-11.546,22.804
	c-1.597,1.623-3.388,3.305-5.089,4.824l-0.249,0.202l-0.003-0.37c0,0,0-0.592,0-0.888l0.009-12.488l0.758-1.133
	c5.849-7.71,7.944-16.379,6.024-25.837c-3.496-17.227-20.005-28.212-37.24-24.969C24.717,20.042,13.165,37.3,16.853,54.483
	c3.32,15.47,16.754,25.982,32.578,25.477c0.975-0.031,1.945-0.167,3.15-0.274c-10.829-10.699-21.472-21.215-32.27-31.884l6.546-6.33
	c4.351-0.014,9.28-0.009,13.631-0.009c0.3,0,0.646,0,1.042,0l0.039-14.606l6.177-6.308c9.564,9.562,19.043,19.039,28.351,28.344
	c-2.064,2.065-4.205,4.207-6.501,6.505c-6.219-6.222-12.532-12.537-18.887-18.895c0,4.706,0,9.411,0,14.222
	c-4.75,0-9.416,0-14.307,0c7.633,7.541,15.099,14.916,22.564,22.291l0.207,0.183c0-3.527,0-7.354,0-10.878c3.095,0,6.098,0,9.202,0
	c0,9.007,0,17.966,0,27.175c1.594-0.924,3.055-1.668,4.411-2.572c13.378-8.921,20.661-21.417,21.32-37.487
	C94.598,37.414,90.68,26.75,82.77,17.667z"/>
</svg>
