<?xml version="1.0" encoding="utf-8"?>
<!-- Generator: Adobe Illustrator 16.0.4, SVG Export Plug-In . SVG Version: 6.00 Build 0)  -->
<!DOCTYPE svg PUBLIC "-//W3C//DTD SVG 1.1//EN" "http://www.w3.org/Graphics/SVG/1.1/DTD/svg11.dtd">
<svg version="1.1" id="Layer_1" xmlns="http://www.w3.org/2000/svg" xmlns:xlink="http://www.w3.org/1999/xlink" x="0px" y="0px"
	 width="50px" height="50px" viewBox="0 0 50 50" enable-background="new 0 0 50 50" xml:space="preserve">
<path d="M32.365,22.683c-0.195-0.195-0.512-0.195-0.707,0c-0.986,0.985-2.763,0.814-3.961-0.383c-0.59-0.59-0.95-1.336-1.012-2.1
	c-0.061-0.732,0.165-1.393,0.631-1.859c0.195-0.195,0.195-0.512,0-0.707c-0.195-0.195-0.512-0.195-0.707,0
	c-0.678,0.677-1.005,1.617-0.921,2.647c0.034,0.421,0.149,0.831,0.312,1.228c-0.497-0.205-1.02-0.321-1.542-0.321
	c-0.905,0-1.735,0.331-2.337,0.933c-0.99,0.99-1.167,2.515-0.604,3.884c-1.369-0.563-2.892-0.387-3.883,0.604
	c-0.195,0.195-0.195,0.512,0,0.707c0.195,0.195,0.512,0.195,0.707,0c0.986-0.984,2.761-0.815,3.959,0.382
	c1.198,1.198,1.369,2.975,0.383,3.961c-0.195,0.194-0.195,0.512,0,0.707c0.098,0.098,0.226,0.146,0.354,0.146
	s0.256-0.049,0.354-0.146c0.988-0.988,1.166-2.509,0.606-3.875c0.497,0.205,1.021,0.319,1.542,0.319c0.906,0,1.737-0.33,2.339-0.934
	c0.988-0.986,1.165-2.506,0.605-3.873c0.506,0.207,1.032,0.316,1.545,0.316c0.876,0,1.712-0.306,2.336-0.93
	C32.562,23.195,32.562,22.878,32.365,22.683z M27.171,27.169c-0.949,0.95-2.811,0.769-3.961-0.381
	c-1.196-1.197-1.367-2.974-0.381-3.961c0.413-0.412,0.992-0.64,1.63-0.64c0.831,0,1.68,0.373,2.329,1.022
	C27.984,24.407,28.156,26.184,27.171,27.169z M24.945,23.049l2.003,2.004c0.195,0.195,0.195,0.511,0,0.707
	c-0.098,0.098-0.226,0.146-0.354,0.146c-0.129,0-0.257-0.049-0.354-0.146l-2.003-2.004c-0.195-0.195-0.195-0.512,0-0.707
	C24.432,22.854,24.75,22.853,24.945,23.049z M25.763,26.24c0.194,0.195,0.194,0.512,0,0.707c-0.099,0.098-0.227,0.146-0.354,0.146
	c-0.128,0-0.256-0.049-0.354-0.146l-2.005-2.004c-0.195-0.195-0.195-0.512,0-0.707c0.195-0.195,0.512-0.195,0.707,0L25.763,26.24z
	 M22.32,29.682c0.195,0.194,0.195,0.512,0,0.707c-0.098,0.098-0.226,0.146-0.354,0.146c-0.128,0-0.256-0.05-0.354-0.146
	l-2.004-2.004c-0.195-0.195-0.195-0.512,0-0.707c0.195-0.195,0.512-0.195,0.707,0L22.32,29.682z M27.679,20.315
	c-0.195-0.195-0.195-0.512,0-0.707c0.194-0.195,0.512-0.195,0.706,0l2.006,2.005c0.194,0.195,0.194,0.512,0,0.707
	c-0.099,0.098-0.227,0.146-0.354,0.146s-0.256-0.049-0.354-0.146L27.679,20.315z"/>
</svg>
