<svg width="18.136" xmlns="http://www.w3.org/2000/svg" height="18.134" viewBox="0 0 18.136 18.134" xmlns:xlink="http://www.w3.org/1999/xlink" enable-background="new 0 0 18.136 18.134">
<path d="M16.28,0H1.854C0.831,0,0,0.829,0,1.854V16.28c0,1.025,0.831,1.854,1.854,1.854H16.28c1.025,0,1.856-0.828,1.856-1.854  V1.854C18.136,0.829,17.305,0,16.28,0z M15.964,3.993c0,0-2.685-0.98-2.685,1.014v1.506h2.619l-0.232,2.488h-2.387v8.479h-3.208  V9.001H8.499V6.513h1.572V5.007V3.896c0,0-0.033-2.021,2.603-2.603c1.85-0.41,3.649,0.181,3.649,0.181L15.964,3.993z"/>
</svg>
