<?xml version="1.0" encoding="utf-8"?>
<!-- Generator: Adobe Illustrator 17.1.0, SVG Export Plug-In . SVG Version: 6.00 Build 0)  -->
<!DOCTYPE svg PUBLIC "-//W3C//DTD SVG 1.1//EN" "http://www.w3.org/Graphics/SVG/1.1/DTD/svg11.dtd">
<svg version="1.1" xmlns="http://www.w3.org/2000/svg" xmlns:xlink="http://www.w3.org/1999/xlink" x="0px" y="0px"
	 viewBox="0 0 64 64" enable-background="new 0 0 64 64" xml:space="preserve">
<g id="Imagenes">
</g>
<g id="Layer_2">
	<path d="M46,46.266V34h-2v4.026l-9-0.868V36h-2v0.965l-9-0.868V34l-2-0.156v2.06L12,34.94v-1.398l-2-0.354v8.678l-8.809-1.077
		l4.054,3.644L43,50.042l9-0.958L63,46v-1.917L52,47L46,46.266z M33,44.677L12,42.11v-5.933l10,0.964v4.811l2,0.253v-4.871l9,0.868
		V44.677z M44,46.022l-9-1.1v-6.526l9,0.868V46.022z"/>
	<path d="M46,33l0.098-3.375c0,0-0.098-6.5-7.006-5.208C33.347,25.49,33,30.313,33,31.75V35h2.164c0,0-0.164-2.25,0.104-4.598
		c0.186-1.626,0.982-2.996,4.212-3.619C43.536,26,44,29.094,44,30.78V33H46z"/>
	<path d="M38.356,22.798C43,21.875,45.018,24,45.018,24L45,15.083L33,17v8.917C33,25.917,34.401,23.584,38.356,22.798z"/>
	<polygon points="47,41.203 47,45 50.997,45.485 62.055,42.542 	"/>
	<polygon points="43,40.855 36,40.224 36,43.658 43,44.511 	"/>
	<path d="M10,32.042l21.406,1.012c0,0-0.062-0.866,0.188-3.116S33,25.917,33,25.917L15.083,26C15.083,26,10.77,26.807,10,32.042z"/>
	<polygon points="1.958,39 9.104,40 9.083,37.998 	"/>
	<polygon points="13,40.856 21,41.831 21,38.89 13,38.178 	"/>
	<polygon points="32,39.868 25,39.246 25,42.318 32,43.171 	"/>
</g>
</svg>
