<?xml version="1.0" encoding="utf-8"?>
<!-- Generator: Adobe Illustrator 16.0.4, SVG Export Plug-In . SVG Version: 6.00 Build 0)  -->
<!DOCTYPE svg PUBLIC "-//W3C//DTD SVG 1.1//EN" "http://www.w3.org/Graphics/SVG/1.1/DTD/svg11.dtd">
<svg version="1.1" id="Capa_1" xmlns="http://www.w3.org/2000/svg" xmlns:xlink="http://www.w3.org/1999/xlink" x="0px" y="0px"
	 width="23.736px" height="19.775px" viewBox="0 0 23.736 19.775" enable-background="new 0 0 23.736 19.775" xml:space="preserve">
<path d="M16.994,0.82C16.527,0.484,16,0.224,15.452,0c-0.863,1.025-2.141,1.689-3.585,1.689c-1.445,0-2.724-0.664-3.586-1.689
	C7.732,0.225,7.207,0.484,6.738,0.82L0,6.427l3.978,3.978l1.015-1.016v7.766c0,1.447,0.958,2.621,2.139,2.621h9.478
	c1.182,0,2.139-1.174,2.139-2.621V9.39l1.016,1.014l3.977-3.978L16.994,0.82z M19.759,8.562l-2.317-2.316v10.908
	c0,0.754-0.44,1.318-0.836,1.318H7.129c-0.396,0-0.836-0.564-0.836-1.318V6.244L3.977,8.562L1.93,6.515l5.604-4.662
	c0.143-0.101,0.299-0.195,0.473-0.289c1.078,0.916,2.441,1.428,3.861,1.428s2.78-0.512,3.859-1.428
	c0.175,0.094,0.33,0.188,0.474,0.289l5.604,4.662L19.759,8.562z"/>
</svg>
