<?xml version="1.0" encoding="utf-8"?>
<!-- Generator: Adobe Illustrator 16.0.4, SVG Export Plug-In . SVG Version: 6.00 Build 0)  -->
<!DOCTYPE svg PUBLIC "-//W3C//DTD SVG 1.1//EN" "http://www.w3.org/Graphics/SVG/1.1/DTD/svg11.dtd">
<svg version="1.1" id="Layer_1" xmlns="http://www.w3.org/2000/svg" xmlns:xlink="http://www.w3.org/1999/xlink" x="0px" y="0px"
	 width="50px" height="50px" viewBox="0 0 50 50" enable-background="new 0 0 50 50" xml:space="preserve">
<path d="M29.189,30.137c0,0.275-0.224,0.5-0.5,0.5h-0.5v0.5c0,0.275-0.224,0.5-0.5,0.5c-0.275,0-0.5-0.225-0.5-0.5v-0.5h-0.5
	c-0.275,0-0.5-0.225-0.5-0.5s0.225-0.5,0.5-0.5h0.5v-0.5c0-0.275,0.225-0.5,0.5-0.5c0.276,0,0.5,0.225,0.5,0.5v0.5h0.5
	C28.966,29.637,29.189,29.859,29.189,30.137z M36.357,25.261v7.772c0,0.275-0.225,0.5-0.5,0.5h-1.823v1.479h-2.625v-1.479h-7.438
	v1.479h-2.625v-1.479h-1.823c-0.276,0-0.5-0.225-0.5-0.5v-5.115c0-0.012,0.006-0.021,0.007-0.033
	c-3.055-0.529-5.387-3.194-5.387-6.397c0-3.584,2.916-6.499,6.5-6.499c2.461,0,4.607,1.375,5.71,3.396
	c0.588-0.076,1.201-0.123,1.836-0.123C33.036,18.261,36.357,20.943,36.357,25.261z M26.643,21.486c0,2.291-1.193,4.305-2.989,5.463
	h9.704v-1.688c0-3.307-3.082-4-5.668-4c-0.369,0-0.709,0.035-1.055,0.065C26.637,21.381,26.643,21.433,26.643,21.486z
	 M20.143,26.986c3.033,0,5.5-2.467,5.5-5.5c0-0.159-0.011-0.317-0.023-0.475c-0.01-0.027-0.023-0.053-0.028-0.082
	c-0.005-0.039,0.005-0.074,0.007-0.111c-0.332-2.717-2.648-4.83-5.455-4.83c-3.033,0-5.5,2.467-5.5,5.498
	C14.643,24.519,17.11,26.986,20.143,26.986z M35.357,25.261c0-3.757-2.867-6-7.668-6c-0.488,0-0.959,0.033-1.418,0.081
	c0.113,0.32,0.201,0.651,0.264,0.992c0.378-0.033,0.752-0.073,1.154-0.073c4.237,0,6.668,1.822,6.668,5v2.188
	c0,0.277-0.225,0.5-0.5,0.5H21.523c-0.088,0-0.167-0.027-0.238-0.068c-0.372,0.066-0.751,0.107-1.142,0.107
	c-0.041,0-0.08-0.006-0.12-0.006v4.551h15.334V25.261z M23.142,29.105c-0.569,0-1.031,0.461-1.031,1.031
	c0,0.568,0.462,1.029,1.031,1.029c0.568,0,1.031-0.461,1.031-1.029C24.173,29.566,23.71,29.105,23.142,29.105z M32.238,29.105
	c-0.569,0-1.031,0.461-1.031,1.031c0,0.568,0.462,1.029,1.031,1.029c0.568,0,1.031-0.461,1.031-1.029
	C33.27,29.566,32.807,29.105,32.238,29.105z M19.851,21.411H17.99l0.003-0.007c0.14-0.196,0.401-0.418,0.785-0.66
	c0.414-0.264,0.696-0.502,0.847-0.715c0.151-0.211,0.227-0.479,0.227-0.803c0-0.394-0.132-0.713-0.396-0.963
	c-0.267-0.248-0.609-0.373-1.027-0.373c-0.45,0-0.803,0.135-1.059,0.405c-0.256,0.271-0.377,0.636-0.362,1.097h0.819
	c-0.008-0.246,0.042-0.442,0.149-0.586c0.106-0.145,0.255-0.217,0.446-0.217c0.179,0,0.323,0.057,0.432,0.174
	c0.109,0.113,0.163,0.266,0.163,0.454c0,0.173-0.049,0.33-0.148,0.472c-0.099,0.141-0.271,0.297-0.514,0.465
	c-0.543,0.383-0.912,0.711-1.109,0.99c-0.196,0.277-0.295,0.611-0.295,1v0.002h2.901L19.851,21.411L19.851,21.411z M21.965,21.208
	H20.28v-0.361v-0.363l1.572-2.594h0.468h0.467v2.652h0.479v0.666h-0.479v0.938h-0.822V21.208z M21.965,20.542v-1.771l-1.033,1.713
	l-0.035,0.06L21.965,20.542L21.965,20.542z M18.535,22.833v0.822h-0.858v-0.822h-0.229h-0.229v2.191h0.23h0.228v-0.992h0.858v0.992
	h0.229h0.229v-2.191h-0.229H18.535z M20.356,24.158h-0.457v0.867H19.67h-0.229v-2.191h0.229h0.876c0.21,0,0.378,0.057,0.506,0.168
	c0.128,0.111,0.191,0.259,0.191,0.441c0,0.211-0.071,0.365-0.213,0.461c-0.038,0.025-0.081,0.049-0.129,0.066
	c0.027,0.012,0.053,0.021,0.073,0.035c0.126,0.075,0.19,0.199,0.195,0.376l0.011,0.359c0.002,0.071,0.01,0.122,0.022,0.151
	c0.013,0.029,0.038,0.055,0.074,0.071v0.058H20.77c-0.012-0.021-0.022-0.07-0.031-0.146c-0.009-0.075-0.014-0.155-0.015-0.241
	l-0.003-0.203c-0.002-0.099-0.031-0.168-0.088-0.211C20.579,24.179,20.486,24.158,20.356,24.158z M19.899,23.791h0.531
	c0.118,0,0.207-0.023,0.266-0.072c0.06-0.049,0.089-0.119,0.089-0.219c0-0.096-0.028-0.168-0.084-0.217
	c-0.057-0.047-0.141-0.071-0.253-0.071h-0.549V23.791z M22.372,23.152c0.134,0,0.243,0.029,0.326,0.091
	c0.084,0.062,0.13,0.146,0.138,0.248h0.446c-0.018-0.22-0.104-0.396-0.258-0.522c-0.153-0.13-0.353-0.193-0.599-0.193
	c-0.263,0-0.47,0.062-0.625,0.187c-0.154,0.125-0.23,0.293-0.23,0.509c0,0.188,0.058,0.327,0.174,0.418
	c0.117,0.09,0.351,0.174,0.698,0.252c0.188,0.041,0.312,0.08,0.37,0.121c0.059,0.037,0.089,0.098,0.089,0.182
	s-0.043,0.147-0.124,0.195c-0.081,0.047-0.196,0.071-0.342,0.071c-0.143,0-0.254-0.032-0.333-0.095s-0.122-0.151-0.126-0.27h-0.442
	c0.012,0.236,0.095,0.42,0.251,0.549c0.156,0.129,0.373,0.19,0.65,0.19c0.275,0,0.495-0.06,0.657-0.181
	c0.163-0.121,0.243-0.284,0.243-0.49c0-0.205-0.054-0.354-0.161-0.445c-0.107-0.095-0.321-0.177-0.64-0.246
	c-0.221-0.05-0.364-0.093-0.431-0.129c-0.069-0.035-0.104-0.086-0.104-0.15c0-0.092,0.032-0.162,0.099-0.215
	C22.165,23.176,22.255,23.152,22.372,23.152z"/>
</svg>
