<?xml version="1.0" encoding="utf-8"?>
<!-- Generator: Adobe Illustrator 16.0.4, SVG Export Plug-In . SVG Version: 6.00 Build 0)  -->
<!DOCTYPE svg PUBLIC "-//W3C//DTD SVG 1.1//EN" "http://www.w3.org/Graphics/SVG/1.1/DTD/svg11.dtd">
<svg version="1.1" id="Layer_1" xmlns="http://www.w3.org/2000/svg" xmlns:xlink="http://www.w3.org/1999/xlink" x="0px" y="0px"
	 width="50px" height="50px" viewBox="0 0 50 50" enable-background="new 0 0 50 50" xml:space="preserve">
<path d="M19.611,30.9H16.5l0,0c0-0.418,0.105-0.774,0.316-1.073c0.213-0.298,0.606-0.652,1.188-1.06
	c0.263-0.183,0.445-0.351,0.552-0.5c0.106-0.15,0.159-0.318,0.159-0.504c0-0.205-0.059-0.367-0.176-0.488
	c-0.115-0.125-0.271-0.188-0.463-0.188c-0.205,0-0.363,0.077-0.479,0.23c-0.115,0.154-0.168,0.363-0.16,0.63h-0.879
	c-0.016-0.494,0.115-0.888,0.39-1.177c0.274-0.291,0.653-0.436,1.137-0.436c0.447,0,0.813,0.133,1.101,0.4
	c0.282,0.268,0.426,0.611,0.426,1.031c0,0.349-0.08,0.637-0.242,0.862s-0.465,0.481-0.908,0.767
	c-0.412,0.262-0.693,0.496-0.842,0.709l-0.004,0.006h1.996V30.9z M22.76,26.338v2.846h0.516v0.715H22.76v1.004h-0.883v-1.004h-1.805
	v-0.39v-0.388l1.686-2.783h0.502H22.76z M21.877,27.282l-1.105,1.839l-0.039,0.062h1.146L21.877,27.282L21.877,27.282z
	 M18.199,31.639v0.883h-0.92v-0.883h-0.246h-0.244v2.352h0.248h0.242v-1.062h0.92v1.062h0.246h0.246v-2.352h-0.248H18.199z
	 M21.061,33.85c0.015,0.031,0.041,0.059,0.08,0.075v0.062h-0.543c-0.012-0.021-0.022-0.074-0.033-0.156
	c-0.01-0.08-0.016-0.165-0.016-0.258l-0.004-0.219c-0.002-0.104-0.033-0.18-0.094-0.227c-0.059-0.044-0.158-0.066-0.299-0.066
	h-0.488v0.93h-0.246h-0.246v-2.352h0.244h0.941c0.223,0,0.404,0.062,0.541,0.18c0.137,0.121,0.205,0.277,0.205,0.475
	c0,0.227-0.076,0.395-0.229,0.496c-0.041,0.027-0.088,0.052-0.138,0.07c0.027,0.014,0.056,0.023,0.078,0.037
	c0.136,0.084,0.203,0.215,0.207,0.404l0.015,0.385C21.039,33.764,21.047,33.816,21.061,33.85z M20.613,32.354
	c0-0.104-0.029-0.181-0.092-0.233c-0.06-0.05-0.148-0.076-0.271-0.076h-0.588v0.621h0.567c0.127,0,0.222-0.024,0.285-0.077
	C20.58,32.535,20.613,32.458,20.613,32.354z M22.488,32.592c-0.236-0.054-0.391-0.1-0.461-0.138
	c-0.074-0.038-0.109-0.093-0.109-0.163c0-0.1,0.033-0.174,0.104-0.229c0.07-0.057,0.168-0.084,0.293-0.084
	c0.144,0,0.261,0.033,0.351,0.1s0.14,0.154,0.146,0.266h0.48c-0.02-0.234-0.111-0.424-0.277-0.562
	c-0.164-0.14-0.379-0.207-0.643-0.207c-0.281,0-0.504,0.067-0.67,0.198c-0.166,0.136-0.246,0.315-0.246,0.545
	c0,0.203,0.061,0.354,0.186,0.449c0.127,0.099,0.377,0.188,0.748,0.271c0.203,0.044,0.336,0.086,0.398,0.129
	c0.062,0.041,0.094,0.105,0.094,0.195c0,0.091-0.045,0.158-0.133,0.21c-0.086,0.051-0.209,0.075-0.365,0.075
	c-0.154,0-0.273-0.033-0.357-0.102c-0.086-0.066-0.131-0.161-0.135-0.288h-0.475c0.012,0.255,0.102,0.45,0.268,0.589
	c0.168,0.137,0.4,0.204,0.699,0.204c0.295,0,0.531-0.062,0.705-0.192c0.174-0.131,0.26-0.305,0.26-0.525
	c0-0.22-0.057-0.379-0.172-0.479S22.83,32.667,22.488,32.592z M33.5,24.491c0,0.276-0.225,0.5-0.5,0.5c-0.006,0.001-0.014,0-0.02,0
	h-7.236v6.471c0,1.239,1.008,2.247,2.248,2.247c1.238,0,2.248-1.008,2.248-2.247c0-0.276,0.223-0.5,0.5-0.5
	c0.275,0,0.5,0.224,0.5,0.5c0,1.79-1.457,3.247-3.248,3.247s-3.248-1.457-3.248-3.247v-6.471h-7.637c-0.277,0-0.5-0.224-0.5-0.5
	c0-4.337,3.332-7.386,8.137-7.509v-1.191c0-0.275,0.223-0.5,0.5-0.5c0.275,0,0.5,0.225,0.5,0.5v1.207
	c4.535,0.275,7.664,3.209,7.734,7.35C33.492,24.393,33.5,24.439,33.5,24.491z M32.463,23.991c-0.254-3.57-3.234-6.021-7.42-6.021
	s-7.164,2.449-7.418,6.021H32.463z M26.627,20.564h-1.084V19.48c0-0.275-0.225-0.5-0.5-0.5c-0.277,0-0.5,0.225-0.5,0.5v1.084h-1.082
	c-0.277,0-0.5,0.224-0.5,0.5c0,0.275,0.223,0.5,0.5,0.5h1.082v1.082c0,0.276,0.223,0.5,0.5,0.5c0.275,0,0.5-0.224,0.5-0.5v-1.082
	h1.084c0.275,0,0.5-0.225,0.5-0.5C27.127,20.788,26.902,20.564,26.627,20.564z"/>
</svg>
