<?xml version="1.0" encoding="utf-8"?>
<!-- Generator: Adobe Illustrator 16.0.4, SVG Export Plug-In . SVG Version: 6.00 Build 0)  -->
<!DOCTYPE svg PUBLIC "-//W3C//DTD SVG 1.1//EN" "http://www.w3.org/Graphics/SVG/1.1/DTD/svg11.dtd">
<svg version="1.1" id="Capa_1" xmlns="http://www.w3.org/2000/svg" xmlns:xlink="http://www.w3.org/1999/xlink" x="0px" y="0px"
	 width="21.34px" height="18.943px" viewBox="0 0 21.34 18.943" enable-background="new 0 0 21.34 18.943" xml:space="preserve">
<path d="M20.993,3.174C20.691,1.243,19.383,0,17.547,0c-2.127,0-5.926,1.674-5.926,5.008v0.86l0.789-0.346
	c0.154-0.067,0.309-0.119,0.457-0.155c-0.031,0.19-0.051,0.393-0.051,0.598c0.527-0.229,1.012-0.305,1.42-0.267
	c0.059,0.095,0.09,0.203,0.09,0.322c0,1.137-1.668,4.944-2.479,4.944c-0.004,0-0.379-0.101-0.862-1.754
	c-0.337-1.151-0.593-2.576-0.817-3.834c-0.1-0.555-0.192-1.076-0.281-1.502C9.456,1.811,8.779,0.435,6.872,0.435
	c-2.087,0-4.739,2.67-6.554,4.679L0,5.467l1.213,1.532l0.402,0.507L1.773,7.34L2.019,7.65c0,0,0.824-0.865,1.682-0.936
	C4.253,7.581,5.056,9.59,5.552,11.66c0.39,1.632,1.396,5.047,3.181,6.188c0.521,0.661,1.125,1.097,1.81,1.097
	c2.081,0,5.895-4.21,7.331-6.239c1.438-2.032,3.469-5.646,3.469-7.729C21.338,4.301,21.217,3.692,20.993,3.174z M17.111,11.577
	c-1.399,1.98-5.12,6.087-7.148,6.087c-2.029,0-3.333-3.912-3.864-6.135C5.566,9.307,4.262,5.732,3.393,5.732s-1.74,0.919-1.74,0.919
	L0.735,5.49C2.09,3.992,4.891,0.998,6.872,0.998c1.304,0,1.979,0.676,2.464,2.994c0.481,2.319,1.109,7.537,2.512,7.537
	c1.402,0,3.043-4.493,3.043-5.509c0-1.015-1.158-1.689-2.705-1.017c0-2.994,3.527-4.442,5.361-4.442
	c1.836,0,2.947,1.448,2.947,3.479C20.495,6.071,18.514,9.598,17.111,11.577z"/>
</svg>
