<?xml version="1.0" encoding="utf-8"?>
<!-- Generator: Adobe Illustrator 16.0.4, SVG Export Plug-In . SVG Version: 6.00 Build 0)  -->
<!DOCTYPE svg PUBLIC "-//W3C//DTD SVG 1.1//EN" "http://www.w3.org/Graphics/SVG/1.1/DTD/svg11.dtd">
<svg version="1.1" id="Layer_1" xmlns="http://www.w3.org/2000/svg" xmlns:xlink="http://www.w3.org/1999/xlink" x="0px" y="0px"
	 width="50px" height="50px" viewBox="0 0 50 50" enable-background="new 0 0 50 50" xml:space="preserve">
<path d="M30.867,30.104c0,0.276-0.225,0.5-0.5,0.5h-2.396v2.396c0,0.275-0.223,0.5-0.5,0.5c-0.275,0-0.5-0.225-0.5-0.5v-2.396
	h-2.396c-0.277,0-0.5-0.224-0.5-0.5c0-0.275,0.223-0.5,0.5-0.5h2.396v-2.396c0-0.276,0.225-0.5,0.5-0.5c0.277,0,0.5,0.224,0.5,0.5
	v2.396h2.396C30.643,29.604,30.867,29.829,30.867,30.104z M35.955,27.685c0,0.518-0.084,1.031-0.248,1.528
	c-0.785,3.546-7.57,7.845-7.859,8.024c-0.082,0.052-0.174,0.076-0.266,0.076c-0.094,0-0.186-0.024-0.266-0.076
	c-0.152-0.094-2.08-1.32-4-2.979l-5.25,2.85l-4.021-1.117V17.897l9.605-5.211v0.861l2.875,0.876l1.145-0.621v10.238
	c0.906-0.832,2.088-1.308,3.336-1.308c0.84,0,1.664,0.213,2.387,0.617C34.973,24.22,35.955,25.881,35.955,27.685z M23.209,16.008
	l0.441-0.225l2.295-1.166l-2.295-0.699l-0.441-0.135l-0.025-0.009l-7.768,4.138l2.611,0.728L23.209,16.008z M34.955,27.685
	c0-1.438-0.783-2.765-2.047-3.459c-0.576-0.322-1.234-0.49-1.902-0.49c-1.18,0-2.287,0.521-3.039,1.429
	c-0.096,0.114-0.236,0.181-0.385,0.181s-0.289-0.066-0.385-0.181c-0.756-0.908-1.865-1.429-3.043-1.429
	c-0.668,0-1.324,0.168-1.9,0.488c-1.262,0.695-2.045,2.021-2.045,3.459c0,0.418,0.064,0.825,0.195,1.213
	c0.639,2.869,5.922,6.498,7.178,7.323c1.254-0.825,6.535-4.448,7.162-7.272C34.889,28.502,34.955,28.094,34.955,27.685z"/>
</svg>
