<?xml version="1.0" encoding="utf-8"?>
<!-- Generator: Adobe Illustrator 17.1.0, SVG Export Plug-In . SVG Version: 6.00 Build 0)  -->
<!DOCTYPE svg PUBLIC "-//W3C//DTD SVG 1.1//EN" "http://www.w3.org/Graphics/SVG/1.1/DTD/svg11.dtd">
<svg version="1.1" xmlns="http://www.w3.org/2000/svg" xmlns:xlink="http://www.w3.org/1999/xlink" x="0px" y="0px"
	 viewBox="0 0 64 64" enable-background="new 0 0 64 64" xml:space="preserve">
<g id="Imagenes">
</g>
<g id="Layer_2">
	<path d="M21.172,6.213L32.44,24.494L43.488,6.57l-4.003-2.165c0,0-2.642,3.81-7.044,3.81s-7.925-3.81-7.925-3.81L21.172,6.213z"/>
	<polygon points="48.783,9.433 45.166,7.477 32.44,28.125 19.494,7.121 14.602,9.766 32.402,36.895 	"/>
	<path d="M57.238,13.929c-1.237,0-2.353,0.484-3.2,1.257l1.295-2.209l-4.874-2.636L32.478,40.485l-19.557-29.81l-4.254,2.301
		l1.395,2.292c-0.856-0.826-2.016-1.339-3.3-1.339C4.132,13.929,2,16.061,2,18.69c0,2.63,2.132,4.762,4.762,4.762
		s4.762-2.132,4.762-4.762c0-0.494-0.097-0.962-0.237-1.41l6.231,10.234c-0.839-0.741-1.93-1.205-3.137-1.205
		c-2.63,0-4.762,2.132-4.762,4.762s2.132,4.762,4.762,4.762c2.63,0,4.762-2.132,4.762-4.762c0-0.394-0.062-0.772-0.152-1.138
		l5.037,8.274c-0.617-0.292-1.3-0.469-2.028-0.469c-2.63,0-4.762,2.132-4.762,4.762c0,2.63,2.132,4.762,4.762,4.762
		c2.572,0,4.654-2.043,4.745-4.593l5.151,8.461c-2.353,0.289-4.182,2.272-4.182,4.703c0,2.63,2.132,4.762,4.762,4.762
		c2.63,0,4.762-2.132,4.762-4.762c0-2.461-1.874-4.462-4.269-4.712l5.256-8.964c-0.008,0.115-0.035,0.226-0.035,0.343
		c0,2.63,2.132,4.762,4.762,4.762c2.63,0,4.762-2.132,4.762-4.762c0-2.63-2.132-4.762-4.762-4.762c-0.957,0-1.844,0.288-2.591,0.774
		l4.523-7.714c-0.005,0.092-0.028,0.18-0.028,0.273c0,2.63,2.132,4.762,4.762,4.762c2.63,0,4.762-2.132,4.762-4.762
		s-2.132-4.762-4.762-4.762c-0.937,0-1.804,0.28-2.541,0.747l5.525-9.425c-0.078,0.341-0.127,0.693-0.127,1.058
		c0,2.63,2.132,4.762,4.762,4.762S62,21.32,62,18.69C62,16.061,59.868,13.929,57.238,13.929z M6.762,20.595
		c-1.05,0-1.905-0.854-1.905-1.905c0-1.05,0.854-1.905,1.905-1.905c1.05,0,1.905,0.854,1.905,1.905
		C8.667,19.741,7.812,20.595,6.762,20.595z M14.381,32.976c-1.05,0-1.905-0.854-1.905-1.905c0-1.05,0.854-1.905,1.905-1.905
		c1.05,0,1.905,0.854,1.905,1.905C16.286,32.122,15.431,32.976,14.381,32.976z M22,44.405c-1.05,0-1.905-0.854-1.905-1.905
		c0-1.05,0.854-1.905,1.905-1.905s1.905,0.854,1.905,1.905C23.905,43.55,23.05,44.405,22,44.405z M34.381,55.833
		c0,1.05-0.854,1.905-1.905,1.905s-1.905-0.854-1.905-1.905s0.854-1.905,1.905-1.905S34.381,54.783,34.381,55.833z M42.952,40.595
		c1.05,0,1.905,0.854,1.905,1.905c0,1.05-0.854,1.905-1.905,1.905c-1.05,0-1.905-0.854-1.905-1.905
		C41.048,41.45,41.902,40.595,42.952,40.595z M49.619,29.167c1.05,0,1.905,0.854,1.905,1.905c0,1.05-0.854,1.905-1.905,1.905
		c-1.05,0-1.905-0.854-1.905-1.905C47.714,30.021,48.569,29.167,49.619,29.167z M57.238,20.595c-1.05,0-1.905-0.854-1.905-1.905
		c0-1.05,0.854-1.905,1.905-1.905s1.905,0.854,1.905,1.905C59.143,19.741,58.288,20.595,57.238,20.595z"/>
</g>
</svg>
