<?xml version="1.0" encoding="utf-8"?>
<!-- Generator: Adobe Illustrator 16.0.4, SVG Export Plug-In . SVG Version: 6.00 Build 0)  -->
<!DOCTYPE svg PUBLIC "-//W3C//DTD SVG 1.1//EN" "http://www.w3.org/Graphics/SVG/1.1/DTD/svg11.dtd">
<svg version="1.1" id="Layer_2" xmlns="http://www.w3.org/2000/svg" xmlns:xlink="http://www.w3.org/1999/xlink" x="0px" y="0px"
	 width="96px" height="96px" viewBox="0 0 96 96" enable-background="new 0 0 96 96" xml:space="preserve">
<path d="M41.246,14.35c-0.868-3.795,2.925-7.899,8.471-9.168c5.546-1.268,10.746,0.78,11.613,4.575
	c0.868,3.795-2.925,7.899-8.471,9.168C47.313,20.193,42.113,18.145,41.246,14.35z M79.387,83.561h8.239v-7.347
	C86.809,80.132,83.736,82.477,79.387,83.561z M95.275,18.136c-5.094,2.548-2.239,10.772-7.65,11.499v30.12h-5.809v12.185
	c0,5.224-3.033,6.74-8.904,6.74c-5.33,0-8.485-1.449-8.485-6.74V59.755H58.4v13.999c0,5.285,3.134,8.198,7.895,9.436H45.799
	l-0.476,4.513c-2.855,0-5.709,0-8.564,2.854c-0.475,0.476-1.268,0.635-2.114,0.635c-1.692,0-3.595-0.635-3.595-0.635
	c-1.893-6.625-1.509-7.365-1.509-7.365h-7.569V42.98c-0.304,0.263-0.608,0.541-0.913,0.845c-2.854,2.141-6.066,2.854-9.277,2.854
	c-3.211,0-6.423-0.713-9.277-1.426c-2.853-1.427-1.427-4.282-1.427-5.709c7.637-5.091,11.868-14.723,19.78-14.723
	c0.961,0,1.975,0.142,3.056,0.451c0,1.427,0,2.855,1.427,2.855c22.42-2.638,42.405-10.15,64.454-10.15
	C91.609,17.977,93.434,18.028,95.275,18.136z M59.625,39.205c-0.002,0-0.671-1.099-5.033-1.099h-0.001
	c-2.778,0-6.38,0.453-10.714,1.349c-1.077,2.54-2.214,5.065-3.318,7.516c-6.131,13.611-11.93,26.484-7.912,41.992
	c0.602,0.139,1.351,0.27,1.998,0.27c0.487,0,0.705-0.072,0.767-0.099c2.739-2.718,5.5-3.257,8.057-3.362
	c1.166-11.92,11.697-40.625,15.986-46.342l0.085-0.114l0.077-0.076C59.623,39.226,59.626,39.212,59.625,39.205z M90.979,19.945
	c-0.394-0.005-0.789-0.008-1.185-0.008c-12.928,0-24.985,2.592-37.751,5.336c-8.515,1.83-17.319,3.724-26.473,4.8l-0.114,0.014
	h-0.115c-1.48,0-2.642-0.835-3.108-2.232c-0.106-0.321-0.172-0.654-0.213-0.989c-0.395-0.056-0.784-0.084-1.161-0.084
	c-4.085,0-7.195,3.329-10.798,7.182c-2.176,2.329-4.419,4.729-7.135,6.685c-0.023,0.13-0.047,0.262-0.071,0.396
	c-0.304,1.656-0.209,2.038,0.356,2.365c2.778,0.689,5.727,1.312,8.572,1.312c3.191,0,5.808-0.78,7.996-2.385
	c3.045-2.998,6.088-4.077,9.307-5.217c1.7-0.602,3.456-1.224,5.371-2.181c8.119-4.061,34.538-7.624,46.2-7.624
	c2.065,0,3.731,0.102,4.952,0.306c0.445,0.074,0.854,0.111,1.213,0.111c1.791,0,2.152-0.74,2.916-3.909
	C90.034,22.593,90.365,21.221,90.979,19.945z"/>
</svg>
