<?xml version="1.0" encoding="utf-8"?>
<!-- Generator: Adobe Illustrator 16.0.4, SVG Export Plug-In . SVG Version: 6.00 Build 0)  -->
<!DOCTYPE svg PUBLIC "-//W3C//DTD SVG 1.1//EN" "http://www.w3.org/Graphics/SVG/1.1/DTD/svg11.dtd">
<svg version="1.1" id="Layer_1" xmlns="http://www.w3.org/2000/svg" xmlns:xlink="http://www.w3.org/1999/xlink" x="0px" y="0px"
	 width="50px" height="50px" viewBox="0 0 50 50" enable-background="new 0 0 50 50" xml:space="preserve">
<path d="M28.31,17.111c0.054-0.152,0.03-0.322-0.063-0.455S28,16.445,27.838,16.445h-5.674c-0.162,0-0.314,0.078-0.408,0.211
	c-0.094,0.133-0.117,0.303-0.063,0.455l2.837,8.021c0.07,0.199,0.259,0.333,0.471,0.333s0.401-0.134,0.471-0.333L28.31,17.111z
	 M25,23.466l-2.13-6.021h4.259L25,23.466z M34.65,28.081c-0.062-0.149-0.192-0.261-0.351-0.298l-8.286-1.92
	c-0.207-0.049-0.422,0.039-0.534,0.219c-0.114,0.179-0.103,0.409,0.026,0.576l5.235,6.703c0.095,0.123,0.241,0.192,0.394,0.192
	c0.009,0,0.017,0,0.024-0.001c0.162-0.007,0.312-0.094,0.397-0.23l3.052-4.783C34.696,28.402,34.711,28.23,34.65,28.081z
	 M31.094,32.189l-3.931-5.033l6.222,1.441L31.094,32.189z M23.985,25.863l-8.285,1.92c-0.158,0.037-0.289,0.148-0.35,0.298
	c-0.062,0.149-0.046,0.321,0.042,0.458l3.052,4.784c0.087,0.138,0.235,0.224,0.397,0.229c0.008,0.002,0.016,0.002,0.024,0.002
	c0.153,0,0.299-0.07,0.394-0.192l5.233-6.704c0.13-0.167,0.142-0.396,0.027-0.576C24.405,25.902,24.192,25.816,23.985,25.863z
	 M18.907,32.189l-2.291-3.592l6.22-1.441L18.907,32.189z"/>
</svg>
