<?xml version="1.0" encoding="utf-8"?>
<!-- Generator: Adobe Illustrator 16.0.4, SVG Export Plug-In . SVG Version: 6.00 Build 0)  -->
<!DOCTYPE svg PUBLIC "-//W3C//DTD SVG 1.1//EN" "http://www.w3.org/Graphics/SVG/1.1/DTD/svg11.dtd">
<svg version="1.1" id="Layer_1" xmlns="http://www.w3.org/2000/svg" xmlns:xlink="http://www.w3.org/1999/xlink" x="0px" y="0px"
	 width="50px" height="50px" viewBox="0 0 50 50" enable-background="new 0 0 50 50" xml:space="preserve">
<path d="M33.676,27.328c-0.262-1.213-0.979-2.251-2.023-2.923c-1.004-0.648-2.19-0.873-3.358-0.652
	c1.802-1.812,1.8-4.752-0.009-6.561c-0.195-0.195-0.512-0.195-0.707,0s-0.195,0.512,0,0.707c1.422,1.422,1.422,3.733,0,5.156
	c-1.422,1.422-3.734,1.422-5.156,0c-0.689-0.688-1.068-1.604-1.068-2.578c0-0.975,0.379-1.892,1.068-2.578
	c0.195-0.195,0.195-0.512,0-0.707s-0.512-0.195-0.707,0c-0.878,0.877-1.361,2.043-1.361,3.285c0,1.237,0.481,2.399,1.354,3.274
	c-1.165-0.217-2.355,0.004-3.359,0.651c-1.043,0.673-1.763,1.712-2.023,2.925c-0.059,0.27,0.113,0.537,0.383,0.594
	c0.271,0.061,0.537-0.113,0.594-0.383c0.206-0.951,0.771-1.77,1.59-2.295c0.817-0.527,1.793-0.707,2.744-0.498
	c1.68,0.36,2.83,1.836,2.867,3.481c-0.002,0.072-0.004,0.145-0.001,0.217c-0.009,0.209-0.024,0.42-0.071,0.633
	c-0.205,0.951-0.769,1.768-1.587,2.297c-0.817,0.525-1.795,0.703-2.745,0.5c-0.266-0.061-0.537,0.109-0.595,0.383
	c-0.06,0.27,0.113,0.535,0.383,0.594c0.329,0.07,0.661,0.105,0.99,0.105c0.883,0,1.749-0.252,2.509-0.742
	c0.707-0.457,1.249-1.09,1.616-1.822c0.368,0.732,0.91,1.365,1.617,1.822c0.76,0.49,1.625,0.742,2.509,0.742
	c0.329,0,0.661-0.035,0.99-0.105c0.27-0.059,0.441-0.324,0.383-0.594c-0.059-0.271-0.32-0.445-0.594-0.383
	c-0.952,0.203-1.928,0.025-2.746-0.5c-0.818-0.529-1.383-1.346-1.588-2.297c-0.045-0.213-0.062-0.424-0.07-0.633
	c0.003-0.07,0.001-0.145-0.001-0.217c0.037-1.645,1.188-3.121,2.867-3.483c0.952-0.205,1.927-0.027,2.745,0.5
	c0.818,0.526,1.382,1.344,1.587,2.295c0.059,0.27,0.329,0.438,0.595,0.385C33.561,27.865,33.732,27.6,33.676,27.328z M24.999,26.242
	c-0.221-0.441-0.498-0.851-0.846-1.203c0.279,0.053,0.562,0.082,0.847,0.082s0.565-0.029,0.846-0.082
	C25.497,25.391,25.221,25.801,24.999,26.242z"/>
</svg>
