<?xml version="1.0" encoding="utf-8"?>
<!-- Generator: Adobe Illustrator 16.0.4, SVG Export Plug-In . SVG Version: 6.00 Build 0)  -->
<!DOCTYPE svg PUBLIC "-//W3C//DTD SVG 1.1//EN" "http://www.w3.org/Graphics/SVG/1.1/DTD/svg11.dtd">
<svg version="1.1" id="Layer_1" xmlns="http://www.w3.org/2000/svg" xmlns:xlink="http://www.w3.org/1999/xlink" x="0px" y="0px"
	 width="226.77px" height="155.91px" viewBox="0 0 226.77 155.91" enable-background="new 0 0 226.77 155.91" xml:space="preserve">
<g>
	<path d="M181.729,144.656c1.128-1.699,1.327-3.855,0.534-5.734L128.672,12.245c-0.955-2.256-3.165-3.72-5.611-3.72h-58.32h-0.146
		c-0.227,0-0.441,0.037-0.663,0.061c-0.139,0.015-0.283,0.015-0.419,0.039c-0.375,0.068-0.748,0.173-1.116,0.314
		c-0.012,0.005-0.027,0.005-0.039,0.01c-0.083,0.031-0.151,0.083-0.231,0.119c-0.263,0.117-0.519,0.241-0.758,0.39
		c-0.131,0.083-0.25,0.18-0.375,0.271c-0.18,0.134-0.358,0.268-0.521,0.419c-0.119,0.11-0.229,0.231-0.341,0.351
		c-0.146,0.158-0.285,0.321-0.414,0.494c-0.095,0.127-0.183,0.261-0.268,0.397c-0.112,0.18-0.217,0.37-0.312,0.565
		c-0.07,0.146-0.136,0.292-0.195,0.443c-0.075,0.195-0.136,0.395-0.195,0.597c-0.046,0.17-0.092,0.341-0.126,0.519
		c-0.012,0.068-0.039,0.134-0.049,0.207l-14.48,97.445c-0.4,2.689,1.03,5.318,3.505,6.441l64.417,29.232
		c0.159,0.072,0.329,0.105,0.492,0.162c0.146,0.053,0.292,0.107,0.443,0.146c0.497,0.135,1.009,0.225,1.532,0.23
		c0.017,0,0.032,0.006,0.049,0.006c0.007,0,0.017,0,0.024,0h62.094C178.694,147.383,180.602,146.359,181.729,144.656z
		 M56.814,108.412l10.46-70.391l36.074,91.508L56.814,108.412z M118.682,135.203L73.545,20.706h45.482l48.439,114.498H118.682z"/>
</g>
</svg>
