<?xml version="1.0" encoding="utf-8"?>
<!-- Generator: Adobe Illustrator 16.0.4, SVG Export Plug-In . SVG Version: 6.00 Build 0)  -->
<!DOCTYPE svg PUBLIC "-//W3C//DTD SVG 1.1//EN" "http://www.w3.org/Graphics/SVG/1.1/DTD/svg11.dtd">
<svg version="1.1" id="Layer_1" xmlns="http://www.w3.org/2000/svg" xmlns:xlink="http://www.w3.org/1999/xlink" x="0px" y="0px"
	 width="226.77px" height="155.91px" viewBox="0 0 226.77 155.91" enable-background="new 0 0 226.77 155.91" xml:space="preserve">
<g>
	<path d="M47.564,132.122l24.096,19.766c0.012,0.01,0.024,0.016,0.036,0.025c0.11,0.088,0.231,0.155,0.346,0.236
		c0.195,0.136,0.39,0.272,0.602,0.387c0.129,0.068,0.263,0.122,0.395,0.18c0.219,0.098,0.443,0.19,0.677,0.264
		c0.063,0.02,0.12,0.054,0.183,0.07c0.061,0.018,0.122,0.01,0.185,0.025c0.468,0.113,0.936,0.188,1.401,0.189
		c0.014,0,0.026,0.005,0.041,0.005c0.436,0,0.86-0.063,1.277-0.153c0.049-0.01,0.097-0.005,0.146-0.018l99.824-24.096
		c1.845-0.447,3.376-1.725,4.142-3.459c0.768-1.734,0.682-3.727-0.231-5.391L117.961,5.803c-1.084-1.976-3.165-3.13-5.418-3.162
		c-2.251,0.029-4.302,1.299-5.335,3.299L46.013,124.624C44.697,127.177,45.343,130.302,47.564,132.122z M159.135,117.132
		c-1.308-0.326-2.631,0.459-2.959,1.764c-0.229,0.899,0.102,1.789,0.74,2.376l-72.769,17.563l4.928-17.839l3.145-0.745
		c1.311-0.31,2.119-1.623,1.81-2.932c-0.31-1.311-1.642-2.123-2.933-1.807l-0.543,0.129l22.885-82.837l0.47,5.165
		c0.114,1.264,1.177,2.214,2.424,2.214c0.073,0,0.149-0.002,0.222-0.01c1.34-0.122,2.329-1.306,2.207-2.648l-0.535-5.913
		l47.876,87.288L159.135,117.132z M93.578,58.956l-17.416,63.041c-0.007-0.148,0.019-0.292-0.015-0.44
		c-0.312-1.312-1.637-2.122-2.933-1.808l-8.94,2.119c-1.311,0.31-2.12,1.623-1.81,2.931c0.266,1.12,1.267,1.876,2.368,1.876
		c0.188,0,0.375-0.021,0.563-0.066l8.94-2.119c0.599-0.141,1.074-0.509,1.405-0.977l-3.598,13.023l-13.05-10.705L93.578,58.956z"/>
	<path d="M108.979,111.273l-8.94,2.12c-1.311,0.309-2.12,1.622-1.81,2.93c0.266,1.121,1.267,1.876,2.368,1.876
		c0.188,0,0.375-0.021,0.563-0.065l8.94-2.119c1.311-0.31,2.12-1.623,1.81-2.932C111.602,111.771,110.277,110.957,108.979,111.273z"
		/>
	<path d="M120.106,106.116l0.224,2.465l-2.408,0.573c-1.311,0.31-2.119,1.622-1.811,2.931c0.266,1.121,1.268,1.875,2.368,1.875
		c0.188,0,0.375-0.021,0.562-0.064l3.881-0.922l8.321,2.112c0.203,0.052,0.404,0.073,0.602,0.073c1.087,0,2.081-0.733,2.358-1.837
		c0.331-1.304-0.458-2.628-1.761-2.962l-7.226-1.834l-0.259-2.854c-0.121-1.338-1.308-2.318-2.645-2.205
		C120.972,103.588,119.984,104.774,120.106,106.116z"/>
	<path d="M116.566,67.173l0.885,9.735c0.115,1.264,1.177,2.214,2.424,2.214c0.073,0,0.148-0.002,0.222-0.01
		c1.34-0.122,2.329-1.306,2.208-2.648l-0.885-9.735c-0.122-1.337-1.304-2.326-2.646-2.205
		C117.432,64.646,116.445,65.831,116.566,67.173z"/>
	<path d="M114.796,47.701l0.884,9.737c0.115,1.264,1.178,2.214,2.424,2.214c0.074,0,0.149-0.002,0.223-0.01
		c1.34-0.122,2.328-1.306,2.207-2.648l-0.885-9.737c-0.121-1.337-1.301-2.319-2.646-2.205
		C115.66,45.175,114.674,46.359,114.796,47.701z"/>
	<path d="M118.336,86.645l0.884,9.735c0.114,1.264,1.177,2.214,2.424,2.214c0.073,0,0.149-0.003,0.222-0.01
		c1.34-0.122,2.329-1.306,2.207-2.647l-0.884-9.735c-0.122-1.337-1.306-2.333-2.646-2.204
		C119.203,84.118,118.214,85.305,118.336,86.645z"/>
	<path d="M140.141,117.342l8.896,2.259c0.203,0.051,0.404,0.072,0.603,0.072c1.089,0,2.08-0.732,2.36-1.836
		c0.332-1.304-0.458-2.629-1.762-2.963l-8.896-2.258c-1.306-0.326-2.631,0.457-2.959,1.764
		C138.051,115.683,138.838,117.009,140.141,117.342z"/>
</g>
</svg>
