<?xml version="1.0" encoding="utf-8"?>
<!-- Generator: Adobe Illustrator 16.0.4, SVG Export Plug-In . SVG Version: 6.00 Build 0)  -->
<!DOCTYPE svg PUBLIC "-//W3C//DTD SVG 1.1//EN" "http://www.w3.org/Graphics/SVG/1.1/DTD/svg11.dtd">
<svg version="1.1" id="Layer_1" xmlns="http://www.w3.org/2000/svg" xmlns:xlink="http://www.w3.org/1999/xlink" x="0px" y="0px"
	 width="226.77px" height="155.91px" viewBox="0 0 226.77 155.91" enable-background="new 0 0 226.77 155.91" xml:space="preserve">
<g>
	<path d="M166.321,101.274L82.136,32.602c-1.348-1.101-3.19-1.32-4.758-0.578c-1.568,0.743-2.558,2.311-2.558,4.043v68.068
		c0,2.447,1.98,4.62,4.455,4.62l84.185,0.742h0.027c1.897,0,3.575-1.348,4.208-3.107
		C168.328,104.63,167.778,102.484,166.321,101.274z M83.786,99.707v-54.18l67.023,54.675L83.786,99.707z"/>
	<g>
		<path d="M58.814,70.252c0-0.908,0.743-1.623,1.623-1.623s1.623,0.743,1.623,1.623v4.317c0.798-1.072,1.897-1.87,3.575-1.87
			c2.695,0,5.253,2.118,5.253,5.94v0.056c0,3.85-2.502,5.94-5.253,5.94c-1.732,0-2.805-0.798-3.575-1.733v0.028
			c0,0.88-0.743,1.622-1.623,1.622c-0.908,0-1.623-0.742-1.623-1.622V70.252z M67.643,78.695v-0.028
			c0-1.897-1.292-3.189-2.805-3.189s-2.805,1.265-2.805,3.189v0.056c0,1.897,1.265,3.19,2.805,3.19
			C66.35,81.885,67.643,80.647,67.643,78.695z"/>
	</g>
	<g>
		<path d="M128.45,53.256c0-0.908,0.742-1.623,1.623-1.623c0.88,0,1.622,0.742,1.622,1.623v4.29
			c0.743-0.963,1.705-1.843,3.383-1.843c2.476,0,3.905,1.623,3.905,4.263v5.94c0,0.908-0.742,1.623-1.622,1.623
			c-0.881,0-1.623-0.743-1.623-1.623v-4.923c0-1.54-0.742-2.338-1.98-2.338c-1.237,0-2.035,0.798-2.035,2.338v4.923
			c0,0.908-0.742,1.623-1.622,1.623s-1.623-0.743-1.623-1.623v-12.65H128.45z"/>
	</g>
	<g>
		<path d="M111.426,120.773v-0.027c0-2.503,1.897-3.686,4.648-3.686c1.155,0,2.008,0.192,2.806,0.468v-0.192
			c0-1.348-0.825-2.118-2.476-2.118c-0.907,0-1.623,0.138-2.255,0.33c-0.192,0.055-0.331,0.083-0.468,0.083
			c-0.742,0-1.348-0.578-1.348-1.32c0-0.578,0.358-1.073,0.88-1.266c1.018-0.385,2.146-0.604,3.686-0.604
			c1.787,0,3.08,0.468,3.878,1.292c0.853,0.853,1.237,2.118,1.237,3.686v5.253c0,0.88-0.715,1.567-1.595,1.567
			c-0.936,0-1.568-0.66-1.568-1.348v-0.027c-0.797,0.88-1.897,1.458-3.492,1.458C113.214,124.294,111.426,123.028,111.426,120.773z
			 M118.907,120.003v-0.577c-0.551-0.247-1.293-0.44-2.091-0.44c-1.402,0-2.255,0.551-2.255,1.596v0.055
			c0,0.88,0.742,1.402,1.788,1.402C117.89,122.038,118.907,121.186,118.907,120.003z"/>
	</g>
</g>
</svg>
