<?xml version="1.0" encoding="utf-8"?>
<!-- Generator: Adobe Illustrator 16.0.4, SVG Export Plug-In . SVG Version: 6.00 Build 0)  -->
<!DOCTYPE svg PUBLIC "-//W3C//DTD SVG 1.1//EN" "http://www.w3.org/Graphics/SVG/1.1/DTD/svg11.dtd">
<svg version="1.1" id="Layer_1" xmlns="http://www.w3.org/2000/svg" xmlns:xlink="http://www.w3.org/1999/xlink" x="0px" y="0px"
	 width="226.77px" height="155.91px" viewBox="0 0 226.77 155.91" enable-background="new 0 0 226.77 155.91" xml:space="preserve">
<path d="M155.914,71.791l-35.548-13.635l13.877-30.272c1.519-3.315,0.062-7.235-3.253-8.753c-3.316-1.523-7.234-0.063-8.756,3.251
	l-14.222,31.036l-32.431-12.44c-3.396-1.305-7.224,0.394-8.529,3.801c-1.308,3.405,0.396,7.224,3.801,8.529l31.647,12.138
	l-16.384,35.749l-15.618,7.061c-3.324,1.503-4.798,5.412-3.297,8.735c1.103,2.441,3.506,3.888,6.022,3.888
	c0.909,0,1.833-0.189,2.716-0.59l1.801-0.814l-3.92,8.555c-1.519,3.314-0.064,7.235,3.25,8.756c0.892,0.409,1.827,0.601,2.747,0.601
	c2.502,0,4.897-1.429,6.006-3.854l10.239-22.34l60.209-27.22c2.43-1.096,3.96-3.546,3.883-6.208
	C160.073,75.101,158.4,72.743,155.914,71.791z M104.438,92.911l10.417-22.728l21.562,8.271L104.438,92.911z"/>
</svg>
