<?xml version="1.0" encoding="utf-8"?>
<!-- Generator: Adobe Illustrator 16.0.0, SVG Export Plug-In . SVG Version: 6.00 Build 0)  -->
<!DOCTYPE svg PUBLIC "-//W3C//DTD SVG 1.1//EN" "http://www.w3.org/Graphics/SVG/1.1/DTD/svg11.dtd">
<svg version="1.1" id="Layer_1" xmlns="http://www.w3.org/2000/svg" xmlns:xlink="http://www.w3.org/1999/xlink" x="0px" y="0px"
	 width="96px" height="96px" viewBox="0 0 96 96" enable-background="new 0 0 96 96" xml:space="preserve">
<g>
	<path d="M43.166,55.815c-0.004,2.218,2.188,2.88,4.794,2.886c2.598,0.004,4.793-0.651,4.797-2.868
		c0.003-2.061-1.729-5.176-4.777-8.561C44.919,50.643,43.169,53.754,43.166,55.815z"/>
	<path d="M90.783,0.441L5.345,0.343C2.606,0.337,0.384,2.546,0.378,5.279l-0.098,85.4c-0.005,2.75,2.209,4.974,4.948,4.978
		l85.439-0.012c2.719,0.005,4.946-2.21,4.952-4.961l0.1-85.29C95.725,2.662,93.503,0.446,90.783,0.441z M71.803,68.481
		l-11.716-3.363c8.892-12.299,12.594-23.438,8.836-27.198c-3.253-3.271-11.521,0.962-17.896,6.688
		c3.38,3.55,8.046,9.271,8.039,13.949c-0.008,3.969-3.252,6.593-11.119,6.578c-7.859-0.014-11.101-2.65-11.094-6.619
		c0.008-4.68,4.696-10.382,8.101-13.919c-6.366-5.748-14.618-10.01-17.876-6.751c-3.771,3.746-0.116,14.897,8.744,27.23
		l-11.728,3.319c-9.87-17.717-11.937-35.128-5.063-39.813c5.369-3.634,18.822,3.741,28.959,13.085
		c10.166-9.305,23.656-16.636,29.007-12.98C83.847,33.396,81.735,50.798,71.803,68.481z"/>
</g>
</svg>
