<?xml version="1.0" encoding="utf-8"?>
<!-- Generator: Adobe Illustrator 16.0.4, SVG Export Plug-In . SVG Version: 6.00 Build 0)  -->
<!DOCTYPE svg PUBLIC "-//W3C//DTD SVG 1.1//EN" "http://www.w3.org/Graphics/SVG/1.1/DTD/svg11.dtd">
<svg version="1.1" id="Layer_1" xmlns="http://www.w3.org/2000/svg" xmlns:xlink="http://www.w3.org/1999/xlink" x="0px" y="0px"
	 width="50px" height="50px" viewBox="0 0 50 50" enable-background="new 0 0 50 50" xml:space="preserve">
<path d="M32.475,32.854c0,0.276-0.225,0.5-0.5,0.5h-2.266c0.012,0.041,0.025,0.082,0.025,0.125c0,0.276-0.225,0.5-0.5,0.5H18.088
	c-0.276,0-0.5-0.224-0.5-0.5c0-0.043,0.015-0.084,0.025-0.125h-2.265c-0.276,0-0.5-0.224-0.5-0.5c0-0.275,0.224-0.5,0.5-0.5h16.625
	C32.25,32.354,32.475,32.578,32.475,32.854z M35.151,26.021c0,2.162-1.532,3.613-3.812,3.613c-0.408,0-0.803-0.066-1.188-0.165
	c-0.36,0.896-0.905,1.714-1.624,2.409c-0.093,0.091-0.218,0.141-0.348,0.141h-9.037c-0.13,0-0.254-0.05-0.348-0.141
	c-1.099-1.064-1.795-2.419-2.035-3.893c-0.065-0.084-0.11-0.186-0.11-0.301c0-0.07,0.016-0.138,0.042-0.199
	c-0.019-0.209-0.032-0.42-0.032-0.633V26.24c-0.002-0.018-0.011-0.034-0.011-0.053c0-0.02,0.009-0.035,0.011-0.054v-5.113
	c0-0.276,0.224-0.5,0.5-0.5h13c0.275,0,0.5,0.224,0.5,0.5v1.103c0.223-0.032,0.449-0.051,0.678-0.051
	C33.842,22.073,35.151,24.059,35.151,26.021z M17.693,27.188h11.938c0.006-0.111,0.031-0.22,0.031-0.332v-0.168
	c-0.004,0-0.007,0.002-0.011,0.002H17.663v0.166C17.662,26.967,17.688,27.075,17.693,27.188z M17.662,21.521v4.167H29.65
	c0.004,0,0.008,0.002,0.012,0.002v-4.167L17.662,21.521L17.662,21.521z M29.498,28.188H17.826c0.24,1.059,0.751,2.035,1.525,2.834
	h8.623C28.746,30.223,29.258,29.245,29.498,28.188z M34.151,26.021c0-1.465-0.966-2.948-2.812-2.948
	c-0.229,0-0.457,0.027-0.68,0.067v3.713c0,0.57-0.076,1.127-0.207,1.666c0.289,0.068,0.582,0.116,0.887,0.116
	C33.074,28.635,34.151,27.633,34.151,26.021z M18.984,19.854c0.276,0,0.5-0.224,0.5-0.5v-2.833c0-0.276-0.224-0.5-0.5-0.5
	s-0.5,0.224-0.5,0.5v2.833C18.484,19.63,18.708,19.854,18.984,19.854z M22.042,19.854c0.276,0,0.5-0.224,0.5-0.5v-2.833
	c0-0.276-0.224-0.5-0.5-0.5s-0.5,0.224-0.5,0.5v2.833C21.542,19.63,21.766,19.854,22.042,19.854z M25.098,19.854
	c0.276,0,0.5-0.224,0.5-0.5v-2.833c0-0.276-0.224-0.5-0.5-0.5c-0.276,0-0.5,0.224-0.5,0.5v2.833
	C24.598,19.63,24.82,19.854,25.098,19.854z M28.153,19.854c0.276,0,0.5-0.224,0.5-0.5v-2.833c0-0.276-0.224-0.5-0.5-0.5
	s-0.5,0.224-0.5,0.5v2.833C27.653,19.63,27.877,19.854,28.153,19.854z"/>
</svg>
