<?xml version="1.0" encoding="iso-8859-1"?>
<!-- Generator: Adobe Illustrator 17.0.0, SVG Export Plug-In . SVG Version: 6.00 Build 0)  -->
<!DOCTYPE svg PUBLIC "-//W3C//DTD SVG 1.1//EN" "http://www.w3.org/Graphics/SVG/1.1/DTD/svg11.dtd">
<svg version="1.1" id="Capa_1" xmlns="http://www.w3.org/2000/svg" xmlns:xlink="http://www.w3.org/1999/xlink" x="0px" y="0px"
	 width="64px" height="64px" viewBox="0 0 64 64" style="enable-background:new 0 0 64 64;" xml:space="preserve">
<g>
	<path d="M26.046,40.766l0.465-2.374c0.901-4.604,3.258-10.874,9.369-14.596l2.354-1.433l-14.468-8.85
		c-1.732-1.061-3.719-1.622-5.745-1.622c-3.877,0-7.398,1.972-9.419,5.274c-3.172,5.188-1.533,11.99,3.654,15.164L26.046,40.766z
		 M11.473,18.921c1.403-2.295,3.852-3.666,6.548-3.666c1.405,0,2.785,0.39,3.991,1.126l9.927,6.074
		c-4.778,3.808-7.077,9.003-8.18,12.968L14.01,29.46C10.405,27.254,9.267,22.526,11.473,18.921z"/>
	<path d="M53.687,32.34l-12.934-7.913l-0.238,0.102c-1.507,0.645-2.804,1.45-3.948,2.345l12.455,7.605
		c0.471,0.288,0.62,0.903,0.332,1.375c-0.189,0.309-0.518,0.479-0.854,0.479c-0.178,0-0.357-0.047-0.521-0.146L35.486,28.56
		c-0.172-0.105-0.284-0.262-0.365-0.432c-4.568,4.46-5.844,10.539-6.193,13.449l-0.039,0.319l13.792,8.436
		c1.658,1.015,3.558,1.551,5.493,1.551c3.708,0,7.074-1.886,9.006-5.044C60.214,41.879,58.646,35.375,53.687,32.34z"/>
</g>
</svg>
