<?xml version="1.0" encoding="utf-8"?>
<!-- Generator: Adobe Illustrator 16.0.0, SVG Export Plug-In . SVG Version: 6.00 Build 0)  -->
<!DOCTYPE svg PUBLIC "-//W3C//DTD SVG 1.1//EN" "http://www.w3.org/Graphics/SVG/1.1/DTD/svg11.dtd">
<svg version="1.1" id="Layer_1" xmlns="http://www.w3.org/2000/svg" xmlns:xlink="http://www.w3.org/1999/xlink" x="0px" y="0px"
	 width="96px" height="96px" viewBox="0 0 96 96" enable-background="new 0 0 96 96" xml:space="preserve">
<g>
	<path d="M91.799,17.847L78.154,4.202c-3.707-3.707-9.716-3.707-13.423,0L4.201,64.731c-3.705,3.707-3.706,9.715,0,13.422
		l13.645,13.645c3.707,3.707,9.716,3.707,13.423,0l60.53-60.529C95.504,27.562,95.505,21.554,91.799,17.847z M59.19,54.706
		c-0.157-0.66-0.481-1.287-0.995-1.802c-1.482-1.482-3.887-1.482-5.368,0c-1.483,1.482-1.483,3.887,0,5.368
		c0.513,0.516,1.142,0.839,1.801,0.996l-9.666,9.666c-0.157-0.66-0.481-1.287-0.995-1.802c-0.966-0.966-2.319-1.29-3.558-0.998
		l-5.511-5.511c0.292-1.238-0.033-2.592-0.998-3.558c-0.966-0.965-2.32-1.29-3.559-0.999l-4.152-4.152l3.045-3.045
		c0.156,0.659,0.48,1.287,0.995,1.801c1.481,1.482,3.886,1.482,5.368,0s1.482-3.886,0-5.368c-0.515-0.515-1.143-0.838-1.802-0.995
		l9.981-9.982c0.158,0.66,0.482,1.287,0.995,1.802c1.483,1.482,3.888,1.482,5.369,0c1.483-1.482,1.483-3.886,0-5.368
		C49.627,30.244,49,29.92,48.34,29.763l3.575-3.573l3.765,3.766c-1.298,1.491-1.253,3.746,0.167,5.165
		c1.419,1.42,3.674,1.465,5.166,0.167l4.734,4.733c-1.298,1.492-1.255,3.746,0.165,5.166c0.515,0.516,1.144,0.838,1.803,0.996
		L59.19,54.706z"/>
	<circle cx="57.524" cy="43.51" r="3.796"/>
	<circle cx="42.979" cy="58.053" r="3.796"/>
	<circle cx="45.444" cy="45.522" r="3.796"/>
</g>
</svg>
