<?xml version="1.0" encoding="utf-8"?>
<!-- Generator: Adobe Illustrator 16.0.4, SVG Export Plug-In . SVG Version: 6.00 Build 0)  -->
<!DOCTYPE svg PUBLIC "-//W3C//DTD SVG 1.1//EN" "http://www.w3.org/Graphics/SVG/1.1/DTD/svg11.dtd">
<svg version="1.1" id="Layer_1" xmlns="http://www.w3.org/2000/svg" xmlns:xlink="http://www.w3.org/1999/xlink" x="0px" y="0px"
	 width="50px" height="50px" viewBox="0 0 50 50" enable-background="new 0 0 50 50" xml:space="preserve">
<path d="M29.15,18.684c-0.195-0.192-0.199-0.506-0.006-0.701c0.191-0.196,0.506-0.199,0.701-0.008
	c0.193,0.191,0.197,0.506,0.006,0.7C29.658,18.872,29.346,18.875,29.15,18.684z M30.941,19.745c0.189-0.195,0.188-0.51-0.008-0.701
	s-0.51-0.188-0.701,0.007s-0.189,0.509,0.006,0.7C30.436,19.942,30.75,19.938,30.941,19.745z M32.029,20.813
	c0.193-0.194,0.189-0.51-0.006-0.701s-0.51-0.189-0.701,0.007c-0.193,0.194-0.189,0.509,0.006,0.7
	C31.523,21.012,31.838,21.009,32.029,20.813z M27.203,19.922c-0.189,0.195-0.188,0.51,0.006,0.7
	c0.197,0.192,0.512,0.188,0.701-0.006c0.193-0.195,0.189-0.509-0.006-0.701C27.709,19.725,27.396,19.727,27.203,19.922z
	 M28.293,20.991c-0.191,0.195-0.189,0.509,0.006,0.701c0.197,0.191,0.512,0.188,0.701-0.008c0.193-0.193,0.189-0.509-0.006-0.699
	C28.797,20.792,28.484,20.795,28.293,20.991z M30.09,22.754c0.191-0.193,0.189-0.509-0.006-0.701
	c-0.195-0.19-0.51-0.188-0.703,0.008c-0.189,0.194-0.188,0.508,0.01,0.701C29.584,22.954,29.898,22.951,30.09,22.754z
	 M29.402,20.206c0.193-0.193,0.193-0.507,0-0.701c-0.195-0.193-0.508-0.193-0.703,0c-0.193,0.194-0.193,0.508,0.002,0.701
	S29.207,20.399,29.402,20.206z M29.779,20.583c-0.193,0.194-0.193,0.507,0,0.7s0.506,0.195,0.701,0.001
	c0.193-0.194,0.193-0.509,0-0.702S29.975,20.389,29.779,20.583z M19.882,27.244c-0.191,0.194-0.188,0.509,0.008,0.7
	c0.193,0.191,0.508,0.188,0.699-0.008c0.192-0.195,0.189-0.508-0.006-0.701C20.388,27.045,20.075,27.048,19.882,27.244z
	 M21.681,29.007c0.19-0.195,0.188-0.509-0.009-0.701c-0.196-0.191-0.51-0.188-0.7,0.008c-0.191,0.193-0.189,0.508,0.006,0.699
	C21.173,29.205,21.488,29.201,21.681,29.007z M22.769,30.075c0.191-0.195,0.188-0.51-0.006-0.701
	c-0.197-0.191-0.511-0.189-0.703,0.006c-0.191,0.196-0.188,0.51,0.008,0.702C22.263,30.274,22.577,30.271,22.769,30.075z
	 M17.941,29.185c-0.19,0.194-0.188,0.51,0.007,0.7c0.196,0.192,0.51,0.189,0.7-0.006c0.192-0.194,0.189-0.509-0.006-0.702
	C18.448,28.985,18.134,28.988,17.941,29.185z M19.031,30.252c-0.191,0.195-0.189,0.511,0.007,0.702s0.511,0.188,0.702-0.007
	c0.191-0.195,0.188-0.509-0.008-0.7C19.537,30.054,19.224,30.058,19.031,30.252z M20.12,31.322c-0.19,0.194-0.188,0.508,0.008,0.7
	c0.195,0.192,0.511,0.188,0.701-0.006s0.188-0.51-0.007-0.703C20.625,31.124,20.312,31.127,20.12,31.322z M20.14,29.468
	c0.193-0.193,0.193-0.508,0-0.701s-0.508-0.193-0.701,0s-0.193,0.508,0,0.7C19.633,29.661,19.945,29.662,20.14,29.468z
	 M20.519,29.847c-0.194,0.192-0.193,0.506,0,0.699c0.192,0.194,0.506,0.194,0.699,0.001c0.194-0.194,0.194-0.508,0-0.702
	C21.025,29.651,20.711,29.651,20.519,29.847z M33.836,28.052c0.477,0.475,0.73,1.114,0.713,1.801
	c-0.016,0.676-0.293,1.315-0.779,1.805l-2.102,2.1c-0.504,0.504-1.168,0.781-1.865,0.781c-0.662,0-1.279-0.253-1.738-0.712
	L25,30.763l-3.064,3.062c-0.459,0.46-1.076,0.713-1.737,0.713c-0.699,0-1.361-0.277-1.866-0.781l-2.1-2.101
	c-1.014-1.013-1.045-2.63-0.069-3.604l3.063-3.063l-3.063-3.064c-0.976-0.976-0.942-2.593,0.069-3.604l2.1-2.102
	c0.982-0.979,2.66-1.015,3.604-0.068L25,19.215l3.065-3.064c0.945-0.946,2.625-0.911,3.604,0.068l2.102,2.1
	c0.486,0.488,0.764,1.13,0.779,1.806c0.018,0.687-0.236,1.324-0.713,1.8l-3.062,3.065L33.836,28.052z M25.705,19.92l4.359,4.359
	l3.064-3.065c0.279-0.28,0.43-0.659,0.42-1.069c-0.01-0.418-0.184-0.815-0.488-1.121l-2.102-2.1
	c-0.314-0.314-0.727-0.488-1.156-0.488c-0.396,0-0.764,0.148-1.033,0.42L25.705,19.92z M27.615,23.36l-0.99-0.99
	c-0.477-0.477-1.094-0.762-1.653-0.762c-0.246,0-0.599,0.059-0.869,0.328l-2.153,2.153c-0.261,0.261-0.371,0.652-0.312,1.104
	c0.067,0.5,0.332,1.005,0.744,1.417l0.989,0.99c0.478,0.477,1.095,0.76,1.653,0.76c0.248,0,0.6-0.057,0.87-0.325l2.152-2.154
	C28.613,25.315,28.416,24.161,27.615,23.36z M25.023,20.653l-0.024-0.025l-0.024,0.023C24.99,20.651,25.007,20.653,25.023,20.653z
	 M29.357,24.987l-0.002-0.002v0.002H29.357z M19.933,24.28l4.358-4.359l-3.063-3.064c-0.271-0.271-0.638-0.42-1.031-0.42
	c-0.434,0-0.844,0.174-1.159,0.488l-2.101,2.102c-0.623,0.621-0.653,1.604-0.068,2.189L19.933,24.28z M24.292,30.054l-4.358-4.359
	l-3.064,3.063c-0.584,0.585-0.555,1.567,0.068,2.19l2.101,2.101c0.603,0.601,1.622,0.638,2.19,0.068L24.292,30.054z M33.549,29.828
	c0.012-0.409-0.139-0.789-0.42-1.069l-3.062-3.064l-4.359,4.359l3.064,3.064c0.562,0.564,1.584,0.533,2.189-0.069l2.102-2.1
	C33.365,30.646,33.539,30.246,33.549,29.828z M17.986,20.141c-0.19,0.194-0.188,0.508,0.009,0.7c0.194,0.192,0.509,0.188,0.7-0.006
	s0.188-0.509-0.008-0.701C18.493,19.942,18.179,19.944,17.986,20.141z M19.763,19.747c0.192-0.196,0.188-0.512-0.006-0.703
	c-0.195-0.189-0.509-0.188-0.701,0.008c-0.191,0.196-0.188,0.51,0.008,0.701C19.257,19.944,19.572,19.942,19.763,19.747z
	 M20.833,18.657c0.192-0.195,0.188-0.51-0.006-0.701c-0.195-0.191-0.511-0.189-0.702,0.006c-0.191,0.196-0.189,0.51,0.007,0.702
	C20.327,18.856,20.64,18.852,20.833,18.657z M19.929,22.081c-0.191,0.195-0.188,0.509,0.006,0.701
	c0.195,0.191,0.51,0.188,0.701-0.006c0.191-0.196,0.188-0.51-0.007-0.701C20.435,21.882,20.121,21.885,19.929,22.081z
	 M20.998,20.991c-0.193,0.197-0.189,0.51,0.006,0.701s0.51,0.189,0.701-0.006c0.191-0.196,0.188-0.512-0.007-0.701
	C21.503,20.792,21.189,20.795,20.998,20.991z M22.767,19.895c-0.193-0.191-0.509-0.189-0.701,0.006
	c-0.19,0.197-0.188,0.511,0.008,0.703c0.195,0.19,0.508,0.188,0.701-0.008C22.966,20.401,22.963,20.086,22.767,19.895z
	 M20.218,21.285c0.193-0.194,0.194-0.507,0-0.701c-0.193-0.192-0.507-0.192-0.701,0c-0.193,0.194-0.193,0.508,0,0.702
	C19.711,21.479,20.023,21.479,20.218,21.285z M20.595,19.505c-0.193,0.193-0.193,0.507,0.002,0.701c0.193,0.192,0.506,0.192,0.699,0
	c0.194-0.194,0.195-0.507,0.001-0.701S20.79,19.311,20.595,19.505z M27.248,29.401c-0.189,0.195-0.188,0.51,0.008,0.701
	c0.195,0.192,0.51,0.188,0.701-0.006c0.191-0.195,0.188-0.509-0.008-0.701C27.754,29.204,27.441,29.207,27.248,29.401z
	 M29.025,29.009c0.191-0.195,0.188-0.511-0.006-0.703c-0.195-0.19-0.51-0.188-0.701,0.008c-0.193,0.196-0.189,0.511,0.006,0.701
	C28.52,29.206,28.832,29.204,29.025,29.009z M30.096,27.919c0.191-0.195,0.188-0.51-0.008-0.701s-0.51-0.188-0.701,0.006
	c-0.191,0.196-0.189,0.51,0.006,0.703C29.588,28.118,29.902,28.115,30.096,27.919z M29.189,31.343
	c-0.191,0.195-0.189,0.51,0.006,0.701s0.51,0.188,0.701-0.006c0.191-0.196,0.189-0.51-0.006-0.701S29.383,31.147,29.189,31.343z
	 M30.26,30.253c-0.193,0.196-0.189,0.51,0.006,0.702c0.193,0.19,0.51,0.188,0.701-0.007c0.191-0.196,0.188-0.512-0.008-0.702
	C30.766,30.056,30.451,30.058,30.26,30.253z M31.326,29.164c-0.189,0.196-0.188,0.51,0.008,0.702
	c0.195,0.191,0.508,0.188,0.701-0.008s0.189-0.51-0.006-0.701S31.521,28.968,31.326,29.164z M29.479,30.547
	c0.193-0.194,0.195-0.507,0.002-0.7c-0.195-0.193-0.508-0.193-0.701,0c-0.195,0.193-0.195,0.508,0,0.701
	C28.973,30.741,29.285,30.741,29.479,30.547z M29.857,28.769c-0.193,0.192-0.193,0.506,0,0.699c0.193,0.194,0.508,0.193,0.701,0
	s0.193-0.506,0-0.699C30.365,28.573,30.051,28.573,29.857,28.769z"/>
</svg>
