<?xml version="1.0" encoding="utf-8"?>
<!-- Generator: Adobe Illustrator 16.0.4, SVG Export Plug-In . SVG Version: 6.00 Build 0)  -->
<!DOCTYPE svg PUBLIC "-//W3C//DTD SVG 1.1//EN" "http://www.w3.org/Graphics/SVG/1.1/DTD/svg11.dtd">
<svg version="1.1" id="Layer_1" xmlns="http://www.w3.org/2000/svg" xmlns:xlink="http://www.w3.org/1999/xlink" x="0px" y="0px"
	 width="226.77px" height="155.91px" viewBox="0 0 226.77 155.91" enable-background="new 0 0 226.77 155.91" xml:space="preserve">
<g>
	<path d="M69.459,121.02c1.425,1.428,3.299,2.141,5.167,2.141c1.869,0,3.742-0.713,5.167-2.141l33.591-33.592l33.591,33.592
		c1.426,1.428,3.299,2.141,5.167,2.141s3.741-0.713,5.167-2.141c2.855-2.854,2.855-7.481,0-10.334l-33.592-33.591l31.869-31.869
		c2.855-2.853,2.855-7.481,0-10.334c-2.853-2.855-7.48-2.855-10.334,0L113.384,66.76L81.516,34.891
		c-2.853-2.855-7.481-2.855-10.333,0c-2.855,2.853-2.855,7.481,0,10.334l31.869,31.869l-33.591,33.591
		C66.604,113.538,66.604,118.164,69.459,121.02z"/>
</g>
</svg>
