<?xml version="1.0" encoding="utf-8"?>
<!-- Generator: Adobe Illustrator 17.0.0, SVG Export Plug-In . SVG Version: 6.00 Build 0)  -->
<!DOCTYPE svg PUBLIC "-//W3C//DTD SVG 1.1//EN" "http://www.w3.org/Graphics/SVG/1.1/DTD/svg11.dtd">
<svg version="1.1" id="Capa_1" xmlns="http://www.w3.org/2000/svg" xmlns:xlink="http://www.w3.org/1999/xlink" x="0px" y="0px"
	 width="14.053px" height="23.669px" viewBox="0 0 14.053 23.669" enable-background="new 0 0 14.053 23.669" xml:space="preserve">
<path d="M11.658,13.133v-1.269c1.113-0.842,1.962-1.978,2.395-3.288h-2.396V7.309c1.114-0.845,1.963-1.98,2.396-3.289h-2.396V3.142
	C11.657,1.407,10.251,0,8.517,0h-2.98C3.803,0,2.396,1.406,2.396,3.142V4.02H0c0.434,1.309,1.28,2.444,2.396,3.289v1.267H0
	c0.434,1.31,1.28,2.445,2.396,3.29v1.267H0c0.434,1.308,1.28,2.445,2.396,3.29v2.605c0,1.734,1.406,3.142,3.141,3.142h0.499v1.499
	h1.982V22.17h0.499c1.733,0,3.141-1.407,3.141-3.142v-2.605c1.114-0.845,1.963-1.982,2.396-3.29H11.658z M7.025,19.749
	c-1.271,0-2.304-1.033-2.304-2.304c0-1.273,1.032-2.307,2.304-2.307c1.273,0,2.306,1.033,2.306,2.307
	C9.331,18.716,8.3,19.749,7.025,19.749z M7.025,13.39c-1.271,0-2.304-1.031-2.304-2.304c0-1.273,1.033-2.306,2.304-2.306
	c1.273,0,2.306,1.032,2.306,2.306C9.331,12.359,8.3,13.39,7.025,13.39z M7.025,7.028c-1.271,0-2.304-1.029-2.304-2.304
	c0-1.271,1.032-2.303,2.304-2.303c1.273,0,2.306,1.031,2.306,2.303C9.331,5.999,8.3,7.028,7.025,7.028z"/>
</svg>
