<?xml version="1.0" encoding="utf-8"?>
<!-- Generator: Adobe Illustrator 16.0.4, SVG Export Plug-In . SVG Version: 6.00 Build 0)  -->
<!DOCTYPE svg PUBLIC "-//W3C//DTD SVG 1.1//EN" "http://www.w3.org/Graphics/SVG/1.1/DTD/svg11.dtd">
<svg version="1.1" id="Layer_1" xmlns="http://www.w3.org/2000/svg" xmlns:xlink="http://www.w3.org/1999/xlink" x="0px" y="0px"
	 width="226.77px" height="155.91px" viewBox="0 0 226.77 155.91" enable-background="new 0 0 226.77 155.91" xml:space="preserve">
<path d="M153.771,119.428h-8.718V36.482h8.718c3.631,0,6.546-2.943,6.546-6.546c0-3.63-2.942-6.545-6.546-6.545H72.998
	c-3.63,0-6.545,2.943-6.545,6.545c0,3.63,2.943,6.546,6.545,6.546h8.718v82.946h-8.718c-3.63,0-6.545,2.943-6.545,6.547
	c0,3.629,2.943,6.545,6.545,6.545h30.583c3.63,0,6.546-2.943,6.546-6.545c0-3.631-2.943-6.547-6.546-6.547h-8.718V36.482h37.101
	v82.946h-8.746c-3.631,0-6.545,2.943-6.545,6.547c0,3.629,2.941,6.545,6.545,6.545h30.555c3.631,0,6.546-2.943,6.546-6.545
	C160.317,122.371,157.402,119.428,153.771,119.428z"/>
</svg>
