<?xml version="1.0" encoding="utf-8"?>
<!-- Generator: Adobe Illustrator 16.0.0, SVG Export Plug-In . SVG Version: 6.00 Build 0)  -->
<!DOCTYPE svg PUBLIC "-//W3C//DTD SVG 1.1//EN" "http://www.w3.org/Graphics/SVG/1.1/DTD/svg11.dtd">
<svg version="1.1" id="Layer_1" xmlns="http://www.w3.org/2000/svg" xmlns:xlink="http://www.w3.org/1999/xlink" x="0px" y="0px"
	 width="96px" height="96px" viewBox="0 0 96 96" enable-background="new 0 0 96 96" xml:space="preserve">
<path fill-rule="evenodd" clip-rule="evenodd" d="M80.595,51.383c-4.63,1.557-8.454,0.78-10.534-2.219
	c-2.609-3.765-1.871-7.518,0.858-10.687c4.052-4.705,8.4-9.166,12.764-13.592c2.774-2.812,7.883-7.396,10.797-10.07l-30.822,8.229
	c-4.391,1.022-7.961-1.082-9.799-5.004c-1.627-3.474-0.697-7.629,2.182-10.442c0.764-0.748,1.876-1.229,2.741-2.159
	C50.652,0.853,43.415,0.282,35.615,5.09c0.561,0.705,0.893,1.141,1.243,1.562c3.859,4.627,4.745,8.411,2.475,12.039
	c-2.655,4.244-5.864,5.247-12.356,3.712c-4.837-1.143-9.646-2.397-14.465-3.614C8.845,17.861,5.184,16.917,1.52,15.98l20.127,21.096
	c2.696,2.834,2.627,6.307,0.868,9.635c-1.867,3.528-4.942,5.131-8.931,4.699c-1.737-0.188-3.444-0.638-5.19-0.976
	c-0.357,8.474,4.44,16.577,12.154,20.419c0.314-1.218,0.558-2.151,0.796-3.086c1.758-6.91,7.044-9.39,13.063-5.542
	c2.333,1.491,4.447,4.259,5.338,6.892c2.718,8.025,4.792,16.267,7.322,25.149c0.525-1.767,0.852-2.799,1.14-3.844
	c2.202-7.979,4.304-15.989,6.631-23.933c1.117-3.81,3.863-6.008,7.921-6.176c4.352-0.182,7.409,1.852,9.119,5.84
	c0.593,1.385,1.02,3.05,1.526,4.486c7.178-3.438,12.739-13.352,11.866-20.946C83.692,50.267,82.155,50.858,80.595,51.383z
	 M47.174,62.521c-4.196-12.426-8.568-21.363-18.898-30.57c12.457,0,24.227,0,36.738,0C55.73,41.532,50.408,49.776,47.174,62.521z"/>
</svg>
