<?xml version="1.0" encoding="utf-8"?>
<!-- Generator: Adobe Illustrator 17.1.0, SVG Export Plug-In . SVG Version: 6.00 Build 0)  -->
<!DOCTYPE svg PUBLIC "-//W3C//DTD SVG 1.1//EN" "http://www.w3.org/Graphics/SVG/1.1/DTD/svg11.dtd">
<svg version="1.1" xmlns="http://www.w3.org/2000/svg" xmlns:xlink="http://www.w3.org/1999/xlink" x="0px" y="0px"
	 viewBox="0 0 64 64" enable-background="new 0 0 64 64" xml:space="preserve">
<g id="Imagenes">
</g>
<g id="Layer_2">
	<path d="M15.535,17.267c-0.26-2.662-2.201-4.65-4.335-4.442c-2.134,0.209-3.652,2.536-3.392,5.198
		c0.165,1.684,1.004,3.093,2.136,3.853c-0.41,0.254-0.793,0.549-1.107,0.932c-1.882,2.303-1.079,6.073,1.794,8.42
		c1.114,0.91,2.374,1.463,3.61,1.677c-0.027,1.035,0.103,2.115,0.419,3.196c1.08,3.695,3.94,6.252,6.931,6.518
		c-0.53,1.203-0.835,2.544-0.835,3.964c0,2.955,1.288,5.582,3.287,7.281c-0.235,0.741-0.368,1.532-0.368,2.359
		c0,4.037,3.039,7.309,6.787,7.309s6.787-3.272,6.787-7.309c0-1.457-0.401-2.812-1.083-3.952c1.136-1.572,1.819-3.542,1.819-5.688
		c0-0.587-0.056-1.16-0.153-1.717c3.13-0.365,5.898-3.312,6.586-7.276c1.789,0.707,3.18,0.721,4.819-0.122
		c2.379-1.223,3.625-3.76,2.644-5.667c-0.98-1.907-3.647-2.461-6.026-1.237c-0.745,0.383-1.504,0.903-2.007,1.485
		c-0.368-0.883-0.86-1.672-1.467-2.321c1.583-0.977,2.814-2.837,3.17-5.108c0.069-0.44,0.1-0.875,0.1-1.301
		c2.062,0.364,4.498-0.531,6.253-2.515c2.388-2.7,2.612-6.396,0.582-8.412c1.35-0.404,2.594-1.571,3.205-3.221
		c0.929-2.508,0.053-5.145-1.958-5.89s-4.393,0.685-5.322,3.193c-0.625,1.688-0.418,3.42,0.388,4.609
		c-1.73,0.114-3.563,1.005-4.961,2.586c-0.986,1.114-1.588,2.399-1.834,3.668c-0.236-0.081-0.478-0.149-0.73-0.188
		c-2.938-0.461-5.786,2.136-6.362,5.801c-0.313,1.991,0.114,3.883,1.036,5.275c-2.52,0.997-4.577,3.666-5.11,7.059
		c-0.115,0.732-0.144,1.451-0.111,2.15c-0.443-0.076-0.894-0.126-1.357-0.126c-0.454,0-0.897,0.049-1.332,0.122
		c0.391-1.588,0.374-3.388-0.153-5.192c-0.45-1.54-1.214-2.876-2.164-3.938c2.756,0.022,5.236-2.564,5.666-6.036
		c0.275-2.226-0.359-4.301-1.554-5.678c1.163-0.152,2.364-0.769,3.298-1.825c1.772-2.003,1.907-4.779,0.301-6.199
		c-0.519-0.459-1.162-0.701-1.848-0.776c0.278-0.758,0.408-1.617,0.32-2.523c-0.26-2.662-2.201-4.65-4.335-4.442
		c-2.134,0.209-3.652,2.536-3.392,5.198c0.192,1.958,1.295,3.543,2.713,4.166c-1.072,1.545-1.269,3.379-0.562,4.719
		c-2.742,0.001-5.202,2.582-5.629,6.038c-0.227,1.831,0.161,3.563,0.97,4.886c-0.66-0.14-1.333-0.166-2.002-0.074
		c-0.472-1.046-1.217-2.042-2.222-2.864c-0.972-0.794-2.057-1.302-3.139-1.566C15.193,20.353,15.693,18.875,15.535,17.267z"/>
</g>
</svg>
