<?xml version="1.0" encoding="utf-8"?>
<!-- Generator: Adobe Illustrator 16.0.0, SVG Export Plug-In . SVG Version: 6.00 Build 0)  -->
<!DOCTYPE svg PUBLIC "-//W3C//DTD SVG 1.1//EN" "http://www.w3.org/Graphics/SVG/1.1/DTD/svg11.dtd">
<svg version="1.1" id="Layer_2" xmlns="http://www.w3.org/2000/svg" xmlns:xlink="http://www.w3.org/1999/xlink" x="0px" y="0px"
	 width="96px" height="96px" viewBox="0 0 96 96" enable-background="new 0 0 96 96" xml:space="preserve">
<path d="M95.121,31.679H73.683c0,0-4.415-0.366-8.224,1.589l7.172-13.302H50.396c0,0-8.38-0.684-13.042,7.954
	c-4.661,8.637-9.835,17.501-10.69,19.028c-0.855,1.526-2.352,3.635-5.216,3.849l-6.769-0.003c0,0-3.737,0.319-3.423-4.813
	L0.879,64.322h21.438c0,0,4.415,0.365,8.224-1.589l-7.172,13.301h22.236c0,0,8.381,0.685,13.042-7.953
	c4.66-8.637,9.575-17.082,10.69-19.029c1.114-1.946,2.352-3.633,5.217-3.847l6.768,0.003c0,0,3.737-0.319,3.423,4.813L95.121,31.679
	z M62.281,35.783c0,0-2.737,3.478-3.707,5.302c-0.968,1.825-9.549,16.947-9.549,16.947s-1.582,4.019-6.029,4.362H31.92h-0.764
	c0.937-0.557,1.817-1.267,2.563-2.178c0,0,2.736-3.478,3.706-5.303c0.968-1.824,9.549-16.946,9.549-16.946s1.582-4.02,6.03-4.361
	H64.08h0.765C63.908,34.162,63.026,34.874,62.281,35.783z"/>
</svg>
