<?xml version="1.0" encoding="utf-8"?>
<!-- Generator: Adobe Illustrator 16.0.0, SVG Export Plug-In . SVG Version: 6.00 Build 0)  -->
<!DOCTYPE svg PUBLIC "-//W3C//DTD SVG 1.1//EN" "http://www.w3.org/Graphics/SVG/1.1/DTD/svg11.dtd">
<svg version="1.1" id="Layer_1" xmlns="http://www.w3.org/2000/svg" xmlns:xlink="http://www.w3.org/1999/xlink" x="0px" y="0px"
	 width="96px" height="96px" viewBox="0 0 96 96" enable-background="new 0 0 96 96" xml:space="preserve">
<g>
	<path d="M2.426,27.19c0.594-0.027,1.189-0.044,1.784-0.037c0.252,0.002,0.323-0.075,0.325-0.326
		c0.025-2.167,0.064-4.336,0.101-6.504c0-0.058,0.01-0.114,0.022-0.245c0.044,0.131,0.065,0.186,0.078,0.242
		c0.492,2.201,0.986,4.4,1.472,6.602c0.039,0.169,0.083,0.273,0.288,0.267c0.563-0.022,1.129-0.037,1.692-0.038
		c0.201,0,0.284-0.07,0.325-0.265c0.299-1.448,0.603-2.896,0.911-4.342c0.181-0.84,0.372-1.677,0.559-2.516
		c0.027,0.003,0.053,0.006,0.078,0.007c0,1.047-0.005,2.096,0.002,3.142c0.011,1.23,0.032,2.462,0.047,3.69
		c0.003,0.167-0.015,0.33,0.237,0.323c0.828-0.021,1.652-0.032,2.48-0.041c0.168-0.003,0.242-0.063,0.226-0.234
		c-0.022-0.23-0.042-0.462-0.055-0.694c-0.139-3.021-0.279-6.042-0.411-9.064c-0.01-0.237-0.081-0.313-0.318-0.307
		c-1.079,0.024-2.159,0.037-3.236,0.039c-0.226,0-0.297,0.096-0.333,0.29c-0.181,0.938-0.367,1.878-0.556,2.814
		c-0.157,0.768-0.32,1.534-0.497,2.377c-0.029-0.117-0.042-0.155-0.05-0.193c-0.381-1.679-0.763-3.355-1.138-5.034
		c-0.044-0.194-0.105-0.297-0.333-0.292c-1.119,0.023-2.237,0.034-3.356,0.04c-0.19,0.002-0.262,0.056-0.27,0.257
		c-0.127,3.244-0.263,6.488-0.401,9.731C2.087,27.146,2.181,27.203,2.426,27.19z"/>
	<path d="M14.965,27.188c0.24-0.026,0.483-0.031,0.726-0.033c1.542-0.005,3.084-0.011,4.626-0.004
		c0.251,0.002,0.361-0.05,0.367-0.329c0.011-0.563,0.058-1.127,0.102-1.688c0.017-0.194-0.057-0.255-0.24-0.239
		c-0.27,0.022-0.544,0.041-0.815,0.043c-0.7,0.004-1.399,0.001-2.105,0.001c0-0.677,0-1.338,0-2.03c0.115,0,0.213,0,0.312,0
		c0.673-0.004,1.349-0.015,2.024-0.009c0.203,0.002,0.292-0.059,0.296-0.271c0.013-0.504,0.035-1.008,0.073-1.511
		c0.021-0.238-0.068-0.289-0.289-0.281c-0.704,0.02-1.409,0.021-2.117,0.028c-0.105,0.001-0.211,0-0.326,0c0-0.648,0-1.251,0-1.878
		c0.071-0.008,0.11-0.017,0.149-0.017c0.816,0,1.634-0.005,2.448,0.005c0.221,0.003,0.304-0.064,0.307-0.292
		c0.008-0.514,0.029-1.027,0.063-1.54c0.017-0.229-0.055-0.296-0.281-0.293c-1.795,0.021-3.59,0.035-5.385,0.04
		c-0.231,0.001-0.284,0.079-0.278,0.3l0.024,9.708C14.642,27.149,14.732,27.213,14.965,27.188z"/>
	<path d="M29.498,26.831c-0.002,0.301,0.084,0.373,0.375,0.359c0.767-0.032,1.532-0.041,2.299-0.037
		c0.242,0.001,0.311-0.071,0.302-0.313c-0.04-1.059-0.06-2.117-0.086-3.175c-0.003-0.107,0-0.213,0-0.321c0.169,0,0.288,0,0.426,0
		c0.37,1.196,0.739,2.386,1.104,3.578c0.053,0.185,0.122,0.292,0.348,0.28c0.876-0.05,1.753-0.08,2.629-0.121
		c0.066-0.004,0.13-0.025,0.218-0.045c-0.629-1.477-1.248-2.932-1.868-4.386c0.622-0.39,1.002-0.91,1.181-1.569
		c0.21-0.783,0.221-1.576,0.015-2.361c-0.252-0.974-0.848-1.612-1.881-1.753c-0.398-0.055-0.803-0.102-1.204-0.103
		c-1.2-0.004-2.399,0.021-3.599,0.021c-0.226,0-0.292,0.06-0.281,0.293c0.041,0.856,0.08,1.714,0.078,2.571
		C29.547,22.111,29.527,24.471,29.498,26.831z M32.407,18.931c0.81-0.186,1.234,0.128,1.268,0.922
		c0.008,0.161,0.011,0.324-0.008,0.483c-0.072,0.729-0.494,1.085-1.26,1.051C32.407,20.553,32.407,19.739,32.407,18.931z"/>
	<path d="M21.686,19.025c0.125,0.027,0.263-0.004,0.393-0.004c0.489-0.003,0.98,0,1.488,0c0,0.564,0.007,1.117,0,1.67
		c-0.03,2.067-0.062,4.135-0.094,6.2c-0.004,0.184,0,0.31,0.248,0.301c0.825-0.026,1.651-0.041,2.479-0.041
		c0.24,0,0.304-0.079,0.301-0.315c-0.021-2.199-0.033-4.397-0.049-6.596c-0.004-0.411-0.001-0.823-0.001-1.229
		c0.586,0,1.11-0.012,1.635,0.005c0.268,0.008,0.401-0.042,0.396-0.358c-0.008-0.492,0.023-0.987,0.073-1.479
		c0.029-0.281-0.061-0.333-0.326-0.33c-2.096,0.022-4.193,0.032-6.292,0.044c-0.059,0.001-0.134-0.021-0.178,0.008
		c-0.076,0.048-0.189,0.124-0.193,0.195c-0.039,0.584-0.063,1.168-0.069,1.753C21.497,18.911,21.613,19.012,21.686,19.025z"/>
	<path d="M40.108,26.781c0.87,0.535,1.837,0.646,2.825,0.55c1.695-0.167,2.818-1.076,3.362-2.692c0.276-0.82,0.34-1.403,0.39-2.539
		c0-0.892-0.115-1.48-0.275-2.203c-0.276-1.242-0.903-2.26-2.112-2.812c-0.849-0.387-1.751-0.443-2.666-0.318
		c-1.399,0.193-2.412,0.934-2.947,2.245c-0.678,1.664-0.716,3.393-0.336,5.131C38.592,25.242,39.122,26.173,40.108,26.781z
		 M41.393,19.76c0.033-0.135,0.088-0.266,0.151-0.392c0.179-0.348,0.445-0.562,0.856-0.561c0.411,0.003,0.684,0.219,0.859,0.563
		c0.287,0.559,0.328,1.177,0.367,1.789c0.084,1.426-0.078,2.304-0.174,2.884c-0.042,0.259-0.161,0.522-0.303,0.745
		c-0.38,0.589-1.164,0.598-1.523-0.002c-0.186-0.309-0.315-0.682-0.364-1.039C41.084,22.414,41.059,21.08,41.393,19.76z"/>
	<path d="M92.596,75.645c0.624-0.391,1.003-0.914,1.183-1.575c0.215-0.788,0.225-1.586,0.017-2.375
		c-0.254-0.978-0.85-1.619-1.891-1.761c-0.4-0.056-0.805-0.103-1.209-0.104c-1.207-0.005-2.414,0.02-3.618,0.021
		c-0.226,0-0.294,0.061-0.282,0.296c0.042,0.86,0.078,1.722,0.078,2.582c-0.004,2.373-0.023,4.745-0.053,7.118
		c-0.005,0.303,0.083,0.375,0.377,0.36c0.769-0.032,1.539-0.041,2.309-0.039c0.244,0.002,0.311-0.069,0.303-0.313
		c-0.039-1.064-0.059-2.127-0.086-3.191c-0.001-0.106,0-0.212,0-0.321c0.17,0,0.29,0,0.43,0c0.369,1.202,0.741,2.398,1.106,3.597
		c0.057,0.185,0.125,0.294,0.353,0.281c0.879-0.05,1.761-0.081,2.642-0.123c0.066-0.002,0.13-0.025,0.221-0.044
		C93.839,78.569,93.218,77.107,92.596,75.645z M91.009,73.317c-0.073,0.733-0.497,1.093-1.266,1.057c0-0.838,0-1.654,0-2.468
		c0.813-0.186,1.238,0.128,1.273,0.926C91.023,72.993,91.025,73.158,91.009,73.317z"/>
	<path d="M76.701,70.136c-0.012-0.275-0.103-0.337-0.359-0.331c-1.065,0.025-2.129,0.039-3.193,0.038
		c-0.234,0-0.318,0.088-0.357,0.3c-0.203,1.044-0.409,2.084-0.619,3.125c-0.138,0.669-0.281,1.336-0.437,2.072
		c-0.031-0.102-0.041-0.129-0.049-0.158c-0.384-1.696-0.771-3.393-1.147-5.091c-0.044-0.199-0.118-0.29-0.341-0.285
		c-1.124,0.022-2.249,0.034-3.375,0.041c-0.199,0.001-0.256,0.071-0.263,0.265c-0.127,3.26-0.262,6.52-0.404,9.781
		c-0.01,0.243,0.062,0.318,0.306,0.307c0.618-0.028,1.237-0.043,1.854-0.04c0.236,0.001,0.285-0.087,0.288-0.304
		c0.008-1.227,0.034-2.452,0.044-3.678c0.008-1.02,0.003-2.041,0.003-3.063c0.034-0.002,0.071-0.004,0.107-0.005
		c0.063,0.28,0.13,0.562,0.193,0.843c0.448,2.004,0.895,4.008,1.353,6.01c0.021,0.09,0.161,0.219,0.249,0.22
		c0.588,0.008,1.175-0.021,1.763-0.026c0.179,0,0.253-0.077,0.284-0.242c0.056-0.318,0.12-0.636,0.188-0.951
		c0.427-1.986,0.853-3.973,1.278-5.956c0.032,0.002,0.062,0.003,0.094,0.006c0,1.053-0.005,2.106,0.002,3.158
		c0.01,1.237,0.031,2.474,0.047,3.711c0.002,0.172-0.003,0.322,0.247,0.317c0.82-0.023,1.641-0.037,2.46-0.041
		c0.209-0.002,0.272-0.082,0.25-0.274c-0.024-0.212-0.041-0.424-0.051-0.636C76.974,76.21,76.831,73.174,76.701,70.136z"/>
	<path d="M63.008,69.723c-2.12,0.011-4.238,0.024-6.357,0.033c-0.193,0.001-0.24,0.094-0.248,0.261
		c-0.021,0.557-0.056,1.113-0.08,1.671c-0.006,0.075,0.014,0.152,0.024,0.229c0.979,0,1.934,0,2.949,0
		c-1.129,2.746-2.237,5.448-3.349,8.146l6.62,0.006c0.252,0,0.338-0.077,0.341-0.328c0.002-0.446,0.036-0.892,0.065-1.336
		c0.037-0.605,0.039-0.602-0.582-0.576l-2.515-0.01c1.121-2.77,2.153-5.354,3.249-8.057C63.045,69.733,63.024,69.723,63.008,69.723z
		"/>
	<path d="M53.311,72.146c0-0.22-0.094-0.247-0.274-0.244l-2.51,0.584c-0.331,0.084-0.335,0.313-0.331,0.518l0.011,6.45
		c-0.003,0.232,0.052,0.434,0.304,0.424l2.399-0.008c0.418-0.006,0.413,0.001,0.413-0.409
		C53.315,76.229,53.308,75.377,53.311,72.146z"/>
	<path d="M50.345,68.986C50.284,69,50.24,69.054,50.24,69.117v2.402c0,0.041,0.02,0.08,0.052,0.104
		c0.024,0.021,0.053,0.03,0.083,0.03c0.01,0,0.02-0.001,0.029-0.004l2.684-0.614c0.062-0.014,0.105-0.068,0.105-0.131v-2.431
		c0-0.04-0.02-0.079-0.052-0.104c-0.032-0.026-0.074-0.035-0.113-0.026L50.345,68.986z"/>
	<path d="M83.518,72.146c0-0.22-0.094-0.247-0.275-0.244l-2.509,0.584c-0.33,0.084-0.335,0.313-0.33,0.518l0.009,6.45
		c-0.002,0.232,0.052,0.434,0.305,0.424l2.398-0.008c0.419-0.006,0.414,0.001,0.411-0.409
		C83.521,76.229,83.515,75.377,83.518,72.146z"/>
	<path d="M80.55,68.986c-0.059,0.014-0.103,0.067-0.103,0.131v2.402c0,0.041,0.02,0.08,0.051,0.104
		c0.024,0.021,0.054,0.03,0.084,0.03c0.009,0,0.02-0.001,0.028-0.004l2.684-0.614c0.062-0.014,0.105-0.068,0.105-0.131v-2.431
		c0-0.04-0.02-0.079-0.051-0.104c-0.032-0.026-0.074-0.035-0.113-0.026L80.55,68.986z"/>
	<polygon points="64.004,15.778 45.201,15.778 61.887,32.31 1.562,32.31 1.562,45.546 94.047,45.546 	"/>
	<polygon points="94.013,63.575 94.013,50.34 1.526,50.34 31.57,80.107 50.375,80.107 33.688,63.575 	"/>
</g>
</svg>
