<?xml version="1.0" encoding="utf-8"?>
<!-- Generator: Adobe Illustrator 16.0.0, SVG Export Plug-In . SVG Version: 6.00 Build 0)  -->
<!DOCTYPE svg PUBLIC "-//W3C//DTD SVG 1.1//EN" "http://www.w3.org/Graphics/SVG/1.1/DTD/svg11.dtd">
<svg version="1.1" id="Layer_2" xmlns="http://www.w3.org/2000/svg" xmlns:xlink="http://www.w3.org/1999/xlink" x="0px" y="0px"
	 width="96px" height="96px" viewBox="0 0 96 96" enable-background="new 0 0 96 96" xml:space="preserve">
<g>
	<path d="M57.396,27.125c-0.234-0.256-0.588-0.383-1.059-0.383c-0.309,0-0.566,0.053-0.771,0.156
		c-0.203,0.105-0.367,0.234-0.49,0.389c-0.125,0.154-0.209,0.318-0.26,0.492c-0.051,0.172-0.08,0.326-0.088,0.465h3.15
		C57.787,27.752,57.627,27.379,57.396,27.125z"/>
	<path d="M47.318,30.574c0.135,0.211,0.305,0.375,0.51,0.496c0.205,0.127,0.451,0.186,0.744,0.186c0.281,0,0.525-0.059,0.734-0.186
		c0.209-0.121,0.383-0.285,0.52-0.496c0.137-0.207,0.234-0.451,0.299-0.721c0.063-0.275,0.096-0.557,0.096-0.848
		c0-0.301-0.033-0.588-0.096-0.861c-0.064-0.27-0.162-0.512-0.299-0.721s-0.311-0.375-0.52-0.496
		c-0.209-0.127-0.453-0.186-0.734-0.186c-0.293,0-0.539,0.059-0.744,0.186c-0.205,0.121-0.375,0.287-0.51,0.496
		c-0.137,0.209-0.238,0.451-0.301,0.721c-0.066,0.273-0.096,0.561-0.096,0.861c0,0.291,0.029,0.572,0.096,0.848
		C47.08,30.123,47.182,30.367,47.318,30.574z"/>
	<path d="M70.861,31.236c0.105,0.068,0.234,0.115,0.381,0.143c0.145,0.027,0.297,0.043,0.453,0.043c0.377,0,0.676-0.064,0.883-0.193
		c0.207-0.127,0.365-0.279,0.467-0.457c0.098-0.178,0.16-0.354,0.182-0.537c0.023-0.184,0.033-0.328,0.033-0.438v-0.723
		c-0.082,0.074-0.182,0.131-0.307,0.17c-0.121,0.039-0.254,0.074-0.395,0.102c-0.141,0.029-0.291,0.053-0.451,0.07
		c-0.156,0.02-0.309,0.041-0.453,0.068c-0.158,0.027-0.301,0.064-0.441,0.109c-0.135,0.045-0.256,0.105-0.359,0.184
		c-0.104,0.076-0.189,0.176-0.252,0.301c-0.064,0.121-0.096,0.27-0.096,0.439c0,0.184,0.031,0.332,0.096,0.445
		C70.664,31.078,70.752,31.168,70.861,31.236z"/>
	<path d="M41.596,27.125c-0.232-0.256-0.584-0.383-1.057-0.383c-0.309,0-0.566,0.053-0.771,0.156
		c-0.203,0.105-0.369,0.234-0.492,0.389c-0.121,0.154-0.209,0.318-0.258,0.492c-0.051,0.172-0.078,0.326-0.09,0.465h3.15
		C41.988,27.752,41.826,27.379,41.596,27.125z"/>
	<path d="M63.117,30.574c0.139,0.211,0.309,0.375,0.512,0.496c0.201,0.127,0.453,0.186,0.742,0.186c0.281,0,0.527-0.059,0.736-0.186
		c0.209-0.121,0.381-0.285,0.518-0.496c0.139-0.207,0.238-0.451,0.301-0.721c0.064-0.275,0.096-0.557,0.096-0.848
		c0-0.301-0.031-0.588-0.096-0.861c-0.063-0.27-0.162-0.512-0.301-0.721c-0.137-0.209-0.309-0.375-0.518-0.496
		c-0.209-0.127-0.455-0.186-0.736-0.186c-0.289,0-0.541,0.059-0.742,0.186c-0.203,0.121-0.373,0.287-0.512,0.496
		c-0.137,0.209-0.236,0.451-0.299,0.721c-0.066,0.273-0.098,0.561-0.098,0.861c0,0.291,0.031,0.572,0.098,0.848
		C62.881,30.123,62.98,30.367,63.117,30.574z"/>
	<rect x="24.33" y="44.082" width="46.883" height="2.281"/>
	<path d="M91.617,1.645H4.383c-1.859,0-3.371,1.508-3.371,3.371v85.969c0,1.861,1.512,3.371,3.371,3.371h87.234
		c1.861,0,3.371-1.51,3.371-3.371V5.016C94.988,3.152,93.479,1.645,91.617,1.645z M76.379,22.785h1.939v3.67h0.039
		c0.246-0.402,0.561-0.697,0.943-0.887c0.381-0.191,0.754-0.285,1.117-0.285c0.518,0,0.945,0.07,1.275,0.211
		c0.332,0.141,0.594,0.336,0.783,0.586c0.193,0.252,0.326,0.555,0.404,0.914c0.078,0.361,0.115,0.758,0.115,1.193v4.338h-1.938
		v-3.982c0-0.582-0.092-1.016-0.279-1.303c-0.186-0.287-0.506-0.432-0.961-0.432c-0.525,0-0.908,0.158-1.145,0.471
		c-0.238,0.313-0.355,0.83-0.355,1.549v3.697h-1.939V22.785z M68.773,29.613c0.139-0.262,0.316-0.465,0.545-0.621
		c0.229-0.154,0.486-0.271,0.773-0.348c0.287-0.078,0.578-0.137,0.875-0.184c0.305-0.047,0.592-0.082,0.863-0.107
		c0.271-0.031,0.518-0.07,0.729-0.127c0.215-0.053,0.385-0.133,0.512-0.236c0.127-0.105,0.189-0.258,0.189-0.457
		c0-0.211-0.033-0.375-0.098-0.498c-0.07-0.123-0.164-0.219-0.275-0.285c-0.113-0.07-0.244-0.115-0.395-0.139
		c-0.152-0.021-0.313-0.033-0.486-0.033c-0.373,0-0.67,0.08-0.893,0.246c-0.225,0.162-0.354,0.434-0.389,0.818h-1.938
		c0.027-0.455,0.141-0.834,0.34-1.135c0.203-0.299,0.455-0.539,0.766-0.721c0.309-0.184,0.654-0.313,1.035-0.389
		c0.383-0.078,0.775-0.115,1.174-0.115c0.355,0,0.715,0.023,1.076,0.074c0.365,0.049,0.695,0.148,0.996,0.295
		c0.303,0.143,0.549,0.35,0.738,0.613s0.285,0.604,0.285,1.021v3.67c0,0.32,0.02,0.623,0.057,0.916
		c0.035,0.287,0.102,0.506,0.191,0.652h-1.963c-0.039-0.111-0.068-0.221-0.094-0.334c-0.02-0.113-0.035-0.23-0.047-0.35
		c-0.307,0.318-0.672,0.545-1.09,0.678c-0.418,0.131-0.844,0.197-1.285,0.197c-0.332,0-0.646-0.043-0.938-0.131
		c-0.291-0.086-0.545-0.215-0.764-0.389c-0.221-0.17-0.389-0.391-0.512-0.654c-0.121-0.264-0.186-0.578-0.186-0.941
		C68.568,30.203,68.639,29.871,68.773,29.613z M60.852,22.785h1.938v3.547h0.029c0.234-0.363,0.557-0.629,0.961-0.799
		c0.4-0.166,0.826-0.25,1.262-0.25c0.354,0,0.703,0.072,1.051,0.219c0.344,0.143,0.656,0.367,0.936,0.666
		c0.273,0.301,0.5,0.688,0.672,1.154c0.174,0.469,0.26,1.023,0.26,1.67s-0.086,1.203-0.26,1.67c-0.172,0.469-0.398,0.855-0.672,1.16
		c-0.279,0.305-0.592,0.529-0.936,0.674c-0.348,0.146-0.697,0.221-1.051,0.221c-0.52,0-0.984-0.084-1.393-0.254
		c-0.41-0.166-0.719-0.447-0.928-0.838h-0.027v0.9h-1.842V22.785z M53.051,27.533c0.172-0.455,0.418-0.85,0.736-1.18
		c0.318-0.334,0.697-0.596,1.139-0.785c0.439-0.191,0.93-0.285,1.467-0.285c0.6,0,1.123,0.115,1.568,0.346
		c0.445,0.232,0.811,0.543,1.098,0.936c0.287,0.389,0.492,0.836,0.621,1.338c0.127,0.5,0.174,1.023,0.135,1.566h-5.086
		c0.027,0.619,0.186,1.072,0.477,1.359c0.293,0.285,0.711,0.428,1.256,0.428c0.391,0,0.727-0.096,1.01-0.293
		c0.281-0.195,0.455-0.4,0.516-0.619h1.707c-0.271,0.834-0.691,1.439-1.254,1.814c-0.566,0.371-1.246,0.559-2.047,0.559
		c-0.555,0-1.055-0.09-1.502-0.273c-0.443-0.184-0.822-0.438-1.131-0.764c-0.309-0.328-0.547-0.719-0.719-1.174
		c-0.166-0.455-0.25-0.953-0.25-1.5C52.791,28.479,52.877,27.986,53.051,27.533z M45.053,22.785h1.938v3.547h0.027
		c0.234-0.363,0.557-0.629,0.959-0.799c0.406-0.166,0.826-0.25,1.264-0.25c0.354,0,0.705,0.072,1.051,0.219
		c0.346,0.143,0.656,0.367,0.932,0.666c0.279,0.301,0.504,0.688,0.676,1.154c0.174,0.469,0.258,1.023,0.258,1.67
		s-0.084,1.203-0.258,1.67c-0.172,0.469-0.396,0.855-0.676,1.16c-0.275,0.305-0.586,0.529-0.932,0.674
		c-0.346,0.146-0.697,0.221-1.051,0.221c-0.52,0-0.982-0.084-1.393-0.254c-0.408-0.166-0.719-0.447-0.926-0.838h-0.027v0.9h-1.842
		V22.785z M37.252,27.533c0.172-0.455,0.418-0.85,0.734-1.18c0.32-0.334,0.699-0.596,1.141-0.785
		c0.439-0.191,0.93-0.285,1.465-0.285c0.6,0,1.125,0.115,1.57,0.346c0.443,0.232,0.811,0.543,1.096,0.936
		c0.289,0.389,0.494,0.836,0.621,1.338c0.127,0.5,0.174,1.023,0.139,1.566h-5.09c0.029,0.619,0.188,1.072,0.479,1.359
		c0.289,0.285,0.709,0.428,1.254,0.428c0.391,0,0.727-0.096,1.01-0.293c0.281-0.195,0.455-0.4,0.518-0.619h1.705
		c-0.271,0.834-0.691,1.439-1.254,1.814c-0.564,0.371-1.246,0.559-2.047,0.559c-0.555,0-1.055-0.09-1.5-0.273
		s-0.822-0.438-1.131-0.764c-0.311-0.328-0.549-0.719-0.717-1.174c-0.17-0.455-0.252-0.953-0.252-1.5
		C36.992,28.479,37.078,27.986,37.252,27.533z M28.51,25.473l1.223,4.789h0.027l1.105-4.789h1.779l1.131,4.775h0.027l1.223-4.775
		h1.879l-2.098,7.053h-1.879l-1.188-4.732h-0.025l-1.133,4.732h-1.891l-2.111-7.053H28.51z M20.086,22.785h1.939v3.67h0.041
		c0.244-0.402,0.559-0.697,0.941-0.887c0.381-0.191,0.752-0.285,1.117-0.285c0.52,0,0.943,0.07,1.275,0.211s0.594,0.336,0.785,0.586
		c0.191,0.252,0.324,0.555,0.402,0.914c0.076,0.361,0.117,0.758,0.117,1.193v4.338h-1.939v-3.982c0-0.582-0.094-1.016-0.279-1.303
		s-0.506-0.432-0.963-0.432c-0.525,0-0.908,0.158-1.143,0.471c-0.238,0.313-0.355,0.83-0.355,1.549v3.697h-1.939V22.785z
		 M12.596,27.582c0.158-0.469,0.393-0.873,0.703-1.215c0.309-0.344,0.688-0.609,1.131-0.799c0.445-0.191,0.955-0.285,1.529-0.285
		c0.418,0,0.82,0.053,1.207,0.162c0.385,0.109,0.729,0.273,1.031,0.498c0.299,0.223,0.547,0.504,0.74,0.84
		c0.199,0.336,0.307,0.727,0.336,1.172h-1.896c-0.129-0.811-0.605-1.213-1.432-1.213c-0.309,0-0.568,0.07-0.777,0.211
		c-0.211,0.141-0.383,0.322-0.512,0.545c-0.133,0.223-0.227,0.471-0.281,0.746c-0.053,0.27-0.08,0.535-0.08,0.789
		s0.027,0.516,0.08,0.779c0.055,0.262,0.145,0.5,0.268,0.715c0.121,0.213,0.289,0.389,0.498,0.525
		c0.209,0.135,0.463,0.203,0.764,0.203c0.453,0,0.809-0.127,1.063-0.389c0.256-0.258,0.416-0.605,0.479-1.043h1.869
		c-0.129,0.936-0.492,1.652-1.092,2.146c-0.6,0.496-1.369,0.746-2.303,0.746c-0.539,0-1.025-0.09-1.463-0.266
		c-0.434-0.178-0.809-0.428-1.117-0.75c-0.311-0.324-0.551-0.705-0.723-1.146c-0.176-0.439-0.26-0.924-0.26-1.453
		C12.357,28.557,12.438,28.051,12.596,27.582z M5.018,30.234h1.842c0,0.207,0.045,0.387,0.131,0.537
		c0.086,0.152,0.197,0.275,0.334,0.369c0.137,0.096,0.295,0.168,0.469,0.211c0.178,0.047,0.363,0.07,0.555,0.07
		c0.137,0,0.279-0.018,0.43-0.051c0.15-0.031,0.287-0.08,0.408-0.148c0.123-0.07,0.225-0.16,0.307-0.273s0.123-0.256,0.123-0.432
		c0-0.143-0.049-0.27-0.15-0.373c-0.1-0.104-0.242-0.199-0.43-0.277c-0.184-0.082-0.416-0.158-0.688-0.229
		C8.074,29.572,7.766,29.5,7.42,29.428c-0.281-0.063-0.559-0.137-0.824-0.223c-0.27-0.088-0.508-0.201-0.717-0.344
		C5.67,28.721,5.5,28.545,5.373,28.33s-0.189-0.477-0.189-0.785c0-0.443,0.088-0.814,0.266-1.111
		c0.178-0.293,0.412-0.527,0.701-0.695c0.293-0.168,0.619-0.287,0.982-0.355c0.363-0.064,0.736-0.1,1.121-0.1
		c0.379,0,0.752,0.035,1.109,0.109c0.359,0.072,0.68,0.195,0.961,0.365c0.281,0.174,0.518,0.402,0.703,0.691
		c0.188,0.285,0.299,0.646,0.336,1.084H9.52c-0.027-0.373-0.168-0.625-0.422-0.758c-0.256-0.133-0.555-0.197-0.898-0.197
		c-0.111,0-0.23,0.006-0.355,0.021c-0.129,0.012-0.244,0.041-0.35,0.086c-0.104,0.047-0.193,0.113-0.266,0.197
		c-0.074,0.088-0.109,0.203-0.109,0.35c0,0.172,0.066,0.313,0.189,0.424c0.129,0.109,0.295,0.197,0.502,0.264
		c0.203,0.07,0.438,0.131,0.699,0.186c0.264,0.057,0.533,0.115,0.807,0.178c0.281,0.063,0.557,0.143,0.824,0.23
		c0.27,0.092,0.506,0.215,0.717,0.363c0.209,0.15,0.377,0.336,0.506,0.559c0.125,0.225,0.189,0.498,0.189,0.826
		c0,0.463-0.092,0.852-0.279,1.166c-0.188,0.313-0.432,0.566-0.73,0.758c-0.301,0.189-0.643,0.326-1.031,0.408
		c-0.385,0.082-0.779,0.123-1.178,0.123c-0.408,0-0.811-0.041-1.201-0.123s-0.738-0.221-1.043-0.416
		c-0.305-0.197-0.555-0.451-0.75-0.771C5.143,31.088,5.037,30.695,5.018,30.234z M5.508,55.807h15.451v6.006H5.508V55.807z
		 M81.924,71.439H13.936c-4.164,0-7.6-3.025-8.283-6.994h84.555C89.523,68.414,86.086,71.439,81.924,71.439z M22.645,61.813v-6.006
		h15.1v6.006H22.645z M39.43,61.813v-6.006h15.521v6.006H39.43z M56.637,61.813v-6.006h15.031v6.006H56.637z M90.352,61.813H73.354
		v-6.006h16.998V61.813z M90.352,44.082H75.006v2.281h6.918c4.102,0,7.508,2.932,8.266,6.809H5.67
		c0.758-3.877,4.166-6.809,8.266-6.809h6.602v-2.281H5.508v-8.287h84.844V44.082z M90.352,32.525h-1.936v-3.982
		c0-0.582-0.094-1.016-0.281-1.303c-0.186-0.287-0.506-0.432-0.961-0.432c-0.529,0-0.908,0.158-1.148,0.471
		c-0.232,0.313-0.355,0.83-0.355,1.549v3.697h-1.934v-7.053h1.842v0.982h0.039c0.248-0.402,0.566-0.697,0.955-0.887
		c0.391-0.191,0.793-0.285,1.199-0.285c0.521,0,0.945,0.07,1.277,0.211s0.594,0.336,0.785,0.586c0.191,0.252,0.326,0.555,0.4,0.914
		c0.078,0.361,0.117,0.758,0.117,1.193V32.525z"/>
</g>
</svg>
