<?xml version="1.0" encoding="utf-8"?>
<!-- Generator: Adobe Illustrator 16.0.0, SVG Export Plug-In . SVG Version: 6.00 Build 0)  -->
<!DOCTYPE svg PUBLIC "-//W3C//DTD SVG 1.1//EN" "http://www.w3.org/Graphics/SVG/1.1/DTD/svg11.dtd">
<svg version="1.1" id="Layer_2" xmlns="http://www.w3.org/2000/svg" xmlns:xlink="http://www.w3.org/1999/xlink" x="0px" y="0px"
	 width="96px" height="96px" viewBox="0 0 96 96" enable-background="new 0 0 96 96" xml:space="preserve">
<path d="M48,1.396L1.396,48L48,94.604L94.604,48L48,1.396z M69.367,59.714c-5.002,9.46-14.164,15.164-24.452,15.164
	c-15.023,0-27.246-12.223-27.246-27.243c0-15.023,12.222-27.245,27.246-27.245c9.587,0,18.547,4.789,23.287,13.163l-9.148,0.009
	c-3.696-3.733-8.726-5.866-14.139-5.866c-10.995,0-19.94,8.942-19.94,19.939c0,10.995,8.945,19.938,19.94,19.938
	c7.533,0,14.28-4.253,18.048-11.375l2.115-3.715l3.926-7.014h-6.99L55.02,58.243h-8.331l6.995-12.773h-6.173l-7.736,12.773h-8.542
	l12.162-20.08h38.075l-9.792,17.488h0.004L69.367,59.714z"/>
</svg>
