<?xml version="1.0" encoding="utf-8"?>
<!-- Generator: Adobe Illustrator 16.0.4, SVG Export Plug-In . SVG Version: 6.00 Build 0)  -->
<!DOCTYPE svg PUBLIC "-//W3C//DTD SVG 1.1//EN" "http://www.w3.org/Graphics/SVG/1.1/DTD/svg11.dtd">
<svg version="1.1" id="Layer_1" xmlns="http://www.w3.org/2000/svg" xmlns:xlink="http://www.w3.org/1999/xlink" x="0px" y="0px"
	 width="50px" height="50px" viewBox="0 0 50 50" enable-background="new 0 0 50 50" xml:space="preserve">
<path d="M33.425,24.348c-0.07-4.141-3.199-7.074-7.734-7.35v-1.207c0-0.275-0.225-0.5-0.5-0.5c-0.276,0-0.5,0.225-0.5,0.5v1.191
	c-4.805,0.123-8.137,3.172-8.137,7.509c0,0.276,0.223,0.5,0.5,0.5h7.637v6.471c0,1.79,1.457,3.247,3.248,3.247
	s3.248-1.457,3.248-3.247c0-0.276-0.225-0.5-0.5-0.5c-0.276,0-0.5,0.224-0.5,0.5c0,1.239-1.01,2.247-2.248,2.247
	c-1.239,0-2.248-1.008-2.248-2.247v-6.471h7.235c0.009,0,0.017,0.001,0.021,0c0.275,0,0.5-0.224,0.5-0.5
	C33.444,24.439,33.438,24.393,33.425,24.348z M17.569,23.991c0.255-3.57,3.232-6.021,7.418-6.021c4.188,0,7.166,2.449,7.421,6.021
	H17.569z M27.072,21.064c0,0.275-0.224,0.5-0.5,0.5h-1.085v1.082c0,0.276-0.223,0.5-0.5,0.5c-0.275,0-0.5-0.224-0.5-0.5v-1.082
	h-1.081c-0.276,0-0.5-0.225-0.5-0.5c0-0.276,0.224-0.5,0.5-0.5h1.081V19.48c0-0.275,0.225-0.5,0.5-0.5c0.277,0,0.5,0.225,0.5,0.5
	v1.084h1.085C26.849,20.564,27.072,20.788,27.072,21.064z"/>
</svg>
