<?xml version="1.0" encoding="utf-8"?>
<!-- Generator: Adobe Illustrator 16.0.0, SVG Export Plug-In . SVG Version: 6.00 Build 0)  -->
<!DOCTYPE svg PUBLIC "-//W3C//DTD SVG 1.1//EN" "http://www.w3.org/Graphics/SVG/1.1/DTD/svg11.dtd">
<svg version="1.1" id="Layer_2" xmlns="http://www.w3.org/2000/svg" xmlns:xlink="http://www.w3.org/1999/xlink" x="0px" y="0px"
	 width="96px" height="96px" viewBox="0 0 96 96" enable-background="new 0 0 96 96" xml:space="preserve">
<path d="M1.708,1.812v92.377h92.584V1.812H1.708z M20.367,73.988c-3.798,0-6.875-3.078-6.875-6.874s3.077-6.874,6.875-6.874
	c3.794,0,6.871,3.078,6.871,6.874S24.161,73.988,20.367,73.988z M26.749,55.47c-3.795,0-6.872-3.078-6.872-6.872
	c0-3.797,3.077-6.875,6.872-6.875c3.797,0,6.875,3.078,6.875,6.875C33.624,52.393,30.546,55.47,26.749,55.47z M32.782,37.023
	c-3.796,0-6.874-3.078-6.874-6.872c0-3.796,3.078-6.874,6.874-6.874s6.873,3.078,6.873,6.874
	C39.655,33.946,36.578,37.023,32.782,37.023z M48.163,55.47c-3.795,0-6.872-3.078-6.872-6.872c0-3.797,3.077-6.875,6.872-6.875
	c3.796,0,6.873,3.078,6.873,6.875C55.036,52.393,51.959,55.47,48.163,55.47z M56.631,30.117c0-3.797,3.077-6.875,6.873-6.875
	s6.874,3.078,6.874,6.875c0,3.794-3.078,6.872-6.874,6.872S56.631,33.911,56.631,30.117z M62.662,48.564
	c0-3.797,3.078-6.875,6.875-6.875c3.795,0,6.872,3.078,6.872,6.875c0,3.794-3.077,6.872-6.872,6.872
	C65.74,55.436,62.662,52.358,62.662,48.564z M75.919,73.953c-3.794,0-6.871-3.078-6.871-6.874s3.077-6.873,6.871-6.873
	c3.798,0,6.875,3.077,6.875,6.873S79.717,73.953,75.919,73.953z"/>
</svg>
