<?xml version="1.0" encoding="utf-8"?>
<!-- Generator: Adobe Illustrator 16.0.4, SVG Export Plug-In . SVG Version: 6.00 Build 0)  -->
<!DOCTYPE svg PUBLIC "-//W3C//DTD SVG 1.1//EN" "http://www.w3.org/Graphics/SVG/1.1/DTD/svg11.dtd">
<svg version="1.1" id="Layer_1" xmlns="http://www.w3.org/2000/svg" xmlns:xlink="http://www.w3.org/1999/xlink" x="0px" y="0px"
	 width="226.77px" height="155.91px" viewBox="0 0 226.77 155.91" enable-background="new 0 0 226.77 155.91" xml:space="preserve">
<g>
	<path d="M175.186,39.278c0.952-1.659,1.49-3.462,1.49-5.439c0-17.338-39.783-21.964-63.289-21.964
		c-23.507,0-63.293,4.626-63.293,21.966c0,2.414,0.797,4.575,2.188,6.52L107.032,141.3c1.058,1.953,3.092,2.735,5.312,2.735
		c0.015,0,0.031,0,0.046,0c2.202,0,4.234-0.735,5.313-2.657l57.436-101.99C175.158,39.354,175.166,39.315,175.186,39.278z
		 M113.387,24.058c30.921,0,47.771,6.515,50.821,9.783c-3.052,3.27-19.903,9.781-50.821,9.781c-30.92,0-47.771-6.512-50.822-9.781
		C65.611,30.572,82.462,24.058,113.387,24.058z M112.484,126.21L71.8,51.016c13.079,3.555,29.483,4.787,41.587,4.787
		c11.982,0,28.188-1.208,41.203-4.683L112.484,126.21z"/>
</g>
</svg>
