<?xml version="1.0" encoding="utf-8"?>
<!-- Generator: Adobe Illustrator 16.0.4, SVG Export Plug-In . SVG Version: 6.00 Build 0)  -->
<!DOCTYPE svg PUBLIC "-//W3C//DTD SVG 1.1//EN" "http://www.w3.org/Graphics/SVG/1.1/DTD/svg11.dtd">
<svg version="1.1" id="Layer_1" xmlns="http://www.w3.org/2000/svg" xmlns:xlink="http://www.w3.org/1999/xlink" x="0px" y="0px"
	 width="226.77px" height="155.91px" viewBox="0 0 226.77 155.91" enable-background="new 0 0 226.77 155.91" xml:space="preserve">
<g>
	<path d="M70.2,139.576c-1.684,3.668-0.073,8.004,3.596,9.691c0.986,0.455,2.021,0.666,3.042,0.666c2.771,0,5.418-1.58,6.648-4.262
		l7.267-15.838h72.571c4.037,0,7.309-3.271,7.309-7.309s-3.271-7.309-7.309-7.309H97.46l23.476-51.157h14.016
		c3.555,0.709,21.064,5.75,21.064,36.159c0,4.037,3.271,7.309,7.309,7.309s7.309-3.271,7.309-7.309
		c0-22.688-8.607-36.147-17.951-43.467c9.344-7.32,17.951-20.78,17.951-43.467c0-4.037-3.271-7.308-7.309-7.308
		s-7.309,3.271-7.309,7.308c0,30.561-17.688,35.499-21.043,36.159h-7.327l14.308-31.174c1.683-3.669,0.072-8.005-3.596-9.691
		c-3.672-1.688-8.008-0.076-9.691,3.596l-17.102,37.27h-48.12c-4.036,0-7.308,3.272-7.308,7.309s3.271,7.308,7.308,7.308h41.411
		l-23.477,51.157H63.444c-4.036,0-7.308,3.271-7.308,7.309s3.271,7.309,7.308,7.309h11.229L70.2,139.576z"/>
</g>
</svg>
