<?xml version="1.0" encoding="utf-8"?>
<!-- Generator: Adobe Illustrator 16.0.4, SVG Export Plug-In . SVG Version: 6.00 Build 0)  -->
<!DOCTYPE svg PUBLIC "-//W3C//DTD SVG 1.1//EN" "http://www.w3.org/Graphics/SVG/1.1/DTD/svg11.dtd">
<svg version="1.1" id="Layer_1" xmlns="http://www.w3.org/2000/svg" xmlns:xlink="http://www.w3.org/1999/xlink" x="0px" y="0px"
	 width="226.77px" height="155.91px" viewBox="0 0 226.77 155.91" enable-background="new 0 0 226.77 155.91" xml:space="preserve">
<g>
	<path d="M99.573,88.5L83.66,121.481c-1.754,3.635-0.229,8.005,3.405,9.759c1.023,0.492,2.105,0.729,3.172,0.729
		c2.716,0,5.328-1.522,6.587-4.134l18.98-39.335h19.15c3.551,0.709,21.062,5.748,21.062,36.158c0,4.037,3.271,7.309,7.308,7.309
		s7.308-3.271,7.308-7.309c0-22.688-8.605-36.146-17.951-43.467c9.346-7.321,17.951-20.78,17.951-43.468
		c0-4.037-3.271-7.308-7.308-7.308s-7.308,3.271-7.308,7.308c0,30.561-17.689,35.499-21.043,36.159h-12.12l19.038-39.455
		c1.754-3.635,0.229-8.005-3.406-9.759c-3.632-1.752-8.004-0.231-9.759,3.405l-22.103,45.809h-43.18
		c-4.037,0-7.309,3.271-7.309,7.309c0,4.036,3.272,7.309,7.309,7.309H99.573z"/>
</g>
</svg>
