<?xml version="1.0" encoding="utf-8"?>
<!-- Generator: Adobe Illustrator 16.0.4, SVG Export Plug-In . SVG Version: 6.00 Build 0)  -->
<!DOCTYPE svg PUBLIC "-//W3C//DTD SVG 1.1//EN" "http://www.w3.org/Graphics/SVG/1.1/DTD/svg11.dtd">
<svg version="1.1" id="Layer_1" xmlns="http://www.w3.org/2000/svg" xmlns:xlink="http://www.w3.org/1999/xlink" x="0px" y="0px"
	 width="50px" height="50px" viewBox="0 0 50 50" enable-background="new 0 0 50 50" xml:space="preserve">
<path d="M37.345,19.433c-0.467-2.016-1.832-3.495-3.947-4.278c-1.414-0.524-4.85-0.993-6.354,0.796
	c-0.719-0.424-1.411-0.778-2.062-1.027c-1.227-1.829-3.313-3.036-5.676-3.036c-3.768,0-6.834,3.065-6.834,6.833
	c0,2.711,1.591,5.051,3.885,6.154c0.297,0.589,0.663,1.146,1.086,1.612c1.178,1.297,1.519,2.045,1.71,2.902
	c0.042,0.189,0.139,0.744,0.145,0.865c0.3,7.131,2.733,7.744,3.315,7.787c0.169,0.049,0.335,0.071,0.498,0.071
	c0.296,0,0.578-0.079,0.833-0.235c1.208-0.742,1.579-3.045,1.907-5.076c0.119-0.732,0.23-1.426,0.36-1.83
	c0.225-0.698,0.411-0.855,0.409-0.881c0.162,0.074,0.436,0.594,0.466,0.8c0.045,0.31,0.077,0.706,0.113,1.153
	c0.186,2.291,0.465,5.748,2.901,5.996c0.172,0.039,0.583,0.076,1.088-0.23c1.15-0.697,2-2.693,2.527-5.934l0.079-0.52
	c0.19-1.301,0.452-3.081,1.525-4.211C36.558,25.85,38.055,22.5,37.345,19.433z M13.472,18.719c0-3.217,2.617-5.833,5.834-5.833
	c3.216,0,5.832,2.616,5.832,5.833c0,3.216-2.616,5.833-5.832,5.833c-0.82,0-1.6-0.172-2.308-0.479
	c-0.051-0.038-0.108-0.065-0.169-0.081C14.849,23.059,13.472,21.049,13.472,18.719z M34.598,26.455
	c-1.293,1.359-1.593,3.402-1.791,4.756l-0.077,0.502c-0.605,3.729-1.508,4.855-1.991,5.197c-0.254,0.178-0.414,0.153-0.396,0.159
	c-0.037-0.013-0.075-0.021-0.113-0.022c-1.633-0.141-1.874-3.115-2.033-5.084c-0.037-0.473-0.072-0.894-0.119-1.217
	c-0.049-0.33-0.512-1.582-1.367-1.654c-0.904-0.071-1.318,1.164-1.451,1.572c-0.153,0.477-0.265,1.172-0.396,1.979
	c-0.25,1.545-0.627,3.881-1.444,4.384c-0.112,0.067-0.28,0.138-0.572,0.042c-0.053-0.018-0.105-0.018-0.164-0.023
	c-0.025,0-2.109-0.25-2.387-6.834c-0.01-0.229-0.131-0.877-0.168-1.039c-0.262-1.176-0.79-2.086-1.946-3.358
	c-0.116-0.127-0.217-0.276-0.324-0.417c0.466,0.101,0.95,0.157,1.446,0.157c3.767,0,6.832-3.065,6.832-6.833
	c0-0.838-0.159-1.639-0.437-2.382c1.173,0.597,2.459,1.467,3.842,2.602c0.093,0.076,0.206,0.113,0.316,0.113
	c0.146,0,0.288-0.062,0.388-0.183c0.175-0.213,0.144-0.528-0.069-0.704c-0.782-0.642-1.53-1.183-2.256-1.663
	c1.156-1.172,3.875-0.876,5.128-0.411c1.811,0.671,2.927,1.87,3.32,3.566C36.97,22.25,35.727,25.271,34.598,26.455z M15.306,19.219
	c-0.276,0-0.5-0.224-0.5-0.5c0-0.276,0.224-0.5,0.5-0.5h3.5v-3.5c0-0.276,0.224-0.5,0.5-0.5c0.276,0,0.5,0.224,0.5,0.5v3.5h3.5
	c0.276,0,0.5,0.224,0.5,0.5c0,0.276-0.224,0.5-0.5,0.5h-3.5v3.5c0,0.276-0.224,0.5-0.5,0.5c-0.276,0-0.5-0.224-0.5-0.5v-3.5H15.306z
	"/>
</svg>
