<?xml version="1.0" encoding="utf-8"?>
<!-- Generator: Adobe Illustrator 16.0.0, SVG Export Plug-In . SVG Version: 6.00 Build 0)  -->
<!DOCTYPE svg PUBLIC "-//W3C//DTD SVG 1.1//EN" "http://www.w3.org/Graphics/SVG/1.1/DTD/svg11.dtd">
<svg version="1.1" id="Layer_1" xmlns="http://www.w3.org/2000/svg" xmlns:xlink="http://www.w3.org/1999/xlink" x="0px" y="0px"
	 width="96px" height="96px" viewBox="0 0 96 96" enable-background="new 0 0 96 96" xml:space="preserve">
<g>
	<path d="M48.134,55.134c13.077-0.248,21.71-12.374,21.671-30.704l-43.746-0.016C26.265,43.46,34.665,55.379,48.134,55.134z"/>
	<path d="M78.26,67.516c-1.029-1.717-2.566-2.917-4.297-3.592l-11.714-5.306l-4.8-4.349l-9.519,8.69l-9.304-8.767l-5.43,4.579
		l-11.301,5.203c-1.671,0.687-3.157,1.872-4.156,3.542L1.259,95.078h42.07l4.537-22.496l4.664,22.496h42.211L78.26,67.516z
		 M74.815,83.867h-4.252v4.25h-4.981v-4.25h-4.25v-4.98h4.25v-4.25h4.981v4.25h4.252V83.867z"/>
	<path d="M70.014,13.968c0-7.206-5.84-13.046-13.046-13.046H39.031c-7.205,0-13.047,5.841-13.047,13.046v5.87h44.029V13.968z"/>
</g>
</svg>
