<?xml version="1.0" encoding="utf-8"?>
<!-- Generator: Adobe Illustrator 16.0.4, SVG Export Plug-In . SVG Version: 6.00 Build 0)  -->
<!DOCTYPE svg PUBLIC "-//W3C//DTD SVG 1.1//EN" "http://www.w3.org/Graphics/SVG/1.1/DTD/svg11.dtd">
<svg version="1.1" id="Layer_1" xmlns="http://www.w3.org/2000/svg" xmlns:xlink="http://www.w3.org/1999/xlink" x="0px" y="0px"
	 width="50px" height="50px" viewBox="0 0 50 50" enable-background="new 0 0 50 50" xml:space="preserve">
<path d="M32.398,24.972c-0.199-0.11-0.412-0.188-0.629-0.252c-0.164-1.785-1.24-3.182-3.068-3.938
	c-1.666-0.69-3.166-0.549-4.34,0.378v-1.015c0.258,0.062,0.654,0.138,1.134,0.138h0.001c0.693,0,1.309-0.159,1.82-0.473
	c1.396-0.854,1.843-2.752,1.859-2.832c0.057-0.249-0.084-0.502-0.326-0.584c-0.025-0.009-0.645-0.216-1.429-0.216
	c-0.694,0-1.307,0.158-1.819,0.472c-0.555,0.34-0.953,0.842-1.24,1.331v-1.458c0-0.276-0.225-0.5-0.5-0.5
	c-0.276,0-0.5,0.224-0.5,0.5v4.638c-1.176-0.928-2.676-1.07-4.342-0.379c-2.789,1.155-3.756,3.655-2.649,6.859
	c0.903,2.621,2.942,5.146,4.849,6.003c0.848,0.382,1.661,0.433,2.354,0.146c0.096-0.039,0.19-0.088,0.289-0.146
	c0.097,0.06,0.19,0.106,0.286,0.146c0.304,0.127,0.623,0.188,0.959,0.188c0.709,0,1.479-0.298,2.277-0.853
	c0.533,0.387,0.948,0.651,1.076,0.732c0.081,0.051,0.174,0.076,0.266,0.076c0.094,0,0.186-0.025,0.267-0.076
	c0.453-0.284,4.437-2.842,4.922-5.045c0.108-0.325,0.163-0.662,0.163-1.003C34.077,26.629,33.434,25.541,32.398,24.972z
	 M26.124,17.502c0.353-0.216,0.79-0.324,1.298-0.324c0.234,0,0.451,0.023,0.63,0.053c-0.192,0.514-0.584,1.315-1.256,1.727
	c-0.354,0.216-0.791,0.325-1.3,0.325c-0.234,0-0.452-0.024-0.63-0.054C25.076,18.674,25.486,17.895,26.124,17.502z M24.527,32.863
	c-0.106-0.044-0.217-0.111-0.356-0.223c-0.182-0.145-0.438-0.145-0.62,0.001c-0.132,0.104-0.248,0.179-0.359,0.224
	c-0.439,0.182-0.965,0.137-1.562-0.134c-1.649-0.741-3.504-3.071-4.313-5.417c-1.185-3.432,0.481-4.944,2.089-5.609
	c1.171-0.484,2.827-0.707,4.052,0.998c0.007,0.01,0.02,0.014,0.025,0.022c0.033,0.04,0.072,0.072,0.115,0.1
	c0.02,0.012,0.032,0.026,0.053,0.035c0.064,0.031,0.136,0.052,0.213,0.052c0.076,0,0.146-0.021,0.213-0.052
	c0.02-0.009,0.033-0.022,0.051-0.034c0.045-0.028,0.084-0.061,0.117-0.102c0.008-0.009,0.02-0.013,0.025-0.021
	c1.223-1.705,2.877-1.484,4.051-0.998c1,0.413,2.183,1.254,2.427,2.887c-0.735,0.023-1.462,0.277-2.019,0.757
	c-0.992-0.852-2.517-1.02-3.674-0.379c-1.035,0.57-1.678,1.656-1.678,2.838c0,0.343,0.055,0.682,0.148,0.954
	c0.289,1.31,1.756,2.718,3.021,3.728C25.962,32.842,25.197,33.142,24.527,32.863z M32.951,28.545
	c-0.322,1.455-2.947,3.449-4.225,4.293c-0.283-0.188-0.638-0.438-1.014-0.719c-0.025-0.021-0.051-0.045-0.081-0.061
	c-1.306-0.99-2.89-2.418-3.146-3.562c-0.074-0.222-0.111-0.453-0.111-0.688c0-0.815,0.443-1.567,1.161-1.962
	c0.329-0.184,0.7-0.278,1.078-0.278c0.669,0,1.298,0.296,1.727,0.812c0.095,0.115,0.236,0.182,0.386,0.182
	c0.148,0,0.289-0.066,0.385-0.182c0.668-0.807,1.89-1.04,2.804-0.532c0.717,0.396,1.162,1.146,1.162,1.963
	C33.077,28.041,33.039,28.272,32.951,28.545z"/>
</svg>
