<?xml version="1.0" encoding="utf-8"?>
<!-- Generator: Adobe Illustrator 16.0.4, SVG Export Plug-In . SVG Version: 6.00 Build 0)  -->
<!DOCTYPE svg PUBLIC "-//W3C//DTD SVG 1.1//EN" "http://www.w3.org/Graphics/SVG/1.1/DTD/svg11.dtd">
<svg version="1.1" id="Layer_1" xmlns="http://www.w3.org/2000/svg" xmlns:xlink="http://www.w3.org/1999/xlink" x="0px" y="0px"
	 width="50px" height="50px" viewBox="0 0 50 50" enable-background="new 0 0 50 50" xml:space="preserve">
<g>
	<path d="M20.98,14.786C14.634,16.089,10,20.166,10,25c0,4.834,4.635,8.911,10.979,10.213V14.786z"/>
	<path d="M39.053,24.052h-8.184c-0.523,0-0.947,0.424-0.947,0.947s0.424,0.948,0.947,0.948h8.184C39.576,25.947,40,25.522,40,25
		S39.576,24.052,39.053,24.052z"/>
	<path d="M30.869,18.31h8.184c0.523,0,0.947-0.424,0.947-0.947s-0.424-0.947-0.947-0.947h-8.184c-0.523,0-0.947,0.424-0.947,0.947
		S30.346,18.31,30.869,18.31z"/>
	<path d="M25.327,17.052v-2.708c-1.171,0-2.306,0.099-3.4,0.272v20.766c1.095,0.174,2.229,0.273,3.4,0.273v-2.709
		c1.582-0.254,2.833-3.709,2.833-7.947C28.16,20.764,26.908,17.307,25.327,17.052z"/>
	<path d="M39.053,31.689h-8.184c-0.523,0-0.947,0.424-0.947,0.947s0.424,0.947,0.947,0.947h8.184c0.523,0,0.947-0.424,0.947-0.947
		S39.576,31.689,39.053,31.689z"/>
</g>
</svg>
