<?xml version="1.0" encoding="utf-8"?>
<!-- Generator: Adobe Illustrator 16.0.0, SVG Export Plug-In . SVG Version: 6.00 Build 0)  -->
<!DOCTYPE svg PUBLIC "-//W3C//DTD SVG 1.1//EN" "http://www.w3.org/Graphics/SVG/1.1/DTD/svg11.dtd">
<svg version="1.1" id="Layer_1" xmlns="http://www.w3.org/2000/svg" xmlns:xlink="http://www.w3.org/1999/xlink" x="0px" y="0px"
	 width="96px" height="96px" viewBox="0 0 96 96" enable-background="new 0 0 96 96" xml:space="preserve">
<g>
	<path d="M80.589,49.226c-2.779,0.792-5.511,1.901-8.275,2.854c-2.768,0.95-5.432,2.171-8.096,3.219
		c-2.622,1.155-5.18,2.328-7.622,3.508c-2.402,1.254-4.758,2.389-6.876,3.652c-2.165,1.183-4.122,2.42-5.924,3.554
		c-1.778,1.163-3.39,2.244-4.752,3.257c-1.378,1-2.519,1.901-3.434,2.66c-0.475,0.369-1.178,1.009-1.178,1.009l-10.038-8.683
		c0,0,0.354-0.262,1.016-0.741c0.377-0.278,0.803-0.571,1.261-0.865c0.474-0.299,1.021-0.686,1.627-1.036
		c1.211-0.745,2.688-1.608,4.391-2.514c1.701-0.929,3.638-1.87,5.759-2.867c2.132-0.964,4.436-2.001,6.92-2.944
		c2.452-1.027,5.108-1.885,7.818-2.841c2.731-0.888,5.571-1.737,8.458-2.55c2.918-0.707,5.827-1.571,8.808-2.154
		c2.977-0.584,5.908-1.32,8.856-1.736c2.941-0.444,5.799-1.024,8.608-1.318c2.268-0.269,4.455-0.525,6.577-0.775
		c-0.093-0.725-0.204-1.442-0.329-2.154c-0.414,0.021-0.835,0.041-1.277,0.063c-1.806,0.059-3.844,0.219-6.06,0.445
		c-2.214,0.204-4.609,0.426-7.145,0.661c-2.519,0.344-5.174,0.708-7.917,1.084c-2.745,0.336-5.542,0.962-8.393,1.444
		c-2.854,0.457-5.699,1.229-8.556,1.843c-2.861,0.613-5.654,1.505-8.425,2.225c-2.742,0.831-5.421,1.689-7.984,2.571
		c-2.539,0.954-5.011,1.799-7.267,2.799c-2.291,0.915-4.382,1.909-6.307,2.82c-1.903,0.941-3.634,1.823-5.105,2.664
		C18.237,59.204,16,60.604,16,60.604L4.694,52.189c0,0,0.38-0.216,1.097-0.613c0.408-0.232,0.865-0.469,1.354-0.705
		c0.507-0.241,2.186-1.105,2.829-1.383c1.293-0.596,2.862-1.276,4.661-1.97c1.799-0.718,3.839-1.422,6.063-2.158
		c2.232-0.699,4.646-1.454,7.222-2.091c2.558-0.727,5.296-1.259,8.103-1.887c2.818-0.55,5.738-1.055,8.701-1.519
		c2.98-0.351,5.977-0.86,9.002-1.081c3.026-0.223,6.026-0.601,9.002-0.662c2.974-0.089,5.88-0.323,8.702-0.277
		c2.815,0.008,5.538,0.015,8.118,0.022c2.57,0.118,5.002,0.23,7.248,0.335c2.241,0.085,4.289,0.206,6.105,0.399
		c0.371,0.032,0.724,0.064,1.074,0.099C89.659,17.252,70.717,1.1,48.001,1.1C22.099,1.1,1.1,22.099,1.1,48
		c0,25.902,20.999,46.9,46.901,46.9S94.9,73.902,94.9,48c0-0.942-0.036-1.875-0.091-2.804c-1.96,0.513-3.973,1.039-6.06,1.589
		C86.063,47.447,83.364,48.402,80.589,49.226z"/>
</g>
</svg>
