<?xml version="1.0" encoding="utf-8"?>
<!-- Generator: Adobe Illustrator 16.0.4, SVG Export Plug-In . SVG Version: 6.00 Build 0)  -->
<!DOCTYPE svg PUBLIC "-//W3C//DTD SVG 1.1//EN" "http://www.w3.org/Graphics/SVG/1.1/DTD/svg11.dtd">
<svg version="1.1" id="Layer_1" xmlns="http://www.w3.org/2000/svg" xmlns:xlink="http://www.w3.org/1999/xlink" x="0px" y="0px"
	 width="50px" height="50px" viewBox="0 0 50 50" enable-background="new 0 0 50 50" xml:space="preserve">
<path d="M37.304,21.683c-0.968-0.953-2.249-1.478-3.607-1.478c-0.66,0-1.3,0.132-1.896,0.368v-5.098
	c0-2.164-1.761-3.925-3.925-3.925s-3.925,1.761-3.925,3.925v2.215c-0.729-0.071-1.468-0.114-2.204-0.114
	c-3.696,0-7.267,0.893-10.327,2.58c-0.171,0.095-0.271,0.28-0.257,0.476c0.568,7.652,4.43,14.289,10.331,17.751
	c0.078,0.045,0.166,0.068,0.253,0.068s0.175-0.023,0.253-0.068c3.26-1.914,5.96-4.861,7.809-8.525
	c0.032-0.062,0.048-0.131,0.052-0.197c0.191-0.113,0.37-0.244,0.541-0.391c0.927,0.779,2.073,1.225,3.296,1.225
	c1.39,0,2.692-0.545,3.668-1.537C39.353,26.936,39.325,23.672,37.304,21.683z M36.213,22.08l-5.743,5.836
	c-1.283-1.613-1.209-3.966,0.272-5.474c0.784-0.799,1.834-1.238,2.953-1.238C34.621,21.205,35.492,21.521,36.213,22.08z
	 M27.876,29.215c-1.613,0-2.925-1.312-2.925-2.926v-5.087h5.725c-0.225,0.165-0.447,0.337-0.646,0.54
	c-1.844,1.877-1.932,4.809-0.323,6.811C29.188,28.975,28.555,29.215,27.876,29.215z M16.174,27.092h5.073v6.955
	C19.079,32.256,17.343,29.862,16.174,27.092z M23.951,26.092h-1.704v-5.104c0.571,0.014,1.14,0.054,1.704,0.118V26.092z
	 M21.247,26.092h-5.476c-0.437-1.208-0.774-2.473-0.99-3.784c1.99-0.812,4.223-1.252,6.466-1.315V26.092z M22.247,27.092h1.788
	c0.235,1.127,0.963,2.064,1.938,2.609c-1.032,1.688-2.301,3.162-3.728,4.346L22.247,27.092L22.247,27.092z M27.876,12.55
	c1.613,0,2.925,1.312,2.925,2.925v4.727h-5.85v-4.727C24.951,13.861,26.263,12.55,27.876,12.55z M21.747,37.369
	c-5.393-3.287-8.944-9.412-9.561-16.491c2.849-1.508,6.146-2.303,9.561-2.303c0.737,0,1.476,0.043,2.204,0.117v1.409
	c-0.716-0.078-1.438-0.127-2.163-0.127c-0.014-0.001-0.026-0.008-0.041-0.008c-0.02,0-0.037,0.009-0.056,0.011
	c-2.662,0.014-5.33,0.545-7.664,1.562c-0.207,0.09-0.328,0.308-0.295,0.531c0.82,5.581,3.635,10.475,7.722,13.428
	c0.009,0.006,0.021,0.004,0.031,0.01c0.077,0.049,0.164,0.084,0.262,0.084s0.185-0.035,0.263-0.084
	c0.009-0.006,0.021-0.004,0.03-0.01c1.902-1.373,3.572-3.248,4.876-5.418c0.309,0.08,0.627,0.133,0.96,0.133
	c0.215,0,0.425-0.027,0.633-0.062C26.819,33.203,24.504,35.687,21.747,37.369z M36.651,28.256c-0.785,0.797-1.835,1.238-2.956,1.238
	c-0.924,0-1.794-0.318-2.516-0.875l5.743-5.836C38.207,24.396,38.133,26.75,36.651,28.256z"/>
</svg>
