<?xml version="1.0" encoding="utf-8"?>
<!-- Generator: Adobe Illustrator 16.0.4, SVG Export Plug-In . SVG Version: 6.00 Build 0)  -->
<!DOCTYPE svg PUBLIC "-//W3C//DTD SVG 1.1//EN" "http://www.w3.org/Graphics/SVG/1.1/DTD/svg11.dtd">
<svg version="1.1" id="Layer_1" xmlns="http://www.w3.org/2000/svg" xmlns:xlink="http://www.w3.org/1999/xlink" x="0px" y="0px"
	 width="226.77px" height="155.91px" viewBox="0 0 226.77 155.91" enable-background="new 0 0 226.77 155.91" xml:space="preserve">
<g>
	<path d="M160.139,38.668c0-0.44-0.055-0.907-0.192-1.32c-0.028-0.055-0.056-0.109-0.056-0.165
		c-0.109-0.357-0.274-0.715-0.467-1.072c-0.055-0.11-0.11-0.192-0.193-0.303c-0.219-0.303-0.439-0.604-0.742-0.88
		c-0.055-0.055-0.082-0.11-0.137-0.165c-0.028-0.027-0.028-0.027-0.056-0.055c-0.33-0.303-0.715-0.522-1.072-0.716
		c-0.028-0.027-0.056-0.055-0.083-0.055l-39.576-19.581c-0.742-0.386-1.566-0.578-2.42-0.578h-3.52c-0.825,0-1.65,0.192-2.42,0.55
		L69.629,33.91c-0.028,0-0.028,0.027-0.055,0.027c-0.357,0.192-0.688,0.385-1.018,0.66c-0.027,0.027-0.055,0.082-0.11,0.11
		c-0.083,0.082-0.165,0.165-0.22,0.247c-0.248,0.248-0.467,0.522-0.66,0.798c-0.055,0.109-0.137,0.192-0.192,0.303
		c-0.22,0.385-0.413,0.797-0.55,1.21c0,0,0,0,0,0.027c-0.11,0.439-0.165,0.88-0.193,1.32c0,0.055-0.027,0.109-0.027,0.165v80.499
		c0,1.265,0.44,2.502,1.265,3.492l14.494,17.409c1.045,1.237,2.558,1.953,4.18,1.953h52.942c0.385,0,0.77-0.056,1.127-0.11
		c0.083-0.027,0.166-0.055,0.248-0.083c0.275-0.082,0.551-0.165,0.825-0.274c0.11-0.056,0.22-0.11,0.303-0.165
		c0.22-0.11,0.44-0.22,0.632-0.385c0.11-0.083,0.221-0.165,0.33-0.275c0.166-0.138,0.33-0.303,0.496-0.468
		c0.027-0.055,0.082-0.082,0.137-0.11l15.236-17.408c0.853-0.99,1.348-2.256,1.348-3.575V38.778
		C160.166,38.778,160.139,38.723,160.139,38.668z M82.197,59.487v54.481l-3.355,1.21c-0.742,0.248-1.21,0.881-1.347,1.596V53.821
		L82.197,59.487z M79.584,119.414c0.248,0,0.495-0.055,0.743-0.137l1.897-0.688v4.4l-3.053-3.658
		C79.282,119.359,79.419,119.414,79.584,119.414z M93.088,114.712l5.665-2.008c1.128-0.413,1.733-1.65,1.32-2.778
		c-0.413-1.127-1.65-1.732-2.778-1.319l-4.208,1.513V61.66h18.124v1.1c0,1.21,0.963,2.173,2.173,2.173s2.173-0.963,2.173-2.173v-1.1
		h18.481v48.568l-4.565-1.622c-1.128-0.413-2.365,0.192-2.778,1.319c-0.412,1.128,0.193,2.365,1.32,2.778l6.023,2.146v16.418H93.061
		v-16.556H93.088z M144.93,118.727l1.541,0.551c0.247,0.082,0.494,0.137,0.742,0.137c0.082,0,0.164-0.027,0.247-0.027l-2.503,2.86
		v-3.521H144.93z M147.928,115.179l-2.998-1.072V58.25l4.346-4.979v63.503C149.138,116.06,148.67,115.454,147.928,115.179z
		 M111.9,25.164c0.385,0.357,0.907,0.605,1.485,0.605c0.578,0,1.1-0.22,1.485-0.605l31.104,15.401l-8.938,10.231h-21.81
		c0.192-0.33,0.33-0.688,0.33-1.101v-6.518c0-1.211-0.963-2.173-2.173-2.173s-2.173,0.962-2.173,2.173v6.518
		c0,0.413,0.138,0.771,0.33,1.101H89.101L80.63,40.648L111.9,25.164z"/>
	<path d="M123.341,106.406l-6.134-2.2c-1.127-0.413-2.365,0.192-2.777,1.32c-0.412,1.127,0.193,2.364,1.32,2.777l6.133,2.2
		c0.248,0.082,0.495,0.138,0.742,0.138c0.908,0,1.733-0.551,2.035-1.458C125.046,108.056,124.469,106.818,123.341,106.406z"/>
	<path d="M109.589,104.206l-6.16,2.2c-1.128,0.412-1.733,1.649-1.32,2.777c0.33,0.88,1.155,1.458,2.062,1.458
		c0.248,0,0.495-0.056,0.743-0.138l6.161-2.2c1.127-0.413,1.732-1.65,1.32-2.777C111.955,104.398,110.717,103.793,109.589,104.206z"
		/>
	<path d="M115.558,101.896v-6.518c0-1.211-0.963-2.173-2.173-2.173s-2.173,0.962-2.173,2.173v6.518c0,1.21,0.963,2.173,2.173,2.173
		S115.558,103.105,115.558,101.896z"/>
	<path d="M113.385,38.806c1.21,0,2.173-0.963,2.173-2.173v-6.518c0-1.211-0.963-2.173-2.173-2.173s-2.173,0.962-2.173,2.173v6.518
		C111.212,37.843,112.175,38.806,113.385,38.806z"/>
	<path d="M113.385,91.032c1.21,0,2.173-0.963,2.173-2.173v-6.545c0-1.211-0.963-2.173-2.173-2.173s-2.173,0.962-2.173,2.173v6.518
		C111.212,90.042,112.175,91.032,113.385,91.032z"/>
	<path d="M113.385,77.969c1.21,0,2.173-0.963,2.173-2.173v-6.518c0-1.211-0.963-2.173-2.173-2.173s-2.173,0.962-2.173,2.173v6.518
		C111.212,77.006,112.175,77.969,113.385,77.969z"/>
</g>
</svg>
