<?xml version="1.0" encoding="utf-8"?>
<!-- Generator: Adobe Illustrator 16.0.4, SVG Export Plug-In . SVG Version: 6.00 Build 0)  -->
<!DOCTYPE svg PUBLIC "-//W3C//DTD SVG 1.1//EN" "http://www.w3.org/Graphics/SVG/1.1/DTD/svg11.dtd">
<svg version="1.1" id="Layer_1" xmlns="http://www.w3.org/2000/svg" xmlns:xlink="http://www.w3.org/1999/xlink" x="0px" y="0px"
	 width="50px" height="50px" viewBox="0 0 50 50" enable-background="new 0 0 50 50" xml:space="preserve">
<path d="M40.25,30.132h-1.175v-5.989h-4.154c-1.239-4.519-5.05-7.73-9.558-8.131c0.246-0.261,0.4-0.611,0.4-0.998
	c0-0.806-0.652-1.457-1.457-1.457c-0.804,0-1.455,0.651-1.455,1.457c0,0.398,0.162,0.76,0.422,1.021
	c-4.424,0.472-8.146,3.652-9.369,8.107H9.75v9.674h3.592c0.24,1.484,1.522,2.627,3.075,2.627c1.554,0,2.836-1.143,3.076-2.627h9.84
	c0.24,1.484,1.522,2.627,3.075,2.627s2.835-1.143,3.074-2.627h3.593v-1.686h1.175V30.132L40.25,30.132z M16.417,35.443
	c-1.172,0-2.126-0.954-2.126-2.127c0-1.172,0.954-2.127,2.126-2.127c1.173,0,2.127,0.955,2.127,2.127
	C18.544,34.489,17.59,35.443,16.417,35.443z M32.408,35.443c-1.172,0-2.126-0.954-2.126-2.127c0-1.172,0.954-2.127,2.126-2.127
	s2.126,0.955,2.126,2.127C34.534,34.489,33.58,35.443,32.408,35.443z M38.075,32.816h-2.593c-0.24-1.486-1.522-2.627-3.074-2.627
	c-1.553,0-2.834,1.141-3.075,2.627h-9.84c-0.241-1.486-1.523-2.627-3.076-2.627c-1.552,0-2.834,1.141-3.075,2.627H10.75v-7.674
	h3.938l0.092-0.385c1.093-4.587,5.055-7.791,9.634-7.791c4.58,0,8.542,3.204,9.635,7.791l0.093,0.385h3.937v7.674H38.075z
	 M25.089,27.775v1.457h-1.403v1.457h-1.457v-1.457h1.404v-1.457H25.089z M25.089,29.232h1.457v1.457h-1.457V29.232z M22.229,27.775
	v1.457h-1.457v-1.457H22.229z M23.912,25.359h-7.225l0.032-0.139c0.839-3.514,3.755-6.012,7.191-6.234L23.912,25.359L23.912,25.359z
	 M32.104,25.223l0.033,0.137h-7.226v-6.373C28.35,19.21,31.268,21.708,32.104,25.223z M26.596,27.775h1.457v1.457h-1.457V27.775z"/>
</svg>
