<?xml version="1.0" encoding="utf-8"?>
<!-- Generator: Adobe Illustrator 16.0.4, SVG Export Plug-In . SVG Version: 6.00 Build 0)  -->
<!DOCTYPE svg PUBLIC "-//W3C//DTD SVG 1.1//EN" "http://www.w3.org/Graphics/SVG/1.1/DTD/svg11.dtd">
<svg version="1.1" id="Layer_1" xmlns="http://www.w3.org/2000/svg" xmlns:xlink="http://www.w3.org/1999/xlink" x="0px" y="0px"
	 width="50px" height="50px" viewBox="0 0 50 50" enable-background="new 0 0 50 50" xml:space="preserve">
<path d="M27.838,26.711h1.279v1.279h-1.279V26.711z M26.515,26.711h-1.279v1.277h-1.232v-1.277h-1.279v1.279h1.279v1.277h1.279
	V27.99h1.232v1.277h1.279v-1.279h-1.279V26.711z M25.921,16.268c-1.122,0-2.042,0.828-2.203,1.905h4.405
	C27.961,17.096,27.041,16.268,25.921,16.268z M40,30.009h-1.1v1.418h-3.963c-0.236,1.31-1.379,2.306-2.755,2.306
	s-2.519-0.996-2.756-2.306H20.9c-0.237,1.31-1.379,2.306-2.755,2.306s-2.519-0.996-2.755-2.306h-4.549v-1.418H10v-2h0.841v-3.931
	h6.448l3.175-5.48h12.987l3.176,5.48H38.9v3.931H40V30.009z M19.95,30.927c0-0.995-0.81-1.806-1.805-1.806
	c-0.996,0-1.806,0.811-1.806,1.806c0,0.996,0.81,1.806,1.806,1.806C19.14,32.732,19.95,31.923,19.95,30.927z M33.988,30.927
	c0-0.995-0.81-1.806-1.806-1.806s-1.807,0.811-1.807,1.806c0,0.996,0.811,1.806,1.807,1.806S33.988,31.923,33.988,30.927z
	 M37.9,25.078h-1.85l-3.175-5.48H21.04l-3.175,5.48h-6.024v5.349h3.549c0.237-1.31,1.379-2.306,2.755-2.306
	c1.375,0,2.518,0.996,2.755,2.306h8.527c0.237-1.31,1.38-2.306,2.756-2.306s2.519,0.996,2.755,2.306H37.9V25.078z M26.421,20.742
	v4.27h8.271l-2.475-4.27H26.421z M25.421,20.742H21.7l-2.474,4.27h6.194L25.421,20.742L25.421,20.742z"/>
</svg>
