<?xml version="1.0" encoding="utf-8"?>
<!-- Generator: Adobe Illustrator 16.0.4, SVG Export Plug-In . SVG Version: 6.00 Build 0)  -->
<!DOCTYPE svg PUBLIC "-//W3C//DTD SVG 1.1//EN" "http://www.w3.org/Graphics/SVG/1.1/DTD/svg11.dtd">
<svg version="1.1" id="Layer_1" xmlns="http://www.w3.org/2000/svg" xmlns:xlink="http://www.w3.org/1999/xlink" x="0px" y="0px"
	 width="50px" height="50px" viewBox="0 0 50 50" enable-background="new 0 0 50 50" xml:space="preserve">
<path d="M33.96,31.58H19.275c1.216-0.531,2.532-1.438,3.673-2.58c1.181-1.18,2.042-2.482,2.424-3.672
	c0.095-0.294,0.152-0.574,0.187-0.846c0.013,0.002,0.024,0.009,0.038,0.009c0.133,0,0.26-0.054,0.354-0.146l4.897-4.897
	c0.094-0.094,0.146-0.221,0.146-0.354c0-0.133-0.054-0.26-0.146-0.354l-1.174-1.173c-0.195-0.195-0.512-0.195-0.707,0l-4.726,4.726
	l-0.172,0.172l-8.383,8.384c-0.195,0.193-0.195,0.512,0,0.707c0.059,0.059,0.128,0.104,0.195,0.154
	c-0.104,0.092-0.174,0.223-0.174,0.371c0,0.277,0.224,0.5,0.5,0.5h17.75c0.275,0,0.5-0.223,0.5-0.5
	C34.459,31.805,34.235,31.58,33.96,31.58z M24.424,23.523l0.138,0.14c0.069,0.375,0.027,0.834-0.142,1.358
	c-0.334,1.042-1.108,2.202-2.179,3.272c-1.652,1.652-3.731,2.807-5.058,2.807c-0.112,0-0.215-0.01-0.31-0.025L24.424,23.523z"/>
</svg>
