<?xml version="1.0" encoding="utf-8"?>
<!-- Generator: Adobe Illustrator 16.0.4, SVG Export Plug-In . SVG Version: 6.00 Build 0)  -->
<!DOCTYPE svg PUBLIC "-//W3C//DTD SVG 1.1//EN" "http://www.w3.org/Graphics/SVG/1.1/DTD/svg11.dtd">
<svg version="1.1" id="Layer_1" xmlns="http://www.w3.org/2000/svg" xmlns:xlink="http://www.w3.org/1999/xlink" x="0px" y="0px"
	 width="226.77px" height="155.91px" viewBox="0 0 226.77 155.91" enable-background="new 0 0 226.77 155.91" xml:space="preserve">
<g>
	<path d="M59.791,88.715h107.188c4.036,0,7.308-3.271,7.308-7.309c0-4.036-3.271-7.308-7.308-7.308H59.791
		c-4.037,0-7.309,3.272-7.309,7.308C52.482,85.443,55.754,88.715,59.791,88.715z"/>
	<path d="M113.184,55.828c9.963,0,18.068-8.104,18.068-18.068c0-9.963-8.105-18.068-18.068-18.068
		c-9.962,0-18.069,8.105-18.069,18.068C95.114,47.723,103.22,55.828,113.184,55.828z"/>
	<path d="M131.249,118.15c0-9.963-8.104-18.068-18.068-18.068c-9.961,0-18.068,8.105-18.068,18.068
		c0,9.961,8.104,18.068,18.068,18.068S131.249,128.115,131.249,118.15z"/>
</g>
</svg>
