<?xml version="1.0" encoding="utf-8"?>
<!-- Generator: Adobe Illustrator 16.0.4, SVG Export Plug-In . SVG Version: 6.00 Build 0)  -->
<!DOCTYPE svg PUBLIC "-//W3C//DTD SVG 1.1//EN" "http://www.w3.org/Graphics/SVG/1.1/DTD/svg11.dtd">
<svg version="1.1" id="Capa_1" xmlns="http://www.w3.org/2000/svg" xmlns:xlink="http://www.w3.org/1999/xlink" x="0px" y="0px"
	 width="19.898px" height="17.445px" viewBox="0 0 19.898 17.445" enable-background="new 0 0 19.898 17.445" xml:space="preserve">
<path d="M10.506,12.331c0.606-0.188,1.359-0.289,1.95-0.335v3.833c0,0.893-0.767,1.616-1.707,1.616H1.707
	C0.764,17.445,0,16.722,0,15.829V1.616C0,0.725,0.764,0,1.707,0h9.042c0.94,0,1.707,0.725,1.707,1.616v4.017
	c-0.29,0.083-0.687,0.199-1.071,0.327c-0.182,0.062-0.359,0.127-0.529,0.196c-0.122,0.05-0.232,0.106-0.35,0.159V3.427
	c0-0.7-0.525-1.268-1.171-1.268H3.122c-0.649,0-1.172,0.568-1.172,1.268v10.591c0,0.7,0.524,1.268,1.172,1.268h6.213
	c0.647,0,1.171-0.568,1.171-1.268V12.331z M19.697,8.241l-6.072-4.553c-0.269-0.198-0.483-0.09-0.483,0.241L13.14,6.048
	c0,0.331-0.266,0.656-0.591,0.724c0,0-0.742,0.195-1.426,0.425c-4.071,1.353-4.522,5.195-4.522,5.195
	c-0.132,0.302-0.026,0.383,0.231,0.177c0,0,1.169-0.928,2.209-1.348c1.376-0.558,3.493-0.564,3.493-0.564
	c0.331-0.002,0.602,0.269,0.602,0.6l-0.002,2.264c0,0.332,0.213,0.436,0.475,0.229l6.099-4.774
	C19.967,8.771,19.963,8.44,19.697,8.241z"/>
</svg>
