<?xml version="1.0" encoding="utf-8"?>
<!-- Generator: Adobe Illustrator 16.0.0, SVG Export Plug-In . SVG Version: 6.00 Build 0)  -->
<!DOCTYPE svg PUBLIC "-//W3C//DTD SVG 1.1//EN" "http://www.w3.org/Graphics/SVG/1.1/DTD/svg11.dtd">
<svg version="1.1" id="Layer_1" xmlns="http://www.w3.org/2000/svg" xmlns:xlink="http://www.w3.org/1999/xlink" x="0px" y="0px"
	 width="96px" height="96px" viewBox="0 0 96 96" enable-background="new 0 0 96 96" xml:space="preserve">
<g>
	<path d="M58.125,7.225V9.82c0,2.785-4.158,5.89-10.125,5.89s-10.125-3.104-10.125-5.892V7.223H14.25v88.206h67.5V7.223
		L58.125,7.225z M76.558,90.236H19.442V12.414l13.646,0.002c1.575,4.921,7.563,8.486,14.912,8.486s13.337-3.565,14.912-8.488h13.646
		V90.236z"/>
	<path d="M48,13.423c4.194,0,7.594-1.804,7.594-4.024c0-1.314-1.194-2.479-3.034-3.213c0.071-0.32,0.113-0.648,0.113-0.989
		c0-2.556-2.092-4.625-4.673-4.625s-4.673,2.069-4.673,4.625c0,0.341,0.042,0.669,0.113,0.989c-1.84,0.734-3.034,1.898-3.034,3.213
		C40.406,11.619,43.806,13.423,48,13.423z"/>
	<rect x="25.283" y="29.259" width="11.942" height="4.933"/>
	<rect x="41.64" y="29.259" width="29.077" height="4.933"/>
	<rect x="25.283" y="50.028" width="11.942" height="4.933"/>
	<rect x="41.64" y="50.028" width="29.077" height="4.933"/>
	<rect x="25.283" y="70.798" width="11.942" height="4.933"/>
	<rect x="41.64" y="70.798" width="29.077" height="4.933"/>
</g>
</svg>
