<?xml version="1.0" encoding="utf-8"?>
<!-- Generator: Adobe Illustrator 16.0.0, SVG Export Plug-In . SVG Version: 6.00 Build 0)  -->
<!DOCTYPE svg PUBLIC "-//W3C//DTD SVG 1.1//EN" "http://www.w3.org/Graphics/SVG/1.1/DTD/svg11.dtd">
<svg version="1.1" id="Layer_1" xmlns="http://www.w3.org/2000/svg" xmlns:xlink="http://www.w3.org/1999/xlink" x="0px" y="0px"
	 width="96px" height="96px" viewBox="0 0 96 96" enable-background="new 0 0 96 96" xml:space="preserve">
<g>
	<path d="M76.811,33.024c0,2.049,1.451,2.342,2.689,2.342c1.324,0,2.036-0.203,2.395-0.489v-4.243c0,0-0.941-0.052-2.313-0.052
		C77.486,30.582,76.811,32.015,76.811,33.024z"/>
	<path d="M95.092,18.809C95.333-0.5,79.792,3.125,74.373,4.997l-39.871,13.03c0,0-1.704,0.831-1.991,0.183
		c-0.3-0.677,1.149-1.295,1.149-1.295l15.244-9.427c0,0,2.297-1.177,2.345-2.821c0.039-1.342-0.392-2.091-1.967-2.091H18.809v0.024
		c-9.96,0.414-17.9,8.61-17.9,18.673c0,5.486,2.361,10.422,6.125,13.842l56.665,53.354c3.333,3.082,7.799,4.955,12.697,4.955
		c18.855,0.514,18.697-16.207,18.697-16.207v-2.49V21.273C95.092,21.273,94.85,38.117,95.092,18.809z M27.761,38.215
		c-5.327,0-7.463-1.273-7.463-4.535V15.393h3.984v17.354c0,0.869,0.192,1.553,0.86,2.053c0.718,0.3,1.541,0.251,2.619,0.251V38.215z
		 M35.213,37.929h-3.957V24.741h-2.299v-2.316h6.256V37.929z M53.338,38.148h-3.979v-9.966c0-1.137-0.905-2.286-2.875-2.307
		c-1.602,0-3.088,1.305-3.088,2.581v9.691h-4.057V22.499h4.064l-0.008,2.016c1.021-1.538,1.891-2.309,4.205-2.309
		c3.826,0,5.738,2.085,5.738,6.254V38.148z M63.396,38.604c-1.974,0-3.651-0.692-5.029-2.078c-1.535-1.527-2.302-3.58-2.302-6.159
		c0-2.68,0.787-4.828,2.361-6.446c1.408-1.446,3.075-2.169,5-2.169c2.239,0,3.994,0.652,5.265,1.957
		c1.231,1.254,1.847,2.917,1.847,4.99c0,0.637-0.073,2.105-0.22,2.642H59.919c0,1.9,0.503,2.279,1.15,3.021
		c0.608,0.648,1.913,1.054,3.311,1.054c1.312,0,2.441-0.199,3.787-0.879l1.414,3.08C67.537,38.253,65.364,38.592,63.396,38.604z
		 M85.556,47.917L85.556,47.917l-0.027,31.827c0,1.718-1.722,3.356-3.701,3.37l-7.641,0.056l-0.033-25.98l-7.157,0.002v-5.124
		c5.3-1,6.688-3.766,8.728-7.132l6.982,0.02C84.066,44.955,85.557,46.509,85.556,47.917L85.556,47.917L85.556,47.917z M85.549,37.74
		c0,0-2.039,0.77-4.826,0.77l-3.298-0.013h0c-1.317,0-2.459-0.457-3.426-1.372c-0.967-0.914-1.45-2.051-1.45-3.409
		c0-1.629,0.745-3.005,2.234-4.129c2.447-1.444,4.598-2.122,6.831-1.396c0-1.616-0.891-3.196-2.635-3.196
		c-1.861,0-2.993,0.34-4.297,0.838l-1.254-2.383c0.564-0.439,1.346-0.817,2.345-1.131c0.998-0.315,1.952-0.474,2.861-0.474
		c2.436,0,4.205,0.53,5.309,1.59c1.103,1.06,1.614,2.722,1.614,5.03C85.556,28.465,85.551,35.598,85.549,37.74z"/>
	<path d="M63.558,24.94c-2.362,0-3.524,1.892-3.524,3.544h6.891C66.924,26.73,65.429,24.989,63.558,24.94z"/>
</g>
</svg>
