<?xml version="1.0" encoding="utf-8"?>
<!-- Generator: Adobe Illustrator 17.0.0, SVG Export Plug-In . SVG Version: 6.00 Build 0)  -->
<!DOCTYPE svg PUBLIC "-//W3C//DTD SVG 1.1//EN" "http://www.w3.org/Graphics/SVG/1.1/DTD/svg11.dtd">
<svg version="1.1" id="Capa_1" xmlns="http://www.w3.org/2000/svg" xmlns:xlink="http://www.w3.org/1999/xlink" x="0px" y="0px"
	 width="17.768px" height="17.887px" viewBox="0 0 17.768 17.887" enable-background="new 0 0 17.768 17.887" xml:space="preserve">
<path d="M17.202,6.025l-0.11-1.956l-0.009-0.151l-0.141,0.05l-0.049,0.018l-0.002-0.034l-0.142,0.052l-4.652,1.652l1.579-4.8
	l0.047-0.145l-0.152-0.003l-0.054-0.003l0.022-0.075l-0.151-0.004l-1.959-0.058h-0.012l-0.012,0.003
	c-0.06,0.011-0.124,0.025-0.195,0.047l-0.017-0.001l-0.012-0.001L11.17,0.618c-0.76,0.14-1.339,0.631-1.586,1.349L9.583,1.973
	L9.582,1.981l-1.11,4.998l-3.186,1.13C5.159,7.837,4.986,7.592,4.767,7.381c-0.98-0.952-2.55-0.931-3.502,0.048
	c-0.953,0.98-0.931,2.551,0.049,3.503c0.979,0.953,2.55,0.931,3.502-0.049c0.129-0.133,0.245-0.284,0.345-0.452l2.697-0.689
	l-0.685,3.089c-0.121,0.085-0.232,0.182-0.331,0.284c-0.953,0.979-0.933,2.551,0.047,3.503s2.551,0.931,3.502-0.048
	c0.953-0.98,0.931-2.551-0.049-3.503c-0.2-0.196-0.432-0.355-0.685-0.472l1.171-3.613l5.041-1.289l0.009-0.003l0.01-0.004
	c0.773-0.344,1.19-0.863,1.314-1.634l0.001-0.012L17.202,6.025z M3.806,9.901c-0.41,0.421-1.088,0.431-1.51,0.02
	c-0.422-0.411-0.431-1.09-0.02-1.51c0.41-0.421,1.088-0.432,1.51-0.021C4.208,8.801,4.217,9.478,3.806,9.901z M9.383,15.585
	c-0.41,0.422-1.088,0.432-1.51,0.02c-0.422-0.41-0.431-1.087-0.02-1.51c0.41-0.421,1.088-0.432,1.509-0.021
	C9.784,14.486,9.793,15.163,9.383,15.585z"/>
</svg>
