<?xml version="1.0" encoding="utf-8"?>
<!-- Generator: Adobe Illustrator 16.0.4, SVG Export Plug-In . SVG Version: 6.00 Build 0)  -->
<!DOCTYPE svg PUBLIC "-//W3C//DTD SVG 1.1//EN" "http://www.w3.org/Graphics/SVG/1.1/DTD/svg11.dtd">
<svg version="1.1" id="Layer_1" xmlns="http://www.w3.org/2000/svg" xmlns:xlink="http://www.w3.org/1999/xlink" x="0px" y="0px"
	 width="50px" height="50px" viewBox="0 0 50 50" enable-background="new 0 0 50 50" xml:space="preserve">
<path d="M32.086,16.211c-0.198-0.14-0.47-0.116-0.643,0.058l-9.728,9.837c-0.066-0.059-0.127-0.12-0.2-0.171
	c-1.062-0.745-2.641-0.46-3.376,0.595c-0.372,0.53-0.515,1.174-0.402,1.812c0.112,0.639,0.466,1.194,0.997,1.566
	c0.41,0.287,0.89,0.439,1.389,0.439c0.791,0,1.534-0.388,1.988-1.034c0.301-0.431,0.444-0.936,0.431-1.45l1.882,1.319
	c-0.49,0.155-0.936,0.449-1.238,0.882c-0.767,1.095-0.501,2.609,0.594,3.378c0.411,0.287,0.891,0.438,1.39,0.438
	c0.792,0,1.536-0.387,1.99-1.033c0.372-0.53,0.515-1.175,0.401-1.812c-0.111-0.638-0.466-1.194-0.997-1.566
	c-0.072-0.051-0.152-0.085-0.229-0.126l5.919-12.507C32.355,16.615,32.286,16.352,32.086,16.211z M21.292,28.739
	c-0.434,0.62-1.36,0.788-1.984,0.35c-0.312-0.218-0.52-0.545-0.586-0.92s0.018-0.753,0.236-1.064
	c0.266-0.38,0.702-0.607,1.168-0.607c0.293,0,0.575,0.089,0.816,0.258c0.312,0.219,0.52,0.545,0.586,0.92
	C21.595,28.049,21.511,28.427,21.292,28.739z M26.576,31.208c0.065,0.375-0.019,0.753-0.236,1.064
	c-0.434,0.621-1.362,0.787-1.986,0.351c-0.643-0.451-0.799-1.342-0.348-1.986c0.266-0.38,0.703-0.606,1.169-0.606
	c0.292,0,0.576,0.089,0.816,0.257C26.301,30.506,26.509,30.833,26.576,31.208z M25.518,28.728l-2.946-2.063l7.522-7.605
	L25.518,28.728z"/>
</svg>
