<?xml version="1.0" encoding="utf-8"?>
<!-- Generator: Adobe Illustrator 16.0.4, SVG Export Plug-In . SVG Version: 6.00 Build 0)  -->
<!DOCTYPE svg PUBLIC "-//W3C//DTD SVG 1.1//EN" "http://www.w3.org/Graphics/SVG/1.1/DTD/svg11.dtd">
<svg version="1.1" id="Layer_1" xmlns="http://www.w3.org/2000/svg" xmlns:xlink="http://www.w3.org/1999/xlink" x="0px" y="0px"
	 width="50px" height="50px" viewBox="0 0 50 50" enable-background="new 0 0 50 50" xml:space="preserve">
<path d="M28.934,19.472v-3.359h-2.697c1.545-0.526,2.666-1.975,2.666-3.694c0-2.161-1.759-3.919-3.92-3.919
	c-2.161,0-3.918,1.758-3.918,3.919c0,1.72,1.121,3.168,2.664,3.694h-2.385v3.359h2.38v1.5h-2.38v1.68h2.38v1.46h-2.38v1.679h2.38
	v1.46h-2.38v1.681h2.38v1.459h-2.38v1.681h2.38v1.459h-2.38v1.68h2.38v0.556c-1.03,0.479-1.75,1.516-1.75,2.725
	c0,1.66,1.351,3.01,3.01,3.01c1.66,0,3.011-1.35,3.011-3.01c0-1.208-0.721-2.246-1.75-2.725V35.21h2.691v-1.68h-2.691v-1.459h2.691
	v-1.681h-2.691v-1.459h2.691v-1.681h-2.691v-1.46h2.691v-1.679h-2.691v-1.46h2.691v-1.68h-2.691v-1.5H28.934z M22.744,12.418
	c0-1.235,1.004-2.24,2.239-2.24c1.236,0,2.241,1.004,2.241,2.24c0,1.235-1.005,2.24-2.241,2.24
	C23.748,14.658,22.744,13.653,22.744,12.418z M24.981,39.818c-0.733,0-1.33-0.596-1.33-1.329c0-0.734,0.597-1.33,1.33-1.33
	c0.733,0,1.331,0.596,1.331,1.33C26.312,39.223,25.715,39.818,24.981,39.818z"/>
</svg>
