<?xml version="1.0" encoding="utf-8"?>
<!-- Generator: Adobe Illustrator 16.0.4, SVG Export Plug-In . SVG Version: 6.00 Build 0)  -->
<!DOCTYPE svg PUBLIC "-//W3C//DTD SVG 1.1//EN" "http://www.w3.org/Graphics/SVG/1.1/DTD/svg11.dtd">
<svg version="1.1" id="Layer_1" xmlns="http://www.w3.org/2000/svg" xmlns:xlink="http://www.w3.org/1999/xlink" x="0px" y="0px"
	 width="226.77px" height="155.91px" viewBox="0 0 226.77 155.91" enable-background="new 0 0 226.77 155.91" xml:space="preserve">
<g>
	<path d="M154.061,121.684H72.709c-3.383,0-6.105,2.723-6.105,6.105s2.723,6.105,6.105,6.105h81.352
		c3.383,0,6.105-2.723,6.105-6.105S157.416,121.684,154.061,121.684z"/>
	<path d="M72.709,74.902h34.57v34.57c0,3.383,2.723,6.105,6.105,6.105s6.105-2.723,6.105-6.105v-34.57h34.57
		c3.383,0,6.105-2.723,6.105-6.105s-2.723-6.105-6.105-6.105h-34.57v-34.57c0-3.383-2.723-6.105-6.105-6.105
		s-6.105,2.723-6.105,6.105v34.57h-34.57c-3.383,0-6.105,2.723-6.105,6.105S69.354,74.902,72.709,74.902z"/>
</g>
</svg>
