<?xml version="1.0" encoding="utf-8"?>
<!-- Generator: Adobe Illustrator 16.0.4, SVG Export Plug-In . SVG Version: 6.00 Build 0)  -->
<!DOCTYPE svg PUBLIC "-//W3C//DTD SVG 1.1//EN" "http://www.w3.org/Graphics/SVG/1.1/DTD/svg11.dtd">
<svg version="1.1" id="Layer_1" xmlns="http://www.w3.org/2000/svg" xmlns:xlink="http://www.w3.org/1999/xlink" x="0px" y="0px"
	 width="226.77px" height="155.91px" viewBox="0 0 226.77 155.91" enable-background="new 0 0 226.77 155.91" xml:space="preserve">
<path d="M154.556,72.345l-36.386,0.11v-35.67c0-3.108-2.502-5.61-5.61-5.61c-3.107,0-5.61,2.502-5.61,5.61l0.11,35.561H72.214
	c-3.108,0-5.61,2.502-5.61,5.61c0,3.107,2.502,5.61,5.61,5.61h34.791v35.561c0,3.107,2.502,5.61,5.61,5.61s5.61-2.503,5.61-5.61
	V83.565h36.331c3.108,0,5.61-2.503,5.61-5.61C160.166,74.847,157.636,72.345,154.556,72.345z"/>
</svg>
