<?xml version="1.0" encoding="utf-8"?>
<!-- Generator: Adobe Illustrator 17.1.0, SVG Export Plug-In . SVG Version: 6.00 Build 0)  -->
<!DOCTYPE svg PUBLIC "-//W3C//DTD SVG 1.1//EN" "http://www.w3.org/Graphics/SVG/1.1/DTD/svg11.dtd">
<svg version="1.1" xmlns="http://www.w3.org/2000/svg" xmlns:xlink="http://www.w3.org/1999/xlink" x="0px" y="0px"
	 viewBox="0 0 64 64" enable-background="new 0 0 64 64" xml:space="preserve">
<g id="Imagenes">
</g>
<g id="Layer_2">
	<path d="M59.958,22.652c-2.417-0.223-19.015-2.528-32.874,0.598c-3.958-1.75-5.996-2.198-8.917-3.25
		c-1.304-0.47-2.95-0.761-4.319-0.989c-2.72-0.452-4.799,0.131-5.72,3.278c-1.541,5.264-3.396,10.435-5.404,16.51
		c1.581-0.088,4.234-0.924,4.234-0.924L12,37.042l-1.042,7L17,42v6.042l7-3.125l2,5.167c0,0,4.669-3.564,6-5.167
		C34.936,53.663,42.938,56,50.375,52.25c2.24-1.13,4.174-4.877,5.033-6.824c2.502-5.671,1.213-9.8-0.616-14.343
		c2.118-1,3.562-1.408,6.938-3.203C63.625,26.917,64,23.167,59.958,22.652z M9.349,26.745c1.247-0.878,1.945,0.093,3.609-1.078
		c0.729-0.542,0.479-1.979-0.475-2.291c-0.418-0.137-0.703-0.303-1.26-0.543c-0.779-0.312-0.089-2.1,0.766-1.953
		c1.615,0.269,2.57,0.315,3.363,1.268c0.91,1.093,0.942,3.877,0.522,4.794c-0.999,2.184-3.687,1.996-5.639,1.803
		C8.75,28.625,8.658,27.259,9.349,26.745z M32.431,42.517c-5.429,0.699-10.763,0.083-14.898-4.425
		c-2.649-2.888-5.985-4.83-9.271-7.175c3.016-1.163,6.744-0.531,8.866,2.688c4.746,7.199,11.121,7.454,18.498,5.882
		c2.523-0.538,5.532-0.842,8.032-0.312c2.75,0.583,3.062,3.267,1.259,5.032c-1.906,2.068-4.083-0.083-3.083-0.667
		c0.833-0.458,1.322-1.15,1.096-2.014c-0.648-1.011-2.27-0.311-3.303-0.149C36.706,41.837,35.354,42.141,32.431,42.517z
		 M52.103,46.084c-2.528,3.588-5.728,5.853-10.54,4.978c-2.912-0.529-6.422-3.156-5.625-6.812c3.562,4.375,10,3.75,12,0.125
		c1.729-3.134-0.433-6.536-2.488-6.991c-3.208-0.709-7.309-0.014-10.602,0.461c-6.126,0.883-10.926,0.817-15.956-4.585
		c-2.726-2.927,1.608-5.594-0.809-11.219c4.638,0.897,7.542,2.375,9.333,8.292c1.181,3.9,6.18,6.413,11.583,5.583
		c3.977-0.611,8.566-2.392,12.518-3.331C54.976,37.586,54.833,42.208,52.103,46.084z M32.862,31.707
		c3.326-1.269,6.763-0.957,9.868,0C39.375,34.812,34.25,34.312,32.862,31.707z M58.042,27.042
		c-3.708,1.813-6.375,2.625-10.333,3.875c-0.538,0.17-1.453,0.109-1.928-0.227c-4.999-3.536-12.01-2.868-14.885-0.658
		c-1.937-1.198-2.2-4.453,0.879-5.156c8.767-2,18.766-1.427,26.017,0.083C59.25,25.417,59.056,26.615,58.042,27.042z"/>
</g>
</svg>
