<?xml version="1.0" encoding="utf-8"?>
<!-- Generator: Adobe Illustrator 16.0.4, SVG Export Plug-In . SVG Version: 6.00 Build 0)  -->
<!DOCTYPE svg PUBLIC "-//W3C//DTD SVG 1.1//EN" "http://www.w3.org/Graphics/SVG/1.1/DTD/svg11.dtd">
<svg version="1.1" id="Layer_1" xmlns="http://www.w3.org/2000/svg" xmlns:xlink="http://www.w3.org/1999/xlink" x="0px" y="0px"
	 width="50px" height="50px" viewBox="0 0 50 50" enable-background="new 0 0 50 50" xml:space="preserve">
<path d="M33.574,10.513c-0.092-0.142-0.248-0.228-0.416-0.229c-0.193,0-0.326,0.083-0.42,0.225
	c-0.398,0.603-3.893,5.959-3.898,8.254c-0.008,2.27,1.598,4.149,3.68,4.476c-0.018,3.692-2.162,6.884-5.266,8.43v-2.034
	c0-0.365-0.205-0.673-0.5-0.847V26.92c1.275-0.296,2.244-1.693,2.244-3.374c0-1.896-1.23-3.438-2.744-3.438
	c-1.512,0-2.742,1.542-2.742,3.438c0,1.681,0.969,3.078,2.242,3.374v1.868c-0.293,0.174-0.5,0.479-0.5,0.847v2.762
	c-0.707,0.17-1.443,0.27-2.203,0.27c-0.859,0-1.688-0.125-2.479-0.34v-2.689c0-0.367-0.207-0.674-0.5-0.848v-2.023
	c1.363-0.238,2.404-1.424,2.404-2.854v-2.857c0-0.276-0.226-0.5-0.5-0.5c-0.277,0-0.5,0.224-0.5,0.5v2.857
	c0,0.875-0.599,1.607-1.404,1.828v-4.686c0-0.276-0.225-0.5-0.5-0.5c-0.277,0-0.5,0.224-0.5,0.5v4.686
	c-0.807-0.221-1.404-0.953-1.404-1.828v-2.857c0-0.276-0.223-0.5-0.5-0.5c-0.275,0-0.5,0.224-0.5,0.5v2.857
	c0,1.43,1.041,2.613,2.404,2.854v2.023c-0.295,0.174-0.5,0.48-0.5,0.848v1.9c-2.969-1.602-4.99-4.738-4.99-8.339
	c0-5.222,4.248-9.47,9.469-9.47c1.699,0,3.367,0.456,4.822,1.317c0.236,0.139,0.543,0.063,0.686-0.175
	c0.142-0.238,0.062-0.544-0.176-0.685c-1.609-0.953-3.453-1.457-5.332-1.457c-5.773,0-10.469,4.697-10.469,10.47
	c0,4.169,2.455,7.766,5.99,9.448v6.069c0,0.552,0.447,1,1,1s1-0.448,1-1v-5.358c0.797,0.194,1.623,0.31,2.479,0.31
	c0.756,0,1.492-0.085,2.203-0.237v5.286c0,0.552,0.447,1,1,1s1-0.448,1-1V32.78c3.664-1.614,6.234-5.263,6.264-9.51
	c2.174-0.201,3.894-2.1,3.9-4.433C37.424,16.539,33.969,11.123,33.574,10.513z M26.254,25.93c-0.055,0-0.105,0.016-0.156,0.032
	c-0.887-0.112-1.586-1.146-1.586-2.416c0-1.344,0.781-2.438,1.742-2.438s1.744,1.093,1.744,2.438c0,1.269-0.701,2.304-1.588,2.416
	C26.361,25.945,26.311,25.93,26.254,25.93z M33.617,22.256l0.002-0.809l1.654-1.302c0.217-0.171,0.254-0.485,0.082-0.702
	c-0.172-0.217-0.486-0.254-0.701-0.083l-1.031,0.811l0.004-0.959l1.654-1.303c0.217-0.171,0.254-0.485,0.082-0.702
	c-0.17-0.217-0.484-0.254-0.701-0.083l-1.031,0.812l0.004-1.517c0.002-0.276-0.223-0.5-0.498-0.501c0,0,0,0-0.002,0
	c-0.275,0-0.498,0.223-0.5,0.499l-0.004,1.562l-1.012-0.875c-0.209-0.179-0.523-0.159-0.705,0.051
	c-0.18,0.209-0.158,0.525,0.051,0.706l1.662,1.437l-0.004,0.918l-1.014-0.875c-0.209-0.179-0.525-0.157-0.705,0.053
	c-0.18,0.209-0.156,0.525,0.053,0.705l1.662,1.433l-0.002,0.717c-1.574-0.275-2.783-1.73-2.777-3.482
	c0.004-1.495,2.105-5.14,3.311-7.051c1.191,1.932,3.271,5.619,3.269,7.117C36.414,20.577,35.193,22.01,33.617,22.256z"/>
</svg>
