<?xml version="1.0" encoding="utf-8"?>
<!-- Generator: Adobe Illustrator 16.0.0, SVG Export Plug-In . SVG Version: 6.00 Build 0)  -->
<!DOCTYPE svg PUBLIC "-//W3C//DTD SVG 1.1//EN" "http://www.w3.org/Graphics/SVG/1.1/DTD/svg11.dtd">
<svg version="1.1" id="Layer_1" xmlns="http://www.w3.org/2000/svg" xmlns:xlink="http://www.w3.org/1999/xlink" x="0px" y="0px"
	 width="96px" height="96px" viewBox="0 0 96 96" enable-background="new 0 0 96 96" xml:space="preserve">
<g>
	<path d="M72.407,11.212c1.28-0.106,2.545-0.101,3.798-0.041C68.389,5.176,58.612,1.604,48,1.604c-1.75,0-3.477,0.105-5.177,0.295
		l0.582,38.453C46.144,24.669,57.661,12.442,72.407,11.212z"/>
	<path d="M80.448,14.852c-1.457,0.341-2.886,0.763-4.25,1.289c-12.088,4.654-18.438,17.388-14.182,28.441
		c4.257,11.053,17.505,16.24,29.594,11.586c0.756-0.291,1.498-0.64,2.234-1.012c0.362-2.332,0.551-4.722,0.551-7.156
		C94.396,35.009,89.051,23.273,80.448,14.852z"/>
	<path d="M55.392,39.82c0-13.43,10.14-24.529,23.374-26.536c-0.281-0.25-0.565-0.496-0.854-0.739
		c-1.095-0.042-2.186-0.04-3.263,0.052c-15.943,1.328-27.65,16.966-26.152,34.929c1.498,17.961,15.636,31.444,31.576,30.112
		c1.388-0.115,2.777-0.345,4.157-0.67c2.746-3.429,5.015-7.253,6.706-11.378c-2.499,0.722-5.142,1.123-7.882,1.123
		C67.776,66.713,55.392,54.673,55.392,39.82z"/>
	<path d="M43.645,56.109L44.22,94.23c1.249,0.102,2.507,0.166,3.78,0.166c10.082,0,19.404-3.226,27.014-8.687
		C59.989,85.093,47.029,72.801,43.645,56.109z"/>
	<path d="M1.604,48c0,8.744,2.421,16.922,6.628,23.904c5.561-7.744,23.106-60.86,25.464-68.044C15.073,9.893,1.604,27.369,1.604,48z
		"/>
	<path d="M17.405,82.866c3.842,3.372,8.242,6.122,13.049,8.087l9.453-88.631c-1.24,0.218-2.467,0.476-3.671,0.79L17.405,82.866z"/>
</g>
</svg>
