<?xml version="1.0" encoding="utf-8"?>
<!-- Generator: Adobe Illustrator 16.0.4, SVG Export Plug-In . SVG Version: 6.00 Build 0)  -->
<!DOCTYPE svg PUBLIC "-//W3C//DTD SVG 1.1//EN" "http://www.w3.org/Graphics/SVG/1.1/DTD/svg11.dtd">
<svg version="1.1" id="Layer_1" xmlns="http://www.w3.org/2000/svg" xmlns:xlink="http://www.w3.org/1999/xlink" x="0px" y="0px"
	 width="50px" height="50px" viewBox="0 0 50 50" enable-background="new 0 0 50 50" xml:space="preserve">
<path d="M33.621,18.799c-2.16-1.318-6.553,0.68-7.699,1.244c-0.275-0.134-0.789-0.37-1.422-0.624
	c-0.174-2.417-2.174-4.337-4.631-4.337c-2.574,0-4.668,2.093-4.668,4.667c0,1.617,0.828,3.042,2.082,3.88
	c0.83,4.6,4.111,11.289,8.641,11.289c4.898,0,8.875-8.278,8.875-13.682C34.799,20.095,34.402,19.275,33.621,18.799z M16.201,19.75
	c0-2.021,1.645-3.667,3.668-3.667c1.934,0,3.508,1.513,3.639,3.417c-0.012,0.021-0.029,0.037-0.037,0.06
	c-0.055,0.145-0.033,0.296,0.039,0.421c-0.121,1.913-1.699,3.436-3.641,3.436C17.846,23.417,16.201,21.771,16.201,19.75z
	 M25.924,33.918c-3.264,0-6.447-4.984-7.514-9.758c0.461,0.153,0.945,0.256,1.459,0.256c2.32,0,4.234-1.71,4.59-3.933
	c0.414,0.173,0.748,0.328,0.965,0.431v6.859c0,0.276,0.223,0.5,0.5,0.5c0.275,0,0.5-0.224,0.5-0.5v-6.862
	c1.576-0.767,5.172-2.176,6.678-1.258c0.469,0.286,0.697,0.804,0.697,1.583C33.799,26.014,30.117,33.918,25.924,33.918z
	 M19.369,20.25h-2.133c-0.277,0-0.5-0.224-0.5-0.5s0.223-0.5,0.5-0.5h2.133V17.12c0-0.276,0.223-0.5,0.5-0.5
	c0.275,0,0.5,0.224,0.5,0.5v2.131h2.129c0.277,0,0.5,0.224,0.5,0.5s-0.223,0.5-0.5,0.5h-2.129v2.131c0,0.276-0.225,0.5-0.5,0.5
	c-0.277,0-0.5-0.224-0.5-0.5V20.25z"/>
</svg>
