<?xml version="1.0" encoding="utf-8"?>
<!-- Generator: Adobe Illustrator 16.0.4, SVG Export Plug-In . SVG Version: 6.00 Build 0)  -->
<!DOCTYPE svg PUBLIC "-//W3C//DTD SVG 1.1//EN" "http://www.w3.org/Graphics/SVG/1.1/DTD/svg11.dtd">
<svg version="1.1" id="Layer_1" xmlns="http://www.w3.org/2000/svg" xmlns:xlink="http://www.w3.org/1999/xlink" x="0px" y="0px"
	 width="50px" height="50px" viewBox="0 0 50 50" enable-background="new 0 0 50 50" xml:space="preserve">
<path d="M28.293,21.449c0,0.553-0.447,1-1,1h-1.42v1.42c0,0.553-0.447,1-1,1s-1-0.447-1-1v-1.42h-1.422c-0.553,0-1-0.447-1-1
	s0.447-1,1-1h1.422v-1.42c0-0.553,0.447-1,1-1s1,0.447,1,1v1.42h1.42C27.846,20.449,28.293,20.896,28.293,21.449z M24.625,26.893
	c-4.953,0-8.834-2.344-8.834-5.334c0-2.992,3.881-5.334,8.834-5.334s8.832,2.342,8.832,5.334
	C33.457,24.549,29.578,26.893,24.625,26.893z M32.457,21.559c0-2.35-3.586-4.334-7.832-4.334s-7.834,1.984-7.834,4.334
	c0,2.351,3.588,4.334,7.834,4.334S32.457,23.908,32.457,21.559z M34.209,28.725c0,1.332-1.084,2.416-2.418,2.416
	c-1.332,0-2.416-1.084-2.416-2.416s1.084-2.416,2.416-2.416C33.125,26.309,34.209,27.393,34.209,28.725z M33.209,28.725
	c0-0.781-0.637-1.416-1.418-1.416s-1.416,0.635-1.416,1.416s0.635,1.416,1.416,1.416S33.209,29.506,33.209,28.725z M29.842,32.057
	c0,0.947-0.77,1.719-1.717,1.719s-1.719-0.771-1.719-1.719c0-0.947,0.771-1.717,1.719-1.717S29.842,31.109,29.842,32.057z
	 M28.842,32.057c0-0.395-0.322-0.717-0.717-0.717c-0.396,0-0.719,0.322-0.719,0.717c0,0.396,0.322,0.719,0.719,0.719
	C28.52,32.775,28.842,32.453,28.842,32.057z"/>
</svg>
