<?xml version="1.0" encoding="utf-8"?>
<!-- Generator: Adobe Illustrator 16.0.4, SVG Export Plug-In . SVG Version: 6.00 Build 0)  -->
<!DOCTYPE svg PUBLIC "-//W3C//DTD SVG 1.1//EN" "http://www.w3.org/Graphics/SVG/1.1/DTD/svg11.dtd">
<svg version="1.1" id="Layer_1" xmlns="http://www.w3.org/2000/svg" xmlns:xlink="http://www.w3.org/1999/xlink" x="0px" y="0px"
	 width="50px" height="50px" viewBox="0 0 50 50" enable-background="new 0 0 50 50" xml:space="preserve">
<path d="M29.889,19.352c-1.55-0.858-3.601-0.597-4.888,0.594c-1.29-1.19-3.339-1.452-4.888-0.594c-1.345,0.74-2.18,2.153-2.18,3.687
	c0,0.444,0.071,0.883,0.197,1.254c0.289,1.302,1.505,2.708,2.817,3.903l-2.043,1.955c-0.2,0.191-0.207,0.509-0.016,0.707
	c0.098,0.104,0.23,0.154,0.361,0.154c0.125,0,0.249-0.046,0.346-0.139l2.109-2.02c1.497,1.25,2.913,2.148,3.031,2.224
	c0.081,0.051,0.173,0.075,0.266,0.075s0.185-0.024,0.266-0.075c0.242-0.152,5.93-3.754,6.588-6.736
	c0.141-0.421,0.211-0.858,0.211-1.302C32.068,21.506,31.232,20.093,29.889,19.352z M30.895,24.075
	c-0.457,2.064-4.184,4.867-5.893,5.984c-0.657-0.43-1.613-1.109-2.567-1.902l0.907-0.869c0.481,0.347,1.053,0.54,1.658,0.54
	c0.76,0,1.475-0.295,2.012-0.831c0.539-0.536,0.836-1.248,0.836-2.006c0-0.759-0.297-1.472-0.836-2.007
	c-1.074-1.07-2.95-1.067-4.022,0.004c-0.539,0.535-0.835,1.248-0.835,2.007c0,0.573,0.17,1.118,0.485,1.582l-0.963,0.923
	c-1.243-1.126-2.341-2.39-2.583-3.474c-0.106-0.317-0.16-0.649-0.16-0.986c0-1.168,0.637-2.245,1.663-2.811
	c0.471-0.263,1.006-0.399,1.546-0.399c0.958,0,1.86,0.424,2.475,1.163c0.095,0.113,0.236,0.181,0.385,0.181l0,0
	c0.148,0,0.29-0.065,0.385-0.181c0.956-1.156,2.708-1.49,4.016-0.764c1.027,0.565,1.664,1.644,1.664,2.812
	C31.068,23.375,31.016,23.707,30.895,24.075z M23.154,24.994c0-0.49,0.192-0.951,0.541-1.3c0.349-0.348,0.814-0.539,1.308-0.539
	c0.493,0,0.956,0.189,1.304,0.537c0.348,0.347,0.541,0.808,0.541,1.298c0,0.489-0.193,0.95-0.541,1.298
	c-0.699,0.694-1.916,0.694-2.614,0.001C23.346,25.943,23.154,25.483,23.154,24.994z"/>
</svg>
