<?xml version="1.0" encoding="utf-8"?>
<!-- Generator: Adobe Illustrator 16.0.4, SVG Export Plug-In . SVG Version: 6.00 Build 0)  -->
<!DOCTYPE svg PUBLIC "-//W3C//DTD SVG 1.1//EN" "http://www.w3.org/Graphics/SVG/1.1/DTD/svg11.dtd">
<svg version="1.1" id="Layer_1" xmlns="http://www.w3.org/2000/svg" xmlns:xlink="http://www.w3.org/1999/xlink" x="0px" y="0px"
	 width="50px" height="50px" viewBox="0 0 50 50" enable-background="new 0 0 50 50" xml:space="preserve">
<path d="M25.002,20.387c-1.975,0-3.58,1.605-3.58,3.578s1.605,3.58,3.58,3.58c1.973,0,3.578-1.607,3.578-3.58
	S26.975,20.387,25.002,20.387z M25.002,26.545c-1.422,0-2.58-1.158-2.58-2.58s1.158-2.578,2.58-2.578s2.578,1.156,2.578,2.578
	S26.424,26.545,25.002,26.545z M26.543,23.479c0.277,0,0.5,0.224,0.5,0.5c0,0.275-0.223,0.5-0.5,0.5h-1.041v1.105
	c0,0.277-0.225,0.5-0.5,0.5c-0.277,0-0.5-0.223-0.5-0.5v-1.105h-1.041c-0.277,0-0.5-0.225-0.5-0.5c0-0.276,0.223-0.5,0.5-0.5h1.041
	v-0.975c0-0.277,0.223-0.5,0.5-0.5c0.275,0,0.5,0.223,0.5,0.5v0.975H26.543z M32.918,18.725h-3.596v-1.563
	c0-0.591-0.559-1.052-1.271-1.052H21.95c-0.714,0-1.271,0.461-1.271,1.052v1.563h-3.596c-1.379,0-2.5,1.121-2.5,2.5v10.166
	c0,1.379,1.121,2.5,2.5,2.5h15.832c1.379,0,2.5-1.121,2.5-2.5V21.225C35.418,19.846,34.297,18.725,32.918,18.725z M28.959,27.475
	c-0.275,0-0.5,0.224-0.5,0.5v0.502h-6.916v-0.502c0-0.276-0.223-0.5-0.5-0.5c-0.275,0-0.5,0.224-0.5,0.5v0.502h-1.154
	c-0.506,0-0.918-0.412-0.918-0.918v-7.834h13.062v7.834c0,0.506-0.412,0.918-0.918,0.918h-1.156v-0.502
	C29.459,27.697,29.236,27.475,28.959,27.475z M21.672,17.201c0.016-0.025,0.113-0.092,0.279-0.092h6.102
	c0.16,0,0.256,0.072,0.27,0.051v1.564H21.68L21.672,17.201z M34.418,31.391c0,0.828-0.672,1.5-1.5,1.5H17.086
	c-0.828,0-1.5-0.672-1.5-1.5V21.225c0-0.828,0.672-1.5,1.5-1.5h0.385v7.834c0,1.058,0.859,1.918,1.918,1.918h1.154v0.498
	c0,0.277,0.225,0.5,0.5,0.5c0.277,0,0.5-0.223,0.5-0.5v-0.498h6.916v0.498c0,0.277,0.225,0.5,0.5,0.5c0.277,0,0.5-0.223,0.5-0.5
	v-0.498h1.156c1.059,0,1.918-0.86,1.918-1.918v-7.834h0.385c0.828,0,1.5,0.672,1.5,1.5V31.391z"/>
</svg>
