<?xml version="1.0" encoding="utf-8"?>
<!-- Generator: Adobe Illustrator 16.0.4, SVG Export Plug-In . SVG Version: 6.00 Build 0)  -->
<!DOCTYPE svg PUBLIC "-//W3C//DTD SVG 1.1//EN" "http://www.w3.org/Graphics/SVG/1.1/DTD/svg11.dtd">
<svg version="1.1" id="Layer_1" xmlns="http://www.w3.org/2000/svg" xmlns:xlink="http://www.w3.org/1999/xlink" x="0px" y="0px"
	 width="50px" height="50px" viewBox="0 0 50 50" enable-background="new 0 0 50 50" xml:space="preserve">
<path d="M14.829,21.998h1.582v1.58h-1.582V21.998z M18.782,21.998h-1.58v1.58h1.58V21.998z M21.155,21.998h-1.582v1.58h1.582V21.998
	z M23.528,21.998h-1.582v1.58h1.582V21.998z M25.898,21.998h-1.58v1.58h1.58V21.998z M14.829,25.992h1.582V24.41h-1.582V25.992z
	 M18.782,24.41h-1.58v1.582h1.58V24.41z M21.155,24.41h-1.582v1.582h1.582V24.41z M14.829,28.406h1.582v-1.582h-1.582V28.406z
	 M37.486,19.945v2.904c0,0.274-0.223,0.5-0.5,0.5h-1.822v1.821c0,0.274-0.223,0.5-0.5,0.5H31.76c-0.273,0-0.5-0.226-0.5-0.5V23.35
	h-1.82c-0.275,0-0.5-0.226-0.5-0.5v-2.904c0-0.275,0.225-0.5,0.5-0.5h1.82v-1.822c0-0.275,0.227-0.5,0.5-0.5h2.904
	c0.277,0,0.5,0.225,0.5,0.5v1.822h1.822C37.264,19.445,37.486,19.67,37.486,19.945z M36.486,20.445h-1.822
	c-0.275,0-0.5-0.223-0.5-0.5v-1.822H32.26v1.822c0,0.277-0.223,0.5-0.5,0.5h-1.82v1.904h1.82c0.277,0,0.5,0.223,0.5,0.5v1.821h1.904
	V22.85c0-0.277,0.225-0.5,0.5-0.5h1.822V20.445z M35.529,28.76c0.123,0.094,0.195,0.24,0.195,0.396c0,0.154-0.072,0.301-0.195,0.395
	c-0.197,0.154-4.906,3.744-9.771,3.744c-3.214,0-5.367-1.555-6.515-2.693c-0.058,0.021-0.117,0.035-0.183,0.035h-6.047
	c-0.276,0-0.5-0.223-0.5-0.5v-11.35c0-0.275,0.224-0.5,0.5-0.5h2.756v-1.082c0-0.275,0.226-0.5,0.5-0.5c0.277,0,0.5,0.225,0.5,0.5
	v1.082h7.188v-1.082c0-0.275,0.223-0.5,0.5-0.5c0.275,0,0.5,0.225,0.5,0.5v1.082h2.755c0.277,0,0.5,0.225,0.5,0.5v6.516
	C32.098,26.15,35.365,28.633,35.529,28.76z M28.262,29.156c0-1.457-1.186-2.643-2.643-2.643c-1.457,0-2.641,1.186-2.641,2.643
	s1.185,2.643,2.641,2.643C27.076,31.799,28.262,30.613,28.262,29.156z M18.397,29.637c-0.087-0.115-0.136-0.191-0.148-0.211
	c-0.105-0.164-0.105-0.375,0-0.541c0.021-0.031,0.145-0.215,0.359-0.479h-1.406v-1.582h1.58v1.373
	c0.578-0.662,1.629-1.658,3.164-2.359V24.41h1.582v0.883c0.254-0.062,0.518-0.115,0.791-0.156V24.41h1.58v0.615
	c0.441,0.006,0.881,0.045,1.314,0.104v-5.842h-2.256v0.803c0,0.275-0.226,0.5-0.5,0.5c-0.277,0-0.5-0.225-0.5-0.5v-0.803h-7.188
	v0.803c0,0.275-0.223,0.5-0.5,0.5c-0.274,0-0.5-0.225-0.5-0.5v-0.803h-2.256v10.35H18.397L18.397,29.637z M23.254,31.9
	c-0.775-0.668-1.275-1.646-1.275-2.744c0-1.104,0.503-2.082,1.279-2.75c-2.168,0.697-3.492,2.146-3.969,2.748
	C19.766,29.756,21.094,31.201,23.254,31.9z M34.361,29.156c-1.104-0.746-3.707-2.322-6.564-2.902
	c0.885,0.664,1.465,1.713,1.465,2.902s-0.582,2.24-1.467,2.904C30.656,31.482,33.26,29.904,34.361,29.156z M25.689,27.215
	c-1.07,0-1.941,0.869-1.941,1.941s0.871,1.939,1.941,1.939c1.072,0,1.941-0.867,1.941-1.939S26.762,27.215,25.689,27.215z"/>
</svg>
