<?xml version="1.0" encoding="utf-8"?>
<!-- Generator: Adobe Illustrator 16.0.4, SVG Export Plug-In . SVG Version: 6.00 Build 0)  -->
<!DOCTYPE svg PUBLIC "-//W3C//DTD SVG 1.1//EN" "http://www.w3.org/Graphics/SVG/1.1/DTD/svg11.dtd">
<svg version="1.1" id="Layer_1" xmlns="http://www.w3.org/2000/svg" xmlns:xlink="http://www.w3.org/1999/xlink" x="0px" y="0px"
	 width="50px" height="50px" viewBox="0 0 50 50" enable-background="new 0 0 50 50" xml:space="preserve">
<path d="M26.5,28.5c0,0.275-0.225,0.5-0.5,0.5h-0.5v0.5c0,0.275-0.225,0.5-0.5,0.5s-0.5-0.225-0.5-0.5V29H24
	c-0.275,0-0.5-0.225-0.5-0.5S23.725,28,24,28h0.5v-0.5c0-0.275,0.225-0.5,0.5-0.5s0.5,0.225,0.5,0.5V28H26
	C26.275,28,26.5,28.225,26.5,28.5z M33.667,23.625v7.771c0,0.275-0.224,0.5-0.5,0.5h-1.823v1.479h-2.625v-1.479h-7.438v1.479h-2.625
	v-1.479h-1.823c-0.276,0-0.5-0.225-0.5-0.5v-7.771c0-4.318,3.319-7,8.666-7S33.667,19.307,33.667,23.625z M32.667,23.625
	c0-3.757-2.866-6-7.668-6c-4.8,0-7.666,2.243-7.666,6v7.271h15.334V23.625z M31.667,23.625v2.188c0,0.276-0.224,0.5-0.5,0.5H18.833
	c-0.276,0-0.5-0.224-0.5-0.5v-2.188c0-3.178,2.431-5,6.666-5C29.236,18.625,31.667,20.447,31.667,23.625z M30.667,23.625
	c0-3.306-3.082-4-5.668-4c-2.585,0-5.666,0.694-5.666,4v1.688h11.334V23.625z M20.452,27.469c-0.569,0-1.031,0.463-1.031,1.031
	s0.462,1.031,1.031,1.031c0.567,0,1.03-0.463,1.03-1.031S21.021,27.469,20.452,27.469z M29.548,27.469
	c-0.569,0-1.03,0.463-1.03,1.031s0.461,1.031,1.03,1.031s1.031-0.463,1.031-1.031S30.117,27.469,29.548,27.469z"/>
</svg>
