<?xml version="1.0" encoding="utf-8"?>
<!-- Generator: Adobe Illustrator 16.0.4, SVG Export Plug-In . SVG Version: 6.00 Build 0)  -->
<!DOCTYPE svg PUBLIC "-//W3C//DTD SVG 1.1//EN" "http://www.w3.org/Graphics/SVG/1.1/DTD/svg11.dtd">
<svg version="1.1" id="Layer_1" xmlns="http://www.w3.org/2000/svg" xmlns:xlink="http://www.w3.org/1999/xlink" x="0px" y="0px"
	 width="50px" height="50px" viewBox="0 0 50 50" enable-background="new 0 0 50 50" xml:space="preserve">
<path d="M24.354,16.844h-6.291c-0.276,0-0.5,0.225-0.5,0.5c0,0.276,0.224,0.5,0.5,0.5h0.293c0.069,7.984,1.966,11.965,2.353,12.689
	v2.123c0,0.275,0.224,0.5,0.5,0.5s0.5-0.225,0.5-0.5v-2.123c0.386-0.725,2.283-4.705,2.353-12.689h0.293c0.276,0,0.5-0.224,0.5-0.5
	C24.854,17.068,24.629,16.844,24.354,16.844z M21.208,29.213c-0.482-1.197-1.244-3.561-1.625-7.182h3.249
	C22.452,25.652,21.69,28.016,21.208,29.213z M22.924,21.031h-3.434c-0.079-0.979-0.127-2.042-0.138-3.188h3.709
	C23.051,18.989,23.003,20.052,22.924,21.031z M31.937,16.844h-6.291c-0.276,0-0.5,0.225-0.5,0.5c0,0.276,0.224,0.5,0.5,0.5h0.293
	c0.069,7.984,1.966,11.965,2.353,12.689v2.123c0,0.275,0.225,0.5,0.5,0.5c0.276,0,0.5-0.225,0.5-0.5v-2.123
	c0.387-0.725,2.283-4.705,2.354-12.689h0.293c0.275,0,0.5-0.224,0.5-0.5C32.438,17.068,32.213,16.844,31.937,16.844z M28.791,29.213
	c-0.481-1.197-1.244-3.561-1.625-7.182h3.25C30.035,25.652,29.273,28.016,28.791,29.213z M30.508,21.031h-3.434
	c-0.08-0.979-0.128-2.042-0.139-3.188h3.709C30.635,18.989,30.586,20.052,30.508,21.031z"/>
</svg>
