<?xml version="1.0" encoding="utf-8"?>
<!-- Generator: Adobe Illustrator 16.0.0, SVG Export Plug-In . SVG Version: 6.00 Build 0)  -->
<!DOCTYPE svg PUBLIC "-//W3C//DTD SVG 1.1//EN" "http://www.w3.org/Graphics/SVG/1.1/DTD/svg11.dtd">
<svg version="1.1" id="Layer_1" xmlns="http://www.w3.org/2000/svg" xmlns:xlink="http://www.w3.org/1999/xlink" x="0px" y="0px"
	 width="96px" height="96px" viewBox="0 0 96 96" enable-background="new 0 0 96 96" xml:space="preserve">
<path d="M73.603,42.123V6.813h-8.341V1.236H47.416v5.577H32.167V1.236H14.321v5.577H5.597v67.769h31.004
	c3.171,11.616,13.81,20.182,26.417,20.182c15.1,0,27.385-12.285,27.385-27.385C90.403,56.029,83.462,46.271,73.603,42.123z
	 M43.202,73.527c-0.143-0.46-0.251-0.936-0.363-1.409c-0.069-0.309-0.146-0.615-0.201-0.927c-0.013-0.074-0.021-0.151-0.035-0.226
	c-0.28-1.689-0.284-5.221-0.284-5.221c-0.001-0.742-0.237-1.465-0.699-2.051L32.31,51.89l13.644,1.477
	c0.979,0.105,1.955-0.228,2.662-0.912c3.89-3.754,9.004-5.822,14.402-5.822c11.439,0,20.746,9.307,20.746,20.747
	c0,11.44-9.307,20.747-20.746,20.747c-9.291,0-17.175-6.139-19.809-14.574C43.207,73.543,43.205,73.535,43.202,73.527z
	 M52.644,6.465h7.389v10.173h-7.389V6.465z M19.55,6.465h7.389v10.173H19.55V6.465z M11.284,68.895V27.902h56.632V40.44
	c-1.591-0.289-3.226-0.447-4.897-0.447c-6.595,0-12.869,2.337-17.836,6.612l-20.017-2.167c-1.323-0.141-2.614,0.523-3.262,1.693
	c-0.647,1.169-0.529,2.613,0.298,3.663l13.438,17.037c-0.004,0.182-0.006,0.364-0.006,0.547c0,0.509,0.016,1.014,0.044,1.516H11.284
	z"/>
</svg>
