<?xml version="1.0" encoding="utf-8"?>
<!-- Generator: Adobe Illustrator 16.0.4, SVG Export Plug-In . SVG Version: 6.00 Build 0)  -->
<!DOCTYPE svg PUBLIC "-//W3C//DTD SVG 1.1//EN" "http://www.w3.org/Graphics/SVG/1.1/DTD/svg11.dtd">
<svg version="1.1" id="Layer_1" xmlns="http://www.w3.org/2000/svg" xmlns:xlink="http://www.w3.org/1999/xlink" x="0px" y="0px"
	 width="50px" height="50px" viewBox="0 0 50 50" enable-background="new 0 0 50 50" xml:space="preserve">
<path d="M33.832,32.25c0,0.276-0.224,0.5-0.5,0.5h-14.5c-0.276,0-0.5-0.224-0.5-0.5v-0.834h-1.833c-0.275,0-0.5-0.224-0.5-0.5
	c0-0.275,0.225-0.5,0.5-0.5h1.833V28.5h-1.833c-0.275,0-0.5-0.224-0.5-0.5c0-0.275,0.225-0.5,0.5-0.5h1.833v-1.916h-1.833
	c-0.275,0-0.5-0.225-0.5-0.5s0.225-0.5,0.5-0.5h1.833v-1.917h-1.833c-0.275,0-0.5-0.224-0.5-0.5s0.225-0.5,0.5-0.5h1.833V19.75
	h-1.833c-0.275,0-0.5-0.224-0.5-0.5s0.225-0.5,0.5-0.5h1.833v-1c0-0.276,0.224-0.5,0.5-0.5s0.5,0.224,0.5,0.5v14h14
	C33.608,31.75,33.832,31.975,33.832,32.25z M20.435,28.719c-0.168-0.221-0.125-0.534,0.097-0.7l5.501-4.166
	c0.107-0.083,0.246-0.118,0.381-0.095c0.135,0.021,0.255,0.097,0.332,0.209l1.195,1.729l4.25-3.338
	c0.041-0.032,0.088-0.05,0.135-0.068l-1.881-0.209c-0.274-0.031-0.473-0.278-0.441-0.552c0.03-0.275,0.266-0.473,0.553-0.442
	l3,0.333c0.137,0.015,0.262,0.086,0.344,0.195c0.082,0.11,0.117,0.249,0.095,0.384l-0.5,3c-0.041,0.245-0.253,0.418-0.492,0.418
	c-0.026,0-0.056-0.002-0.083-0.007c-0.271-0.045-0.457-0.303-0.411-0.575l0.279-1.673l-4.646,3.648
	c-0.106,0.085-0.246,0.118-0.383,0.103c-0.137-0.021-0.259-0.098-0.337-0.211l-1.202-1.737l-5.085,3.851
	c-0.09,0.067-0.196,0.103-0.302,0.103C20.683,28.918,20.532,28.849,20.435,28.719z M32.772,22.339
	c0.043,0.029,0.086,0.059,0.119,0.102c0.004,0.005,0.006,0.012,0.01,0.018l0.018-0.104L32.772,22.339z"/>
</svg>
