<?xml version="1.0" encoding="utf-8"?>
<!-- Generator: Adobe Illustrator 16.0.0, SVG Export Plug-In . SVG Version: 6.00 Build 0)  -->
<!DOCTYPE svg PUBLIC "-//W3C//DTD SVG 1.1//EN" "http://www.w3.org/Graphics/SVG/1.1/DTD/svg11.dtd">
<svg version="1.1" id="Layer_1" xmlns="http://www.w3.org/2000/svg" xmlns:xlink="http://www.w3.org/1999/xlink" x="0px" y="0px"
	 width="96px" height="96px" viewBox="0 0 96 96" enable-background="new 0 0 96 96" xml:space="preserve">
<g>
	<path d="M48.121,58.78c11.775-0.224,19.55-11.176,19.515-27.683l-39.393,0.021C28.427,48.269,35.992,59.001,48.121,58.78z"/>
	<path d="M75.249,69.931c-0.927-1.546-2.311-2.627-3.869-3.235l-10.548-4.777l-4.323-3.916l-8.571,7.825l-8.377-7.895l-4.89,4.123
		L24.494,66.74c-1.505,0.619-2.843,1.686-3.742,3.19L5.91,94.75h37.884l4.085-20.257l4.2,20.257H90.09L75.249,69.931z
		 M72.147,84.654h-3.829v3.827h-4.485v-3.827h-3.827V80.17h3.827v-3.827h4.485v3.827h3.829V84.654z"/>
	<path d="M67.824,21.711c0-6.273-4.92-11.384-11.113-11.717c0-0.011,0.002-0.021,0.002-0.031c0-4.805-3.909-8.713-8.713-8.713
		s-8.713,3.908-8.713,8.713c0,0.011,0.002,0.021,0.002,0.031c-6.192,0.332-11.114,5.443-11.114,11.717v5.286h39.648V21.711z
		 M48,5.028c2.721,0,4.935,2.213,4.935,4.935c0,2.721-2.214,4.935-4.935,4.935s-4.935-2.214-4.935-4.935
		C43.065,7.241,45.279,5.028,48,5.028z"/>
</g>
</svg>
