<?xml version="1.0" encoding="utf-8"?>
<!-- Generator: Adobe Illustrator 16.0.0, SVG Export Plug-In . SVG Version: 6.00 Build 0)  -->
<!DOCTYPE svg PUBLIC "-//W3C//DTD SVG 1.1//EN" "http://www.w3.org/Graphics/SVG/1.1/DTD/svg11.dtd">
<svg version="1.1" id="Layer_1" xmlns="http://www.w3.org/2000/svg" xmlns:xlink="http://www.w3.org/1999/xlink" x="0px" y="0px"
	 width="96px" height="96px" viewBox="0 0 96 96" enable-background="new 0 0 96 96" xml:space="preserve">
<g>
	<polygon points="50.868,14.166 43.571,14.166 43.571,21.232 36.503,21.232 36.503,28.53 43.571,28.53 43.571,35.596 50.868,35.596 
		50.868,28.53 57.936,28.53 57.936,21.232 50.868,21.232 	"/>
	<path d="M89.5,2.369H18.325v45.023H89.5L70.876,24.881L89.5,2.369z M47.22,41.435c-9.143,0-16.554-7.411-16.554-16.554
		c0-9.142,7.411-16.554,16.554-16.554s16.554,7.412,16.554,16.554C63.773,34.023,56.362,41.435,47.22,41.435z"/>
	<rect x="6.5" y="2.369" width="6.67" height="91.262"/>
</g>
</svg>
