<?xml version="1.0" encoding="utf-8"?>
<!-- Generator: Adobe Illustrator 16.0.0, SVG Export Plug-In . SVG Version: 6.00 Build 0)  -->
<!DOCTYPE svg PUBLIC "-//W3C//DTD SVG 1.1//EN" "http://www.w3.org/Graphics/SVG/1.1/DTD/svg11.dtd">
<svg version="1.1" id="Layer_1" xmlns="http://www.w3.org/2000/svg" xmlns:xlink="http://www.w3.org/1999/xlink" x="0px" y="0px"
	 width="96px" height="96px" viewBox="0 0 96 96" enable-background="new 0 0 96 96" xml:space="preserve">
<g>
	<path d="M21.682,57.089c-5.753,0-10.432,4.68-10.432,10.433s4.679,10.432,10.432,10.432s10.432-4.679,10.432-10.432
		S27.435,57.089,21.682,57.089z M21.682,72.265c-2.615,0-4.742-2.127-4.742-4.742c0-2.616,2.127-4.742,4.742-4.742
		s4.742,2.126,4.742,4.742C26.424,70.137,24.297,72.265,21.682,72.265z"/>
	<path d="M74.159,57.089c-5.753,0-10.432,4.68-10.432,10.433s4.679,10.432,10.432,10.432s10.432-4.679,10.432-10.432
		S79.912,57.089,74.159,57.089z M74.159,72.265c-2.615,0-4.742-2.127-4.742-4.742c0-2.616,2.127-4.742,4.742-4.742
		s4.742,2.126,4.742,4.742C78.901,70.137,76.773,72.265,74.159,72.265z"/>
	<path d="M91.072,18.045H33.695c-1.571,0-2.846,1.274-2.846,2.845v5.885h-6.243L6.731,44.682H4.928
		c-1.571,0-2.845,1.273-2.845,2.845v16.536c0,1.572,1.274,2.846,2.845,2.846h4.031c0-7.06,5.743-12.804,12.803-12.804
		c6.906,0,12.538,5.5,12.781,12.347h26.916c0.244-6.847,5.875-12.347,12.78-12.347c6.906,0,12.538,5.5,12.781,12.347h4.054
		c1.571,0,2.845-1.274,2.845-2.845V20.891C93.917,19.319,92.644,18.045,91.072,18.045z M31.324,45.597H14.728l13.751-13.872
		l2.845,0.007V45.597z M75.485,40.799h-7.352v7.352h-6.757v-7.352h-7.352v-6.758h7.352V26.69h6.757v7.351h7.352V40.799z"/>
</g>
</svg>
