<?xml version="1.0" encoding="utf-8"?>
<!-- Generator: Adobe Illustrator 16.0.4, SVG Export Plug-In . SVG Version: 6.00 Build 0)  -->
<!DOCTYPE svg PUBLIC "-//W3C//DTD SVG 1.1//EN" "http://www.w3.org/Graphics/SVG/1.1/DTD/svg11.dtd">
<svg version="1.1" id="Layer_1" xmlns="http://www.w3.org/2000/svg" xmlns:xlink="http://www.w3.org/1999/xlink" x="0px" y="0px"
	 width="50px" height="50px" viewBox="0 0 50 50" enable-background="new 0 0 50 50" xml:space="preserve">
<path d="M23.873,14.471h-8.758c-0.276,0-0.5,0.225-0.5,0.5v20.059c0,0.275,0.224,0.5,0.5,0.5h8.758c0.276,0,0.5-0.225,0.5-0.5
	V14.971C24.373,14.695,24.149,14.471,23.873,14.471z M23.373,34.529h-7.758V15.471h7.758V34.529z M17.176,32.977h4.637
	c0.276,0,0.5-0.225,0.5-0.5v-11.85c0-0.277-0.224-0.5-0.5-0.5h-4.637c-0.276,0-0.5,0.223-0.5,0.5v11.85
	C16.676,32.754,16.899,32.977,17.176,32.977z M17.676,31.977v-4.926h3.637v4.926H17.676z M21.312,21.127v4.926h-3.637v-4.926H21.312
	z M18.046,17.758c0-0.801,0.648-1.449,1.448-1.449c0.8,0,1.449,0.648,1.449,1.449c0,0.799-0.649,1.447-1.449,1.447
	C18.694,19.205,18.046,18.557,18.046,17.758z M34.885,14.471h-8.758c-0.275,0-0.5,0.225-0.5,0.5v20.059c0,0.275,0.225,0.5,0.5,0.5
	h8.758c0.276,0,0.5-0.225,0.5-0.5V14.971C35.385,14.695,35.161,14.471,34.885,14.471z M34.385,34.529h-7.758V15.471h7.758V34.529z
	 M28.188,32.977h4.638c0.276,0,0.5-0.225,0.5-0.5v-11.85c0-0.277-0.224-0.5-0.5-0.5h-4.638c-0.275,0-0.5,0.223-0.5,0.5v11.85
	C27.688,32.754,27.911,32.977,28.188,32.977z M32.324,27.596h-3.637v-0.545h3.637V27.596z M28.688,31.977v-3.381h3.638v3.381H28.688
	z M32.324,21.127v4.926h-3.637v-4.926H32.324z M29.057,17.758c0-0.801,0.649-1.449,1.449-1.449c0.801,0,1.448,0.648,1.448,1.449
	c0,0.799-0.647,1.447-1.448,1.447C29.706,19.205,29.057,18.557,29.057,17.758z"/>
</svg>
