<?xml version="1.0" encoding="utf-8"?>
<!-- Generator: Adobe Illustrator 16.0.4, SVG Export Plug-In . SVG Version: 6.00 Build 0)  -->
<!DOCTYPE svg PUBLIC "-//W3C//DTD SVG 1.1//EN" "http://www.w3.org/Graphics/SVG/1.1/DTD/svg11.dtd">
<svg version="1.1" id="Layer_1" xmlns="http://www.w3.org/2000/svg" xmlns:xlink="http://www.w3.org/1999/xlink" x="0px" y="0px"
	 width="50px" height="50px" viewBox="0 0 50 50" enable-background="new 0 0 50 50" xml:space="preserve">
<path d="M34.096,16.961H18.279v-1.146h4.863c0.275,0,0.5-0.223,0.5-0.5c0-0.274-0.225-0.5-0.5-0.5H12.574
	c-0.276,0-0.5,0.226-0.5,0.5c0,0.277,0.224,0.5,0.5,0.5h4.705v1.177c-2.791,0.291-4.977,2.657-4.977,5.524
	c0,1.945,1.008,3.66,2.527,4.652v1.588h-0.496c-0.275,0-0.5,0.225-0.5,0.5c0,0.277,0.225,0.5,0.5,0.5h7.046
	c0.276,0,0.5-0.223,0.5-0.5c0-0.275-0.224-0.5-0.5-0.5h-0.494v-1.59c1.41-0.922,2.374-2.466,2.505-4.24l9.047-1.912
	c0.139-0.029,0.258-0.117,0.33-0.24l1.762-3.063c0.088-0.153,0.088-0.344-0.002-0.498C34.438,17.055,34.273,16.961,34.096,16.961z
	 M17.355,18.012v3.467h-3.924C13.867,19.627,15.431,18.225,17.355,18.012z M19.886,28.756H15.83v-1.074
	c0.629,0.248,1.311,0.389,2.025,0.389c0.718,0,1.399-0.141,2.029-0.389v1.074H19.886z M17.855,27.07
	c-2.51,0-4.554-2.042-4.554-4.554c0-0.015,0.005-0.023,0.005-0.037h4.549c0.276,0,0.5-0.224,0.5-0.5v-3.967
	c2.274,0.252,4.056,2.161,4.056,4.504C22.411,25.028,20.368,27.07,17.855,27.07z M32.012,20.081l-8.636,1.826
	c-0.179-1.631-1.067-3.051-2.351-3.945H33.23L32.012,20.081z M37.926,16.196c0,0.277-0.223,0.5-0.5,0.5h-1.604v1.606
	c0,0.277-0.225,0.5-0.5,0.5c-0.277,0-0.5-0.223-0.5-0.5v-1.606h-1.607c-0.275,0-0.5-0.223-0.5-0.5c0-0.275,0.225-0.5,0.5-0.5h1.607
	V14.09c0-0.277,0.223-0.5,0.5-0.5c0.275,0,0.5,0.223,0.5,0.5v1.605h1.604C37.703,15.696,37.926,15.92,37.926,16.196z M20.73,23.895
	c0,0.277-0.224,0.5-0.5,0.5h-0.571v0.572c0,0.277-0.224,0.5-0.5,0.5s-0.5-0.223-0.5-0.5v-0.572h-0.572c-0.276,0-0.5-0.223-0.5-0.5
	c0-0.274,0.224-0.5,0.5-0.5h0.572v-0.571c0-0.277,0.224-0.5,0.5-0.5s0.5,0.223,0.5,0.5v0.571h0.571
	C20.507,23.395,20.73,23.62,20.73,23.895z M31.623,22.286c-0.086-0.121-0.223-0.195-0.371-0.205
	c-0.146-0.01-0.295,0.047-0.396,0.156c-0.619,0.658-1.209,1.328-1.799,1.998c-0.484,0.555-0.973,1.106-1.477,1.654
	c-0.16,0.174-0.178,0.436-0.039,0.629c0.27,0.377,0.566,0.752,0.859,1.119c0.199,0.25,0.395,0.494,0.572,0.732
	c-1.875,1.801-4.727,3.57-7.204,4.475c-0.328-0.695-0.664-1.393-1.008-2.096c-0.107-0.219-0.355-0.326-0.591-0.262
	c-0.696,0.205-1.394,0.391-2.089,0.57c-0.87,0.23-1.741,0.457-2.616,0.73c-0.142,0.045-0.257,0.146-0.313,0.285
	s-0.049,0.291,0.02,0.426c0.789,1.504,1.833,2.848,2.939,3.779c0.086,0.072,0.191,0.113,0.304,0.119
	c0.215,0.008,0.435,0.014,0.655,0.014c2.354,0,5.854-0.486,9.151-2.811c2.412-1.695,4.24-3.938,5.438-6.67
	c0.045-0.104,0.055-0.223,0.023-0.332C33.244,25.018,32.553,23.567,31.623,22.286z M27.646,32.783
	c-3.084,2.172-6.368,2.627-8.577,2.627c-0.149,0-0.297-0.002-0.442-0.006c-0.833-0.732-1.625-1.723-2.274-2.838
	c0.662-0.193,1.322-0.367,1.983-0.541c0.57-0.148,1.142-0.299,1.712-0.461c0.344,0.707,0.68,1.41,1.008,2.111
	c0.105,0.229,0.366,0.344,0.608,0.262c2.883-0.949,6.228-3.025,8.322-5.166c0.168-0.17,0.189-0.438,0.055-0.635
	c-0.248-0.357-0.549-0.734-0.857-1.123c-0.197-0.248-0.398-0.498-0.588-0.752c0.41-0.453,0.811-0.91,1.213-1.367
	c0.445-0.509,0.893-1.017,1.354-1.519c0.654,1.008,1.16,2.121,1.508,3.315C31.547,29.182,29.857,31.23,27.646,32.783z"/>
</svg>
