<?xml version="1.0" encoding="utf-8"?>
<!-- Generator: Adobe Illustrator 16.0.0, SVG Export Plug-In . SVG Version: 6.00 Build 0)  -->
<!DOCTYPE svg PUBLIC "-//W3C//DTD SVG 1.1//EN" "http://www.w3.org/Graphics/SVG/1.1/DTD/svg11.dtd">
<svg version="1.1" id="Layer_1" xmlns="http://www.w3.org/2000/svg" xmlns:xlink="http://www.w3.org/1999/xlink" x="0px" y="0px"
	 width="96px" height="96px" viewBox="0 0 96 96" enable-background="new 0 0 96 96" xml:space="preserve">
<g>
	<path d="M94.707,51.5c0.001-0.826,0.001-1.471,0.001-1.833c0-2.5-15.969-8.129-15.969-8.129L60.61,24.768H0.865v43.012h13.772
		c0.929,4.201,4.676,7.355,9.151,7.355c4.474,0,8.221-3.152,9.15-7.353h34.23c0.934,4.324,4.785,7.576,9.386,7.576
		c4.597,0,8.446-3.252,9.379-7.576h8.75c0,0,0.01-6.229,0.017-11.449h-3.034V51.5H94.707z M23.789,70.135
		c-2.414,0-4.377-1.965-4.377-4.381c0-2.412,1.964-4.374,4.377-4.374s4.377,1.962,4.377,4.374
		C28.167,68.17,26.203,70.135,23.789,70.135z M23.839,53.721c-7.025,0-12.721-5.695-12.721-12.721
		c0-7.024,5.695-12.721,12.721-12.721S36.56,33.976,36.56,41C36.56,48.025,30.864,53.721,23.839,53.721z M46.799,40.589v-9.492
		h11.729l10.601,9.49L46.799,40.589z M76.555,70.358c-2.539,0-4.605-2.064-4.605-4.602c0-2.536,2.066-4.6,4.605-4.6
		c2.534,0,4.597,2.063,4.6,4.598C81.155,68.293,79.091,70.358,76.555,70.358z"/>
	<polygon points="26.483,33.234 21.194,33.234 21.194,38.355 16.072,38.355 16.072,43.646 21.194,43.646 21.194,48.766 
		26.483,48.766 26.483,43.646 31.605,43.646 31.605,38.355 26.483,38.355 	"/>
</g>
</svg>
