<?xml version="1.0" encoding="iso-8859-1"?>
<!-- Generator: Adobe Illustrator 17.0.0, SVG Export Plug-In . SVG Version: 6.00 Build 0)  -->
<!DOCTYPE svg PUBLIC "-//W3C//DTD SVG 1.1//EN" "http://www.w3.org/Graphics/SVG/1.1/DTD/svg11.dtd">
<svg version="1.1" id="Capa_1" xmlns="http://www.w3.org/2000/svg" xmlns:xlink="http://www.w3.org/1999/xlink" x="0px" y="0px"
	 width="64px" height="64px" viewBox="0 0 64 64" style="enable-background:new 0 0 64 64;" xml:space="preserve">
<g>
	<path d="M17.231,34.049c0.1,1.11,0.725,2.155,1.771,2.741c0.868,0.487,1.763,0.844,2.677,1.086
		c-0.515,1.738-1.461,4.254-3.146,6.948c-1.6,2.561-1.619,5.651-0.05,8.479c2.311,4.168,7.414,6.969,12.7,6.969
		c3.63,0,6.858-1.672,9.087-4.708c3.187-4.341,3.893-10.747,1.888-17.133c-1.858-5.92,0.627-9.078,2.271-10.436
		c1.341,1.292,3.16,2.089,5.169,2.089c4.119,0,7.459-3.34,7.459-7.46c0-4.12-3.34-7.459-7.459-7.459c-4.12,0-7.459,3.34-7.459,7.459
		c0,0.58,0.073,1.142,0.198,1.684c-3.106,2.271-6.691,7.385-4.182,15.379c1.582,5.041,1.097,10.173-1.269,13.393
		c-1.002,1.367-2.807,2.996-5.704,2.996c-3.748,0-7.462-1.977-9.03-4.807c-0.579-1.044-1.058-2.625-0.06-4.222
		c2.228-3.566,3.343-6.894,3.872-8.929c1.238-0.186,2.447-0.586,3.61-1.207c1.037-0.553,1.673-1.555,1.813-2.638
		c4.928-4.455,7.204-12.483,7.334-12.952c0.266-0.964-0.188-1.954-1.035-2.405c0.681-6.026-1.55-9.063-2.895-10.301
		c0.102-0.579-0.129-1.198-0.638-1.53L31.68,5.469c-0.646-0.422-1.458-0.209-1.812,0.478L28.69,8.225
		c-0.355,0.687-0.042,1.421,0.699,1.639l2.796,0.825c0.709,0.209,1.558-0.13,1.959-0.751c1.115,1.174,2.719,3.787,2.166,8.772
		c-0.759,0.145-1.411,0.698-1.632,1.494c-0.671,2.411-2.611,7.392-5.492,10.378c-0.917-0.354-1.971-0.337-2.906,0.161
		c-0.609,0.326-1.205,0.49-1.816,0.502h-0.126c-0.644-0.013-1.273-0.195-1.917-0.555c-0.912-0.512-1.951-0.557-2.867-0.234
		c-2.816-2.999-4.715-7.874-5.376-10.252c-0.221-0.794-0.875-1.348-1.632-1.493c-0.554-4.985,1.05-7.598,2.166-8.772
		c0.402,0.621,1.25,0.96,1.959,0.751l2.796-0.825c0.74-0.218,1.055-0.953,0.699-1.639l-1.177-2.278
		c-0.355-0.687-1.167-0.9-1.812-0.478l-2.476,1.617c-0.508,0.332-0.739,0.951-0.637,1.53c-1.344,1.238-3.576,4.274-2.895,10.301
		c-0.847,0.451-1.3,1.441-1.035,2.405C10.262,21.783,12.469,29.555,17.231,34.049z M49.598,19.71c1.608,0,2.913,1.304,2.913,2.914
		c0,1.61-1.305,2.914-2.913,2.914c-1.609,0-2.914-1.304-2.914-2.914C46.684,21.014,47.988,19.71,49.598,19.71z"/>
</g>
</svg>
