<?xml version="1.0" encoding="utf-8"?>
<!-- Generator: Adobe Illustrator 16.0.4, SVG Export Plug-In . SVG Version: 6.00 Build 0)  -->
<!DOCTYPE svg PUBLIC "-//W3C//DTD SVG 1.1//EN" "http://www.w3.org/Graphics/SVG/1.1/DTD/svg11.dtd">
<svg version="1.1" id="Layer_1" xmlns="http://www.w3.org/2000/svg" xmlns:xlink="http://www.w3.org/1999/xlink" x="0px" y="0px"
	 width="50px" height="50px" viewBox="0 0 50 50" enable-background="new 0 0 50 50" xml:space="preserve">
<path d="M32.764,23.42h-7.318v-5.282c0-0.276-0.224-0.5-0.5-0.5h-7.709c-0.276,0-0.5,0.224-0.5,0.5v13.723
	c0,0.276,0.224,0.5,0.5,0.5h7.709c0.019,0,0.036-0.009,0.054-0.011c0.019,0.002,0.035,0.011,0.054,0.011h7.71
	c0.275,0,0.5-0.224,0.5-0.5v-7.94C33.264,23.645,33.039,23.42,32.764,23.42z M24.444,31.36h-6.709V18.638h6.709V31.36z
	 M32.264,31.36h-6.818v-6.94h6.818V31.36z M20.65,22.075h-1.872v-1.872h1.872V22.075z M23.403,22.075h-1.872v-1.872h1.872V22.075z
	 M20.65,24.683h-1.872v-1.872h1.872V24.683z M23.403,24.683h-1.872v-1.872h1.872V24.683z M20.65,27.291h-1.872v-1.872h1.872V27.291z
	 M23.403,27.291h-1.872v-1.872h1.872V27.291z M20.65,29.9h-1.872v-1.872h1.872V29.9z M23.403,29.9h-1.872v-1.872h1.872V29.9z
	 M28.346,27.604h-1.91v-1.911h1.91V27.604z M31.156,27.604h-1.91v-1.911h1.91V27.604z M26.436,30.269v-1.911h1.91v1.911H26.436z
	 M31.156,30.269h-1.91v-1.911h1.91V30.269z M27.233,22.11v-3.16c0-0.276,0.224-0.5,0.5-0.5s0.5,0.224,0.5,0.5v1.08h1.813v-1.08
	c0-0.276,0.225-0.5,0.5-0.5c0.277,0,0.5,0.224,0.5,0.5v3.16c0,0.276-0.223,0.5-0.5,0.5c-0.275,0-0.5-0.224-0.5-0.5v-1.08h-1.813
	v1.08c0,0.276-0.224,0.5-0.5,0.5S27.233,22.388,27.233,22.11z"/>
</svg>
