<?xml version="1.0" encoding="utf-8"?>
<!-- Generator: Adobe Illustrator 16.0.4, SVG Export Plug-In . SVG Version: 6.00 Build 0)  -->
<!DOCTYPE svg PUBLIC "-//W3C//DTD SVG 1.1//EN" "http://www.w3.org/Graphics/SVG/1.1/DTD/svg11.dtd">
<svg version="1.1" id="Layer_1" xmlns="http://www.w3.org/2000/svg" xmlns:xlink="http://www.w3.org/1999/xlink" x="0px" y="0px"
	 width="50px" height="50px" viewBox="0 0 50 50" enable-background="new 0 0 50 50" xml:space="preserve">
<path d="M27.428,19.813v4.295c0,0.275-0.224,0.5-0.5,0.5c-0.275,0-0.5-0.225-0.5-0.5v-1.646h-2.854v1.646c0,0.275-0.225,0.5-0.5,0.5
	c-0.276,0-0.5-0.225-0.5-0.5v-4.295c0-0.275,0.224-0.5,0.5-0.5c0.275,0,0.5,0.225,0.5,0.5v1.647h2.854v-1.647
	c0-0.275,0.225-0.5,0.5-0.5C27.204,19.313,27.428,19.538,27.428,19.813z M31.896,22.022c0,3.652-6.228,12.281-6.492,12.646
	C25.31,34.797,25.16,34.875,25,34.875s-0.311-0.078-0.404-0.207c-0.266-0.365-6.492-8.994-6.492-12.646
	c0-3.804,3.095-6.896,6.896-6.896S31.896,18.219,31.896,22.022z M30.896,22.022c0-3.252-2.646-5.896-5.896-5.896
	s-5.896,2.646-5.896,5.896c0,2.83,4.505,9.494,5.896,11.488C26.393,31.518,30.896,24.852,30.896,22.022z M30.113,22.033
	c-0.007,2.812-2.303,5.102-5.116,5.102h-0.008c-1.366-0.002-2.649-0.537-3.613-1.506c-0.964-0.967-1.492-2.252-1.489-3.618
	c0.007-2.812,2.3-5.103,5.112-5.103C27.828,16.915,30.117,19.212,30.113,22.033z M29.113,22.031c0.004-2.27-1.838-4.118-4.104-4.122
	c-2.271,0-4.117,1.842-4.122,4.104c-0.003,1.1,0.423,2.133,1.198,2.911c0.775,0.778,1.808,1.208,2.906,1.211l0.006,0.5v-0.5
	C27.262,26.135,29.108,24.293,29.113,22.031z"/>
</svg>
