<?xml version="1.0" encoding="utf-8"?>
<!-- Generator: Adobe Illustrator 16.0.4, SVG Export Plug-In . SVG Version: 6.00 Build 0)  -->
<!DOCTYPE svg PUBLIC "-//W3C//DTD SVG 1.1//EN" "http://www.w3.org/Graphics/SVG/1.1/DTD/svg11.dtd">
<svg version="1.1" id="Layer_1" xmlns="http://www.w3.org/2000/svg" xmlns:xlink="http://www.w3.org/1999/xlink" x="0px" y="0px"
	 width="50px" height="50px" viewBox="0 0 50 50" enable-background="new 0 0 50 50" xml:space="preserve">
<path d="M25,19.5c-3.031,0-5.498,2.467-5.498,5.499c0,3.032,2.467,5.499,5.498,5.499c3.032,0,5.499-2.467,5.499-5.499
	C30.498,21.967,28.031,19.5,25,19.5z M25,29.498c-2.48,0-4.498-2.018-4.498-4.499c0-2.48,2.018-4.499,4.498-4.499
	c2.481,0,4.499,2.019,4.499,4.499C29.498,27.48,27.48,29.498,25,29.498z M24.999,17.844c-3.914,0-7.124,3.185-7.155,7.099
	c-0.016,1.911,0.715,3.713,2.055,5.077c1.342,1.361,3.133,2.121,5.043,2.137c0,0,0.06,0,0.061,0c3.913,0,7.122-3.184,7.155-7.098
	C32.188,21.111,29.004,17.875,24.999,17.844z M25,31.154v0.5l-0.052-0.5c-1.645-0.012-3.186-0.666-4.338-1.838
	c-1.153-1.172-1.78-2.723-1.769-4.367c0.026-3.366,2.788-6.105,6.207-6.105c3.394,0.027,6.134,2.812,6.105,6.205
	C31.127,28.416,28.365,31.154,25,31.154z M27.744,22.5v4.998c0,0.277-0.225,0.5-0.5,0.5c-0.277,0-0.5-0.223-0.5-0.5V25.5h-3.489
	v1.999c0,0.277-0.224,0.5-0.5,0.5c-0.275,0-0.5-0.223-0.5-0.5V22.5c0-0.276,0.225-0.5,0.5-0.5c0.276,0,0.5,0.224,0.5,0.5V24.5h3.489
	V22.5c0-0.276,0.223-0.5,0.5-0.5C27.52,22,27.744,22.224,27.744,22.5z"/>
</svg>
