<?xml version="1.0" encoding="utf-8"?>
<!-- Generator: Adobe Illustrator 16.0.0, SVG Export Plug-In . SVG Version: 6.00 Build 0)  -->
<!DOCTYPE svg PUBLIC "-//W3C//DTD SVG 1.1//EN" "http://www.w3.org/Graphics/SVG/1.1/DTD/svg11.dtd">
<svg version="1.1" id="Layer_1" xmlns="http://www.w3.org/2000/svg" xmlns:xlink="http://www.w3.org/1999/xlink" x="0px" y="0px"
	 width="96px" height="96px" viewBox="0 0 96 96" enable-background="new 0 0 96 96" xml:space="preserve">
<g>
	<path d="M48,1.45c-17.175,0-31.098,13.924-31.098,31.099S48,94.55,48,94.55s31.098-44.826,31.098-62.001S65.175,1.45,48,1.45z
		 M48,54.836c-12.519,0-22.667-10.148-22.667-22.667S35.481,9.502,48,9.502S70.667,19.65,70.667,32.169S60.519,54.836,48,54.836z"/>
	<polygon points="53.478,19.294 42.522,19.294 42.522,26.678 35.139,26.678 35.139,37.633 42.522,37.633 42.522,45.017 
		53.478,45.017 53.478,37.633 60.861,37.633 60.861,26.678 53.478,26.678 	"/>
</g>
</svg>
