<?xml version="1.0" encoding="utf-8"?>
<!-- Generator: Adobe Illustrator 16.0.0, SVG Export Plug-In . SVG Version: 6.00 Build 0)  -->
<!DOCTYPE svg PUBLIC "-//W3C//DTD SVG 1.1//EN" "http://www.w3.org/Graphics/SVG/1.1/DTD/svg11.dtd">
<svg version="1.1" id="Layer_1" xmlns="http://www.w3.org/2000/svg" xmlns:xlink="http://www.w3.org/1999/xlink" x="0px" y="0px"
	 width="96px" height="96px" viewBox="0 0 96 96" enable-background="new 0 0 96 96" xml:space="preserve">
<g>
	<path d="M80.559,56.396L66.497,20.123l-9.748,27.004L46.522,21.082L32.94,56.396c0,0-5.752-7.667-5.913-17.697
		c-0.03-1.876,0.195-3.704,0.526-5.483c-2.235,4.427-3.523,9.413-3.523,14.711c0,18.069,14.648,32.718,32.718,32.718
		c18.068,0,32.718-14.649,32.718-32.718c0-5.298-1.289-10.284-3.523-14.711c0.332,1.779,0.542,3.607,0.526,5.483
		C86.392,48.168,80.559,56.396,80.559,56.396z M56.749,68.421c-6.76,0-12.972-2.284-17.964-6.085l7.737-24.476l10.227,27.484
		L66.815,37.86l8.608,23.944C70.32,65.936,63.827,68.421,56.749,68.421z"/>
	<path d="M94.859,48.202c0-11.445-4.854-21.756-12.58-29.057c0.165,0.145,0.345,0.271,0.507,0.419
		C74.399,9.002,61.457,2.219,46.922,2.219C21.638,2.219,1.141,22.716,1.141,48c0,25.283,20.497,45.781,45.781,45.781
		c13.849,0,26.257-6.159,34.649-15.877C89.706,70.57,94.859,59.99,94.859,48.202z M92.942,48.202
		c0,19.697-15.021,35.951-34.21,37.912c-0.53,0.022-1.048,0.077-1.582,0.077c-21.139,0-38.271-17.135-38.271-38.27
		c0-18.178,12.683-33.362,29.677-37.268c2.044-0.341,4.134-0.562,6.277-0.562C75.845,10.092,92.942,27.188,92.942,48.202z"/>
</g>
</svg>
