<?xml version="1.0" encoding="utf-8"?>
<!-- Generator: Adobe Illustrator 17.0.0, SVG Export Plug-In . SVG Version: 6.00 Build 0)  -->
<!DOCTYPE svg PUBLIC "-//W3C//DTD SVG 1.1//EN" "http://www.w3.org/Graphics/SVG/1.1/DTD/svg11.dtd">
<svg version="1.1" id="Capa_1" xmlns="http://www.w3.org/2000/svg" xmlns:xlink="http://www.w3.org/1999/xlink" x="0px" y="0px"
	 width="19.035px" height="19.035px" viewBox="0 0 19.035 19.035" enable-background="new 0 0 19.035 19.035" xml:space="preserve">
<path d="M12.144,11.36H6.896c-0.486,0-0.879,0.395-0.879,0.879s0.394,0.88,0.879,0.88h5.248c0.484,0,0.878-0.396,0.878-0.88
	C13.021,11.755,12.628,11.36,12.144,11.36z M8.174,7.722h2.688c0.484,0,0.879-0.395,0.879-0.877c0-0.485-0.395-0.881-0.879-0.881
	H8.174c-0.485,0-0.878,0.396-0.878,0.881C7.295,7.327,7.688,7.722,8.174,7.722z M15.239,0.002C11.508,0,7.776,0.002,4.044,0
	C3.691,0,3.346,0.027,2.998,0.104c-1.771,0.389-2.951,1.894-2.974,3.67C-0.021,7.451,0.01,11.125,0.011,14.8
	c0,0.416,0.018,0.822,0.115,1.237c0.408,1.729,1.836,2.94,3.678,2.979c1.903,0.037,3.809,0.008,5.711,0.008
	c1.837,0,3.676-0.002,5.513,0.002c0.354,0.001,0.696-0.029,1.045-0.109c1.759-0.406,2.961-1.896,2.962-3.706
	c0.001-3.808,0.002-7.616,0-11.424C19.034,1.681,17.351,0.003,15.239,0.002z M16.928,9.242v2.524v0.56
	c0,2.556-2.07,4.626-4.627,4.626H9.663H7.272H6.734c-2.557,0-4.627-2.07-4.627-4.626V6.711c0-2.555,2.07-4.626,4.627-4.626h1.274
	h1.654h0.089c0,0.002,0,0.002,0,0.002c2.515,0.047,4.539,2.098,4.539,4.624v0.071v0.38c0,0.28,0.228,0.507,0.505,0.507h0.528h0.255
	c0.745,0,1.349,0.604,1.349,1.35L16.928,9.242L16.928,9.242z"/>
</svg>
