<?xml version="1.0" encoding="utf-8"?>
<!-- Generator: Adobe Illustrator 16.0.0, SVG Export Plug-In . SVG Version: 6.00 Build 0)  -->
<!DOCTYPE svg PUBLIC "-//W3C//DTD SVG 1.1//EN" "http://www.w3.org/Graphics/SVG/1.1/DTD/svg11.dtd">
<svg version="1.1" id="Layer_1" xmlns="http://www.w3.org/2000/svg" xmlns:xlink="http://www.w3.org/1999/xlink" x="0px" y="0px"
	 width="96px" height="96px" viewBox="0 0 96 96" enable-background="new 0 0 96 96" xml:space="preserve">
<path d="M2.25,11.4v73.2h91.5V11.4H2.25z M27.745,18.983l-0.62,1.528h-2.454l-0.378,0.827h1.424l-0.684,1.513h-1.454l-0.384,0.78
	h2.263l-0.763,1.529h-3.913l2.919-6.177H27.745z M22.422,18.983L21.8,20.511h-2.722l-1.474,3.12h2.569L19.41,25.16h-4.295
	l3.302-6.177H22.422z M4.079,25.638H7.45l-1.146,2.244H4.079V25.638z M5.279,31.26l6.469-12.34h5.847l-1.146,2.292h-3.322
	L7.876,31.26H5.279z M86.811,76.545H69.172V48.942L55.036,76.545H44.673l-5.635-28.653l-8.596,28.653H11.419l16.795-48.664H10.266
	l1.21-2.244h17.514l2.297-6.655H50.26l1.116,6.655H29.085l-0.84,2.244h23.506l2.712,16.19l13.499-25.088h18.849V76.545z"/>
</svg>
