<?xml version="1.0" encoding="utf-8"?>
<!-- Generator: Adobe Illustrator 16.0.4, SVG Export Plug-In . SVG Version: 6.00 Build 0)  -->
<!DOCTYPE svg PUBLIC "-//W3C//DTD SVG 1.1//EN" "http://www.w3.org/Graphics/SVG/1.1/DTD/svg11.dtd">
<svg version="1.1" id="Capa_1" xmlns="http://www.w3.org/2000/svg" xmlns:xlink="http://www.w3.org/1999/xlink" x="0px" y="0px"
	 width="20.539px" height="33.316px" viewBox="0 0 20.539 33.316" enable-background="new 0 0 20.539 33.316" xml:space="preserve">
<g>
	<circle cx="6.099" cy="20.959" r="1.866"/>
	<circle cx="14.961" cy="20.959" r="1.866"/>
	<path d="M6.392,16.765V11.67H4.85H3.445c-0.756,0-1.371,0.612-1.371,1.372c0,0-0.46,1.031-0.506,2.937l-0.006,0.005v0.394
		l-0.377,0.28v0.035c-0.004,0-0.005-0.002-0.007-0.002c-0.109,0-0.2,0.27-0.2,0.601c0,0.33,0.091,0.6,0.2,0.6
		c0.002,0,0.004-0.002,0.007-0.002v0.047l0.378,0.312v0.979c0,0.076,0.012,0.148,0.021,0.224c-0.188,0.016-0.341,0.188-0.341,0.396
		v0.482c0,0.225,0.163,0.406,0.362,0.406h1.808c0.107,0,0.202-0.056,0.27-0.14h0.261h0.022c0-1.188,0.959-2.146,2.142-2.151
		c1.183,0.005,2.14,0.966,2.14,2.149v0.002h0.024h4.536h0.023c0-1.188,0.958-2.146,2.141-2.151c1.186,0.005,2.141,0.966,2.141,2.149
		v0.002h0.023h0.5h0.508c0.318,0,0.609-0.111,0.842-0.297h0.221c0.193,0,0.354-0.156,0.354-0.354v-0.992
		c0-0.058-0.021-0.108-0.043-0.155v-1.084c0.021-0.055,0.03-0.117,0.032-0.176h0.011v-0.024H6.392V16.765z M5.705,15.618H1.779
		c0.095-1.642,0.489-2.522,0.489-2.522c0-0.091,0.01-0.178,0.023-0.266h3.412c0.133,0,0.242,0.115,0.242,0.257l0.002,2.275
		C5.948,15.505,5.84,15.618,5.705,15.618z"/>
	<path d="M19.561,16.765l-0.006-5.569c-0.002-0.392-0.354-0.705-0.798-0.705L7.506,10.506c-0.438,0.002-0.795,0.318-0.795,0.707
		l0.007,5.554L19.561,16.765L19.561,16.765z"/>
</g>
</svg>
