<?xml version="1.0" encoding="utf-8"?>
<!-- Generator: Adobe Illustrator 16.0.4, SVG Export Plug-In . SVG Version: 6.00 Build 0)  -->
<!DOCTYPE svg PUBLIC "-//W3C//DTD SVG 1.1//EN" "http://www.w3.org/Graphics/SVG/1.1/DTD/svg11.dtd">
<svg version="1.1" id="Layer_1" xmlns="http://www.w3.org/2000/svg" xmlns:xlink="http://www.w3.org/1999/xlink" x="0px" y="0px"
	 width="50px" height="50px" viewBox="0 0 50 50" enable-background="new 0 0 50 50" xml:space="preserve">
<g>
	<path d="M37.407,23.095c0,0.715,0.582,1.297,1.296,1.297c0.715,0,1.297-0.582,1.297-1.297h-0.425c0,0.479-0.392,0.87-0.872,0.87
		s-0.87-0.391-0.87-0.87c0-0.48,0.39-0.871,0.87-0.871h0.213v-4.33h-0.141l-2.055-2.847L23.075,26.504h-0.41v3.162h-0.526V18.39
		H10.885v11.276H10v1.703h0.885v1.396h3.338c0.204,1.236,1.275,2.188,2.57,2.188c1.296,0,2.367-0.949,2.572-2.188h2.774v-1.396
		h0.526v1.578h8.499c0.275,1.146,1.304,2.004,2.535,2.004c1.23,0,2.26-0.855,2.535-2.004h2.507v-1.578h0.761v-1.703h-0.761v-3.162
		h-9.818l9.568-8.206v3.518C37.876,21.917,37.407,22.452,37.407,23.095z M16.793,34.102c-0.972,0-1.763-0.789-1.763-1.764
		c0-0.973,0.791-1.764,1.763-1.764c0.973,0,1.764,0.791,1.764,1.764C18.557,33.312,17.766,34.102,16.793,34.102z M21.288,31.912
		h-1.923c-0.205-1.238-1.276-2.188-2.572-2.188c-1.295,0-2.366,0.949-2.57,2.188h-2.487V19.24h9.552V31.912L21.288,31.912z
		 M33.699,34.102c-0.973,0-1.764-0.789-1.764-1.764c0-0.973,0.791-1.764,1.764-1.764s1.764,0.791,1.764,1.764
		C35.463,33.312,34.671,34.102,33.699,34.102z M37.891,27.355v4.74h-1.602c-0.125-1.326-1.232-2.373-2.59-2.373
		c-1.358,0-2.465,1.047-2.59,2.373h-7.592v-4.74H37.891z M28.27,26.504h-4.534l3.924-3.293v3.266h0.425v-3.185h3.931L28.27,26.504z
		 M32.033,22.866H28.07l3.963-3.327V22.866z M36.177,16.058v3.15h-3.751L36.177,16.058z M32.459,22.911v-3.276h3.82L32.459,22.911z
		 M36.604,19.357v-3.655l0.041-0.035l1.629,2.257L36.604,19.357z"/>
	<rect x="12.632" y="20.181" width="4.746" height="5.213"/>
</g>
</svg>
