<?xml version="1.0" encoding="utf-8"?>
<!-- Generator: Adobe Illustrator 16.0.4, SVG Export Plug-In . SVG Version: 6.00 Build 0)  -->
<!DOCTYPE svg PUBLIC "-//W3C//DTD SVG 1.1//EN" "http://www.w3.org/Graphics/SVG/1.1/DTD/svg11.dtd">
<svg version="1.1" id="Layer_1" xmlns="http://www.w3.org/2000/svg" xmlns:xlink="http://www.w3.org/1999/xlink" x="0px" y="0px"
	 width="50px" height="50px" viewBox="0 0 50 50" enable-background="new 0 0 50 50" xml:space="preserve">
<g>
	<path d="M39.127,29.14V15.532H23.239V29.14h-0.965V17.677h-11.4V29.14H10v1.676h0.874v1.431h4.376
		c0.203,1.256,1.286,2.222,2.599,2.222s2.396-0.966,2.599-2.222h1.825v-1.431h0.965v1.431h8.184c0.202,1.256,1.286,2.222,2.6,2.222
		c1.312,0,2.396-0.966,2.599-2.222h2.507v-1.431H40V29.14H39.127z M17.849,33.628c-0.994,0-1.803-0.809-1.803-1.803
		c0-0.993,0.809-1.803,1.803-1.803c0.994,0,1.803,0.81,1.803,1.803C19.652,32.819,18.843,33.628,17.849,33.628z M21.435,31.406
		h-0.986c-0.203-1.257-1.286-2.222-2.599-2.222s-2.396,0.965-2.599,2.222h-3.538V18.515h9.723L21.435,31.406L21.435,31.406z
		 M34.021,33.628c-0.994,0-1.804-0.809-1.804-1.803c0-0.993,0.81-1.803,1.804-1.803s1.803,0.81,1.803,1.803
		C35.824,32.819,35.016,33.628,34.021,33.628z M38.288,31.406H36.62c-0.203-1.257-1.286-2.222-2.599-2.222
		c-1.313,0-2.396,0.965-2.6,2.222h-7.345V16.37h14.211V31.406z M17.453,24.774h-4.818v-5.293h4.818V24.774z"/>
</g>
</svg>
