<?xml version="1.0" encoding="utf-8"?>
<!-- Generator: Adobe Illustrator 16.0.4, SVG Export Plug-In . SVG Version: 6.00 Build 0)  -->
<!DOCTYPE svg PUBLIC "-//W3C//DTD SVG 1.1//EN" "http://www.w3.org/Graphics/SVG/1.1/DTD/svg11.dtd">
<svg version="1.1" id="Layer_1" xmlns="http://www.w3.org/2000/svg" xmlns:xlink="http://www.w3.org/1999/xlink" x="0px" y="0px"
	 width="50px" height="50px" viewBox="0 0 50 50" enable-background="new 0 0 50 50" xml:space="preserve">
<path d="M40,27.406h-0.809v-9.331H22.249l-0.001,6.337l-0.156-0.001v-4.216h-5.44l-2.446,4.222H10.61v2.989H10v1.688h0.61v1.055
	h2.121c0.198,1.012,1.088,1.775,2.155,1.775c1.067,0,1.957-0.766,2.154-1.775H27.4c0.197,1.012,1.086,1.775,2.154,1.775
	c1.066,0,1.957-0.766,2.155-1.775h0.613c0.196,1.012,1.087,1.775,2.153,1.775c1.067,0,1.959-0.766,2.156-1.775h2.557v-1.055h0.81
	L40,27.406L40,27.406z M14.886,31.08c-0.747,0-1.354-0.607-1.354-1.354s0.607-1.354,1.354-1.354c0.746,0,1.354,0.607,1.354,1.354
	S15.632,31.08,14.886,31.08z M29.555,31.08c-0.746,0-1.354-0.607-1.354-1.354s0.607-1.354,1.354-1.354
	c0.747,0,1.354,0.607,1.354,1.354C30.91,30.473,30.302,31.08,29.555,31.08z M34.479,31.08c-0.746,0-1.354-0.607-1.354-1.354
	s0.607-1.354,1.354-1.354c0.748,0,1.354,0.607,1.354,1.354S35.227,31.08,34.479,31.08z M38.348,29.307h-1.713
	c-0.197-1.012-1.088-1.775-2.156-1.775c-1.066,0-1.957,0.766-2.153,1.775h-0.613c-0.198-1.012-1.088-1.775-2.155-1.775
	c-1.068,0-1.957,0.766-2.154,1.775h-10.36c-0.197-1.012-1.087-1.775-2.154-1.775c-1.067,0-1.958,0.766-2.155,1.775h-1.277v-4.045
	h3.238l2.446-4.222h4.11v4.207l1.845,0.02V18.92H38.35v10.386H38.348z M17.624,21.883h2.832v3.289H15.72L17.624,21.883z"/>
</svg>
