<?xml version="1.0" encoding="utf-8"?>
<!-- Generator: Adobe Illustrator 16.0.4, SVG Export Plug-In . SVG Version: 6.00 Build 0)  -->
<!DOCTYPE svg PUBLIC "-//W3C//DTD SVG 1.1//EN" "http://www.w3.org/Graphics/SVG/1.1/DTD/svg11.dtd">
<svg version="1.1" id="Layer_1" xmlns="http://www.w3.org/2000/svg" xmlns:xlink="http://www.w3.org/1999/xlink" x="0px" y="0px"
	 width="50px" height="50px" viewBox="0 0 50 50" enable-background="new 0 0 50 50" xml:space="preserve">
<g>
	<path d="M39.103,28.959v-4.76H24.55v4.76h-0.723V16.551h1.151v-0.856h-2.009V28.96h-0.679V17.538H10.898V28.96H10v1.715h0.899
		v1.415h3.379c0.206,1.255,1.29,2.216,2.602,2.216s2.395-0.961,2.602-2.216h2.809v-1.415h2.259v1.6h6.883
		c0.278,1.162,1.319,2.031,2.565,2.031s2.287-0.869,2.566-2.031h2.537v-1.6H40V28.96L39.103,28.959L39.103,28.959z M16.881,33.447
		c-0.986,0-1.788-0.802-1.788-1.787c0-0.986,0.802-1.788,1.788-1.788c0.986,0,1.788,0.802,1.788,1.788
		C18.668,32.646,17.868,33.447,16.881,33.447z M21.435,31.231h-1.952c-0.207-1.254-1.29-2.217-2.602-2.217s-2.396,0.963-2.602,2.217
		h-2.522V18.394h9.677L21.435,31.231L21.435,31.231z M34,33.447c-0.986,0-1.789-0.802-1.789-1.787c0-0.986,0.803-1.788,1.789-1.788
		c0.985,0,1.787,0.802,1.787,1.788C35.787,32.646,34.985,33.447,34,33.447z M38.246,31.417h-1.625c-0.125-1.343-1.246-2.4-2.621-2.4
		s-2.496,1.059-2.621,2.4h-5.97v-6.361h12.837V31.417z"/>
	<rect x="12.667" y="19.349" width="4.806" height="5.278"/>
</g>
</svg>
