<?xml version="1.0" encoding="utf-8"?>
<!-- Generator: Adobe Illustrator 16.0.0, SVG Export Plug-In . SVG Version: 6.00 Build 0)  -->
<!DOCTYPE svg PUBLIC "-//W3C//DTD SVG 1.1//EN" "http://www.w3.org/Graphics/SVG/1.1/DTD/svg11.dtd">
<svg version="1.1" id="Layer_1" xmlns="http://www.w3.org/2000/svg" xmlns:xlink="http://www.w3.org/1999/xlink" x="0px" y="0px"
	 width="96px" height="96px" viewBox="0 0 96 96" enable-background="new 0 0 96 96" xml:space="preserve">
<g>
	<path d="M31.567,56.2L0.632,56.194c-1.149,7.199,0.002,14.919,3.81,21.79c3.809,6.87,9.661,11.885,16.376,14.725l16.249-25.831
		C34.036,64.209,31.994,60.444,31.567,56.2z"/>
	<path d="M64.433,56.2l30.936-0.006c1.149,7.199-0.002,14.919-3.81,21.79c-3.809,6.87-9.661,11.885-16.376,14.725L58.934,66.878
		C61.964,64.209,64.006,60.444,64.433,56.2z"/>
	<path d="M47.93,37.591c1.957,0,3.834,0.344,5.575,0.973l15.459-28.09c-5.739-4.495-12.963-7.183-20.817-7.183
		c-7.855,0-15.079,2.688-20.818,7.183l15.391,27.965C44.357,37.892,46.108,37.591,47.93,37.591z"/>
	<circle cx="47.93" cy="53.603" r="10.154"/>
</g>
</svg>
