<?xml version="1.0" encoding="utf-8"?>
<!-- Generator: Adobe Illustrator 17.0.0, SVG Export Plug-In . SVG Version: 6.00 Build 0)  -->
<!DOCTYPE svg PUBLIC "-//W3C//DTD SVG 1.1//EN" "http://www.w3.org/Graphics/SVG/1.1/DTD/svg11.dtd">
<svg version="1.1" id="Capa_1" xmlns="http://www.w3.org/2000/svg" xmlns:xlink="http://www.w3.org/1999/xlink" x="0px" y="0px"
	 width="10.612px" height="20.745px" viewBox="0 0 10.612 20.745" enable-background="new 0 0 10.612 20.745" xml:space="preserve">
<path d="M10.612,19.477c0.009,0.693-0.944,1.26-2.127,1.268c-1.183,0.008-2.152-0.549-2.16-1.242
	c-0.001-0.055,0.008-0.109,0.019-0.164H6.343c0,0,0.001-0.002,0.001-0.004c0.015-0.071,0.04-0.143,0.075-0.209
	c0.557-1.6,0.976-3.894,1.187-6.582c-0.001,0-0.004,0-0.007-0.002l-0.005-0.479c-0.007-0.459-0.481-0.856-1.174-1.053
	c-0.041-0.59-0.067-1.201-0.075-1.827C6.28,4.192,7.356,0.14,8.75,0.131c0.137,0,0.27,0.037,0.402,0.111
	C8.985,2.15,8.905,4.391,8.936,6.79c0.027,2.177,0.058,4.224,0.242,6.007c0.285,2.571,0.752,4.762,1.33,6.301
	c0.036,0.068,0.062,0.138,0.08,0.209c0,0.002,0.001,0.004,0.001,0.006C10.602,19.366,10.612,19.421,10.612,19.477z M4.682,4.851
	L4.424,1.369v-1.02c0-0.191-0.16-0.348-0.359-0.348c-0.197,0-0.358,0.156-0.358,0.348v4.413c-0.06,0.097-0.159,0.165-0.281,0.167
	C3.234,4.935,3.075,4.783,3.072,4.59L3.016,2.237V0.348C3.016,0.157,2.854,0,2.658,0S2.301,0.156,2.301,0.348v4.451
	c-0.062,0.093-0.16,0.16-0.279,0.162C1.831,4.965,1.67,4.815,1.667,4.621L1.559,2.078v-1.73C1.559,0.157,1.397,0,1.201,0
	C1.003,0,0.842,0.156,0.842,0.348v0.541L0.358,4.851C0.34,5.592,0.941,6.217,1.878,6.399c-0.197,5.107-0.87,9.567-1.768,12.305
	c-0.038,0.082-0.064,0.164-0.084,0.25c0,0.001-0.002,0.003-0.002,0.006C0.01,19.023,0.001,19.089,0,19.155
	c-0.02,0.822,0.924,1.49,2.107,1.489c1.184,0,2.16-0.669,2.18-1.493c0-0.065-0.006-0.131-0.017-0.194
	c0-0.002-0.001-0.003-0.001-0.007c-0.015-0.084-0.039-0.168-0.072-0.248C3.43,15.966,2.97,11.507,3.015,6.397
	C3.957,6.216,4.665,5.593,4.682,4.851z"/>
</svg>
