<?xml version="1.0" encoding="utf-8"?>
<!-- Generator: Adobe Illustrator 16.0.4, SVG Export Plug-In . SVG Version: 6.00 Build 0)  -->
<!DOCTYPE svg PUBLIC "-//W3C//DTD SVG 1.1//EN" "http://www.w3.org/Graphics/SVG/1.1/DTD/svg11.dtd">
<svg version="1.1" id="Layer_1" xmlns="http://www.w3.org/2000/svg" xmlns:xlink="http://www.w3.org/1999/xlink" x="0px" y="0px"
	 width="50px" height="50px" viewBox="0 0 50 50" enable-background="new 0 0 50 50" xml:space="preserve">
<path d="M33.332,15.795c-0.141-0.096-0.318-0.113-0.474-0.049c-0.515,0.214-5.062,2.13-6.069,3.614
	c-1.009,1.483-0.789,3.424,0.426,4.564l-0.738,1.017c-0.356-0.052-0.729,0.081-0.955,0.394l-0.398,0.554l-0.398-0.554
	c-0.214-0.298-0.562-0.426-0.901-0.396l-1.18-1.642c0.416-0.423,0.696-0.959,0.794-1.558c0.125-0.766-0.056-1.534-0.509-2.164
	l-1.668-2.32c-0.161-0.225-0.474-0.276-0.698-0.114c-0.224,0.161-0.275,0.474-0.114,0.698l1.668,2.32
	c0.297,0.413,0.416,0.917,0.333,1.418c-0.054,0.332-0.199,0.632-0.406,0.887l-2.735-3.805c-0.161-0.224-0.474-0.277-0.698-0.114
	c-0.224,0.161-0.275,0.473-0.114,0.698l2.734,3.804c-0.784,0.291-1.696,0.046-2.208-0.665l-1.667-2.32
	c-0.161-0.225-0.475-0.276-0.698-0.115c-0.225,0.161-0.276,0.474-0.115,0.698l1.667,2.321c0.567,0.788,1.458,1.208,2.362,1.208
	c0.428,0,0.858-0.097,1.258-0.291l1.179,1.64c-0.136,0.312-0.125,0.683,0.088,0.979l0.791,1.101l-3.669,5.105
	c-0.322,0.448-0.22,1.073,0.229,1.396c0.177,0.127,0.38,0.188,0.583,0.188c0.311,0,0.618-0.146,0.813-0.417l3.276-4.56l3.276,4.56
	c0.195,0.271,0.502,0.417,0.813,0.417c0.202,0,0.406-0.062,0.583-0.188c0.449-0.321,0.551-0.946,0.229-1.396l-3.669-5.105
	l0.791-1.101c0.202-0.281,0.22-0.626,0.107-0.928l0.782-1.074c0.438,0.209,0.919,0.319,1.414,0.319c1.17,0,2.274-0.598,2.955-1.6
	c1.008-1.484,1.137-6.441,1.148-7.001C33.554,16.05,33.472,15.891,33.332,15.795z M31.575,22.658
	c-0.669,0.984-1.956,1.383-2.979,0.992l0.24-0.353l1.554-0.114c0.275-0.02,0.482-0.26,0.462-0.535
	c-0.02-0.275-0.247-0.486-0.535-0.462l-0.764,0.056l0.247-0.364l1.553-0.113c0.275-0.02,0.482-0.259,0.462-0.535
	c-0.02-0.275-0.265-0.483-0.535-0.462l-0.765,0.055l0.52-0.764c0.154-0.228,0.096-0.539-0.134-0.694
	c-0.229-0.155-0.539-0.096-0.693,0.133l-0.53,0.78l-0.201-0.744c-0.072-0.267-0.348-0.426-0.613-0.352
	c-0.267,0.072-0.424,0.346-0.352,0.613l0.425,1.573l-0.224,0.33l-0.203-0.746c-0.073-0.267-0.348-0.425-0.613-0.352
	c-0.267,0.072-0.424,0.347-0.352,0.613l0.427,1.573l-0.203,0.298c-0.756-0.822-0.849-2.141-0.155-3.163
	c0.607-0.894,3.305-2.228,4.907-2.942C32.441,18.743,32.183,21.762,31.575,22.658z"/>
</svg>
