<?xml version="1.0" encoding="utf-8"?>
<!-- Generator: Adobe Illustrator 17.0.0, SVG Export Plug-In . SVG Version: 6.00 Build 0)  -->
<!DOCTYPE svg PUBLIC "-//W3C//DTD SVG 1.1//EN" "http://www.w3.org/Graphics/SVG/1.1/DTD/svg11.dtd">
<svg version="1.1" id="Capa_1" xmlns="http://www.w3.org/2000/svg" xmlns:xlink="http://www.w3.org/1999/xlink" x="0px" y="0px"
	 width="24.673px" height="19.924px" viewBox="0 0 24.673 19.924" enable-background="new 0 0 24.673 19.924" xml:space="preserve">
<path d="M18.838,0c-3.222,0-5.834,2.611-5.834,5.831c0,3.22,2.612,5.832,5.834,5.832c0.189,0,0.375-0.011,0.56-0.028
	c-0.115,0.647-0.225,1.243-0.307,1.687c-0.029,0.146-0.287,0.412-0.436,0.407c-2.441-0.083-10.609-0.19-10.609-0.19L5.347,5.733
	L5.191,5.206C5.165,5.133,5.14,5.069,5.125,5.028c-0.18-0.468-0.48-0.772-0.732-0.952C4.137,3.894,3.929,3.83,3.901,3.822
	L3.893,3.819L2.025,3.353C1.9,3.096,1.506,2.906,1.035,2.906C0.464,2.906,0,3.183,0,3.525c0,0.341,0.464,0.618,1.035,0.618
	c0.187,0,0.359-0.03,0.511-0.083l2.055,0.514c0.032,0.013,0.154,0.062,0.287,0.165C4.04,4.854,4.21,5.031,4.318,5.311
	C4.461,5.682,5.222,7.79,5.943,9.79c0.361,1.002,0.714,1.982,0.977,2.71c0.229,0.642,0.391,1.089,0.424,1.184
	c0.008,0.033,0.027,0.128,0.025,0.239c0.002,0.119-0.02,0.25-0.071,0.352c-0.054,0.103-0.124,0.188-0.292,0.263
	c-0.521,0.229-0.827,0.737-0.831,1.266c-0.003,0.331,0.136,0.685,0.425,0.934c0.289,0.248,0.703,0.38,1.209,0.38
	c0.137,0,0.328,0,0.561,0l0.688,0.001c-0.583,0.185-1.009,0.723-1.009,1.366c0,0.796,0.646,1.439,1.441,1.439
	s1.438-0.643,1.438-1.439c0-0.642-0.423-1.179-1.002-1.365l0.685,0.001c0.967,0.002,2.06,0.004,3.116,0.007
	c0.741,0.001,1.462,0.004,2.109,0.004h0.638c-0.558,0.201-0.959,0.727-0.959,1.353c0,0.796,0.645,1.439,1.439,1.439
	s1.439-0.643,1.439-1.439c0-0.623-0.398-1.149-0.953-1.349h0.632c0.243,0,0.382,0,0.382,0c0.047,0,0.077,0,0.077,0h0.001
	c0.216,0,0.393-0.173,0.393-0.39c0-0.216-0.176-0.39-0.391-0.392c0,0-9.055-0.022-10.646-0.022
	c-0.379-0.001-0.589-0.095-0.699-0.189c-0.107-0.098-0.148-0.205-0.153-0.34c-0.002-0.214,0.146-0.46,0.356-0.546
	c0.335-0.141,0.564-0.385,0.687-0.636c0.058-0.121,0.094-0.24,0.117-0.354c0.073,0.018,0.146,0.029,0.223,0.032l10.255,0.209h0.018
	c0.006,0,0.011-0.001,0.016-0.001l0.045,0.001h0.02c0.229,0,0.439-0.082,0.604-0.216c0.165-0.132,0.294-0.323,0.333-0.556
	l0.371-2.208c2.625-0.569,4.592-2.901,4.592-5.697C24.669,2.611,22.058,0,18.838,0z M22.474,7.782l-1.688,1.687l-1.948-1.951
	L16.89,9.469l-1.689-1.687l1.951-1.951l-1.951-1.95l1.689-1.686l1.948,1.951l1.948-1.951l1.688,1.686l-1.948,1.95L22.474,7.782z"/>
</svg>
