<?xml version="1.0" encoding="utf-8"?>
<!-- Generator: Adobe Illustrator 16.0.4, SVG Export Plug-In . SVG Version: 6.00 Build 0)  -->
<!DOCTYPE svg PUBLIC "-//W3C//DTD SVG 1.1//EN" "http://www.w3.org/Graphics/SVG/1.1/DTD/svg11.dtd">
<svg version="1.1" id="Layer_1" xmlns="http://www.w3.org/2000/svg" xmlns:xlink="http://www.w3.org/1999/xlink" x="0px" y="0px"
	 width="50px" height="50px" viewBox="0 0 50 50" enable-background="new 0 0 50 50" xml:space="preserve">
<path d="M40,26.129h-1.1v-3.928h-3.488v-1.603h-1v1.603h-5.87v-1.603h-1v1.603h-6.625l3.279-3.354l-0.715-0.699l-3.963,4.054H10.84
	v3.928H10v2h0.841v1.418h4.549c0.237,1.309,1.379,2.307,2.755,2.307c1.375,0,2.518-0.998,2.754-2.307h8.527
	c0.237,1.309,1.381,2.307,2.756,2.307c1.377,0,2.52-0.998,2.756-2.307H38.9v-1.418h1.099L40,26.129L40,26.129z M18.145,30.852
	c-0.996,0-1.806-0.809-1.806-1.805s0.81-1.805,1.806-1.805s1.805,0.809,1.805,1.805S19.141,30.852,18.145,30.852z M32.184,30.852
	c-0.996,0-1.808-0.809-1.808-1.805s0.812-1.805,1.808-1.805s1.806,0.809,1.806,1.805S33.18,30.852,32.184,30.852z M37.9,28.547
	h-2.963c-0.236-1.309-1.379-2.305-2.754-2.305c-1.377,0-2.52,0.996-2.757,2.305H20.9c-0.237-1.309-1.379-2.305-2.754-2.305
	c-1.376,0-2.518,0.996-2.755,2.305h-3.549v-5.346h26.061v5.346H37.9z"/>
</svg>
