<?xml version="1.0" encoding="utf-8"?>
<!-- Generator: Adobe Illustrator 16.0.4, SVG Export Plug-In . SVG Version: 6.00 Build 0)  -->
<!DOCTYPE svg PUBLIC "-//W3C//DTD SVG 1.1//EN" "http://www.w3.org/Graphics/SVG/1.1/DTD/svg11.dtd">
<svg version="1.1" id="Layer_1" xmlns="http://www.w3.org/2000/svg" xmlns:xlink="http://www.w3.org/1999/xlink" x="0px" y="0px"
	 width="50px" height="50px" viewBox="0 0 50 50" enable-background="new 0 0 50 50" xml:space="preserve">
<path d="M24.062,22.835v-1.449h1.449c0.275,0,0.5-0.224,0.5-0.5V18.45c0-0.276-0.225-0.5-0.5-0.5h-1.449v-1.449
	c0-0.276-0.224-0.5-0.5-0.5h-2.437c-0.276,0-0.5,0.224-0.5,0.5v1.449h-1.448c-0.275,0-0.5,0.224-0.5,0.5v2.436
	c0,0.276,0.225,0.5,0.5,0.5h1.448v1.449c0,0.276,0.224,0.5,0.5,0.5h2.437C23.84,23.335,24.062,23.111,24.062,22.835z M23.062,20.886
	v1.449h-1.437v-1.449c0-0.276-0.224-0.5-0.5-0.5h-1.448V18.95h1.448c0.276,0,0.5-0.224,0.5-0.5v-1.449h1.437v1.449
	c0,0.276,0.225,0.5,0.5,0.5h1.449v1.436h-1.449C23.287,20.386,23.062,20.61,23.062,20.886z M30.93,20.453
	c-0.021-0.167-0.123-0.313-0.275-0.388c-0.15-0.075-0.33-0.068-0.475,0.019c-0.289,0.171-7.08,4.213-8.271,6.63
	c-1.257,2.556-0.302,5.606,2.128,6.802c0.652,0.32,1.354,0.483,2.081,0.483c1.916,0,3.724-1.157,4.604-2.948
	C31.912,28.633,30.971,20.786,30.93,20.453z M29.826,30.607c-0.715,1.453-2.17,2.391-3.708,2.391c-0.404,0-0.791-0.086-1.167-0.212
	l0.47-0.954l2.442-0.537c0.27-0.059,0.439-0.326,0.381-0.596s-0.323-0.438-0.596-0.381l-1.662,0.365l0.584-1.19l2.441-0.536
	c0.271-0.059,0.44-0.326,0.381-0.596c-0.059-0.27-0.32-0.44-0.596-0.381l-1.66,0.365l0.852-1.732
	c0.123-0.248,0.021-0.547-0.227-0.67c-0.248-0.119-0.548-0.019-0.67,0.229l-0.885,1.797l-0.688-1.59
	c-0.11-0.253-0.406-0.369-0.658-0.26c-0.254,0.109-0.369,0.404-0.26,0.658l1.024,2.371l-0.569,1.158l-0.688-1.59
	c-0.11-0.253-0.405-0.369-0.657-0.26c-0.254,0.109-0.37,0.404-0.261,0.658l1.025,2.371l-0.425,0.863
	c-1.604-1.084-2.181-3.297-1.247-5.192c0.791-1.604,5-4.438,7.217-5.809C30.291,23.94,30.615,29.002,29.826,30.607z"/>
</svg>
