<?xml version="1.0" encoding="utf-8"?>
<!-- Generator: Adobe Illustrator 16.0.0, SVG Export Plug-In . SVG Version: 6.00 Build 0)  -->
<!DOCTYPE svg PUBLIC "-//W3C//DTD SVG 1.1//EN" "http://www.w3.org/Graphics/SVG/1.1/DTD/svg11.dtd">
<svg version="1.1" id="Layer_1" xmlns="http://www.w3.org/2000/svg" xmlns:xlink="http://www.w3.org/1999/xlink" x="0px" y="0px"
	 width="96px" height="96px" viewBox="0 0 96 96" enable-background="new 0 0 96 96" xml:space="preserve">
<path d="M76.953,64.158c3.949-11.143,1.27-16.383-0.685-18.517c-2.229-2.429-5.563-3.287-9.151-2.35
	c-6.39,1.668-11.825,8.304-13.86,16.953c-0.576,2.692-0.818,5.603-1.074,8.685c-0.713,8.628-1.391,16.778-8.928,20.096
	c-2.535,1.099-4.784,1.26-6.691,0.481c-2.64-1.077-4.192-3.755-5.025-5.797c-2.527-6.318,0.391-11.239,3.771-16.937
	c0.04-0.068,0.08-0.139,0.12-0.207c1.505-0.108,2.907-0.996,3.59-2.46c1.875-4.02,2.684-7.26,3.008-9.626
	c3.048-0.611,5.981-1.906,8.629-3.862c0.547-0.405,0.871-1.047,0.871-1.729v-1.774c4.736-4.536,7.763-11.403,7.763-19.077
	c0-0.716,0.004-1.423,0.008-2.122c0.058-9.177,0.107-18.649-11.833-21.612c0.308-1.438-0.578-2.87-2.016-3.223
	c-1.465-0.357-2.943,0.539-3.302,2.005L41.006,7.75c-0.358,1.465,0.538,2.944,2.005,3.302c1.467,0.358,2.944-0.54,3.302-2.005
	l0.141-0.574c8.251,2.01,8.609,7.235,8.547,17.417c-0.004,0.708-0.008,1.424-0.008,2.148c0,5.166-1.605,9.888-4.244,13.486
	c-0.175-0.144-0.369-0.264-0.589-0.349c-0.826-0.323-1.765-0.104-2.361,0.546c-2.714,2.951-6.174,4.576-9.742,4.576
	c-3.586,0-7.054-1.625-9.766-4.578c-0.597-0.651-1.537-0.869-2.361-0.548c-0.22,0.085-0.416,0.206-0.591,0.351
	c-2.639-3.599-4.242-8.319-4.242-13.484c0-0.725-0.004-1.44-0.01-2.148c-0.061-10.182,0.296-15.407,8.549-17.417l0.139,0.574
	c0.359,1.465,1.837,2.363,3.302,2.005c1.467-0.357,2.363-1.837,2.007-3.302l-1.141-4.664c-0.358-1.466-1.837-2.362-3.302-2.005
	c-1.44,0.353-2.323,1.784-2.016,3.223C16.682,7.267,16.733,16.739,16.791,25.916c0.004,0.699,0.008,1.406,0.008,2.122
	c0,7.674,3.024,14.541,7.763,19.077v1.78c0,0.682,0.322,1.323,0.869,1.728c2.434,1.797,5.11,3.041,7.9,3.704
	c-0.302,1.514-0.906,3.582-2.102,6.148c-0.53,1.138-0.516,2.388-0.069,3.463c-0.055,0.093-0.11,0.185-0.164,0.278
	c-3.541,5.973-7.557,12.742-4.106,21.369c1.723,4.228,4.412,7.188,7.778,8.563c1.389,0.566,2.87,0.849,4.419,0.849
	c1.975,0,4.056-0.461,6.173-1.378c10.283-4.524,11.191-15.477,11.92-24.275c0.242-2.916,0.47-5.671,0.969-7.999
	c1.822-7.751,6.455-12.216,10.236-13.202c1.24-0.326,2.976-0.436,4.189,0.887c1.992,2.174,1.869,7.175-0.323,13.391
	c-3.681,0.087-6.641,3.093-6.641,6.795c0,3.759,3.046,6.804,6.803,6.804c3.758,0,6.804-3.045,6.804-6.804
	C79.217,67.205,78.34,65.404,76.953,64.158z"/>
</svg>
