<?xml version="1.0" encoding="utf-8"?>
<!-- Generator: Adobe Illustrator 16.0.4, SVG Export Plug-In . SVG Version: 6.00 Build 0)  -->
<!DOCTYPE svg PUBLIC "-//W3C//DTD SVG 1.1//EN" "http://www.w3.org/Graphics/SVG/1.1/DTD/svg11.dtd">
<svg version="1.1" id="Layer_1" xmlns="http://www.w3.org/2000/svg" xmlns:xlink="http://www.w3.org/1999/xlink" x="0px" y="0px"
	 width="50px" height="50px" viewBox="0 0 50 50" enable-background="new 0 0 50 50" xml:space="preserve">
<path d="M31.335,18.866C27.002,18.845,14.006,18.7,14.006,18.7c-0.246-0.022-0.472,0.187-0.502,0.439
	c-0.03,0.254,0.135,0.488,0.383,0.547l12.695,2.957c-0.272,0.771-0.416,1.604-0.416,2.44c0,3.428,2.317,6.218,5.166,6.218
	c2.85,0,5.167-2.79,5.167-6.218C36.5,21.669,34.184,18.879,31.335,18.866z M18.564,19.75c4.18,0.044,10.105,0.104,12.766,0.116
	c2.119,0.011,3.854,2.007,4.116,4.562h-8.245c0.069-0.676,0.244-1.333,0.518-1.931c0.062-0.137,0.062-0.294-0.006-0.43
	c-0.065-0.135-0.188-0.231-0.335-0.267L18.564,19.75z M31.333,30.303c-2.203,0-3.994-2.16-4.138-4.875h8.277
	C35.328,28.143,33.537,30.303,31.333,30.303z M32.583,27.209c0,0.363-0.294,0.656-0.656,0.656c-0.361,0-0.655-0.293-0.655-0.656
	c0-0.361,0.294-0.656,0.655-0.656C32.289,26.553,32.583,26.848,32.583,27.209z M33.396,26.646c0,0.121-0.099,0.219-0.22,0.219
	c-0.12,0-0.219-0.098-0.219-0.219s0.099-0.22,0.219-0.22C33.297,26.427,33.396,26.525,33.396,26.646z M30.396,27.678
	c0,0.414-0.336,0.75-0.75,0.75s-0.75-0.336-0.75-0.75s0.336-0.75,0.75-0.75S30.396,27.264,30.396,27.678z M31.958,29.396
	c0,0.225-0.182,0.405-0.406,0.405c-0.224,0-0.405-0.182-0.405-0.405c0-0.225,0.182-0.406,0.405-0.406
	C31.776,28.99,31.958,29.172,31.958,29.396z M30.021,22.178c0-0.518,0.42-0.938,0.938-0.938c0.519,0,0.938,0.42,0.938,0.938
	s-0.42,0.938-0.938,0.938C30.44,23.117,30.021,22.696,30.021,22.178z M32.646,22.366c0-0.241,0.195-0.438,0.438-0.438
	s0.438,0.196,0.438,0.438s-0.196,0.438-0.438,0.438S32.646,22.608,32.646,22.366z"/>
</svg>
