<?xml version="1.0" encoding="utf-8"?>
<!-- Generator: Adobe Illustrator 16.0.0, SVG Export Plug-In . SVG Version: 6.00 Build 0)  -->
<!DOCTYPE svg PUBLIC "-//W3C//DTD SVG 1.1//EN" "http://www.w3.org/Graphics/SVG/1.1/DTD/svg11.dtd">
<svg version="1.1" id="Layer_1" xmlns="http://www.w3.org/2000/svg" xmlns:xlink="http://www.w3.org/1999/xlink" x="0px" y="0px"
	 width="96px" height="96px" viewBox="0 0 96 96" enable-background="new 0 0 96 96" xml:space="preserve">
<g>
	<rect x="67.52" y="48.952" width="9.504" height="9.155"/>
	<path d="M67.537,34.085c-3.367-5.33-0.563-8.521-0.233-8.865l-1.261-1.233l-1.277-1.277c-1.83,1.831-4.238,6.962-0.246,13.281
		c3.364,5.33,0.563,8.52,0.246,8.852l2.524,2.524C69.121,45.535,71.527,40.403,67.537,34.085z"/>
	<path d="M73.568,43.057l2.524,2.525c1.591-1.592,3.691-6.043,0.246-11.497c-2.695-4.27-0.489-6.81-0.229-7.084l-1.278-1.245
		l-1.263-1.262c-1.591,1.591-3.692,6.043-0.248,11.496C76.018,40.26,73.813,42.798,73.568,43.057z"/>
	<path d="M48,0.5C21.809,0.5,0.5,21.809,0.5,48S21.809,95.5,48,95.5S95.5,74.191,95.5,48S74.191,0.5,48,0.5z M48,83.5
		c-19.575,0-35.5-15.925-35.5-35.5c0-7.626,2.425-14.691,6.532-20.483l21.436,21.436H17.8v9.155h31.823l18.86,18.86
		C62.691,81.075,55.626,83.5,48,83.5z M76.968,68.483L64.293,55.809v-6.856h-6.856l-29.92-29.92C33.309,14.925,40.374,12.5,48,12.5
		c19.575,0,35.5,15.925,35.5,35.5C83.5,55.626,81.075,62.691,76.968,68.483z"/>
</g>
</svg>
