<?xml version="1.0" encoding="utf-8"?>
<!-- Generator: Adobe Illustrator 17.0.0, SVG Export Plug-In . SVG Version: 6.00 Build 0)  -->
<!DOCTYPE svg PUBLIC "-//W3C//DTD SVG 1.1//EN" "http://www.w3.org/Graphics/SVG/1.1/DTD/svg11.dtd">
<svg version="1.1" id="Capa_1" xmlns="http://www.w3.org/2000/svg" xmlns:xlink="http://www.w3.org/1999/xlink" x="0px" y="0px"
	 width="20.104px" height="16.38px" viewBox="0 0 20.104 16.38" enable-background="new 0 0 20.104 16.38" xml:space="preserve">
<path d="M0,1.783h2.15v0.791H0V1.783z M0,1.034h2.15V0.309H0V1.034z M0,4.051h2.15V3.326H0V4.051z M20.106,16.378
	c-0.042,0.002-0.083,0.002-0.125,0.002c-1.833,0-3.934-1.414-4.851-2.809c-0.826,0.125-1.649-0.35-1.93-1.17l-0.978-2.857
	c-0.126,0.01-0.253,0.018-0.383,0.018c-2.641,0-4.782-2.14-4.782-4.781c0-0.143,0.008-0.281,0.021-0.422H3.095V0h8.743
	c2.641,0,4.782,2.14,4.782,4.781c0,1.223-0.463,2.332-1.216,3.18l1.129,3.301c0.257,0.746-0.024,1.541-0.628,1.984
	c0.835,1.182,2.675,2.367,4.169,2.301L20.106,16.378z M13.601,4.781c0-0.973-0.789-1.762-1.762-1.762
	c-0.974,0-1.762,0.789-1.762,1.762s0.788,1.764,1.762,1.764C12.812,6.545,13.601,5.754,13.601,4.781z"/>
</svg>
