<?xml version="1.0" encoding="utf-8"?>
<!-- Generator: Adobe Illustrator 16.0.0, SVG Export Plug-In . SVG Version: 6.00 Build 0)  -->
<!DOCTYPE svg PUBLIC "-//W3C//DTD SVG 1.1//EN" "http://www.w3.org/Graphics/SVG/1.1/DTD/svg11.dtd">
<svg version="1.1" id="Layer_1" xmlns="http://www.w3.org/2000/svg" xmlns:xlink="http://www.w3.org/1999/xlink" x="0px" y="0px"
	 width="96px" height="96px" viewBox="0 0 96 96" enable-background="new 0 0 96 96" xml:space="preserve">
<g>
	<path fill-rule="evenodd" clip-rule="evenodd" d="M53.155,94.058c0-0.615-0.001-1.121,0-1.628
		c0.007-5.242,0.021-10.485,0.018-15.728c-0.001-2.5-0.942-3.522-3.474-3.515c-3.634,0.011-7.189-0.441-10.642-1.557
		C28.626,68.261,23.295,60.803,22,50.168c-0.191-1.574-0.283-3.167-0.321-4.754c-0.054-2.202,0.862-3.267,3.039-3.626
		c0.595-0.098,1.212-0.083,1.818-0.083c11.188-0.006,22.376-0.006,33.563-0.009c1.859-0.001,2.466-0.812,1.469-2.381
		c-2.685-4.225-6.377-7.175-11.553-7.432c-4.529-0.226-9.079-0.043-13.619-0.044c-3.023,0-3.803-0.752-3.831-3.811
		c-0.031-3.417-0.013-6.835-0.016-10.252c0-0.644,0-1.287,0-1.941c-7.96,0.636-19.361,16.977-20.457,28.198
		c-1.836,18.823,10.908,36.384,30.571,39.655c0,3.382,0,6.78,0,10.403c-9.032-0.975-17.044-4.352-24.01-10.098
		C8.86,75.917,3.08,65.526,1.803,52.871C-1.086,24.248,20.994,3.762,42.751,1.907c0,0.563-0.001,1.115,0,1.666
		c0.001,4.962-0.001,9.924,0.003,14.886c0.003,2.604,0.553,2.992,3.206,3.213c3.016,0.25,6.069,0.53,8.997,1.244
		c10.287,2.506,17.183,10.396,18.451,20.891c0.229,1.897,0.316,3.821,0.321,5.733c0.005,1.875-1.063,2.91-2.946,3.06
		c-0.698,0.056-1.403,0.023-2.105,0.023c-10.86,0-21.721,0.047-32.58-0.043c-2.104-0.018-2.854,1.221-1.678,3.055
		c2.53,3.942,6.122,6.379,10.766,6.775c4.184,0.356,8.408,0.227,12.615,0.312c0.796,0.016,1.597-0.025,2.386,0.057
		c2.354,0.243,3.438,1.393,3.46,3.755c0.038,3.979,0.009,7.958,0.021,11.937c0.002,0.539,0.086,1.078,0.147,1.798
		c3.189-1.463,5.865-3.321,8.282-5.527c6.459-5.896,10.48-13.195,11.585-21.857c1.515-11.881-2.051-22.183-10.556-30.67
		c-5.183-5.171-11.47-8.298-18.634-9.724c-0.412-0.082-1.08-0.487-1.086-0.755c-0.075-3.259-0.049-6.521-0.049-9.795
		C73.37,3.737,93.338,20.891,94.407,45.866C95.548,72.483,75.2,91.963,53.155,94.058z"/>
</g>
</svg>
