<?xml version="1.0" encoding="utf-8"?>
<!-- Generator: Adobe Illustrator 16.0.4, SVG Export Plug-In . SVG Version: 6.00 Build 0)  -->
<!DOCTYPE svg PUBLIC "-//W3C//DTD SVG 1.1//EN" "http://www.w3.org/Graphics/SVG/1.1/DTD/svg11.dtd">
<svg version="1.1" id="Layer_1" xmlns="http://www.w3.org/2000/svg" xmlns:xlink="http://www.w3.org/1999/xlink" x="0px" y="0px"
	 width="226.77px" height="155.91px" viewBox="0 0 226.77 155.91" enable-background="new 0 0 226.77 155.91" xml:space="preserve">
<g>
	<path d="M133.28,103.533c0-10.299-8.378-18.678-18.678-18.678s-18.678,8.379-18.678,18.678c0,10.301,8.378,18.678,18.678,18.678
		S133.28,113.832,133.28,103.533z"/>
	<path d="M78.061,33.699c-10.3,0-18.677,8.377-18.677,18.677s8.377,18.678,18.677,18.678s18.678-8.378,18.678-18.678
		S88.361,33.699,78.061,33.699z"/>
	<path d="M167.386,52.376c0-10.3-8.378-18.677-18.678-18.677s-18.678,8.377-18.678,18.677s8.378,18.678,18.678,18.678
		S167.386,62.673,167.386,52.376z"/>
</g>
</svg>
