<?xml version="1.0" encoding="utf-8"?>
<!-- Generator: Adobe Illustrator 17.1.0, SVG Export Plug-In . SVG Version: 6.00 Build 0)  -->
<!DOCTYPE svg PUBLIC "-//W3C//DTD SVG 1.1//EN" "http://www.w3.org/Graphics/SVG/1.1/DTD/svg11.dtd">
<svg version="1.1" xmlns="http://www.w3.org/2000/svg" xmlns:xlink="http://www.w3.org/1999/xlink" x="0px" y="0px"
	 viewBox="0 0 64 64" enable-background="new 0 0 64 64" xml:space="preserve">
<g id="Imagenes">
</g>
<g id="Layer_2">
	<path d="M62,29c0-1.747-2.288-1.968-2.867-1.996C59.09,27.003,59.04,27,59,27h-3h-1v-2.75c0-9.958-8.091-11.5-8.091-11.5L48,9.939
		c0,0,0.833-2.773-1.458-3.564c-0.448-0.155-0.847-0.22-1.201-0.22c-1.83,0-2.456,1.734-2.456,1.734l-1.135,4.027L41.3,7.828
		c0,0-0.05-1.828-2.8-1.828C35.917,6,36,8.167,36,8.167V12c0,0-0.372,0-1,0H21c-0.366,0-0.709,0.017-1.054,0.033
		C15.583,12.283,13,14,13,14s-2-2.75-3-3.75C9.577,9.827,9.043,9.673,8.526,9.673c-0.706,0-1.38,0.289-1.693,0.577
		c-0.542,0.5-1.333,1.5-0.23,2.991C7.198,14.045,9,16,9,16s-1.625-1.167-3-2c-0.492-0.298-0.915-0.443-1.31-0.443
		c-0.577,0-1.096,0.309-1.689,0.902C2,15.458,3,17,3,17l3,3c0,0-0.424,0.953-0.708,3.5c-0.201,1.798-0.311,9.565-0.167,12.458
		C5.227,38,5.583,40.165,5.583,40.165s-1.859,0.675-3.068,1.71c-0.721,0.617-1.261,1.895-0.5,3.467
		c0.593,1.224,1.401,1.467,1.951,1.467c0.364,0,0.614-0.107,0.614-0.107l4.003-1.995c0,0-2.318,1.974-3.318,2.974
		s-0.449,2.38,0.61,3.317c0.486,0.431,0.968,0.573,1.394,0.573c0.852,0,1.481-0.576,1.481-0.576L11,48.992
		c1.718,2.828,5.527,3.019,6.566,3.019c0.171,0,0.267-0.021,0.267-0.021l8.917-0.052c0,0-0.125,0.937-0.125,2.937
		c0,1.508,1.452,2.125,2.347,2.125c0.009,0,0.019,0,0.028,0c0.865,0,2.167-0.417,2.25-1.167c0.542-2.25,0.75-4.417,0.75-4.417
		s0.171,1.52,0.75,3.542c0.551,1.923,2.009,1.992,3.009,1.992c2.25,0,2.282-1.909,2.282-1.909L38,52c0,0,0.042,0,3.042,0
		C54.042,52,54,40.083,54,40.083v0V39v-1c0,0,4,0,5,0s3-1,3-3s-2-2-2-2l-4-0.5c0,0,3.625-0.25,4.583-0.5C61.551,31.748,62,31,62,29z
		 M39.393,18h0.066c0,0,2.712-0.131,5.08,1.126L29.45,33.211l-2.744-3.431L39.393,18z M36.454,18L25.453,28.215l-2.335-2.919
		L30.414,18H36.454z M22,18h5.586l-5.725,5.725l-4.122-5.153C18.909,18.214,20.312,18,22,18z M12,35c0-0.282,0-0.538,0-0.8
		l8.46,11.632C17.655,45.323,12,43.273,12,35z M23.054,46L12,30.8c0-3.237,0-3.8,0-3.8s-0.129-1.186,0.229-2.696L28.5,46
		C26.126,46,24.179,46,23.054,46z M31,46L13.084,22.113c0.575-1.001,1.442-1.975,2.746-2.724L37.119,46C35.035,46,32.943,46,31,46z
		 M39.649,45.961l-8.946-11.182l3.839-3.584l11.054,12.32C44.363,44.809,42.483,45.82,39.649,45.961z M48,37.5
		c0,0-0.007,2.203-1.195,4.366l-10.8-12.037l3.848-3.592L48,34.449C48,37.065,48,37.5,48,37.5z M48,31.609l-6.684-6.737l4.855-4.532
		C47.235,21.415,48,22.97,48,25.255C48,27.899,48,29.974,48,31.609z"/>
</g>
</svg>
