<?xml version="1.0" encoding="utf-8"?>
<!-- Generator: Adobe Illustrator 16.0.0, SVG Export Plug-In . SVG Version: 6.00 Build 0)  -->
<!DOCTYPE svg PUBLIC "-//W3C//DTD SVG 1.1//EN" "http://www.w3.org/Graphics/SVG/1.1/DTD/svg11.dtd">
<svg version="1.1" id="Layer_2" xmlns="http://www.w3.org/2000/svg" xmlns:xlink="http://www.w3.org/1999/xlink" x="0px" y="0px"
	 width="96px" height="96px" viewBox="0 0 96 96" enable-background="new 0 0 96 96" xml:space="preserve">
<g>
	<path d="M48,13.28c-19.145,0-34.72,15.576-34.72,34.72c0,19.145,15.575,34.72,34.72,34.72S82.72,67.145,82.72,48
		C82.72,28.856,67.145,13.28,48,13.28z M70.768,69.035H60.232V42.636l-11.413,13.26h-1.604l-11.413-13.26v26.398H25.267V26.743
		h9.173l13.563,15.681l13.593-15.681h9.173V69.035z"/>
	<path d="M1.185,0.852v94.297h94.297V0.852H1.185z M48,89.333C25.208,89.333,6.666,70.792,6.666,48S25.208,6.667,48,6.667
		S89.334,25.208,89.334,48S70.792,89.333,48,89.333z"/>
</g>
</svg>
