<?xml version="1.0" encoding="utf-8"?>
<!-- Generator: Adobe Illustrator 16.0.4, SVG Export Plug-In . SVG Version: 6.00 Build 0)  -->
<!DOCTYPE svg PUBLIC "-//W3C//DTD SVG 1.1//EN" "http://www.w3.org/Graphics/SVG/1.1/DTD/svg11.dtd">
<svg version="1.1" id="Layer_1" xmlns="http://www.w3.org/2000/svg" xmlns:xlink="http://www.w3.org/1999/xlink" x="0px" y="0px"
	 width="50px" height="50px" viewBox="0 0 50 50" enable-background="new 0 0 50 50" xml:space="preserve">
<path d="M25.501,23.052v-3.887l1.913,1.912c0.098,0.098,0.227,0.146,0.354,0.146c0.129,0,0.256-0.05,0.354-0.146
	c0.194-0.195,0.194-0.512,0-0.707l-2.766-2.766c-0.195-0.194-0.512-0.194-0.707,0l-2.766,2.766c-0.195,0.195-0.195,0.512,0,0.707
	c0.195,0.195,0.512,0.195,0.707,0l1.911-1.91v3.885c-2.392,0.254-4.269,2.262-4.27,4.721c0.001,2.627,2.141,4.767,4.769,4.769l0,0
	c2.631-0.002,4.77-2.142,4.77-4.771C29.77,25.312,27.895,23.306,25.501,23.052z M25.001,31.54c-2.078-0.002-3.769-1.691-3.77-3.768
	c0.001-2.08,1.691-3.771,3.769-3.771c2.079,0,3.77,1.691,3.77,3.77C28.771,29.849,27.081,31.538,25.001,31.54z"/>
</svg>
