<?xml version="1.0" encoding="utf-8"?>
<!-- Generator: Adobe Illustrator 16.0.0, SVG Export Plug-In . SVG Version: 6.00 Build 0)  -->
<!DOCTYPE svg PUBLIC "-//W3C//DTD SVG 1.1//EN" "http://www.w3.org/Graphics/SVG/1.1/DTD/svg11.dtd">
<svg version="1.1" id="Layer_2" xmlns="http://www.w3.org/2000/svg" xmlns:xlink="http://www.w3.org/1999/xlink" x="0px" y="0px"
	 width="96px" height="96px" viewBox="0 0 96 96" enable-background="new 0 0 96 96" xml:space="preserve">
<path d="M63.35,11.297L48,59.689L32.651,11.297C14.392,17.573,0.655,34.598,0.655,54.116c0,11.756,4.796,22.597,12.555,30.587
	h22.254l2.333-10.117C11.211,64.169,16.238,31.89,25.876,26.621c1.144,0.344,17.908,57.844,17.908,57.844c0.229,0,0.973,0,1.882,0
	c0.192,0,0.915,0,1.816,0c0.326,0,0.678,0,1.035,0c0.613,0,1.247,0,1.816,0c0.91,0,1.653,0,1.882,0c0,0,16.765-57.5,17.908-57.844
	c9.639,5.269,14.665,37.548-11.921,47.965l2.333,10.117H82.79c7.759-7.99,12.555-18.831,12.555-30.587
	C95.345,34.598,81.608,17.573,63.35,11.297z"/>
</svg>
