<?xml version="1.0" encoding="utf-8"?>
<!-- Generator: Adobe Illustrator 16.0.0, SVG Export Plug-In . SVG Version: 6.00 Build 0)  -->
<!DOCTYPE svg PUBLIC "-//W3C//DTD SVG 1.1//EN" "http://www.w3.org/Graphics/SVG/1.1/DTD/svg11.dtd">
<svg version="1.1" id="Layer_2" xmlns="http://www.w3.org/2000/svg" xmlns:xlink="http://www.w3.org/1999/xlink" x="0px" y="0px"
	 width="96px" height="96px" viewBox="0 0 96 96" enable-background="new 0 0 96 96" xml:space="preserve">
<g>
	<polygon points="72.322,27.326 60.425,47.918 48.527,27.326 36.634,47.91 24.741,27.326 12.838,47.926 24.741,68.527 
		36.634,47.942 48.527,68.527 60.425,47.935 72.322,68.527 84.225,47.926 	"/>
	<path d="M48,8.994C22.026,8.994,0.971,26.457,0.971,48c0,21.542,21.056,39.006,47.029,39.006c25.973,0,47.029-17.464,47.029-39.006
		C95.029,26.457,73.973,8.994,48,8.994z M48,83.566C24.318,83.566,5.12,67.641,5.12,48c0-19.642,19.198-35.566,42.88-35.566
		c23.682,0,42.879,15.924,42.879,35.566C90.879,67.641,71.682,83.566,48,83.566z"/>
</g>
</svg>
