<?xml version="1.0" encoding="utf-8"?>
<!-- Generator: Adobe Illustrator 17.1.0, SVG Export Plug-In . SVG Version: 6.00 Build 0)  -->
<!DOCTYPE svg PUBLIC "-//W3C//DTD SVG 1.1//EN" "http://www.w3.org/Graphics/SVG/1.1/DTD/svg11.dtd">
<svg version="1.1" xmlns="http://www.w3.org/2000/svg" xmlns:xlink="http://www.w3.org/1999/xlink" x="0px" y="0px"
	 viewBox="0 0 64 64" enable-background="new 0 0 64 64" xml:space="preserve">
<g id="Imagenes">
</g>
<g id="Layer_2">
	<path d="M41.104,16.371c0.446,0.628,0.875,1.521,0.938,2.688c0.838,0.267,1.833,0.766,2.873,1.676
		c0.665,0.582,1.026,1.315,1.171,2.098c0.225-0.028,0.454-0.044,0.683-0.044c1.633,0,2.979,0.818,3.692,2.244
		c0.95,1.9,0.346,3.746-0.711,5.211c0.75,0.553,1.455,1.323,1.982,2.377c1.756,3.513,1.328,4.4-1.646,7.374l-0.093,0.093
		c0.982,1.219,2.613,1.293,5.022,1.293c0.477,0,1.683-0.132,2.602-1.35c0.912-1.209,1.694-3.716,0.243-8.794
		C56.11,25.106,49.421,18.63,41.104,16.371z"/>
	<path d="M49.942,33.509c-1.09-2.18-3.114-2.479-3.663-2.52c-0.085-0.006-0.137-0.007-0.143-0.007h0c0,0,0.044-0.03,0.106-0.074
		c0.587-0.416,3.578-2.687,2.431-4.981c-0.427-0.855-1.143-1.138-1.903-1.138c-1.287,0-2.697,0.807-3.07,1.036
		c-0.061,0.037-0.101,0.063-0.101,0.063s0.024-0.049,0.061-0.132c0.236-0.53,1.036-2.555-0.061-3.516
		c-1.45-1.269-2.687-1.473-3.331-1.473c-0.014,0-0.024,0.001-0.037,0.001c-0.278,0.004-0.439,0.044-0.439,0.044
		c0.048-0.144,0.075-0.278,0.109-0.415c0.861-3.478-2.695-4.66-3.915-4.66c-0.511,0-1.227,0.103-1.9,0.226
		c-0.778,0.142-1.497,0.309-1.779,0.377c-0.08,0.019-0.127,0.031-0.127,0.031s0-0.026-0.002-0.067
		c-0.008-0.191-0.059-0.798-0.32-1.557c-0.102-0.297-0.239-0.615-0.418-0.943c-0.664-1.219-1.922-2.538-4.335-3.142
		c-0.564-0.141-1.112-0.204-1.641-0.204c-4.232,0-7.24,4.01-7.24,4.01c-1.464-0.878-2.725-1.216-3.799-1.216
		c-3.58,0-5.082,3.754-5.082,3.754c-0.461-0.115-0.86-0.168-1.203-0.168c-3.431,0-1.334,5.243-1.334,5.243
		c-5.923,2.369-1.892,5.844-1.332,6.294c2.907-5.509,8.193-10.357,17.797-10.624c0.111-0.003,0.299-0.021,0.495-0.04
		c0.304-0.028,0.623-0.056,0.802-0.056c11.223,0,18.493,11.587,21.994,19c0.112,0.238,0.221,0.472,0.326,0.701
		c0.141,0.308,0.353,0.626,0.592,0.943l0.734,0.173l0.459,0.108c0.169-0.169,0.326-0.326,0.473-0.474
		C51.203,36.033,51.126,35.877,49.942,33.509z"/>
	<path d="M45.43,38.843c-0.134-0.217-0.26-0.436-0.361-0.657c-0.076-0.167-0.157-0.339-0.238-0.512
		c-3.263-6.965-10.051-18.02-20.263-18.02c-0.137,0-0.383,0.025-0.616,0.047c-0.247,0.023-0.484,0.045-0.625,0.049
		c-8.346,0.232-13.106,4.334-15.816,9.138c-0.17,0.302-0.331,0.607-0.486,0.913c-0.155,0.307-0.301,0.616-0.44,0.926
		c-1.665,3.7-2.287,7.57-2.508,10.272h43.14c-0.288-0.281-0.573-0.589-0.85-0.908C46.019,39.693,45.697,39.276,45.43,38.843z
		 M24.568,27.79c0-1.051,0.852-1.903,1.903-1.903s1.903,0.852,1.903,1.903s-0.852,1.903-1.903,1.903S24.568,28.841,24.568,27.79z
		 M30.909,35.425c-0.004,0.353-0.108,0.681-0.28,0.963c-0.334,0.548-0.932,0.918-1.621,0.918c-0.996,0-1.805-0.768-1.887-1.743
		c-0.005-0.054-0.016-0.105-0.016-0.16c0-0.298,0.074-0.576,0.196-0.827c0.174-0.358,0.455-0.649,0.803-0.839
		c0.27-0.147,0.575-0.238,0.903-0.238c0.647,0,1.217,0.324,1.561,0.818c0.215,0.308,0.342,0.681,0.342,1.085
		C30.911,35.41,30.909,35.417,30.909,35.425z M32.814,32.231c-1.051,0-1.903-0.852-1.903-1.903s0.852-1.903,1.903-1.903
		s1.903,0.852,1.903,1.903S33.865,32.231,32.814,32.231z"/>
</g>
</svg>
