<?xml version="1.0" encoding="utf-8"?>
<!-- Generator: Adobe Illustrator 16.0.0, SVG Export Plug-In . SVG Version: 6.00 Build 0)  -->
<!DOCTYPE svg PUBLIC "-//W3C//DTD SVG 1.1//EN" "http://www.w3.org/Graphics/SVG/1.1/DTD/svg11.dtd">
<svg version="1.1" id="Layer_2" xmlns="http://www.w3.org/2000/svg" xmlns:xlink="http://www.w3.org/1999/xlink" x="0px" y="0px"
	 width="96px" height="96px" viewBox="0 0 96 96" enable-background="new 0 0 96 96" xml:space="preserve">
<g>
	<path fill-rule="evenodd" clip-rule="evenodd" d="M20.152,64.549c-6.189-0.816-12.377-1.632-18.604-2.453
		c0.475-1.148,0.918-2.243,1.379-3.329c1.008-2.374,2.012-4.748,3.039-7.111c1.02-2.341,2.047-4.679,3.115-6.997
		c0.838-1.815,1.699-3.621,2.637-5.385c0.807-1.518,1.697-2.995,2.623-4.445c0.48-0.753,1.123-1.395,1.879-1.91
		c0.895-0.609,1.914-0.826,2.949-0.987c2.186-0.34,4.387-0.457,6.596-0.45c0.957,0.002,1.916-0.047,2.873-0.026
		c1.088,0.024,2.174,0.101,3.35,0.158c-1.734,0.632-2.787,1.881-3.641,3.352c-1.242,2.144-1.91,4.505-2.527,6.87
		c-0.969,3.697-1.834,7.42-2.752,11.13c-0.934,3.773-1.883,7.543-2.824,11.314C20.225,64.356,20.193,64.429,20.152,64.549z"/>
	<path fill-rule="evenodd" clip-rule="evenodd" d="M58.996,49.104c-0.199-0.001-0.342-0.002-0.486-0.003
		c-4.559-0.038-9.117-0.088-13.676-0.099c-0.57-0.001-0.943-0.25-1.336-0.572c-1.68-1.375-3.338-2.774-5.051-4.106
		c-2.262-1.759-4.557-3.476-6.859-5.182c-1.145-0.849-2.338-1.633-3.52-2.454c0.723-1.513,1.539-2.992,2.988-3.999
		c0.791-0.548,1.725-0.711,2.668-0.704c0.68,0.006,1.252,0.14,1.916,0.269c1.166,0.226,2.256,0.779,3.283,1.366
		c1.924,1.097,3.652,2.466,5.348,3.876c2.143,1.783,4.258,3.602,6.414,5.37c1.988,1.633,4,3.24,6.033,4.816
		C57.406,48.213,58.195,48.611,58.996,49.104z"/>
	<path fill-rule="evenodd" clip-rule="evenodd" d="M50.652,42.354c0.836-1.042,1.59-2.071,2.439-3.012
		c0.629-0.697,1.553-0.856,2.443-0.854c2.105,0.003,4.209,0.077,6.314,0.116c0.836,0.016,1.672,0.016,2.609,0.023
		c-0.313,0.476-0.551,0.837-0.789,1.2c-0.906,1.385-1.367,2.931-1.646,4.543c-0.162,0.933-0.295,1.873-0.516,2.792
		c-0.156,0.654-0.432,1.293-1.082,1.624c-0.186,0.096-0.461,0.085-0.678,0.04c-0.9-0.184-1.672-0.668-2.389-1.201
		c-1.65-1.229-3.26-2.513-4.881-3.782C51.898,43.388,51.336,42.912,50.652,42.354z"/>
	<path fill-rule="evenodd" clip-rule="evenodd" d="M63.549,40.626c0.389-0.591,0.758-1.166,1.145-1.728
		c0.037-0.056,0.184-0.069,0.271-0.055c1.715,0.278,3.426,0.569,5.139,0.844c1.859,0.298,3.723,0.569,5.58,0.877
		c1.779,0.296,3.553,0.628,5.33,0.939c1.58,0.277,3.164,0.537,4.742,0.824c1.303,0.237,2.6,0.511,3.9,0.757
		c1.508,0.287,3.02,0.561,4.527,0.843c0.064,0.011,0.121,0.047,0.268,0.107c-1.689-0.014-3.301,0.084-4.891-0.066
		c-2.535-0.241-5.053-0.656-7.58-0.983c-2.541-0.328-5.086-0.637-7.629-0.958c-2.029-0.255-4.059-0.511-6.088-0.773
		C66.715,41.056,65.166,40.843,63.549,40.626z"/>
</g>
</svg>
