<?xml version="1.0" encoding="utf-8"?>
<!-- Generator: Adobe Illustrator 16.0.4, SVG Export Plug-In . SVG Version: 6.00 Build 0)  -->
<!DOCTYPE svg PUBLIC "-//W3C//DTD SVG 1.1//EN" "http://www.w3.org/Graphics/SVG/1.1/DTD/svg11.dtd">
<svg version="1.1" id="Layer_1" xmlns="http://www.w3.org/2000/svg" xmlns:xlink="http://www.w3.org/1999/xlink" x="0px" y="0px"
	 width="50px" height="50px" viewBox="0 0 50 50" enable-background="new 0 0 50 50" xml:space="preserve">
<path d="M25,15.666c-5.146,0-9.333,4.188-9.333,9.334s4.187,9.334,9.333,9.334c5.147,0,9.334-4.188,9.334-9.334
	S30.146,15.666,25,15.666z M25.5,33.309v-1.518c0-0.275-0.224-0.5-0.5-0.5s-0.5,0.225-0.5,0.5v1.518
	c-4.209-0.252-7.579-3.635-7.81-7.852h1.477c0.276,0,0.5-0.223,0.5-0.5c0-0.275-0.224-0.5-0.5-0.5h-1.473
	c0.271-4.176,3.625-7.516,7.806-7.766v1.434c0,0.277,0.224,0.5,0.5,0.5s0.5-0.223,0.5-0.5v-1.434c4.182,0.25,7.536,3.59,7.807,7.766
	h-1.475c-0.275,0-0.5,0.225-0.5,0.5c0,0.277,0.225,0.5,0.5,0.5h1.479C33.08,29.674,29.709,33.057,25.5,33.309z M25.5,20.5v4.625
	c0,0.121-0.043,0.236-0.122,0.328l-2.375,2.75c-0.099,0.113-0.238,0.172-0.378,0.172c-0.116,0-0.232-0.039-0.327-0.121
	c-0.209-0.18-0.232-0.496-0.052-0.705l2.253-2.609V20.5c0-0.275,0.224-0.5,0.5-0.5S25.5,20.225,25.5,20.5z"/>
</svg>
