<?xml version="1.0" encoding="utf-8"?>
<!-- Generator: Adobe Illustrator 16.0.4, SVG Export Plug-In . SVG Version: 6.00 Build 0)  -->
<!DOCTYPE svg PUBLIC "-//W3C//DTD SVG 1.1//EN" "http://www.w3.org/Graphics/SVG/1.1/DTD/svg11.dtd">
<svg version="1.1" id="Layer_1" xmlns="http://www.w3.org/2000/svg" xmlns:xlink="http://www.w3.org/1999/xlink" x="0px" y="0px"
	 width="50px" height="50px" viewBox="0 0 50 50" enable-background="new 0 0 50 50" xml:space="preserve">
<path d="M25.5,21.564v-0.523h0.904c0.275,0,0.5-0.224,0.5-0.5s-0.225-0.5-0.5-0.5H25.5v-0.269c0.721-0.217,1.25-0.878,1.25-1.668
	c0-0.965-0.785-1.75-1.75-1.75c-0.965,0-1.75,0.785-1.75,1.75c0,0.79,0.529,1.452,1.25,1.668v0.269h-0.904
	c-0.275,0-0.5,0.224-0.5,0.5s0.225,0.5,0.5,0.5H24.5v0.52c-1.932,0.198-3.291,1.511-3.291,3.287v0.218
	c0,1.156,0.534,2.57,3.051,2.739l0.235,0.024c0.002,0,0.003,0,0.005,0v3.394c-0.447-0.063-0.988-0.289-1.688-1.499
	c-0.138-0.239-0.443-0.321-0.684-0.184c-0.238,0.139-0.32,0.444-0.184,0.684c0.938,1.625,1.802,1.922,2.554,2.004v0.917
	c0,0.276,0.224,0.5,0.5,0.5s0.5-0.224,0.5-0.5v-0.935c0.581-0.092,1.098-0.328,1.497-0.701c0.51-0.475,0.791-1.129,0.791-1.827
	c0-0.009,0.002-0.114,0.002-0.123c-0.035-1.412-0.891-2.343-2.29-2.627v-4.371c1.301,0.198,2.292,1.145,2.292,2.286
	c0,0.276,0.223,0.5,0.5,0.5c0.275,0,0.5-0.224,0.5-0.5C28.791,23.164,27.354,21.782,25.5,21.564z M24.25,18.104
	c0-0.414,0.337-0.75,0.75-0.75s0.75,0.336,0.75,0.75s-0.336,0.75-0.75,0.75S24.25,18.518,24.25,18.104z M24.354,26.81
	c-1.899-0.128-2.145-0.999-2.145-1.744v-0.218c0-1.226,0.921-2.115,2.291-2.291v4.27L24.354,26.81z M26.791,29.558
	c0,0.005-0.004,0.106-0.004,0.11c0,0.434-0.168,0.828-0.473,1.111c-0.215,0.2-0.498,0.332-0.814,0.406v-3.229
	C26.188,28.147,26.768,28.592,26.791,29.558z"/>
</svg>
