<?xml version="1.0" encoding="utf-8"?>
<!-- Generator: Adobe Illustrator 16.0.0, SVG Export Plug-In . SVG Version: 6.00 Build 0)  -->
<!DOCTYPE svg PUBLIC "-//W3C//DTD SVG 1.1//EN" "http://www.w3.org/Graphics/SVG/1.1/DTD/svg11.dtd">
<svg version="1.1" id="Layer_1" xmlns="http://www.w3.org/2000/svg" xmlns:xlink="http://www.w3.org/1999/xlink" x="0px" y="0px"
	 width="96px" height="96px" viewBox="0 0 96 96" enable-background="new 0 0 96 96" xml:space="preserve">
<g>
	<path fill-rule="evenodd" clip-rule="evenodd" d="M94.404,94.495c-0.021-9.928-0.014-20.788-0.014-30.715
		c0-9.54,0.012-19.082-0.006-28.621c-0.007-3.759-0.56-7.448-1.791-11.001c-0.986-2.847-2.327-5.523-4.028-8.037
		c-2.259-3.335-5.01-6.182-8.271-8.506c-3.456-2.463-7.25-4.218-11.4-5.255c-2.68-0.671-5.377-0.985-8.108-0.989L1.596,1.354v15.391
		l58.771-0.002c1.184,0,2.387,0.033,3.545,0.245c2.432,0.442,4.723,1.313,6.796,2.689c2.311,1.534,4.217,3.479,5.655,5.842
		c1.902,3.123,2.665,6.563,2.662,10.21c-0.013,19.287-0.002,39.454-0.024,58.741L94.404,94.495z"/>
	<path fill-rule="evenodd" clip-rule="evenodd" d="M67.604,31.956c-1.21-2.593-3.335-4.071-6.021-4.306
		c-3.23-0.283-6.504-0.067-9.872-0.067c0.184,0.403,0.34,0.694,0.454,1.002c0.85,2.304,1.019,4.691,1.016,7.13
		c-0.025,19.282-0.011,39.443-0.028,58.726l15.016,0.017c-0.016-19.67-0.011-40.063-0.022-59.732
		C68.146,33.779,68.027,32.861,67.604,31.956z"/>
	<path fill-rule="evenodd" clip-rule="evenodd" d="M41.691,31.956c-1.209-2.593-3.335-4.071-6.02-4.306
		c-3.23-0.283-6.504-0.067-9.873-0.067c0.184,0.403,0.341,0.694,0.454,1.002c0.85,2.304,1.019,4.691,1.016,7.13
		c-0.025,19.282-0.011,39.65-0.028,58.931l15.016-0.033c-0.016-19.671-0.01-40.219-0.022-59.888
		C42.233,33.779,42.114,32.861,41.691,31.956z"/>
	<path fill-rule="evenodd" clip-rule="evenodd" d="M8.98,27.586l-7.384-0.003v66.801l14.722,0.065l-0.021-59.588
		C16.28,30.662,12.797,27.698,8.98,27.586z"/>
</g>
</svg>
