<?xml version="1.0" encoding="utf-8"?>
<!-- Generator: Adobe Illustrator 17.1.0, SVG Export Plug-In . SVG Version: 6.00 Build 0)  -->
<!DOCTYPE svg PUBLIC "-//W3C//DTD SVG 1.1//EN" "http://www.w3.org/Graphics/SVG/1.1/DTD/svg11.dtd">
<svg version="1.1" xmlns="http://www.w3.org/2000/svg" xmlns:xlink="http://www.w3.org/1999/xlink" x="0px" y="0px"
	 viewBox="0 0 64 64" enable-background="new 0 0 64 64" xml:space="preserve">
<g id="Imagenes">
</g>
<g id="Layer_2">
	<path d="M30,63c8,0,12-5,12-11s-4-7-4-10s1-3,1-5c0-3.68-3.382-5.098-6-5.649v6.671c1.208,0.913,2,2.347,2,3.977
		c0,2.761-2.239,5-5,5s-5-2.239-5-5c0-1.63,0.792-3.065,2-3.977v-6.671c-2.618,0.55-6,1.969-6,5.649c0,2,1,2,1,5s-4,4-4,10
		S22,63,30,63z M26,57h8v2h-8V57z"/>
	<rect x="27" y="3" width="6" height="9"/>
	<rect x="24" y="2" width="2" height="3"/>
	<rect x="24" y="6" width="2" height="3"/>
	<rect x="24" y="10" width="2" height="3"/>
	<rect x="34" y="2" width="2" height="3"/>
	<rect x="34" y="6" width="2" height="3"/>
	<rect x="34" y="10" width="2" height="3"/>
	<polygon points="28,37.422 28,39 32,39 32,37.422 32,31.172 32,13 28,13 28,31.172 	"/>
</g>
</svg>
