<?xml version="1.0" encoding="utf-8"?>
<!-- Generator: Adobe Illustrator 16.0.0, SVG Export Plug-In . SVG Version: 6.00 Build 0)  -->
<!DOCTYPE svg PUBLIC "-//W3C//DTD SVG 1.1//EN" "http://www.w3.org/Graphics/SVG/1.1/DTD/svg11.dtd">
<svg version="1.1" id="Layer_1" xmlns="http://www.w3.org/2000/svg" xmlns:xlink="http://www.w3.org/1999/xlink" x="0px" y="0px"
	 width="96px" height="96px" viewBox="0 0 96 96" enable-background="new 0 0 96 96" xml:space="preserve">
<g>
	<path fill-rule="evenodd" clip-rule="evenodd" d="M41.813,44.787c-2.67-5.509-5.893-11.272-9.227-18.153
		c6.102,0,9.126,0.025,13.678-0.006c12.123-0.083,20.357,3.042,25.543,15.494c0.499,1.202,1.022,2.649,1.022,2.649l22.013-0.018
		C90.775,25.496,75.346,9.447,58.482,9.301L1.158,9.23l12.286,23.8C21.451,46.549,24.29,44.877,41.813,44.787z"/>
	<path fill-rule="evenodd" clip-rule="evenodd" d="M71.807,53.949c-5.186,12.451-13.42,15.578-25.543,15.494
		c-4.552-0.031-7.576-0.005-13.678-0.005c3.334-6.882,6.557-12.645,9.227-18.154c-17.522-0.09-20.361-1.763-28.368,11.757
		L1.158,86.764l57.324,0.006c16.863-0.146,32.293-16.271,36.359-35.528L72.829,51.3C72.829,51.3,72.306,52.747,71.807,53.949z"/>
</g>
</svg>
