<?xml version="1.0" encoding="utf-8"?>
<!-- Generator: Adobe Illustrator 17.1.0, SVG Export Plug-In . SVG Version: 6.00 Build 0)  -->
<!DOCTYPE svg PUBLIC "-//W3C//DTD SVG 1.1//EN" "http://www.w3.org/Graphics/SVG/1.1/DTD/svg11.dtd">
<svg version="1.1" xmlns="http://www.w3.org/2000/svg" xmlns:xlink="http://www.w3.org/1999/xlink" x="0px" y="0px"
	 viewBox="0 0 64 64" enable-background="new 0 0 64 64" xml:space="preserve">
<g id="Imagenes">
</g>
<g id="Layer_2">
	<path d="M35.924,51.608l-0.885,3.184c4.07-0.54,7.807-2.146,10.92-4.531l-2.878-1.626C40.948,50.062,38.527,51.088,35.924,51.608z"
		/>
	<path d="M48.636,43.082l1.626,2.877c2.385-3.113,3.991-6.849,4.531-10.92l-3.184,0.885C51.088,38.527,50.062,40.948,48.636,43.082z
		"/>
	<path d="M20.918,48.636l-2.878,1.626c3.113,2.385,6.85,3.991,10.92,4.531l-0.885-3.184C25.473,51.088,23.052,50.062,20.918,48.636z
		"/>
	<path d="M12.392,28.076c0.52-2.603,1.546-5.024,2.973-7.158l-1.626-2.877c-2.385,3.113-3.991,6.849-4.531,10.92L12.392,28.076z"/>
	<path d="M15.364,43.082c-1.426-2.134-2.452-4.555-2.973-7.158L9.207,35.04c0.54,4.07,2.146,7.807,4.531,10.92L15.364,43.082z"/>
	<path d="M20.918,15.364c2.134-1.426,4.555-2.453,7.158-2.973l0.885-3.184c-4.07,0.54-7.807,2.146-10.92,4.531L20.918,15.364z"/>
	<path d="M35.924,12.392c2.603,0.52,5.024,1.547,7.158,2.973l2.878-1.626c-3.113-2.385-6.85-3.991-10.92-4.531L35.924,12.392z"/>
	<path d="M54.793,28.96c-0.54-4.07-2.146-7.807-4.531-10.92l-1.626,2.877c1.426,2.134,2.452,4.555,2.973,7.158L54.793,28.96z"/>
	<path d="M48.512,14.593l-0.919,0.52l-2.766,1.563c0.904,0.758,1.739,1.593,2.497,2.497l1.563-2.766l0.52-0.919l0.508-0.899
		l0.656-1.16l-1.16,0.656L48.512,14.593z"/>
	<path d="M49.407,48.512l-0.52-0.919l-1.563-2.766c-0.758,0.904-1.593,1.739-2.497,2.497l2.766,1.563l0.919,0.52l0.899,0.508
		l1.16,0.656l-0.656-1.16L49.407,48.512z"/>
	<path d="M16.675,44.827l-1.563,2.766l-0.52,0.919l-0.508,0.899l-0.656,1.16l1.16-0.656l0.899-0.508l0.919-0.52l2.766-1.563
		C18.269,46.567,17.433,45.731,16.675,44.827z"/>
	<path d="M15.488,14.593l-0.899-0.508l-1.16-0.656l0.656,1.16l0.508,0.899l0.52,0.919l1.563,2.766
		c0.758-0.904,1.593-1.739,2.497-2.497l-2.766-1.563L15.488,14.593z"/>
	<path d="M16.49,41.09c0.194,0.329,0.382,0.662,0.596,0.978c0.205,0.302,0.432,0.586,0.654,0.875
		c0.958,1.245,2.071,2.359,3.316,3.317c0.289,0.222,0.573,0.45,0.875,0.655c0.316,0.214,0.648,0.402,0.978,0.596
		c1.407,0.828,2.935,1.466,4.552,1.888l-0.96-3.456c-0.16-0.063-0.321-0.123-0.479-0.192c-0.373-0.163-0.74-0.337-1.097-0.529
		c-0.339-0.182-0.664-0.385-0.987-0.591c-1.835-1.175-3.394-2.735-4.569-4.57c-0.207-0.323-0.409-0.648-0.591-0.987
		c-0.192-0.357-0.366-0.723-0.529-1.097c-0.069-0.157-0.129-0.318-0.192-0.479l-3.456-0.96C15.025,38.156,15.662,39.682,16.49,41.09
		z"/>
	<path d="M47.51,22.91c-0.194-0.329-0.382-0.662-0.596-0.978c-0.205-0.302-0.432-0.586-0.654-0.875
		c-0.958-1.245-2.071-2.359-3.316-3.317c-0.289-0.222-0.573-0.45-0.875-0.655c-0.316-0.214-0.648-0.402-0.978-0.596
		c-1.407-0.828-2.935-1.466-4.552-1.888l0.96,3.455c0.16,0.063,0.321,0.123,0.479,0.192c0.373,0.163,0.74,0.337,1.097,0.529
		c0.339,0.182,0.664,0.385,0.987,0.591c1.835,1.175,3.394,2.735,4.569,4.57c0.207,0.323,0.409,0.648,0.591,0.987
		c0.192,0.357,0.366,0.723,0.529,1.097c0.069,0.157,0.129,0.319,0.192,0.479l3.455,0.96C48.975,25.844,48.338,24.318,47.51,22.91z"
		/>
	<path d="M42.068,46.914c0.302-0.205,0.586-0.433,0.875-0.655c1.245-0.958,2.359-2.071,3.316-3.317
		c0.222-0.289,0.45-0.573,0.654-0.875c0.214-0.316,0.402-0.648,0.596-0.978c0.828-1.407,1.466-2.934,1.888-4.552l-3.456,0.96
		c-0.063,0.16-0.123,0.321-0.192,0.479c-0.163,0.373-0.337,0.74-0.529,1.097c-0.182,0.339-0.385,0.664-0.591,0.987
		c-1.175,1.835-2.735,3.394-4.569,4.57c-0.323,0.207-0.648,0.409-0.987,0.591c-0.357,0.192-0.724,0.366-1.097,0.529
		c-0.157,0.069-0.318,0.129-0.479,0.192l-0.96,3.456c1.617-0.422,3.144-1.06,4.552-1.888C41.419,47.316,41.752,47.127,42.068,46.914
		z"/>
	<path d="M18.779,24.927c0.182-0.339,0.385-0.664,0.591-0.987c1.175-1.835,2.735-3.394,4.569-4.57
		c0.323-0.207,0.648-0.409,0.987-0.591c0.357-0.192,0.724-0.366,1.097-0.529c0.157-0.069,0.319-0.129,0.479-0.192l0.96-3.455
		c-1.617,0.422-3.144,1.06-4.552,1.888c-0.329,0.194-0.662,0.382-0.978,0.596c-0.302,0.205-0.586,0.433-0.875,0.655
		c-1.245,0.958-2.359,2.071-3.316,3.317c-0.222,0.289-0.45,0.573-0.654,0.875c-0.214,0.316-0.402,0.648-0.596,0.978
		c-0.828,1.407-1.466,2.934-1.888,4.552l3.455-0.96c0.063-0.16,0.123-0.321,0.192-0.479C18.413,25.65,18.587,25.283,18.779,24.927z"
		/>
	<path d="M34.05,13.114l-0.285-1.025l-0.852-3.066l-0.28-1.007l-0.28-1.007L32,5.736l-0.354,1.273l-0.28,1.007l-0.28,1.007
		l-0.852,3.066l-0.285,1.025l-0.293,1.056l-0.886,3.189C29.812,17.13,30.891,17,32,17s2.188,0.13,3.229,0.359l-0.886-3.189
		L34.05,13.114z"/>
	<path d="M55.984,31.367l-1.007-0.28l-3.066-0.852l-1.025-0.285l-1.056-0.293l-3.189-0.886C46.87,29.813,47,30.891,47,32
		s-0.13,2.187-0.359,3.229l3.189-0.886l1.056-0.293l1.025-0.285l3.066-0.852l1.007-0.28l1.007-0.28L58.264,32l-1.273-0.354
		L55.984,31.367z"/>
	<path d="M32,47c-1.109,0-2.188-0.13-3.229-0.359l0.886,3.189l0.293,1.056l0.285,1.025l0.852,3.066l0.28,1.007l0.28,1.007L32,58.264
		l0.354-1.273l0.28-1.007l0.28-1.007l0.852-3.066l0.285-1.025l0.293-1.056l0.886-3.189C34.188,46.87,33.109,47,32,47z"/>
	<path d="M13.114,34.05l1.056,0.293l3.189,0.886C17.13,34.187,17,33.109,17,32s0.13-2.187,0.359-3.229l-3.189,0.886l-1.056,0.293
		l-1.025,0.285l-3.066,0.852l-1.007,0.28l-1.007,0.28L5.736,32l1.273,0.354l1.007,0.28l1.007,0.28l3.066,0.852L13.114,34.05z"/>
	<path d="M32,45c1.283,0,2.52-0.194,3.691-0.542c0.432-0.128,0.855-0.276,1.267-0.446c0.011-0.005,0.023-0.008,0.034-0.012
		c0.413-0.172,0.816-0.363,1.205-0.575c2.206-1.201,4.027-3.022,5.228-5.228c0.212-0.39,0.403-0.793,0.575-1.205
		c0.005-0.011,0.008-0.023,0.012-0.034c0.171-0.412,0.318-0.835,0.446-1.267C44.806,34.52,45,33.283,45,32s-0.194-2.52-0.542-3.692
		c-0.128-0.432-0.275-0.855-0.446-1.267c-0.005-0.011-0.008-0.023-0.012-0.034c-0.172-0.413-0.363-0.816-0.575-1.205
		c-1.201-2.205-3.022-4.027-5.228-5.228c-0.39-0.212-0.793-0.403-1.205-0.575c-0.011-0.005-0.023-0.008-0.034-0.012
		c-0.412-0.171-0.835-0.318-1.267-0.446C34.52,19.194,33.283,19,32,19s-2.52,0.194-3.691,0.542
		c-0.432,0.128-0.855,0.276-1.267,0.446c-0.011,0.005-0.023,0.008-0.034,0.012c-0.413,0.172-0.816,0.363-1.205,0.575
		c-2.206,1.201-4.027,3.022-5.228,5.228c-0.212,0.39-0.403,0.793-0.575,1.205c-0.005,0.011-0.008,0.023-0.012,0.034
		c-0.171,0.412-0.318,0.835-0.446,1.267C19.194,29.48,19,30.717,19,32s0.194,2.52,0.542,3.692c0.128,0.432,0.275,0.855,0.446,1.267
		c0.005,0.011,0.008,0.023,0.012,0.034c0.172,0.413,0.363,0.816,0.575,1.205c1.201,2.205,3.022,4.027,5.228,5.228
		c0.39,0.212,0.793,0.403,1.205,0.575c0.011,0.005,0.023,0.008,0.034,0.012c0.412,0.171,0.835,0.318,1.267,0.446
		C29.48,44.806,30.717,45,32,45z M22,32c0-5.514,4.486-10,10-10s10,4.486,10,10s-4.486,10-10,10S22,37.514,22,32z"/>
	<path d="M40,32c0-4.411-3.589-8-8-8s-8,3.589-8,8s3.589,8,8,8S40,36.411,40,32z M27,32c0-2.757,2.243-5,5-5s5,2.243,5,5
		s-2.243,5-5,5S27,34.757,27,32z"/>
	<circle cx="32" cy="32" r="3"/>
</g>
</svg>
