<?xml version="1.0" encoding="utf-8"?>
<!-- Generator: Adobe Illustrator 16.0.0, SVG Export Plug-In . SVG Version: 6.00 Build 0)  -->
<!DOCTYPE svg PUBLIC "-//W3C//DTD SVG 1.1//EN" "http://www.w3.org/Graphics/SVG/1.1/DTD/svg11.dtd">
<svg version="1.1" id="Layer_1" xmlns="http://www.w3.org/2000/svg" xmlns:xlink="http://www.w3.org/1999/xlink" x="0px" y="0px"
	 width="96px" height="96px" viewBox="0 0 96 96" enable-background="new 0 0 96 96" xml:space="preserve">
<g>
	<path d="M48.075,0.87c-13.804,0-25.137,4.312-32.768,12.469C7.511,21.672,4.057,33.429,5.047,48.281
		c2.579,38.722,24.822,46.85,43.028,46.85c12.023,0,22.857-4.255,30.501-11.98c8.355-8.444,12.691-20.614,12.539-35.195
		C90.815,19.353,73.922,0.87,48.075,0.87z M72.565,77.2c-6.133,6.196-14.601,9.471-24.49,9.471
		c-21.529,0-32.843-12.741-34.589-38.952c-0.828-12.423,1.865-22.046,7.997-28.602c7.571-8.09,18.64-9.789,26.592-9.789
		c21.081,0,34.331,14.835,34.581,38.716C82.785,60.316,79.295,70.398,72.565,77.2z"/>
	<path d="M60.488,22.042c-1.046-1.296-2.277-2.555-3.702-3.685c-1.424-1.139-3.08-2.102-4.883-2.848
		c-1.816-0.706-3.806-1.178-5.815-1.203c-2.004-0.05-3.992,0.367-5.723,1.057c-1.743,0.684-3.24,1.655-4.434,2.725
		c-1.228,1.048-2.141,2.208-2.91,3.287c-0.362,0.559-0.682,1.1-0.976,1.615c-0.282,0.524-0.515,1.033-0.729,1.51
		c-0.434,0.947-0.681,1.826-0.909,2.523c-0.193,0.718-0.287,1.302-0.374,1.685c-0.076,0.388-0.102,0.599-0.102,0.599
		s0.694-0.528,1.772-1.45c17.578-13.154,6.425,9.606,13.756,15.117c-1.037,0.276-2.069,0.626-3.078,1.094
		c-9.337,4.32-13.397,15.392-9.076,24.725c4.319,9.334,15.392,13.398,24.725,9.077c4.298-1.99,7.459-5.417,9.22-9.441
		c5.938-16.491-2.059-37.436-2.479-38.644C63.927,27.382,62.573,24.648,60.488,22.042z"/>
</g>
</svg>
