<?xml version="1.0" encoding="utf-8"?>
<!-- Generator: Adobe Illustrator 16.0.0, SVG Export Plug-In . SVG Version: 6.00 Build 0)  -->
<!DOCTYPE svg PUBLIC "-//W3C//DTD SVG 1.1//EN" "http://www.w3.org/Graphics/SVG/1.1/DTD/svg11.dtd">
<svg version="1.1" id="Layer_2" xmlns="http://www.w3.org/2000/svg" xmlns:xlink="http://www.w3.org/1999/xlink" x="0px" y="0px"
	 width="96px" height="96px" viewBox="0 0 96 96" enable-background="new 0 0 96 96" xml:space="preserve">
<g>
	<path d="M48.001,1.812c-25.509,0-46.19,20.68-46.19,46.189s20.681,46.188,46.19,46.188S94.189,73.51,94.189,48
		S73.51,1.812,48.001,1.812z M48.001,86.636C26.664,86.636,9.364,69.338,9.364,48c0-21.339,17.3-38.637,38.637-38.637
		S86.637,26.662,86.637,48C86.637,69.338,69.338,86.636,48.001,86.636z"/>
	<polygon points="27.237,33.12 43.311,33.12 43.311,78.38 52.691,78.38 52.691,33.12 68.765,33.12 68.765,25.926 27.237,25.926 	"/>
</g>
</svg>
