<?xml version="1.0" encoding="utf-8"?>
<!-- Generator: Adobe Illustrator 16.0.0, SVG Export Plug-In . SVG Version: 6.00 Build 0)  -->
<!DOCTYPE svg PUBLIC "-//W3C//DTD SVG 1.1//EN" "http://www.w3.org/Graphics/SVG/1.1/DTD/svg11.dtd">
<svg version="1.1" id="Layer_1" xmlns="http://www.w3.org/2000/svg" xmlns:xlink="http://www.w3.org/1999/xlink" x="0px" y="0px"
	 width="96px" height="96px" viewBox="0 0 96 96" enable-background="new 0 0 96 96" xml:space="preserve">
<g>
	<path d="M38.587,47.771c2.739,2.046,5.951,3.046,9.538,3.123c0.003,0,0.007,0,0.01,0c0.005,0.001,0.01,0.001,0.015,0.001
		c0.004,0,0.009,0,0.013,0s0.009,0,0.013,0c0.005,0,0.01,0,0.015-0.001c0.003,0,0.007,0,0.01,0c3.587-0.077,6.799-1.077,9.538-3.123
		c6.315,5.832,24.607,9.71,17.371,4.572c-8.598-6.107-7.55-26.234-7.55-26.234c0.11-1.273,0.164-2.595,0.184-3.943H53.963
		c-1.16,2.099-3.395,3.521-5.963,3.521s-4.803-1.422-5.963-3.521H28.582c0.02,1.348,0.073,2.669,0.184,3.943
		c0,0,1.048,20.127-7.55,26.234C13.979,57.481,32.271,53.604,38.587,47.771z"/>
	<path d="M48,12.063c2.863,0,5.31,1.769,6.317,4.271h13c-0.253-1.338-0.532-2.175-0.532-2.175C64.43,6.154,57.854,1.552,48.199,1.48
		V1.479c-0.013,0-0.024,0.001-0.037,0.001s-0.024-0.001-0.037-0.001V1.48c-9.655,0.071-16.23,4.674-18.586,12.678
		c0,0-0.279,0.836-0.532,2.175h12.676C42.69,13.831,45.137,12.063,48,12.063z"/>
	<path d="M93.731,90.223L77.588,63.235c-0.975-1.633-2.427-2.794-4.063-3.467l-11.063-5.094l-5.315-4.481l-9.135,9.084l-9.156-9.084
		l-5.315,4.481l-11.063,5.094c-1.637,0.673-3.089,1.834-4.063,3.467L2.269,90.223c-0.79,1.325-1.186,2.81-1.195,4.299l42.114-0.029
		L48,64.439l4.813,30.053l42.114,0.029C94.917,93.032,94.521,91.548,93.731,90.223z M75.917,83.207h-4.362v4.361h-5.11v-4.361
		h-4.361v-5.109h4.361v-4.361h5.11v4.361h4.362V83.207z"/>
</g>
</svg>
