<?xml version="1.0" encoding="utf-8"?>
<!-- Generator: Adobe Illustrator 16.0.0, SVG Export Plug-In . SVG Version: 6.00 Build 0)  -->
<!DOCTYPE svg PUBLIC "-//W3C//DTD SVG 1.1//EN" "http://www.w3.org/Graphics/SVG/1.1/DTD/svg11.dtd">
<svg version="1.1" id="Layer_1" xmlns="http://www.w3.org/2000/svg" xmlns:xlink="http://www.w3.org/1999/xlink" x="0px" y="0px"
	 width="96px" height="96px" viewBox="0 0 96 96" enable-background="new 0 0 96 96" xml:space="preserve">
<g>
	<path d="M93.731,88.368L77.588,61.382c-0.975-1.633-2.427-2.795-4.063-3.467l-11.063-5.094l-5.315-4.482l-9.135,9.084l-9.156-9.084
		l-5.315,4.482l-11.063,5.094c-1.637,0.672-3.089,1.834-4.063,3.467L2.269,88.368c-0.79,1.326-1.186,2.811-1.195,4.299h93.854
		C94.917,91.179,94.521,89.694,93.731,88.368z"/>
	<path d="M48.311,48.979l-0.012-0.01c0.147,0.003,0.292,0.011,0.44,0.011c13.917,0,22.823-10.218,22.823-22.823
		c0-12.604-10.218-22.823-22.823-22.823S25.916,13.552,25.916,26.156c0,3.237,0.678,6.314,1.893,9.104
		c-2.479-0.418-5.116-1.214-6.246-2.08C24.646,44.851,41.302,48.979,48.311,48.979z"/>
</g>
</svg>
