<?xml version="1.0" encoding="utf-8"?>
<!-- Generator: Adobe Illustrator 16.0.0, SVG Export Plug-In . SVG Version: 6.00 Build 0)  -->
<!DOCTYPE svg PUBLIC "-//W3C//DTD SVG 1.1//EN" "http://www.w3.org/Graphics/SVG/1.1/DTD/svg11.dtd">
<svg version="1.1" id="Layer_1" xmlns="http://www.w3.org/2000/svg" xmlns:xlink="http://www.w3.org/1999/xlink" x="0px" y="0px"
	 width="96px" height="96px" viewBox="0 0 96 96" enable-background="new 0 0 96 96" xml:space="preserve">
<g>
	<path d="M93.731,90.342L77.588,63.354c-0.975-1.633-2.427-2.793-4.063-3.467l-11.063-5.094l-5.315-4.482l-9.135,9.086l-9.156-9.086
		l-5.315,4.482l-11.063,5.094c-1.637,0.674-3.089,1.834-4.063,3.467L2.269,90.342c-0.79,1.324-1.186,2.809-1.195,4.299h93.854
		C94.917,93.15,94.521,91.666,93.731,90.342z"/>
	<path d="M38.425,47.652c2.739,2.047,5.951,3.047,9.538,3.123c0.003,0,0.007,0,0.01,0c0.005,0.002,0.01,0.002,0.015,0.002
		c0.004,0,0.009,0,0.013,0s0.009,0,0.013,0c0.005,0,0.01,0,0.015-0.002c0.003,0,0.007,0,0.01,0c3.587-0.076,6.799-1.076,9.538-3.123
		c6.315,5.832,24.607,9.711,17.371,4.572c-8.598-6.107-7.55-26.234-7.55-26.234c0.136-1.563,0.204-3.184,0.201-4.859
		c-0.001-0.633-0.035-1.244-0.073-1.854c-0.155-3.023-0.901-5.238-0.901-5.238C64.268,6.035,57.692,1.434,48.037,1.361V1.359
		c-0.013,0-0.024,0.002-0.037,0.002s-0.024-0.002-0.037-0.002v0.002c-9.655,0.072-16.23,4.674-18.586,12.678
		c0,0-0.746,2.215-0.901,5.238c-0.038,0.609-0.072,1.221-0.073,1.854c-0.003,1.676,0.065,3.297,0.201,4.859
		c0,0,1.048,20.127-7.55,26.234C13.817,57.363,32.109,53.484,38.425,47.652z"/>
</g>
</svg>
