<?xml version="1.0" encoding="utf-8"?>
<!-- Generator: Adobe Illustrator 16.0.0, SVG Export Plug-In . SVG Version: 6.00 Build 0)  -->
<!DOCTYPE svg PUBLIC "-//W3C//DTD SVG 1.1//EN" "http://www.w3.org/Graphics/SVG/1.1/DTD/svg11.dtd">
<svg version="1.1" id="Layer_1" xmlns="http://www.w3.org/2000/svg" xmlns:xlink="http://www.w3.org/1999/xlink" x="0px" y="0px"
	 width="96px" height="96px" viewBox="0 0 96 96" enable-background="new 0 0 96 96" xml:space="preserve">
<g>
	<path d="M10.684,41.139c0.652,0.612,1.461,1.349,2.766,2.001c0.662,0.3,1.466,0.593,2.516,0.654
		c1.027,0.052,2.371-0.206,3.511-0.95c1.132-0.737,1.999-1.753,2.606-2.749c0.591-1.002,1.021-1.998,1.358-3.003
		c0.294-0.983,0.562-1.984,0.727-2.961c0.083-0.487,0.158-0.989,0.212-1.512c0.051-0.477,0.102-0.959,0.152-1.443
		c0.087-1.708,0.176-3.474,0.266-5.269c0.083-1.708,0.168-3.388,0.313-4.942c0.142-1.56,0.38-2.963,0.672-4.063
		c0.299-1.115,0.621-1.805,1.044-2.397c0.217-0.31,0.531-0.612,0.931-0.895c-0.739,2.386-1.12,5.073-1.09,8.07
		c0.199,18.709,8.309,30.053,21.312,29.811C60.604,51.246,68.938,39.18,68.9,21.174c-0.005-2.939-0.452-5.587-1.271-7.942
		c0.702,0.378,1.228,0.816,1.545,1.272c0.423,0.593,0.745,1.282,1.043,2.397c0.293,1.101,0.53,2.504,0.673,4.063
		c0.146,1.555,0.23,3.234,0.313,4.942c0.091,1.795,0.18,3.561,0.266,5.269c0.052,0.484,0.103,0.967,0.153,1.443
		c0.054,0.522,0.128,1.024,0.212,1.512c0.164,0.977,0.432,1.978,0.727,2.961c0.337,1.005,0.768,2.001,1.357,3.003
		c0.608,0.996,1.475,2.012,2.607,2.749c1.14,0.744,2.483,1.002,3.511,0.95c1.05-0.062,1.854-0.354,2.516-0.654
		c1.305-0.652,2.113-1.389,2.766-2.001c0.643-0.61,1.083-1.149,1.408-1.485c0.324-0.352,0.498-0.541,0.498-0.541
		s-0.259-0.056-0.736-0.077c-0.474-0.021-1.188-0.052-2.026-0.047c-0.831-0.016-1.816-0.132-2.724-0.221
		c-0.658-0.064-1.111-1.143-0.912-3.252c0.056-0.592,0.095-1.225,0.184-1.927c0.032-0.349,0.071-0.696,0.127-1.03
		c0.056-0.379,0.111-0.764,0.167-1.149c0.102-0.863,0.204-1.738,0.31-2.627c0.092-0.929,0.166-1.882,0.202-2.86
		c0.086-1.953,0.061-3.998-0.184-6.146c-0.237-2.139-0.706-4.42-1.707-6.741c-1.002-2.281-2.698-4.734-5.06-6.206
		c-0.564-0.396-1.168-0.68-1.756-0.969c-0.598-0.238-1.201-0.455-1.783-0.6c-1.169-0.29-2.289-0.441-3.313-0.408
		c-2.057,0.008-3.793,0.413-5.285,0.905c-0.019,0.006-0.035,0.013-0.055,0.021C59.115,2.692,54.145,0.996,48,0.953
		c-0.338-0.003-0.68-0.001-1.024,0.007c-5.971,0.14-10.715,1.754-14.12,4.673c-1.398-0.432-2.995-0.774-4.868-0.78
		c-1.022-0.033-2.144,0.118-3.312,0.408c-0.582,0.145-1.187,0.361-1.783,0.6c-0.589,0.289-1.191,0.573-1.756,0.969
		c-2.361,1.472-4.058,3.925-5.06,6.206c-1.002,2.321-1.471,4.603-1.708,6.741c-0.243,2.147-0.269,4.192-0.183,6.146
		c0.035,0.979,0.11,1.932,0.202,2.86c0.104,0.889,0.207,1.764,0.309,2.627c0.056,0.386,0.112,0.771,0.167,1.149
		c0.057,0.334,0.096,0.682,0.127,1.03c0.09,0.702,0.149,1.333,0.185,1.927c0.026,0.562,0.595,3.026-0.912,3.252
		c-0.901,0.135-1.893,0.205-2.724,0.221c-0.84-0.005-1.553,0.026-2.027,0.047c-0.477,0.021-0.735,0.077-0.735,0.077
		s0.174,0.189,0.497,0.541C9.601,39.989,10.041,40.528,10.684,41.139z"/>
	<g>
		<path d="M93.731,90.75L77.588,63.764c-0.975-1.633-2.427-2.795-4.063-3.467l-11.063-5.094l-5.315-4.482l-9.135,9.084l-9.156-9.084
			l-5.315,4.482l-11.063,5.094c-1.637,0.672-3.089,1.834-4.063,3.467L2.269,90.75c-0.79,1.326-1.186,2.811-1.195,4.299h93.854
			C94.917,93.561,94.521,92.076,93.731,90.75z"/>
	</g>
</g>
</svg>
