<?xml version="1.0" encoding="utf-8"?>
<!-- Generator: Adobe Illustrator 16.0.4, SVG Export Plug-In . SVG Version: 6.00 Build 0)  -->
<!DOCTYPE svg PUBLIC "-//W3C//DTD SVG 1.1//EN" "http://www.w3.org/Graphics/SVG/1.1/DTD/svg11.dtd">
<svg version="1.1" id="Layer_1" xmlns="http://www.w3.org/2000/svg" xmlns:xlink="http://www.w3.org/1999/xlink" x="0px" y="0px"
	 width="226.77px" height="155.91px" viewBox="0 0 226.77 155.91" enable-background="new 0 0 226.77 155.91" xml:space="preserve">
<g>
	<path d="M74.407,127.685c-4.037,0-7.308,3.272-7.308,7.309s3.271,7.308,7.308,7.308h23.016c-1.525,3.582,0.007,7.76,3.554,9.453
		c1.016,0.484,2.085,0.713,3.143,0.713c2.729,0,5.347-1.534,6.602-4.163l2.862-6.003h36.341c4.037,0,7.309-3.271,7.309-7.308
		s-3.271-7.309-7.309-7.309h-29.369l3.486-7.308h25.883c4.037,0,7.309-3.271,7.309-7.309s-3.271-7.309-7.309-7.309h-18.912
		l3.078-6.448c1.736-3.642,0.191-8.005-3.449-9.741c-3.639-1.735-8.004-0.195-9.746,3.449l-6.077,12.74H74.407
		c-4.037,0-7.308,3.271-7.308,7.309s3.271,7.309,7.308,7.309h33.44l-3.486,7.308H74.407z"/>
	<path d="M103.64,83.835h48.721c4.037,0,7.309-3.271,7.309-7.309c0-4.036-3.271-7.308-7.309-7.308H103.64
		c-12.09,0-21.925-9.838-21.925-21.926v-7.308c0-12.088,9.834-21.925,21.925-21.925h48.721c4.037,0,7.309-3.271,7.309-7.309
		c0-4.036-3.271-7.309-7.309-7.309H103.64c-20.149,0-36.541,16.393-36.541,36.542v7.308C67.099,67.442,83.491,83.835,103.64,83.835z
		"/>
</g>
</svg>
