<?xml version="1.0" encoding="utf-8"?>
<!-- Generator: Adobe Illustrator 16.0.4, SVG Export Plug-In . SVG Version: 6.00 Build 0)  -->
<!DOCTYPE svg PUBLIC "-//W3C//DTD SVG 1.1//EN" "http://www.w3.org/Graphics/SVG/1.1/DTD/svg11.dtd">
<svg version="1.1" id="Layer_1" xmlns="http://www.w3.org/2000/svg" xmlns:xlink="http://www.w3.org/1999/xlink" x="0px" y="0px"
	 width="226.77px" height="155.91px" viewBox="0 0 226.77 155.91" enable-background="new 0 0 226.77 155.91" xml:space="preserve">
<g>
	<path d="M98.164,94.805h35.581l-22.68,19.488H65.881c-4.037,0-7.308,3.271-7.308,7.309s3.271,7.309,7.308,7.309h28.176
		l-5.362,4.608c-3.062,2.632-3.411,7.245-0.779,10.305c1.444,1.681,3.491,2.546,5.547,2.546c1.686,0,3.381-0.58,4.76-1.766
		l18.261-15.693h46.842c4.036,0,7.308-3.271,7.308-7.309s-3.271-7.309-7.308-7.309h-29.833l22.681-19.488h7.152
		c4.036,0,7.308-3.271,7.308-7.309s-3.271-7.309-7.308-7.309H98.164c-14.346,0-27.411-12.117-27.411-25.423v-8.068
		c0-13.922,14.229-22.539,27.411-22.539h65.161c4.036,0,7.308-3.272,7.308-7.309s-3.271-7.308-7.308-7.308H98.164
		c-26.308,0-42.027,18.892-42.027,37.155v8.068C56.137,76.096,75.776,94.805,98.164,94.805z"/>
</g>
</svg>
