<?xml version="1.0" encoding="utf-8"?>
<!-- Generator: Adobe Illustrator 16.0.4, SVG Export Plug-In . SVG Version: 6.00 Build 0)  -->
<!DOCTYPE svg PUBLIC "-//W3C//DTD SVG 1.1//EN" "http://www.w3.org/Graphics/SVG/1.1/DTD/svg11.dtd">
<svg version="1.1" id="Layer_1" xmlns="http://www.w3.org/2000/svg" xmlns:xlink="http://www.w3.org/1999/xlink" x="0px" y="0px"
	 width="226.77px" height="155.91px" viewBox="0 0 226.77 155.91" enable-background="new 0 0 226.77 155.91" xml:space="preserve">
<g>
	<path d="M161.898,14.329c-2.884-2.209-7.016-1.637-9.198,1.247l-0.286,0.364c-0.104,0-0.233-0.026-0.338-0.026H99.535
		c-18.112,0-32.845,14.733-32.845,32.845v6.574c0,17.41,13.616,31.649,30.74,32.741l-10.108,13.252H73.238
		c-3.638,0-6.574,2.937-6.574,6.574c0,3.639,2.936,6.574,6.574,6.574h4.054l-13.668,17.904c-2.208,2.884-1.637,7.016,1.248,9.198
		c1.195,0.91,2.599,1.352,3.976,1.352c1.975,0,3.924-0.884,5.223-2.599l3.04-3.976h74.941c3.638,0,6.574-2.937,6.574-6.574
		s-2.937-6.574-6.574-6.574H87.14l6.678-8.757h58.258c3.639,0,6.574-2.937,6.574-6.574s-2.936-6.574-6.574-6.574h-48.228
		l10.03-13.148h38.224c3.638,0,6.574-2.937,6.574-6.574c0-3.638-2.937-6.575-6.574-6.575h-28.22l39.264-51.502
		C165.354,20.643,164.783,16.537,161.898,14.329z M107.356,75.029h-7.821c-10.862,0-19.697-8.834-19.697-19.696v-6.574
		c0-10.862,8.835-19.697,19.697-19.697h42.875L107.356,75.029z"/>
</g>
</svg>
