<?xml version="1.0" encoding="utf-8"?>
<!-- Generator: Adobe Illustrator 16.0.4, SVG Export Plug-In . SVG Version: 6.00 Build 0)  -->
<!DOCTYPE svg PUBLIC "-//W3C//DTD SVG 1.1//EN" "http://www.w3.org/Graphics/SVG/1.1/DTD/svg11.dtd">
<svg version="1.1" id="Layer_1" xmlns="http://www.w3.org/2000/svg" xmlns:xlink="http://www.w3.org/1999/xlink" x="0px" y="0px"
	 width="226.77px" height="155.91px" viewBox="0 0 226.77 155.91" enable-background="new 0 0 226.77 155.91" xml:space="preserve">
<path d="M152.57,84.814c3.612,0,6.522-2.936,6.522-6.521c0-3.612-2.937-6.522-6.522-6.522h-8.523l1.611-3.352
	c1.56-3.248,0.182-7.146-3.092-8.705c-3.248-1.559-7.146-0.182-8.705,3.092l-4.262,8.965h-28.193
	c-10.836,0-20.685-9.848-20.685-20.684v-6.522c0-10.212,9.276-18.501,20.685-18.501h51.164c3.612,0,6.522-2.937,6.522-6.522
	c0-3.612-2.937-6.522-6.522-6.522h-51.164c-18.605,0-33.755,14.162-33.755,31.572v6.496c0,17.982,15.772,33.755,33.754,33.755
	h21.958l-6.236,13.07H74.199c-3.611,0-6.522,2.936-6.522,6.521s2.937,6.522,6.522,6.522h36.691l-4.158,8.705H74.199
	c-3.611,0-6.522,2.937-6.522,6.522c0,3.611,2.937,6.521,6.522,6.521h26.323l-0.39,0.832c-1.56,3.248-0.183,7.146,3.092,8.705
	c0.909,0.441,1.871,0.649,2.807,0.649c2.442,0,4.781-1.378,5.898-3.716l3.066-6.444h37.601c3.611,0,6.521-2.937,6.521-6.522
	c0-3.611-2.936-6.521-6.521-6.521h-31.391l4.158-8.705h27.206c3.612,0,6.522-2.937,6.522-6.522s-2.937-6.522-6.522-6.522h-20.97
	l6.236-13.07h14.733V84.814z"/>
</svg>
