<?xml version="1.0" encoding="utf-8"?>
<!-- Generator: Adobe Illustrator 16.0.4, SVG Export Plug-In . SVG Version: 6.00 Build 0)  -->
<!DOCTYPE svg PUBLIC "-//W3C//DTD SVG 1.1//EN" "http://www.w3.org/Graphics/SVG/1.1/DTD/svg11.dtd">
<svg version="1.1" id="Layer_1" xmlns="http://www.w3.org/2000/svg" xmlns:xlink="http://www.w3.org/1999/xlink" x="0px" y="0px"
	 width="50px" height="50px" viewBox="0 0 50 50" enable-background="new 0 0 50 50" xml:space="preserve">
<path d="M30.824,25.127l0.521-0.646c0.174-0.215,0.141-0.529-0.074-0.703c-0.215-0.174-0.528-0.141-0.703,0.074l-0.623,0.771
	c-0.006-0.002-0.01-0.006-0.016-0.009v-8.843c0-0.276-0.225-0.5-0.5-0.5H17.431c-0.277,0-0.5,0.224-0.5,0.5v16.5
	c0,0.275,0.223,0.5,0.5,0.5h6.164c0.033,0,0.062-0.014,0.094-0.02c0.971,1.195,2.434,1.977,4.09,1.977
	c2.916,0,5.291-2.373,5.291-5.291C33.067,27.656,32.177,26.086,30.824,25.127z M32.019,28.938h-4.09v-3.776
	C30.054,25.237,31.772,26.859,32.019,28.938z M27.929,24.163v-0.758h0.633c0.146,0,0.275-0.066,0.367-0.167v1.044
	C28.604,24.209,28.271,24.172,27.929,24.163z M20.429,16.271v2.332h-2.498v-2.332H20.429z M17.931,31.771V19.604h2.998
	c0.276,0,0.5-0.224,0.5-0.5v-2.832h7.5v6.299c-0.092-0.101-0.221-0.166-0.367-0.166h-2.353c-0.276,0-0.5,0.224-0.5,0.5
	c0,0.276,0.224,0.5,0.5,0.5h0.72v0.828c-2.513,0.41-4.441,2.579-4.441,5.205c0,0.842,0.216,1.627,0.566,2.334H17.931z
	 M27.776,33.729c-2.365,0-4.291-1.925-4.291-4.291c0-2.075,1.481-3.81,3.441-4.205v4.206c0,0.275,0.225,0.5,0.5,0.5h4.59
	C31.767,32.066,29.974,33.729,27.776,33.729z"/>
</svg>
