<?xml version="1.0" encoding="utf-8"?>
<!-- Generator: Adobe Illustrator 16.0.4, SVG Export Plug-In . SVG Version: 6.00 Build 0)  -->
<!DOCTYPE svg PUBLIC "-//W3C//DTD SVG 1.1//EN" "http://www.w3.org/Graphics/SVG/1.1/DTD/svg11.dtd">
<svg version="1.1" id="Layer_1" xmlns="http://www.w3.org/2000/svg" xmlns:xlink="http://www.w3.org/1999/xlink" x="0px" y="0px"
	 width="50px" height="50px" viewBox="0 0 50 50" enable-background="new 0 0 50 50" xml:space="preserve">
<path d="M40.697,20.975l-2.582-1.665l-9.97,3.545l-1.866-1.104h-4.716v-0.615h2.024V19.46h-5.726v1.676h2.025v0.615h-5.268l-3.472-2
	L8.5,22.512l5.626,7.285l0.052-0.041v0.934h12.167l11.717-9.418l1.729,1.114L40.697,20.975z M10.708,22.629l0.74-0.771l2.729,1.573
	v3.69L10.708,22.629z M25.754,29.014h-9.899v-5.587h9.966l2.146,1.271l5.658-2.011L25.754,29.014z M41.5,25.864
	c0,0.694-0.562,1.257-1.256,1.257c-0.695,0-1.258-0.562-1.258-1.257s1.258-2.897,1.258-2.897S41.5,25.17,41.5,25.864z"/>
</svg>
