<?xml version="1.0" encoding="utf-8"?>
<!-- Generator: Adobe Illustrator 16.0.4, SVG Export Plug-In . SVG Version: 6.00 Build 0)  -->
<!DOCTYPE svg PUBLIC "-//W3C//DTD SVG 1.1//EN" "http://www.w3.org/Graphics/SVG/1.1/DTD/svg11.dtd">
<svg version="1.1" id="Layer_1" xmlns="http://www.w3.org/2000/svg" xmlns:xlink="http://www.w3.org/1999/xlink" x="0px" y="0px"
	 width="50px" height="50px" viewBox="0 0 50 50" enable-background="new 0 0 50 50" xml:space="preserve">
<path d="M40.25,28.926h-1.175v-5.988h-4.154c-1.325-4.832-5.593-8.174-10.509-8.174s-9.184,3.342-10.508,8.174H9.75v9.672h3.592
	c0.24,1.486,1.522,2.627,3.075,2.627c1.554,0,2.836-1.141,3.076-2.627h9.84c0.24,1.486,1.522,2.627,3.075,2.627
	s2.835-1.141,3.075-2.627h3.592v-1.684h1.175V28.926L40.25,28.926z M16.417,34.236c-1.172,0-2.126-0.953-2.126-2.125
	c0-1.174,0.954-2.127,2.126-2.127c1.173,0,2.127,0.953,2.127,2.127C18.544,33.283,17.59,34.236,16.417,34.236z M32.408,34.236
	c-1.172,0-2.126-0.953-2.126-2.125c0-1.174,0.954-2.127,2.126-2.127s2.126,0.953,2.126,2.127
	C34.534,33.283,33.58,34.236,32.408,34.236z M38.075,31.609h-2.592c-0.241-1.484-1.523-2.625-3.075-2.625s-2.834,1.141-3.075,2.625
	h-9.84c-0.241-1.484-1.523-2.625-3.076-2.625c-1.552,0-2.834,1.141-3.075,2.625H10.75v-7.672h3.937l0.093-0.383
	c1.093-4.589,5.054-7.791,9.634-7.791s8.542,3.202,9.635,7.791l0.092,0.383h3.938v7.672H38.075z M32.104,24.016l0.033,0.14h-7.226
	v-6.373C28.35,18.004,31.267,20.502,32.104,24.016z M23.912,17.781v6.373h-7.226l0.033-0.139
	C17.559,20.502,20.476,18.004,23.912,17.781z"/>
</svg>
