<?xml version="1.0" encoding="utf-8"?>
<!-- Generator: Adobe Illustrator 16.0.4, SVG Export Plug-In . SVG Version: 6.00 Build 0)  -->
<!DOCTYPE svg PUBLIC "-//W3C//DTD SVG 1.1//EN" "http://www.w3.org/Graphics/SVG/1.1/DTD/svg11.dtd">
<svg version="1.1" id="Layer_1" xmlns="http://www.w3.org/2000/svg" xmlns:xlink="http://www.w3.org/1999/xlink" x="0px" y="0px"
	 width="226.77px" height="155.91px" viewBox="0 0 226.77 155.91" enable-background="new 0 0 226.77 155.91" xml:space="preserve">
<g>
	<path d="M149.263,26.797c-1.045-2.723-4.098-4.098-6.848-3.053l-61.991,23.79c-1.98,0.77-3.328,2.667-3.383,4.785
		c-0.055,2.146,1.155,4.098,3.108,4.978l61.99,28.025c0.715,0.33,1.458,0.467,2.173,0.467c2.008,0,3.933-1.154,4.812-3.107
		c1.21-2.668,0.027-5.803-2.64-7.013L96.073,52.869l50.137-19.224C148.933,32.6,150.308,29.547,149.263,26.797z"/>
	<path d="M128.031,104.188c7.48,1.787,17.986,3.493,22.689-2.503c2.832-3.603,2.145-8.195,0.688-11.028
		c-1.32-2.612-4.511-3.63-7.123-2.311c-2.476,1.266-3.548,4.235-2.476,6.766c-1.348,0.248-4.565,0.386-11.331-1.237
		c-2.42-0.577-5.061-1.128-7.811-1.595l1.348-2.751c1.293-2.64,0.192-5.803-2.447-7.067c-2.641-1.293-5.804-0.192-7.068,2.447
		l-2.888,5.94c-14.384-1.292-29.207-0.357-34.845,5.528c-2.365,2.447-3.19,5.721-2.283,8.938c0.66,2.337,2.778,3.85,5.088,3.85
		c0.468,0,0.963-0.055,1.43-0.192c2.53-0.715,4.098-3.135,3.823-5.638c2.475-1.65,10.891-2.806,21.782-2.255l-4.675,9.625
		c-10.918-0.109-20.819,1.485-25.192,6.023c-2.365,2.447-3.19,5.721-2.283,8.938c0.66,2.337,2.778,3.85,5.088,3.85
		c0.467,0,0.962-0.055,1.43-0.192c2.53-0.715,4.098-3.135,3.823-5.638c1.65-1.1,5.968-1.98,11.881-2.282l-1.705,3.492
		c-1.292,2.641-0.192,5.803,2.448,7.068c0.743,0.357,1.54,0.55,2.31,0.55c1.953,0,3.851-1.1,4.758-2.97l3.878-7.977
		c6.023,0.413,12.734,1.32,19.609,2.971c7.481,1.788,17.987,3.493,22.689-2.503c2.833-3.603,2.146-8.195,0.688-11.028
		c-1.319-2.612-4.537-3.686-7.15-2.365c-2.53,1.293-3.575,4.263-2.447,6.82c-1.348,0.248-4.593,0.386-11.331-1.237
		c-5.033-1.21-11.001-2.228-17.107-2.86l4.456-9.186C121.155,102.73,124.565,103.363,128.031,104.188z"/>
</g>
</svg>
