<?xml version="1.0" encoding="utf-8"?>
<!-- Generator: Adobe Illustrator 16.0.4, SVG Export Plug-In . SVG Version: 6.00 Build 0)  -->
<!DOCTYPE svg PUBLIC "-//W3C//DTD SVG 1.1//EN" "http://www.w3.org/Graphics/SVG/1.1/DTD/svg11.dtd">
<svg version="1.1" id="Layer_1" xmlns="http://www.w3.org/2000/svg" xmlns:xlink="http://www.w3.org/1999/xlink" x="0px" y="0px"
	 width="226.77px" height="155.91px" viewBox="0 0 226.77 155.91" enable-background="new 0 0 226.77 155.91" xml:space="preserve">
<g>
	<path d="M147.812,108.713c4.036,0,7.308-3.272,7.308-7.309c0-4.037-3.271-7.309-7.308-7.309h-26.798V81.915
		c0-4.036-3.271-7.308-7.308-7.308s-7.308,3.272-7.308,7.308v12.181H79.6c-4.037,0-7.308,3.271-7.308,7.309
		c0,4.036,3.271,7.309,7.308,7.309h26.797v9.744H79.6c-4.037,0-7.308,3.271-7.308,7.308c0,4.037,3.271,7.309,7.308,7.309h26.797
		v9.744c0,4.036,3.271,7.309,7.308,7.309s7.308-3.272,7.308-7.309v-9.744h26.798c4.036,0,7.308-3.271,7.308-7.309
		c0-4.036-3.271-7.308-7.308-7.308h-26.798v-9.744H147.812z"/>
	<path d="M143.672,6.272L76.341,32.1c-2.753,1.055-4.602,3.661-4.687,6.609c-0.088,2.948,1.607,5.657,4.294,6.872l67.329,30.439
		c0.977,0.441,2,0.65,3.006,0.65c2.784,0,5.442-1.598,6.665-4.3c1.662-3.679,0.029-8.007-3.648-9.671L97.922,39.474l50.983-19.557
		c3.768-1.445,5.651-5.671,4.207-9.44C151.667,6.708,147.433,4.825,143.672,6.272z"/>
</g>
</svg>
