<?xml version="1.0" encoding="utf-8"?>
<!-- Generator: Adobe Illustrator 16.0.4, SVG Export Plug-In . SVG Version: 6.00 Build 0)  -->
<!DOCTYPE svg PUBLIC "-//W3C//DTD SVG 1.1//EN" "http://www.w3.org/Graphics/SVG/1.1/DTD/svg11.dtd">
<svg version="1.1" id="Layer_1" xmlns="http://www.w3.org/2000/svg" xmlns:xlink="http://www.w3.org/1999/xlink" x="0px" y="0px"
	 width="226.77px" height="155.91px" viewBox="0 0 226.77 155.91" enable-background="new 0 0 226.77 155.91" xml:space="preserve">
<g>
	<path d="M162.106,114.193h-34.734l5.188-5.187c2.854-2.853,2.854-7.481,0-10.334c-2.855-2.854-7.479-2.854-10.334,0l-15.521,15.521
		H64.663c-4.037,0-7.308,3.271-7.308,7.309c0,4.036,3.271,7.308,7.308,7.308h27.426l-7.623,7.622c-2.855,2.854-2.855,7.482,0,10.334
		c1.427,1.428,3.298,2.143,5.167,2.143c1.868,0,3.739-0.715,5.167-2.143l17.957-17.956h49.35c4.037,0,7.309-3.271,7.309-7.308
		C169.415,117.465,166.144,114.193,162.106,114.193z"/>
	<path d="M161.622,11.697c-1.445-3.766-5.662-5.656-9.439-4.207L63.265,41.595c-2.753,1.057-4.604,3.662-4.69,6.609
		c-0.085,2.948,1.608,5.659,4.297,6.873l88.918,40.195c0.975,0.443,1.997,0.653,3.004,0.653c2.784,0,5.441-1.599,6.662-4.302
		c1.664-3.679,0.029-8.006-3.649-9.669L84.846,48.969l72.569-27.833C161.183,19.692,163.069,15.466,161.622,11.697z"/>
</g>
</svg>
