<?xml version="1.0" encoding="utf-8"?>
<!-- Generator: Adobe Illustrator 16.0.4, SVG Export Plug-In . SVG Version: 6.00 Build 0)  -->
<!DOCTYPE svg PUBLIC "-//W3C//DTD SVG 1.1//EN" "http://www.w3.org/Graphics/SVG/1.1/DTD/svg11.dtd">
<svg version="1.1" id="Layer_1" xmlns="http://www.w3.org/2000/svg" xmlns:xlink="http://www.w3.org/1999/xlink" x="0px" y="0px"
	 width="226.77px" height="155.91px" viewBox="0 0 226.77 155.91" enable-background="new 0 0 226.77 155.91" xml:space="preserve">
<g>
	<path d="M147.812,109.932c4.036,0,7.308-3.272,7.308-7.309c0-4.037-3.271-7.309-7.308-7.309h-24.105l4.239-8.882
		c1.736-3.645,0.194-8.005-3.449-9.745c-3.638-1.739-8.006-0.192-9.743,3.45l-7.242,15.177h-27.91c-4.037,0-7.308,3.271-7.308,7.309
		c0,4.036,3.271,7.309,7.308,7.309h20.938l-4.648,9.744h-16.29c-4.037,0-7.308,3.271-7.308,7.308c0,4.037,3.271,7.309,7.308,7.309
		h9.315l-3.147,6.597c-1.737,3.645-0.195,8.006,3.45,9.744c1.016,0.485,2.088,0.712,3.143,0.712c2.729,0,5.347-1.534,6.6-4.161
		l6.151-12.892h42.7c4.036,0,7.308-3.271,7.308-7.309c0-4.036-3.271-7.308-7.308-7.308h-35.728l4.648-9.744H147.812z"/>
	<path d="M75.946,44.363l67.331,30.439c0.977,0.441,2,0.651,3.006,0.651c2.785,0,5.443-1.598,6.666-4.3
		c1.661-3.679,0.029-8.008-3.649-9.671L97.922,38.256l50.983-19.557c3.769-1.445,5.651-5.671,4.207-9.44
		c-1.444-3.771-5.679-5.652-9.44-4.207l-67.331,25.83c-2.753,1.055-4.602,3.662-4.688,6.609
		C71.566,40.439,73.259,43.148,75.946,44.363z"/>
</g>
</svg>
