<?xml version="1.0" encoding="utf-8"?>
<!-- Generator: Adobe Illustrator 16.0.4, SVG Export Plug-In . SVG Version: 6.00 Build 0)  -->
<!DOCTYPE svg PUBLIC "-//W3C//DTD SVG 1.1//EN" "http://www.w3.org/Graphics/SVG/1.1/DTD/svg11.dtd">
<svg version="1.1" id="Layer_1" xmlns="http://www.w3.org/2000/svg" xmlns:xlink="http://www.w3.org/1999/xlink" x="0px" y="0px"
	 width="226.77px" height="155.91px" viewBox="0 0 226.77 155.91" enable-background="new 0 0 226.77 155.91" xml:space="preserve">
<g>
	<path d="M66.434,19.778h-21.73c-3.949,0-3.949,3.187-3.949,5.367v9.25H59.52c0.545,0,0.986,0.672,0.986,1.218
		c0,0.546-0.443,1.218-0.986,1.218H40.754v4.872H51.62c0.545,0,0.986,0.672,0.986,1.218c0,0.545-0.443,1.218-0.986,1.218H40.754
		v4.872H59.52c0.545,0,0.784,0.585,0.784,1.13c0,0.546-0.239,1.306-0.784,1.306H40.754v4.872H51.62c0.545,0,0.986,0.672,0.986,1.218
		c0,0.546-0.443,1.218-0.986,1.218H40.754v4.872H59.52c0.545,0,0.986,0.672,0.986,1.218c0,0.545-0.443,1.218-0.986,1.218H40.754
		v4.873H51.62c0.545,0,0.986,0.672,0.986,1.218c0,0.546-0.443,1.218-0.986,1.218H40.754v4.872H59.52
		c0.545,0,0.986,0.672,0.986,1.219c0,0.545-0.443,1.217-0.986,1.217H40.754v4.873H51.62c0.545,0,0.76,0.674,0.76,1.221
		c0,0.545-0.214,1.215-0.76,1.215H40.754v4.873H59.52c0.545,0,0.986,0.672,0.986,1.217c0,0.547-0.443,1.219-0.986,1.219H40.754
		v4.872H51.62c0.545,0,0.986,0.673,0.986,1.218c0,0.546-0.443,1.219-0.986,1.219H40.754v4.872H59.52
		c0.545,0,0.986,0.672,0.986,1.218s-0.443,1.219-0.986,1.219H40.754v4.871H51.62c0.545,0,0.986,0.673,0.986,1.219
		c0,0.545-0.443,1.218-0.986,1.218H40.754v4.872H59.52c0.545,0,0.986,0.672,0.986,1.219c0,0.545-0.443,1.217-0.986,1.217H40.754
		v9.26c0,2.184,1.769,2.922,3.952,2.922h21.73c2.18,0,5.988-0.738,5.988-2.922V25.145C72.424,22.965,72.424,19.778,66.434,19.778z"
		/>
	<path d="M175.005,123.009l-2.165,2.049c-0.772,0.771-2.022,0.589-2.794-0.181c-0.772-0.772-0.772-1.956,0-2.729l2.285-2.285
		l-5.832-6.358l-5.511,5.511c-0.772,0.772-2.022,0.772-2.794,0c-0.772-0.772-0.772-2.022,0-2.794l5.632-5.633l-5.832-6.357
		l-2.931,2.93c-0.771,0.772-2.021,0.772-2.794,0c-0.772-0.771-0.772-2.021,0-2.794l3.052-3.052l-5.832-6.359l-6.277,6.278
		c-0.772,0.772-2.021,0.772-2.795,0c-0.771-0.772-0.771-2.022,0-2.794l6.398-6.397l-6.777-7.389l-2.754,2.753
		c-0.771,0.772-2.021,0.772-2.793,0c-0.773-0.771-0.773-2.021,0-2.794l2.871-2.872l-6.777-7.39l-7.127,7.129
		c-0.772,0.772-2.022,0.772-2.795,0c-0.771-0.772-0.771-2.022,0-2.795l7.25-7.25l-5.832-6.358l-2.574,2.575
		c-0.773,0.772-2.022,0.772-2.795,0c-0.771-0.772-0.771-2.022,0-2.794l2.694-2.694l-5.832-6.358l-5.919,5.92
		c-0.772,0.772-2.022,0.772-2.794,0c-0.772-0.772-0.772-2.022,0-2.794l6.042-6.042l-6.777-7.389l-2.395,2.395
		c-0.772,0.772-2.022,0.772-2.794,0c-0.772-0.772-0.772-2.022,0-2.794l2.516-2.517l-5.832-6.358l-5.742,5.742
		c-0.772,0.772-2.022,0.772-2.794,0c-0.772-0.772-0.772-2.022,0-2.794l5.367-5.861L79.98,20.124
		c-1.503-1.576-2.685-1.091-2.685,1.092v112.597c0,2.181,1.698,2.899,3.881,2.899h102.718c2.183,0,2.777-0.799,1.33-2.432
		L175.005,123.009z M91.913,122.095V61.399l58.942,60.696H91.913z"/>
</g>
</svg>
