<?xml version="1.0" encoding="utf-8"?>
<!-- Generator: Adobe Illustrator 16.0.0, SVG Export Plug-In . SVG Version: 6.00 Build 0)  -->
<!DOCTYPE svg PUBLIC "-//W3C//DTD SVG 1.1//EN" "http://www.w3.org/Graphics/SVG/1.1/DTD/svg11.dtd">
<svg version="1.1" id="Layer_1" xmlns="http://www.w3.org/2000/svg" xmlns:xlink="http://www.w3.org/1999/xlink" x="0px" y="0px"
	 width="96px" height="96px" viewBox="0 0 96 96" enable-background="new 0 0 96 96" xml:space="preserve">
<g>
	<path d="M48.117,0.333c-26.337,0-47.784,21.449-47.784,47.904c0,26.215,21.447,47.43,47.784,47.43s47.55-21.098,47.55-47.43
		C95.667,21.782,73.501,0.333,48.117,0.333z M48.117,89.344c-22.639,0-41.229-18.465-41.229-41.107
		c0-22.757,18.591-41.591,41.229-41.591c22.526,0,40.995,18.95,40.995,41.591C89.112,70.641,70.644,89.344,48.117,89.344z"/>
	<path d="M66.472,22.977c-2.973,0-4.17,1.311-5.479,3.934L48.12,53.721h-0.117l-12.99-26.811c-1.313-2.624-2.502-3.934-5.482-3.934
		c-3.932,0-5.244,2.502-5.244,4.884v41.587c0,2.27,1.791,3.576,3.932,3.576c1.906,0,4.051-1.306,4.051-3.576v-30.98h0.121
		l11.797,24.071c0.835,1.668,1.91,2.626,3.816,2.626c1.902,0,2.979-0.958,3.813-2.626l11.796-24.071h0.121v30.98
		c0,2.27,2.142,3.576,4.049,3.576c2.148,0,3.932-1.306,3.932-3.576V27.861C71.714,25.479,70.407,22.977,66.472,22.977z"/>
</g>
</svg>
