<?xml version="1.0" encoding="utf-8"?>
<!-- Generator: Adobe Illustrator 16.0.0, SVG Export Plug-In . SVG Version: 6.00 Build 0)  -->
<!DOCTYPE svg PUBLIC "-//W3C//DTD SVG 1.1//EN" "http://www.w3.org/Graphics/SVG/1.1/DTD/svg11.dtd">
<svg version="1.1" id="Layer_1" xmlns="http://www.w3.org/2000/svg" xmlns:xlink="http://www.w3.org/1999/xlink" x="0px" y="0px"
	 width="96px" height="96px" viewBox="0 0 96 96" enable-background="new 0 0 96 96" xml:space="preserve">
<g>
	<path d="M51.195,46.724c-1.424,0-2.703,1.072-3.039,2.551c-0.069,0.311-0.101,0.609-0.101,0.938v2.29
		c0,0.333,0.034,0.641,0.102,0.91c0.353,1.445,1.603,2.452,3.039,2.452c2.224,0,3.553-1.721,3.553-4.603
		C54.748,48.462,53.386,46.724,51.195,46.724z"/>
	<path d="M77.268,46.213c-2.271,0-3.081,2.101-3.202,3.342l-0.022,0.231h6.172v-0.211C80.216,48.025,79.444,46.213,77.268,46.213z"
		/>
	<path d="M48,1.5C22.319,1.5,1.5,22.319,1.5,48c0,25.682,20.819,46.5,46.5,46.5c25.682,0,46.5-20.818,46.5-46.5
		C94.5,22.319,73.682,1.5,48,1.5z M17.554,59.23c-2.416,0-4.672-0.609-5.835-1.204l0.884-3.593c1.617,0.779,3.554,1.242,5.237,1.242
		c2.265,0,3.616-0.948,3.616-2.535c0-1.577-1.37-2.376-3.739-3.224c-3.865-1.346-5.746-3.352-5.746-6.133
		c0-3.738,3.177-6.25,7.905-6.25c1.936,0,3.691,0.333,5.222,0.991l-0.967,3.498c-1.368-0.619-2.829-0.933-4.351-0.933
		c-2.458,0-3.331,1.229-3.331,2.28c0,1.503,1.254,2.135,4.117,3.222c3.756,1.389,5.431,3.301,5.431,6.199
		C25.999,55.903,23.78,59.23,17.554,59.23z M37.891,58.912l-0.223-2.196h-0.403l-0.062,0.099c-0.579,0.913-1.958,2.447-4.69,2.447
		c-3.395,0-5.263-2.332-5.263-6.567v-8.921h4.446v8.157c0,3.174,1.431,3.841,2.63,3.841c1.722,0,2.436-1.391,2.611-1.813
		c0.122-0.271,0.178-0.633,0.178-1.136v-9.049h4.447v10.354c0,1.995,0.06,3.59,0.116,4.785H37.891z M52.34,59.262
		c-1.388,0-3.294-0.418-4.497-2.411l-0.062-0.103h-0.376l-0.191,2.163h-3.688c0.058-1.024,0.115-2.761,0.115-4.435V36.738h4.415
		v8.88h0.387l0.063-0.091c0.936-1.357,2.546-2.105,4.536-2.105c1.597,0,3.019,0.581,4.112,1.683c1.374,1.382,2.121,3.5,2.104,5.966
		C59.258,56.699,55.673,59.262,52.34,59.262z M69.537,46.914h-3.469v5.845c0,1.531,0.257,2.948,2.121,2.948
		c0.422,0,0.824-0.03,1.224-0.089l0.027,3.263c-0.645,0.22-1.725,0.35-2.938,0.35c-1.412,0-2.711-0.476-3.476-1.271
		c-0.859-0.892-1.277-2.353-1.277-4.468v-6.577H59.68v-3.141h2.069v-3.417l4.319-0.986v4.402h3.469V46.914z M74.098,52.903
		c0.152,1.916,1.959,3.154,4.603,3.154c1.497,0,2.818-0.184,4.134-0.576l0.558,2.873C81.884,58.928,80.024,59.23,78,59.23
		c-5.069,0-8.095-2.883-8.095-7.713c0-3.898,2.393-8.094,7.649-8.094c4.959,0,6.727,3.902,6.727,7.553
		c0,0.761-0.08,1.394-0.126,1.699H74.08L74.098,52.903z"/>
</g>
</svg>
