<?xml version="1.0" encoding="utf-8"?>
<!-- Generator: Adobe Illustrator 16.0.0, SVG Export Plug-In . SVG Version: 6.00 Build 0)  -->
<!DOCTYPE svg PUBLIC "-//W3C//DTD SVG 1.1//EN" "http://www.w3.org/Graphics/SVG/1.1/DTD/svg11.dtd">
<svg version="1.1" id="Layer_1" xmlns="http://www.w3.org/2000/svg" xmlns:xlink="http://www.w3.org/1999/xlink" x="0px" y="0px"
	 width="96px" height="96px" viewBox="0 0 96 96" enable-background="new 0 0 96 96" xml:space="preserve">
<g>
	<path d="M48,2.063C22.629,2.063,2.063,22.629,2.063,48S22.629,93.938,48,93.938S93.938,73.371,93.938,48S73.371,2.063,48,2.063z
		 M48,85.961c-21.002,0-38.028-17.026-38.028-38.028C9.972,26.931,26.998,9.905,48,9.905c21.001,0,38.028,17.025,38.028,38.028
		C86.028,68.935,69.001,85.961,48,85.961z"/>
	<polygon points="48,42.676 29.966,24.879 24.49,24.879 24.49,70.969 32.399,70.969 32.397,37.656 47.763,52.868 71.035,30.355 
		71.035,24.879 65.864,24.879 	"/>
	<polygon points="35.365,45.414 35.365,55.681 47.763,68.079 63.256,52.27 63.125,70.969 71.035,70.969 71.035,34.234 
		47.763,57.431 	"/>
</g>
</svg>
