<?xml version="1.0" encoding="utf-8"?>
<!-- Generator: Adobe Illustrator 16.0.0, SVG Export Plug-In . SVG Version: 6.00 Build 0)  -->
<!DOCTYPE svg PUBLIC "-//W3C//DTD SVG 1.1//EN" "http://www.w3.org/Graphics/SVG/1.1/DTD/svg11.dtd">
<svg version="1.1" id="Layer_1" xmlns="http://www.w3.org/2000/svg" xmlns:xlink="http://www.w3.org/1999/xlink" x="0px" y="0px"
	 width="96px" height="96px" viewBox="0 0 96 96" enable-background="new 0 0 96 96" xml:space="preserve">
<path d="M86.844,19.389H9.166c0,0-7.945-0.153-7.945,7.766v41.687c0,0,0,7.771,7.945,7.771h77.679c0,0,7.935,0,7.935-7.771V27.298
	C94.779,27.298,94.779,19.389,86.844,19.389z M20.647,68.841H9.166c-3.475,0-3.546-3.742-3.546-3.742V27.298
	c0-3.245,3.152-2.896,3.152-2.896c1.522-0.169,2.876,2.476,2.876,2.476l9,15.612V68.841z M34.363,58.738
	c-3.824,0-4.716-2.471-4.716-2.471L12.036,26.063c-0.85-1.661-2.132-2.009-2.132-2.009h14.429c2.798,0,3.731,2.292,3.731,2.292
	l18.463,31.476c0.348,0.917,0.948,0.876,0.948,0.917C47.465,58.769,34.363,58.738,34.363,58.738z M57.649,27.298v15.966
	l-8.376,13.352c-1.548,2.194-2.691,0-2.619,0c0.066,0-6.094-10.661-6.094-10.661l11.2-18.719c1.901-3.137,3.563-2.855,3.563-2.855
	C57.767,24.381,57.649,27.298,57.649,27.298z M90.11,27.298V65.74c0,3.382-3.266,3.101-3.266,3.101H58.638V27.375
	c0-2.691-1.84-3.321-1.84-3.321h30.046C90.176,24.053,90.11,27.298,90.11,27.298z"/>
</svg>
