<?xml version="1.0" encoding="utf-8"?>
<!-- Generator: Adobe Illustrator 16.0.0, SVG Export Plug-In . SVG Version: 6.00 Build 0)  -->
<!DOCTYPE svg PUBLIC "-//W3C//DTD SVG 1.1//EN" "http://www.w3.org/Graphics/SVG/1.1/DTD/svg11.dtd">
<svg version="1.1" id="Layer_1" xmlns="http://www.w3.org/2000/svg" xmlns:xlink="http://www.w3.org/1999/xlink" x="0px" y="0px"
	 width="96px" height="96px" viewBox="0 0 96 96" enable-background="new 0 0 96 96" xml:space="preserve">
<g>
	<path d="M48.927,58.093c-0.117-0.046-0.246-0.076-0.389-0.088c-0.143-0.013-0.32-0.019-0.532-0.019h-0.623v1.873h0.533
		c0.26,0,0.479-0.015,0.659-0.044c0.181-0.03,0.335-0.093,0.46-0.189c0.12-0.086,0.21-0.19,0.268-0.312
		c0.059-0.122,0.087-0.281,0.087-0.477c0-0.174-0.037-0.324-0.107-0.451C49.21,58.259,49.092,58.162,48.927,58.093z"/>
	<path d="M64.377,59.488c0.146-0.03,0.298-0.091,0.453-0.185c0.151-0.09,0.257-0.208,0.319-0.354
		c0.063-0.146,0.095-0.327,0.095-0.542c0-0.168-0.031-0.313-0.09-0.437c-0.061-0.123-0.156-0.221-0.288-0.292
		c-0.159-0.084-0.337-0.135-0.533-0.154c-0.195-0.019-0.467-0.028-0.811-0.028h-0.946v2.037h1.119
		C64.004,59.532,64.232,59.518,64.377,59.488z"/>
	<path d="M57.506,58.406c-0.159-0.19-0.34-0.326-0.54-0.409c-0.202-0.083-0.409-0.124-0.626-0.124c-0.228,0-0.436,0.038-0.621,0.114
		c-0.187,0.076-0.365,0.212-0.539,0.408c-0.151,0.181-0.274,0.421-0.37,0.72c-0.094,0.299-0.142,0.656-0.142,1.07
		c0,0.427,0.045,0.781,0.135,1.063c0.089,0.282,0.212,0.518,0.368,0.708c0.159,0.193,0.34,0.331,0.543,0.414
		c0.202,0.083,0.411,0.124,0.626,0.124c0.22,0,0.433-0.044,0.639-0.133c0.204-0.088,0.382-0.227,0.532-0.413
		c0.158-0.202,0.281-0.438,0.368-0.708c0.086-0.269,0.129-0.622,0.129-1.058c0-0.414-0.046-0.767-0.137-1.058
		C57.779,58.833,57.657,58.593,57.506,58.406z"/>
	<path d="M64.99,60.485c-0.156-0.078-0.326-0.127-0.511-0.149c-0.184-0.022-0.444-0.033-0.784-0.033h-1.119v2.569h0.801
		c0.432,0,0.771-0.019,1.021-0.056c0.248-0.038,0.468-0.117,0.656-0.239c0.187-0.121,0.321-0.258,0.409-0.414
		c0.085-0.153,0.128-0.353,0.128-0.599c0-0.262-0.04-0.478-0.119-0.647C65.394,60.747,65.231,60.604,64.99,60.485z"/>
	<path d="M88.799,12.708C88.75,5.471,84.974,1.733,77.801,1.725c-9.826-0.012-19.653-0.003-29.479-0.003c0-0.015,0-0.029,0-0.044
		c-1.782,0-3.563-0.001-5.346,0c-8.423,0.01-16.846-0.013-25.268,0.044C11.332,1.765,7.204,5.553,7.19,11.536
		c-0.05,20.625-0.055,41.25,0.013,61.875c0.02,6.239,4.137,10.151,10.37,10.167c4.633,0.012,9.266,0.025,13.899,0.006h5.107
		c0.036,5.937,4.857,10.739,10.803,10.739c5.946,0,10.768-4.802,10.804-10.739h5.244c4.251,0.023,8.502,0.019,12.753,0h0.285v-0.001
		c0.625-0.003,1.249-0.005,1.873-0.008c4.603-0.025,8.505-2.41,9.731-6.176c0.539-1.653,0.692-3.489,0.704-5.245
		c0.072-11.068,0.066-22.137,0.068-33.205C88.847,30.202,88.859,21.454,88.799,12.708z M30.395,63.661h-1.852v-4.61l-1.35,2.976
		h-1.27l-1.349-2.976v4.61h-1.752v-6.955h2.146l1.643,3.434l1.638-3.434h2.146V63.661z M23.028,53.485l0.008-24.859
		c0.295-6.082,4.699-10.489,10.468-11.82c5.365-1.238,10.763,1.144,13.996,6.178c0.141,0.218,0.283,0.436,0.522,0.805
		c0.325-0.505,0.57-0.889,0.82-1.271c3.182-4.868,9.051-7.089,14.551-5.506c5.508,1.585,9.453,6.574,9.523,12.318l0.027,24.159
		L59.7,53.485c0-2.866-0.003-5.624,0-8.223l-0.004-13.427c-0.295-1.323-1.292-2.046-2.677-1.998
		c-1.393,0.049-2.23,0.862-2.414,2.189l-0.004,21.43L41.436,53.45c0-2.912-0.002-5.55,0.001-8.188l-0.005-13.427
		c-0.295-1.323-1.291-2.046-2.676-1.998c-1.393,0.049-2.23,0.862-2.414,2.189l-0.005,21.438L23.028,53.485z M52.387,63.661h-2.271
		l-2.065-2.55h-0.668v2.55h-1.852v-6.955h2.982c0.411,0,0.769,0.024,1.074,0.072s0.588,0.149,0.847,0.302
		c0.265,0.158,0.477,0.36,0.632,0.604c0.156,0.245,0.234,0.555,0.234,0.932c0,0.533-0.127,0.964-0.383,1.296
		c-0.257,0.332-0.598,0.595-1.025,0.792L52.387,63.661z M37.273,58.033h-3.325v1.219h3.076v1.327h-3.076v1.756h3.325v1.326h-5.177
		v-6.955h5.177V58.033z M38.013,58.033v-1.327h6.406v1.327h-2.271v5.628h-1.862v-5.628H38.013z M47.383,91.032
		c-4.143,0-7.514-3.371-7.514-7.514s3.371-7.514,7.514-7.514c4.145,0,7.514,3.371,7.514,7.514S51.527,91.032,47.383,91.032z
		 M58.969,62.839c-0.641,0.644-1.518,0.967-2.634,0.967c-1.117,0-1.995-0.326-2.632-0.979c-0.637-0.653-0.956-1.533-0.956-2.642
		c0-1.118,0.319-2.001,0.956-2.651c0.637-0.649,1.515-0.973,2.632-0.973c1.116,0,1.993,0.323,2.634,0.969
		c0.641,0.646,0.961,1.532,0.961,2.656C59.93,61.311,59.609,62.195,58.969,62.839z M66.408,62.442
		c-0.14,0.264-0.326,0.482-0.563,0.654c-0.279,0.205-0.577,0.351-0.896,0.437c-0.318,0.085-0.73,0.128-1.234,0.128h-2.125v-6.955
		h1.965c0.528,0,0.924,0.016,1.188,0.049c0.264,0.033,0.516,0.11,0.759,0.231c0.266,0.134,0.459,0.309,0.582,0.525
		c0.124,0.217,0.184,0.472,0.184,0.765c0,0.327-0.092,0.619-0.276,0.877c-0.183,0.259-0.438,0.461-0.764,0.608v0.037
		c0.441,0.112,0.783,0.317,1.026,0.614c0.242,0.297,0.363,0.669,0.363,1.114C66.618,61.873,66.548,62.178,66.408,62.442z
		 M72.918,62.484c-0.118,0.265-0.282,0.489-0.495,0.673c-0.238,0.203-0.51,0.358-0.809,0.467c-0.301,0.109-0.677,0.164-1.128,0.164
		c-0.538,0-0.994-0.052-1.37-0.156c-0.377-0.104-0.732-0.233-1.063-0.386v-1.158h0.07c0.324,0.286,0.693,0.508,1.104,0.666
		s0.809,0.235,1.189,0.235c0.544,0,0.956-0.106,1.233-0.319c0.279-0.214,0.419-0.495,0.419-0.843c0-0.277-0.073-0.503-0.219-0.677
		s-0.378-0.304-0.697-0.387c-0.228-0.063-0.437-0.114-0.627-0.155c-0.188-0.04-0.426-0.095-0.712-0.163
		c-0.255-0.063-0.484-0.142-0.688-0.239c-0.201-0.097-0.381-0.222-0.536-0.378c-0.153-0.152-0.272-0.332-0.356-0.54
		c-0.084-0.207-0.127-0.445-0.127-0.717c0-0.564,0.233-1.037,0.702-1.417c0.468-0.382,1.064-0.573,1.792-0.573
		c0.414,0,0.807,0.04,1.176,0.117c0.37,0.079,0.713,0.188,1.028,0.332v1.107H72.73c-0.235-0.202-0.537-0.379-0.904-0.53
		c-0.369-0.151-0.756-0.227-1.16-0.227c-0.459,0-0.829,0.1-1.111,0.301c-0.281,0.2-0.422,0.465-0.422,0.792
		c0,0.296,0.083,0.53,0.248,0.705c0.167,0.174,0.407,0.302,0.723,0.383c0.209,0.053,0.465,0.113,0.766,0.18
		c0.302,0.067,0.554,0.128,0.753,0.185c0.511,0.146,0.884,0.368,1.12,0.663c0.234,0.296,0.354,0.661,0.354,1.093
		C73.096,61.952,73.035,62.22,72.918,62.484z"/>
</g>
</svg>
