<?xml version="1.0" encoding="utf-8"?>
<!-- Generator: Adobe Illustrator 16.0.0, SVG Export Plug-In . SVG Version: 6.00 Build 0)  -->
<!DOCTYPE svg PUBLIC "-//W3C//DTD SVG 1.1//EN" "http://www.w3.org/Graphics/SVG/1.1/DTD/svg11.dtd">
<svg version="1.1" id="Layer_2" xmlns="http://www.w3.org/2000/svg" xmlns:xlink="http://www.w3.org/1999/xlink" x="0px" y="0px"
	 width="96px" height="96px" viewBox="0 0 96 96" enable-background="new 0 0 96 96" xml:space="preserve">
<g>
	<path d="M30.318,54.831c10.104,7.923,25.581,7.37,35.5-0.622c8.955-7,13.125-19.49,9.905-30.469
		C72.463,9.617,57.089-0.193,42.856,2.616C28.691,4.353,17.474,18.155,18.622,32.347C18.587,41.138,23.045,49.854,30.318,54.831z
		 M44.216,6.007c13.406-2.188,27.242,8.525,28.678,21.965c2.598,14.643-10.637,29.703-25.533,28.937
		c-12.216,0.185-23.605-9.79-25.13-21.917C19.798,21.463,30.742,7.532,44.216,6.007z"/>
	<path d="M36.888,47.625c1.436-2.673,2.823-5.373,4.217-8.074c1.634,2.748,3.056,5.613,4.512,8.456
		c1.511-1.421,3.021-2.843,4.539-4.251c-4.061-7.486-6.125-15.833-6.549-24.33c1.928-0.048,3.862-0.089,5.791-0.13
		c0-1.805,0-3.609,0.006-5.414c-5.469,0-10.938,0.007-16.407,0c0,1.805,0.007,3.609,0.007,5.414
		c1.873,0.041,3.753,0.082,5.626,0.123c-0.629,8.565-1.942,17.268-6.597,24.665C33.641,45.28,35.254,46.47,36.888,47.625z"/>
	<path d="M62.353,46.545c0.062-10.753,0.068-21.5-0.014-32.246c-2.037,0.513-4.061,1.073-6.077,1.647
		c-0.034,10.761-0.048,21.521,0.034,32.288C58.313,47.666,60.329,47.092,62.353,46.545z"/>
	<path d="M77.043,46.855c-2.625,2.558-21.834,22.331-29.429,29.913C37.763,66.664,27.591,56.882,17.788,46.73
		c-5.77,0.007-11.54,0.062-17.309,0.198C16.53,62.289,31.891,78.347,47.785,93.865c15.491-16.113,31.85-31.337,47.737-47.047
		C77.031,46.856,95.52,46.806,77.043,46.855z"/>
</g>
</svg>
