<?xml version="1.0" encoding="utf-8"?>
<!-- Generator: Adobe Illustrator 16.0.4, SVG Export Plug-In . SVG Version: 6.00 Build 0)  -->
<!DOCTYPE svg PUBLIC "-//W3C//DTD SVG 1.1//EN" "http://www.w3.org/Graphics/SVG/1.1/DTD/svg11.dtd">
<svg version="1.1" id="Capa_1" xmlns="http://www.w3.org/2000/svg" xmlns:xlink="http://www.w3.org/1999/xlink" x="0px" y="0px"
	 width="25.493px" height="28.492px" viewBox="0 0 25.493 28.492" enable-background="new 0 0 25.493 28.492" xml:space="preserve">
<path d="M24.857,19.736c-0.073,0.029-0.151,0.062-0.229,0.089l-3.254-8.092l0.701-0.053l-0.002-0.498l-0.957-0.066l-0.056-0.044
	c-0.028-0.021-0.062-0.039-0.097-0.049l-0.127-0.026c-0.045,0-0.088,0.009-0.113,0.02l-0.072,0.004l-0.048,0.059l-6.961-0.504
	l0.002-0.127c0.001-0.983-0.065-4.194-0.898-4.194c-0.833,0-0.897,3.211-0.897,4.194l0.002,0.138L4.898,11.09l-0.019-0.016
	c-0.028-0.023-0.062-0.038-0.097-0.049l-0.127-0.026c-0.037,0-0.073,0.007-0.108,0.02l-0.071,0.004l-0.074,0.082l-0.846,0.082
	l-0.001,0.497l0.569,0.043L0.865,19.83c-0.078-0.029-0.155-0.059-0.229-0.09L0,19.459l0.313,0.62
	c0.65,1.292,2.396,2.157,4.342,2.157c1.945,0,3.69-0.865,4.344-2.156l0.314-0.621l-0.638,0.277c-0.073,0.033-0.15,0.062-0.229,0.092
	l-3.225-8.022l6.702,0.486c0.2,2.353,0.65,2.353,0.823,2.353c0.172,0,0.624,0,0.822-2.342l6.701-0.486l-3.224,8.012
	c-0.078-0.028-0.154-0.06-0.229-0.091l-0.637-0.277l0.313,0.621c0.65,1.291,2.396,2.157,4.344,2.157
	c1.945,0,3.688-0.866,4.343-2.158l0.312-0.62L24.857,19.736z M7.721,20.083c-1.943,0.606-4.188,0.606-6.131,0l3.064-7.617
	L7.721,20.083z M17.772,20.083l3.064-7.617l3.062,7.617C21.959,20.691,19.715,20.691,17.772,20.083z"/>
</svg>
