<?xml version="1.0" encoding="utf-8"?>
<!-- Generator: Adobe Illustrator 16.0.4, SVG Export Plug-In . SVG Version: 6.00 Build 0)  -->
<!DOCTYPE svg PUBLIC "-//W3C//DTD SVG 1.1//EN" "http://www.w3.org/Graphics/SVG/1.1/DTD/svg11.dtd">
<svg version="1.1" id="Layer_1" xmlns="http://www.w3.org/2000/svg" xmlns:xlink="http://www.w3.org/1999/xlink" x="0px" y="0px"
	 width="226.77px" height="155.91px" viewBox="0 0 226.77 155.91" enable-background="new 0 0 226.77 155.91" xml:space="preserve">
<g>
	<path d="M48.828,81.001h5.946l29.487,41.961c1.384,1.969,3.629,3.106,5.98,3.106c0.463,0,0.933-0.046,1.398-0.137
		c2.831-0.553,5.072-2.716,5.722-5.527l17.569-75.945h63.01c4.036,0,7.309-3.271,7.309-7.309c0-4.036-3.272-7.309-7.309-7.309
		h-68.82c-3.401,0-6.354,2.349-7.121,5.662l-15.189,65.66L64.551,69.489c-1.367-1.945-3.598-3.105-5.979-3.105h-9.744
		c-4.037,0-7.309,3.271-7.309,7.309C41.52,77.729,44.792,81.001,48.828,81.001z"/>
	<path d="M123.246,112.067c0,3.589,2.926,6.229,6.699,6.229c2.548,0,4.531-1.603,6.229-3.681l10.193-13.401l10.192,13.401
		c1.888,2.36,3.868,3.681,6.699,3.681c3.589,0,6.606-2.548,6.606-6.606c0-1.886-0.755-3.586-2.36-5.475l-12.646-14.533
		l12.271-14.346c1.133-1.416,1.98-2.926,1.98-4.909c0-3.589-2.926-6.231-6.702-6.231c-2.548,0-4.528,1.605-6.229,3.684
		l-9.533,12.455l-9.342-12.455c-1.889-2.361-3.869-3.684-6.699-3.684c-3.588,0-6.607,2.551-6.607,6.609
		c0,1.885,0.756,3.586,2.359,5.471l11.797,13.592l-12.93,15.289C124.001,108.575,123.246,110.085,123.246,112.067z"/>
</g>
</svg>
