<?xml version="1.0" encoding="utf-8"?>
<!-- Generator: Adobe Illustrator 16.0.4, SVG Export Plug-In . SVG Version: 6.00 Build 0)  -->
<!DOCTYPE svg PUBLIC "-//W3C//DTD SVG 1.1//EN" "http://www.w3.org/Graphics/SVG/1.1/DTD/svg11.dtd">
<svg version="1.1" id="Layer_1" xmlns="http://www.w3.org/2000/svg" xmlns:xlink="http://www.w3.org/1999/xlink" x="0px" y="0px"
	 width="226.77px" height="155.91px" viewBox="0 0 226.77 155.91" enable-background="new 0 0 226.77 155.91" xml:space="preserve">
<g>
	<path d="M54.918,101.555h3.713l23.387,30.344c1.391,1.809,3.534,2.848,5.788,2.848c0.263,0,0.533-0.014,0.799-0.043
		c2.533-0.277,4.741-1.859,5.822-4.168l44.314-94.755h33.109c4.037,0,7.309-3.272,7.309-7.308c0-4.037-3.271-7.309-7.309-7.309
		h-37.76c-2.838,0-5.418,1.642-6.621,4.212l-41.201,88.097L68.015,89.785c-1.381-1.795-3.521-2.848-5.788-2.848h-7.309
		c-4.036,0-7.308,3.271-7.308,7.309S50.882,101.555,54.918,101.555z"/>
</g>
</svg>
