<?xml version="1.0" encoding="utf-8"?>
<!-- Generator: Adobe Illustrator 16.0.4, SVG Export Plug-In . SVG Version: 6.00 Build 0)  -->
<!DOCTYPE svg PUBLIC "-//W3C//DTD SVG 1.1//EN" "http://www.w3.org/Graphics/SVG/1.1/DTD/svg11.dtd">
<svg version="1.1" id="Layer_1" xmlns="http://www.w3.org/2000/svg" xmlns:xlink="http://www.w3.org/1999/xlink" x="0px" y="0px"
	 width="50px" height="50px" viewBox="0 0 50 50" enable-background="new 0 0 50 50" xml:space="preserve">
<g>
	<path d="M34.677,22.606l-1.542-7.199H16.864l-1.542,7.199h-2.863v11.269h1.673v3.304h5v-3.304h11.736v3.304h5v-3.304h1.673V22.606
		H34.677z M17.537,28.436H14.12v-3.417h3.417V28.436z M28.727,29.239h-2.728v2.728h-2v-2.728h-2.727v-2h2.727v-2.726h2v2.726h2.728
		V29.239z M28.609,22.606c0.067-0.764,0.705-1.367,1.486-1.367c0.78,0,1.416,0.604,1.485,1.367H28.609z M30.096,20.238
		c-1.334,0-2.416,1.052-2.486,2.367H17.244l1.114-5.199h13.281l1.114,5.199H32.58C32.51,21.291,31.427,20.238,30.096,20.238z
		 M35.878,28.436h-3.417v-3.417h3.417V28.436z"/>
	<path d="M21.74,14.821h6.518c0.518,0,0.938-0.447,0.938-1c0-0.552-0.421-1-0.938-1H21.74c-0.518,0-0.938,0.448-0.938,1
		C20.802,14.374,21.223,14.821,21.74,14.821z"/>
</g>
</svg>
