<?xml version="1.0" encoding="utf-8"?>
<!-- Generator: Adobe Illustrator 16.0.4, SVG Export Plug-In . SVG Version: 6.00 Build 0)  -->
<!DOCTYPE svg PUBLIC "-//W3C//DTD SVG 1.1//EN" "http://www.w3.org/Graphics/SVG/1.1/DTD/svg11.dtd">
<svg version="1.1" id="Layer_1" xmlns="http://www.w3.org/2000/svg" xmlns:xlink="http://www.w3.org/1999/xlink" x="0px" y="0px"
	 width="50px" height="50px" viewBox="0 0 50 50" enable-background="new 0 0 50 50" xml:space="preserve">
<path d="M17.043,26.072h-4.72v-5.184h4.72V26.072z M38.361,30.168h0.68v2h-0.68v1.492h-2.514c-0.304,1.145-1.339,1.994-2.578,1.994
	c-1.237,0-2.272-0.85-2.576-1.994h-8.471v-1.492h-0.369v1.311h-2.767c-0.235,1.236-1.321,2.176-2.626,2.176
	s-2.391-0.938-2.625-2.176h-3.327v-1.311H9.705v-2h0.803V19.031h11.345v11.137h0.369v-3.066h8.069v-1.117l-0.844-0.002l-6.438-5.682
	l2.263-5.955l8.584,0.021l6.438,5.684l-2.262,5.955L35.912,26v1.102h2.447v3.066H38.361z M18.138,32.979
	c0-0.924-0.752-1.676-1.677-1.676c-0.924,0-1.676,0.752-1.676,1.676s0.752,1.676,1.676,1.676
	C17.386,34.654,18.138,33.902,18.138,32.979z M20.854,20.031h-9.345v12.447h2.327c0.234-1.238,1.32-2.177,2.625-2.177
	s2.391,0.938,2.626,2.177h1.767V20.031z M37.345,25.004l1.771-4.662l-5.636-4.975l-7.517-0.02l-1.771,4.661l5.636,4.976
	L37.345,25.004z M34.947,32.979c0-0.924-0.752-1.676-1.678-1.676c-0.924,0-1.676,0.752-1.676,1.676s0.752,1.676,1.676,1.676
	C34.195,34.654,34.947,33.902,34.947,32.979z M37.361,28.102H23.222v4.56h7.404c0.16-1.324,1.276-2.356,2.644-2.356
	s2.485,1.032,2.646,2.356h1.446V28.102z"/>
</svg>
