<?xml version="1.0" encoding="utf-8"?>
<!-- Generator: Adobe Illustrator 16.0.0, SVG Export Plug-In . SVG Version: 6.00 Build 0)  -->
<!DOCTYPE svg PUBLIC "-//W3C//DTD SVG 1.1//EN" "http://www.w3.org/Graphics/SVG/1.1/DTD/svg11.dtd">
<svg version="1.1" id="Layer_1" xmlns="http://www.w3.org/2000/svg" xmlns:xlink="http://www.w3.org/1999/xlink" x="0px" y="0px"
	 width="96px" height="96px" viewBox="0 0 96 96" enable-background="new 0 0 96 96" xml:space="preserve">
<g>
	<path d="M21.049,31.416h9.287v3.178h-9.287v3.29h12.604V21.134H21.049V31.416z M24.311,24.423h5.97v3.647h-5.97V24.423z"/>
	<path d="M62.545,34.566h-5.474V21.134h-3.316v6.96L41.98,28.099v-6.965h-3.316v13.432h-4.312v3.317h7.545v-6.385h11.774v6.385
		h21.476V21.134H62.545V34.566z M65.861,24.422h5.97v10.116h-5.97V24.422z"/>
	<rect x="43.142" y="16.968" width="3.482" height="3.482"/>
	<rect x="49.567" y="16.968" width="3.483" height="3.482"/>
	<polygon points="60.275,38.579 47.996,50.853 35.725,38.579 18.364,38.579 18.426,77.711 37.912,77.711 37.866,77.665 
		37.884,77.665 37.884,66.088 47.996,76.104 58.202,66.011 58.202,77.642 58.199,77.642 58.173,77.668 58.111,77.674 58.168,77.674 
		58.129,77.711 77.629,77.711 77.636,38.579 	"/>
	<path d="M81.498,34.125V14.502H61.875L48,0.626L34.125,14.502H14.502v19.623L0.627,48l13.875,13.875v19.623h19.623L48,95.374
		l13.875-13.875h19.623V61.875L95.373,48L81.498,34.125z M78.955,56.844v22.194H56.797L48,87.8l-8.762-8.761H17.1V56.9L8.2,48
		l11.657-11.657V19.857h16.485L48,8.2l11.657,11.657h16.485v16.485L87.8,48L78.955,56.844z"/>
</g>
</svg>
