<?xml version="1.0" encoding="utf-8"?>
<!-- Generator: Adobe Illustrator 16.0.0, SVG Export Plug-In . SVG Version: 6.00 Build 0)  -->
<!DOCTYPE svg PUBLIC "-//W3C//DTD SVG 1.1//EN" "http://www.w3.org/Graphics/SVG/1.1/DTD/svg11.dtd">
<svg version="1.1" id="Layer_1" xmlns="http://www.w3.org/2000/svg" xmlns:xlink="http://www.w3.org/1999/xlink" x="0px" y="0px"
	 width="96px" height="96px" viewBox="0 0 96 96" enable-background="new 0 0 96 96" xml:space="preserve">
<g>
	<path d="M66.899,12.831c-7.192-1.516-14.898-1.389-22.168-0.525c-8.132,0.961-15.549,3.992-20.579,10.703
		c-5.34,7.127-7,16.225-7.658,24.916c-0.295,11.707,4.129,21.789,11.268,29.238c7.172,7.484,21.415,10.607,29.004,1.902
		c6.977-8.002,2.98-19.313,4.843-28.689c2.113-10.639,16.436-14.898,17.834-25.775C80.367,17.415,72.643,14.042,66.899,12.831z
		 M73.288,25.392c-2.156,4.701-7.021,8.266-10.434,12.023c-3.733,4.113-6.62,8.566-7.219,14.16c-1.089-0.654-2.36-1.037-3.723-1.037
		c-4.007,0-7.255,3.248-7.255,7.256c0,4.006,3.248,7.254,7.255,7.254c1.25,0,2.425-0.316,3.452-0.873
		c-0.026,0.916-0.064,1.83-0.139,2.742c-0.345,4.197-1.692,8.832-5.935,10.576c-5.146,2.113-10.806,0.736-15.165-2.395
		c-7.792-5.596-12.26-16.373-11.879-26.65c0.007-0.057,0.016-0.111,0.021-0.168c0.822-11.313,3.961-24.291,15.781-28.662
		c4.451-1.643,9.341-1.893,14.05-2.043c5.21-0.166,10.537,0.039,15.589,1.408C70.613,19.776,75.001,21.653,73.288,25.392z"/>
	<path d="M89.551,19.783c-0.093-1.23-1.17-2.152-2.398-2.059c-0.589,0.045-1.104,0.319-1.474,0.724
		c-0.748-2.277-2.085-4.348-3.947-6.145c0.068,0.007,0.137,0.017,0.206,0.017c0.64,0,1.276-0.272,1.717-0.802
		c0.791-0.947,0.664-2.357-0.283-3.149c-0.537-0.446-1.112-0.882-1.709-1.289c-1.019-0.696-2.41-0.436-3.107,0.584
		c-0.417,0.609-0.483,1.351-0.258,1.997c-2.097-1.294-4.568-2.356-7.374-3.145c0.495-0.309,0.873-0.806,1.004-1.422
		c0.259-1.207-0.51-2.395-1.717-2.653l-0.086-0.018c-0.646-0.138-1.3-0.264-1.964-0.38c-1.218-0.22-2.375,0.598-2.589,1.812
		c-0.101,0.573,0.031,1.129,0.32,1.585c-2.519-0.41-5.167-0.671-7.92-0.781c0.321-0.382,0.523-0.867,0.528-1.405
		c0.012-1.233-0.98-2.245-2.214-2.256c-0.654-0.006-1.312-0.005-1.978,0.003c-1.234,0.018-2.222,1.031-2.205,2.267
		c0.007,0.52,0.198,0.988,0.5,1.364c-2.527,0.07-5.162,0.259-7.866,0.554c0.239-0.413,0.355-0.901,0.287-1.409
		c-0.165-1.226-1.291-2.082-2.513-1.917c-0.673,0.089-1.335,0.191-1.989,0.305c-1.217,0.21-2.032,1.368-1.821,2.584
		c0.088,0.506,0.342,0.935,0.692,1.258c-2.609,0.548-5.052,1.295-7.327,2.239c0.102-0.467,0.063-0.969-0.158-1.434
		c-0.532-1.115-1.866-1.586-2.981-1.054c-0.613,0.293-1.228,0.605-1.824,0.932c-1.083,0.592-1.483,1.948-0.891,3.032
		c0.243,0.447,0.618,0.773,1.048,0.967c-2.16,1.324-4.121,2.877-5.883,4.647c-0.105-0.44-0.338-0.855-0.708-1.175
		c-0.933-0.807-2.345-0.705-3.153,0.228c-0.449,0.519-0.886,1.057-1.301,1.599c-0.75,0.98-0.564,2.384,0.416,3.133
		c0.362,0.279,0.783,0.42,1.208,0.449c-1.468,2.083-2.685,4.257-3.682,6.477c-0.239-0.299-0.55-0.545-0.933-0.693
		c-1.154-0.444-2.446,0.13-2.89,1.283c-0.243,0.629-0.471,1.262-0.687,1.895c-0.398,1.168,0.226,2.439,1.394,2.836
		c0.239,0.083,0.483,0.121,0.722,0.121c0.124,0,0.245-0.011,0.366-0.032c-0.744,2.429-1.292,4.857-1.703,7.224
		c-0.278-0.194-0.598-0.336-0.957-0.388c-1.223-0.177-2.355,0.672-2.531,1.894c-0.095,0.659-0.182,1.313-0.261,1.96
		c-0.15,1.226,0.723,2.34,1.948,2.489c0.091,0.012,0.183,0.016,0.273,0.016c0.26,0,0.51-0.048,0.745-0.132
		C9.551,45.45,9.468,46.365,9.4,47.25c-0.056,0.425-0.083,0.842-0.083,1.27c0.002,1.119,0.059,2.237,0.14,3.355
		c-0.329-0.132-0.689-0.195-1.065-0.154c-1.227,0.138-2.112,1.241-1.975,2.468c0.074,0.666,0.16,1.332,0.259,1.996
		c0.166,1.108,1.119,1.904,2.208,1.904c0.111,0,0.222-0.008,0.333-0.023c0.377-0.057,0.71-0.213,0.996-0.424
		c0.469,2.435,1.12,4.834,1.938,7.17c-0.365-0.052-0.748-0.023-1.116,0.117c-1.153,0.445-1.727,1.738-1.284,2.891
		c0.241,0.625,0.493,1.247,0.756,1.861c0.363,0.85,1.188,1.358,2.056,1.358c0.293,0,0.591-0.059,0.878-0.183
		c0.382-0.162,0.687-0.424,0.916-0.735c1.094,2.269,2.347,4.444,3.757,6.492c-0.41,0.026-0.818,0.162-1.174,0.424
		c-0.996,0.729-1.212,2.128-0.481,3.124c0.398,0.544,0.808,1.078,1.226,1.604c0.442,0.555,1.092,0.843,1.75,0.843
		c0.488,0,0.979-0.16,1.392-0.488c0.369-0.294,0.617-0.683,0.744-1.102c0.351,0.394,0.7,0.79,1.063,1.169
		c1.359,1.42,2.894,2.703,4.553,3.833c-0.459,0.166-0.872,0.474-1.148,0.923c-0.647,1.051-0.319,2.428,0.732,3.074
		c0.579,0.355,1.18,0.701,1.787,1.027c0.336,0.179,0.698,0.265,1.054,0.265c0.798,0,1.569-0.429,1.972-1.18
		c0.26-0.486,0.313-1.022,0.205-1.522c2.333,1.07,4.793,1.861,7.288,2.331c-0.386,0.347-0.659,0.821-0.729,1.376
		c-0.154,1.227,0.714,2.344,1.939,2.498c0.692,0.087,1.389,0.149,2.07,0.19c0.044,0.002,0.087,0.003,0.13,0.003
		c1.176,0,2.162-0.918,2.23-2.106c0.031-0.542-0.142-1.044-0.441-1.448c0.017,0,0.033,0.001,0.049,0.001h0.002
		c2.542,0,4.979-0.369,7.256-1.074c-0.087,0.439-0.048,0.907,0.148,1.348c0.371,0.83,1.186,1.323,2.041,1.323
		c0.305,0,0.615-0.063,0.911-0.194c0.644-0.288,1.283-0.61,1.899-0.952c1.078-0.602,1.465-1.963,0.864-3.041
		c-0.19-0.341-0.463-0.605-0.772-0.798c1.816-1.126,3.466-2.511,4.896-4.151c0.141-0.16,0.275-0.326,0.41-0.489
		c0.147,0.16,0.313,0.308,0.511,0.421c0.353,0.205,0.738,0.303,1.117,0.303c0.772,0,1.523-0.401,1.938-1.117
		c0.353-0.609,0.683-1.241,0.981-1.881c0.522-1.117,0.041-2.448-1.079-2.972c-0.071-0.033-0.146-0.05-0.218-0.076
		c0.977-2.258,1.556-4.581,1.893-6.888c1.13-0.055,2.061-0.951,2.123-2.105c0.036-0.67,0.059-1.337,0.073-2.001
		c0.022-1.085-0.733-2.005-1.754-2.228c0.015-1.391-0.008-2.745-0.031-4.04c-0.019-1.072-0.035-2.123-0.034-3.148
		c0.993-0.184,1.768-1.025,1.824-2.077c0.035-0.645,0.081-1.231,0.143-1.795c0.116-1.047-0.516-2.001-1.465-2.343
		c0.468-2.028,1.867-3.93,3.663-5.826c0.277,0.12,0.573,0.182,0.871,0.182c0.581,0,1.161-0.225,1.598-0.673
		c0.426-0.437,0.868-0.871,1.321-1.306c0.661-0.634,0.844-1.575,0.548-2.383c1.711-1.608,3.525-3.374,5.151-5.382
		c0.293,0.134,0.604,0.206,0.917,0.206c0.646,0,1.287-0.278,1.729-0.815c0.449-0.548,0.874-1.098,1.263-1.637
		c0.722-1,0.497-2.398-0.505-3.12c0,0-0.001-0.002-0.002-0.003c0.816-1.763,1.421-3.687,1.694-5.808
		c0.044-0.346,0.073-0.688,0.095-1.027c0.259,0.129,0.545,0.208,0.851,0.229c0.047,0.002,0.094,0.003,0.141,0.003
		c1.17,0,2.155-0.912,2.229-2.097c0.021-0.342,0.032-0.684,0.032-1.021C89.597,20.592,89.582,20.184,89.551,19.783z M82.573,24.438
		c-0.853,6.623-5.477,10.94-9.949,15.116c-3.814,3.557-7.417,6.919-8.308,11.401c-0.609,3.064-0.55,6.407-0.488,9.948
		c0.125,7.122,0.254,14.487-5.051,20.571c-3.524,4.044-8.656,6.27-14.45,6.27h-0.002c-6.93,0-14.217-3.112-19.017-8.121
		c-7.669-8.003-12.04-19.635-12.255-31.11c-0.115-6.139,2.167-19.318,8.362-27.587c5.054-6.741,12.726-10.766,22.804-11.96
		C47.95,8.523,51.544,8.3,54.903,8.3c4.589,0,8.9,0.418,12.812,1.242C77.787,11.665,83.48,17.373,82.573,24.438z"/>
	<circle cx="37.266" cy="37.82" r="7.255"/>
</g>
</svg>
