<?xml version="1.0" encoding="utf-8"?>
<!-- Generator: Adobe Illustrator 17.0.0, SVG Export Plug-In . SVG Version: 6.00 Build 0)  -->
<!DOCTYPE svg PUBLIC "-//W3C//DTD SVG 1.1//EN" "http://www.w3.org/Graphics/SVG/1.1/DTD/svg11.dtd">
<svg version="1.1" id="Capa_1" xmlns="http://www.w3.org/2000/svg" xmlns:xlink="http://www.w3.org/1999/xlink" x="0px" y="0px"
	 width="13.75px" height="18.237px" viewBox="0 0 13.75 18.237" enable-background="new 0 0 13.75 18.237" xml:space="preserve">
<path d="M8.402,5.465L1.818,3.471l9.657-0.16l2.235,4.67L9.082,8.219L8.402,5.465z M9.479,3.194c0.882,0,1.597-0.715,1.597-1.597
	C11.076,0.715,10.361,0,9.479,0S7.882,0.715,7.882,1.597C7.882,2.479,8.597,3.194,9.479,3.194z M9,8.42l-1.316,9.817l3.432-6.186
	l1.637,5.985l0.997-9.737L9,8.42z M7.948,9.642h-0.39c-0.384,2.705-0.769,5.412-1.155,8.115l-0.038,0.275l-0.273-0.033
	c-0.659-0.076-1.299-0.113-1.942-0.113c-0.641,0-1.285,0.037-1.942,0.113l-0.274,0.033l-0.039-0.275
	c-0.384-2.703-0.77-5.41-1.155-8.115H0.352C0.156,9.642,0,9.444,0,9.204c0-0.242,0.157-0.441,0.352-0.441h7.6
	c0.196,0,0.353,0.199,0.353,0.441C8.305,9.444,8.147,9.641,7.948,9.642z M1.43,10.456c0.314-0.035,0.625-0.063,0.936-0.086
	c-0.018-0.243-0.034-0.485-0.052-0.729h-1C1.354,9.913,1.393,10.186,1.43,10.456z M1.633,11.85c0.276-0.031,0.557-0.058,0.835-0.076
	c-0.022-0.279-0.04-0.559-0.061-0.838c-0.297,0.021-0.596,0.049-0.895,0.084C1.55,11.295,1.59,11.573,1.633,11.85z M2.566,13.171
	c-0.02-0.277-0.039-0.555-0.06-0.83c-0.265,0.019-0.529,0.043-0.795,0.072c0.037,0.275,0.076,0.551,0.116,0.824
	C2.072,13.21,2.319,13.188,2.566,13.171z M2.024,14.628c0.214-0.024,0.427-0.043,0.64-0.059c-0.021-0.277-0.039-0.555-0.06-0.834
	c-0.231,0.019-0.464,0.039-0.697,0.064C1.946,14.077,1.984,14.35,2.024,14.628z M2.223,16.018C2.404,16,2.584,15.985,2.764,15.971
	c-0.021-0.279-0.04-0.559-0.061-0.838c-0.199,0.016-0.399,0.035-0.599,0.055C2.145,15.465,2.183,15.743,2.223,16.018z M2.862,17.366
	c-0.02-0.275-0.039-0.553-0.059-0.828c-0.166,0.014-0.333,0.027-0.5,0.045c0.04,0.271,0.078,0.549,0.116,0.824
	C2.568,17.391,2.715,17.377,2.862,17.366z M2.933,10.334c0.312-0.015,0.624-0.025,0.936-0.031c0-0.22,0-0.439-0.001-0.662H2.884
	C2.9,9.873,2.916,10.102,2.933,10.334z M3.032,11.736c0.279-0.013,0.559-0.021,0.837-0.023c0-0.281,0-0.56,0-0.842
	c-0.299,0.004-0.597,0.013-0.896,0.027C2.992,11.177,3.012,11.457,3.032,11.736z M3.132,13.133c0.247-0.009,0.493-0.017,0.737-0.021
	c0-0.277,0-0.557,0-0.832c-0.266,0.002-0.53,0.009-0.797,0.023C3.094,12.58,3.112,12.858,3.132,13.133z M3.23,14.534
	c0.213-0.012,0.426-0.016,0.639-0.02c0-0.279,0-0.556-0.002-0.834c-0.231,0.002-0.465,0.01-0.696,0.02
	C3.19,13.979,3.21,14.257,3.23,14.534z M3.869,16.489c-0.166,0.002-0.333,0.008-0.499,0.016c0.02,0.275,0.039,0.553,0.06,0.83
	c0.145-0.008,0.293-0.01,0.439-0.012C3.869,17.044,3.869,16.766,3.869,16.489z M3.87,15.082c-0.201,0.002-0.399,0.01-0.599,0.018
	l0.058,0.836c0.182-0.006,0.361-0.012,0.54-0.016C3.869,15.641,3.869,15.362,3.87,15.082z M4.936,16.505
	c-0.167-0.008-0.332-0.014-0.499-0.016c0,0.277,0,0.555,0,0.834c0.147,0.002,0.293,0.004,0.44,0.012
	C4.897,17.057,4.916,16.78,4.936,16.505z M5.037,15.1c-0.201-0.008-0.4-0.016-0.6-0.018c0,0.279,0,0.559,0,0.838
	c0.18,0.004,0.359,0.01,0.539,0.016L5.037,15.1z M5.134,13.7c-0.232-0.01-0.466-0.018-0.698-0.02c0,0.277,0,0.555,0,0.834
	c0.213,0.004,0.426,0.008,0.64,0.02C5.096,14.256,5.115,13.979,5.134,13.7z M5.234,12.303c-0.267-0.013-0.531-0.021-0.797-0.023
	c0,0.275,0,0.553,0,0.832c0.246,0.003,0.492,0.011,0.738,0.021C5.194,12.858,5.214,12.581,5.234,12.303z M5.332,10.899
	c-0.299-0.013-0.597-0.023-0.896-0.027v0.842c0.279,0.002,0.558,0.009,0.838,0.023C5.293,11.458,5.313,11.178,5.332,10.899z
	 M5.422,9.642H4.436c0,0.223,0,0.441,0,0.662c0.314,0.006,0.625,0.015,0.937,0.031C5.389,10.102,5.405,9.874,5.422,9.642z
	 M6.005,16.583c-0.167-0.018-0.334-0.031-0.499-0.045c-0.022,0.275-0.04,0.553-0.061,0.828c0.146,0.012,0.294,0.025,0.44,0.041
	C5.926,17.131,5.964,16.854,6.005,16.583z M6.202,15.188c-0.201-0.02-0.401-0.039-0.6-0.055c-0.02,0.279-0.038,0.559-0.059,0.838
	c0.18,0.014,0.358,0.029,0.539,0.047C6.122,15.741,6.161,15.465,6.202,15.188z M6.398,13.798c-0.232-0.025-0.466-0.044-0.698-0.064
	c-0.019,0.279-0.038,0.555-0.058,0.834c0.212,0.016,0.425,0.036,0.638,0.059C6.32,14.35,6.359,14.077,6.398,13.798z M6.599,12.413
	c-0.268-0.029-0.532-0.052-0.797-0.072c-0.021,0.275-0.038,0.553-0.059,0.83c0.244,0.017,0.489,0.039,0.736,0.066
	C6.518,12.963,6.557,12.688,6.599,12.413z M6.796,11.02c-0.3-0.035-0.599-0.063-0.896-0.084c-0.021,0.279-0.039,0.559-0.059,0.838
	c0.276,0.017,0.557,0.045,0.836,0.076C6.716,11.573,6.755,11.295,6.796,11.02z M6.991,9.641H5.99
	c-0.016,0.245-0.033,0.487-0.051,0.729c0.313,0.023,0.623,0.051,0.936,0.086C6.913,10.186,6.951,9.913,6.991,9.641z M5.769,7.661
	l0.319-1.795H3.734L2.018,4.987L1.739,7.342l1.715,0.481L5.769,7.661z"/>
</svg>
