<?xml version="1.0" encoding="utf-8"?>
<!-- Generator: Adobe Illustrator 16.0.4, SVG Export Plug-In . SVG Version: 6.00 Build 0)  -->
<!DOCTYPE svg PUBLIC "-//W3C//DTD SVG 1.1//EN" "http://www.w3.org/Graphics/SVG/1.1/DTD/svg11.dtd">
<svg version="1.1" id="Layer_1" xmlns="http://www.w3.org/2000/svg" xmlns:xlink="http://www.w3.org/1999/xlink" x="0px" y="0px"
	 width="50px" height="50px" viewBox="0 0 50 50" enable-background="new 0 0 50 50" xml:space="preserve">
<path d="M30.969,18.146c-0.745-0.413-1.591-0.632-2.445-0.632c-1.327,0-2.584,0.513-3.525,1.423c-0.943-0.91-2.2-1.423-3.525-1.423
	c-0.854,0-1.7,0.219-2.445,0.631c-1.621,0.893-2.628,2.596-2.628,4.445c0,0.537,0.086,1.065,0.239,1.521
	c0.817,3.691,7.797,8.111,8.095,8.299c0.081,0.051,0.173,0.075,0.266,0.075s0.185-0.024,0.266-0.075
	c0.298-0.188,7.274-4.604,8.08-8.249c0.17-0.509,0.256-1.036,0.256-1.568C33.599,20.744,32.59,19.04,30.969,18.146z M32.38,23.896
	c-0.646,2.915-6.105,6.655-7.383,7.495c-1.277-0.84-6.739-4.584-7.396-7.545c-0.135-0.402-0.202-0.824-0.202-1.254
	c0-1.485,0.809-2.853,2.11-3.569c0.6-0.332,1.277-0.507,1.963-0.507c1.218,0,2.361,0.538,3.142,1.477
	c0.095,0.114,0.235,0.181,0.385,0.181s0.29-0.066,0.385-0.182c0.777-0.938,1.922-1.476,3.142-1.476c0.686,0,1.363,0.175,1.962,0.507
	c1.304,0.718,2.113,2.086,2.113,3.571C32.599,23.018,32.529,23.438,32.38,23.896z M27.997,25c0,0.276-0.224,0.5-0.5,0.5h-2v2
	c0,0.276-0.224,0.5-0.5,0.5s-0.5-0.224-0.5-0.5v-2h-2c-0.276,0-0.5-0.224-0.5-0.5s0.224-0.5,0.5-0.5h2v-2c0-0.276,0.224-0.5,0.5-0.5
	s0.5,0.224,0.5,0.5v2h2C27.773,24.5,27.997,24.725,27.997,25z"/>
</svg>
