<?xml version="1.0" encoding="utf-8"?>
<!-- Generator: Adobe Illustrator 16.0.4, SVG Export Plug-In . SVG Version: 6.00 Build 0)  -->
<!DOCTYPE svg PUBLIC "-//W3C//DTD SVG 1.1//EN" "http://www.w3.org/Graphics/SVG/1.1/DTD/svg11.dtd">
<svg version="1.1" id="Layer_1" xmlns="http://www.w3.org/2000/svg" xmlns:xlink="http://www.w3.org/1999/xlink" x="0px" y="0px"
	 width="50px" height="50px" viewBox="0 0 50 50" enable-background="new 0 0 50 50" xml:space="preserve">
<path d="M32.777,22.767c-0.574-0.319-1.221-0.469-1.87-0.473v-3.512c0-0.276-0.224-0.5-0.5-0.5h-2.863
	c-0.094-1.286-0.657-2.188-1.418-2.188c-0.76,0-1.324,0.901-1.418,2.188h-3.352c-0.094-1.286-0.658-2.188-1.418-2.188
	c-0.76,0-1.324,0.901-1.418,2.188h-2.863c-0.276,0-0.5,0.224-0.5,0.5v11.75c0,0.276,0.224,0.5,0.5,0.5h8.596
	c1.662,1.534,3.522,2.717,3.655,2.799c0.082,0.051,0.174,0.076,0.266,0.076s0.186-0.025,0.266-0.076
	c0.229-0.143,5.582-3.533,6.201-6.343c0.135-0.399,0.202-0.813,0.202-1.231C34.843,24.805,34.051,23.466,32.777,22.767z
	 M26.109,17.091c0.111,0.043,0.353,0.465,0.424,1.19h-0.814C25.789,17.557,26.027,17.134,26.109,17.091z M19.921,17.091
	c0.111,0.043,0.353,0.465,0.424,1.19h-0.814C19.602,17.557,19.84,17.134,19.921,17.091z M16.157,19.282h2.386
	c0.145,1.15,0.686,1.938,1.396,1.938c0.276,0,0.508-0.223,0.508-0.499c0-0.276-0.215-0.499-0.491-0.499
	c-0.098-0.038-0.308-0.36-0.404-0.939h5.179c0.145,1.15,0.686,1.938,1.396,1.938c0.275,0,0.508-0.223,0.508-0.499
	s-0.215-0.499-0.49-0.499c-0.099-0.038-0.309-0.36-0.404-0.939h4.168v3.129c-0.641,0.154-1.245,0.452-1.733,0.898
	c-1.216-1.111-3.141-1.353-4.604-0.544c-0.448,0.247-0.832,0.575-1.146,0.957v-1.315h-2v2h1.549c-0.165,0.313-0.287,0.649-0.364,1
	h-1.185v2h1.263c0.003,0.01,0.004,0.021,0.007,0.03c0.188,0.853,0.799,1.749,1.564,2.595h-7.101L16.157,19.282L16.157,19.282z
	 M33.68,27.222c-0.427,1.922-3.896,4.536-5.506,5.592c-1.609-1.056-5.079-3.671-5.518-5.644c-0.098-0.293-0.148-0.602-0.148-0.916
	c0-1.086,0.592-2.088,1.544-2.612c0.439-0.243,0.937-0.371,1.438-0.371c0.891,0,1.729,0.394,2.299,1.081
	c0.189,0.229,0.58,0.229,0.77,0c0.892-1.074,2.521-1.385,3.735-0.71c0.956,0.526,1.549,1.527,1.549,2.614
	C33.843,26.565,33.792,26.873,33.68,27.222z M33.004,26.803c0,0.309-0.05,0.615-0.148,0.91c-0.069,0.211-0.265,0.344-0.475,0.344
	c-0.052,0-0.105-0.01-0.158-0.025c-0.262-0.088-0.404-0.371-0.316-0.633c0.064-0.193,0.098-0.395,0.098-0.596
	c0-0.709-0.387-1.361-1.01-1.704c-0.286-0.159-0.608-0.242-0.936-0.242c-0.276,0-0.5-0.224-0.5-0.5s0.224-0.5,0.5-0.5
	c0.496,0,0.987,0.127,1.42,0.367C32.418,24.741,33.004,25.729,33.004,26.803z M17.548,22.407h2v2h-2V22.407z M17.548,25.407h2v2h-2
	V25.407z"/>
</svg>
