<?xml version="1.0" encoding="utf-8"?>
<!-- Generator: Adobe Illustrator 16.0.4, SVG Export Plug-In . SVG Version: 6.00 Build 0)  -->
<!DOCTYPE svg PUBLIC "-//W3C//DTD SVG 1.1//EN" "http://www.w3.org/Graphics/SVG/1.1/DTD/svg11.dtd">
<svg version="1.1" id="Layer_1" xmlns="http://www.w3.org/2000/svg" xmlns:xlink="http://www.w3.org/1999/xlink" x="0px" y="0px"
	 width="50px" height="50px" viewBox="0 0 50 50" enable-background="new 0 0 50 50" xml:space="preserve">
<path d="M29.662,25.876c0,0.275-0.223,0.5-0.5,0.5H26.1c-0.25,0-0.461-0.184-0.493-0.432l-0.541-3.885l-1.093,9.996
	c-0.026,0.236-0.217,0.424-0.457,0.442c-0.014,0.001-0.026,0.002-0.041,0.002c-0.223,0-0.42-0.147-0.479-0.364l-1.629-5.793
	l-1.604,3.047c-0.096,0.184-0.297,0.295-0.502,0.264c-0.207-0.024-0.375-0.174-0.426-0.375l-0.781-3.121h-3.766
	c-0.275,0-0.5-0.225-0.5-0.5c0-0.276,0.225-0.5,0.5-0.5h4.156c0.229,0,0.43,0.156,0.485,0.379l0.558,2.229l1.578-2.996
	c0.094-0.183,0.291-0.293,0.493-0.266c0.203,0.021,0.373,0.165,0.431,0.361l1.27,4.519l1.252-11.438
	c0.027-0.25,0.236-0.44,0.49-0.444c0.281,0.024,0.467,0.183,0.502,0.433l1.033,7.442h2.627
	C29.439,25.376,29.662,25.601,29.662,25.876z M32.307,25.376h-1.582c-0.274,0-0.5,0.225-0.5,0.5s0.226,0.5,0.5,0.5h1.582
	c0.275,0,0.5-0.225,0.5-0.5S32.582,25.376,32.307,25.376z M35.713,25.376h-1.682c-0.275,0-0.5,0.225-0.5,0.5s0.225,0.5,0.5,0.5
	h1.682c0.275,0,0.5-0.225,0.5-0.5S35.988,25.376,35.713,25.376z"/>
</svg>
