<?xml version="1.0" encoding="utf-8"?>
<!-- Generator: Adobe Illustrator 16.0.4, SVG Export Plug-In . SVG Version: 6.00 Build 0)  -->
<!DOCTYPE svg PUBLIC "-//W3C//DTD SVG 1.1//EN" "http://www.w3.org/Graphics/SVG/1.1/DTD/svg11.dtd">
<svg version="1.1" id="Layer_1" xmlns="http://www.w3.org/2000/svg" xmlns:xlink="http://www.w3.org/1999/xlink" x="0px" y="0px"
	 width="226.77px" height="155.91px" viewBox="0 0 226.77 155.91" enable-background="new 0 0 226.77 155.91" xml:space="preserve">
<g>
	<path d="M154.709,107.784c-2.75,0-4.988,2.239-4.988,4.989v4.007c-0.04,0-0.118,0-0.157,0l0,0l-44.232-0.078
		c0.118-0.236,0.196-0.433,0.314-0.668c0.354-0.903-0.079-1.965-0.982-2.318s-1.964,0.079-2.318,0.982
		c-0.275,0.668-0.589,1.336-0.982,2.004h-18.58l14.377-17.167c0.707,0.511,1.571,1.257,2.475,2.2c0.354,0.393,0.825,0.55,1.296,0.55
		c0.432,0,0.864-0.157,1.218-0.472c0.707-0.667,0.747-1.807,0.079-2.514c-0.982-1.061-1.964-1.886-2.789-2.514l49.731-56.645
		l2.004,2.003c0.981,0.982,2.239,1.454,3.496,1.454s2.553-0.471,3.496-1.454c1.925-1.925,1.925-5.106,0-7.031l-11.392-11.392
		c-1.925-1.925-5.107-1.925-7.032,0s-1.925,5.106,0,7.031l2.357,2.317l-73.851,85.281c-1.257,1.492-1.532,3.574-0.707,5.343
		c0.825,1.728,2.593,2.945,4.518,2.945l0,0l77.504-0.117c0.039,0,0.078,0,0.157,0v2.121c0,2.75,2.238,4.988,4.988,4.988
		s4.989-2.238,4.989-4.988v-15.909C159.658,110.023,157.459,107.784,154.709,107.784z"/>
	<path d="M103.21,103.149c-0.903,0.393-1.296,1.61-0.903,2.514c0.628,1.414,0.864,2.985,0.864,4.95
		c0.118,0.942,1.021,1.688,2.003,1.571c0.903-0.118,1.532-0.864,1.493-1.729h0.039c0-2.004-0.235-4.597-1.1-6.521
		C105.174,103.071,104.114,102.757,103.21,103.149z"/>
	<g>
		<path d="M122.969,102.796h-6.874c-0.981,0-1.768-0.707-1.768-1.689c0-0.746,0.314-1.375,0.864-2.003l7.268-8.406
			c0.707-0.825,1.218-1.257,2.278-1.257c0.981,0,1.768,0.746,1.768,1.728v8.643h0.864c0.824,0,1.492,0.668,1.492,1.492
			c0,0.825-0.668,1.493-1.492,1.493h-0.904v2.003c0,0.982-0.785,1.729-1.768,1.729c-0.981,0-1.729-0.746-1.729-1.729V102.796z
			 M122.969,99.811v-5.225l-4.438,5.225H122.969z"/>
		<path d="M132.083,105.074c-0.433-0.314-0.747-0.786-0.747-1.414c0-0.943,0.786-1.768,1.729-1.768c0.433,0,0.707,0.117,1.021,0.354
			c1.021,0.746,2.004,1.061,3.182,1.061c1.532,0,2.711-0.825,2.711-2.317v-0.04c0-1.414-1.218-2.278-2.946-2.278
			c-1.414,0-2.043,0.433-2.514,0.433c-0.511,0-0.943-0.196-1.65-0.746c-0.511-0.354-0.707-0.864-0.668-1.493l0.354-5.656
			c0.04-0.864,0.747-1.571,1.611-1.571h7.267c0.864,0,1.61,0.746,1.61,1.61s-0.746,1.61-1.61,1.61h-5.735l-0.196,2.946
			c0.668-0.157,1.257-0.275,2.2-0.275c3.3,0,5.853,1.571,5.853,5.343v0.039c0,3.535-2.553,5.774-6.206,5.774
			C134.989,106.646,133.418,106.057,132.083,105.074z"/>
		<path d="M145.91,93.25v-0.039c0-2.043,1.61-3.653,3.692-3.653s3.653,1.61,3.653,3.614v0.039c0,2.043-1.61,3.653-3.692,3.653
			C147.481,96.903,145.91,95.293,145.91,93.25z M146.027,98.985c0-0.432,0.354-0.785,0.786-0.785h5.578
			c0.432,0,0.785,0.354,0.785,0.785c0,0.433-0.354,0.786-0.785,0.786h-5.578C146.381,99.771,146.027,99.418,146.027,98.985z
			 M151.331,93.25v-0.039c0-1.021-0.707-1.925-1.729-1.925c-1.061,0-1.689,0.864-1.689,1.925v0.039c0,1.021,0.707,1.925,1.729,1.925
			S151.331,94.311,151.331,93.25z"/>
	</g>
</g>
</svg>
