<?xml version="1.0" encoding="utf-8"?>
<!-- Generator: Adobe Illustrator 16.0.4, SVG Export Plug-In . SVG Version: 6.00 Build 0)  -->
<!DOCTYPE svg PUBLIC "-//W3C//DTD SVG 1.1//EN" "http://www.w3.org/Graphics/SVG/1.1/DTD/svg11.dtd">
<svg version="1.1" id="Layer_1" xmlns="http://www.w3.org/2000/svg" xmlns:xlink="http://www.w3.org/1999/xlink" x="0px" y="0px"
	 width="50px" height="50px" viewBox="0 0 50 50" enable-background="new 0 0 50 50" xml:space="preserve">
<g>
	<path d="M24.999,10.688c-5.012,0-9.295,1.399-11.062,3.977h22.127C34.294,12.086,30.011,10.688,24.999,10.688z"/>
	<path d="M37.28,24.602v3.562h0.5v0.623h-1.801V15.416H14.019v13.372h-1.801v-0.623h0.5v-3.562h-2v3.562h0.5v1.623h1.846v7.418
		h1.972v2.107h4v-2.107h11.93v2.107h4v-2.107h1.972v-7.418h1.846v-1.623h0.5v-3.562H37.28z M21.591,16.968h6.816v1h-6.816V16.968z
		 M18.367,34.856c-0.761,0-1.377-0.616-1.377-1.377s0.616-1.377,1.377-1.377s1.378,0.616,1.378,1.377S19.128,34.856,18.367,34.856z
		 M28.407,35.197h-6.816v-1h6.816V35.197z M28.407,32.762h-6.816v-1h6.816V32.762z M28.224,29.756c0-1.121,0.91-2.03,2.029-2.03
		s2.03,0.909,2.03,2.03H28.224z M31.63,34.856c-0.76,0-1.377-0.616-1.377-1.377s0.617-1.377,1.377-1.377
		c0.762,0,1.378,0.616,1.378,1.377S32.392,34.856,31.63,34.856z M33.979,29.756h-0.696c0-1.672-1.359-3.03-3.03-3.03
		c-1.67,0-3.029,1.358-3.029,3.03H16.019V19.155h17.961V29.756z"/>
</g>
</svg>
