<?xml version="1.0" encoding="utf-8"?>
<!-- Generator: Adobe Illustrator 16.0.4, SVG Export Plug-In . SVG Version: 6.00 Build 0)  -->
<!DOCTYPE svg PUBLIC "-//W3C//DTD SVG 1.1//EN" "http://www.w3.org/Graphics/SVG/1.1/DTD/svg11.dtd">
<svg version="1.1" id="Layer_1" xmlns="http://www.w3.org/2000/svg" xmlns:xlink="http://www.w3.org/1999/xlink" x="0px" y="0px"
	 width="50px" height="50px" viewBox="0 0 50 50" enable-background="new 0 0 50 50" xml:space="preserve">
<g>
	<path d="M18.916,31.439c0-1.482-1.206-2.688-2.688-2.688s-2.688,1.206-2.688,2.688c0,1.045,0.607,1.943,1.483,2.388h-1.191v2.19
		h4.794v-2.19h-1.19C18.308,33.384,18.916,32.484,18.916,31.439z M16.227,33.029c-0.879,0-1.594-0.713-1.594-1.59
		c0-0.879,0.715-1.594,1.594-1.594s1.594,0.715,1.594,1.594C17.82,32.316,17.105,33.029,16.227,33.029z M13.83,36.221h4.794v2.192
		H13.83V36.221z M18.08,21.852h-4.716v-7.81h4.716V21.852z M24.039,19.098h-4.716v-5.056h4.716V19.098z M30,19.098h-4.718v-5.056H30
		V19.098z M35.959,19.098H31.24v-5.056h4.719V19.098z M40,23.162h-1.051v-11.78H10.792v11.78H10v2.191h0.792v1.369h5.595v-0.548
		c0-0.968,0.789-1.757,1.758-1.757c0.97,0,1.758,0.789,1.758,1.757v0.548h1.812h1.541v10.799h-3.333v1.097h9.953v-1.097h-3.332
		V26.723h1.541h1.299c0.258,1.312,1.412,2.307,2.801,2.307c1.387,0,2.539-0.993,2.797-2.307h3.969v-1.369H40V23.162L40,23.162z
		 M32.184,27.934c-0.971,0-1.76-0.789-1.76-1.758c0-0.968,0.789-1.757,1.76-1.757c0.969,0,1.758,0.789,1.758,1.757
		C33.939,27.145,33.15,27.934,32.184,27.934z M37.854,25.628H34.98c-0.258-1.312-1.41-2.305-2.797-2.305
		c-1.389,0-2.543,0.993-2.801,2.305h-1.299h-6.37h-0.77c-0.257-1.312-1.415-2.305-2.801-2.305c-1.387,0-2.545,0.993-2.802,2.305
		h-3.456V12.479h25.967V25.628L37.854,25.628z"/>
</g>
</svg>
