<?xml version="1.0" encoding="utf-8"?>
<!-- Generator: Adobe Illustrator 16.0.4, SVG Export Plug-In . SVG Version: 6.00 Build 0)  -->
<!DOCTYPE svg PUBLIC "-//W3C//DTD SVG 1.1//EN" "http://www.w3.org/Graphics/SVG/1.1/DTD/svg11.dtd">
<svg version="1.1" id="Layer_1" xmlns="http://www.w3.org/2000/svg" xmlns:xlink="http://www.w3.org/1999/xlink" x="0px" y="0px"
	 width="50px" height="50px" viewBox="0 0 50 50" enable-background="new 0 0 50 50" xml:space="preserve">
<path d="M31.9,14.855l1.379-0.358L31.9,14.134c-0.184-3.529-3.014-6.359-6.542-6.543L25,6.218l-0.361,1.373
	c-3.529,0.184-6.358,3.016-6.541,6.544l-1.377,0.361l1.377,0.358c0.182,3.527,3.01,6.358,6.541,6.543L25,22.773l0.359-1.375
	C28.889,21.215,31.721,18.384,31.9,14.855z M25,20.338c-3.223,0-5.844-2.622-5.844-5.842c0-3.224,2.621-5.843,5.844-5.843
	c3.223,0,5.844,2.619,5.844,5.843C30.844,17.716,28.223,20.338,25,20.338z M26.062,14.501l-1.02-5.027l-1.105,5.008v0.004v0.006
	l1.019,5.027l1.107-5.008h0.002l-0.002-0.008l0.002-0.002H26.062z M24.349,14.484l0.688-3.107l0.63,3.12L24.349,14.484z
	 M21.675,13.787h0.15l-0.395,1.419H21.29h-0.144l-0.229-1.117l-0.225,1.117h-0.139h-0.143l-0.396-1.419h0.154h0.156l0.234,1.038
	l0.205-1.038h0.156h0.158l0.206,1.029l0.235-1.029H21.675z M29.979,14.955v0.125v0.126h-1.076v-1.419h1.043v0.124v0.126h-0.746
	v0.304h0.693v0.12v0.124h-0.693v0.37H29.979L29.979,14.955z M18.08,36.65h-4.717v-7.809h4.717V36.65z M24.039,33.898h-4.716v-5.057
	h4.716V33.898z M30,33.898h-4.718v-5.057H30V33.898z M35.959,33.898H31.24v-5.057h4.719V33.898z M40,38.059h-1.1V26.23H10.839
	v11.828H10v2h0.84v1.418h4.551c0.236,1.309,1.379,2.305,2.754,2.305c1.377,0,2.518-0.996,2.754-2.305h8.528
	c0.238,1.309,1.381,2.305,2.758,2.305s2.518-0.996,2.754-2.305h3.965v-1.418H40V38.059L40,38.059z M18.144,42.781
	c-0.996,0-1.806-0.811-1.806-1.805c0-0.996,0.81-1.807,1.806-1.807s1.806,0.811,1.806,1.807
	C19.949,41.973,19.14,42.781,18.144,42.781z M32.184,42.781c-0.996,0-1.809-0.811-1.809-1.805c0-0.996,0.812-1.807,1.809-1.807
	s1.805,0.811,1.805,1.807S33.18,42.781,32.184,42.781z M37.9,40.477h-2.963c-0.238-1.309-1.379-2.307-2.754-2.307
	c-1.377,0-2.521,0.998-2.758,2.307h-8.528c-0.237-1.309-1.379-2.307-2.754-2.307c-1.377,0-2.519,0.998-2.756,2.307h-3.55V27.23H37.9
	V40.477L37.9,40.477z"/>
</svg>
