<?xml version="1.0" encoding="utf-8"?>
<!-- Generator: Adobe Illustrator 16.0.4, SVG Export Plug-In . SVG Version: 6.00 Build 0)  -->
<!DOCTYPE svg PUBLIC "-//W3C//DTD SVG 1.1//EN" "http://www.w3.org/Graphics/SVG/1.1/DTD/svg11.dtd">
<svg version="1.1" id="Layer_1" xmlns="http://www.w3.org/2000/svg" xmlns:xlink="http://www.w3.org/1999/xlink" x="0px" y="0px"
	 width="50px" height="50px" viewBox="0 0 50 50" enable-background="new 0 0 50 50" xml:space="preserve">
<path d="M39.639,22.806v-1.083H37.88v-3.792H23.615v3.792h-1.76v1.083h-0.36v2.287h1.444v-2.287h-0.361v-0.361h1.037v8.004h-0.533
	v4.785h0.533v0.029h0.572v1.324h2.89v-1.324h7.342v1.324h2.89v-1.324h0.571v-0.029h0.534v-4.785H37.88v-8.004h1.037v0.361h-0.36
	v2.287H40v-2.287H39.639z M28.559,18.969h4.379v0.722h-4.379V18.969z M26.488,33.727c-0.488,0-0.885-0.396-0.885-0.886
	c0-0.487,0.396-0.884,0.885-0.884c0.488,0,0.885,0.396,0.885,0.884C27.373,33.33,26.977,33.727,26.488,33.727z M32.938,33.984
	h-4.379v-0.721h4.379V33.984z M32.938,32.42h-4.379v-0.722h4.379V32.42z M32.857,30.449c0-0.697,0.567-1.264,1.265-1.264
	c0.696,0,1.265,0.566,1.265,1.264H32.857z M35.007,33.727c-0.487,0-0.885-0.396-0.885-0.886c0-0.487,0.396-0.884,0.885-0.884
	s0.886,0.396,0.886,0.884C35.893,33.33,35.495,33.727,35.007,33.727z M36.436,30.449h-0.326c0-1.096-0.892-1.986-1.986-1.986
	c-1.096,0-1.984,0.891-1.984,1.986h-7.078V20.414h11.377v10.035H36.436z M20.734,30.052c0,0,0.916,1.604,0.916,2.11
	s-0.409,0.916-0.916,0.916c-0.504,0-0.914-0.41-0.914-0.916S20.734,30.052,20.734,30.052z M20.423,29.826l0.625-0.487l-0.614-0.789
	H18.6h-0.391l-0.005,0.396v5.197h-1.026v-7.205h-2.195V14.856H39.96v-1.444H10.771v1.444h2.768v12.082h-2.479v8.855H10v0.793h8.236
	v-0.792h-1.06v-0.858h1.819v-5.593h1.049L20.423,29.826z M15.82,30.854h-3.405v-2.543h3.405V30.854z"/>
</svg>
