<?xml version="1.0" encoding="utf-8"?>
<!-- Generator: Adobe Illustrator 16.0.4, SVG Export Plug-In . SVG Version: 6.00 Build 0)  -->
<!DOCTYPE svg PUBLIC "-//W3C//DTD SVG 1.1//EN" "http://www.w3.org/Graphics/SVG/1.1/DTD/svg11.dtd">
<svg version="1.1" id="Layer_1" xmlns="http://www.w3.org/2000/svg" xmlns:xlink="http://www.w3.org/1999/xlink" x="0px" y="0px"
	 width="50px" height="50px" viewBox="0 0 50 50" enable-background="new 0 0 50 50" xml:space="preserve">
<path d="M15.124,12.083v24h0.793v1.834h4v-1.834h10.166v1.834h4v-1.834h0.793v-24H15.124z M21.969,13.521h6.062v1h-6.062V13.521z
	 M32.876,34.083H17.124v-0.375h15.752V34.083z M17.877,31.583c0-0.676,0.549-1.226,1.225-1.226c0.677,0,1.226,0.55,1.226,1.226
	c0,0.677-0.549,1.226-1.226,1.226C18.426,32.809,17.877,32.26,17.877,31.583z M31.418,29.458h-3.491
	c0-0.015-0.004-0.026-0.004-0.041c0-0.965,0.785-1.75,1.75-1.75c0.966,0,1.75,0.785,1.75,1.75
	C31.423,29.432,31.419,29.443,31.418,29.458z M32.123,31.583c0,0.677-0.549,1.226-1.227,1.226c-0.676,0-1.225-0.549-1.225-1.226
	c0-0.676,0.549-1.226,1.225-1.226C31.574,30.357,32.123,30.907,32.123,31.583z M28.031,31.083v1h-6.062v-1H28.031z M32.876,29.458
	h-0.458c0-0.015,0.004-0.026,0.004-0.041c0-1.517-1.232-2.75-2.75-2.75s-2.75,1.233-2.75,2.75c0,0.015,0.004,0.026,0.004,0.041
	h-9.803V15.52h15.752L32.876,29.458L32.876,29.458z"/>
</svg>
