<?xml version="1.0" encoding="utf-8"?>
<!-- Generator: Adobe Illustrator 16.0.4, SVG Export Plug-In . SVG Version: 6.00 Build 0)  -->
<!DOCTYPE svg PUBLIC "-//W3C//DTD SVG 1.1//EN" "http://www.w3.org/Graphics/SVG/1.1/DTD/svg11.dtd">
<svg version="1.1" id="Layer_1" xmlns="http://www.w3.org/2000/svg" xmlns:xlink="http://www.w3.org/1999/xlink" x="0px" y="0px"
	 width="50px" height="50px" viewBox="0 0 50 50" enable-background="new 0 0 50 50" xml:space="preserve">
<path d="M28.559,30.848c-0.336,1.535-3.081,3.297-3.392,3.494c-0.082,0.051-0.174,0.076-0.266,0.076
	c-0.092,0-0.185-0.025-0.266-0.076c-0.312-0.197-3.054-1.959-3.405-3.547c-0.064-0.178-0.104-0.424-0.104-0.68
	c0-0.855,0.466-1.645,1.215-2.059c0.804-0.443,1.849-0.355,2.561,0.188c0.713-0.547,1.763-0.631,2.56-0.188
	c0.751,0.416,1.218,1.205,1.218,2.061C28.68,30.365,28.639,30.611,28.559,30.848z M32.686,22.053c0-0.994-0.877-1.803-1.955-1.803
	c-0.35,0-0.672,0.092-0.957,0.24v-3.809c0-0.996-0.867-1.806-1.935-1.806c-0.334,0-0.644,0.086-0.918,0.228v-0.195
	c0-0.994-0.866-1.803-1.934-1.803c-1.065,0-1.933,0.809-1.933,1.803v1.027c-0.271-0.14-0.576-0.224-0.904-0.224
	c-1.057,0-1.917,0.81-1.917,1.804v0.555c-0.286-0.152-0.613-0.246-0.966-0.246c-1.077,0-1.952,0.809-1.952,1.803v0.08v9.934v0.496
	c0,1.467,0.954,2.691,2.217,2.951v3.203c0,0.277,0.224,0.5,0.5,0.5c0.276,0,0.5-0.223,0.5-0.5v-3.652c0-0.274-0.233-0.5-0.51-0.5
	c-0.941,0-1.707-0.897-1.707-2.002v-0.496v-9.934v-0.08c0-0.443,0.427-0.803,0.952-0.803c0.522,0,0.947,0.359,0.947,0.803v5.607
	c0,0.276,0.224,0.5,0.5,0.5c0.003,0,0.006-0.002,0.009-0.002s0.006,0.002,0.009,0.002c0.276,0,0.5-0.224,0.5-0.5v-7.719
	c0-0.443,0.411-0.804,0.917-0.804c0.483,0,0.871,0.332,0.904,0.748v7.772c0,0.277,0.224,0.5,0.5,0.5c0.002,0,0.004,0,0.006,0
	s0.004,0,0.006,0c0.276,0,0.5-0.223,0.5-0.5v-7.719c0-0.041-0.01-0.078-0.013-0.119v-2.487c0-0.443,0.418-0.804,0.933-0.804
	c0.515,0,0.934,0.359,0.934,0.804v1.639c-0.003,0.045-0.015,0.088-0.015,0.136v8.553c0,0.276,0.224,0.5,0.5,0.5
	c0.002,0,0.005,0,0.007,0s0.005,0,0.007,0c0.275,0,0.5-0.224,0.5-0.5v-8.615c0.039-0.414,0.43-0.742,0.918-0.742
	c0.516,0,0.936,0.361,0.936,0.805v5.371v2.854c-1.051,0.149-1.489,0.831-1.489,2.247c0,0.277,0.224,0.5,0.5,0.5s0.5-0.223,0.5-0.5
	c0-1.219,0.252-1.28,0.981-1.28c0.276,0,0.5-0.224,0.5-0.5c0-0.019-0.009-0.033-0.011-0.054c0.005-0.026,0.019-0.055,0.019-0.086
	v-3.182c0-0.443,0.429-0.803,0.955-0.803c0.525,0,0.951,0.357,0.955,0.799c0,0.002-0.002,0.002-0.002,0.004v8.084
	c0,1.104-0.803,2.002-1.789,2.002h-0.861c-0.133,0-0.262,0.055-0.355,0.148c-0.094,0.093-0.146,0.223-0.145,0.355l0.031,3.756
	c0.002,0.274,0.226,0.496,0.5,0.496c0,0,0.002,0,0.004,0c0.275-0.002,0.498-0.229,0.496-0.504l-0.027-3.253h0.357
	c1.539,0,2.789-1.346,2.789-3.002v-4.893c0-0.005,0.002-0.007,0.002-0.011v-3.18H32.686z"/>
</svg>
