<?xml version="1.0" encoding="utf-8"?>
<!-- Generator: Adobe Illustrator 17.1.0, SVG Export Plug-In . SVG Version: 6.00 Build 0)  -->
<!DOCTYPE svg PUBLIC "-//W3C//DTD SVG 1.1//EN" "http://www.w3.org/Graphics/SVG/1.1/DTD/svg11.dtd">
<svg version="1.1" xmlns="http://www.w3.org/2000/svg" xmlns:xlink="http://www.w3.org/1999/xlink" x="0px" y="0px"
	 viewBox="0 0 64 64" enable-background="new 0 0 64 64" xml:space="preserve">
<g id="Imagenes">
</g>
<g id="Layer_2">
	<path d="M46,58V45.73c6.046-4.252,10-11.277,10-19.23C56,13.521,45.479,3,32.5,3S9,13.521,9,26.5c0,7.953,3.954,14.978,10,19.23V58
		h3v-5h3v5h3v-5h3v5h3v-5h3v5h3v-5h3v5H46z M48.568,33.159l-2.386-2.386l1.591-1.591l2.387,2.386L48.568,33.159z M52,27h-3v-2h3V27z
		 M48.568,18.841l1.591,1.591l-2.387,2.386l-1.591-1.591L48.568,18.841z M42,17h2v3h-2V17z M37.432,18.841l2.386,2.386l-1.591,1.591
		l-2.387-2.386L37.432,18.841z M34,25h3v2h-3V25z M27.568,18.841l1.591,1.591l-2.387,2.386l-1.591-1.591L27.568,18.841z M31,25v2h-3
		v-2H31z M21,17h2v3h-2V17z M16.432,18.841l2.386,2.386l-1.591,1.591l-2.387-2.386L16.432,18.841z M13,25h3v2h-3V25z M16.432,33.159
		l-1.591-1.591l2.387-2.386l1.591,1.591L16.432,33.159z M23,35h-2v-3h2V35z M22,30c-2.209,0-4-1.791-4-4c0-2.209,1.791-4,4-4
		s4,1.791,4,4C26,28.209,24.209,30,22,30z M27.568,33.159l-2.386-2.386l1.591-1.591l2.387,2.386L27.568,33.159z M35.887,40H29
		c-1,0-1.375-0.625-0.5-1.75C29.215,37.331,31,35,31,35c1.146-1.5,2.021-1.375,3,0l2.695,3.394C37.35,39.277,36.987,40,35.887,40z
		 M37.432,33.159l-1.591-1.591l2.387-2.386l1.591,1.591L37.432,33.159z M39,26c0-2.209,1.791-4,4-4s4,1.791,4,4c0,2.209-1.791,4-4,4
		S39,28.209,39,26z M42,35v-3h2v3H42z"/>
</g>
</svg>
