<?xml version="1.0" encoding="utf-8"?>
<!-- Generator: Adobe Illustrator 17.1.0, SVG Export Plug-In . SVG Version: 6.00 Build 0)  -->
<!DOCTYPE svg PUBLIC "-//W3C//DTD SVG 1.1//EN" "http://www.w3.org/Graphics/SVG/1.1/DTD/svg11.dtd">
<svg version="1.1" xmlns="http://www.w3.org/2000/svg" xmlns:xlink="http://www.w3.org/1999/xlink" x="0px" y="0px"
	 viewBox="0 0 64 64" enable-background="new 0 0 64 64" xml:space="preserve">
<g id="Imagenes">
</g>
<g id="Layer_2">
	<path d="M32.73,18.492l-1.956-3.61l-2.427,4.479l-7.719,14.248l7.719,14.248l2.427,4.479l1.956-3.61l8.19-15.117L32.73,18.492z
		 M30.774,46.433l-2.427-4.479l-4.521-8.344l4.521-8.344l2.427-4.479l1.956,3.61l4.992,9.213l-4.992,9.213L30.774,46.433z"/>
	<path d="M53,3H9v59h44V3z M50,28h-7.363l5.79-11H37.188l4.683-11H50V28z M50,39.88L46.043,35L50,30.12V39.88z M30.925,59h-0.302
		l-2.276-4.2l-11.481-21.19l11.481-21.19l2.427-4.479l1.956,3.61l11.951,22.059L32.73,55.669L30.925,59z M12,6h7.79l4.683,11H13.234
		l5.79,11H12V6z M12,30.538L15.618,35L12,39.462V30.538z M12,42h7.024l-5.79,9h11.239l-4.087,8H12V42z M50,59h-8.725l-4.087-8
		h11.239l-5.79-9H50V59z"/>
</g>
</svg>
