<?xml version="1.0" encoding="utf-8"?>
<!-- Generator: Adobe Illustrator 17.1.0, SVG Export Plug-In . SVG Version: 6.00 Build 0)  -->
<!DOCTYPE svg PUBLIC "-//W3C//DTD SVG 1.1//EN" "http://www.w3.org/Graphics/SVG/1.1/DTD/svg11.dtd">
<svg version="1.1" xmlns="http://www.w3.org/2000/svg" xmlns:xlink="http://www.w3.org/1999/xlink" x="0px" y="0px"
	 viewBox="0 0 64 64" enable-background="new 0 0 64 64" xml:space="preserve">
<g id="Imagenes">
</g>
<g id="Layer_2">
	<polygon points="55,35 55,30 48,30 48,40 60,40 60,22 40,22 40,28 36,28 36,32 32,32 32,36 28,36 28,40 46,40 46,27 57,27 57,37 
		51,37 51,32 53,32 53,35 	"/>
	<polygon points="9,27 9,32 16,32 16,22 4,22 4,40 24,40 24,34 28,34 28,30 32,30 32,26 36,26 36,22 18,22 18,35 7,35 7,25 13,25 
		13,30 11,30 11,27 	"/>
	<rect x="1" y="17" width="62" height="3"/>
	<rect x="1" y="42" width="62" height="3"/>
</g>
</svg>
