<?xml version="1.0" encoding="utf-8"?>
<!-- Generator: Adobe Illustrator 17.1.0, SVG Export Plug-In . SVG Version: 6.00 Build 0)  -->
<!DOCTYPE svg PUBLIC "-//W3C//DTD SVG 1.1//EN" "http://www.w3.org/Graphics/SVG/1.1/DTD/svg11.dtd">
<svg version="1.1" xmlns="http://www.w3.org/2000/svg" xmlns:xlink="http://www.w3.org/1999/xlink" x="0px" y="0px"
	 viewBox="0 0 64 64" enable-background="new 0 0 64 64" xml:space="preserve">
<g id="Imagenes">
</g>
<g id="Layer_2">
	<path d="M9.581,62H29V40.122c-4-1.506-6.005-4.572-6.025-8.122C22.995,28.45,25,25.384,29,23.878V2H9.581
		c0,0,7.718,13.492,7.829,13.67c1.082,1.74,3.687,6.085,0.373,7.102c-1.173,0.36-2.846-0.038-3.864-0.62
		c-1.408-0.805,0.028-2.758,1.287-1.393c1.546,1.676,4.036-0.826,2.496-2.496c-2.155-2.335-5.533-1.906-7.279,0.624
		c-2.007,2.908,0.577,5.916,3.185,6.996c0.679,0.281,1.403,0.444,2.134,0.519c0.022,0.002,0.037,0.014,0.059,0.015
		c0.58,0.033,1.149,0.095,1.722,0.198c0.236,0.042,1.224,0.19,1.337,0.465C19.066,27.588,18.688,28,18.233,28H13
		c-1.105,0-2,0.895-2,2v4c0,1.105,0.895,2,2,2h5.233c0.455,0,0.833,0.412,0.625,0.921c-0.113,0.275-1.101,0.393-1.337,0.436
		c-0.572,0.103-1.141,0.179-1.722,0.212c-0.022,0.001-0.037,0.02-0.059,0.023c-0.731,0.075-1.455,0.241-2.134,0.522
		c-2.608,1.079-5.192,4.09-3.185,6.997c1.746,2.53,5.124,2.96,7.279,0.625c1.54-1.67-0.949-4.171-2.496-2.495
		c-1.259,1.365-2.695-0.587-1.287-1.393c1.019-0.583,2.692-0.98,3.864-0.62c3.314,1.017,0.709,5.362-0.373,7.102
		C17.299,48.507,9.581,62,9.581,62z"/>
	<path d="M53,2H34v21.878c4,1.506,6.005,4.572,6.025,8.122C40.005,35.55,38,38.616,34,40.122V62h19c0,0-7.718-13.493-7.829-13.67
		c-1.082-1.74-3.687-6.085-0.373-7.102c1.173-0.36,2.846,0.037,3.865,0.62c1.408,0.805-0.028,2.757-1.287,1.393
		c-1.546-1.676-4.036,0.826-2.496,2.495c2.155,2.335,5.533,1.905,7.279-0.625c2.007-2.908-0.577-5.918-3.185-6.997
		c-0.679-0.281-1.403-0.448-2.134-0.522c-0.022-0.002-0.037-0.021-0.059-0.023c-0.58-0.033-1.149-0.11-1.722-0.212
		c-0.236-0.042-1.224-0.161-1.337-0.436C43.515,36.412,43.893,36,44.348,36H50c1.105,0,2-0.895,2-2v-4c0-1.105-0.895-2-2-2h-5.652
		c-0.455,0-0.833-0.412-0.625-0.921c0.113-0.275,1.101-0.423,1.337-0.465c0.572-0.103,1.141-0.164,1.722-0.198
		c0.022-0.001,0.037-0.013,0.059-0.015c0.731-0.075,1.455-0.238,2.134-0.519c2.608-1.079,5.192-4.088,3.185-6.996
		c-1.746-2.53-5.124-2.959-7.279-0.624c-1.54,1.67,0.949,4.172,2.496,2.496c1.259-1.365,2.695,0.588,1.287,1.393
		c-1.019,0.583-2.692,0.98-3.865,0.62c-3.314-1.017-0.709-5.362,0.373-7.102C45.282,15.492,53,2,53,2z"/>
	<circle cx="31.5" cy="32" r="5.333"/>
</g>
</svg>
