<?xml version="1.0" encoding="utf-8"?>
<!-- Generator: Adobe Illustrator 17.0.0, SVG Export Plug-In . SVG Version: 6.00 Build 0)  -->
<!DOCTYPE svg PUBLIC "-//W3C//DTD SVG 1.1//EN" "http://www.w3.org/Graphics/SVG/1.1/DTD/svg11.dtd">
<svg version="1.1" id="Capa_1" xmlns="http://www.w3.org/2000/svg" xmlns:xlink="http://www.w3.org/1999/xlink" x="0px" y="0px"
	 width="17.183px" height="23.558px" viewBox="0 0 17.183 23.558" enable-background="new 0 0 17.183 23.558" xml:space="preserve">
<path d="M8.995,17.569v0.69c0,0.041-0.033,0.076-0.075,0.076c-0.043,0-0.077-0.035-0.077-0.076v-0.69
	c0-0.041,0.034-0.075,0.077-0.075C8.96,17.494,8.993,17.527,8.995,17.569z M7.31,11.851c0.021,0.037,0.067,0.049,0.104,0.029
	c0.036-0.021,0.049-0.069,0.028-0.105l-0.344-0.596c-0.02-0.037-0.068-0.05-0.104-0.027c-0.036,0.019-0.048,0.067-0.027,0.102
	L7.31,11.851z M10.525,17.119c-0.019-0.037-0.067-0.049-0.103-0.027c-0.036,0.019-0.049,0.067-0.028,0.104l0.344,0.596
	c0.021,0.037,0.068,0.049,0.104,0.027c0.036-0.019,0.048-0.067,0.027-0.104L10.525,17.119z M6.209,13.007
	c0.036,0.021,0.081,0.009,0.103-0.027c0.022-0.037,0.009-0.083-0.027-0.105l-0.597-0.343c-0.037-0.019-0.083-0.008-0.104,0.027
	c-0.02,0.037-0.009,0.083,0.028,0.104L6.209,13.007z M11.627,15.961c-0.037-0.021-0.081-0.009-0.104,0.027
	c-0.02,0.037-0.008,0.082,0.029,0.104l0.596,0.345c0.037,0.019,0.083,0.008,0.104-0.027c0.02-0.037,0.009-0.083-0.028-0.104
	L11.627,15.961z M5.91,14.484c0-0.041-0.034-0.076-0.076-0.076h-0.69c-0.042,0-0.076,0.035-0.076,0.076
	c0,0.043,0.034,0.076,0.076,0.076h0.69C5.875,14.56,5.91,14.527,5.91,14.484z M11.927,14.484c0,0.043,0.034,0.076,0.078,0.076h0.688
	c0.042,0,0.076-0.033,0.076-0.076c0-0.041-0.034-0.076-0.076-0.076h-0.688C11.961,14.408,11.927,14.443,11.927,14.484z
	 M6.209,15.961l-0.598,0.345c-0.036,0.019-0.049,0.067-0.027,0.104c0.02,0.035,0.068,0.047,0.104,0.027l0.597-0.345
	c0.036-0.021,0.048-0.067,0.027-0.104C6.291,15.952,6.245,15.94,6.209,15.961z M11.523,12.98c0.021,0.037,0.068,0.049,0.104,0.027
	l0.597-0.345c0.037-0.019,0.049-0.067,0.028-0.104c-0.02-0.035-0.068-0.048-0.104-0.027l-0.596,0.343
	C11.516,12.897,11.503,12.944,11.523,12.98z M7.31,17.119l-0.344,0.596c-0.02,0.037-0.009,0.083,0.027,0.104
	c0.036,0.021,0.082,0.009,0.104-0.027l0.344-0.596c0.02-0.037,0.008-0.083-0.028-0.104C7.377,17.07,7.332,17.082,7.31,17.119z
	 M10.739,11.179l-0.344,0.596c-0.02,0.037-0.008,0.083,0.028,0.105c0.036,0.019,0.082,0.008,0.103-0.029l0.345-0.598
	c0.02-0.035,0.009-0.082-0.027-0.102C10.807,11.129,10.761,11.142,10.739,11.179z M9.721,14.596
	c0.002,0.406-0.327,0.737-0.733,0.739c-0.406,0.002-0.737-0.328-0.739-0.734c-0.001-0.134,0.035-0.257,0.097-0.367l-0.989-1.382
	c-0.07-0.1-0.023-0.257,0.108-0.351c0.131-0.093,0.295-0.088,0.367,0.012l0.803,1.125v-2.501c0-0.145,0.089-0.262,0.207-0.303V10.71
	c0-0.043,0.034-0.076,0.076-0.076c0.043,0,0.076,0.033,0.076,0.076v0.121c0.127,0.035,0.224,0.156,0.224,0.306v2.761
	C9.511,13.994,9.724,14.27,9.721,14.596z M9.201,14.598c0-0.118-0.097-0.214-0.214-0.213c-0.118,0-0.213,0.096-0.213,0.213
	c0.001,0.118,0.097,0.216,0.215,0.216C9.107,14.812,9.203,14.717,9.201,14.598z M14.173,20.081c0,0.479-0.388,0.866-0.866,0.866
	c-0.478,0-0.866-0.388-0.866-0.866c0-0.088,0.019-0.171,0.044-0.252c-0.999,0.669-2.202,1.061-3.496,1.061
	c-1.303,0-2.513-0.395-3.517-1.073c0.028,0.086,0.047,0.172,0.047,0.265c0,0.479-0.388,0.866-0.866,0.866s-0.866-0.388-0.866-0.866
	c0-0.477,0.388-0.865,0.866-0.865c0.028,0,0.054,0.005,0.081,0.008c-1.249-1.149-2.036-2.792-2.036-4.624
	c0-1.694,0.673-3.228,1.761-4.359c-0.332,0.166-0.662,0.328-0.989,0.474l-0.097-0.172c-0.479-0.845-0.182-1.92,0.665-2.4
	l1.402-0.794c0.847-0.479,1.922-0.18,2.4,0.666l0.095,0.167c-0.158,0.11-0.328,0.217-0.493,0.325
	c0.494-0.125,1.011-0.199,1.547-0.199c0.523,0,1.027,0.072,1.514,0.192c-0.165-0.11-0.338-0.217-0.497-0.328l0.091-0.163
	c0.469-0.827,1.518-1.118,2.344-0.649l1.367,0.774c0.827,0.469,1.118,1.516,0.65,2.343l-0.096,0.167
	c-0.28-0.126-0.565-0.265-0.85-0.407c1.093,1.131,1.766,2.667,1.766,4.363c0,1.83-0.786,3.473-2.035,4.623
	c0.022-0.002,0.043-0.006,0.065-0.006C13.787,19.215,14.173,19.602,14.173,20.081z M13.19,14.587
	c-0.007-2.322-1.893-4.198-4.213-4.192c-2.322,0.006-4.198,1.893-4.192,4.213c0.007,2.322,1.893,4.198,4.213,4.192
	C11.32,18.794,13.196,16.907,13.19,14.587z M4.488,6.644H3.06V6.632c0.17-0.164,0.322-0.353,0.486-0.541l0.892-1.125v-0.56H2.008
	v0.736h1.301v0.012C3.145,5.331,3.01,5.483,2.84,5.677L1.904,6.851V7.38h2.583L4.488,6.644z M14.29,5.941h-1.94V5.917l1.909-2.771
	V2.611h-2.973v0.767h1.775v0.024l-1.951,2.808v0.499h3.18V5.941z"/>
</svg>
