<?xml version="1.0" encoding="utf-8"?>
<!-- Generator: Adobe Illustrator 16.0.4, SVG Export Plug-In . SVG Version: 6.00 Build 0)  -->
<!DOCTYPE svg PUBLIC "-//W3C//DTD SVG 1.1//EN" "http://www.w3.org/Graphics/SVG/1.1/DTD/svg11.dtd">
<svg version="1.1" id="Layer_1" xmlns="http://www.w3.org/2000/svg" xmlns:xlink="http://www.w3.org/1999/xlink" x="0px" y="0px"
	 width="226.77px" height="155.91px" viewBox="0 0 226.77 155.91" enable-background="new 0 0 226.77 155.91" xml:space="preserve">
<g>
	<path d="M178.107,129.106l-12.32-9.335c-2.682-2.036-6.499-1.508-8.531,1.175c-1.386,1.829-1.554,4.178-0.687,6.139h-21.521
		c16.568-17.76,29.737-55.663,39.23-113.099c0.551-3.315-1.695-6.451-5.016-7.001c-3.328-0.548-6.453,1.698-7.001,5.016
		c-13.866,83.895-32.694,106.334-42.683,112.243c-0.512,0.302-0.994,0.551-1.462,0.772V30.762c0.993,0.646,2.132,1.016,3.298,1.016
		c1.242,0,2.498-0.377,3.579-1.167c2.722-1.978,3.32-5.788,1.343-8.507l-8.961-12.317c-1.135-1.559-2.938-2.49-4.865-2.509
		c-1.864,0.049-3.749,0.875-4.913,2.412l-9.336,12.319c-2.032,2.682-1.505,6.502,1.177,8.531c1.941,1.474,4.473,1.586,6.497,0.526
		v94.001c-19.92-6.285-39.564-68.366-47.599-113.149c-0.597-3.311-3.764-5.516-7.07-4.921c-3.311,0.597-5.515,3.761-4.921,7.072
		c0.222,1.228,5.508,30.444,15.296,60.191c8.273,25.145,17.062,42.634,26.541,52.825H52.343c-3.364,0-6.09,2.726-6.09,6.09
		s2.726,6.09,6.09,6.09h104.929c-1.574,2.084-1.706,5.017-0.091,7.238c1.194,1.64,3.05,2.507,4.933,2.507
		c1.243,0,2.495-0.378,3.576-1.167l12.32-8.96c1.559-1.133,2.489-2.938,2.509-4.864
		C180.538,132.091,179.642,130.271,178.107,129.106z"/>
</g>
</svg>
