<?xml version="1.0" encoding="utf-8"?>
<!-- Generator: Adobe Illustrator 16.0.0, SVG Export Plug-In . SVG Version: 6.00 Build 0)  -->
<!DOCTYPE svg PUBLIC "-//W3C//DTD SVG 1.1//EN" "http://www.w3.org/Graphics/SVG/1.1/DTD/svg11.dtd">
<svg version="1.1" id="Layer_1" xmlns="http://www.w3.org/2000/svg" xmlns:xlink="http://www.w3.org/1999/xlink" x="0px" y="0px"
	 width="96px" height="96px" viewBox="0 0 96 96" enable-background="new 0 0 96 96" xml:space="preserve">
<g>
	<path d="M78.102,67.278c-1.023-1.708-2.553-2.902-4.275-3.574l-11.652-5.278L57.4,54.1l-9.47,8.645l-9.254-8.72l-5.4,4.555
		l-11.243,5.175c-1.662,0.683-3.141,1.861-4.133,3.524L1.504,94.695h41.85l4.515-22.377l4.638,22.377h41.99L78.102,67.278z
		 M74.676,83.542h-4.229v4.229h-4.955v-4.229h-4.229v-4.954h4.229V74.36h4.955v4.228h4.229V83.542z"/>
	<path d="M35.313,50.473c3.449,3.006,7.777,4.58,12.822,4.487c4.688-0.089,8.789-1.554,12.133-4.475
		c8,5.411,25.17,8.539,17.687,3.539c-9.523-6.363-8.318-27.393-8.318-27.393l-0.011,0.015c0.033-0.788,0.067-1.574,0.066-2.386
		c0-0.327-0.03-0.635-0.041-0.955H26.214c-0.017,0.486-0.043,0.965-0.038,1.468c0.007,0.646,0.047,1.261,0.072,1.889l-0.021-0.031
		c0,0,1.204,21.03-8.318,27.393C10.512,58.966,27.199,55.772,35.313,50.473z"/>
	<path d="M26.365,18.351h43.269V9.981c0-7.08,5.071-8.677-3.643-8.677H30.008c-8.714,0-3.643,1.597-3.643,8.677V18.351z"/>
</g>
</svg>
