<?xml version="1.0" encoding="utf-8"?>
<!-- Generator: Adobe Illustrator 16.0.0, SVG Export Plug-In . SVG Version: 6.00 Build 0)  -->
<!DOCTYPE svg PUBLIC "-//W3C//DTD SVG 1.1//EN" "http://www.w3.org/Graphics/SVG/1.1/DTD/svg11.dtd">
<svg version="1.1" id="Layer_1" xmlns="http://www.w3.org/2000/svg" xmlns:xlink="http://www.w3.org/1999/xlink" x="0px" y="0px"
	 width="96px" height="96px" viewBox="0 0 96 96" enable-background="new 0 0 96 96" xml:space="preserve">
<g>
	<path d="M31.658,60.677C35.116,53.831,43.8,34.67,43.8,34.67h-5.65c6.062-13.833,12.123-21.523,22.99-24.135
		c0.354-0.101,0-0.296,0-0.296c-14.547,0-21.24,8.618-29.116,24.864c-3.213,6.916-11.706,25.815-11.706,25.815h5.826
		C19.716,75.597,8.988,82.689,1.112,85.352C0.321,85.59,0.44,85.85,1.233,85.732C13.72,84.085,24.015,76.09,31.658,60.677z"/>
	<path d="M48.694,60.677c3.39-6.846,12.191-26.007,12.191-26.007h-5.764c6.068-13.833,12.116-21.523,22.972-24.135
		c0.486-0.101,0.003-0.296,0.003-0.296c-14.479,0-21.201,8.618-29.038,24.864c-3.211,6.916-11.696,25.815-11.696,25.815h5.877
		c-6.544,14.678-17.212,21.771-25.109,24.433c-0.708,0.238-0.597,0.498,0.131,0.381C30.815,84.085,41.054,76.09,48.694,60.677z"/>
	<path d="M95.252,10.239c-14.543,0-21.265,8.618-29.098,24.864c-3.133,6.916-11.693,25.815-11.693,25.815h5.827
		c-6.434,14.678-17.163,21.771-25.048,24.433c-0.731,0.238-0.607,0.498,0.11,0.381c12.624-1.647,22.869-9.643,30.51-25.056
		C69.271,53.831,77.92,34.67,77.92,34.67h-5.636c5.998-13.833,12.137-21.523,22.968-24.135
		C95.64,10.435,95.252,10.239,95.252,10.239z"/>
	<path d="M26.152,34.674H21.3c-3.762,0-6.308,2.189-8.061,5.625c0,0.143-0.064,0.203-0.123,0.374l-9.64,20.38h10.127L26.152,34.674z
		"/>
</g>
</svg>
