<?xml version="1.0" encoding="utf-8"?>
<!-- Generator: Adobe Illustrator 16.0.0, SVG Export Plug-In . SVG Version: 6.00 Build 0)  -->
<!DOCTYPE svg PUBLIC "-//W3C//DTD SVG 1.1//EN" "http://www.w3.org/Graphics/SVG/1.1/DTD/svg11.dtd">
<svg version="1.1" id="Layer_1" xmlns="http://www.w3.org/2000/svg" xmlns:xlink="http://www.w3.org/1999/xlink" x="0px" y="0px"
	 width="96px" height="96px" viewBox="0 0 96 96" enable-background="new 0 0 96 96" xml:space="preserve">
<path d="M91.597,83.716c-1.09-1.081-2.568-1.605-4.101-1.464L57.889,52.63c2.622-6.62-0.62-17.163-3.871-20.38L30.052,8.278
	c0.109-0.245,0.206-0.493,0.285-0.732c0.967-2.877-0.279-4.883-1.769-5.799c-2.1-1.294-4.934-0.908-6.739,0.917
	c-1.052,1.063-1.753,2.18-2.201,3.514c-0.232,0.694-0.378,1.369-0.532,2.08c-0.155,0.719-0.315,1.46-0.575,2.236
	c-0.366,1.093-1.104,2.774-3.123,4.902c-2.129,2.021-3.81,2.757-4.903,3.124c-0.775,0.261-1.517,0.42-2.235,0.576
	c-0.712,0.154-1.386,0.3-2.081,0.533c-1.334,0.448-2.451,1.148-3.514,2.201c-1.826,1.805-2.211,4.639-0.918,6.739
	c0.917,1.489,2.924,2.735,5.8,1.769c0.24-0.08,0.487-0.176,0.732-0.286l24,23.938c3.216,3.25,13.731,6.521,20.353,3.898
	l29.622,29.607c-0.142,1.532,0.383,3.012,1.464,4.101l3.379,3.419l7.919-7.92L91.597,83.716z M30.082,41.592L13.901,25.565
	l11.665-11.664l16.026,16.18L30.082,41.592z M51.396,49.69c-0.144,0.43-0.332,0.764-0.558,0.992
	c-0.025,0.025-0.063,0.042-0.09,0.066c-0.024,0.027-0.041,0.064-0.065,0.089c-0.229,0.226-0.563,0.415-0.992,0.559
	c-3.294,1.106-10.975-0.756-12.483-2.282l-2.357-2.353l11.912-11.912l2.353,2.357C50.641,38.716,52.504,46.397,51.396,49.69z"/>
</svg>
