<?xml version="1.0" encoding="utf-8"?>
<!-- Generator: Adobe Illustrator 16.0.4, SVG Export Plug-In . SVG Version: 6.00 Build 0)  -->
<!DOCTYPE svg PUBLIC "-//W3C//DTD SVG 1.1//EN" "http://www.w3.org/Graphics/SVG/1.1/DTD/svg11.dtd">
<svg version="1.1" id="Layer_1" xmlns="http://www.w3.org/2000/svg" xmlns:xlink="http://www.w3.org/1999/xlink" x="0px" y="0px"
	 width="226.77px" height="155.91px" viewBox="0 0 226.77 155.91" enable-background="new 0 0 226.77 155.91" xml:space="preserve">
<g>
	<path d="M97.55,25.579c4.037,0,7.309-3.271,7.309-7.308s-3.271-7.309-7.309-7.309H82.934c-4.037,0-7.309,3.272-7.309,7.309v119.37
		c0,4.035,3.271,7.307,7.309,7.307H97.55c4.037,0,7.309-3.271,7.309-7.307c0-4.037-3.271-7.309-7.309-7.309h-7.308V25.579H97.55z"/>
	<path d="M129.22,130.332c-4.036,0-7.309,3.271-7.309,7.309c0,4.035,3.272,7.307,7.309,7.307h14.616
		c4.037,0,7.309-3.271,7.309-7.307V18.271c0-4.037-3.271-7.309-7.309-7.309H129.22c-4.036,0-7.309,3.272-7.309,7.309
		s3.272,7.308,7.309,7.308h7.308v104.753H129.22z"/>
</g>
</svg>
