<?xml version="1.0" encoding="utf-8"?>
<!-- Generator: Adobe Illustrator 16.0.4, SVG Export Plug-In . SVG Version: 6.00 Build 0)  -->
<!DOCTYPE svg PUBLIC "-//W3C//DTD SVG 1.1//EN" "http://www.w3.org/Graphics/SVG/1.1/DTD/svg11.dtd">
<svg version="1.1" id="Layer_1" xmlns="http://www.w3.org/2000/svg" xmlns:xlink="http://www.w3.org/1999/xlink" x="0px" y="0px"
	 width="50px" height="50px" viewBox="0 0 50 50" enable-background="new 0 0 50 50" xml:space="preserve">
<path d="M34.108,23.841h-0.767v-2.833h-1.674l-2.317-3.999h-9.518l-2.316,3.999h-4.72v2.833h-0.578v1.6h0.578v1h3.322
	c0.188,0.957,1.03,1.682,2.042,1.682s1.854-0.725,2.041-1.682h6.16c0.187,0.957,1.029,1.682,2.041,1.682
	c1.013,0,1.854-0.725,2.041-1.682h2.896v-1h0.766v-1.6H34.108z M18.162,27.321c-0.706,0-1.282-0.576-1.282-1.281
	c0-0.708,0.576-1.282,1.282-1.282c0.707,0,1.282,0.574,1.282,1.282C19.444,26.745,18.869,27.321,18.162,27.321z M28.405,27.321
	c-0.709,0-1.283-0.576-1.283-1.281c0-0.708,0.574-1.282,1.283-1.282c0.707,0,1.281,0.574,1.281,1.282
	C29.688,26.745,29.112,27.321,28.405,27.321z M32.543,25.64h-2.097c-0.188-0.957-1.029-1.682-2.041-1.682s-1.855,0.725-2.043,1.682
	h-6.159c-0.187-0.957-1.029-1.682-2.041-1.682c-1.011,0-1.854,0.725-2.042,1.682h-2.521v-3.832h4.381l2.315-4h8.597l2.316,4h1.335
	V25.64z M24.235,18.606h3.771v3.117h-3.771V18.606z M28.806,19.254l1.43,2.47h-1.43V19.254z M20.757,18.606h2.68v3.117h-4.485
	L20.757,18.606z M33.104,32.071l-0.562,0.57l-0.433-0.434c0.121-0.113,0.248-0.216,0.365-0.333c5.135-5.136,5.135-13.49,0-18.626
	c-2.486-2.487-5.793-3.855-9.311-3.855c-3.52,0-6.825,1.369-9.312,3.857c-5.136,5.134-5.136,13.489-0.002,18.624
	c2.487,2.487,5.795,3.856,9.312,3.856c3.083,0,6.004-1.053,8.354-2.986l0.461,0.463l-0.562,0.566l6.896,6.832l1.688-1.705
	L33.104,32.071z M31.91,31.312c-2.335,2.336-5.441,3.623-8.747,3.623c-3.303,0-6.41-1.287-8.747-3.623
	c-4.821-4.822-4.819-12.672,0.002-17.494c2.337-2.336,5.442-3.623,8.748-3.623c3.304,0,6.409,1.285,8.744,3.623
	C36.733,18.64,36.733,26.485,31.91,31.312z"/>
</svg>
