<?xml version="1.0" encoding="utf-8"?>
<!-- Generator: Adobe Illustrator 17.0.0, SVG Export Plug-In . SVG Version: 6.00 Build 0)  -->
<!DOCTYPE svg PUBLIC "-//W3C//DTD SVG 1.1//EN" "http://www.w3.org/Graphics/SVG/1.1/DTD/svg11.dtd">
<svg version="1.1" id="Capa_1" xmlns="http://www.w3.org/2000/svg" xmlns:xlink="http://www.w3.org/1999/xlink" x="0px" y="0px"
	 width="16.999px" height="17px" viewBox="0 0 16.999 17" enable-background="new 0 0 16.999 17" xml:space="preserve">
<path d="M16.625,13.742l-4.65-4.649c1.156-2.357,0.761-5.284-1.2-7.242c-2.466-2.467-6.462-2.467-8.927,0
	c-2.465,2.464-2.465,6.461,0,8.925c1.959,1.962,4.885,2.356,7.242,1.2l4.65,4.65c0.611,0.609,1.749,0.46,2.545-0.338
	C17.083,15.493,17.235,14.351,16.625,13.742z M8.911,8.911c-1.435,1.435-3.762,1.434-5.195-0.001c-1.437-1.433-1.437-3.76,0-5.194
	c1.433-1.435,3.76-1.435,5.195,0C10.344,5.149,10.344,7.477,8.911,8.911z"/>
</svg>
