<?xml version="1.0" encoding="utf-8"?>
<!-- Generator: Adobe Illustrator 16.0.4, SVG Export Plug-In . SVG Version: 6.00 Build 0)  -->
<!DOCTYPE svg PUBLIC "-//W3C//DTD SVG 1.1//EN" "http://www.w3.org/Graphics/SVG/1.1/DTD/svg11.dtd">
<svg version="1.1" id="Layer_1" xmlns="http://www.w3.org/2000/svg" xmlns:xlink="http://www.w3.org/1999/xlink" x="0px" y="0px"
	 width="50px" height="50px" viewBox="0 0 50 50" enable-background="new 0 0 50 50" xml:space="preserve">
<path d="M30.56,20.214H27.44v-0.917c0-0.7-0.316-1.875-2.438-1.875s-2.438,1.175-2.438,1.875v0.917h-3.121
	c-2.273,0-4.125,1.851-4.125,4.125v6.041c0,0.276,0.225,0.5,0.5,0.5h1.97c0.235,0.972,1.106,1.698,2.149,1.698
	c1.045,0,1.916-0.727,2.15-1.698h5.824c0.234,0.972,1.105,1.698,2.15,1.698c1.043,0,1.914-0.727,2.149-1.698h1.972
	c0.275,0,0.5-0.224,0.5-0.5v-6.041C34.685,22.064,32.833,20.214,30.56,20.214z M23.563,19.297c0-0.284,0-0.875,1.438-0.875
	s1.438,0.591,1.438,0.875v0.917h-2.875v-0.917H23.563z M19.938,31.578c-0.672,0-1.22-0.547-1.22-1.219s0.548-1.219,1.22-1.219
	s1.219,0.547,1.219,1.219S20.608,31.578,19.938,31.578z M30.063,31.578c-0.672,0-1.22-0.547-1.22-1.219s0.548-1.219,1.22-1.219
	s1.219,0.547,1.219,1.219S30.733,31.578,30.063,31.578z M33.685,29.88h-1.459c-0.22-0.993-1.104-1.739-2.162-1.739
	c-1.06,0-1.943,0.746-2.164,1.739h-5.799c-0.22-0.993-1.104-1.739-2.162-1.739c-1.06,0-1.943,0.746-2.164,1.739h-1.455v-5.541
	c0-1.723,1.402-3.125,3.125-3.125H30.56c1.723,0,3.125,1.402,3.125,3.125V29.88L33.685,29.88z M26.358,22.214h-6.916
	c-1.172,0-2.125,0.953-2.125,2.125v1.458c0,0.276,0.225,0.5,0.5,0.5h8.541c0.276,0,0.5-0.224,0.5-0.5v-3.083
	C26.858,22.438,26.636,22.214,26.358,22.214z M18.317,24.339c0-0.62,0.506-1.125,1.125-1.125h2.291v2.083h-3.416V24.339z
	 M25.858,25.297h-3.125v-2.083h3.125V25.297z M30.56,22.214H28.86c-0.276,0-0.5,0.224-0.5,0.5v3.083c0,0.276,0.224,0.5,0.5,0.5
	h3.324c0.275,0,0.5-0.224,0.5-0.5v-1.458C32.685,23.167,31.729,22.214,30.56,22.214z M31.685,25.297H29.36v-2.083h1.199
	c0.619,0,1.125,0.505,1.125,1.125V25.297z"/>
</svg>
