<?xml version="1.0" encoding="iso-8859-1"?>
<!-- Generator: Adobe Illustrator 17.0.0, SVG Export Plug-In . SVG Version: 6.00 Build 0)  -->
<!DOCTYPE svg PUBLIC "-//W3C//DTD SVG 1.1//EN" "http://www.w3.org/Graphics/SVG/1.1/DTD/svg11.dtd">
<svg version="1.1" id="Capa_1" xmlns="http://www.w3.org/2000/svg" xmlns:xlink="http://www.w3.org/1999/xlink" x="0px" y="0px"
	 width="64px" height="64px" viewBox="0 0 64 64" style="enable-background:new 0 0 64 64;" xml:space="preserve">
<g>
	<polygon points="44.417,28.681 42.106,28.681 42.106,31.581 39.265,31.581 39.265,33.892 42.106,33.892 42.106,36.792 
		44.417,36.792 44.417,33.892 47.377,33.892 47.377,31.581 44.417,31.581 	"/>
	<circle cx="15.883" cy="48.266" r="4.542"/>
	<circle cx="47.863" cy="48.266" r="4.542"/>
	<path d="M20.632,13.47c-0.252-0.114-0.548-0.002-0.662,0.249c-0.114,0.251-0.002,0.548,0.249,0.661l4.208,1.908
		c0.067,0.03,0.137,0.045,0.206,0.045c0.19,0,0.372-0.109,0.456-0.294c0.114-0.251,0.003-0.548-0.249-0.661L20.632,13.47z"/>
	<path d="M27.546,14.628c0.121,0,0.242-0.043,0.338-0.132c0.204-0.187,0.217-0.502,0.031-0.706l-3.122-3.406
		c-0.186-0.203-0.503-0.219-0.707-0.03c-0.204,0.187-0.217,0.502-0.031,0.706l3.122,3.406
		C27.276,14.573,27.411,14.628,27.546,14.628z"/>
	<path d="M33.334,10.353c-0.205-0.188-0.52-0.173-0.707,0.03l-3.121,3.406c-0.186,0.204-0.173,0.52,0.031,0.706
		c0.096,0.089,0.217,0.132,0.338,0.132c0.135,0,0.27-0.055,0.369-0.162l3.121-3.406C33.552,10.855,33.538,10.54,33.334,10.353z"/>
	<path d="M31.873,16.333c0.069,0,0.139-0.015,0.206-0.045l4.208-1.908c0.252-0.113,0.363-0.41,0.249-0.661
		c-0.114-0.251-0.409-0.363-0.662-0.249l-4.208,1.908c-0.252,0.113-0.363,0.41-0.249,0.661
		C31.502,16.224,31.683,16.333,31.873,16.333z"/>
	<path d="M54.811,18.694H31.346c-0.458-1.369-1.736-2.362-3.26-2.362c-1.523,0-2.802,0.993-3.26,2.362c0,0-0.751,0-1.678,0
		c-0.927,0-1.678,1.302-1.678,2.907v2.908c0,0-0.875,0-1.954,0c-1.079,0-3.125,1.354-4.571,3.024l-5.302,6.125
		c-1.446,1.671-2.618,4.815-2.618,7.024v1.81c0,2.209,0.829,4,1.852,4h1.852c0.694-2.21,2.76-3.814,5.2-3.814
		c2.44,0,4.505,1.604,5.2,3.814h0.342h2.726h18.512c0.695-2.21,2.76-3.814,5.201-3.814c2.44,0,4.505,1.604,5.2,3.814
		c0,0,1.276,0,2.851,0c1.575,0,2.851-1.791,2.851-4v-19.8C58.811,20.485,57.02,18.694,54.811,18.694z M21.625,32.875
		c0,1.104-0.896,2-2,2h-4.5c-1.104,0-1.384-0.649-0.623-1.451l3.122-3.292c0.76-0.802,1.964-1.451,2.689-1.451s1.312,0.896,1.312,2
		V32.875z M50.368,33.776h0.003l-6.944,6.812l-7.155-6.812h0.002c-1.089-0.926-1.784-2.304-1.784-3.846
		c0-2.787,2.259-5.046,5.046-5.046c1.509,0,2.859,0.666,3.784,1.716c0.925-1.05,2.275-1.716,3.784-1.716
		c2.788,0,5.046,2.259,5.046,5.046C52.151,31.473,51.457,32.851,50.368,33.776z"/>
</g>
</svg>
