<?xml version="1.0" encoding="utf-8"?>
<!-- Generator: Adobe Illustrator 16.0.4, SVG Export Plug-In . SVG Version: 6.00 Build 0)  -->
<!DOCTYPE svg PUBLIC "-//W3C//DTD SVG 1.1//EN" "http://www.w3.org/Graphics/SVG/1.1/DTD/svg11.dtd">
<svg version="1.1" id="Layer_1" xmlns="http://www.w3.org/2000/svg" xmlns:xlink="http://www.w3.org/1999/xlink" x="0px" y="0px"
	 width="226.77px" height="155.91px" viewBox="0 0 226.77 155.91" enable-background="new 0 0 226.77 155.91" xml:space="preserve">
<g>
	<path d="M185.386,77.955c0-0.027,0-0.083,0-0.11h-0.027c-0.028-2.118-0.88-4.125-2.365-5.61l-46.452-46.479
		c-3.162-3.163-8.332-3.163-11.495,0c-3.163,3.163-3.163,8.333,0,11.496l17.491,17.491H84.232l17.491-17.491
		c3.163-3.163,3.163-8.333,0-11.496c-3.163-3.163-8.333-3.163-11.496,0L43.749,72.235c-1.485,1.485-2.31,3.493-2.365,5.61h-0.027
		c0,0.055,0,0.083,0,0.138c0,0.027,0,0.083,0,0.11h0.027c0.028,2.09,0.88,4.125,2.365,5.61L90.2,130.154
		c3.163,3.163,8.333,3.163,11.496,0c3.163-3.163,3.163-8.333,0-11.496l-17.464-17.491h58.305l-17.464,17.491
		c-3.163,3.163-3.163,8.333,0,11.496s8.333,3.163,11.496,0l46.451-46.451c1.485-1.485,2.31-3.521,2.365-5.61h0.027
		C185.386,78.038,185.386,78.01,185.386,77.955z M61.956,77.845c2.255-1.815,8.196-7.206,9.158-7.783h84.515l9.02,7.783l0.33,0.248
		l0.688,0.577l-9.982,8.608H71.582c-0.138,0-0.303,0.027-0.44,0.055l-10.286-8.69c0,0,0.33-0.192,0.798-0.577L61.956,77.845z"/>
</g>
</svg>
