<?xml version="1.0" encoding="utf-8"?>
<!-- Generator: Adobe Illustrator 16.0.0, SVG Export Plug-In . SVG Version: 6.00 Build 0)  -->
<!DOCTYPE svg PUBLIC "-//W3C//DTD SVG 1.1//EN" "http://www.w3.org/Graphics/SVG/1.1/DTD/svg11.dtd">
<svg version="1.1" id="Layer_2" xmlns="http://www.w3.org/2000/svg" xmlns:xlink="http://www.w3.org/1999/xlink" x="0px" y="0px"
	 width="96px" height="96px" viewBox="0 0 96 96" enable-background="new 0 0 96 96" xml:space="preserve">
<g>
	<path fill-rule="evenodd" clip-rule="evenodd" d="M94.783,47.984c0.02,25.818-20.929,46.791-46.743,46.798
		C22.167,94.79,1.262,73.908,1.217,48.013C1.171,22.191,22.149,1.214,48.011,1.218C73.85,1.221,94.765,22.134,94.783,47.984z
		 M3.479,48.008c0.013,24.604,19.925,44.516,44.517,44.515c24.596,0,44.506-19.903,44.524-44.509
		C92.54,23.404,72.585,3.453,47.977,3.478C23.36,3.503,3.466,23.412,3.479,48.008z"/>
	<path fill-rule="evenodd" clip-rule="evenodd" d="M56.915,84.51c-0.275,0-0.46,0-0.645,0c-5.204,0-10.409-0.008-15.614,0.011
		C40.147,84.522,40,84.404,40,83.871c0.017-14.433,0.014-28.864,0.014-43.297c0-0.239,0-0.479,0-0.786c-6.465,0-12.904,0-19.374,0
		c0-5.643,0-11.216,0-16.836c18.318,0,36.621,0,54.951,0c0,5.595,0,11.169,0,16.802c-6.207,0-12.41,0-18.676,0
		C56.915,54.678,56.915,69.544,56.915,84.51z"/>
</g>
</svg>
