<?xml version="1.0" encoding="utf-8"?>
<!-- Generator: Adobe Illustrator 16.0.0, SVG Export Plug-In . SVG Version: 6.00 Build 0)  -->
<!DOCTYPE svg PUBLIC "-//W3C//DTD SVG 1.1//EN" "http://www.w3.org/Graphics/SVG/1.1/DTD/svg11.dtd">
<svg version="1.1" id="Layer_2" xmlns="http://www.w3.org/2000/svg" xmlns:xlink="http://www.w3.org/1999/xlink" x="0px" y="0px"
	 width="96px" height="96px" viewBox="0 0 96 96" enable-background="new 0 0 96 96" xml:space="preserve">
<g>
	<path d="M51.639,12.73c9.084,0.789,17.356,4.435,23.918,10.038l-3.637,3.638l1.683,1.684l4.643-4.643l-0.003-0.003l2.489-2.489
		C72.504,13.065,61.451,8.109,49.258,7.77v3.489h-0.001v6.565h2.382V12.73z"/>
	<path d="M20.457,22.625c6.59-5.567,14.879-9.172,23.975-9.914v5.112h2.38v-5.247v-1.319V7.764
		c-12.207,0.283-23.284,5.194-31.547,13.049l3.402,3.402c0.003-0.002,0.006-0.005,0.009-0.007l3.583,3.732l1.718-1.648
		L20.457,22.625z"/>
	<path d="M92.127,56.76h-6.564v2.382h5.093c-0.788,9.086-4.435,17.357-10.038,23.92l-3.639-3.639l-1.683,1.685l4.641,4.642
		l0.005-0.003l2.489,2.489c7.89-8.229,12.847-19.282,13.186-31.475h-3.489V56.76z"/>
	<path d="M79.179,26.178l-3.733,3.583l1.648,1.718l3.666-3.519c5.568,6.59,9.173,14.879,9.914,23.974h-5.11v2.382h5.245h1.319h3.494
		c-0.282-12.208-5.192-23.285-13.049-31.548l-3.401,3.402C79.173,26.173,79.176,26.175,79.179,26.178z"/>
	<path d="M15.382,83.062c-5.603-6.563-9.25-14.834-10.038-23.92h5.093V56.76H3.872v0.002H0.382
		c0.34,12.193,5.297,23.246,13.186,31.475l2.489-2.489l0.004,0.003l4.642-4.642l-1.684-1.685L15.382,83.062z"/>
	<path d="M5.192,54.316h5.245v-2.382H5.326C6.066,42.839,9.672,34.55,15.24,27.96l3.666,3.519l1.649-1.718l-3.733-3.583
		c0.003-0.003,0.006-0.005,0.007-0.008l-3.402-3.402C5.57,31.031,0.66,42.107,0.378,54.316h3.493H5.192z"/>
	<path d="M48.488,53.278l-13.74-28.183L23.343,79.748c0.263-0.053,0.544-0.082,0.843-0.082h11.008l3.979-19.06l9.228,18.93
		l9.439-19.04l3.945,19.17h11.827l-11.208-54.46L48.488,53.278z"/>
</g>
</svg>
