<?xml version="1.0" encoding="utf-8"?>
<!-- Generator: Adobe Illustrator 16.0.4, SVG Export Plug-In . SVG Version: 6.00 Build 0)  -->
<!DOCTYPE svg PUBLIC "-//W3C//DTD SVG 1.1//EN" "http://www.w3.org/Graphics/SVG/1.1/DTD/svg11.dtd">
<svg version="1.1" id="Layer_1" xmlns="http://www.w3.org/2000/svg" xmlns:xlink="http://www.w3.org/1999/xlink" x="0px" y="0px"
	 width="226.77px" height="155.91px" viewBox="0 0 226.77 155.91" enable-background="new 0 0 226.77 155.91" xml:space="preserve">
<g>
	<path d="M75.947,56.541l30.48,13.778l-7.403,24.993H79.601c-4.037,0-7.308,3.271-7.308,7.309c0,4.036,3.271,7.309,7.308,7.309
		h15.092l-2.887,9.744H79.601c-4.037,0-7.308,3.271-7.308,7.308c0,4.037,3.271,7.309,7.308,7.309h7.871l-2.273,7.667
		c-1.147,3.87,1.062,7.936,4.928,9.084c0.694,0.204,1.391,0.305,2.081,0.305c3.155,0,6.063-2.059,7.004-5.233l3.505-11.822h45.094
		c4.037,0,7.309-3.271,7.309-7.309c0-4.036-3.271-7.308-7.309-7.308h-40.763l2.887-9.744h37.876c4.037,0,7.309-3.272,7.309-7.309
		c0-4.037-3.271-7.309-7.309-7.309h-33.545l5.605-18.915l23.408,10.583c0.975,0.441,1.998,0.65,3.004,0.65
		c2.784,0,5.441-1.598,6.662-4.299c1.664-3.679,0.029-8.008-3.648-9.672L124.062,62.25l7.304-24.646l17.542-6.729
		c3.77-1.445,5.652-5.671,4.207-9.44c-1.446-3.766-5.658-5.652-9.439-4.208l-7.074,2.714l1.775-5.993
		c1.148-3.871-1.062-7.937-4.928-9.084c-3.886-1.14-7.939,1.064-9.084,4.931l-4.963,16.743l-43.06,16.517
		c-2.753,1.055-4.604,3.662-4.689,6.609C71.567,52.614,73.258,55.325,75.947,56.541z M114.167,44.204l-3.547,11.971l-12.697-5.74
		L114.167,44.204z"/>
</g>
</svg>
