<?xml version="1.0" encoding="utf-8"?>
<!-- Generator: Adobe Illustrator 16.0.4, SVG Export Plug-In . SVG Version: 6.00 Build 0)  -->
<!DOCTYPE svg PUBLIC "-//W3C//DTD SVG 1.1//EN" "http://www.w3.org/Graphics/SVG/1.1/DTD/svg11.dtd">
<svg version="1.1" id="Layer_1" xmlns="http://www.w3.org/2000/svg" xmlns:xlink="http://www.w3.org/1999/xlink" x="0px" y="0px"
	 width="226.77px" height="155.91px" viewBox="0 0 226.77 155.91" enable-background="new 0 0 226.77 155.91" xml:space="preserve">
<path d="M134.744,97.555c2.573,0,4.658-2.085,4.658-4.658c0-2.572-2.085-4.657-4.658-4.657h-29.205l3.785-12.777l28.114-12.709
	c1.713-0.775,2.792-2.501,2.737-4.38c-0.055-1.878-1.233-3.54-2.987-4.212l-19.352-7.422l2.837-9.575
	c0.731-2.467-0.677-5.058-3.143-5.789c-2.463-0.729-5.058,0.677-5.79,3.142l-2.63,8.876l-14.836-5.692
	c-2.395-0.919-5.096,0.278-6.017,2.68c-0.922,2.402,0.28,5.096,2.682,6.016l15.518,5.953l-4.853,16.379L90.69,73.664
	c-2.344,1.06-3.384,3.819-2.326,6.164c0.778,1.722,2.473,2.74,4.248,2.74c0.641,0,1.293-0.134,1.916-0.414l3.579-1.618l-2.283,7.704
	h-4.55c-2.573,0-4.658,2.085-4.658,4.657c0,2.573,2.085,4.658,4.658,4.658h1.79l-1.841,6.215c-2.548,0.028-4.607,2.098-4.607,4.653
	c0,1.619,0.828,3.042,2.079,3.877l-1.909,6.444c-0.731,2.468,0.677,5.059,3.142,5.79c0.443,0.132,0.887,0.193,1.326,0.193
	c2.009,0,3.863-1.312,4.463-3.335l2.462-8.311h36.566c2.573,0,4.658-2.085,4.658-4.658c0-2.572-2.085-4.657-4.658-4.657h-33.806
	l1.839-6.211L134.744,97.555L134.744,97.555z M115.182,55.697l8.252,3.166l-10.61,4.796L115.182,55.697z"/>
</svg>
