<?xml version="1.0" encoding="utf-8"?>
<!-- Generator: Adobe Illustrator 16.0.4, SVG Export Plug-In . SVG Version: 6.00 Build 0)  -->
<!DOCTYPE svg PUBLIC "-//W3C//DTD SVG 1.1//EN" "http://www.w3.org/Graphics/SVG/1.1/DTD/svg11.dtd">
<svg version="1.1" id="Layer_1" xmlns="http://www.w3.org/2000/svg" xmlns:xlink="http://www.w3.org/1999/xlink" x="0px" y="0px"
	 width="50px" height="50px" viewBox="0 0 50 50" enable-background="new 0 0 50 50" xml:space="preserve">
<path d="M41.676,22.96H31v-7.768c0-0.275-0.225-0.5-0.5-0.5H19.481c-0.276,0-0.5,0.225-0.5,0.5v8.949h-2.094v-0.916
	c0-0.275-0.225-0.5-0.5-0.5c-0.277,0-0.5,0.225-0.5,0.5v0.916h-4.146v-0.916c0-0.275-0.225-0.5-0.5-0.5c-0.276,0-0.5,0.225-0.5,0.5
	v0.916H8.324c-0.276,0-0.5,0.225-0.5,0.5v10.166c0,0.276,0.224,0.5,0.5,0.5h11.155h0.023H30.5c0.027,0,0.053-0.012,0.078-0.016
	c0.025,0.004,0.051,0.016,0.076,0.016h11.021c0.277,0,0.5-0.224,0.5-0.5V23.459C42.176,23.185,41.953,22.96,41.676,22.96z
	 M8.825,25.144h1.917v0.666c0,0.275,0.224,0.5,0.5,0.5s0.5-0.225,0.5-0.5v-0.666h4.146v0.666c0,0.275,0.225,0.5,0.5,0.5
	c0.276,0,0.5-0.225,0.5-0.5v-0.666h2.094v9.166H8.826L8.825,25.144L8.825,25.144z M30,34.31H19.981v-9.551
	c0.01-0.037,0.022-0.074,0.022-0.115s-0.014-0.078-0.022-0.117v-8.832H30V34.31z M41.176,34.31H31V23.96h10.176V34.31z
	 M24.362,20.819h-2.676v-2.676h2.676V20.819z M28.297,20.819h-2.676v-2.676h2.676V20.819z M24.362,24.549h-2.676v-2.677h2.676
	V24.549z M28.297,24.549h-2.676v-2.677h2.676V24.549z M24.362,28.278h-2.676v-2.676h2.676V28.278z M28.297,28.278h-2.676v-2.676
	h2.676V28.278z M24.362,32.007h-2.676v-2.676h2.676V32.007z M28.297,32.007h-2.676v-2.676h2.676V32.007z M35.359,28.726h-2.729
	v-2.731h2.729V28.726z M39.379,28.726h-2.73v-2.731h2.73V28.726z M32.631,32.533v-2.731h2.729v2.731H32.631z M39.379,32.533h-2.73
	v-2.731h2.73V32.533z M33.986,20.872v-4.518c0-0.275,0.225-0.5,0.5-0.5s0.5,0.225,0.5,0.5v1.76h3.023v-1.76
	c0-0.275,0.223-0.5,0.5-0.5c0.275,0,0.5,0.225,0.5,0.5v4.518c0,0.275-0.225,0.5-0.5,0.5c-0.277,0-0.5-0.225-0.5-0.5v-1.758h-3.023
	v1.758c0,0.275-0.225,0.5-0.5,0.5S33.986,21.147,33.986,20.872z M12.462,27.987h3.321v0.695l-1.939,4.01H12.68l1.938-3.785v-0.016
	h-2.156V27.987z"/>
</svg>
