<?xml version="1.0" encoding="utf-8"?>
<!-- Generator: Adobe Illustrator 16.0.0, SVG Export Plug-In . SVG Version: 6.00 Build 0)  -->
<!DOCTYPE svg PUBLIC "-//W3C//DTD SVG 1.1//EN" "http://www.w3.org/Graphics/SVG/1.1/DTD/svg11.dtd">
<svg version="1.1" id="Layer_1" xmlns="http://www.w3.org/2000/svg" xmlns:xlink="http://www.w3.org/1999/xlink" x="0px" y="0px"
	 width="96px" height="96px" viewBox="0 0 96 96" enable-background="new 0 0 96 96" xml:space="preserve">
<path d="M88.997,79.908c-4.188-5.377-9.741-9.488-15.394-13.21c-4.703-3.173-10.073-5.247-15.581-6.512
	c-4.642-1.435-9.433-2.252-14.245-2.81c0,0,0,0-0.001,0c-0.609-0.131-1.119-0.182-1.845-0.348
	c8.418-1.986,16.891-5.917,23.993-10.823c7.938-5.714,14.506-13.169,19.727-21.405c2.485-4.228,4.675-8.67,6.127-13.366
	c0.856-2.387,1.473-6.949,1.473-6.949L73.78,4.491c0.982,12.143-3.67,24.192-11.044,33.678c-3.747,4.129-7.926,7.866-12.413,11.155
	c-3.538,2.047-6.938,4.443-10.841,5.741c0.916-8.864,2.716-17.619,3.93-26.45c1.165-8.086,2.782-16.105,3.616-24.225
	c-1.514,0-3.021,0.032-4.533,0.101c-0.258,3.637-1.025,7.213-1.512,10.823c-2.097,13.907-4.239,27.818-6.331,41.731
	c-1.804-0.017-3.455-0.022-5.261-0.006h-0.001l1.482-9.193c2.269-14.478,4.73-28.934,6.806-43.439
	c-3.026-0.006-6.055-0.048-9.074,0.045c-2.958,17.496-5.751,35.044-8.401,52.588c-6.401-0.027-12.811,0.05-19.212-0.038
	l-0.574,4.857l18.965,0.012c-1.54,9.914-3.368,19.819-4.67,29.755c3.113,0.005,6.227,0.017,9.333-0.028
	c1.376-9.907,2.998-19.756,4.647-29.623h5.101c-0.795,6.744-1.993,13.434-2.933,20.156c-0.424,3.164-1.181,6.287-1.286,9.488
	c1.298,0.006,2.594,0.017,3.893,0.027c1.627-9.857,3.318-19.719,4.57-29.633c3.735,0.336,7.242,1.76,10.658,3.225
	c5.42,2.676,10.923,5.668,14.796,10.442c2.755,3.449,4.008,7.759,5.122,11.958c0.343,1.188,0.388,2.693,0.403,3.93l26.566-0.007
	C94.264,87.296,91.791,83.353,88.997,79.908z"/>
</svg>
