<?xml version="1.0" encoding="utf-8"?>
<!-- Generator: Adobe Illustrator 16.0.4, SVG Export Plug-In . SVG Version: 6.00 Build 0)  -->
<!DOCTYPE svg PUBLIC "-//W3C//DTD SVG 1.1//EN" "http://www.w3.org/Graphics/SVG/1.1/DTD/svg11.dtd">
<svg version="1.1" id="Layer_1" xmlns="http://www.w3.org/2000/svg" xmlns:xlink="http://www.w3.org/1999/xlink" x="0px" y="0px"
	 width="50px" height="50px" viewBox="0 0 50 50" enable-background="new 0 0 50 50" xml:space="preserve">
<path d="M31.384,25.941l-1.634-0.942l1.634-0.943c0.115-0.066,0.199-0.176,0.233-0.304c0.033-0.128,0.017-0.265-0.051-0.379
	l-1.875-3.247c-0.139-0.24-0.445-0.322-0.683-0.183l-1.635,0.944V19c0-0.276-0.224-0.5-0.5-0.5h-3.75c-0.276,0-0.5,0.224-0.5,0.5
	v1.886l-1.633-0.943c-0.24-0.139-0.545-0.056-0.683,0.183l-1.875,3.248c-0.138,0.239-0.056,0.545,0.183,0.683L20.25,25l-1.634,0.943
	c-0.115,0.065-0.199,0.176-0.233,0.304c-0.034,0.128-0.017,0.265,0.05,0.379l1.875,3.248c0.066,0.115,0.176,0.199,0.304,0.233
	c0.127,0.033,0.264,0.016,0.379-0.051l1.633-0.942V31c0,0.275,0.224,0.5,0.5,0.5h3.75c0.276,0,0.5-0.225,0.5-0.5v-1.887l1.635,0.943
	c0.115,0.065,0.251,0.084,0.38,0.051c0.127-0.034,0.236-0.118,0.303-0.233l1.875-3.248C31.705,26.386,31.623,26.08,31.384,25.941z
	 M29.076,28.939l-1.952-1.127c-0.153-0.09-0.347-0.09-0.5,0c-0.155,0.088-0.25,0.254-0.25,0.433v2.254h-2.75v-2.252
	c0-0.179-0.095-0.345-0.25-0.433c-0.154-0.09-0.346-0.09-0.5,0l-1.95,1.125l-1.375-2.381l1.951-1.126
	c0.155-0.089,0.25-0.254,0.25-0.433s-0.095-0.344-0.25-0.433l-1.951-1.126l1.375-2.381l1.95,1.125c0.154,0.089,0.346,0.089,0.5,0
	c0.155-0.089,0.25-0.254,0.25-0.433v-2.252h2.75v2.253c0,0.179,0.095,0.344,0.25,0.433c0.153,0.089,0.347,0.089,0.5,0l1.952-1.127
	l1.375,2.381L28.5,24.565c-0.154,0.089-0.25,0.254-0.25,0.433c0,0.179,0.096,0.344,0.25,0.433l1.951,1.125L29.076,28.939z"/>
</svg>
