<?xml version="1.0" encoding="utf-8"?>
<!-- Generator: Adobe Illustrator 16.0.4, SVG Export Plug-In . SVG Version: 6.00 Build 0)  -->
<!DOCTYPE svg PUBLIC "-//W3C//DTD SVG 1.1//EN" "http://www.w3.org/Graphics/SVG/1.1/DTD/svg11.dtd">
<svg version="1.1" id="Layer_1" xmlns="http://www.w3.org/2000/svg" xmlns:xlink="http://www.w3.org/1999/xlink" x="0px" y="0px"
	 width="226.77px" height="155.91px" viewBox="0 0 226.77 155.91" enable-background="new 0 0 226.77 155.91" xml:space="preserve">
<g>
	<path d="M65.003,65.279l88.918,40.196c0.975,0.441,1.997,0.65,3.004,0.65c2.784,0,5.442-1.598,6.663-4.3
		c1.664-3.679,0.029-8.007-3.65-9.671L86.977,59.172l72.569-27.835c3.769-1.445,5.651-5.671,4.207-9.44
		c-1.446-3.766-5.661-5.657-9.44-4.207L65.395,51.795c-2.752,1.055-4.604,3.662-4.689,6.609
		C60.621,61.353,62.313,64.064,65.003,65.279z"/>
	<path d="M65.015,97.259l90.745,40.805c0.973,0.436,1.99,0.645,2.994,0.645c2.789,0,5.452-1.604,6.67-4.313
		c1.656-3.681,0.013-8.008-3.668-9.664L71.01,83.926c-3.683-1.651-8.007-0.013-9.664,3.669
		C59.69,91.278,61.334,95.604,65.015,97.259z"/>
</g>
</svg>
