<?xml version="1.0" encoding="utf-8"?>
<!-- Generator: Adobe Illustrator 16.0.4, SVG Export Plug-In . SVG Version: 6.00 Build 0)  -->
<!DOCTYPE svg PUBLIC "-//W3C//DTD SVG 1.1//EN" "http://www.w3.org/Graphics/SVG/1.1/DTD/svg11.dtd">
<svg version="1.1" id="Layer_1" xmlns="http://www.w3.org/2000/svg" xmlns:xlink="http://www.w3.org/1999/xlink" x="0px" y="0px"
	 width="226.77px" height="155.91px" viewBox="0 0 226.77 155.91" enable-background="new 0 0 226.77 155.91" xml:space="preserve">
<g>
	<path d="M156.016,54.203c4.037,0,7.309-3.271,7.309-7.308c0-3.881-3.033-7.023-6.854-7.262l5.811-9.684
		c2.078-3.462,0.955-7.952-2.507-10.027c-3.459-2.076-7.948-0.958-10.026,2.506l-10.293,17.158H99.579
		c-20.261,0-36.134,15.516-36.134,35.323v7.308c0,18.016,12.146,33.103,28.324,36.847l-4.139,6.899
		c-2.078,3.461-0.955,7.951,2.506,10.026c1.177,0.704,2.473,1.04,3.752,1.04c2.482,0,4.904-1.267,6.273-3.549l8.102-13.504h47.752
		c4.037,0,7.309-3.271,7.309-7.308c0-4.037-3.271-7.309-7.309-7.309h-38.982l30.695-51.158H156.016z M99.991,105.361h-0.409
		c-11.667,0-21.521-10.6-21.521-23.144V74.91c0-11.805,9.25-20.707,21.518-20.707h31.104L99.991,105.361z"/>
</g>
</svg>
