<?xml version="1.0" encoding="utf-8"?>
<!-- Generator: Adobe Illustrator 16.0.4, SVG Export Plug-In . SVG Version: 6.00 Build 0)  -->
<!DOCTYPE svg PUBLIC "-//W3C//DTD SVG 1.1//EN" "http://www.w3.org/Graphics/SVG/1.1/DTD/svg11.dtd">
<svg version="1.1" id="Layer_1" xmlns="http://www.w3.org/2000/svg" xmlns:xlink="http://www.w3.org/1999/xlink" x="0px" y="0px"
	 width="226.77px" height="155.91px" viewBox="0 0 226.77 155.91" enable-background="new 0 0 226.77 155.91" xml:space="preserve">
<path d="M126.994,103.226c17.666,0,33.164-15.999,33.164-34.24v-6.578c0-10.265-5.206-18.981-13.467-24.308l8.454-12.387
	c1.944-2.844,1.21-6.725-1.634-8.667c-2.848-1.942-6.727-1.208-8.666,1.636l-10.01,14.664c-2.503-0.507-5.116-0.802-7.842-0.802
	H72.848c-3.444,0-6.236,2.792-6.236,6.236c0,3.444,2.792,6.236,6.236,6.236h54.024L95.659,90.751H72.848
	c-3.444,0-6.236,2.792-6.236,6.236s2.792,6.236,6.236,6.236h14.298l-4.255,6.236H72.848c-3.444,0-6.236,2.792-6.236,6.236
	s2.792,6.236,6.236,6.236h1.528l-5.64,8.266c-1.942,2.846-1.21,6.725,1.636,8.666c1.074,0.736,2.297,1.085,3.509,1.085
	c1.992,0,3.95-0.951,5.158-2.721l10.439-15.294h62.364c3.444,0,6.236-2.792,6.236-6.236s-2.792-6.236-6.236-6.236H97.991
	l4.255-6.236H126.994L126.994,103.226z M139.706,48.336c4.657,2.804,7.979,7.43,7.979,14.071v6.578
	c0,11.392-9.861,21.768-20.689,21.768h-16.236L139.706,48.336z"/>
</svg>
