<?xml version="1.0" encoding="utf-8"?>
<!-- Generator: Adobe Illustrator 16.0.4, SVG Export Plug-In . SVG Version: 6.00 Build 0)  -->
<!DOCTYPE svg PUBLIC "-//W3C//DTD SVG 1.1//EN" "http://www.w3.org/Graphics/SVG/1.1/DTD/svg11.dtd">
<svg version="1.1" id="Layer_1" xmlns="http://www.w3.org/2000/svg" xmlns:xlink="http://www.w3.org/1999/xlink" x="0px" y="0px"
	 width="226.77px" height="155.91px" viewBox="0 0 226.77 155.91" enable-background="new 0 0 226.77 155.91" xml:space="preserve">
<g>
	<path d="M96.873,46.286h70.105c4.037,0,7.309-3.271,7.309-7.308s-3.271-7.308-7.309-7.308H96.873
		c-24.478,0-44.391,17.728-44.391,39.518v6.767v1.897c0,23.23,21.16,44.389,44.391,44.389h70.105c4.037,0,7.309-3.271,7.309-7.307
		c0-4.037-3.271-7.309-7.309-7.309H96.873c-13.208,0-26.193-11.398-29.143-24.361h70.016c4.036,0,7.309-3.271,7.309-7.309
		c0-4.036-3.272-7.308-7.309-7.308H67.133C67.499,55.589,82.727,46.286,96.873,46.286z"/>
</g>
</svg>
