<?xml version="1.0" encoding="utf-8"?>
<!-- Generator: Adobe Illustrator 16.0.4, SVG Export Plug-In . SVG Version: 6.00 Build 0)  -->
<!DOCTYPE svg PUBLIC "-//W3C//DTD SVG 1.1//EN" "http://www.w3.org/Graphics/SVG/1.1/DTD/svg11.dtd">
<svg version="1.1" id="Layer_1" xmlns="http://www.w3.org/2000/svg" xmlns:xlink="http://www.w3.org/1999/xlink" x="0px" y="0px"
	 width="226.77px" height="155.91px" viewBox="0 0 226.77 155.91" enable-background="new 0 0 226.77 155.91" xml:space="preserve">
<g>
	<path d="M85.53,86.016c40.685-8.592,77.066-5.53,83.255-0.515c-0.636,3.553,1.439,7.111,4.97,8.242
		c0.741,0.236,1.491,0.351,2.229,0.351c3.094,0,5.965-1.979,6.959-5.082c1.457-4.556,0.437-9.228-2.807-12.813
		c-12.994-14.383-65.938-11.175-97.628-4.48c-17.028,3.596-22.953,2.146-24.583,1.469c0.056-0.178,0.126-0.36,0.2-0.502
		c1.939-3.474,0.741-7.874-2.714-9.881c-3.491-2.024-7.961-0.84-9.99,2.65c-2.349,4.046-3.686,10.712,0.275,16.188
		C51.176,89.209,63.829,90.603,85.53,86.016z"/>
</g>
</svg>
