<?xml version="1.0" encoding="utf-8"?>
<!-- Generator: Adobe Illustrator 16.0.4, SVG Export Plug-In . SVG Version: 6.00 Build 0)  -->
<!DOCTYPE svg PUBLIC "-//W3C//DTD SVG 1.1//EN" "http://www.w3.org/Graphics/SVG/1.1/DTD/svg11.dtd">
<svg version="1.1" id="Layer_1" xmlns="http://www.w3.org/2000/svg" xmlns:xlink="http://www.w3.org/1999/xlink" x="0px" y="0px"
	 width="226.77px" height="155.91px" viewBox="0 0 226.77 155.91" enable-background="new 0 0 226.77 155.91" xml:space="preserve">
<g>
	<path d="M63.182,101.824c1.221,2.702,3.881,4.3,6.663,4.3c1.006,0,2.029-0.209,3.003-0.65l88.917-40.196
		c2.689-1.215,4.383-3.924,4.297-6.872c-0.085-2.948-1.936-5.554-4.689-6.609L72.456,17.691c-3.776-1.452-7.995,0.438-9.44,4.207
		c-1.447,3.769,0.438,7.995,4.207,9.44l72.569,27.834L66.831,92.155C63.152,93.817,61.518,98.146,63.182,101.824z"/>
	<path d="M165.422,87.595c-1.654-3.681-5.98-5.32-9.664-3.668l-90.742,40.805c-3.681,1.656-5.325,5.982-3.668,9.664
		c1.218,2.709,3.883,4.313,6.67,4.313c1.001,0,2.02-0.207,2.994-0.646l90.745-40.805C165.435,95.603,167.079,91.276,165.422,87.595z
		"/>
</g>
</svg>
