<?xml version="1.0" encoding="utf-8"?>
<!-- Generator: Adobe Illustrator 16.0.4, SVG Export Plug-In . SVG Version: 6.00 Build 0)  -->
<!DOCTYPE svg PUBLIC "-//W3C//DTD SVG 1.1//EN" "http://www.w3.org/Graphics/SVG/1.1/DTD/svg11.dtd">
<svg version="1.1" id="Layer_1" xmlns="http://www.w3.org/2000/svg" xmlns:xlink="http://www.w3.org/1999/xlink" x="0px" y="0px"
	 width="226.77px" height="155.91px" viewBox="0 0 226.77 155.91" enable-background="new 0 0 226.77 155.91" xml:space="preserve">
<path d="M158.602,32.755c-2.09-2.09-5.5-2.09-7.59,0L136.38,47.386H72.437c-2.97,0-5.363,2.393-5.363,5.363s2.393,5.363,5.363,5.363
	h53.217l-14.301,14.301H72.437c-2.97,0-5.363,2.393-5.363,5.363c0,2.97,2.393,5.362,5.363,5.362h28.19L86.326,97.44H72.437
	c-2.97,0-5.363,2.393-5.363,5.362c0,2.971,2.393,5.363,5.363,5.363h3.135l-7.398,7.398c-2.09,2.09-2.09,5.5,0,7.591
	c1.045,1.045,2.42,1.567,3.795,1.567s2.75-0.522,3.795-1.567l14.961-14.962h60.368c2.971,0,5.363-2.393,5.363-5.362
	s-2.393-5.363-5.363-5.363h-49.614l14.302-14.301h35.34c2.971,0,5.363-2.394,5.363-5.363c0-2.97-2.393-5.363-5.363-5.363h-24.614
	l14.301-14.301h10.286c2.971,0,5.363-2.393,5.363-5.363c0-2.833-2.2-5.115-4.979-5.335l7.068-7.068
	C160.692,38.256,160.692,34.845,158.602,32.755z"/>
</svg>
