<?xml version="1.0" encoding="utf-8"?>
<!-- Generator: Adobe Illustrator 16.0.4, SVG Export Plug-In . SVG Version: 6.00 Build 0)  -->
<!DOCTYPE svg PUBLIC "-//W3C//DTD SVG 1.1//EN" "http://www.w3.org/Graphics/SVG/1.1/DTD/svg11.dtd">
<svg version="1.1" id="Layer_1" xmlns="http://www.w3.org/2000/svg" xmlns:xlink="http://www.w3.org/1999/xlink" x="0px" y="0px"
	 width="226.77px" height="155.91px" viewBox="0 0 226.77 155.91" enable-background="new 0 0 226.77 155.91" xml:space="preserve">
<g>
	<path d="M155.271,124.723c2.255,0,4.07-1.815,4.07-4.07v-14.631c0-2.256-1.815-4.07-4.07-4.07s-4.07,1.814-4.07,4.07v3.245h-40.648
		c0.138-0.248,0.248-0.522,0.248-0.825c0-1.705-0.138-3.438-0.413-5.115c-0.138-0.88-0.962-1.513-1.87-1.348
		c-0.88,0.138-1.485,0.962-1.348,1.87c0.248,1.513,0.357,3.053,0.357,4.593c0,0.303,0.11,0.577,0.248,0.825H82.857V79.784
		c1.402,0.22,2.805,0.522,4.152,0.935c0.165,0.056,0.33,0.083,0.468,0.083c0.688,0,1.348-0.44,1.567-1.155
		c0.275-0.853-0.22-1.76-1.072-2.035c-1.65-0.495-3.328-0.88-5.006-1.1c-0.027,0-0.055,0-0.082,0V39.328h3.245
		c2.255,0,4.07-1.815,4.07-4.07s-1.815-4.07-4.07-4.07H71.499c-2.256,0-4.07,1.815-4.07,4.07s1.814,4.07,4.07,4.07h3.245v74.036
		c0,2.255,1.815,4.07,4.07,4.07h72.413v3.218C151.2,122.907,153.016,124.723,155.271,124.723z"/>
	<path d="M90.585,80.224c-0.385,0.798-0.055,1.788,0.743,2.173c1.375,0.688,2.695,1.458,3.96,2.365
		c0.275,0.192,0.605,0.303,0.936,0.303c0.522,0,1.018-0.247,1.319-0.688c0.523-0.742,0.358-1.76-0.385-2.283
		c-1.402-0.989-2.888-1.87-4.4-2.612C91.933,79.097,90.971,79.427,90.585,80.224z"/>
	<path d="M104.474,89.272c-1.018-1.375-2.145-2.668-3.383-3.878c-0.632-0.633-1.677-0.605-2.31,0.027s-0.605,1.678,0.027,2.311
		c1.1,1.072,2.117,2.255,3.025,3.492c0.33,0.44,0.825,0.66,1.32,0.66c0.33,0,0.688-0.109,0.962-0.33
		C104.859,91.005,104.996,89.987,104.474,89.272z"/>
	<path d="M106.097,99.365c0.22,0.688,0.853,1.128,1.54,1.128c0.165,0,0.33-0.027,0.495-0.082c0.853-0.275,1.32-1.211,1.045-2.063
		c-0.522-1.622-1.21-3.218-1.98-4.73c-0.412-0.797-1.402-1.1-2.2-0.688c-0.797,0.413-1.1,1.403-0.688,2.2
		C104.996,96.478,105.602,97.908,106.097,99.365z"/>
	<g>
		<path d="M113.109,84.734c-0.412-0.247-0.715-0.688-0.715-1.237c0-0.771,0.633-1.375,1.431-1.375c0.302,0,0.55,0.109,0.77,0.247
			c0.715,0.413,1.32,0.605,2.173,0.605c1.678,0,2.585-1.266,2.777-3.108c-0.66,0.578-1.595,0.936-2.777,0.936
			c-2.971,0-4.868-1.65-4.868-4.4v-0.027c0-2.751,2.118-4.786,5.198-4.786c1.843,0,2.915,0.44,3.933,1.485
			c0.963,0.963,1.623,2.448,1.623,5.144v0.027c0.027,4.455-2.035,7.48-5.94,7.48C115.2,85.725,114.127,85.367,113.109,84.734z
			 M119.628,76.291v-0.027c0-1.21-0.908-2.09-2.393-2.09c-1.485,0-2.311,0.853-2.311,2.062v0.027c0,1.21,0.907,2.062,2.393,2.062
			S119.628,77.474,119.628,76.291z"/>
		<path d="M124.798,78.684v-0.027c0-3.96,2.448-7.068,6.078-7.068c3.603,0,6.051,3.054,6.051,7.014v0.027
			c0,3.96-2.448,7.068-6.078,7.068C127.219,85.725,124.798,82.645,124.798,78.684z M133.874,78.684v-0.027
			c0-2.475-1.21-4.345-2.998-4.345c-1.787,0-2.97,1.814-2.97,4.317v0.027c0,2.503,1.183,4.346,2.997,4.346
			C132.719,83.002,133.874,81.159,133.874,78.684z"/>
		<path d="M138.797,74.751v-0.027c0-1.65,1.32-2.998,3.025-2.998s2.997,1.32,2.997,2.971v0.027c0,1.65-1.319,2.998-3.024,2.998
			C140.062,77.722,138.797,76.401,138.797,74.751z M138.879,79.427c0-0.357,0.303-0.633,0.633-0.633h4.565
			c0.357,0,0.633,0.303,0.633,0.633c0,0.357-0.303,0.632-0.633,0.632h-4.565C139.182,80.087,138.879,79.784,138.879,79.427z
			 M143.225,74.751v-0.027c0-0.853-0.577-1.595-1.43-1.595s-1.376,0.715-1.376,1.567v0.027c0,0.853,0.578,1.595,1.431,1.595
			S143.225,75.576,143.225,74.751z"/>
	</g>
</g>
</svg>
