<?xml version="1.0" encoding="utf-8"?>
<!-- Generator: Adobe Illustrator 16.0.4, SVG Export Plug-In . SVG Version: 6.00 Build 0)  -->
<!DOCTYPE svg PUBLIC "-//W3C//DTD SVG 1.1//EN" "http://www.w3.org/Graphics/SVG/1.1/DTD/svg11.dtd">
<svg version="1.1" id="Layer_1" xmlns="http://www.w3.org/2000/svg" xmlns:xlink="http://www.w3.org/1999/xlink" x="0px" y="0px"
	 width="50px" height="50px" viewBox="0 0 50 50" enable-background="new 0 0 50 50" xml:space="preserve">
<path d="M19.975,24.037c0.633,2.857,5.986,6.248,6.214,6.393c0.082,0.051,0.174,0.076,0.266,0.076s0.186-0.025,0.267-0.076
	c0.228-0.145,5.58-3.533,6.2-6.344c0.135-0.398,0.202-0.814,0.202-1.232c0-1.451-0.792-2.789-2.064-3.489
	c-1.459-0.81-3.387-0.568-4.604,0.543c-1.217-1.109-3.137-1.353-4.604-0.543c-1.271,0.7-2.062,2.036-2.062,3.487
	C19.788,23.275,19.855,23.691,19.975,24.037z M22.333,20.238c0.44-0.242,0.938-0.371,1.438-0.371c0.891,0,1.729,0.395,2.299,1.082
	c0.189,0.229,0.579,0.229,0.77,0c0.892-1.076,2.518-1.387,3.735-0.711c0.956,0.527,1.549,1.529,1.549,2.615
	c0,0.311-0.05,0.619-0.164,0.967c-0.426,1.922-3.896,4.537-5.505,5.59c-1.608-1.053-5.079-3.67-5.518-5.641
	c-0.099-0.293-0.148-0.603-0.148-0.918C20.788,21.766,21.38,20.764,22.333,20.238z M27.839,20.953c0-0.275,0.225-0.5,0.5-0.5
	c0.495,0,0.986,0.127,1.419,0.367c0.94,0.518,1.526,1.506,1.526,2.58c0,0.309-0.05,0.615-0.147,0.912
	c-0.07,0.209-0.266,0.342-0.476,0.342c-0.052,0-0.104-0.008-0.158-0.025c-0.262-0.086-0.403-0.369-0.316-0.631
	c0.064-0.195,0.098-0.396,0.098-0.598c0-0.709-0.387-1.361-1.009-1.703c-0.287-0.16-0.61-0.244-0.937-0.244
	C28.062,21.453,27.839,21.23,27.839,20.953z M34.614,32.473l-2.084,2.084c-0.098,0.099-0.226,0.146-0.354,0.146
	c-0.128,0-0.256-0.049-0.354-0.146c-0.195-0.195-0.195-0.512,0-0.707l1.231-1.229h-15.23c-0.276,0-0.5-0.226-0.5-0.5V16.997
	l-1.231,1.231c-0.194,0.195-0.512,0.195-0.707,0c-0.194-0.194-0.194-0.512,0-0.707l2.084-2.084c0.188-0.188,0.521-0.188,0.707,0
	l2.086,2.084c0.194,0.195,0.194,0.513,0,0.707c-0.099,0.099-0.227,0.146-0.354,0.146s-0.256-0.049-0.354-0.146l-1.23-1.229V31.62
	h14.73l-1.231-1.231c-0.195-0.195-0.195-0.513,0-0.707c0.195-0.195,0.512-0.195,0.707,0l2.084,2.086
	C34.811,31.961,34.811,32.277,34.614,32.473z"/>
</svg>
