<?xml version="1.0" encoding="utf-8"?>
<!-- Generator: Adobe Illustrator 16.0.0, SVG Export Plug-In . SVG Version: 6.00 Build 0)  -->
<!DOCTYPE svg PUBLIC "-//W3C//DTD SVG 1.1//EN" "http://www.w3.org/Graphics/SVG/1.1/DTD/svg11.dtd">
<svg version="1.1" id="Layer_1" xmlns="http://www.w3.org/2000/svg" xmlns:xlink="http://www.w3.org/1999/xlink" x="0px" y="0px"
	 width="96px" height="96px" viewBox="0 0 96 96" enable-background="new 0 0 96 96" xml:space="preserve">
<path d="M82.22,13.707C77.734,8.892,72.025,5.64,65.223,3.899V1.719H22.178l0,2.515H3.911v17.356h17.938l-6.829,5.527
	c-2.916,2.36-3.365,6.636-1.005,9.552c1.342,1.657,3.304,2.517,5.283,2.517c1.5,0,3.012-0.495,4.269-1.514l7.362-5.96
	c2.287,1.598,4.998,2.623,7.934,2.876v16.419c0,3.751,3.041,6.791,6.792,6.791c3.751,0,6.791-3.04,6.791-6.791V34.588
	c6.326-0.544,11.619-4.686,13.827-10.37c0.912,0.554,1.786,1.137,2.616,1.747c3.408,2.51,5.577,8.263,5.08,15.026
	c0,7.479-2.555,15.008-5.613,21.346h-37.78v9.055h32.692c-2.856,4.45-5.167,7.217-5.167,7.217H8.69v15.674h83.364V78.607V41.894
	C92.201,38.951,92.351,24.585,82.22,13.707z"/>
</svg>
