<?xml version="1.0" encoding="utf-8"?>
<!-- Generator: Adobe Illustrator 16.0.4, SVG Export Plug-In . SVG Version: 6.00 Build 0)  -->
<!DOCTYPE svg PUBLIC "-//W3C//DTD SVG 1.1//EN" "http://www.w3.org/Graphics/SVG/1.1/DTD/svg11.dtd">
<svg version="1.1" id="Layer_1" xmlns="http://www.w3.org/2000/svg" xmlns:xlink="http://www.w3.org/1999/xlink" x="0px" y="0px"
	 width="226.77px" height="155.91px" viewBox="0 0 226.77 155.91" enable-background="new 0 0 226.77 155.91" xml:space="preserve">
<g>
	<path d="M147.489,108.711c4.037,0,7.309-3.272,7.309-7.309c0-4.037-3.271-7.309-7.309-7.309h-26.797V81.913
		c0-4.036-3.271-7.308-7.309-7.308c-4.036,0-7.308,3.272-7.308,7.308v12.181H79.279c-4.037,0-7.308,3.271-7.308,7.309
		c0,4.036,3.271,7.309,7.308,7.309h26.797v9.744H79.279c-4.037,0-7.308,3.271-7.308,7.308c0,4.037,3.271,7.309,7.308,7.309h26.797
		v9.744c0,4.036,3.271,7.309,7.308,7.309c4.037,0,7.309-3.272,7.309-7.309v-9.744h26.797c4.037,0,7.309-3.271,7.309-7.309
		c0-4.036-3.271-7.308-7.309-7.308h-26.797v-9.744H147.489z"/>
	<path d="M73.496,72.369c1.221,2.702,3.881,4.3,6.665,4.3c1.006,0,2.029-0.209,3.006-0.65l67.334-30.439
		c2.687-1.215,4.38-3.924,4.295-6.872c-0.086-2.948-1.935-5.554-4.688-6.609L82.775,6.271c-3.761-1.44-7.996,0.438-9.44,4.207
		c-1.447,3.769,0.438,7.995,4.207,9.439l50.985,19.557L77.15,62.7C73.469,64.361,71.834,68.69,73.496,72.369z"/>
</g>
</svg>
