<?xml version="1.0" encoding="utf-8"?>
<!-- Generator: Adobe Illustrator 16.0.4, SVG Export Plug-In . SVG Version: 6.00 Build 0)  -->
<!DOCTYPE svg PUBLIC "-//W3C//DTD SVG 1.1//EN" "http://www.w3.org/Graphics/SVG/1.1/DTD/svg11.dtd">
<svg version="1.1" id="Layer_1" xmlns="http://www.w3.org/2000/svg" xmlns:xlink="http://www.w3.org/1999/xlink" x="0px" y="0px"
	 width="226.77px" height="155.91px" viewBox="0 0 226.77 155.91" enable-background="new 0 0 226.77 155.91" xml:space="preserve">
<g>
	<path d="M72.712,120.407h22.895l-6.363,6.363c-2.383,2.381-2.383,6.245,0,8.626c1.19,1.192,2.753,1.788,4.313,1.788
		c1.56,0,3.124-0.596,4.313-1.788l14.99-14.989h41.196c3.37,0,6.102-2.731,6.102-6.101c0-3.37-2.731-6.102-6.102-6.102h-28.994
		l4.329-4.329c2.384-2.381,2.384-6.245,0-8.626c-2.382-2.384-6.245-2.384-8.626,0l-12.957,12.956H72.713
		c-3.37,0-6.101,2.73-6.101,6.101C66.612,117.676,69.343,120.407,72.712,120.407z"/>
	<path d="M73.117,22.644c-1.208,3.146,0.366,6.675,3.512,7.88l60.58,23.236L76.3,81.295c-3.071,1.389-4.434,5.001-3.046,8.071
		c1.019,2.256,3.239,3.592,5.564,3.592c0.84,0,1.694-0.176,2.509-0.546l74.227-33.554c2.243-1.013,3.657-3.276,3.585-5.737
		c-0.07-2.46-1.614-4.635-3.912-5.517L81,19.134C77.858,17.923,74.323,19.498,73.117,22.644z"/>
</g>
</svg>
