<?xml version="1.0" encoding="utf-8"?>
<!-- Generator: Adobe Illustrator 16.0.0, SVG Export Plug-In . SVG Version: 6.00 Build 0)  -->
<!DOCTYPE svg PUBLIC "-//W3C//DTD SVG 1.1//EN" "http://www.w3.org/Graphics/SVG/1.1/DTD/svg11.dtd">
<svg version="1.1" id="Layer_1" xmlns="http://www.w3.org/2000/svg" xmlns:xlink="http://www.w3.org/1999/xlink" x="0px" y="0px"
	 width="96px" height="96px" viewBox="0 0 96 96" enable-background="new 0 0 96 96" xml:space="preserve">
<path d="M78.953,19.651v-1.048h-8.447v1.048h-5.835v-5.453c0-2.574-2.095-4.668-4.668-4.668H35.997
	c-2.573,0-4.668,2.094-4.668,4.668v5.453h-6.002v-1.048H16.88v1.048H1.434v2.73v58.682v2.827h2.667v2.581h13.892V83.89h59.863v2.581
	h13.892V83.89h2.819v-2.827V22.381v-2.73H78.953z M35.33,14.198c0-0.368,0.3-0.667,0.667-0.667h24.006
	c0.367,0,0.667,0.299,0.667,0.667v5.453H35.33V14.198z M60.058,69.427c2.308,0,4.524-0.395,6.591-1.112
	c-3.876,2.828-8.651,4.5-13.816,4.5c-12.967,0-23.48-10.513-23.48-23.481s10.514-23.481,23.48-23.481c5.165,0,9.94,1.672,13.816,4.5
	c-2.066-0.717-4.283-1.112-6.591-1.112c-11.099,0-20.094,8.998-20.094,20.094C39.964,60.43,48.959,69.427,60.058,69.427z"/>
</svg>
