<?xml version="1.0" encoding="utf-8"?>
<!-- Generator: Adobe Illustrator 16.0.4, SVG Export Plug-In . SVG Version: 6.00 Build 0)  -->
<!DOCTYPE svg PUBLIC "-//W3C//DTD SVG 1.1//EN" "http://www.w3.org/Graphics/SVG/1.1/DTD/svg11.dtd">
<svg version="1.1" id="Layer_1" xmlns="http://www.w3.org/2000/svg" xmlns:xlink="http://www.w3.org/1999/xlink" x="0px" y="0px"
	 width="226.77px" height="155.91px" viewBox="0 0 226.77 155.91" enable-background="new 0 0 226.77 155.91" xml:space="preserve">
<g>
	<path d="M141.396,40.816h-39.493v-8.829c0-0.302-0.165-0.577-0.44-0.715c-0.275-0.138-0.605-0.11-0.853,0.055l-5.473,4.4
		l-5.143-4.4c-0.248-0.165-0.578-0.193-0.853-0.055s-0.44,0.413-0.44,0.715l0.027,8.829h-3.3c-1.815,0-3.3,1.485-3.3,3.3v77.308
		c0,1.815,1.485,3.301,3.3,3.301h55.912c1.815,0,3.3-1.485,3.3-3.301V44.117C144.669,42.301,143.211,40.816,141.396,40.816z
		 M128.222,86.882c0,1.815-1.484,3.301-3.3,3.301h-23.019c-1.815,0-3.3-1.485-3.3-3.301V65.486c0-1.815,1.485-3.3,3.3-3.3h23.019
		c1.815,0,3.3,1.485,3.3,3.3V86.882z"/>
</g>
<g>
	<path d="M104.639,71.011c0-1.072,0.853-1.925,1.925-1.925h0.413c0.825,0,1.403,0.412,1.76,0.989l4.648,7.563l4.676-7.591
		c0.412-0.66,0.962-0.962,1.732-0.962h0.412c1.072,0,1.926,0.853,1.926,1.925v13.889c0,1.072-0.854,1.925-1.926,1.925
		c-1.045,0-1.897-0.88-1.897-1.925v-8.719l-3.383,5.171c-0.413,0.604-0.907,0.963-1.595,0.963c-0.688,0-1.21-0.386-1.595-0.963
		l-3.328-5.115v8.69c0,1.045-0.853,1.87-1.897,1.87c-1.045,0-1.87-0.825-1.87-1.87V71.011z"/>
</g>
</svg>
