<?xml version="1.0" encoding="utf-8"?>
<!-- Generator: Adobe Illustrator 16.0.4, SVG Export Plug-In . SVG Version: 6.00 Build 0)  -->
<!DOCTYPE svg PUBLIC "-//W3C//DTD SVG 1.1//EN" "http://www.w3.org/Graphics/SVG/1.1/DTD/svg11.dtd">
<svg version="1.1" id="Layer_1" xmlns="http://www.w3.org/2000/svg" xmlns:xlink="http://www.w3.org/1999/xlink" x="0px" y="0px"
	 width="50px" height="50px" viewBox="0 0 50 50" enable-background="new 0 0 50 50" xml:space="preserve">
<g>
	<polygon points="28.548,11.275 25.863,11.275 25.863,9.486 24.137,9.486 24.137,11.275 22.568,11.275 22.568,8.84 25.622,8.84 
		25.622,7.977 21.706,7.977 21.706,11.275 21.452,11.275 21.452,13.001 28.548,13.001 	"/>
	<rect x="21.452" y="13.761" width="7.097" height="1.726"/>
	<rect x="21.452" y="16.246" width="7.097" height="1.726"/>
	<polygon points="29.171,22.285 29.171,18.834 20.829,18.834 20.829,22.285 22.137,22.285 22.137,23.867 20.829,23.867 
		20.829,27.318 22.412,27.318 22.412,37.891 23.927,37.891 23.927,39.398 24.137,39.398 24.137,40.298 23.927,40.298 23.927,42.023 
		26.073,42.023 26.073,40.298 25.863,40.298 25.863,39.398 26.073,39.398 26.073,37.891 27.588,37.891 27.588,27.318 29.171,27.318 
		29.171,23.867 27.863,23.867 27.863,22.285 	"/>
</g>
</svg>
