<?xml version="1.0" encoding="utf-8"?>
<!-- Generator: Adobe Illustrator 16.0.4, SVG Export Plug-In . SVG Version: 6.00 Build 0)  -->
<!DOCTYPE svg PUBLIC "-//W3C//DTD SVG 1.1//EN" "http://www.w3.org/Graphics/SVG/1.1/DTD/svg11.dtd">
<svg version="1.1" id="Layer_1" xmlns="http://www.w3.org/2000/svg" xmlns:xlink="http://www.w3.org/1999/xlink" x="0px" y="0px"
	 width="50px" height="50px" viewBox="0 0 50 50" enable-background="new 0 0 50 50" xml:space="preserve">
<path d="M40.983,22.435H39.78v-4.222h-2.407l-3.386-5.844H20.187l-3.248,5.61l-6.195-4.541l-0.592,0.807l5.412,3.968H9.946v4.222
	h-0.93v2h0.93v1.543h4.843c0.239,1.391,1.448,2.455,2.907,2.455c1.461,0,2.668-1.064,2.906-2.455h1.491v0.799h1.407v9.854H20.46v1
	h9.082v-1h-3.041v-9.854h1.406v-0.799h1.842c0.238,1.391,1.445,2.455,2.904,2.455s2.668-1.064,2.908-2.455h4.219v-1.543h1.203
	V22.435z M17.696,27.434c-1.079,0-1.959-0.877-1.959-1.956c0-1.08,0.88-1.957,1.959-1.957c1.08,0,1.957,0.877,1.957,1.957
	C19.653,26.557,18.776,27.434,17.696,27.434z M32.653,27.434c-1.078,0-1.955-0.877-1.955-1.956c0-1.08,0.877-1.957,1.955-1.957
	c1.08,0,1.959,0.877,1.959,1.957C34.612,26.557,33.733,27.434,32.653,27.434z M38.78,24.978h-3.219
	c-0.24-1.394-1.447-2.457-2.908-2.457c-1.459,0-2.666,1.063-2.904,2.457h-9.146c-0.238-1.394-1.445-2.457-2.906-2.457
	s-2.668,1.063-2.907,2.457h-3.843v-5.765h6.434l3.383-5.844h12.649l3.385,5.844h1.984L38.78,24.978L38.78,24.978z M33.153,15.422
	l2.174,3.752h-2.174V15.422z M26.481,14.622h5.672v4.553h-5.672V14.622z M21.485,14.622h3.996v4.553h-6.633L21.485,14.622z"/>
</svg>
