<?xml version="1.0" encoding="utf-8"?>
<!-- Generator: Adobe Illustrator 16.0.0, SVG Export Plug-In . SVG Version: 6.00 Build 0)  -->
<!DOCTYPE svg PUBLIC "-//W3C//DTD SVG 1.1//EN" "http://www.w3.org/Graphics/SVG/1.1/DTD/svg11.dtd">
<svg version="1.1" id="Layer_1" xmlns="http://www.w3.org/2000/svg" xmlns:xlink="http://www.w3.org/1999/xlink" x="0px" y="0px"
	 width="96px" height="96px" viewBox="0 0 96 96" enable-background="new 0 0 96 96" xml:space="preserve">
<g>
	<path fill-rule="evenodd" clip-rule="evenodd" d="M49.736,46.098c2.948,0.001,5.897,0,8.846,0c0.07,0,0.141,0.001,0.211,0
		c0.032,0,0.062-0.003,0.092-0.006c0.011,0,0.019-0.006,0.029-0.008c0.02-0.004,0.057-0.045,0.06-0.063
		c0.019-0.121,0.008-0.243,0.008-0.364c0.003-10.779,0.003-21.56,0.003-32.339c0-0.103-0.003-0.204,0-0.306
		c0-0.04,0-0.08,0.003-0.121c0.003-0.019,0.008-0.04,0.019-0.057c0.008-0.016,0.027-0.035,0.043-0.039
		c0.09-0.023,0.182-0.014,0.273-0.014c1.155-0.001,2.309-0.001,3.464-0.001c0.03,0,0.063,0.001,0.092,0
		c0.235-0.003,0.246,0.016,0.246,0.231c0,0.062,0,0.122,0,0.183c0,1.701,0,3.403,0,5.106c0,3.738,0,7.477,0,11.215l0,0
		c0,1.064,0,2.128,0,3.191c0,4.387,0,8.773,0,13.161c0,0.081,0,0.162,0.003,0.243c0,0.029,0.005,0.06,0.008,0.09
		c0.005,0.021,0.04,0.056,0.062,0.06c0.104,0.017,0.203,0.01,0.306,0.01c2.997,0,5.997,0,8.997,0c0.081,0,0.162-0.001,0.243-0.003
		c0.1,0,0.118-0.056,0.121-0.135c0.003-0.111,0.003-0.223,0.003-0.335c0.003-1.175,0.003-2.349,0.005-3.525
		c0-0.598,0.003-1.194,0.003-1.793c0-0.071,0.003-0.142,0.006-0.213c0-0.019,0.011-0.039,0.014-0.058
		c0.005-0.018,0.048-0.056,0.064-0.06c0.11-0.024,0.222-0.013,0.335-0.013c2.725,0,5.448,0,8.176,0c0.07,0,0.141,0,0.211,0
		c0.032,0.002,0.062,0.002,0.092,0.006c0.029,0.005,0.057,0.018,0.075,0.044c0.057,0.085,0.087,0.183,0.124,0.277
		c0.148,0.388,0.298,0.774,0.448,1.162c0.09,0.235,0.184,0.47,0.275,0.706c0.182,0.463,0.356,0.926,0.535,1.39
		c0.167,0.433,0.338,0.866,0.508,1.302c0.107,0.281,0.216,0.566,0.326,0.849c0.032,0.085,0.07,0.169,0.111,0.25
		c0.019,0.039,0.057,0.057,0.1,0.062c0.029,0.006,0.06,0.01,0.089,0.006c0.211-0.031,0.424-0.025,0.638-0.027
		c1.104-0.011,2.208-0.019,3.313-0.028c0.133-0.001,0.263-0.003,0.395-0.021c0.089-0.012,0.181-0.009,0.272-0.01
		c0.476-0.005,0.953-0.009,1.429-0.013c0.699-0.005,1.398-0.013,2.098-0.018c0.133-0.001,0.263,0,0.395-0.021
		c0.067-0.011,0.141-0.009,0.211-0.009c0.254-0.005,0.508-0.006,0.761-0.009c0.101-0.001,0.203-0.001,0.303-0.002
		c0.032-0.002,0.063-0.005,0.092-0.007c0.035-0.002,0.081-0.045,0.084-0.077c0.003-0.06,0.008-0.12,0.008-0.181
		c0-0.507,0-1.013,0-1.521c0-0.041,0-0.081,0-0.121c-0.003-0.063-0.019-0.119-0.046-0.176c-0.021-0.046-0.046-0.091-0.067-0.135
		c-0.103-0.187-0.202-0.375-0.305-0.563L71.832,1.803c-0.057-0.096-0.116-0.19-0.179-0.282c-0.016-0.024-0.043-0.044-0.075-0.045
		c-0.11-0.003-0.222-0.007-0.335-0.007c-11.5,0-23.084,0-34.587,0c-0.089,0-0.181,0-0.272,0.002c-0.029,0-0.06,0.005-0.089,0.008
		c-0.019,0.001-0.057,0.043-0.064,0.061c-0.012,0.039-0.012,0.08-0.014,0.12c-0.003,0.102,0.005,0.204-0.009,0.304
		c-0.016,0.131-0.019,0.262-0.019,0.395l-0.054,17.655c-0.003,0.354-0.003,0.71-0.006,1.063c0,0.05-0.005,0.102-0.011,0.151
		c0,0.025-0.049,0.05-0.067,0.038c-0.019-0.011-0.038-0.018-0.051-0.03c-0.276-0.255-0.56-0.501-0.829-0.761l-4.126-3.817
		c-0.009-0.008-0.017-0.015-0.024-0.021s-0.017-0.01-0.024-0.016c-0.019-0.012-0.07-0.012-0.087,0.004l-5.589,5.454
		c-0.095,0.094-0.191,0.18-0.289,0.271c-0.13,0.127-0.259,0.255-0.389,0.384c-0.021,0.021-0.038,0.047-0.057,0.071
		c-0.014,0.018-0.014,0.066,0,0.085c0.07,0.102,0.165,0.18,0.251,0.267c6.597,6.598,13.196,13.195,19.792,19.793
		c0.052,0.05,0.101,0.102,0.151,0.151c0.021,0.021,0.043,0.042,0.065,0.063c0.016,0.014,0.029,0.028,0.048,0.038
		c0.017,0.007,0.038,0.012,0.055,0.01c0.021-0.006,0.035-0.024,0.037-0.044c0.02-0.121,0.011-0.243,0.011-0.364
		c0-9.757,0-19.513,0-29.27c0-0.111,0-0.224,0-0.334c0-0.029,0.009-0.061,0.011-0.09c0.003-0.034,0.049-0.075,0.084-0.075
		c0.092-0.004,0.184-0.008,0.272-0.008c1.186-0.001,2.371-0.001,3.557,0c0.081,0,0.162,0,0.243,0.003c0.021,0,0.04,0.007,0.06,0.01
		c0.035,0.005,0.054,0.032,0.064,0.059c0.014,0.026,0.019,0.059,0.019,0.088c0.003,0.111,0.003,0.223,0.003,0.334
		c0,10.679,0,21.356,0,32.036c0,0.092,0,0.183,0,0.274c0,0.039,0.003,0.08,0.003,0.121c0.003,0.019,0.008,0.039,0.008,0.06
		c0.003,0.033,0.046,0.071,0.081,0.077C49.515,46.105,49.626,46.098,49.736,46.098z M72.92,21.527c0-0.081,0.003-0.162,0.008-0.242
		c0.003-0.043,0.033-0.072,0.073-0.09c0.017-0.008,0.035-0.017,0.057-0.02c0.1-0.016,0.2-0.032,0.297-0.057
		c0.098-0.023,0.203-0.023,0.297-0.058c0.222-0.03,0.44-0.078,0.659-0.116c0.032-0.006,0.084,0.021,0.1,0.056
		c0.027,0.064,0.058,0.13,0.084,0.194l4.652,12.004c0.011,0.028,0.017,0.058,0.021,0.087c0.006,0.02-0.032,0.063-0.054,0.065
		c-0.029,0.004-0.06,0.01-0.089,0.011c-0.06,0.001-0.122,0.001-0.181,0.001c-1.866,0-3.729,0-5.593-0.001
		c-0.092,0-0.184,0.007-0.272-0.011c-0.017-0.004-0.06-0.046-0.06-0.063c-0.003-0.021-0.011-0.041-0.011-0.06
		c-0.003-0.061-0.003-0.121-0.003-0.183L72.92,21.527z"/>
	<path fill-rule="evenodd" clip-rule="evenodd" d="M45.389,53.264c0-0.019-0.005-0.039-0.008-0.06c0-0.024-0.011-0.036-0.035-0.043
		c-0.019-0.005-0.038-0.005-0.054,0.008c-0.084,0.06-0.151,0.137-0.222,0.208c-1.074,1.075-2.149,2.149-3.224,3.225
		c-5.524,5.523-11.047,11.048-16.571,16.57c-0.064,0.065-0.13,0.129-0.191,0.195c-0.014,0.013-0.03,0.029-0.035,0.048
		c-0.006,0.018-0.011,0.042-0.003,0.057c0.027,0.057,0.075,0.095,0.119,0.138c0.583,0.606,1.177,1.2,1.755,1.813
		c0.613,0.647,1.247,1.274,1.86,1.921c0.61,0.647,1.25,1.271,1.857,1.923c0.257,0.273,0.524,0.537,0.786,0.805
		c0.049,0.051,0.103,0.1,0.151,0.148c0.019,0.018,0.07,0.021,0.086,0.008c0.038-0.032,0.078-0.063,0.113-0.099
		c0.257-0.246,0.514-0.491,0.768-0.737c0.067-0.063,0.129-0.129,0.199-0.188c0.133-0.11,0.254-0.232,0.378-0.351
		c0.2-0.189,0.395-0.38,0.595-0.569c0.064-0.063,0.129-0.126,0.196-0.188c0.114-0.103,0.225-0.204,0.335-0.31
		c0.251-0.237,0.494-0.481,0.748-0.713c0.329-0.301,0.648-0.612,0.97-0.92c0.072-0.07,0.143-0.144,0.222-0.21
		c0.184-0.157,0.355-0.33,0.531-0.498c0.073-0.07,0.146-0.141,0.219-0.209c0.017-0.014,0.032-0.025,0.052-0.031
		c0.021-0.007,0.046,0.001,0.048,0.019c0.022,0.111,0.012,0.223,0.012,0.334c0,6.159,0,12.319,0,18.48c0,0.101,0,0.202,0,0.303
		c0,0.031,0.002,0.062,0.005,0.091c0,0.011,0.006,0.021,0.008,0.03c0.003,0.02,0.041,0.055,0.063,0.059
		c0.081,0.017,0.162,0.01,0.243,0.01c2.563,0.002,5.125,0.002,7.69,0.002c0.069,0,0.14-0.002,0.213-0.005
		c0.019,0,0.04-0.002,0.057-0.012c0.019-0.008,0.035-0.023,0.043-0.039c0.011-0.018,0.02-0.038,0.02-0.059
		c0.002-0.11,0.002-0.223,0.002-0.333c0.003-6.748,0-13.494,0-20.242c0-6.707,0-13.414,0-20.121c0-0.111,0.003-0.224,0-0.335
		C45.389,53.345,45.389,53.305,45.389,53.264z"/>
	<path fill-rule="evenodd" clip-rule="evenodd" d="M94.384,50.318c0-0.031-0.005-0.062-0.011-0.091
		c-0.003-0.035-0.043-0.073-0.081-0.075c-0.04-0.003-0.081-0.007-0.121-0.007c-0.103-0.003-0.203-0.002-0.306-0.002
		c-6.988,0-13.979,0-20.97,0c-7.01,0-14.021,0-21.031,0c-0.101,0-0.203-0.001-0.303,0c-0.032,0.002-0.062,0.007-0.092,0.01
		c-0.024,0.001-0.035,0.015-0.035,0.04c0,0.01,0.003,0.02,0.006,0.027c0.037,0.063,0.094,0.106,0.143,0.156
		c0.526,0.521,1.051,1.043,1.577,1.563c0.165,0.165,0.329,0.329,0.497,0.493c0.164,0.161,0.337,0.319,0.502,0.483
		c1.661,1.648,3.324,3.297,4.984,4.943c0.187,0.186,0.381,0.363,0.57,0.549c1.522,1.512,3.048,3.025,4.574,4.537
		c0.315,0.314,0.64,0.621,0.955,0.935c1.526,1.511,3.052,3.022,4.574,4.537c0.33,0.328,0.67,0.647,1.002,0.976
		c0.2,0.199,0.402,0.399,0.603,0.599c0.148,0.147,0.164,0.141,0.315-0.011c0.063-0.064,0.127-0.128,0.191-0.193
		c1.686-1.684,3.367-3.366,5.05-5.05c0.187-0.187,0.373-0.373,0.559-0.56c0.052-0.05,0.101-0.1,0.148-0.151
		c0.017-0.015,0.024-0.032,0.038-0.048c0.014-0.021,0.014-0.066,0-0.087c-0.054-0.086-0.132-0.151-0.202-0.223
		c-1.147-1.146-2.293-2.292-3.44-3.438c-0.537-0.537-1.074-1.075-1.612-1.612c-0.057-0.057-0.11-0.117-0.164-0.177
		c-0.017-0.018-0.02-0.036-0.003-0.054c0.006-0.007,0.017-0.014,0.024-0.014c0.1-0.004,0.202-0.007,0.303-0.007
		c2.3-0.001,4.601-0.001,6.898-0.001c4.793,0,9.586,0,14.376,0c0.103,0,0.202,0.001,0.305,0c0.03,0,0.06-0.006,0.09-0.007
		c0.037-0.003,0.078-0.042,0.078-0.08c0.003-0.102,0.008-0.201,0.008-0.303c0-2.482,0-4.964,0-7.446
		C94.384,50.46,94.384,50.389,94.384,50.318z"/>
	<path fill-rule="evenodd" clip-rule="evenodd" d="M27.989,64.942c0.956-0.933,1.898-1.882,2.849-2.823
		c0.958-0.947,1.911-1.899,2.876-2.841c0.937-0.914,1.857-1.841,2.786-2.76c0.937-0.926,1.868-1.856,2.811-2.776
		c1.129-1.106,2.247-2.226,3.367-3.338c0.044-0.043,0.087-0.086,0.13-0.13c0.014-0.015,0.024-0.032,0.035-0.048
		c0.014-0.018,0.014-0.037,0-0.056c-0.006-0.007-0.014-0.014-0.021-0.015c-0.111-0.021-0.222-0.011-0.335-0.011
		c-6.737,0-13.474,0-20.211,0c-6.707,0-13.414,0-20.122,0c-0.081,0-0.162,0-0.242,0c-0.044,0-0.084,0-0.122,0
		c-0.021,0.001-0.04,0.002-0.062,0.004c-0.049,0.003-0.101,0.048-0.104,0.095c-0.002,0.101-0.005,0.202-0.005,0.304
		c-0.003,1.792-0.003,3.585-0.003,5.38c0,0.77,0,1.54,0.003,2.31c0,0.081,0,0.162,0,0.243c0.003,0.021,0.008,0.041,0.008,0.06
		c0.003,0.021,0.043,0.057,0.063,0.061c0.121,0.024,0.243,0.011,0.364,0.011c6.575,0.002,13.15,0.002,19.728,0.002
		c0.11,0,0.222,0,0.332,0.002c0.021,0,0.046,0,0.06,0.012c0.011,0.009,0.017,0.034,0.017,0.052c-0.006,0.031-0.03,0.055-0.052,0.076
		c-0.138,0.134-0.278,0.263-0.416,0.399c-1.461,1.447-2.921,2.895-4.382,4.342c-0.073,0.071-0.146,0.144-0.219,0.211
		c-0.219,0.198-0.422,0.409-0.63,0.617c-0.021,0.021-0.037,0.048-0.054,0.072c-0.014,0.02-0.011,0.066,0.006,0.087
		c0.014,0.016,0.024,0.033,0.037,0.048c0.26,0.271,0.519,0.542,0.78,0.81c0.563,0.57,1.124,1.138,1.686,1.709
		s1.126,1.138,1.682,1.715c0.497,0.52,1.008,1.025,1.516,1.537c0.035,0.037,0.069,0.071,0.107,0.106
		c0.014,0.016,0.03,0.026,0.046,0.04c0.027,0.024,0.084,0.025,0.113,0.005c0.09-0.067,0.162-0.151,0.243-0.229
		c0.883-0.878,1.766-1.757,2.654-2.633C26.201,66.708,27.09,65.819,27.989,64.942z"/>
	<path fill-rule="evenodd" clip-rule="evenodd" d="M1.616,44.658c0,0.366,0,0.73,0,1.095c0,0.07,0,0.142,0.003,0.212
		c0,0.031,0.003,0.062,0.005,0.092c0.003,0.038,0.041,0.079,0.076,0.083c0.119,0.019,0.24,0.009,0.361,0.009
		c6.667,0,13.331,0,19.998,0c6.656,0,13.312,0,19.965,0c0.103,0,0.203,0,0.306,0c0.029,0,0.059,0,0.092-0.001
		c0.008,0,0.019-0.003,0.029-0.005c0.019-0.003,0.032-0.017,0.035-0.039c0.003-0.01-0.003-0.021-0.008-0.027
		c-0.052-0.077-0.122-0.135-0.187-0.2c-0.519-0.513-1.037-1.026-1.556-1.538c-0.526-0.518-1.045-1.046-1.585-1.551
		c-0.162-0.152-0.318-0.313-0.478-0.47c-0.64-0.634-1.283-1.265-1.923-1.901c-0.637-0.637-1.29-1.258-1.934-1.891
		c-0.523-0.521-1.05-1.041-1.576-1.56s-1.045-1.048-1.585-1.552c-1.294-1.271-2.576-2.553-3.878-3.816
		c-0.808-0.783-1.602-1.578-2.4-2.369c-0.216-0.214-0.432-0.429-0.648-0.641c-0.227-0.219-0.453-0.433-0.678-0.654
		c-0.65-0.641-1.299-1.28-1.946-1.922c-0.057-0.057-0.116-0.114-0.173-0.17c-0.017-0.014-0.032-0.028-0.049-0.033
		c-0.019-0.007-0.043-0.011-0.06-0.004c-0.046,0.02-0.078,0.061-0.116,0.096c-0.394,0.395-0.785,0.788-1.18,1.183
		c-1.469,1.469-2.938,2.938-4.404,4.406c-0.072,0.072-0.15,0.136-0.207,0.222c-0.009,0.015-0.009,0.039-0.006,0.057
		c0.006,0.02,0.019,0.037,0.032,0.052c0.332,0.343,0.659,0.687,0.983,1.035c0.173,0.185,0.354,0.363,0.526,0.547
		c0.197,0.205,0.389,0.414,0.583,0.621c0.396,0.419,0.805,0.829,1.196,1.251c0.413,0.446,0.845,0.875,1.258,1.32
		c0.254,0.276,0.519,0.542,0.778,0.811c0.051,0.052,0.1,0.103,0.148,0.155c0.014,0.014,0.021,0.032,0.029,0.05
		c0.006,0.008,0.006,0.021,0.003,0.028c-0.006,0.023-0.019,0.038-0.04,0.038c-0.122,0.003-0.243,0.007-0.365,0.007
		c-6.311,0-12.62,0-18.934,0c-0.1,0-0.202,0-0.303,0.001c-0.029,0-0.062,0.002-0.092,0.004c-0.008,0.002-0.019,0.01-0.026,0.011
		c-0.02,0.003-0.057,0.045-0.063,0.063c-0.019,0.109-0.008,0.222-0.008,0.332C1.616,40.283,1.616,42.471,1.616,44.658z"/>
	<path fill-rule="evenodd" clip-rule="evenodd" d="M68.643,72.669c-0.575-0.588-1.149-1.171-1.72-1.762
		c-0.843-0.877-1.706-1.731-2.549-2.608c-0.926-0.963-1.877-1.904-2.803-2.868c-0.821-0.854-1.663-1.688-2.484-2.543
		c-0.899-0.935-1.822-1.846-2.719-2.781c-0.583-0.606-1.178-1.202-1.769-1.799c-0.3-0.302-0.589-0.614-0.886-0.919
		c-0.821-0.842-1.652-1.67-2.466-2.52c-0.51-0.535-1.034-1.057-1.555-1.584c-0.035-0.035-0.073-0.067-0.113-0.1
		c-0.006-0.006-0.017-0.008-0.024-0.008c-0.024,0.002-0.041,0.015-0.041,0.036c-0.003,0.122-0.008,0.243-0.008,0.364
		c0,6.747,0,13.493,0,20.239c0,6.737,0,13.474,0,20.21c0,0.102,0,0.202,0,0.304c0.003,0.031,0.003,0.061,0.005,0.092
		c0.003,0.019,0.006,0.04,0.017,0.057s0.03,0.032,0.046,0.038c0.1,0.022,0.202,0.012,0.303,0.012
		c1.946,0.002,3.891,0.002,5.835,0.002c0.67,0,1.337,0,2.006,0c0.06,0,0.122,0,0.184-0.002c0.03,0,0.06-0.003,0.09-0.005
		c0.051-0.003,0.103-0.048,0.103-0.094c0.002-0.121,0.005-0.243,0.005-0.364c0-6.332,0-12.662,0-18.994c0-0.102,0-0.203,0-0.305
		c0-0.029,0.003-0.061,0.006-0.09c0.002-0.021,0.014-0.039,0.037-0.042c0.017-0.001,0.041,0.003,0.055,0.014
		c0.035,0.021,0.064,0.049,0.094,0.077c0.33,0.3,0.656,0.601,0.986,0.901c0.021,0.021,0.043,0.042,0.067,0.063
		c0.28,0.23,0.537,0.492,0.813,0.73c0.225,0.19,0.432,0.397,0.653,0.591c0.238,0.207,0.462,0.426,0.697,0.634
		c0.334,0.295,0.658,0.601,0.988,0.9c0.067,0.062,0.138,0.118,0.21,0.175c0.057,0.047,0.113,0.047,0.162,0
		c0.073-0.069,0.146-0.14,0.219-0.21c0.688-0.688,1.374-1.377,2.063-2.064c1.093-1.097,2.189-2.192,3.286-3.289
		c0.078-0.078,0.156-0.157,0.234-0.237c0.021-0.021,0.038-0.049,0.054-0.071c0.014-0.02,0.011-0.067-0.002-0.087
		C68.694,72.73,68.67,72.697,68.643,72.669z"/>
</g>
</svg>
