<?xml version="1.0" encoding="utf-8"?>
<!-- Generator: Adobe Illustrator 16.0.0, SVG Export Plug-In . SVG Version: 6.00 Build 0)  -->
<!DOCTYPE svg PUBLIC "-//W3C//DTD SVG 1.1//EN" "http://www.w3.org/Graphics/SVG/1.1/DTD/svg11.dtd">
<svg version="1.1" id="Layer_1" xmlns="http://www.w3.org/2000/svg" xmlns:xlink="http://www.w3.org/1999/xlink" x="0px" y="0px"
	 width="96px" height="96px" viewBox="0 0 96 96" enable-background="new 0 0 96 96" xml:space="preserve">
<g>
	<path d="M48,1.797C22.482,1.797,1.797,22.482,1.797,48S22.482,94.203,48,94.203S94.203,73.518,94.203,48S73.518,1.797,48,1.797z
		 M48,83.703c-19.718,0-35.701-15.986-35.701-35.703c0-19.718,15.983-35.703,35.701-35.703S83.704,28.282,83.704,48
		C83.703,67.717,67.717,83.703,48,83.703z"/>
	<path d="M48,24.11c-13.194,0-23.889,10.695-23.889,23.89c0,13.193,10.694,23.89,23.889,23.89c13.193,0,23.89-10.696,23.89-23.89
		C71.89,34.806,61.193,24.11,48,24.11z M47.273,62.282c-3.114,0-6.854-0.637-9.76-1.904l1.244-5.818
		c2.337,0.688,5.764,1.321,8.619,1.321s3.426-0.581,3.426-2.168c0-1.745-0.311-2.169-5.191-2.962
		c-7.06-1.164-7.787-3.968-7.787-8.992c0-6.03,3.581-8.041,10.696-8.041c2.597,0,6.646,0.425,9.239,1.165l-0.881,6.188
		c-3.013-0.633-5.866-0.951-8.307-0.951c-2.492,0-3.063,0.369-3.063,1.904c0,1.851,0.259,2.116,4.88,2.962
		c7.581,1.373,8.098,3.174,8.098,8.357C58.486,59.267,56.412,62.282,47.273,62.282z"/>
</g>
</svg>
