<?xml version="1.0" encoding="utf-8"?>
<!-- Generator: Adobe Illustrator 16.0.4, SVG Export Plug-In . SVG Version: 6.00 Build 0)  -->
<!DOCTYPE svg PUBLIC "-//W3C//DTD SVG 1.1//EN" "http://www.w3.org/Graphics/SVG/1.1/DTD/svg11.dtd">
<svg version="1.1" id="Capa_1" xmlns="http://www.w3.org/2000/svg" xmlns:xlink="http://www.w3.org/1999/xlink" x="0px" y="0px"
	 width="21.619px" height="31.891px" viewBox="0 0 21.619 31.891" enable-background="new 0 0 21.619 31.891" xml:space="preserve">
<path d="M18.215,15.529h-0.087c-0.236-2.083-2.006-3.703-4.152-3.703c-0.742,0-1.438,0.192-2.045,0.533
	c-0.802-1.658-2.5-2.804-4.466-2.804c-2.737,0-4.957,2.219-4.957,4.957c0,0.379,0.044,0.748,0.125,1.104
	C1.125,15.966,0,17.314,0,18.931c0,1.879,1.524,3.404,3.404,3.404l0.554-0.021h13.656l0.601,0.021c1.882,0,3.404-1.523,3.404-3.404
	C21.62,17.052,20.097,15.529,18.215,15.529z M11.173,19.547l-1.579,1.58l-1.58-1.58l-1.823-1.824l1.578-1.581l1.825,1.827
	l4.259-4.257l1.58,1.578L11.173,19.547z"/>
</svg>
