<?xml version="1.0" encoding="utf-8"?>
<!-- Generator: Adobe Illustrator 16.0.0, SVG Export Plug-In . SVG Version: 6.00 Build 0)  -->
<!DOCTYPE svg PUBLIC "-//W3C//DTD SVG 1.1//EN" "http://www.w3.org/Graphics/SVG/1.1/DTD/svg11.dtd">
<svg version="1.1" id="Layer_2" xmlns="http://www.w3.org/2000/svg" xmlns:xlink="http://www.w3.org/1999/xlink" x="0px" y="0px"
	 width="96px" height="96px" viewBox="0 0 96 96" enable-background="new 0 0 96 96" xml:space="preserve">
<g>
	<path fill="#040604" d="M47.748,29.797c6.898-8.795,16.063-16.42,27.254-18.727C59.559-0.652,36.339-0.766,21,11.184
		C31.953,13.636,41.025,21.064,47.748,29.797z"/>
	<path fill="#040604" d="M15.405,15.746c-1.944,2.194-3.796,4.47-5.544,6.818c12.96,0.983,25.205,8.888,30.708,20.796
		c1.004-2.659,2.162-5.245,3.476-7.76C37.333,25.959,27.496,17.216,15.405,15.746z"/>
	<path fill="#040604" d="M86.132,22.513c-1.759-2.327-3.601-4.594-5.514-6.786C68.237,16.844,58.475,25.897,51.41,35.456
		c1.221,2.659,2.461,5.318,3.867,7.885C60.273,31.049,73.233,23.444,86.132,22.513z"/>
	<path fill="#040604" d="M6.686,28.111c-6.972,14.556-5.72,32.745,3.714,45.927c6.226,9.332,16.166,15.746,26.923,18.593
		c0.093-11.186-0.011-22.359,0.063-33.544C38.294,42.574,22.873,28.111,6.686,28.111z"/>
	<path fill="#040604" d="M89.307,28.101c-16.373-0.259-32.063,14.277-31.268,30.966c0.062,11.226-0.021,22.452,0.042,33.678
		c13.011-3.083,24.626-11.836,30.636-23.858C95.326,56.346,95.326,40.867,89.307,28.101z"/>
	<path fill="#040604" d="M47.748,42.451c-1.996,4.604-3.785,9.466-3.827,14.547c-0.279,12.208,0.154,24.417-0.124,36.625
		c2.606,0.135,5.213,0.155,7.819,0.093c0.01-11.897-0.021-23.795,0.021-35.704C51.668,52.6,49.899,47.354,47.748,42.451z"/>
</g>
</svg>
