<?xml version="1.0" encoding="utf-8"?>
<!-- Generator: Adobe Illustrator 17.0.0, SVG Export Plug-In . SVG Version: 6.00 Build 0)  -->
<!DOCTYPE svg PUBLIC "-//W3C//DTD SVG 1.1//EN" "http://www.w3.org/Graphics/SVG/1.1/DTD/svg11.dtd">
<svg version="1.1" id="Capa_1" xmlns="http://www.w3.org/2000/svg" xmlns:xlink="http://www.w3.org/1999/xlink" x="0px" y="0px"
	 width="11.627px" height="14.994px" viewBox="0 0 11.627 14.994" enable-background="new 0 0 11.627 14.994" xml:space="preserve">
<path d="M11.091,11.67c-0.47,0.246-1.519,0.58-2.543,0.58c-1.116,0-2.166-0.334-2.879-1.138c-0.336-0.378-0.581-0.893-0.737-1.562
	h5.602V7.965H4.62c0-0.111,0-0.222,0-0.357c0-0.246,0-0.468,0.021-0.693h5.893V5.332H4.977c0.158-0.58,0.378-1.093,0.715-1.45
	c0.69-0.827,1.674-1.206,2.723-1.206c0.98,0,1.918,0.291,2.498,0.536l0.623-2.543C10.733,0.313,9.53,0,8.19,0
	C6.07,0,4.284,0.847,3.036,2.299c-0.713,0.803-1.271,1.83-1.54,3.034H0v1.583h1.251c0,0.225-0.023,0.447-0.023,0.67
	c0,0.133,0,0.269,0,0.379H0V9.55h1.452c0.201,1.184,0.646,2.142,1.249,2.9c1.251,1.652,3.235,2.544,5.444,2.544
	c1.428,0,2.723-0.424,3.482-0.846C11.627,14.148,11.091,11.67,11.091,11.67z"/>
</svg>
