<?xml version="1.0" encoding="utf-8"?>
<!-- Generator: Adobe Illustrator 16.0.0, SVG Export Plug-In . SVG Version: 6.00 Build 0)  -->
<!DOCTYPE svg PUBLIC "-//W3C//DTD SVG 1.1//EN" "http://www.w3.org/Graphics/SVG/1.1/DTD/svg11.dtd">
<svg version="1.1" id="Layer_1" xmlns="http://www.w3.org/2000/svg" xmlns:xlink="http://www.w3.org/1999/xlink" x="0px" y="0px"
	 width="96px" height="96px" viewBox="0 0 96 96" enable-background="new 0 0 96 96" xml:space="preserve">
<path d="M84.034,73.778c0-0.485-0.049-0.958-0.121-1.424c0.703-1.135,0.775-2.611,0.06-3.851c-0.713-1.234-2.022-1.91-3.354-1.874
	c-0.74-0.598-1.575-1.079-2.479-1.427c-0.633-1.175-1.874-1.973-3.302-1.973c-1.428,0-2.67,0.798-3.303,1.973
	c-0.902,0.348-1.739,0.829-2.477,1.427c-0.326-0.009-0.651,0.027-0.965,0.102c-6.949-8.551-4.055-24.779-4.481-34.806
	c-0.273-6.418-1.38-13.534-6.41-18.045c-5.738-5.145-14.32-4.619-21.593-3.289h-2.607V8.219h8.17V4.251H33.03V1.332h-0.029h-3.765
	v2.919h-8.141v3.968h8.141v2.373h-2.771v7.783c-8.562,2.103-14.94,9.823-14.94,19.023V92.8c0,1.032,0.836,1.868,1.867,1.868h35.483
	c1.032,0,1.867-0.836,1.867-1.868V37.398c0-9.2-6.378-16.921-14.94-19.023v-3.083c7.106-1.381,16.279-2.192,20.48,4.76
	c3.496,5.786,2.812,13.92,2.736,20.383c-0.119,10.189-0.401,22.511,6.185,29.997c0.01,0.679,0.202,1.345,0.56,1.923
	c-0.072,0.466-0.122,0.938-0.122,1.424s0.049,0.959,0.122,1.425c-0.703,1.137-0.774,2.611-0.06,3.85
	c0.713,1.235,2.023,1.91,3.355,1.874c0.738,0.598,1.575,1.079,2.477,1.427c0.634,1.175,1.875,1.974,3.303,1.974
	c1.428,0,2.668-0.799,3.303-1.974c0.903-0.348,1.738-0.829,2.478-1.427c1.333,0.036,2.642-0.639,3.354-1.874
	c0.715-1.238,0.643-2.714-0.06-3.85C83.985,74.737,84.034,74.264,84.034,73.778z M74.838,77.178c-1.878,0-3.399-1.521-3.399-3.399
	c0-1.877,1.521-3.399,3.399-3.399c1.877,0,3.399,1.522,3.399,3.399C78.237,75.656,76.715,77.178,74.838,77.178z"/>
</svg>
