<?xml version="1.0" encoding="utf-8"?>
<!-- Generator: Adobe Illustrator 16.0.4, SVG Export Plug-In . SVG Version: 6.00 Build 0)  -->
<!DOCTYPE svg PUBLIC "-//W3C//DTD SVG 1.1//EN" "http://www.w3.org/Graphics/SVG/1.1/DTD/svg11.dtd">
<svg version="1.1" id="Layer_1" xmlns="http://www.w3.org/2000/svg" xmlns:xlink="http://www.w3.org/1999/xlink" x="0px" y="0px"
	 width="50px" height="50px" viewBox="0 0 50 50" enable-background="new 0 0 50 50" xml:space="preserve">
<path d="M21.161,28.664c0,0.275-0.224,0.5-0.5,0.5c-1.75,0-3.174-1.423-3.174-3.173c0-0.276,0.224-0.5,0.5-0.5
	c0.276,0,0.5,0.224,0.5,0.5c0,1.198,0.975,2.173,2.174,2.173C20.938,28.164,21.161,28.389,21.161,28.664z M33.578,27.732
	c-0.85,2.459-3.084,5.095-5.061,5.095c-0.279,0-0.546-0.052-0.795-0.155c-0.062-0.025-0.125-0.056-0.188-0.091
	c-0.063,0.036-0.126,0.065-0.191,0.092c-0.246,0.103-0.513,0.154-0.792,0.154c-1.33,0-2.776-1.196-3.839-2.728
	c-0.636,0.316-1.34,0.49-2.053,0.49c-2.536,0-4.6-2.062-4.6-4.599c0-2.35,3.757-7.966,4.186-8.598
	c0.093-0.138,0.215-0.209,0.414-0.22c0.164,0,0.317,0.08,0.411,0.214c0.066,0.096,1.592,2.303,2.794,4.7
	c1.179-0.429,2.284-0.329,3.171,0.278v-3.489c0-0.276,0.224-0.5,0.5-0.5c0.275,0,0.5,0.224,0.5,0.5v0.817
	c0.215-0.302,0.481-0.592,0.827-0.804c0.424-0.259,0.928-0.39,1.498-0.39c0.639,0,1.146,0.17,1.167,0.177
	c0.242,0.082,0.384,0.334,0.326,0.584c-0.015,0.065-0.378,1.612-1.521,2.312c-0.181,0.109-0.381,0.184-0.589,0.248
	c0.53-0.01,1.094,0.1,1.672,0.34C33.688,23.1,34.476,25.131,33.578,27.732z M28.479,20.94c0.435,0.054,0.981-0.006,1.333-0.221
	c0.458-0.281,0.747-0.809,0.906-1.198c-0.434-0.053-0.981,0.006-1.332,0.22C28.927,20.023,28.639,20.551,28.479,20.94z
	 M28.036,21.88v0.483c0.259-0.177,0.534-0.314,0.828-0.404c-0.011,0-0.021,0.004-0.031,0.004
	C28.521,21.963,28.244,21.922,28.036,21.88z M22.173,29.234c-0.274-0.492-0.507-1-0.68-1.502c-0.799-2.313-0.257-4.17,1.47-5.215
	c-0.799-1.59-1.762-3.122-2.3-3.941c-1.289,1.986-3.602,5.87-3.602,7.416c0,1.984,1.615,3.599,3.6,3.599
	C21.187,29.59,21.701,29.455,22.173,29.234z M31.034,23.084c-1.276-0.527-2.349-0.282-3.092,0.757
	c-0.005,0.008-0.017,0.01-0.022,0.018c-0.091,0.114-0.227,0.191-0.384,0.191c-0.077,0-0.148-0.021-0.214-0.051
	c-0.019-0.009-0.032-0.023-0.051-0.035c-0.044-0.028-0.083-0.06-0.117-0.101c-0.007-0.009-0.019-0.013-0.024-0.022
	c-0.746-1.038-1.817-1.286-3.092-0.757c-1.234,0.511-2.513,1.675-1.599,4.322c0.871,2.525,3.246,4.871,4.525,4.342
	c0.079-0.032,0.162-0.083,0.262-0.163c0.091-0.071,0.2-0.106,0.311-0.106c0.109,0,0.219,0.035,0.31,0.106
	c0.101,0.08,0.183,0.131,0.258,0.162c1.302,0.53,3.659-1.817,4.529-4.341C33.546,24.758,32.268,23.594,31.034,23.084z
	 M26.812,30.311c-0.092,0-0.456-0.119-1.032-0.664h-0.001c-0.779-0.739-1.46-1.808-1.822-2.858c-0.09-0.261-0.377-0.399-0.635-0.31
	c-0.261,0.09-0.4,0.375-0.31,0.635c0.418,1.214,1.176,2.4,2.08,3.257c0,0,0.001,0.001,0.001,0.002
	c0.454,0.428,1.119,0.938,1.72,0.938c0.276,0,0.5-0.225,0.5-0.5C27.313,30.534,27.089,30.311,26.812,30.311z"/>
</svg>
