<?xml version="1.0" encoding="utf-8"?>
<!-- Generator: Adobe Illustrator 16.0.0, SVG Export Plug-In . SVG Version: 6.00 Build 0)  -->
<!DOCTYPE svg PUBLIC "-//W3C//DTD SVG 1.1//EN" "http://www.w3.org/Graphics/SVG/1.1/DTD/svg11.dtd">
<svg version="1.1" id="Layer_1" xmlns="http://www.w3.org/2000/svg" xmlns:xlink="http://www.w3.org/1999/xlink" x="0px" y="0px"
	 width="96px" height="96px" viewBox="0 0 96 96" enable-background="new 0 0 96 96" xml:space="preserve">
<path d="M81.355,21.881v18.805H58.98c-1.925-3.053-4.826-5.417-8.271-6.669v-6.563h10.796c3.077,0,5.572-2.497,5.572-5.573
	c0-3.077-2.495-5.571-5.572-5.571H28.771c-3.077,0-5.573,2.494-5.573,5.571c0,3.076,2.496,5.573,5.573,5.573h10.795v6.563
	c-3.445,1.252-6.346,3.616-8.271,6.669h-8.793C11.748,40.686,3,49.436,3,60.188v16.714h25.073V65.759h53.282V79.69H93v-57.81H81.355
	z"/>
</svg>
