<?xml version="1.0" encoding="utf-8"?>
<!-- Generator: Adobe Illustrator 17.0.0, SVG Export Plug-In . SVG Version: 6.00 Build 0)  -->
<!DOCTYPE svg PUBLIC "-//W3C//DTD SVG 1.1//EN" "http://www.w3.org/Graphics/SVG/1.1/DTD/svg11.dtd">
<svg version="1.1" id="Capa_1" xmlns="http://www.w3.org/2000/svg" xmlns:xlink="http://www.w3.org/1999/xlink" x="0px" y="0px"
	 width="20.06px" height="14.573px" viewBox="0 0 20.06 14.573" enable-background="new 0 0 20.06 14.573" xml:space="preserve">
<path d="M17.833,7.516c0.257-0.633,0.402-1.326,0.402-2.053C18.235,2.445,15.789,0,12.771,0C9.753,0,7.306,2.445,7.306,5.463
	c0,0.727,0.146,1.42,0.403,2.053c-0.908,0.879-1.586,1.992-1.94,3.24c-0.017-0.01-0.031-0.018-0.048-0.029
	c-0.076-0.068-0.167-0.195-0.255-0.385c-0.085-0.201-0.189-0.426-0.28-0.746L5.109,9.34L5.016,9.049
	C4.94,8.844,4.851,8.602,4.702,8.375C4.633,8.262,4.561,8.15,4.487,8.045C4.41,7.953,4.33,7.871,4.25,7.787
	C4.17,7.703,4.09,7.619,4.008,7.545C3.925,7.482,3.841,7.42,3.759,7.357c-0.666-0.48-1.324-0.723-1.889-0.84
	C1.589,6.441,1.33,6.413,1.1,6.394C0.985,6.382,0.879,6.371,0.78,6.361c-0.099,0-0.188,0.002-0.271,0.002
	C0.185,6.371,0,6.375,0,6.375s0.297,0.242,0.547,0.486C0.674,6.978,0.79,7.115,0.872,7.218c0.08,0.102,0.134,0.168,0.134,0.168
	S0.935,7.431,0.828,7.499c-0.104,0.064-0.237,0.156-0.364,0.27C0.209,7.982,0,8.195,0,8.195s0.131,0.023,0.359,0.062
	c0.058,0.01,0.119,0.02,0.188,0.031C0.612,8.309,0.684,8.33,0.76,8.353c0.152,0.043,0.321,0.09,0.489,0.176
	c0.347,0.135,0.712,0.383,0.96,0.658l0.094,0.1C2.324,9.322,2.34,9.357,2.36,9.391l0.06,0.094c0.001,0.027,0.004,0.053,0.011,0.074
	c0.02,0.039,0.021,0.102,0.035,0.197l0.042,0.377c0.031,0.303,0.071,0.666,0.155,1.063c0.096,0.408,0.241,0.85,0.495,1.279
	c0.259,0.42,0.63,0.809,1.001,1.074c0.186,0.135,0.373,0.268,0.552,0.35c0.177,0.084,0.363,0.191,0.521,0.238
	c0.149,0.051,0.29,0.1,0.429,0.145c0.021,0.098,0.041,0.195,0.065,0.291H19.82c0.15-0.584,0.239-1.191,0.239-1.822
	C20.057,10.696,19.202,8.842,17.833,7.516z M16.295,6.373c-1.045-0.578-2.246-0.91-3.524-0.91c-1.278,0-2.479,0.332-3.522,0.91
	C9.173,6.082,9.13,5.779,9.13,5.463c0-2.012,1.63-3.643,3.643-3.643s3.644,1.631,3.644,3.643C16.413,5.78,16.37,6.082,16.295,6.373z
	"/>
</svg>
