<?xml version="1.0" encoding="utf-8"?>
<!-- Generator: Adobe Illustrator 16.0.0, SVG Export Plug-In . SVG Version: 6.00 Build 0)  -->
<!DOCTYPE svg PUBLIC "-//W3C//DTD SVG 1.1//EN" "http://www.w3.org/Graphics/SVG/1.1/DTD/svg11.dtd">
<svg version="1.1" id="Layer_2" xmlns="http://www.w3.org/2000/svg" xmlns:xlink="http://www.w3.org/1999/xlink" x="0px" y="0px"
	 width="96px" height="96px" viewBox="0 0 96 96" enable-background="new 0 0 96 96" xml:space="preserve">
<path fill-rule="evenodd" clip-rule="evenodd" d="M52.623,46.082l26.157,0.012V35.251l9.996-1.41L84.624,9.63
	C83.82,5,80.466,1.791,76.58,1.787c-17.604-0.013-35.207,0.002-52.81-0.016c-1.79-0.001-3.342,0.567-4.623,1.749
	c-1.867,1.723-2.798,3.974-3.194,6.438c-2.367,14.756-4.767,29.507-7.035,44.278c-0.672,4.379-1.838,8.728-1.68,13.194
	c0.208,5.883,2.056,11.393,4.11,16.863c2.042,5.436,7.961,9.842,13.809,9.92l12.562,0.018v-5.751v-2.565l0.617,0l1.318,0.019
	c0.893-0.001,1.786-0.008,2.68-0.01l0.354,0v-0.001c7.507-0.025,15.014-0.07,22.52-0.092c6.464-0.019,10.943-3.263,12.729-9.488
	c1.158-4.041,0.968-8.223,0.353-12.298c-0.916-6.053-6.408-10.518-12.556-10.56c-4.386-0.03-8.772,0.006-13.158-0.016
	c-0.806-0.005-1.646-0.019-2.41-0.243c-1.703-0.497-2.745-1.857-2.96-3.471C47.242,46.123,51.55,46.08,52.623,46.082z M49.42,65.514
	c3.505-0.035,7.011-0.009,10.518-0.001c0.813,0.002,1.628,0.006,2.42,0.233c1.791,0.516,3.215,2.088,3.278,3.704
	c0.072,1.838-0.712,2.995-2.191,3.701c-1.84,0.877-4.199,1.019-6.225,1.019c-5.508-0.001-11.018-0.002-16.525,0.002
	c-0.467,0-0.934-0.004-1.399,0.03h-2.768v9.373h-0.884c-0.296-0.005-0.594,0.002-0.889,0c-3.005-0.022-6.011,0.011-9.016-0.018
	c-2.331-0.021-3.926-1.098-4.69-3.327c-0.59-1.717-1.399-3.366-1.822-5.13c-0.754-3.15-1.929-6.272-1.433-9.586l8.395-53.416
	l48.29,0.008L78.46,33.97l-23.307-0.027c-2.811,0.009-5.617-0.042-8.432,0.296c-5.374,0.643-9.204,3.813-10.745,9.027
	c-0.634,2.138-0.672,4.318-0.799,6.5C34.744,57.186,39.283,65.617,49.42,65.514z"/>
</svg>
