<?xml version="1.0" encoding="utf-8"?>
<!-- Generator: Adobe Illustrator 16.0.4, SVG Export Plug-In . SVG Version: 6.00 Build 0)  -->
<!DOCTYPE svg PUBLIC "-//W3C//DTD SVG 1.1//EN" "http://www.w3.org/Graphics/SVG/1.1/DTD/svg11.dtd">
<svg version="1.1" id="Layer_1" xmlns="http://www.w3.org/2000/svg" xmlns:xlink="http://www.w3.org/1999/xlink" x="0px" y="0px"
	 width="50px" height="50px" viewBox="0 0 50 50" enable-background="new 0 0 50 50" xml:space="preserve">
<path d="M40,27.464c0,1.253-1.016,2.269-2.268,2.269c-1.254,0-2.268-1.016-2.268-2.269s2.268-5.228,2.268-5.228S40,26.211,40,27.464
	z M15.984,23.238h8.438v-6.299h-8.438V23.238z M36.025,19.496h-2.601v13.855h-4.659v2.129h1.641v1.965h-1.641H11.64H10V35.48h1.641
	V12.555h17.125v18.832h2.696V18.513l-0.002-0.985l0.978,0.003h4.547l1.522,1.953l-1.548,1.208L36.025,19.496z M26.802,35.482V14.52
	H13.605v20.962H26.802z"/>
</svg>
