<?xml version="1.0" encoding="iso-8859-1"?>
<!-- Generator: Adobe Illustrator 16.0.4, SVG Export Plug-In . SVG Version: 6.00 Build 0)  -->
<!DOCTYPE svg PUBLIC "-//W3C//DTD SVG 1.1//EN" "http://www.w3.org/Graphics/SVG/1.1/DTD/svg11.dtd">
<svg version="1.1" id="Layer_1" xmlns="http://www.w3.org/2000/svg" xmlns:xlink="http://www.w3.org/1999/xlink" x="0px" y="0px"
	 width="50px" height="50px" viewBox="0 0 50 50" style="enable-background:new 0 0 50 50;" xml:space="preserve">
<path d="M25.917,24.238l-0.38,1.827l-1.454-0.303l0.381-1.827L25.917,24.238z"/>
<path d="M44.904,26.238l-1.911-0.4l-1.684-5.125L30.44,18.422l-3.607,4.01l-5.392-1.133l-0.681,3.232L20.1,24.393l-0.328,1.559
	c-0.101,0.051-0.21,0.088-0.332,0.088c-0.407,0-0.738-0.33-0.738-0.738s0.332-0.74,0.738-0.74h0.233v-5.008l0.082-0.07l-1.958-2.711
	L5.583,27.027H5.096v4.4h7.646c0.28,1.033,1.217,1.801,2.336,1.801c1.12,0,2.058-0.768,2.338-1.801h2.271v-1.33h0.597v-1.865h-0.597
	v-1.204h-8.728l8.247-7.074v4.164c-0.553,0.108-0.971,0.601-0.971,1.185c0,0.663,0.54,1.204,1.205,1.204
	c0.24,0,0.451-0.088,0.639-0.209l0.298,0.062l-0.241,1.145l3.793,0.797c-0.017,1.139,0.772,2.168,1.927,2.412
	c0.166,0.035,0.335,0.053,0.504,0.053c0.982,0,1.855-0.604,2.23-1.481l7.035,1.479c-0.009,0.48,0.126,0.953,0.395,1.363
	c0.355,0.543,0.9,0.916,1.534,1.049c0.166,0.035,0.335,0.053,0.504,0.053c0.981,0,1.854-0.604,2.229-1.481l3.309,0.696
	L44.904,26.238z M14.011,20.99h3.271l-3.271,2.807V20.99z M13.545,23.807h-3.398l3.398-2.852V23.807z M14.056,20.523l3.206-2.689
	v2.689H14.056z M9.621,24.248v2.779H6.311L9.621,24.248z M15.08,32.295c-0.824,0-1.496-0.672-1.496-1.496
	c0-0.828,0.671-1.498,1.496-1.498c0.826,0,1.497,0.67,1.497,1.498C16.577,31.623,15.905,32.295,15.08,32.295z M18.756,30.496h-1.274
	c-0.151-1.197-1.164-2.129-2.399-2.129c-1.236,0-2.249,0.932-2.399,2.129h-6.65v-2.535h12.725L18.756,30.496L18.756,30.496z
	 M10.088,27.027v-2.754h3.367l-3.21,2.754H10.088z M17.728,20.607v-3.137l1.399,1.938L17.728,20.607z M27.822,28.643
	c-0.166,0.791-0.974,1.326-1.771,1.156c-0.809-0.17-1.327-0.967-1.157-1.773c0.146-0.688,0.761-1.188,1.464-1.188
	c0.104,0,0.208,0.01,0.311,0.031c0.391,0.082,0.726,0.312,0.943,0.646C27.83,27.852,27.905,28.252,27.822,28.643z M39.521,31.107
	c-0.166,0.789-0.97,1.322-1.773,1.151c-0.392-0.082-0.728-0.311-0.945-0.645c-0.219-0.337-0.294-0.734-0.211-1.128
	c0.145-0.688,0.76-1.188,1.462-1.188c0.104,0,0.208,0.012,0.312,0.033c0.391,0.082,0.727,0.311,0.944,0.646
	C39.528,30.316,39.604,30.715,39.521,31.107z M40.486,30.832c0.007-0.48-0.127-0.951-0.395-1.361
	c-0.354-0.545-0.9-0.918-1.534-1.051c-1.136-0.234-2.289,0.402-2.736,1.43l-7.034-1.479c0.009-0.479-0.126-0.951-0.394-1.363
	c-0.355-0.543-0.9-0.916-1.535-1.049c-1.133-0.24-2.288,0.399-2.733,1.431l-2.883-0.607l0.921-4.377l5.004,1.055l3.606-4.01
	l9.816,2.066l1.685,5.125l1.524,0.319l-0.922,4.377L40.486,30.832z M40.145,23.145l1.04,3.164l-1.633-0.344L40.145,23.145z
	 M35.083,21.309l4.305,0.904l-0.75,3.561l-4.304-0.905L35.083,21.309z M31.109,20.471l3.061,0.646l-0.749,3.559l-5.122-1.077
	L31.109,20.471z"/>
</svg>
