<?xml version="1.0" encoding="utf-8"?>
<!-- Generator: Adobe Illustrator 16.0.4, SVG Export Plug-In . SVG Version: 6.00 Build 0)  -->
<!DOCTYPE svg PUBLIC "-//W3C//DTD SVG 1.1//EN" "http://www.w3.org/Graphics/SVG/1.1/DTD/svg11.dtd">
<svg version="1.1" id="Layer_1" xmlns="http://www.w3.org/2000/svg" xmlns:xlink="http://www.w3.org/1999/xlink" x="0px" y="0px"
	 width="50px" height="50px" viewBox="0 0 50 50" enable-background="new 0 0 50 50" xml:space="preserve">
<path d="M39.174,25.338l-1.415-6.438H22.82l-1.416,6.438h-2.326V35.41h1.496v2.955h4.47V35.41h10.492v2.955h4.47V35.41H41.5V25.338
	H39.174z M37.391,25.262l0.02,0.076h-0.024C37.387,25.313,37.391,25.289,37.391,25.262z M23.618,30.551h-3.056v-3.057h3.056V30.551z
	 M35.417,33.393H25.161V32.5h10.256V33.393z M35.417,30.82H25.161v-0.893h10.256V30.82z M35.417,28.252H25.161v-0.896h10.256V28.252
	z M36.491,25.338h-2.636c-0.013-0.07-0.022-0.145-0.022-0.22c0-0.74,0.601-1.343,1.34-1.343c0.738,0,1.341,0.603,1.341,1.343
	C36.514,25.194,36.503,25.268,36.491,25.338z M35.173,22.883c-1.231,0-2.233,1.002-2.233,2.235c0,0.075,0.015,0.146,0.021,0.22
	h-9.789l1.021-4.646h12.193l0.742,3.365C36.749,23.362,36.02,22.883,35.173,22.883z M40.016,30.551H36.96v-3.057h3.056V30.551z
	 M19.273,22.593l0.718,0.329l0.724-1.588l-0.719-0.328c0.236-0.854,0.26-1.732,0.091-2.566l0.739-0.278l-0.61-1.632l-0.741,0.275
	c-0.418-0.74-1.012-1.39-1.752-1.88l0.328-0.721l-1.588-0.722l-0.327,0.72c-0.856-0.237-1.733-0.259-2.565-0.089l-0.278-0.743
	l-1.634,0.61l0.277,0.74c-0.742,0.422-1.392,1.016-1.883,1.754l-0.718-0.328l-0.724,1.588l0.72,0.326
	c-0.237,0.855-0.259,1.733-0.089,2.568L8.5,20.909l0.611,1.632l0.742-0.276c0.418,0.741,1.01,1.391,1.75,1.881l-0.326,0.72
	l1.586,0.723l0.328-0.719c0.854,0.237,1.731,0.258,2.567,0.089l0.278,0.742l1.633-0.611l-0.277-0.74
	C18.135,23.926,18.784,23.334,19.273,22.593z M13.09,22.987c-1.902-0.868-2.748-3.121-1.88-5.025
	c0.869-1.904,3.123-2.749,5.028-1.88c1.904,0.866,2.746,3.122,1.879,5.026S14.994,23.854,13.09,22.987z M15.945,16.723
	c-1.551-0.705-3.389-0.02-4.094,1.53c-0.707,1.552-0.021,3.386,1.53,4.093c1.55,0.706,3.386,0.021,4.093-1.529
	C18.182,19.266,17.493,17.43,15.945,16.723z M16.945,20.575c-0.572,1.259-2.063,1.814-3.32,1.242
	c-1.259-0.575-1.816-2.064-1.244-3.322c0.573-1.258,2.062-1.814,3.322-1.242C16.963,17.827,17.518,19.317,16.945,20.575z
	 M18.812,14.827l0.461-0.172c0.127,0.218,0.302,0.408,0.52,0.558l-0.204,0.448l0.528,0.24l0.203-0.448
	c0.257,0.069,0.518,0.073,0.763,0.028l0.173,0.459l0.545-0.203l-0.173-0.461c0.222-0.127,0.41-0.303,0.558-0.521l0.447,0.205
	l0.242-0.529l-0.449-0.203c0.069-0.254,0.078-0.515,0.03-0.764l0.459-0.171l-0.204-0.545l-0.459,0.174
	c-0.128-0.221-0.304-0.411-0.521-0.56l0.205-0.447l-0.531-0.239l-0.2,0.446c-0.256-0.066-0.515-0.075-0.765-0.025l-0.172-0.462
	l-0.543,0.204l0.17,0.458c-0.219,0.129-0.408,0.306-0.559,0.522l-0.445-0.205l-0.242,0.529l0.449,0.205
	c-0.068,0.252-0.076,0.514-0.027,0.76l-0.461,0.174L18.812,14.827z M19.982,13.434c0.195-0.431,0.705-0.621,1.135-0.424
	c0.427,0.195,0.617,0.703,0.422,1.133c-0.193,0.43-0.704,0.619-1.131,0.424C19.979,14.372,19.788,13.862,19.982,13.434z"/>
</svg>
