<?xml version="1.0" encoding="utf-8"?>
<!-- Generator: Adobe Illustrator 16.0.4, SVG Export Plug-In . SVG Version: 6.00 Build 0)  -->
<!DOCTYPE svg PUBLIC "-//W3C//DTD SVG 1.1//EN" "http://www.w3.org/Graphics/SVG/1.1/DTD/svg11.dtd">
<svg version="1.1" id="Layer_1" xmlns="http://www.w3.org/2000/svg" xmlns:xlink="http://www.w3.org/1999/xlink" x="0px" y="0px"
	 width="50px" height="50px" viewBox="0 0 50 50" enable-background="new 0 0 50 50" xml:space="preserve">
<path d="M41.499,28.215c-0.009-2.233-0.968-4.155-2.806-5.076c-0.521-3.743-2.595-6.466-5.14-6.457l-11.886,0.045
	c-2.545,0.011-4.6,2.748-5.092,6.496c-1.832,0.935-2.776,2.864-2.768,5.097c0.006,1.717,0.576,3.248,1.672,4.285l0.013,3.541
	l4.406-0.018l-0.008-2.152l15.57-0.059l0.009,2.15l4.404-0.016l-0.013-3.541C40.948,31.466,41.505,29.93,41.499,28.215z
	 M21.672,18.049l11.886-0.046c1.675-0.006,3.147,1.974,3.704,4.658c-0.273-0.049-0.563-0.076-0.862-0.09
	c0-0.007,0.002-0.012,0.002-0.018c-0.006-1.561-1.279-2.822-2.837-2.816s-2.822,1.278-2.816,2.838l-11.52,0.045
	c-0.435,0.002-0.843,0.041-1.227,0.114C18.538,20.047,19.997,18.056,21.672,18.049z M35.521,22.558l-3.892,0.016
	c-0.004-1.072,0.865-1.949,1.938-1.953S35.517,21.485,35.521,22.558z M18.599,30.146c-1.018,0.004-1.848-0.817-1.852-1.838
	s0.819-1.851,1.837-1.854c1.02-0.004,1.85,0.819,1.854,1.84C20.441,29.315,19.618,30.143,18.599,30.146z M22.29,27.307l10.719-0.041
	c0.243-0.001,0.44,0.194,0.441,0.438s-0.195,0.44-0.438,0.441l-10.719,0.041c-0.244,0.001-0.441-0.195-0.442-0.438
	C21.85,27.506,22.046,27.308,22.29,27.307z M33.019,29.763l-10.72,0.041c-0.243,0.001-0.441-0.195-0.442-0.438
	c0-0.244,0.195-0.441,0.439-0.442l10.72-0.041c0.243-0.001,0.44,0.194,0.441,0.438C33.458,29.563,33.263,29.762,33.019,29.763z
	 M36.723,30.077c-1.021,0.004-1.851-0.816-1.854-1.838c-0.003-1.021,0.82-1.85,1.84-1.854c1.019-0.004,1.849,0.818,1.853,1.84
	S37.74,30.073,36.723,30.077z M14.368,16.878v-0.322c0-1.864-1.18-2.701-2.348-2.701h-0.417c-1.168,0-2.348,0.837-2.348,2.701v0.322
	H8.5v5.71h6.622v-5.71H14.368z M9.951,16.556c0-1.234,0.632-2.003,1.651-2.003h0.417c1.019,0,1.651,0.769,1.651,2.003v0.322H9.951
	V16.556z"/>
</svg>
