<?xml version="1.0" encoding="utf-8"?>
<!-- Generator: Adobe Illustrator 16.0.4, SVG Export Plug-In . SVG Version: 6.00 Build 0)  -->
<!DOCTYPE svg PUBLIC "-//W3C//DTD SVG 1.1//EN" "http://www.w3.org/Graphics/SVG/1.1/DTD/svg11.dtd">
<svg version="1.1" id="Layer_1" xmlns="http://www.w3.org/2000/svg" xmlns:xlink="http://www.w3.org/1999/xlink" x="0px" y="0px"
	 width="50px" height="50px" viewBox="0 0 50 50" enable-background="new 0 0 50 50" xml:space="preserve">
<path d="M30.331,18.493c0-0.591,1.067-2.461,1.067-2.461s1.066,1.87,1.066,2.461s-0.479,1.067-1.066,1.067
	C30.809,19.562,30.331,19.084,30.331,18.493z M28.184,17.798c0.59,0,1.068-0.479,1.068-1.067c0-0.592-1.068-2.463-1.068-2.463
	s-1.066,1.871-1.066,2.463C27.117,17.318,27.594,17.798,28.184,17.798z M25,19.562c0.59,0,1.066-0.479,1.066-1.068
	S25,16.033,25,16.033s-1.067,1.869-1.067,2.461C23.933,19.085,24.41,19.562,25,19.562z M21.786,17.798
	c0.59,0,1.068-0.479,1.068-1.067c0-0.592-1.068-2.463-1.068-2.463s-1.067,1.871-1.067,2.463
	C20.719,17.318,21.196,17.798,21.786,17.798z M18.602,19.562c0.59,0,1.067-0.479,1.067-1.068s-1.067-2.461-1.067-2.461
	s-1.067,1.869-1.067,2.461C17.535,19.085,18.012,19.562,18.602,19.562z M15.388,17.798c0.59,0,1.068-0.479,1.068-1.067
	c0-0.592-1.068-2.463-1.068-2.463s-1.067,1.871-1.067,2.463C14.321,17.318,14.798,17.798,15.388,17.798z M34.611,17.798
	c0.59,0,1.068-0.479,1.068-1.067c0-0.592-1.068-2.463-1.068-2.463s-1.068,1.871-1.068,2.463
	C33.543,17.318,34.021,17.798,34.611,17.798z M38.4,12.311H11.598v1H38.4V12.311z M40,33.967h-1.1v1.417h-3.963
	c-0.236,1.31-1.379,2.306-2.754,2.306c-1.377,0-2.52-0.996-2.757-2.306H20.9c-0.237,1.31-1.379,2.306-2.754,2.306
	c-1.376,0-2.518-0.996-2.755-2.306h-4.549v-1.417H10v-2h0.841v-3.931h6.448l3.175-5.481h12.988l3.175,5.481H38.9v3.931H40V33.967z
	 M19.95,34.884c0-0.995-0.81-1.805-1.805-1.805c-0.996,0-1.806,0.81-1.806,1.805c0,0.996,0.81,1.806,1.806,1.806
	S19.95,35.88,19.95,34.884z M33.989,34.884c0-0.995-0.81-1.805-1.806-1.805s-1.808,0.81-1.808,1.805
	c0,0.996,0.812,1.806,1.808,1.806S33.989,35.88,33.989,34.884z M37.9,29.036h-1.85l-3.175-5.481H21.041l-3.175,5.481h-6.024v5.348
	h3.549c0.237-1.309,1.379-2.305,2.755-2.305c1.375,0,2.518,0.996,2.754,2.305h8.527c0.237-1.309,1.38-2.305,2.757-2.305
	c1.375,0,2.519,0.996,2.754,2.305H37.9V29.036z M26.421,28.968h5.263v-4.27h-5.263V28.968z M32.684,28.968h2.008l-2.008-3.466
	V28.968z M19.227,28.968h6.194v-4.27H21.7L19.227,28.968z"/>
</svg>
