<?xml version="1.0" encoding="utf-8"?>
<!-- Generator: Adobe Illustrator 16.0.4, SVG Export Plug-In . SVG Version: 6.00 Build 0)  -->
<!DOCTYPE svg PUBLIC "-//W3C//DTD SVG 1.1//EN" "http://www.w3.org/Graphics/SVG/1.1/DTD/svg11.dtd">
<svg version="1.1" id="Layer_1" xmlns="http://www.w3.org/2000/svg" xmlns:xlink="http://www.w3.org/1999/xlink" x="0px" y="0px"
	 width="50px" height="50px" viewBox="0 0 50 50" enable-background="new 0 0 50 50" xml:space="preserve">
<g>
	<path d="M40,29.904h-0.983v-3.611h-2.125l-2.947-5.086H21.85l-2.947,5.086h-6v3.611h-0.745v2h0.745v1.279h4.225
		c0.234,1.217,1.305,2.141,2.589,2.141c1.284,0,2.354-0.924,2.588-2.141h7.85c0.234,1.217,1.305,2.141,2.59,2.141
		c1.284,0,2.354-0.924,2.59-2.141h3.682v-1.279H40V29.904L40,29.904z M19.717,34.324c-0.904,0-1.64-0.734-1.64-1.641
		c0-0.904,0.736-1.639,1.64-1.639c0.904,0,1.639,0.734,1.639,1.639C21.356,33.59,20.622,34.324,19.717,34.324z M32.746,34.324
		c-0.904,0-1.641-0.734-1.641-1.641c0-0.904,0.736-1.639,1.641-1.639s1.641,0.734,1.641,1.639
		C34.387,33.59,33.649,34.324,32.746,34.324z M38.017,32.186h-2.683c-0.234-1.217-1.305-2.141-2.59-2.141
		c-1.283,0-2.354,0.924-2.589,2.141h-7.85c-0.234-1.217-1.305-2.141-2.588-2.141c-1.284,0-2.355,0.924-2.589,2.141h-3.225v-4.893
		h5.576l2.947-5.086h10.943l2.947,5.086h1.701L38.017,32.186L38.017,32.186z"/>
	<rect x="27.435" y="23.231" width="4.812" height="3.962"/>
	<polygon points="20.722,27.193 26.435,27.193 26.435,23.231 23.018,23.231 	"/>
	<polygon points="33.246,27.193 35.072,27.193 33.246,24.041 	"/>
	<path d="M20.273,19.813c0-2.838-2.3-5.138-5.137-5.138c-2.837,0-5.137,2.3-5.137,5.138s2.3,5.137,5.137,5.137
		C17.974,24.95,20.273,22.651,20.273,19.813z M13.758,22.451c-0.234-0.353-0.397-0.804-0.491-1.351h-0.713l0.187-1.007h0.427V19.85
		v-0.271h-0.614l0.187-1.008h0.521c0.101-0.564,0.266-1.022,0.497-1.375c0.391-0.592,0.977-0.887,1.762-0.887
		c0.59,0,1.083,0.199,1.48,0.599c0.397,0.397,0.638,0.936,0.721,1.612h-1.359c-0.038-0.312-0.135-0.56-0.294-0.742
		c-0.157-0.184-0.35-0.273-0.576-0.273c-0.328,0-0.568,0.188-0.721,0.562c-0.057,0.142-0.103,0.31-0.141,0.506h1.38l-0.187,1.007
		h-1.279v0.259v0.258h1.182l-0.188,1.006h-0.894c0.04,0.17,0.089,0.324,0.145,0.465c0.159,0.371,0.405,0.558,0.741,0.558
		c0.225,0,0.412-0.082,0.561-0.248c0.151-0.165,0.242-0.392,0.272-0.675h1.359c-0.072,0.648-0.306,1.165-0.701,1.547
		c-0.396,0.38-0.894,0.57-1.5,0.57C14.735,23.317,14.149,23.028,13.758,22.451z"/>
</g>
</svg>
