<?xml version="1.0" encoding="utf-8"?>
<!-- Generator: Adobe Illustrator 16.0.4, SVG Export Plug-In . SVG Version: 6.00 Build 0)  -->
<!DOCTYPE svg PUBLIC "-//W3C//DTD SVG 1.1//EN" "http://www.w3.org/Graphics/SVG/1.1/DTD/svg11.dtd">
<svg version="1.1" id="Layer_1" xmlns="http://www.w3.org/2000/svg" xmlns:xlink="http://www.w3.org/1999/xlink" x="0px" y="0px"
	 width="50px" height="50px" viewBox="0 0 50 50" enable-background="new 0 0 50 50" xml:space="preserve">
<path d="M36.107,27.025c-0.508-3.762-2.582-6.504-5.137-6.504H19.031c-2.557,0-4.63,2.741-5.139,6.503
	c-1.844,0.933-2.8,2.867-2.8,5.108c0,1.725,0.565,3.266,1.663,4.312V40h4.425v-2.162h15.64V40h4.425v-3.556
	c1.097-1.046,1.663-2.587,1.663-4.312C38.907,29.892,37.951,27.957,36.107,27.025z M19.03,21.849h11.938
	c1.682,0,3.154,1.994,3.702,4.692c-0.274-0.051-0.565-0.08-0.864-0.095c0-0.006,0.002-0.011,0.002-0.016
	c0-1.566-1.273-2.84-2.84-2.84s-2.84,1.274-2.84,2.84h-11.57c-0.437,0-0.847,0.038-1.233,0.11
	C15.874,23.842,17.347,21.849,19.03,21.849z M32.923,26.431h-3.907c0-1.079,0.877-1.955,1.955-1.955
	C32.046,24.476,32.923,25.352,32.923,26.431z M15.896,33.987c-1.022,0-1.853-0.829-1.853-1.854c0-1.023,0.831-1.854,1.853-1.854
	c1.024,0,1.855,0.83,1.855,1.854C17.751,33.16,16.921,33.987,15.896,33.987z M30.382,33.658H19.615
	c-0.245,0-0.443-0.199-0.443-0.443c0-0.243,0.198-0.441,0.443-0.441h10.767c0.245,0,0.443,0.198,0.443,0.441
	C30.825,33.459,30.627,33.658,30.382,33.658z M30.382,32.035H19.615c-0.245,0-0.443-0.199-0.443-0.443s0.198-0.441,0.443-0.441
	h10.767c0.245,0,0.443,0.198,0.443,0.441C30.825,31.836,30.627,32.035,30.382,32.035z M34.102,33.987
	c-1.023,0-1.854-0.829-1.854-1.854c0-1.023,0.831-1.854,1.854-1.854c1.022,0,1.854,0.83,1.854,1.854
	C35.955,33.16,35.124,33.987,34.102,33.987z M31.969,15.485c0.635,1.016,1.754,1.697,3.041,1.698c1.409,0,2.615-0.819,3.204-2
	l-2.391-0.001c-0.847,0.002-1.533-0.71-1.533-1.592c0.001-0.877,0.687-1.589,1.532-1.591h2.39c-0.585-1.181-1.793-1.999-3.204-2
	c-1.285-0.001-2.404,0.682-3.04,1.7H16.847c-0.53-0.61-1.301-1.001-2.171-1.001c-1.599-0.001-2.895,1.294-2.894,2.894
	c0,1.596,1.295,2.891,2.892,2.893c0.87,0,1.641-0.395,2.173-1H31.969z M13.915,14.912l-0.762-1.319l0.763-1.318l1.521-0.002
	l0.762,1.32l-0.761,1.319H13.915z"/>
</svg>
