<?xml version="1.0" encoding="utf-8"?>
<!-- Generator: Adobe Illustrator 16.0.4, SVG Export Plug-In . SVG Version: 6.00 Build 0)  -->
<!DOCTYPE svg PUBLIC "-//W3C//DTD SVG 1.1//EN" "http://www.w3.org/Graphics/SVG/1.1/DTD/svg11.dtd">
<svg version="1.1" id="Layer_1" xmlns="http://www.w3.org/2000/svg" xmlns:xlink="http://www.w3.org/1999/xlink" x="0px" y="0px"
	 width="50px" height="50px" viewBox="0 0 50 50" enable-background="new 0 0 50 50" xml:space="preserve">
<g>
	<path d="M34.813,31.559c-2.328,0-4.222,1.894-4.222,4.221c0,2.328,1.895,4.221,4.222,4.221s4.222-1.895,4.222-4.221
		C39.035,33.452,37.142,31.559,34.813,31.559z M34.813,38.568c-1.538,0-2.79-1.252-2.79-2.791c0-1.538,1.251-2.789,2.79-2.789
		s2.79,1.251,2.79,2.789C37.604,37.316,36.352,38.568,34.813,38.568z"/>
	<path d="M26.432,29.404h5.006v-0.731H34.1c3.872,0,5.896-2.754,5.896-6.151c0-2.418-1.031-4.503-3.019-5.508
		C36.43,12.957,34.193,10,31.438,10H18.564c-2.757,0-4.993,2.956-5.542,7.013c-1.988,1.004-3.019,3.091-3.019,5.509
		c0,1.858,0.61,3.521,1.793,4.648v3.834h4.771v-2.332h1.995v0.73h5.006v9.404h-2.422v0.953h7.707v-0.953h-2.422V29.404z
		 M29.33,16.372c0-1.163,0.945-2.108,2.107-2.108s2.107,0.945,2.107,2.108H29.33z M31.281,21.938c0,0.264-0.214,0.477-0.478,0.477
		H19.194c-0.264,0-0.478-0.213-0.478-0.477s0.214-0.478,0.478-0.478h11.609C31.067,21.46,31.281,21.674,31.281,21.938z
		 M36.812,22.522c0,1.105-0.896,1.999-1.998,1.999c-1.104,0-2-0.894-2-1.999c0-1.104,0.896-1.999,2-1.999
		C35.916,20.523,36.812,21.418,36.812,22.522z M15.185,24.521c-1.103,0-1.998-0.894-1.998-1.999c0-1.104,0.896-1.999,1.998-1.999
		c1.104,0,2,0.895,2,1.999C17.185,23.627,16.29,24.521,15.185,24.521z M15.899,16.372c-0.471,0-0.913,0.042-1.33,0.12
		c0.591-2.91,2.179-5.06,3.994-5.06h12.873c1.813,0,3.401,2.15,3.992,5.06c-0.296-0.056-0.609-0.086-0.933-0.103
		c0-0.006,0.002-0.012,0.002-0.018c0-1.689-1.373-3.062-3.062-3.062c-1.688,0-3.061,1.374-3.061,3.062L15.899,16.372L15.899,16.372z
		 M19.194,24.165c-0.264,0-0.478-0.213-0.478-0.477s0.214-0.477,0.478-0.477h11.609c0.264,0,0.478,0.213,0.478,0.477
		s-0.214,0.477-0.478,0.477H19.194z"/>
</g>
</svg>
