<?xml version="1.0" encoding="utf-8"?>
<!-- Generator: Adobe Illustrator 16.0.4, SVG Export Plug-In . SVG Version: 6.00 Build 0)  -->
<!DOCTYPE svg PUBLIC "-//W3C//DTD SVG 1.1//EN" "http://www.w3.org/Graphics/SVG/1.1/DTD/svg11.dtd">
<svg version="1.1" id="Layer_1" xmlns="http://www.w3.org/2000/svg" xmlns:xlink="http://www.w3.org/1999/xlink" x="0px" y="0px"
	 width="50px" height="50px" viewBox="0 0 50 50" enable-background="new 0 0 50 50" xml:space="preserve">
<path d="M35.022,23.721v-8.025h-1.834l-1.303-5.694H18.11l-1.303,5.694h-1.834v8.025l-0.033,0.152h0.033v0.829h1.486v2.642h3.699
	v-2.642h3.544v1.153h-0.832v1.109h1.427l-8.088,5.544v-1.051h-1.109v3.146h1.109v-1.051l7.268,4.981h-1.068v0.725h-1.479v0.74h8.139
	v-0.74H27.59v-0.725h-1.067l7.267-4.981v1.051h1.11v-3.146h-1.11v1.051l-8.088-5.544h1.427v-1.109h-0.832v-1.153h3.544v2.642h3.699
	v-2.642h1.485v-0.829h0.035L35.022,23.721z M19.034,20.355h-2.73v-2.731h2.73V20.355z M24.999,38.232L17.952,33.4h14.094
	L24.999,38.232z M32.046,32.662H17.952l7.047-4.831L32.046,32.662z M24.444,25.855v-1.153h1.109v1.153H24.444z M29.585,22.868
	h-9.172v-0.74h9.172V22.868z M29.585,20.568h-9.172v-0.739h9.172V20.568z M29.585,18.27h-9.172v-0.74h9.172V18.27z M30.573,15.695
	h-2.415c-0.011-0.064-0.021-0.129-0.021-0.196c0-0.677,0.551-1.229,1.229-1.229c0.677,0,1.229,0.553,1.229,1.229
	C30.595,15.566,30.584,15.631,30.573,15.695z M29.366,13.529c-1.085,0-1.969,0.885-1.969,1.97c0,0.067,0.014,0.131,0.021,0.196
	h-9.092l0.964-4.217h11.418l0.964,4.217h-0.358c0.008-0.065,0.021-0.129,0.021-0.196C31.333,14.414,30.451,13.529,29.366,13.529z
	 M33.694,20.355h-2.73v-2.731h2.73V20.355z"/>
</svg>
