<?xml version="1.0" encoding="utf-8"?>
<!-- Generator: Adobe Illustrator 16.0.4, SVG Export Plug-In . SVG Version: 6.00 Build 0)  -->
<!DOCTYPE svg PUBLIC "-//W3C//DTD SVG 1.1//EN" "http://www.w3.org/Graphics/SVG/1.1/DTD/svg11.dtd">
<svg version="1.1" id="Layer_1" xmlns="http://www.w3.org/2000/svg" xmlns:xlink="http://www.w3.org/1999/xlink" x="0px" y="0px"
	 width="50px" height="50px" viewBox="0 0 50 50" enable-background="new 0 0 50 50" xml:space="preserve">
<path d="M40,31.881h-0.961v-3.422h-1.973l-2.758-4.763H23.035l-2.758,4.763h-5.6v3.422h-0.736v1.709h0.736v1.238h3.952
	c0.203,1.137,1.192,2.002,2.386,2.002c1.194,0,2.184-0.865,2.387-2.002h7.42c0.203,1.137,1.193,2.002,2.388,2.002
	c1.192,0,2.183-0.865,2.386-2.002h3.442V33.59H40V31.881z M21.015,35.977c-0.868,0-1.575-0.707-1.575-1.576
	c0-0.867,0.707-1.574,1.575-1.574c0.869,0,1.576,0.707,1.576,1.574C22.591,35.27,21.884,35.977,21.015,35.977z M33.21,35.977
	c-0.87,0-1.577-0.707-1.577-1.576c0-0.867,0.708-1.574,1.577-1.574s1.575,0.707,1.575,1.574
	C34.785,35.27,34.079,35.977,33.21,35.977z M38.184,33.973h-2.588c-0.203-1.137-1.191-2.002-2.386-2.002s-2.185,0.865-2.388,2.002
	h-7.42c-0.203-1.137-1.193-2.002-2.387-2.002c-1.194,0-2.183,0.865-2.386,2.002h-3.098v-4.66h5.237l2.758-4.761h10.289l2.759,4.761
	h1.61V33.973L38.184,33.973z M28.198,25.551h4.585v3.711h-4.585V25.551z M33.639,26.238l1.75,3.021h-1.75V26.238z M24.104,25.551
	h3.24v3.711h-5.388L24.104,25.551z M15.55,19.481L10,19.46c0.402-2.799,2.713-4.971,5.569-5.159l0.002-0.705
	c0.001-0.236,0.192-0.427,0.427-0.427c0,0,0.001,0,0.002,0c0.236,0,0.426,0.192,0.425,0.431l-0.002,0.703
	c2.854,0.213,5.148,2.399,5.532,5.198l-5.55-0.021l-0.021,5.83c-0.001,0.382,0.146,0.742,0.416,1.015
	c0.27,0.271,0.628,0.422,1.01,0.422l0.108,0.004c0.001,0,0.003,0,0.004,0c0.774,0,1.417-0.641,1.42-1.428
	c0.001-0.235,0.192-0.427,0.427-0.427h0.001c0.236,0.002,0.427,0.193,0.426,0.43c-0.004,1.259-1.03,2.279-2.287,2.279
	c-0.003,0-0.005,0-0.008,0l-0.107-0.004c-0.597-0.002-1.17-0.242-1.601-0.674c-0.43-0.434-0.666-1.01-0.664-1.621L15.55,19.481z"/>
</svg>
