<?xml version="1.0" encoding="utf-8"?>
<!-- Generator: Adobe Illustrator 16.0.4, SVG Export Plug-In . SVG Version: 6.00 Build 0)  -->
<!DOCTYPE svg PUBLIC "-//W3C//DTD SVG 1.1//EN" "http://www.w3.org/Graphics/SVG/1.1/DTD/svg11.dtd">
<svg version="1.1" id="Layer_1" xmlns="http://www.w3.org/2000/svg" xmlns:xlink="http://www.w3.org/1999/xlink" x="0px" y="0px"
	 width="50px" height="50px" viewBox="0 0 50 50" enable-background="new 0 0 50 50" xml:space="preserve">
<path d="M36.981,17.131c-0.548-4.058-2.785-7.015-5.541-7.015H18.563c-2.758,0-4.994,2.957-5.543,7.015
	c-1.988,1.005-3.02,3.092-3.02,5.51c0,1.859,0.61,3.522,1.793,4.649v3.835h4.772v-2.332h1.995v0.73h5.008v9.406h-2.423v0.954h7.709
	V38.93h-2.423v-9.404h5.008v-0.731h1.995v2.331h4.772V27.29C39.39,26.162,40,24.499,40,22.641
	C40.002,20.222,38.971,18.136,36.981,17.131z M15.185,24.64c-1.103,0-1.999-0.894-1.999-2c0-1.104,0.896-2,1.999-2
	c1.104,0,2,0.895,2,2C17.185,23.746,16.289,24.64,15.185,24.64z M15.898,16.489c-0.471,0-0.913,0.042-1.33,0.12
	c0.591-2.911,2.179-5.061,3.995-5.061H31.44c1.813,0,3.401,2.15,3.993,5.062c-0.295-0.056-0.609-0.086-0.934-0.103
	c0-0.006,0.002-0.012,0.002-0.018c0-1.689-1.373-3.063-3.062-3.063s-3.062,1.374-3.062,3.063H15.898z M30.808,24.284H19.195
	c-0.264,0-0.478-0.213-0.478-0.478c0-0.264,0.213-0.477,0.478-0.477h11.612c0.264,0,0.478,0.213,0.478,0.477
	C31.285,24.071,31.071,24.284,30.808,24.284z M30.808,22.534H19.195c-0.264,0-0.478-0.213-0.478-0.478
	c0-0.264,0.213-0.477,0.478-0.477h11.612c0.264,0,0.478,0.213,0.478,0.477C31.285,22.32,31.071,22.534,30.808,22.534z
	 M29.334,16.489c0-1.163,0.945-2.109,2.107-2.109s2.107,0.946,2.107,2.109H29.334z M34.818,24.64c-1.104,0-2-0.894-2-2
	c0-1.104,0.896-2,2-2s1.999,0.895,1.999,2C36.817,23.746,35.922,24.64,34.818,24.64z"/>
</svg>
