<?xml version="1.0" encoding="utf-8"?>
<!-- Generator: Adobe Illustrator 16.0.4, SVG Export Plug-In . SVG Version: 6.00 Build 0)  -->
<!DOCTYPE svg PUBLIC "-//W3C//DTD SVG 1.1//EN" "http://www.w3.org/Graphics/SVG/1.1/DTD/svg11.dtd">
<svg version="1.1" id="Layer_1" xmlns="http://www.w3.org/2000/svg" xmlns:xlink="http://www.w3.org/1999/xlink" x="0px" y="0px"
	 width="50px" height="50px" viewBox="0 0 50 50" enable-background="new 0 0 50 50" xml:space="preserve">
<path d="M32.978,24.799h-1.805c-0.276,0-0.5,0.224-0.5,0.5v2.917c0,0.276,0.224,0.5,0.5,0.5h1.805c0.276,0,0.5-0.224,0.5-0.5v-2.917
	C33.478,25.022,33.254,24.799,32.978,24.799z M32.478,27.715h-0.805v-1.917h0.805V27.715z M30.107,21.052
	c-0.861-0.943-1.263-1.912-1.189-2.877c0.099-1.322,1.064-2.12,1.105-2.153c0.214-0.174,0.529-0.141,0.703,0.073
	c0.173,0.214,0.143,0.527-0.07,0.702c-0.008,0.005-0.682,0.575-0.742,1.464c-0.046,0.677,0.267,1.389,0.932,2.117
	c1.182,1.295,1.176,2.556-0.016,3.747c-0.099,0.098-0.227,0.146-0.354,0.146s-0.256-0.049-0.354-0.146
	c-0.195-0.195-0.195-0.512,0-0.707C31.054,22.488,30.791,21.8,30.107,21.052z M32.47,21.053c-0.862-0.944-1.262-1.912-1.19-2.878
	c0.1-1.322,1.065-2.12,1.106-2.153c0.215-0.174,0.53-0.141,0.703,0.073c0.173,0.214,0.142,0.527-0.071,0.702
	c-0.007,0.005-0.681,0.575-0.742,1.464c-0.046,0.677,0.268,1.39,0.933,2.117c1.183,1.294,1.178,2.554-0.017,3.747
	c-0.098,0.098-0.226,0.146-0.354,0.146s-0.256-0.049-0.354-0.146c-0.194-0.195-0.194-0.512,0-0.707
	C33.417,22.487,33.151,21.799,32.47,21.053z M27.796,28.715h1.987c0.275,0,0.5-0.224,0.5-0.5v-2.917c0-0.276-0.225-0.5-0.5-0.5
	h-5.904l-7.117-7.117c-0.195-0.195-0.512-0.195-0.707,0c-0.195,0.195-0.195,0.512,0,0.707l6.41,6.41H16.45
	c-0.276,0-0.5,0.224-0.5,0.5v2.917c0,0.276,0.224,0.5,0.5,0.5h9.932l5.229,5.229c0.099,0.099,0.227,0.146,0.354,0.146
	s0.256-0.049,0.354-0.146c0.195-0.194,0.195-0.512,0-0.707L27.796,28.715z M29.283,25.799v1.917h-2.487l-1.917-1.917H29.283z
	 M21.312,27.715v-1.917h2.154l1.916,1.917H21.312z"/>
</svg>
