<?xml version="1.0" encoding="utf-8"?>
<!-- Generator: Adobe Illustrator 16.0.0, SVG Export Plug-In . SVG Version: 6.00 Build 0)  -->
<!DOCTYPE svg PUBLIC "-//W3C//DTD SVG 1.1//EN" "http://www.w3.org/Graphics/SVG/1.1/DTD/svg11.dtd">
<svg version="1.1" id="Layer_2" xmlns="http://www.w3.org/2000/svg" xmlns:xlink="http://www.w3.org/1999/xlink" x="0px" y="0px"
	 width="96px" height="96px" viewBox="0 0 96 96" enable-background="new 0 0 96 96" xml:space="preserve">
<g>
	<path fill-rule="evenodd" clip-rule="evenodd" d="M48.014,95.016c-25.901,0.006-46.411-20.76-47.02-45.799
		C0.351,22.75,21.409,1.594,46.801,0.998c26.495-0.623,47.562,20.457,48.204,45.75C95.677,73.158,74.459,95.033,48.014,95.016z
		 M47.979,87.84c21.904-0.047,39.565-17.57,39.84-39.301C88.1,26.279,70.3,8.326,48.287,8.18C26.05,8.031,8.263,25.885,8.174,47.811
		C8.084,69.938,25.96,87.84,47.979,87.84z"/>
	<path fill-rule="evenodd" clip-rule="evenodd" d="M66.112,58.764c0-0.348,0-0.645,0-0.943c0-4.791,0.001-9.58-0.001-14.373
		c-0.001-2.252-1.5-3.865-3.593-3.881c-2.138-0.014-3.686,1.586-3.706,3.865c-0.017,1.977,0.008,3.955-0.006,5.932
		c-0.041,5.477-4.354,10.213-9.664,10.621c-5.87,0.455-10.896-3.256-11.756-8.881c-0.312-2.033-0.149-4.143-0.208-6.219
		c-0.021-0.756,0.027-1.527-0.093-2.27c-0.321-1.992-1.956-3.207-3.978-3.033c-1.785,0.152-3.22,1.736-3.226,3.625
		c-0.014,4.869-0.005,9.736-0.005,14.604c0,0.297,0,0.596,0,0.947c-2.421,0-4.765,0-7.175,0c-0.016-0.266-0.043-0.512-0.043-0.76
		c-0.002-4.74-0.018-9.482,0.002-14.223c0.021-4.895,2.112-8.574,6.653-10.566c7.052-3.094,15.009,2.191,15.013,9.885
		c0.001,1.951-0.018,3.904,0.006,5.857c0.025,1.963,1.145,3.418,2.869,3.799c2.345,0.52,4.415-1.191,4.452-3.713
		c0.029-1.977,0.005-3.955,0.007-5.934c0.006-5.621,4.427-10.385,9.965-10.738c5.752-0.367,10.762,3.611,11.566,9.201
		c0.093,0.65,0.132,1.313,0.133,1.969c0.011,4.818,0.006,9.637,0.004,14.453c0,0.248-0.024,0.492-0.04,0.775
		C70.884,58.764,68.542,58.764,66.112,58.764z"/>
</g>
</svg>
