<?xml version="1.0" encoding="utf-8"?>
<!-- Generator: Adobe Illustrator 16.0.4, SVG Export Plug-In . SVG Version: 6.00 Build 0)  -->
<!DOCTYPE svg PUBLIC "-//W3C//DTD SVG 1.1//EN" "http://www.w3.org/Graphics/SVG/1.1/DTD/svg11.dtd">
<svg version="1.1" id="Layer_1" xmlns="http://www.w3.org/2000/svg" xmlns:xlink="http://www.w3.org/1999/xlink" x="0px" y="0px"
	 width="50px" height="50px" viewBox="0 0 50 50" enable-background="new 0 0 50 50" xml:space="preserve">
<path d="M27.304,16.417h-1.803v-4.861c0-0.061-0.015-0.118-0.035-0.172c1.122-0.218,1.972-1.206,1.972-2.391
	c0-1.344-1.093-2.438-2.438-2.438c-1.345,0-2.438,1.093-2.438,2.438c0,1.185,0.85,2.172,1.972,2.391
	c-0.02,0.054-0.035,0.111-0.035,0.172v4.861h-1.801c-1.461,0-2.605,0.861-2.605,1.961c0,0.276,0.224,0.5,0.5,0.5
	c0.276,0,0.5-0.224,0.5-0.5c0-0.405,0.524-0.849,1.307-0.941V35.82c0,0.277,0.224,0.5,0.5,0.5h1.6v6.625c0,0.275,0.224,0.5,0.5,0.5
	s0.5-0.225,0.5-0.5V36.32h1.602c0.276,0,0.5-0.223,0.5-0.5V17.437c0.781,0.093,1.306,0.537,1.306,0.941c0,0.276,0.224,0.5,0.5,0.5
	s0.5-0.224,0.5-0.5C29.907,17.278,28.764,16.417,27.304,16.417z M23.563,8.993c0-0.792,0.645-1.438,1.438-1.438
	s1.438,0.645,1.438,1.438s-0.646,1.438-1.438,1.438S23.563,9.786,23.563,8.993z M23.401,35.321v-0.919h1.676
	c0.276,0,0.5-0.223,0.5-0.5c0-0.275-0.224-0.5-0.5-0.5h-1.676v-1.557h1.676c0.276,0,0.5-0.224,0.5-0.5c0-0.275-0.224-0.5-0.5-0.5
	h-1.676v-1.557h1.676c0.276,0,0.5-0.225,0.5-0.5s-0.224-0.5-0.5-0.5h-1.676v-1.557h1.676c0.276,0,0.5-0.225,0.5-0.5
	c0-0.276-0.224-0.5-0.5-0.5h-1.676v-1.558h1.676c0.276,0,0.5-0.224,0.5-0.5c0-0.276-0.224-0.5-0.5-0.5h-1.676v-1.557h1.676
	c0.276,0,0.5-0.224,0.5-0.5c0-0.276-0.224-0.5-0.5-0.5h-1.676v-3.201h3.201V35.32L23.401,35.321L23.401,35.321z"/>
</svg>
