<?xml version="1.0" encoding="utf-8"?>
<!-- Generator: Adobe Illustrator 16.0.0, SVG Export Plug-In . SVG Version: 6.00 Build 0)  -->
<!DOCTYPE svg PUBLIC "-//W3C//DTD SVG 1.1//EN" "http://www.w3.org/Graphics/SVG/1.1/DTD/svg11.dtd">
<svg version="1.1" id="Layer_1" xmlns="http://www.w3.org/2000/svg" xmlns:xlink="http://www.w3.org/1999/xlink" x="0px" y="0px"
	 width="96px" height="96px" viewBox="0 0 96 96" enable-background="new 0 0 96 96" xml:space="preserve">
<g>
	<path d="M95.796,45.241L72.982,5.52c-0.746-1.299-2.141-2.105-3.641-2.105c-0.729,0-1.451,0.192-2.087,0.558l-6.928,3.979
		c-1.844,1.06-2.58,3.315-1.793,5.231c-1.207,0.689-2.977,1.343-5.346,1.343c-4.066,0.001-8.771-1.865-13.911-5.489
		c-0.698-0.599-4.396-3.585-8.596-3.585c-1.479,0-2.867,0.367-4.13,1.092c-1.379,0.793-3.722,3.05-3.756,6.482
		c-0.033,4.277,3.547,8.837,10.647,13.563c-0.373,0.27-0.779,0.531-1.218,0.782L6.629,42.073c-4.302,2.472-5.792,7.981-3.321,12.283
		c0.601,1.046,1.395,1.949,2.34,2.669l-1.359,0.781c-4.422,2.54-5.953,8.203-3.414,12.624c1.645,2.861,4.724,4.64,8.035,4.64
		c1.602,0,3.185-0.422,4.578-1.22c0.146,1.007,0.459,1.953,0.923,2.763c1.734,3.021,4.916,4.972,8.105,4.972
		c1.286,0,2.48-0.311,3.549-0.924l4.26-2.447c0.156,0.827,0.448,1.624,0.87,2.357l0.27,0.466c1.349,2.352,3.875,3.813,6.594,3.813
		c1.32,0,2.624-0.35,3.771-1.009l22.41-12.87c0.667-0.372,1.339-0.758,2.002-1.151l1.775-1.044L68,68.744
		c3.292-2.084,5.72-4.049,7.222-5.847c1.916-2.282,2.844-3.881,3.607-5.195c0.848-1.463,1.36-2.35,3.164-3.722
		c0.79,0.955,1.979,1.526,3.24,1.526c0.73,0,1.451-0.192,2.087-0.558l6.927-3.979C96.253,49.817,96.948,47.248,95.796,45.241z
		 M74.042,54.956c-0.673,1.159-1.436,2.473-3.05,4.398c-0.925,1.104-2.413,2.354-4.367,3.695v-17.8h-1.958l-1.291,10.077
		c-0.739,0.851-3.265,3.872-3.265,5.51c0,1.448,0.888,2.687,2.148,3.208l-0.236,1.841c-0.093,0.052-0.178,0.103-0.271,0.155
		l-1.113,0.62l0.048,0.052L39.111,79.106c-0.99,0.567-2.351,0.189-2.912-0.786l-0.27-0.47c-0.283-0.492-0.356-1.067-0.208-1.618
		c0.149-0.552,0.502-1.011,0.995-1.293l11.829-6.796l-3.03-5.006L23.316,75.876c-0.212,0.121-0.472,0.184-0.772,0.184
		c-1.189,0-2.629-0.943-3.347-2.193c-0.594-1.035-0.298-3.121,0.806-3.756l17.211-9.885l-2.75-4.786L10.749,69.059
		c-0.563,0.324-1.201,0.495-1.847,0.495c-1.336,0-2.577-0.717-3.239-1.871c-0.495-0.861-0.624-1.866-0.364-2.828
		c0.261-0.962,0.878-1.764,1.74-2.259l26.633-15.299l-2.745-4.787L12.844,52.895c-0.525,0.302-1.121,0.462-1.724,0.462
		c-1.246,0-2.404-0.67-3.022-1.747c-0.955-1.662-0.38-3.792,1.282-4.747l25.6-14.702c3.843-2.208,5.068-4.517,5.277-4.961
		l1.048-2.259l-2.138-1.271c-10.098-6.031-10.855-9.636-10.848-10.597c0.01-1.115,0.965-1.728,0.986-1.742
		c0.412-0.237,0.871-0.352,1.402-0.352c1.961,0,4.273,1.637,5.033,2.297l0.203,0.16c7.427,5.261,14.294,7.401,20.267,6.348
		c1.8-0.317,3.488-0.926,5.034-1.813L79.18,49.197C76.292,51.295,75.289,52.803,74.042,54.956z"/>
	<path d="M59.861,84.687c0,3.941,3.194,7.139,7.139,7.139s7.139-3.197,7.139-7.139c0-3.944-7.139-11.812-7.139-11.812
		S59.861,80.742,59.861,84.687z"/>
</g>
</svg>
