<?xml version="1.0" encoding="utf-8"?>
<!-- Generator: Adobe Illustrator 16.0.4, SVG Export Plug-In . SVG Version: 6.00 Build 0)  -->
<!DOCTYPE svg PUBLIC "-//W3C//DTD SVG 1.1//EN" "http://www.w3.org/Graphics/SVG/1.1/DTD/svg11.dtd">
<svg version="1.1" id="Layer_1" xmlns="http://www.w3.org/2000/svg" xmlns:xlink="http://www.w3.org/1999/xlink" x="0px" y="0px"
	 width="50px" height="50px" viewBox="0 0 50 50" enable-background="new 0 0 50 50" xml:space="preserve">
<g>
	<path d="M11.311,20.277l7.07-7.071l0.707,0.707l-7.07,7.071L11.311,20.277z M12.562,21.529l7.07-7.071l0.707,0.707l-7.07,7.071
		L12.562,21.529z M30.912,13.914l0.707-0.707l7.07,7.07l-0.707,0.708L30.912,13.914z M36.729,22.233l-7.07-7.07l0.707-0.707
		l7.07,7.07L36.729,22.233z"/>
	<path d="M32.678,26.287l3.535-3.534l-7.07-7.071l-3.535,3.535l2.545,2.545c-0.657,0.658-1.83,1.832-3.154,3.155
		c-1.324-1.324-2.497-2.497-3.155-3.155l2.546-2.545l-3.535-3.535l-7.07,7.071l3.534,3.534l2.547-2.546
		c0.656,0.657,1.83,1.831,3.154,3.155c-2.101,2.1-4.125,4.125-4.783,4.783c-0.836-0.166-1.75,0.06-2.371,0.682
		c-0.491,0.49-0.762,1.143-0.762,1.834c0,0.695,0.271,1.348,0.762,1.837c0.489,0.489,1.142,0.762,1.835,0.762
		c0.692,0,1.345-0.271,1.835-0.762c0.646-0.646,0.876-1.554,0.695-2.388c0.677-0.677,2.687-2.687,4.769-4.769
		c2.082,2.082,4.092,4.091,4.768,4.769c-0.18,0.834,0.049,1.74,0.696,2.388c0.49,0.489,1.142,0.762,1.835,0.762
		s1.346-0.271,1.835-0.762c0.491-0.489,0.761-1.142,0.761-1.837c0-0.691-0.271-1.344-0.761-1.834
		c-0.622-0.622-1.534-0.848-2.372-0.682c-0.658-0.658-2.684-2.685-4.783-4.783c1.324-1.324,2.498-2.499,3.155-3.155L32.678,26.287z
		 M18.826,35.325c-0.604,0.604-1.654,0.604-2.258,0c-0.302-0.302-0.468-0.703-0.468-1.13c0-0.426,0.166-0.826,0.468-1.127
		c0.302-0.303,0.702-0.469,1.129-0.469c0.426,0,0.826,0.168,1.129,0.469C19.449,33.689,19.449,34.702,18.826,35.325z M33.425,33.068
		c0.302,0.302,0.468,0.703,0.468,1.127c0,0.427-0.166,0.828-0.468,1.13c-0.603,0.604-1.653,0.604-2.257,0
		c-0.623-0.623-0.623-1.636-0.001-2.259c0.302-0.301,0.703-0.467,1.129-0.467C32.723,32.6,33.123,32.768,33.425,33.068z"/>
</g>
</svg>
