<?xml version="1.0" encoding="utf-8"?>
<!-- Generator: Adobe Illustrator 16.0.0, SVG Export Plug-In . SVG Version: 6.00 Build 0)  -->
<!DOCTYPE svg PUBLIC "-//W3C//DTD SVG 1.1//EN" "http://www.w3.org/Graphics/SVG/1.1/DTD/svg11.dtd">
<svg version="1.1" id="Layer_1" xmlns="http://www.w3.org/2000/svg" xmlns:xlink="http://www.w3.org/1999/xlink" x="0px" y="0px"
	 width="96px" height="96px" viewBox="0 0 96 96" enable-background="new 0 0 96 96" xml:space="preserve">
<g>
	<path d="M89.338,54.982l-44.014-32.9c0.286-2.063-0.525-4.223-2.3-5.546l-8.106-6.059c-2.601-1.946-6.303-1.413-8.247,1.192
		L8.568,35.887c-1.946,2.603-1.413,6.302,1.191,8.248l8.105,6.061c1.772,1.324,4.072,1.492,5.969,0.635l44.014,32.899
		c6.586,4.926,15.953,3.572,20.878-3.016l3.628-4.854C97.279,69.272,95.926,59.905,89.338,54.982z M34.361,51.716l-11.05-8.261
		l-1.679,2.197c-0.103,0.135-0.285,0.159-0.418,0.061l-8.106-6.058c-0.132-0.099-0.158-0.288-0.06-0.42l18.101-24.218
		c0.1-0.133,0.29-0.159,0.42-0.061l8.108,6.06c0.13,0.098,0.155,0.283,0.059,0.418l-1.631,2.234l17.768,13.282L34.361,51.716z"/>
	<path d="M0.682,64.887c0,3.876,3.142,7.016,7.016,7.016c3.875,0,7.016-3.14,7.016-7.016c0-3.875-7.016-12.756-7.016-12.756
		S0.682,61.012,0.682,64.887z"/>
</g>
</svg>
