<?xml version="1.0" encoding="utf-8"?>
<!-- Generator: Adobe Illustrator 16.0.0, SVG Export Plug-In . SVG Version: 6.00 Build 0)  -->
<!DOCTYPE svg PUBLIC "-//W3C//DTD SVG 1.1//EN" "http://www.w3.org/Graphics/SVG/1.1/DTD/svg11.dtd">
<svg version="1.1" id="Layer_1" xmlns="http://www.w3.org/2000/svg" xmlns:xlink="http://www.w3.org/1999/xlink" x="0px" y="0px"
	 width="96px" height="96px" viewBox="0 0 96 96" enable-background="new 0 0 96 96" xml:space="preserve">
<g>
	<path d="M58.153,50.564V14.417c0-7.094-5.771-12.864-12.864-12.864c-7.094,0-12.864,5.771-12.864,12.864v36.147
		c-6.808,4.366-10.964,11.887-10.964,20.055c0,13.14,10.688,23.828,23.828,23.828s23.828-10.688,23.828-23.828
		C69.117,62.451,64.961,54.931,58.153,50.564z M45.289,88.231c-9.712,0-17.612-7.9-17.612-17.612c0-6.508,3.572-12.461,9.322-15.537
		l1.642-0.878V36.863h13.297v17.341l1.642,0.878c5.75,3.076,9.322,9.029,9.322,15.537C62.901,80.331,55.001,88.231,45.289,88.231z"
		/>
	<rect x="61.289" y="15.5" width="13.25" height="5"/>
	<rect x="61.289" y="25.5" width="13.25" height="5"/>
	<rect x="61.289" y="35.5" width="13.25" height="5"/>
</g>
</svg>
