<?xml version="1.0" encoding="utf-8"?>
<!-- Generator: Adobe Illustrator 16.0.4, SVG Export Plug-In . SVG Version: 6.00 Build 0)  -->
<!DOCTYPE svg PUBLIC "-//W3C//DTD SVG 1.1//EN" "http://www.w3.org/Graphics/SVG/1.1/DTD/svg11.dtd">
<svg version="1.1" id="Layer_1" xmlns="http://www.w3.org/2000/svg" xmlns:xlink="http://www.w3.org/1999/xlink" x="0px" y="0px"
	 width="50px" height="50px" viewBox="0 0 50 50" enable-background="new 0 0 50 50" xml:space="preserve">
<path d="M25.414,16.004c-0.186-0.273-0.643-0.273-0.828,0c-0.238,0.353-5.836,8.656-5.836,11.947c0,3.446,2.805,6.25,6.25,6.25
	s6.25-2.804,6.25-6.25C31.25,24.66,25.652,16.356,25.414,16.004z M25,33.202c-2.895,0-5.25-2.354-5.25-5.25
	c0-2.284,3.473-8.053,5.25-10.765c1.777,2.712,5.25,8.479,5.25,10.765C30.25,30.848,27.895,33.202,25,33.202z M25.5,31.702
	c0,0.276-0.225,0.5-0.5,0.5c-2.344,0-4.25-1.907-4.25-4.25c0-0.276,0.225-0.5,0.5-0.5s0.5,0.224,0.5,0.5
	c0,1.792,1.458,3.25,3.25,3.25C25.275,31.202,25.5,31.425,25.5,31.702z"/>
</svg>
