<?xml version="1.0" encoding="utf-8"?>
<!-- Generator: Adobe Illustrator 16.0.4, SVG Export Plug-In . SVG Version: 6.00 Build 0)  -->
<!DOCTYPE svg PUBLIC "-//W3C//DTD SVG 1.1//EN" "http://www.w3.org/Graphics/SVG/1.1/DTD/svg11.dtd">
<svg version="1.1" id="Layer_1" xmlns="http://www.w3.org/2000/svg" xmlns:xlink="http://www.w3.org/1999/xlink" x="0px" y="0px"
	 width="50px" height="50px" viewBox="0 0 50 50" enable-background="new 0 0 50 50" xml:space="preserve">
<path d="M36.67,23.018c0-2.776-4.692-9.739-4.893-10.034c-0.093-0.137-0.248-0.22-0.414-0.22s-0.321,0.082-0.414,0.22
	c-0.096,0.143-1.238,1.839-2.394,3.864c-1.509-0.319-3.067-0.487-4.641-0.487c-3.696,0-7.267,0.893-10.327,2.581
	c-0.171,0.095-0.271,0.28-0.257,0.475c0.568,7.653,4.43,14.289,10.331,17.751c0.078,0.045,0.166,0.068,0.253,0.068
	s0.175-0.023,0.253-0.068c3.391-1.989,6.15-5.076,8-8.926C34.711,27.851,36.67,25.666,36.67,23.018z M18.344,25.877h5.073v6.955
	C21.248,31.041,19.513,28.646,18.344,25.877z M23.417,24.876h-5.476c-0.437-1.208-0.774-2.473-0.99-3.784
	c1.991-0.812,4.224-1.258,6.466-1.32V24.876z M24.417,25.877h2.49c0.447,0.693,1.055,1.266,1.766,1.688
	c-1.119,2.075-2.571,3.864-4.256,5.26V25.877L24.417,25.877z M24.417,24.876v-5.099c0.848,0.02,1.689,0.096,2.518,0.228
	c-0.518,1.168-0.877,2.249-0.877,3.012c0,0.656,0.135,1.278,0.354,1.859H24.417z M23.917,36.152
	c-5.393-3.287-8.944-9.41-9.561-16.489c2.849-1.508,6.146-2.304,9.561-2.304c1.398,0,2.782,0.142,4.127,0.406
	c-0.232,0.43-0.457,0.864-0.67,1.297c-1.091-0.189-2.209-0.282-3.333-0.286c-0.041-0.011-0.081-0.025-0.125-0.025
	c-0.043,0-0.081,0.015-0.121,0.024c-2.639,0.022-5.283,0.539-7.6,1.549c-0.207,0.091-0.328,0.309-0.295,0.531
	c0.82,5.581,3.635,10.477,7.722,13.428c0.009,0.006,0.021,0.004,0.031,0.01c0.077,0.049,0.164,0.084,0.262,0.084
	c0.098,0,0.185-0.035,0.263-0.084c0.009-0.006,0.021-0.004,0.03-0.01c2.164-1.562,4.013-3.732,5.38-6.287
	c0.453,0.162,0.934,0.26,1.434,0.293C29.313,31.638,26.877,34.348,23.917,36.152z M31.364,27.322c-0.635,0-1.233-0.146-1.776-0.394
	c-0.001-0.001-0.002-0.003-0.003-0.003s-0.002,0-0.002,0c-1.486-0.68-2.526-2.172-2.526-3.909c0-1.861,2.807-6.549,4.308-8.85
	c1.5,2.301,4.307,6.988,4.307,8.85C35.67,25.392,33.738,27.322,31.364,27.322z M31.864,26.15c0,0.275-0.224,0.5-0.5,0.5
	c-2.005,0-3.636-1.63-3.636-3.634c0-0.276,0.224-0.5,0.5-0.5c0.275,0,0.5,0.224,0.5,0.5c0,1.452,1.183,2.634,2.636,2.634
	C31.641,25.65,31.864,25.875,31.864,26.15z"/>
</svg>
