<?xml version="1.0" encoding="utf-8"?>
<!-- Generator: Adobe Illustrator 16.0.0, SVG Export Plug-In . SVG Version: 6.00 Build 0)  -->
<!DOCTYPE svg PUBLIC "-//W3C//DTD SVG 1.1//EN" "http://www.w3.org/Graphics/SVG/1.1/DTD/svg11.dtd">
<svg version="1.1" id="Layer_1" xmlns="http://www.w3.org/2000/svg" xmlns:xlink="http://www.w3.org/1999/xlink" x="0px" y="0px"
	 width="96px" height="96px" viewBox="0 0 96 96" enable-background="new 0 0 96 96" xml:space="preserve">
<g>
	<path d="M93.075,5.431c-2.52-3.345-7.29-4.015-10.635-1.495L67.928,14.87c-0.107,0.081-0.211,0.165-0.31,0.251l-1.245-1.65
		c-1.522-2.021-4.407-2.429-6.428-0.904c-2.021,1.522-2.427,4.406-0.903,6.428l0.22,0.293l-40.796,30.74L8.606,64.42l4.475,5.938
		l16.555-5.509l40.796-30.738l0.221,0.293c1.523,2.021,4.406,2.427,6.428,0.903c2.021-1.522,2.427-4.406,0.904-6.428l-1.244-1.649
		c0.11-0.072,0.219-0.148,0.325-0.23L91.58,16.064C94.924,13.546,95.595,8.776,93.075,5.431z M35.967,53.74l-13.794-0.169
		L62.309,23.33l5.076,6.739L35.967,53.74z"/>
	<path d="M1.399,86.385c0,3.98,3.227,7.206,7.207,7.206s7.207-3.226,7.207-7.206c0-3.981-7.207-13.104-7.207-13.104
		S1.399,82.403,1.399,86.385z"/>
</g>
</svg>
