<?xml version="1.0" encoding="utf-8"?>
<!-- Generator: Adobe Illustrator 16.0.4, SVG Export Plug-In . SVG Version: 6.00 Build 0)  -->
<!DOCTYPE svg PUBLIC "-//W3C//DTD SVG 1.1//EN" "http://www.w3.org/Graphics/SVG/1.1/DTD/svg11.dtd">
<svg version="1.1" id="Layer_1" xmlns="http://www.w3.org/2000/svg" xmlns:xlink="http://www.w3.org/1999/xlink" x="0px" y="0px"
	 width="50px" height="50px" viewBox="0 0 50 50" enable-background="new 0 0 50 50" xml:space="preserve">
<path d="M30.938,17.688H19.062c-0.179,0-0.345,0.097-0.434,0.252c-0.089,0.154-0.089,0.347,0.002,0.5l1.682,2.884v10.489
	c0,0.276,0.225,0.5,0.5,0.5h10.125c0.276,0,0.5-0.224,0.5-0.5V18.188C31.438,17.911,31.214,17.688,30.938,17.688z M30.438,31.312
	h-9.125v-3h1.75c0.276,0,0.5-0.225,0.5-0.5c0-0.276-0.224-0.5-0.5-0.5h-1.75v-1.375h1.75c0.276,0,0.5-0.225,0.5-0.5
	c0-0.276-0.224-0.5-0.5-0.5h-1.75v-1.375h1.75c0.276,0,0.5-0.225,0.5-0.5c0-0.276-0.224-0.5-0.5-0.5h-1.75v-1.375
	c0-0.09-0.022-0.177-0.067-0.252l-1.312-2.248h10.504V31.312z M27.5,26.438c0-0.311,0.252-0.562,0.562-0.562
	c0.31,0,0.562,0.252,0.562,0.562c0,0.311-0.252,0.562-0.562,0.562C27.752,27,27.5,26.748,27.5,26.438z M25.188,27.812
	c0-0.346,0.279-0.625,0.625-0.625c0.347,0,0.625,0.279,0.625,0.625c0,0.345-0.278,0.625-0.625,0.625
	C25.467,28.438,25.188,28.157,25.188,27.812z M26.875,29.438c0-0.518,0.42-0.938,0.938-0.938c0.519,0,0.938,0.42,0.938,0.938
	c0,0.519-0.42,0.938-0.938,0.938C27.295,30.376,26.875,29.955,26.875,29.438z M25.562,24.812c0-0.346,0.278-0.625,0.625-0.625
	c0.346,0,0.625,0.279,0.625,0.625c0,0.345-0.279,0.625-0.625,0.625C25.841,25.438,25.562,25.157,25.562,24.812z M23.828,29.688
	c0-0.336,0.273-0.608,0.609-0.608s0.608,0.272,0.608,0.608c0,0.338-0.272,0.609-0.608,0.609S23.828,30.023,23.828,29.688z"/>
</svg>
