<?xml version="1.0" encoding="utf-8"?>
<!-- Generator: Adobe Illustrator 16.0.4, SVG Export Plug-In . SVG Version: 6.00 Build 0)  -->
<!DOCTYPE svg PUBLIC "-//W3C//DTD SVG 1.1//EN" "http://www.w3.org/Graphics/SVG/1.1/DTD/svg11.dtd">
<svg version="1.1" id="Layer_1" xmlns="http://www.w3.org/2000/svg" xmlns:xlink="http://www.w3.org/1999/xlink" x="0px" y="0px"
	 width="50px" height="50px" viewBox="0 0 50 50" enable-background="new 0 0 50 50" xml:space="preserve">
<path d="M20.578,12.28l-2.505,2.339v0.67h-1.025l-2.505,2.339V37.72h14.879v-0.602l1.955-1.738h0.55v-0.668h1.025V34.11l1.957-1.738
	h0.548V12.28H20.578z M26.113,26.933c-0.083,0.393-0.461,0.723-0.623,1.219c-0.163,0.494,0,2.098,0,2.098
	c0,0.809-0.638,1.498-1.538,1.781c0-0.014,0.003-0.027,0.003-0.043c0-1.768-0.752-3.201-1.679-3.201c-0.928,0-1.68,1.434-1.68,3.201
	c0,0.016,0.002,0.029,0.002,0.043c-0.899-0.283-1.536-0.973-1.536-1.781c0,0,0.162-1.604,0-2.102
	c-0.161-0.494-0.54-0.822-0.621-1.215c-0.071-0.228-0.111-0.469-0.111-0.721c0-0.884,0.466-1.65,1.153-2.05
	c0.319-0.187,0.687-0.291,1.074-0.291c0.692,0,1.31,0.33,1.719,0.847c0.409-0.517,1.025-0.847,1.719-0.847
	c0.387,0,0.755,0.104,1.075,0.291c0.688,0.398,1.152,1.166,1.152,2.05C26.224,26.464,26.187,26.706,26.113,26.933z M31.263,31.929
	v0.092v0.217v0.135v0.174v1.988v0.088v0.09v0.297l-0.021,0.021l-0.397,0.353l-1.423,1.264V35.38v-0.353v-0.315v-0.091v-0.088v-2.162
	V32.02v-2.114v-0.309v-0.31V17.628h-8.131h-0.216h-0.145h-0.069h-0.283H18.25h-0.089h-0.088h-0.674h-0.353h-1.312l0.091-0.091
	l0.091-0.088l0.954-0.937l0.089-0.088l0.088-0.086l0.252-0.248l0.101-0.098l0.009-0.008h0.665h0.088h0.089h1.466h0.216h0.215h0.433
	h0.354h10.331L31.263,31.929L31.263,31.929z M34.795,32.001l-0.021,0.021l-0.396,0.352l-1.425,1.267v-1.267v-0.352V14.619H20.932
	h-0.354h-1.312l0.09-0.089l0.091-0.088l0.953-0.936l0.09-0.086l0.088-0.086l0.255-0.25l0.099,0.002v-0.099l0.01-0.01h13.854
	L34.795,32.001L34.795,32.001z"/>
</svg>
