<?xml version="1.0" encoding="utf-8"?>
<!-- Generator: Adobe Illustrator 16.0.4, SVG Export Plug-In . SVG Version: 6.00 Build 0)  -->
<!DOCTYPE svg PUBLIC "-//W3C//DTD SVG 1.1//EN" "http://www.w3.org/Graphics/SVG/1.1/DTD/svg11.dtd">
<svg version="1.1" id="Layer_1" xmlns="http://www.w3.org/2000/svg" xmlns:xlink="http://www.w3.org/1999/xlink" x="0px" y="0px"
	 width="50px" height="50px" viewBox="0 0 50 50" enable-background="new 0 0 50 50" xml:space="preserve">
<path d="M35.229,20.404c-0.391-1.687-1.531-2.924-3.298-3.578c-1.165-0.43-3.956-0.793-5.249,0.637
	c-0.569-0.334-1.119-0.613-1.637-0.814c-1.026-1.514-2.76-2.512-4.724-2.512c-3.145,0-5.704,2.559-5.704,5.703
	c0,2.252,1.316,4.197,3.217,5.125c0.246,0.479,0.544,0.936,0.89,1.314c0.955,1.051,1.23,1.656,1.384,2.346
	c0.037,0.162,0.113,0.605,0.117,0.695c0.247,5.875,2.273,6.436,2.795,6.481c0.145,0.041,0.288,0.062,0.427,0.062
	c0.259,0,0.507-0.068,0.73-0.207c1.027-0.631,1.336-2.545,1.607-4.232c0.097-0.6,0.188-1.166,0.293-1.492
	c0.114-0.354,0.215-0.531,0.275-0.613c0.112,0.132,0.25,0.41,0.271,0.533c0.037,0.252,0.062,0.578,0.092,0.943
	c0.155,1.912,0.389,4.793,2.46,5.006c0.162,0.033,0.521,0.062,0.954-0.201c0.969-0.588,1.682-2.248,2.119-4.938l0.065-0.428
	c0.155-1.058,0.367-2.504,1.229-3.41C34.574,25.744,35.821,22.959,35.229,20.404z M15.619,19.84c0-2.594,2.11-4.703,4.704-4.703
	c2.593,0,4.702,2.109,4.702,4.703s-2.109,4.703-4.702,4.703c-0.685,0-1.331-0.154-1.918-0.42c-0.02-0.01-0.037-0.023-0.059-0.031
	C16.741,23.342,15.619,21.725,15.619,19.84z M32.821,26.135c-1.082,1.137-1.33,2.832-1.495,3.955l-0.062,0.412
	c-0.596,3.654-1.581,4.336-1.848,4.33c-0.037-0.012-0.075-0.02-0.112-0.023c-1.267-0.108-1.469-2.604-1.589-4.094
	c-0.031-0.391-0.06-0.738-0.1-1.008c-0.043-0.299-0.438-1.371-1.204-1.434c-0.837-0.054-1.169,1-1.284,1.352
	C25,30.023,24.908,30.6,24.8,31.264c-0.202,1.254-0.508,3.15-1.145,3.541c-0.077,0.047-0.19,0.09-0.396,0.025
	c-0.054-0.018-0.083-0.023-0.141-0.023c-0.017,0-1.668-0.191-1.893-5.531c-0.009-0.196-0.11-0.733-0.141-0.869
	c-0.219-0.979-0.658-1.739-1.62-2.799c-0.041-0.045-0.087-0.102-0.133-0.155c0.322,0.057,0.652,0.092,0.99,0.092
	c3.144,0,5.702-2.56,5.702-5.703c0-0.614-0.102-1.207-0.282-1.762c0.903,0.481,1.882,1.146,2.934,2.012
	c0.094,0.076,0.206,0.113,0.317,0.113c0.146,0,0.288-0.062,0.387-0.185c0.176-0.213,0.146-0.526-0.068-0.703
	c-0.613-0.504-1.201-0.93-1.773-1.313c0.935-0.808,3.006-0.623,4.046-0.237c1.457,0.538,2.355,1.504,2.671,2.866
	C34.735,22.701,33.712,25.199,32.821,26.135z M19.913,20.232h-2.576V20.23c0-0.345,0.087-0.642,0.262-0.888
	c0.175-0.25,0.503-0.541,0.985-0.881c0.216-0.147,0.367-0.287,0.456-0.412s0.132-0.266,0.132-0.418c0-0.168-0.048-0.303-0.145-0.403
	c-0.097-0.104-0.225-0.154-0.384-0.154c-0.17,0-0.302,0.064-0.396,0.191c-0.096,0.129-0.14,0.303-0.133,0.521h-0.728
	c-0.013-0.408,0.095-0.734,0.322-0.976c0.227-0.24,0.54-0.358,0.94-0.358c0.371,0,0.675,0.11,0.912,0.33
	c0.234,0.223,0.352,0.508,0.352,0.856c0,0.287-0.066,0.523-0.201,0.711c-0.133,0.189-0.384,0.4-0.752,0.635
	c-0.341,0.218-0.573,0.412-0.697,0.589l-0.002,0.006h1.652L19.913,20.232L19.913,20.232z M21.791,20.232h0.73V19.4h0.425v-0.592
	h-0.425v-2.355h-0.415H21.69l-1.396,2.303v0.322V19.4h1.496V20.232L21.791,20.232z M20.842,18.809l0.031-0.053l0.917-1.521v1.574
	H20.842z M17.98,21.908v0.881h-0.201h-0.205v-1.945h0.203h0.203v0.73h0.763v-0.73h0.202h0.204v1.945h-0.203h-0.203v-0.881H17.98z
	 M21.093,22.537l-0.01-0.318c-0.004-0.156-0.062-0.268-0.173-0.334c-0.019-0.012-0.041-0.021-0.065-0.031
	c0.043-0.016,0.081-0.037,0.114-0.061c0.126-0.084,0.189-0.221,0.189-0.408c0-0.162-0.057-0.293-0.17-0.393
	s-0.263-0.148-0.449-0.148h-0.778h-0.203v1.945h0.204h0.203v-0.77h0.406c0.115,0,0.197,0.02,0.247,0.055
	c0.05,0.039,0.076,0.102,0.078,0.188l0.002,0.182c0.001,0.076,0.006,0.146,0.014,0.216c0.008,0.065,0.017,0.11,0.027,0.129h0.449
	v-0.052c-0.032-0.016-0.055-0.036-0.065-0.063C21.103,22.646,21.096,22.602,21.093,22.537z M20.664,21.629
	c-0.053,0.043-0.132,0.064-0.236,0.064h-0.472V21.18h0.487c0.1,0,0.175,0.021,0.225,0.062c0.05,0.043,0.075,0.106,0.075,0.192
	S20.716,21.586,20.664,21.629z M21.91,21.193c-0.06,0.047-0.088,0.108-0.088,0.188c0,0.06,0.03,0.104,0.092,0.136
	c0.06,0.032,0.187,0.069,0.383,0.112c0.283,0.062,0.473,0.138,0.568,0.222c0.095,0.08,0.143,0.213,0.143,0.395
	c0,0.184-0.071,0.328-0.216,0.436c-0.144,0.107-0.339,0.16-0.584,0.16c-0.246,0-0.438-0.055-0.577-0.17
	c-0.139-0.113-0.213-0.275-0.223-0.486H21.8c0.003,0.104,0.042,0.183,0.112,0.238c0.07,0.057,0.169,0.084,0.295,0.084
	c0.13,0,0.232-0.021,0.304-0.064c0.072-0.041,0.11-0.098,0.11-0.172c0-0.073-0.027-0.129-0.079-0.162
	c-0.052-0.034-0.161-0.069-0.328-0.106c-0.31-0.069-0.517-0.146-0.62-0.226c-0.104-0.077-0.154-0.202-0.154-0.37
	c0-0.188,0.067-0.341,0.204-0.451c0.138-0.108,0.322-0.164,0.556-0.164c0.218,0,0.395,0.058,0.531,0.172
	c0.137,0.113,0.213,0.271,0.229,0.466h-0.396c-0.007-0.095-0.048-0.166-0.123-0.222c-0.073-0.056-0.171-0.082-0.289-0.082
	C22.048,21.125,21.967,21.148,21.91,21.193z"/>
</svg>
