<?xml version="1.0" encoding="utf-8"?>
<!-- Generator: Adobe Illustrator 16.0.4, SVG Export Plug-In . SVG Version: 6.00 Build 0)  -->
<!DOCTYPE svg PUBLIC "-//W3C//DTD SVG 1.1//EN" "http://www.w3.org/Graphics/SVG/1.1/DTD/svg11.dtd">
<svg version="1.1" id="Layer_1" xmlns="http://www.w3.org/2000/svg" xmlns:xlink="http://www.w3.org/1999/xlink" x="0px" y="0px"
	 width="50px" height="50px" viewBox="0 0 50 50" enable-background="new 0 0 50 50" xml:space="preserve">
<path d="M19.648,24.404c0.119,0.186,0.232,0.359,0.296,0.555c0.085,0.261,0.055,1.248-0.025,2.064c0,1.054,0.775,1.979,1.974,2.359
	c0.031,0.01,0.063,0.016,0.096,0.018c0.292,0.049,0.575-0.191,0.575-0.493c0-0.05-0.007-0.099-0.021-0.146
	c0.026-1.601,0.684-2.785,1.273-2.785c0.602,0,1.274,1.233,1.274,2.875c0,0.012-0.002,0.045-0.002,0.056
	c0,0.159,0.076,0.31,0.205,0.403c0.087,0.062,0.19,0.097,0.294,0.097c0.052,0,0.103-0.009,0.152-0.023
	c1.198-0.38,1.973-1.307,1.971-2.411c-0.078-0.765-0.107-1.75-0.021-2.012c0.062-0.193,0.178-0.369,0.297-0.554
	c0.154-0.237,0.312-0.482,0.363-0.735c0.094-0.292,0.141-0.602,0.141-0.918c0-1.078-0.562-2.074-1.468-2.598
	c-1.009-0.584-2.33-0.449-3.205,0.302c-0.875-0.75-2.191-0.885-3.206-0.302c-0.905,0.525-1.468,1.521-1.468,2.6
	c0,0.309,0.048,0.615,0.13,0.865C19.337,23.924,19.496,24.168,19.648,24.404z M21.112,21.021c0.276-0.16,0.575-0.24,0.889-0.24
	c0.55,0,1.068,0.257,1.423,0.705c0.095,0.119,0.239,0.188,0.392,0.188l0,0c0.152,0,0.297-0.069,0.392-0.188
	c0.557-0.7,1.559-0.901,2.313-0.465c0.598,0.346,0.969,1.01,0.969,1.731c0,0.213-0.031,0.419-0.105,0.662
	c-0.025,0.121-0.129,0.278-0.237,0.446c-0.144,0.22-0.304,0.469-0.407,0.785c-0.195,0.596-0.054,2.125-0.025,2.375
	c0,0.428-0.246,0.826-0.66,1.11c-0.188-1.842-1.087-3.155-2.238-3.155c-1.145,0-2.041,1.301-2.234,3.16
	c-0.417-0.281-0.665-0.672-0.666-1.064c0.03-0.301,0.172-1.832-0.022-2.426c-0.104-0.317-0.265-0.566-0.407-0.787
	c-0.113-0.174-0.21-0.323-0.248-0.493c-0.063-0.2-0.096-0.406-0.096-0.611C20.145,22.033,20.516,21.368,21.112,21.021z
	 M35.139,15.259H18.992c-0.276,0-0.5,0.224-0.5,0.5v2.23h-3.63c-0.276,0-0.5,0.224-0.5,0.5v11.593c0,0.275,0.224,0.5,0.5,0.5h3.787
	v3.659c0,0.188,0.107,0.362,0.276,0.446c0.071,0.035,0.147,0.054,0.224,0.054c0.106,0,0.212-0.034,0.3-0.101l5.409-4.06h7.896
	c0.275,0,0.5-0.224,0.5-0.5v-3.783h1.885c0.275,0,0.5-0.224,0.5-0.5v-10.04C35.639,15.482,35.414,15.259,35.139,15.259z
	 M32.254,29.582h-7.562c-0.108,0-0.213,0.035-0.3,0.1l-4.743,3.561v-3.159c0-0.276-0.224-0.5-0.5-0.5h-3.787V18.99h16.893V29.582
	L32.254,29.582z M34.639,25.299h-1.385v-6.81c0-0.276-0.225-0.5-0.5-0.5H19.491v-1.73h15.147L34.639,25.299L34.639,25.299z"/>
</svg>
