<?xml version="1.0" encoding="utf-8"?>
<!-- Generator: Adobe Illustrator 16.0.4, SVG Export Plug-In . SVG Version: 6.00 Build 0)  -->
<!DOCTYPE svg PUBLIC "-//W3C//DTD SVG 1.1//EN" "http://www.w3.org/Graphics/SVG/1.1/DTD/svg11.dtd">
<svg version="1.1" id="Layer_1" xmlns="http://www.w3.org/2000/svg" xmlns:xlink="http://www.w3.org/1999/xlink" x="0px" y="0px"
	 width="50px" height="50px" viewBox="0 0 50 50" enable-background="new 0 0 50 50" xml:space="preserve">
<path d="M22.885,22.016c0,0.276-0.225,0.5-0.5,0.5c-0.217,0-0.426,0.059-0.62,0.172c-0.456,0.263-0.738,0.783-0.738,1.355
	c0,0.163,0.025,0.326,0.075,0.484c0.006,0.017,0.033,0.104,0.036,0.123c0.008,0.018,0.101,0.158,0.17,0.266
	c0.224,0.348,0.523,0.813,0.723,1.421c0.086,0.263-0.057,0.545-0.319,0.631c-0.052,0.017-0.104,0.024-0.155,0.024
	c-0.21,0-0.406-0.135-0.476-0.346c-0.159-0.483-0.397-0.854-0.608-1.183c-0.108-0.167-0.248-0.396-0.272-0.455
	c-0.012-0.028-0.036-0.133-0.042-0.163c-0.09-0.273-0.131-0.537-0.131-0.804c0-0.931,0.474-1.78,1.237-2.222
	c0.349-0.203,0.726-0.307,1.12-0.307C22.66,21.516,22.885,21.74,22.885,22.016z M31.389,25.024v7.454c0,0.826-0.674,1.5-1.5,1.5
	c-0.667,0-1.227-0.439-1.422-1.043c-0.257,0.142-0.53,0.26-0.818,0.352c-0.049,0.016-0.101,0.023-0.15,0.023
	c-0.104,0-0.209-0.033-0.296-0.098c-0.128-0.095-0.204-0.244-0.204-0.402c0.004-2.613-1.064-4.389-2.024-4.389
	s-2.029,1.775-2.029,4.323c0,0.159-0.074,0.341-0.203,0.437c-0.128,0.094-0.292,0.152-0.444,0.104
	c-1.618-0.511-2.665-1.751-2.665-3.16c0.094-0.944,0.18-2.539,0.025-3.011c-0.099-0.303-0.275-0.574-0.446-0.838
	c-0.208-0.319-0.422-0.651-0.505-1.045c-0.114-0.353-0.179-0.769-0.179-1.188c0-1.461,0.761-2.812,1.986-3.521
	c1.427-0.821,3.28-0.582,4.46,0.53c0.964-0.907,2.371-1.223,3.631-0.866l-0.697-1.302c-0.114-0.212-0.061-0.474,0.126-0.625
	l2.625-2.125c0.214-0.175,0.529-0.14,0.703,0.074c0.174,0.215,0.141,0.528-0.074,0.703l-2.303,1.864l1.346,2.511
	c0.039,0.071,0.061,0.153,0.061,0.235V23.5c0,0.039-0.015,0.072-0.022,0.107C30.958,23.811,31.389,24.365,31.389,25.024z
	 M27.978,32.065c0.15-0.08,0.278-0.184,0.41-0.282v-6.759c0-0.659,0.43-1.215,1.021-1.416c-0.008-0.035-0.021-0.068-0.021-0.107
	v-1.771c-0.144-0.127-0.292-0.246-0.458-0.343c-1.172-0.674-2.714-0.36-3.567,0.716c-0.095,0.119-0.239,0.188-0.392,0.188
	c-0.153,0-0.298-0.07-0.393-0.188c-0.852-1.078-2.392-1.39-3.566-0.716c-0.917,0.532-1.487,1.552-1.487,2.656
	c0,0.317,0.049,0.632,0.145,0.935c0.058,0.26,0.206,0.49,0.378,0.756c0.195,0.303,0.417,0.646,0.558,1.069
	c0.265,0.81,0.064,2.951,0.021,3.373c0.002,0.742,0.513,1.453,1.345,1.896c0.192-2.68,1.44-4.649,3-4.649
	C26.539,27.422,27.793,29.413,27.978,32.065z M30.389,25.024c0-0.275-0.225-0.5-0.5-0.5c-0.276,0-0.5,0.225-0.5,0.5v7.454
	c0,0.274,0.224,0.5,0.5,0.5c0.275,0,0.5-0.226,0.5-0.5V25.024z"/>
</svg>
