<?xml version="1.0" encoding="utf-8"?>
<!-- Generator: Adobe Illustrator 17.1.0, SVG Export Plug-In . SVG Version: 6.00 Build 0)  -->
<!DOCTYPE svg PUBLIC "-//W3C//DTD SVG 1.1//EN" "http://www.w3.org/Graphics/SVG/1.1/DTD/svg11.dtd">
<svg version="1.1" xmlns="http://www.w3.org/2000/svg" xmlns:xlink="http://www.w3.org/1999/xlink" x="0px" y="0px"
	 viewBox="0 0 64 64" enable-background="new 0 0 64 64" xml:space="preserve">
<g id="Imagenes">
</g>
<g id="Layer_2">
	<path d="M34.379,19.88l-1.575-4.11l-1.56,4.114c0.528-0.053,1.063-0.081,1.604-0.081C33.365,19.802,33.875,19.831,34.379,19.88z"/>
	<path d="M58.085,28.43c-2.098-0.066-3.839,1.325-5.834,2.294c-2.626,1.275-1.835-0.787-1.835-0.787l5.9-11.209
		c-3.278-3.343-13.372-7.145-13.372-7.145l-4.075,8.989L32.848,5.75l-6.22,14.807l-4.068-8.973c0,0-10.095,3.802-13.372,7.145
		l5.9,11.209c0,0,0.791,2.062-1.835,0.787c-1.995-0.969-3.736-2.36-5.834-2.294s-3.933,3.278-3.933,6.424
		c0,3.146,0.787,7.211,4.13,7.211c3.343,0,4.982-1.77,6.162-2.425c1.18-0.656,2.098,0.131,1.475,1.311
		c-0.623,1.18-6.588,10.619-6.588,10.619s5.965,4.195,13.634,7.014l3.474-8.793c-5.187-2.605-8.763-7.961-8.763-14.15
		c0-6.418,3.844-11.944,9.344-14.43c0.158-0.072,0.314-0.147,0.475-0.213c1.042-0.43,2.142-0.742,3.282-0.942l2.691-7.094
		l2.713,7.083c1.106,0.189,2.173,0.487,3.189,0.892c0.123,0.049,0.25,0.092,0.372,0.144c5.646,2.424,9.613,8.036,9.613,14.56
		c0,6.253-3.651,11.654-8.925,14.228l3.443,8.715c7.669-2.819,13.634-7.014,13.634-7.014s-5.965-9.439-6.588-10.619
		c-0.623-1.18,0.295-1.967,1.475-1.311c1.18,0.656,2.819,2.425,6.162,2.425c3.343,0,4.13-4.064,4.13-7.211
		C62.018,31.708,60.183,28.496,58.085,28.43z"/>
	<path d="M30.271,21.042c-0.192,0.034-0.385,0.064-0.575,0.105c-0.932,0.202-1.832,0.489-2.69,0.858
		c-0.423,0.182-0.836,0.38-1.238,0.599c-4.618,2.518-7.759,7.417-7.759,13.037c0,5.767,3.313,10.764,8.13,13.218
		c2.018,1.028,4.293,1.62,6.708,1.62c2.351,0,4.568-0.564,6.546-1.542c4.904-2.424,8.293-7.466,8.293-13.297
		c0-5.736-3.277-10.712-8.053-13.181c-0.372-0.192-0.75-0.374-1.139-0.535c-0.822-0.339-1.679-0.608-2.567-0.797
		c-0.189-0.04-0.382-0.065-0.573-0.098c-0.189-0.032-0.378-0.062-0.569-0.087c-0.636-0.083-1.28-0.141-1.938-0.141
		c-0.684,0-1.351,0.063-2.01,0.153C30.648,20.981,30.459,21.009,30.271,21.042z M32.849,23.406c1.091,0,2.143,0.157,3.151,0.426
		c0.895,0.239,1.752,0.569,2.554,0.993c3.879,2.054,6.53,6.129,6.53,10.815c0,4.513-2.462,8.453-6.108,10.574
		c-1.804,1.05-3.893,1.661-6.127,1.661c-2.314,0-4.471-0.657-6.318-1.777c-3.539-2.147-5.917-6.025-5.917-10.458
		c0-4.608,2.562-8.626,6.335-10.712c1.557-0.861,3.323-1.38,5.199-1.487C32.381,23.428,32.612,23.406,32.849,23.406z"/>
	<path d="M28.27,40c-0.7,0-1.27,0.57-1.27,1.27v0.46c0,0.7,0.569,1.27,1.27,1.27h1.721c-0.176-1.228-0.075-2.34,0.028-3H28.27z"/>
	<path d="M37.73,43c0.523,0,0.972-0.318,1.166-0.771C38.963,42.075,39,41.907,39,41.73v-0.46c0-0.196-0.053-0.377-0.133-0.543
		C38.662,40.301,38.234,40,37.73,40h-1.87c0.271,0.88,0.366,1.914,0.176,3H37.73z"/>
	<path d="M21.613,35.641c0,3.864,1.961,7.278,4.94,9.301c1.518,1.031,3.301,1.698,5.223,1.88c-0.824-0.855-1.31-1.844-1.578-2.822
		H28.27c-0.67,0-1.267-0.298-1.682-0.761C26.226,42.837,26,42.311,26,41.73v-0.46c0-0.621,0.252-1.184,0.657-1.594
		C27.069,39.259,27.639,39,28.27,39h1.967h5.226h2.269c0.404,0,0.779,0.115,1.108,0.302C39.528,39.692,40,40.423,40,41.27v0.46
		c0,0.812-0.432,1.52-1.075,1.922C38.577,43.869,38.17,44,37.73,44h-1.953c-0.323,0.947-0.885,1.906-1.756,2.814
		c1.806-0.188,3.482-0.811,4.932-1.754c3.083-2.005,5.13-5.475,5.13-9.419c0-4.101-2.216-7.686-5.507-9.648
		c-1.68-1.001-3.634-1.587-5.727-1.587c-2.175,0-4.201,0.632-5.923,1.706C23.742,28.097,21.613,31.621,21.613,35.641z
		 M35.516,31.615c0.472-0.944,1.585-1.531,2.905-1.531c0.081,0,0.157,0.021,0.236,0.026c1.153,0.065,2.219,0.575,2.879,1.422
		l0.234,0.302l-0.229,0.306c-0.71,0.945-1.743,1.536-2.812,1.631c-0.1,0.009-0.2,0.02-0.301,0.02c-1.18,0-2.234-0.616-2.893-1.69
		l-0.145-0.236L35.516,31.615z M31.549,35.474l0.133,0.386c0.157,0.46,0.649,1.411,1.167,1.411c0.514,0,1.009-0.98,1.156-1.427
		l0.119-0.364l0.382,0.021c1.01,0.054,1.317-0.152,1.385-0.216c0.041-0.038,0.067-0.083,0.067-0.18c0-0.276,0.224-0.5,0.5-0.5
		s0.5,0.224,0.5,0.5c0,0.357-0.131,0.671-0.379,0.906c-0.355,0.337-0.913,0.488-1.761,0.5c-0.265,0.612-0.903,1.761-1.97,1.761
		c-1.052,0-1.693-1.108-1.967-1.718c-0.602,0.033-1.398-0.026-1.905-0.472c-0.284-0.25-0.435-0.588-0.435-0.977
		c0-0.276,0.224-0.5,0.5-0.5s0.5,0.224,0.5,0.5c0,0.102,0.027,0.167,0.095,0.227c0.23,0.202,0.837,0.282,1.508,0.194L31.549,35.474z
		 M30.456,31.532l0.234,0.301l-0.229,0.305c-0.775,1.034-1.938,1.651-3.112,1.651c-0.196,0-0.387-0.023-0.575-0.056
		c-0.943-0.167-1.769-0.738-2.318-1.634l-0.146-0.237l0.124-0.248c0.412-0.823,1.312-1.375,2.411-1.502
		c0.161-0.019,0.327-0.029,0.495-0.029C28.587,30.084,29.752,30.625,30.456,31.532z"/>
	<path d="M35.012,43c0.233-1.108,0.113-2.158-0.205-3h-3.771c-0.096,0.574-0.227,1.735-0.02,3c0.054,0.329,0.133,0.665,0.24,1
		c0.289,0.906,0.791,1.802,1.645,2.519c0.883-0.806,1.458-1.667,1.805-2.519C34.844,43.664,34.943,43.33,35.012,43z"/>
</g>
</svg>
