<?xml version="1.0" encoding="utf-8"?>
<!-- Generator: Adobe Illustrator 17.0.0, SVG Export Plug-In . SVG Version: 6.00 Build 0)  -->
<!DOCTYPE svg PUBLIC "-//W3C//DTD SVG 1.1//EN" "http://www.w3.org/Graphics/SVG/1.1/DTD/svg11.dtd">
<svg version="1.1" id="Capa_1" xmlns="http://www.w3.org/2000/svg" xmlns:xlink="http://www.w3.org/1999/xlink" x="0px" y="0px"
	 width="18.58px" height="12.364px" viewBox="0 0 18.58 12.364" enable-background="new 0 0 18.58 12.364" xml:space="preserve">
<path d="M18.58,2.08h-0.002c0-1.148-0.93-2.078-2.077-2.078h-1.138c-0.061,0-0.118,0.012-0.178,0.018
	c0.049,0.167,0.081,0.349,0.089,0.549c0.009,0.209,0.007,0.418,0.013,0.627c0.024-0.002,0.05-0.007,0.076-0.007h1.138
	c0.49,0,0.89,0.399,0.89,0.891v3.093c-0.773-0.806-1.858-1.309-3.063-1.309c-1.665,0-3.103,0.959-3.8,2.354
	c-0.029,0.035-0.065,0.064-0.093,0.101C9.744,5.866,8.841,5.868,8.152,6.325C8.121,6.283,8.08,6.251,8.047,6.21
	C7.349,4.82,5.913,3.863,4.251,3.863c-1.203,0-2.288,0.501-3.061,1.305v-3.09c0-0.492,0.399-0.891,0.89-0.891h1.139
	c0.025,0,0.05,0.004,0.075,0.007C3.3,0.985,3.298,0.776,3.307,0.567c0.009-0.2,0.04-0.382,0.089-0.549C3.336,0.012,3.28,0,3.219,0
	H2.08C0.934,0,0.003,0.93,0.003,2.078v4.393c0,0.189,0.028,0.37,0.076,0.544C0.034,7.184,0.003,7.359,0.003,7.542v0.515
	C0.003,8.076,0,8.094,0,8.113C0,8.132,0.003,8.15,0.003,8.169V8.37c0.003-0.001,0.007-0.001,0.01-0.002
	c0.133,2.228,1.977,3.996,4.238,3.996c2.347,0,4.25-1.903,4.25-4.25c0-0.152-0.009-0.302-0.024-0.45
	c0.024,0.007,0.051,0.011,0.075,0.019V7.545l0.117-0.117c0.348-0.347,0.912-0.347,1.26,0l0.103,0.103
	c0,0.003-0.001,0.007-0.001,0.011V7.66c0.024-0.007,0.05-0.008,0.075-0.014c-0.017,0.153-0.027,0.31-0.027,0.468
	c0,2.347,1.903,4.25,4.25,4.25c2.348,0,4.251-1.903,4.251-4.25c0-0.171-0.014-0.339-0.032-0.505c0.01,0.004,0.021,0.006,0.032,0.011
	V7.543c0-0.184-0.031-0.358-0.076-0.527c0.048-0.173,0.076-0.354,0.076-0.544V2.08z M4.25,11.328c-1.775,0-3.213-1.438-3.213-3.212
	c0-1.775,1.438-3.213,3.213-3.213c1.774,0,3.213,1.438,3.213,3.213C7.463,9.89,6.025,11.328,4.25,11.328z M14.328,11.328
	c-1.773,0-3.213-1.438-3.213-3.212c0-1.775,1.439-3.213,3.213-3.213c1.775,0,3.214,1.438,3.214,3.213
	C17.541,9.89,16.103,11.328,14.328,11.328z"/>
</svg>
