<?xml version="1.0" encoding="utf-8"?>
<!-- Generator: Adobe Illustrator 16.0.4, SVG Export Plug-In . SVG Version: 6.00 Build 0)  -->
<!DOCTYPE svg PUBLIC "-//W3C//DTD SVG 1.1//EN" "http://www.w3.org/Graphics/SVG/1.1/DTD/svg11.dtd">
<svg version="1.1" id="Layer_1" xmlns="http://www.w3.org/2000/svg" xmlns:xlink="http://www.w3.org/1999/xlink" x="0px" y="0px"
	 width="50px" height="50px" viewBox="0 0 50 50" enable-background="new 0 0 50 50" xml:space="preserve">
<path d="M25,15.667c-5.146,0-9.333,4.187-9.333,9.332s4.187,9.334,9.333,9.334c5.147,0,9.334-4.188,9.334-9.334
	C34.332,19.854,30.146,15.667,25,15.667z M17.233,22h4.709c-0.073,0.268-0.125,0.543-0.125,0.833s0.052,0.565,0.125,0.834h-5.161
	C16.875,23.089,17.027,22.531,17.233,22z M22.818,22.833c0-1.202,0.978-2.181,2.181-2.181c1.204,0,2.182,0.979,2.182,2.181
	c0,1.203-0.979,2.183-2.182,2.183C23.796,25.016,22.818,24.036,22.818,22.833z M28.056,22h4.71c0.207,0.533,0.357,1.092,0.451,1.671
	c-0.008,0-0.014-0.004-0.021-0.004h-5.14c0.073-0.269,0.125-0.544,0.125-0.834S28.129,22.268,28.056,22z M25,16.667
	c3.146,0,5.89,1.753,7.308,4.333H27.59c-0.576-0.812-1.521-1.348-2.59-1.348S22.985,20.188,22.409,21h-4.716
	C19.109,18.42,21.854,16.667,25,16.667z M25,33.333c-4.595,0-8.333-3.738-8.333-8.334c0-0.113,0.013-0.224,0.017-0.335
	c0.004,0.001,0.008,0.003,0.012,0.003h5.714c0.577,0.812,1.52,1.349,2.59,1.349s2.014-0.535,2.59-1.349h5.605
	c0.042,0,0.08-0.015,0.12-0.024c0.005,0.119,0.019,0.236,0.019,0.356C33.332,29.596,29.595,33.333,25,33.333z M25,24.307
	c0.812,0,1.473-0.66,1.473-1.474S25.812,21.359,25,21.359s-1.472,0.66-1.472,1.474S24.188,24.307,25,24.307z M25,22.359
	c0.261,0,0.473,0.213,0.473,0.474S25.26,23.307,25,23.307c-0.26,0-0.472-0.213-0.472-0.474S24.739,22.359,25,22.359z"/>
</svg>
