<?xml version="1.0" encoding="utf-8"?>
<!-- Generator: Adobe Illustrator 16.0.4, SVG Export Plug-In . SVG Version: 6.00 Build 0)  -->
<!DOCTYPE svg PUBLIC "-//W3C//DTD SVG 1.1//EN" "http://www.w3.org/Graphics/SVG/1.1/DTD/svg11.dtd">
<svg version="1.1" id="Layer_1" xmlns="http://www.w3.org/2000/svg" xmlns:xlink="http://www.w3.org/1999/xlink" x="0px" y="0px"
	 width="50px" height="50px" viewBox="0 0 50 50" enable-background="new 0 0 50 50" xml:space="preserve">
<path d="M26.916,28.928c-0.311,0-0.562-0.252-0.562-0.561c0-0.311,0.252-0.562,0.562-0.562s0.562,0.252,0.562,0.562
	C27.479,28.676,27.227,28.928,26.916,28.928z M25.041,27.24c0-0.311-0.252-0.562-0.562-0.562c-0.31,0-0.562,0.252-0.562,0.562
	s0.252,0.562,0.562,0.562C24.789,27.803,25.041,27.551,25.041,27.24z M27.729,29.24c-0.346,0-0.625,0.279-0.625,0.625
	c0,0.344,0.279,0.625,0.625,0.625c0.347,0,0.625-0.281,0.625-0.625C28.354,29.52,28.074,29.24,27.729,29.24z M25.041,30.178
	c-0.518,0-0.938,0.42-0.938,0.939c0,0.518,0.42,0.938,0.938,0.938s0.938-0.42,0.938-0.938
	C25.979,30.598,25.559,30.178,25.041,30.178z M23.129,27.969c0-0.336-0.273-0.609-0.609-0.609s-0.608,0.273-0.608,0.609
	s0.272,0.609,0.608,0.609S23.129,28.305,23.129,27.969z M22.957,30.172c-0.336,0-0.609,0.273-0.609,0.609s0.273,0.609,0.609,0.609
	s0.609-0.273,0.609-0.609S23.293,30.172,22.957,30.172z M30.832,28.697c0,3.217-2.615,5.834-5.832,5.834s-5.832-2.617-5.832-5.834
	c0-2.385,1.459-4.505,3.666-5.388v-4.966h-0.418c-0.277,0-0.5-0.223-0.5-0.5v-1.875c0-0.274,0.223-0.5,0.5-0.5H27.5
	c0.275,0,0.5,0.226,0.5,0.5v1.875c0,0.277-0.225,0.5-0.5,0.5h-0.332v4.966C29.375,24.194,30.832,26.314,30.832,28.697z
	 M29.832,28.697c0-2.072-1.334-3.906-3.322-4.564c-0.203-0.066-0.342-0.258-0.342-0.475v-5.814c0-0.275,0.223-0.5,0.5-0.5H27v-0.875
	h-4.084v0.875h0.418c0.275,0,0.5,0.225,0.5,0.5v5.814c0,0.215-0.139,0.406-0.344,0.475c-1.988,0.656-3.322,2.492-3.322,4.564
	c0,2.666,2.168,4.834,4.832,4.834S29.832,31.363,29.832,28.697z"/>
</svg>
