<?xml version="1.0" encoding="utf-8"?>
<!-- Generator: Adobe Illustrator 17.1.0, SVG Export Plug-In . SVG Version: 6.00 Build 0)  -->
<!DOCTYPE svg PUBLIC "-//W3C//DTD SVG 1.1//EN" "http://www.w3.org/Graphics/SVG/1.1/DTD/svg11.dtd">
<svg version="1.1" xmlns="http://www.w3.org/2000/svg" xmlns:xlink="http://www.w3.org/1999/xlink" x="0px" y="0px"
	 viewBox="0 0 64 64" enable-background="new 0 0 64 64" xml:space="preserve">
<g id="Imagenes">
</g>
<g id="Layer_2">
	<path d="M24,16.414c0.723-0.848,1.777-1.393,3-1.393c0.742,0,1.415,0.212,2,0.556V2.25V2h-5V16.414z"/>
	<path d="M37,2h-5h-1v14.414c0.285-0.334,0.621-0.614,1-0.837c0.585-0.344,1.258-0.556,2-0.556c1.223,0,2.277,0.545,3,1.393V2z"/>
	<path d="M29,21v-1v-0.869c0-0.045-0.009-0.087-0.012-0.131c-0.061-1.103-0.864-1.979-1.988-1.979S25.073,17.897,25.012,19
		C25.009,19.044,25,19.086,25,19.131V20v1v4.792c1.141-0.313,2.464-0.552,4-0.644V21z"/>
	<path d="M34,17.021c-1.125,0-1.928,0.876-1.988,1.979C32.009,19.044,32,19.086,32,19.131V20v1v4.168
		c1.525,0.109,2.856,0.365,4,0.697V21v-1v-0.869c0-0.045-0.009-0.087-0.012-0.131C35.927,17.897,35.125,17.021,34,17.021z"/>
	<path d="M30.398,27.105c-0.138,0-0.264,0.008-0.398,0.01c-0.343,0.006-0.678,0.016-1,0.036c-1.583,0.099-2.908,0.357-4,0.679
		c-0.359,0.106-0.692,0.218-1,0.334c-0.368,0.139-0.701,0.28-1,0.423c-1.42,0.678-2.075,1.332-2.075,1.332l1.569,8.67
		C23.407,38.212,24.417,38,25.483,38h10.642c0.834,0,1.634,0.133,2.381,0.371L40.029,30c0,0-0.655-0.635-2.029-1.31
		c-0.3-0.147-0.63-0.296-1-0.441c-0.307-0.12-0.644-0.236-1-0.346c-1.094-0.34-2.422-0.616-4-0.733
		c-0.323-0.024-0.657-0.039-1-0.048C30.799,27.116,30.606,27.105,30.398,27.105z"/>
	<path d="M39.081,40.801c-0.293-0.177-0.607-0.325-0.936-0.445C37.521,40.127,36.84,40,36.124,40H36H25.483
		c-0.958,0-1.843,0.239-2.62,0.637c-0.327,0.168-0.631,0.363-0.91,0.59c-0.331,0.27-0.638,0.566-0.886,0.911
		c-0.571,0.792-0.905,1.767-0.905,2.862c0,2.412,1.626,4.222,3.838,4.792v-2.175c0-0.574,0.113-1.121,0.316-1.618
		c0.15-0.368,0.363-0.697,0.605-1c0.328-0.41,0.73-0.748,1.193-1c0.559-0.304,1.192-0.493,1.886-0.493s1.327,0.189,1.886,0.493
		c0.426,0.232,0.801,0.534,1.114,0.9c0.313-0.366,0.688-0.669,1.114-0.9c0.559-0.304,1.192-0.493,1.886-0.493
		s1.327,0.189,1.886,0.493c0.463,0.252,0.865,0.59,1.193,1c0.243,0.303,0.455,0.632,0.605,1C37.887,46.497,38,47.043,38,47.618
		v2.067c2.01-0.676,3.445-2.416,3.445-4.684c0-1.402-0.556-2.599-1.448-3.475C39.72,41.253,39.418,41.005,39.081,40.801z"/>
	<path d="M28,45.507c-0.514,0-0.955,0.19-1.296,0.493C26.268,46.387,26,46.964,26,47.618V50v1v1v7.223c0,1.165,0.831,2.11,2,2.11
		s2-0.945,2-2.11V52v-1v-1v-2.382c0-0.654-0.268-1.231-0.704-1.618C28.955,45.697,28.514,45.507,28,45.507z"/>
	<path d="M34,45.507c-0.514,0-0.955,0.19-1.297,0.493C32.268,46.387,32,46.964,32,47.618V50v1v1v7.223c0,1.165,0.831,2.11,2,2.11
		s2-0.945,2-2.11V52v-1v-1v-2.382c0-0.654-0.268-1.231-0.703-1.618C34.955,45.697,34.514,45.507,34,45.507z"/>
</g>
</svg>
