<?xml version="1.0" encoding="utf-8"?>
<!-- Generator: Adobe Illustrator 16.0.0, SVG Export Plug-In . SVG Version: 6.00 Build 0)  -->
<!DOCTYPE svg PUBLIC "-//W3C//DTD SVG 1.1//EN" "http://www.w3.org/Graphics/SVG/1.1/DTD/svg11.dtd">
<svg version="1.1" id="Layer_1" xmlns="http://www.w3.org/2000/svg" xmlns:xlink="http://www.w3.org/1999/xlink" x="0px" y="0px"
	 width="96px" height="96px" viewBox="0 0 96 96" enable-background="new 0 0 96 96" xml:space="preserve">
<path d="M73.946,41.562c-1.167-3.035-2.848-5.81-4.94-8.216c2.793-8.159,0.941-17.557-5.563-24.069
	c-0.492-0.492-1.002-0.952-1.524-1.392c3.932,5.939,3.948,13.694,0.073,19.66C57.869,25.145,53.08,23.797,48,23.821
	c-5.08-0.024-9.869,1.324-13.991,3.723c-3.875-5.965-3.858-13.721,0.073-19.66c-0.522,0.439-1.032,0.9-1.524,1.392
	c-6.505,6.513-8.356,15.911-5.563,24.069c-2.093,2.406-3.773,5.181-4.94,8.216C10.608,42.723,1.499,52.192,1.111,64.009
	c-0.023,0.693-0.01,1.38,0.027,2.06C3.068,57.929,10.516,52,19.199,52.285c0.349,0.012,0.694,0.035,1.039,0.066
	c0.329,10.383,6.441,19.413,15.298,23.844c-2.147,6.094-7.463,10.654-13.921,11.744c0.678,0.081,1.361,0.14,2.056,0.164
	c7.941,0.26,15.08-3.48,19.493-9.402c1.239,0.213,2.505,0.351,3.798,0.394c0.349,0.012,0.691,0.032,1.038,0.03
	c0.347,0.002,0.689-0.019,1.038-0.03c1.293-0.042,2.559-0.181,3.798-0.394c4.413,5.921,11.552,9.662,19.493,9.402
	c0.694-0.023,1.378-0.083,2.056-0.164c-6.458-1.09-11.773-5.65-13.921-11.744c8.856-4.431,14.969-13.461,15.298-23.844
	c0.345-0.031,0.69-0.054,1.039-0.066C85.484,52,92.932,57.929,94.861,66.068c0.037-0.68,0.051-1.366,0.027-2.06
	C94.501,52.192,85.392,42.723,73.946,41.562z M36.479,71.847C29.822,68.114,25.201,61.23,24.58,53.293
	c7.193,2.533,12.24,9.502,11.977,17.529C36.545,71.168,36.508,71.506,36.479,71.847z M48,35.693c-4.048-0.241-8.03-1.832-11.2-4.8
	c3.341-1.806,7.161-2.811,11.2-2.789c4.039-0.022,7.859,0.982,11.2,2.789C56.03,33.861,52.048,35.452,48,35.693z M59.521,71.847
	c-0.029-0.341-0.066-0.679-0.078-1.025c-0.264-8.027,4.783-14.996,11.977-17.529C70.799,61.23,66.178,68.114,59.521,71.847z"/>
</svg>
