<?xml version="1.0" encoding="utf-8"?>
<!-- Generator: Adobe Illustrator 16.0.4, SVG Export Plug-In . SVG Version: 6.00 Build 0)  -->
<!DOCTYPE svg PUBLIC "-//W3C//DTD SVG 1.1//EN" "http://www.w3.org/Graphics/SVG/1.1/DTD/svg11.dtd">
<svg version="1.1" id="Layer_1" xmlns="http://www.w3.org/2000/svg" xmlns:xlink="http://www.w3.org/1999/xlink" x="0px" y="0px"
	 width="50px" height="50px" viewBox="0 0 50 50" enable-background="new 0 0 50 50" xml:space="preserve">
<path d="M33.388,22.87c0,0.477-0.078,0.948-0.229,1.4c-0.713,3.224-6.875,7.125-7.137,7.291c-0.082,0.051-0.174,0.077-0.267,0.077
	c-0.094,0-0.187-0.024-0.269-0.077c-0.071-0.046-1.807-1.142-3.567-2.648c-0.211-0.181-0.233-0.495-0.056-0.705
	c0.181-0.208,0.494-0.233,0.705-0.056c1.312,1.121,2.638,2.027,3.188,2.392c1.851-1.207,5.937-4.276,6.438-6.54
	c0.131-0.4,0.19-0.764,0.19-1.133c0-1.285-0.7-2.47-1.827-3.091c-1.439-0.798-3.365-0.43-4.418,0.839
	c-0.189,0.229-0.578,0.229-0.771,0c-1.056-1.27-2.981-1.635-4.418-0.84c-1.13,0.622-1.83,1.806-1.83,3.09
	c0,0.367,0.062,0.732,0.178,1.085c0.074,0.33,0.216,0.653,0.397,0.988h2.919l1.002-2.304c0.086-0.197,0.291-0.321,0.502-0.299
	c0.215,0.019,0.394,0.173,0.442,0.383l0.738,3.12l0.955-1.565c0.09-0.149,0.252-0.24,0.426-0.24h1.812c0.275,0,0.5,0.224,0.5,0.5
	c0,0.276-0.225,0.5-0.5,0.5h-1.531L25.522,27.4c-0.092,0.15-0.254,0.24-0.426,0.24c-0.027,0-0.053-0.002-0.078-0.006
	c-0.201-0.032-0.36-0.181-0.408-0.378l-0.674-2.842l-0.533,1.227c-0.08,0.184-0.26,0.301-0.459,0.301h-5.832
	c-0.274,0-0.5-0.224-0.5-0.5s0.226-0.5,0.5-0.5h1.466c-0.104-0.248-0.188-0.49-0.24-0.722c-0.14-0.405-0.215-0.876-0.215-1.351
	c0-1.649,0.897-3.168,2.346-3.966c1.679-0.929,3.9-0.637,5.287,0.667c1.384-1.304,3.604-1.596,5.285-0.667
	C32.489,19.7,33.388,21.22,33.388,22.87z"/>
</svg>
