<?xml version="1.0" encoding="utf-8"?>
<!-- Generator: Adobe Illustrator 16.0.4, SVG Export Plug-In . SVG Version: 6.00 Build 0)  -->
<!DOCTYPE svg PUBLIC "-//W3C//DTD SVG 1.1//EN" "http://www.w3.org/Graphics/SVG/1.1/DTD/svg11.dtd">
<svg version="1.1" id="Layer_1" xmlns="http://www.w3.org/2000/svg" xmlns:xlink="http://www.w3.org/1999/xlink" x="0px" y="0px"
	 width="50px" height="50px" viewBox="0 0 50 50" enable-background="new 0 0 50 50" xml:space="preserve">
<path d="M34.308,17.204H15.692c-0.276,0-0.5,0.224-0.5,0.5v13.14c0,0.276,0.224,0.5,0.5,0.5h1.656v0.952c0,0.276,0.224,0.5,0.5,0.5
	s0.5-0.224,0.5-0.5v-0.952h13.303v0.952c0,0.276,0.224,0.5,0.5,0.5s0.5-0.224,0.5-0.5v-0.952h1.656c0.276,0,0.5-0.224,0.5-0.5
	v-13.14C34.808,17.428,34.584,17.204,34.308,17.204z M33.808,30.344H16.192v-12.14h17.615V30.344z M17.854,29.178h11.535
	c0.275,0,0.5-0.224,0.5-0.5V19.87c0-0.276-0.225-0.5-0.5-0.5H17.854c-0.276,0-0.5,0.224-0.5,0.5v8.808
	C17.354,28.954,17.578,29.178,17.854,29.178z M28.89,20.37v7.808H18.354v-3.252h1.878c0.16,0,0.311-0.076,0.405-0.206l0.497-0.684
	v2.622c0,0.234,0.165,0.439,0.396,0.488c0.035,0.008,0.07,0.012,0.104,0.012c0.194,0,0.375-0.113,0.457-0.297l1.506-3.381
	l0.232,1.228c0.044,0.236,0.251,0.407,0.491,0.407h2.534c0.276,0,0.5-0.224,0.5-0.5c0-0.276-0.224-0.5-0.5-0.5h-2.12l-0.453-2.393
	c-0.041-0.215-0.216-0.379-0.433-0.404c-0.223-0.029-0.426,0.094-0.515,0.293l-1.2,2.694v-1.81c0-0.217-0.14-0.408-0.346-0.476
	c-0.205-0.067-0.431,0.006-0.559,0.182l-1.251,1.724h-1.623v-3.556L28.89,20.37L28.89,20.37z M30.523,24.653
	c0-0.711,0.575-1.286,1.286-1.286s1.286,0.575,1.286,1.286c0,0.71-0.575,1.287-1.286,1.287S30.523,25.363,30.523,24.653z
	 M32.795,27.755c0,0.544-0.441,0.984-0.984,0.984s-0.982-0.44-0.982-0.984c0-0.543,0.439-0.983,0.982-0.983
	S32.795,27.212,32.795,27.755z"/>
</svg>
