<?xml version="1.0" encoding="utf-8"?>
<!-- Generator: Adobe Illustrator 16.0.0, SVG Export Plug-In . SVG Version: 6.00 Build 0)  -->
<!DOCTYPE svg PUBLIC "-//W3C//DTD SVG 1.1//EN" "http://www.w3.org/Graphics/SVG/1.1/DTD/svg11.dtd">
<svg version="1.1" id="Layer_1" xmlns="http://www.w3.org/2000/svg" xmlns:xlink="http://www.w3.org/1999/xlink" x="0px" y="0px"
	 width="50px" height="50px" viewBox="0 0 50 50" enable-background="new 0 0 50 50" xml:space="preserve">
<g>
	<path d="M21.681,41.377c-0.863,0-1.625-0.579-1.851-1.422L16.623,27.98l-1.267,4.03c-0.202,0.643-0.727,1.134-1.383,1.29
		c-0.655,0.156-1.346-0.041-1.816-0.521l-4.332-4.417H3.418c-1.06,0-1.918-0.86-1.918-1.918c0-1.06,0.858-1.92,1.918-1.92h5.214
		c0.514,0,1.009,0.208,1.369,0.576l2.654,2.707l2.282-7.271c0.253-0.8,0.995-1.342,1.83-1.342c0.014,0,0.028,0,0.041,0
		c0.854,0.018,1.593,0.597,1.813,1.422l2.536,9.467l2.993-19.829c0.137-0.906,0.896-1.59,1.813-1.629
		c0.88-0.036,1.732,0.573,1.948,1.468l3.556,14.779l2.497-8.372c0.218-0.73,0.847-1.262,1.604-1.355
		c0.748-0.089,1.494,0.27,1.885,0.927l5.01,8.453h4.118c1.06,0,1.918,0.86,1.918,1.92c0,1.058-0.858,1.918-1.918,1.918h-5.213
		c-0.677,0-1.304-0.357-1.65-0.941L36.388,21.8l-3.28,10.996c-0.247,0.832-0.994,1.429-1.889,1.369
		c-0.869-0.022-1.611-0.625-1.814-1.469l-2.926-12.161l-2.899,19.211c-0.136,0.897-0.883,1.577-1.789,1.628
		C21.754,41.376,21.718,41.377,21.681,41.377z"/>
</g>
</svg>
