<?xml version="1.0" encoding="utf-8"?>
<!-- Generator: Adobe Illustrator 16.0.0, SVG Export Plug-In . SVG Version: 6.00 Build 0)  -->
<!DOCTYPE svg PUBLIC "-//W3C//DTD SVG 1.1//EN" "http://www.w3.org/Graphics/SVG/1.1/DTD/svg11.dtd">
<svg version="1.1" id="Layer_1" xmlns="http://www.w3.org/2000/svg" xmlns:xlink="http://www.w3.org/1999/xlink" x="0px" y="0px"
	 width="96px" height="96px" viewBox="0 0 96 96" enable-background="new 0 0 96 96" xml:space="preserve">
<path d="M95.593,23.896c-0.287-1.793-0.951-3.558-1.971-5.125c-0.51-0.782-1.104-1.515-1.773-2.161
	c-0.155-0.156-0.363-0.333-0.56-0.508l-0.426-0.366l-0.66-0.473c-0.185-0.142-0.398-0.269-0.613-0.395
	c-0.844-0.506-1.846-0.939-2.912-1.166c-1.063-0.22-2.135-0.236-3.076-0.152c-1.894,0.181-3.354,0.563-4.367,1.033
	c-2.851,1.321-4.382,2.354-4.962,2.632c-0.273,0.142-0.529,0.282-0.78,0.406C69.425,11.567,59.961,7.419,48.667,7.419
	c-0.017,0-0.033,0-0.05,0v0c-0.208,0-0.412,0.007-0.617,0.013c-0.205-0.006-0.409-0.013-0.617-0.013v0c-0.017,0-0.033,0-0.05,0
	c-11.294,0-20.758,4.148-24.828,10.202c-0.25-0.124-0.507-0.264-0.78-0.406c-0.581-0.278-2.111-1.311-4.962-2.632
	c-1.013-0.47-2.474-0.852-4.367-1.033c-0.941-0.084-2.012-0.068-3.076,0.152c-1.066,0.226-2.068,0.659-2.912,1.166
	c-0.215,0.126-0.428,0.253-0.613,0.395l-0.66,0.473L4.71,16.102c-0.196,0.174-0.405,0.352-0.56,0.508
	c-0.668,0.646-1.263,1.379-1.773,2.161c-1.02,1.568-1.684,3.333-1.971,5.125c-0.274,1.794-0.162,3.632,0.447,5.333
	c0.599,1.698,1.713,3.256,3.256,4.392c1.533,1.141,3.572,1.694,5.267,1.516c1.706-0.159,2.997-0.797,3.908-1.442
	c0.93-0.642,1.549-1.302,2.005-1.856c0.451-0.56,0.748-1.013,0.932-1.333c0.177-0.32,0.271-0.492,0.271-0.492
	c0.549-0.996,0.188-2.25-0.809-2.8c-0.625-0.344-1.354-0.331-1.943-0.025l-0.209,0.111c0,0-0.137,0.071-0.394,0.206
	c-0.254,0.13-0.613,0.326-1.057,0.527c-0.438,0.204-0.964,0.406-1.482,0.527c-0.526,0.114-1.02,0.121-1.334,0.005
	c-0.316-0.122-0.477-0.26-0.753-0.558c-0.272-0.292-0.596-0.795-0.911-1.437c-0.318-0.636-0.625-1.423-0.742-2.265
	c-0.115-0.837-0.007-1.73,0.424-2.423c0.203-0.355,0.488-0.651,0.812-0.898c0.088-0.074,0.143-0.103,0.204-0.138l0.376-0.229
	L8.702,20.6c0.026-0.018-0.178,0.126-0.088,0.063l0.009-0.004l0.035-0.013l0.068-0.027l0.137-0.051
	c0.093-0.041,0.18-0.052,0.264-0.068c0.34-0.071,0.61-0.024,0.835,0.083c0.226,0.103,0.444,0.25,0.725,0.45
	c0.561,0.394,1.346,0.985,2.382,1.574c1.024,0.573,2.296,1.149,3.745,1.429c0.706,0.147,1.476,0.219,2.199,0.18
	c0.48-0.036,0.933-0.128,1.369-0.248c-0.002,0.031-0.003,0.063-0.004,0.094c-0.08,0.281-0.16,0.578-0.236,0.904
	c-0.243,1.054-0.469,2.344-0.529,3.841c-0.06,1.491,0.036,3.192,0.43,4.981c0.396,1.788,1.079,3.653,2.043,5.452
	c0.967,1.798,2.227,3.514,3.687,5.071c1.46,1.556,3.106,2.976,4.865,4.229c1.768,1.235,3.606,2.385,5.5,3.383
	c0.996,0.534,1.515,0.808,2.065,1.273c0.51,0.439,0.897,0.895,1.205,1.5c0,0,0.866,27.283-3.713,31.861
	c-4.578,4.579,11.173-0.042,11.173-0.042s-0.145-1.008-0.288-2.777c-0.151-1.769-0.296-4.298-0.355-7.35l-0.267-24.17
	c0,0,1.455-25.014-14.023-31.528c0,0,9.115,2.423,15.993,2.423H48h0.074c6.877,0,15.993-2.423,15.993-2.423
	c-15.478,6.514-14.023,31.528-14.023,31.528l-0.267,24.17c-0.059,3.052-0.205,5.581-0.355,7.35
	c-0.143,1.769-0.288,2.777-0.288,2.777s15.751,4.621,11.173,0.042c-4.579-4.578-3.713-31.861-3.713-31.861
	c0.308-0.605,0.695-1.061,1.205-1.5c0.55-0.465,1.069-0.739,2.065-1.273c1.895-0.999,3.732-2.148,5.5-3.383
	c1.759-1.253,3.404-2.674,4.865-4.229c1.459-1.557,2.72-3.272,3.687-5.071c0.964-1.799,1.647-3.664,2.043-5.452
	c0.394-1.79,0.49-3.49,0.43-4.981c-0.061-1.497-0.286-2.787-0.529-3.841c-0.077-0.327-0.157-0.623-0.236-0.904
	c0-0.032-0.002-0.063-0.004-0.094c0.437,0.12,0.889,0.212,1.369,0.248c0.723,0.04,1.493-0.033,2.198-0.18
	c1.449-0.279,2.721-0.856,3.745-1.429c1.037-0.589,1.821-1.181,2.382-1.574c0.281-0.2,0.499-0.348,0.725-0.45
	c0.225-0.107,0.495-0.154,0.835-0.083c0.083,0.016,0.171,0.028,0.264,0.068l0.137,0.051l0.069,0.027l0.035,0.013l0.009,0.004
	c0.09,0.063-0.114-0.082-0.088-0.063l0.027,0.017l0.376,0.229c0.062,0.035,0.116,0.063,0.204,0.138
	c0.324,0.247,0.608,0.543,0.812,0.898c0.432,0.693,0.539,1.586,0.424,2.423c-0.116,0.841-0.423,1.629-0.742,2.265
	c-0.314,0.642-0.639,1.145-0.911,1.437c-0.276,0.298-0.437,0.436-0.753,0.558c-0.314,0.115-0.808,0.109-1.334-0.005
	c-0.518-0.122-1.044-0.323-1.482-0.527c-0.443-0.201-0.803-0.396-1.057-0.527c-0.257-0.135-0.394-0.206-0.394-0.206l-0.209-0.111
	c-0.59-0.306-1.318-0.319-1.943,0.025c-0.997,0.55-1.358,1.805-0.809,2.8c0,0,0.094,0.172,0.271,0.492
	c0.184,0.32,0.48,0.774,0.932,1.333c0.456,0.554,1.076,1.215,2.005,1.856c0.911,0.646,2.203,1.283,3.908,1.442
	c1.694,0.178,3.734-0.375,5.267-1.516c1.542-1.135,2.657-2.694,3.256-4.392C95.755,27.528,95.868,25.69,95.593,23.896z"/>
</svg>
