<svg width="20.75" xmlns="http://www.w3.org/2000/svg" height="17.734" viewBox="0 0 20.75 17.734" xmlns:xlink="http://www.w3.org/1999/xlink" enable-background="new 0 0 20.75 17.734">
<path d="m20.725,4.814c-.122-.351-.473-.226-.551,.219-.275,1.568-.803,4.624-1.084,6.099-.025,.146-.285,.411-.434,.407-2.441-.084-10.607-.191-10.607-.191l-2.702-7.808-.153-.526c-.027-.071-.053-.137-.068-.177-.18-.468-.479-.772-.734-.952-.252-.18-.461-.246-.49-.254l-.01-.003-1.865-.468c-.125-.257-.52-.446-.99-.446-.572,0-1.037,.278-1.037,.618 0,.342 .465,.62 1.037,.62 .186,0 .357-.032 .51-.084l2.055,.514c.033,.012 .154,.062 .289,.163 .15,.117 .32,.293 .428,.573 .143,.373 .903,2.48 1.625,4.481 .361,1.002 .713,1.981 .976,2.709 .229,.643 .392,1.09 .427,1.186 .006,.033 .023,.128 .022,.238 .001,.118-.019,.25-.071,.353-.052,.103-.123,.188-.291,.262-.521,.229-.826,.739-.83,1.267-.004,.332 .134,.685 .425,.933 .29,.248 .701,.381 1.208,.38 .135,0 .328,.001 .561,.001l.688,.001c-.582,.185-1.006,.723-1.006,1.366 0,.795 .643,1.439 1.439,1.439 .795,0 1.439-.644 1.439-1.439 0-.642-.423-1.179-1.004-1.364l.686,.001c.966,.002 2.06,.004 3.118,.007 .739,.001 1.46,.003 2.108,.004l.637,.002c-.558,.198-.961,.726-.961,1.35 0,.795 .646,1.439 1.44,1.439 .796,0 1.438-.644 1.438-1.439 0-.623-.396-1.148-.951-1.349l.632,.001c.241,0 .38,0 .38,0 .002,0 .002,0 .002,0 .047,0 .076,0 .076,0 .218,0 .393-.174 .393-.39 .002-.216-.174-.392-.39-.392 0,0-9.054-.021-10.647-.021-.377-.001-.586-.096-.695-.19-.109-.098-.15-.205-.154-.339-.004-.214 .146-.462 .355-.547 .335-.138 .564-.384 .686-.636 .059-.12 .094-.239 .117-.353 .072,.017 .146,.029 .225,.03l10.254,.209c.01,0 .014,0 .019,0 .005,0 .01-.002 .013-.002l.047,.002c.011,0 .016,0 .02,0 .229,0 .439-.082 .605-.215 .164-.133 .293-.324 .332-.557l.999-5.94c.013-.074 .019-.147 .019-.218-.005-.155 .052-.433-.005-.574z"/>
<path d="m12.789,9.651c.278,.279 .734,.279 1.012,0l3.996-3.996c.28-.278 .186-.507-.209-.507h-1.836c-.393,0-.715-.322-.715-.715v-3.716c0-.395-.324-.717-.718-.717h-2.05c-.393,0-.717,.322-.717,.717v3.716c0,.394-.32,.715-.715,.715h-1.835c-.394,0-.489,.229-.21,.507l3.997,3.996z"/>
</svg>
