<?xml version="1.0" encoding="utf-8"?>
<!-- Generator: Adobe Illustrator 16.0.4, SVG Export Plug-In . SVG Version: 6.00 Build 0)  -->
<!DOCTYPE svg PUBLIC "-//W3C//DTD SVG 1.1//EN" "http://www.w3.org/Graphics/SVG/1.1/DTD/svg11.dtd">
<svg version="1.1" id="Capa_1" xmlns="http://www.w3.org/2000/svg" xmlns:xlink="http://www.w3.org/1999/xlink" x="0px" y="0px"
	 width="23.461px" height="33.65px" viewBox="0 0 23.461 33.65" enable-background="new 0 0 23.461 33.65" xml:space="preserve">
<path d="M22.855,13.823h-0.828v-0.938c0-0.669-0.541-1.21-1.209-1.21H1.21c-0.668,0-1.21,0.541-1.21,1.21v7.882
	c0,0.668,0.542,1.209,1.21,1.209h19.608c0.668,0,1.209-0.541,1.209-1.209v-0.938h0.828c0.334,0,0.604-0.271,0.604-0.604v-4.796
	C23.461,14.094,23.189,13.823,22.855,13.823z M20.544,20.072c0,0.335-0.271,0.604-0.604,0.604H2.092
	c-0.335,0-0.605-0.271-0.605-0.604v-6.494c0-0.334,0.271-0.604,0.605-0.604h17.848c0.334,0,0.604,0.271,0.604,0.604V20.072z"/>
</svg>
