<?xml version="1.0" encoding="utf-8"?>
<!-- Generator: Adobe Illustrator 16.0.4, SVG Export Plug-In . SVG Version: 6.00 Build 0)  -->
<!DOCTYPE svg PUBLIC "-//W3C//DTD SVG 1.1//EN" "http://www.w3.org/Graphics/SVG/1.1/DTD/svg11.dtd">
<svg version="1.1" id="Layer_1" xmlns="http://www.w3.org/2000/svg" xmlns:xlink="http://www.w3.org/1999/xlink" x="0px" y="0px"
	 width="50px" height="50px" viewBox="0 0 50 50" enable-background="new 0 0 50 50" xml:space="preserve">
<path d="M26.391,31.162c0,0.277-0.225,0.5-0.5,0.5H25.5v0.393c0,0.275-0.224,0.5-0.5,0.5s-0.5-0.225-0.5-0.5v-0.393h-0.392
	c-0.276,0-0.5-0.223-0.5-0.5c0-0.275,0.224-0.5,0.5-0.5H24.5v-0.391c0-0.277,0.224-0.5,0.5-0.5s0.5,0.223,0.5,0.5v0.391h0.391
	C26.166,30.662,26.391,30.887,26.391,31.162z M32.779,26.816v6.928c0,0.277-0.224,0.5-0.5,0.5h-1.625v1.264h-2.34v-1.264h-6.63
	v1.264h-2.34v-1.264H17.72c-0.276,0-0.5-0.223-0.5-0.5v-6.928c0-3.881,2.981-6.293,7.779-6.293
	C29.797,20.523,32.779,22.935,32.779,26.816z M31.779,26.816c0-3.314-2.535-5.293-6.78-5.293c-4.245,0-6.779,1.979-6.779,5.293
	v6.428h13.56L31.779,26.816L31.779,26.816z M30.997,26.816v1.951c0,0.275-0.224,0.5-0.5,0.5H19.503c-0.276,0-0.5-0.225-0.5-0.5
	v-1.951c0-2.866,2.186-4.51,5.996-4.51C28.812,22.306,30.997,23.951,30.997,26.816z M29.997,26.816c0-2.901-2.718-3.51-4.998-3.51
	c-2.279,0-4.996,0.608-4.996,3.51v1.451h9.994V26.816z M20.945,30.244c-0.507,0-0.919,0.412-0.919,0.918
	c0,0.508,0.412,0.92,0.919,0.92c0.507,0,0.92-0.412,0.92-0.92C21.866,30.656,21.453,30.244,20.945,30.244z M29.054,30.244
	c-0.509,0-0.92,0.412-0.92,0.918c0,0.508,0.411,0.92,0.92,0.92c0.508,0,0.919-0.412,0.919-0.92
	C29.973,30.656,29.562,30.244,29.054,30.244z M33.69,21.47c-0.009,0.147-0.084,0.284-0.204,0.371
	c-0.12,0.088-0.271,0.118-0.416,0.082c-0.796-0.199-1.568-0.43-2.339-0.66c-0.611-0.184-1.224-0.367-1.849-0.533
	c-0.235-0.062-0.392-0.287-0.368-0.529c0.062-0.678,0.13-1.348,0.2-2.014c-2.224-0.438-5.24-0.412-7.44,0.066
	c0.025,0.251,0.058,0.514,0.091,0.778c0.051,0.413,0.104,0.839,0.133,1.25c0.017,0.235-0.133,0.45-0.36,0.516
	c-0.633,0.183-1.256,0.377-1.88,0.571c-0.763,0.238-1.526,0.479-2.308,0.693c-0.043,0.012-0.088,0.018-0.133,0.018
	c-0.102,0-0.202-0.031-0.287-0.091c-0.122-0.085-0.2-0.222-0.211-0.37c-0.112-1.413,0.037-2.846,0.441-4.258
	c0.031-0.11,0.1-0.206,0.193-0.271c2.185-1.531,4.627-2.396,7.259-2.57c0.294-0.02,0.585-0.027,0.874-0.027
	c2.727,0,5.541,0.872,7.922,2.457c0.094,0.062,0.162,0.152,0.197,0.258C33.614,18.433,33.787,19.945,33.69,21.47z M32.715,20.797
	c0.016-1.118-0.126-2.2-0.406-3.112c-2.188-1.416-4.747-2.193-7.224-2.193c-0.267,0-0.536,0.008-0.807,0.025
	c-2.389,0.158-4.61,0.928-6.605,2.291c-0.28,1.035-0.41,2.082-0.388,3.118c0.563-0.163,1.119-0.338,1.675-0.512
	c0.5-0.156,1.001-0.312,1.506-0.463c-0.027-0.265-0.061-0.533-0.093-0.796c-0.055-0.441-0.108-0.872-0.13-1.262
	c-0.014-0.24,0.144-0.455,0.375-0.514c1.322-0.337,2.895-0.515,4.549-0.515c1.518,0,2.973,0.151,4.207,0.438
	c0.247,0.057,0.412,0.29,0.384,0.541c-0.074,0.672-0.144,1.346-0.209,2.028c0.494,0.138,0.981,0.283,1.47,0.429
	C31.58,20.474,32.144,20.642,32.715,20.797z"/>
</svg>
