<?xml version="1.0" encoding="utf-8"?>
<!-- Generator: Adobe Illustrator 16.0.4, SVG Export Plug-In . SVG Version: 6.00 Build 0)  -->
<!DOCTYPE svg PUBLIC "-//W3C//DTD SVG 1.1//EN" "http://www.w3.org/Graphics/SVG/1.1/DTD/svg11.dtd">
<svg version="1.1" id="Layer_1" xmlns="http://www.w3.org/2000/svg" xmlns:xlink="http://www.w3.org/1999/xlink" x="0px" y="0px"
	 width="50px" height="50px" viewBox="0 0 50 50" enable-background="new 0 0 50 50" xml:space="preserve">
<path d="M17.903,26.112l1.367-0.789v1.58c0,0.274,0.225,0.5,0.5,0.5h3.334c0.275,0,0.5-0.226,0.5-0.5v-1.582l1.369,0.791
	c0.113,0.065,0.252,0.082,0.379,0.051c0.129-0.035,0.237-0.119,0.303-0.234l1.668-2.887c0.066-0.115,0.085-0.252,0.051-0.381
	c-0.035-0.127-0.118-0.236-0.232-0.303l-1.369-0.789l1.369-0.791c0.114-0.064,0.197-0.174,0.232-0.303
	c0.034-0.13,0.016-0.265-0.051-0.38l-1.668-2.887c-0.137-0.24-0.442-0.322-0.682-0.185l-1.369,0.791v-1.58
	c0-0.276-0.225-0.5-0.5-0.5h-3.334c-0.275,0-0.5,0.224-0.5,0.5v1.578l-1.367-0.789c-0.238-0.137-0.545-0.057-0.684,0.185
	l-1.667,2.887c-0.065,0.115-0.085,0.25-0.051,0.38c0.035,0.129,0.118,0.235,0.233,0.303l1.367,0.791l-1.367,0.789
	c-0.114,0.065-0.198,0.176-0.233,0.303c-0.034,0.129-0.017,0.266,0.051,0.381l1.667,2.887
	C17.356,26.169,17.664,26.249,17.903,26.112z M18.354,22.003c0.154-0.09,0.25-0.254,0.25-0.434c0-0.178-0.096-0.344-0.25-0.432
	l-1.687-0.976l1.167-2.021l1.686,0.973c0.154,0.09,0.347,0.09,0.5,0c0.154-0.088,0.25-0.254,0.25-0.432v-1.945h2.334v1.945
	c0,0.18,0.096,0.344,0.25,0.434c0.153,0.09,0.346,0.09,0.5,0l1.687-0.975l1.166,2.021l-1.687,0.973
	c-0.153,0.091-0.25,0.255-0.25,0.435c0,0.178,0.097,0.344,0.25,0.432l1.688,0.975l-1.167,2.021l-1.687-0.974
	c-0.154-0.09-0.347-0.09-0.5,0c-0.154,0.088-0.25,0.254-0.25,0.433v1.948h-2.334v-1.946c0-0.179-0.096-0.345-0.25-0.433
	c-0.153-0.09-0.346-0.09-0.5,0l-1.686,0.974l-1.166-2.021L18.354,22.003z M34.487,23.481c-0.541-1.551-1.326-2.953-2.336-4.168
	c-0.096-0.115-0.236-0.183-0.385-0.183h-0.002c-0.148,0-0.289,0.068-0.385,0.183c-0.577,0.701-1.122,1.41-1.667,2.119
	c-0.446,0.584-0.896,1.166-1.358,1.741c-0.149,0.185-0.148,0.447,0.002,0.632c0.291,0.354,0.612,0.711,0.927,1.055
	c0.216,0.238,0.428,0.471,0.622,0.697c-1.752,1.922-4.479,3.875-6.893,4.938c-0.373-0.672-0.755-1.347-1.145-2.022
	c-0.122-0.214-0.379-0.304-0.605-0.222c-0.685,0.252-1.367,0.479-2.053,0.709c-0.852,0.283-1.703,0.567-2.559,0.896
	c-0.139,0.056-0.246,0.166-0.293,0.308c-0.049,0.142-0.03,0.295,0.047,0.422c0.887,1.449,2.017,2.722,3.183,3.58
	c0.086,0.063,0.19,0.099,0.297,0.099c0.005,0,0.009,0,0.015,0c2.063-0.056,6.058-0.572,9.603-3.437
	c2.295-1.851,3.972-4.211,4.983-7.015C34.524,23.708,34.524,23.589,34.487,23.481z M28.874,30.052
	c-3.221,2.6-6.848,3.133-8.828,3.207c-0.879-0.676-1.734-1.611-2.457-2.682c0.646-0.236,1.293-0.451,1.939-0.668
	c0.561-0.188,1.121-0.375,1.683-0.574c0.39,0.684,0.771,1.363,1.146,2.039c0.121,0.223,0.389,0.318,0.625,0.223
	c2.813-1.139,6.015-3.43,7.963-5.703c0.156-0.182,0.162-0.447,0.013-0.635c-0.271-0.344-0.599-0.703-0.933-1.07
	c-0.213-0.231-0.428-0.469-0.635-0.707c0.379-0.479,0.748-0.959,1.117-1.438c0.413-0.537,0.826-1.076,1.254-1.608
	c0.719,0.963,1.297,2.039,1.725,3.211C32.528,26.198,30.979,28.354,28.874,30.052z"/>
</svg>
