<?xml version="1.0" encoding="utf-8"?>
<!-- Generator: Adobe Illustrator 17.0.0, SVG Export Plug-In . SVG Version: 6.00 Build 0)  -->
<!DOCTYPE svg PUBLIC "-//W3C//DTD SVG 1.1//EN" "http://www.w3.org/Graphics/SVG/1.1/DTD/svg11.dtd">
<svg version="1.1" id="Capa_1" xmlns="http://www.w3.org/2000/svg" xmlns:xlink="http://www.w3.org/1999/xlink" x="0px" y="0px"
	 width="16.163px" height="16.165px" viewBox="0 0 16.163 16.165" enable-background="new 0 0 16.163 16.165" xml:space="preserve">
<path d="M16.142,0.025V0.023L16.141,0H9.85v1.467h3.811l-2.742,2.742c-0.584-0.471-1.253-0.855-2.001-1.117
	C5.406,1.871,1.58,3.721,0.37,7.227c-1.213,3.506,0.65,7.338,4.16,8.561c3.511,1.223,7.337-0.627,8.547-4.133
	c0.781-2.264,0.276-4.662-1.121-6.408l2.741-2.74v3.809h1.466V0.025H16.142z M11.087,10.963c-0.832,2.406-3.461,3.678-5.871,2.838
	c-2.41-0.84-3.689-3.473-2.857-5.881c0.833-2.408,3.461-3.68,5.87-2.84C10.64,5.922,11.919,8.554,11.087,10.963z"/>
</svg>
