<?xml version="1.0" encoding="utf-8"?>
<!-- Generator: Adobe Illustrator 16.0.4, SVG Export Plug-In . SVG Version: 6.00 Build 0)  -->
<!DOCTYPE svg PUBLIC "-//W3C//DTD SVG 1.1//EN" "http://www.w3.org/Graphics/SVG/1.1/DTD/svg11.dtd">
<svg version="1.1" id="Layer_1" xmlns="http://www.w3.org/2000/svg" xmlns:xlink="http://www.w3.org/1999/xlink" x="0px" y="0px"
	 width="50px" height="50px" viewBox="0 0 50 50" enable-background="new 0 0 50 50" xml:space="preserve">
<path d="M17.78,22.151c0,0.274,0.224,0.5,0.5,0.5h2.593c0.276,0,0.5-0.226,0.5-0.5v-1.572h1.573c0.276,0,0.5-0.225,0.5-0.5v-2.592
	c0-0.277-0.224-0.5-0.5-0.5h-1.573v-1.574c0-0.277-0.224-0.5-0.5-0.5H18.28c-0.276,0-0.5,0.223-0.5,0.5v1.574h-1.573
	c-0.276,0-0.5,0.223-0.5,0.5v2.592c0,0.275,0.224,0.5,0.5,0.5h1.573V22.151z M16.707,19.579v-1.592h1.573c0.276,0,0.5-0.226,0.5-0.5
	v-1.574h1.593v1.574c0,0.274,0.224,0.5,0.5,0.5h1.573v1.592h-1.573c-0.276,0-0.5,0.223-0.5,0.5v1.572H18.78v-1.572
	c0-0.277-0.224-0.5-0.5-0.5H16.707z M33.791,17.696H29.88c-0.276,0-0.5,0.225-0.5,0.5c0,0.277,0.224,0.5,0.5,0.5h2.702l-2.745,2.748
	c-0.846-0.688-1.879-1.078-2.983-1.078c-1.273,0-2.473,0.496-3.374,1.398c-0.525,0.524-0.893,1.155-1.125,1.84
	c-0.683,0.231-1.316,0.6-1.841,1.125c-0.901,0.899-1.397,2.1-1.397,3.373c0,1.104,0.392,2.137,1.078,2.981l-1.062,1.062
	l-1.381-1.381c-0.195-0.195-0.512-0.195-0.707,0c-0.195,0.195-0.195,0.512,0,0.707l1.381,1.381l-1.38,1.381
	c-0.195,0.195-0.195,0.513,0,0.707c0.098,0.099,0.226,0.146,0.354,0.146s0.256-0.049,0.354-0.146l1.38-1.381l1.38,1.381
	c0.098,0.099,0.226,0.146,0.354,0.146s0.256-0.049,0.354-0.146c0.195-0.194,0.195-0.512,0-0.707l-1.38-1.381l1.062-1.062
	c0.846,0.687,1.879,1.078,2.983,1.078c1.274,0,2.472-0.496,3.373-1.396c0.525-0.525,0.893-1.158,1.125-1.841
	c0.684-0.231,1.317-0.602,1.842-1.127c0.901-0.899,1.397-2.098,1.397-3.371c0-1.104-0.392-2.139-1.078-2.983l2.747-2.75v2.707
	c0,0.274,0.225,0.5,0.5,0.5s0.5-0.226,0.5-0.5v-3.912C34.291,17.921,34.068,17.696,33.791,17.696z M26.551,30.767
	c-1.424,1.424-3.904,1.424-5.329,0.002c0-0.002-0.001-0.002-0.001-0.002c0-0.002-0.001-0.002-0.002-0.002
	c-0.71-0.711-1.102-1.658-1.102-2.662c0-1.008,0.392-1.953,1.104-2.666c0.267-0.266,0.574-0.471,0.896-0.645
	c-0.008,0.115-0.033,0.227-0.033,0.344c0,1.273,0.496,2.471,1.396,3.371c0.901,0.9,2.099,1.396,3.374,1.396
	c0.115,0,0.227-0.025,0.342-0.033C27.023,30.192,26.818,30.501,26.551,30.767z M27.586,28.8c-1.201,0.225-2.507-0.109-3.398-1
	c-0.711-0.713-1.104-1.658-1.104-2.664c0-0.248,0.025-0.492,0.071-0.729c0.238-0.048,0.482-0.072,0.73-0.072
	c1.007,0,1.953,0.394,2.666,1.104c0.711,0.713,1.104,1.657,1.104,2.666C27.654,28.339,27.629,28.571,27.586,28.8z M29.518,27.8
	c-0.264,0.264-0.572,0.463-0.895,0.629c0.007-0.109,0.031-0.215,0.031-0.326c0-1.272-0.495-2.473-1.396-3.373
	c-0.901-0.899-2.099-1.396-3.373-1.396c-0.117,0-0.228,0.024-0.343,0.033c0.173-0.322,0.378-0.63,0.644-0.896
	c0.713-0.713,1.661-1.104,2.667-1.104s1.951,0.393,2.664,1.102v0.002c0,0.003,0.002,0.003,0.002,0.003
	c0.711,0.711,1.103,1.657,1.103,2.663C30.622,26.144,30.23,27.089,29.518,27.8z"/>
</svg>
