<?xml version="1.0" encoding="utf-8"?>
<!-- Generator: Adobe Illustrator 16.0.4, SVG Export Plug-In . SVG Version: 6.00 Build 0)  -->
<!DOCTYPE svg PUBLIC "-//W3C//DTD SVG 1.1//EN" "http://www.w3.org/Graphics/SVG/1.1/DTD/svg11.dtd">
<svg version="1.1" id="Layer_1" xmlns="http://www.w3.org/2000/svg" xmlns:xlink="http://www.w3.org/1999/xlink" x="0px" y="0px"
	 width="50px" height="50px" viewBox="0 0 50 50" enable-background="new 0 0 50 50" xml:space="preserve">
<path d="M29.832,33.371c-0.043-0.041-2.136-2.014-4.265-4.541c2.181-2.715,4.296-5.927,4.296-8.171c0-2.698-2.195-4.894-4.894-4.894
	c-2.697,0-4.893,2.195-4.893,4.894c0,2.372,2.043,5.521,4.192,8.175c-2.07,2.484-4.068,4.445-4.109,4.485
	c-0.198,0.192-0.202,0.511-0.009,0.707c0.193,0.199,0.51,0.202,0.707,0.009c0.168-0.162,2.057-2.018,4.061-4.416
	c2.07,2.447,4.057,4.319,4.229,4.481c0.097,0.09,0.219,0.135,0.342,0.135c0.133,0,0.267-0.054,0.365-0.157
	C30.044,33.875,30.034,33.56,29.832,33.371z M24.917,28.041c-1.995-2.478-3.839-5.324-3.839-7.382c0-2.146,1.746-3.894,3.894-3.894
	c2.146,0,3.893,1.747,3.893,3.894C28.863,22.6,26.95,25.504,24.917,28.041z"/>
</svg>
