<?xml version="1.0" encoding="utf-8"?>
<!-- Generator: Adobe Illustrator 16.0.0, SVG Export Plug-In . SVG Version: 6.00 Build 0)  -->
<!DOCTYPE svg PUBLIC "-//W3C//DTD SVG 1.1//EN" "http://www.w3.org/Graphics/SVG/1.1/DTD/svg11.dtd">
<svg version="1.1" id="Layer_1" xmlns="http://www.w3.org/2000/svg" xmlns:xlink="http://www.w3.org/1999/xlink" x="0px" y="0px"
	 width="96px" height="96px" viewBox="0 0 96 96" enable-background="new 0 0 96 96" xml:space="preserve">
<g>
	<path d="M93.244,52.308c-1.557-0.916-3.561-0.398-4.477,1.158c-4.368,7.417-6.184,9.852-7.371,9.454s-1.764-3.162-2.464-5.002
		c-2.149-5.65-5.093-13.384-12.128-15.699c-8.715-3.048-11.824,5.757-13.682,11.021c-2.256,6.389-3.327,7.823-5.387,7.502
		c-1.846-0.288-2.477-7.422-2.91-10.844C43.818,41.948,42.424,31.08,33.2,31.589c-0.037,0.002-0.073,0.005-0.109,0.008
		c-4.958,0.451-7.109,5.698-9.386,11.254c-3.381,8.245-5.463,11.556-9.564,10.715c-4.955-1.083-5.047-8.544-4.672-17.451
		c0.112-2.634,0.207-4.908,0.036-6.789c-0.163-1.798-1.757-3.112-3.552-2.959c-1.797,0.163-3.124,1.753-2.96,3.552
		c0.132,1.447,0.04,3.621-0.057,5.92c-0.366,8.67-0.918,21.77,9.849,24.125c10.122,2.072,14.242-7.979,16.971-14.633
		c0.989-2.413,2.525-7.111,3.91-7.217c2.848-0.026,3.766,5.441,4.672,12.606c0.951,7.495,1.934,15.246,8.102,16.432
		c8.099,1.715,10.959-6.378,12.85-11.736c2.568-7.276,3.465-7.691,5.378-7.017c0.025,0.01,0.05,0.019,0.075,0.025
		c4.088,1.332,6.208,6.903,8.078,11.819c1.859,4.884,3.615,9.499,7.902,9.861c0.173,0.014,0.345,0.022,0.518,0.022
		c3.855-0.002,7.495-3.721,13.162-13.343C95.318,55.227,94.8,53.224,93.244,52.308z"/>
	<path d="M32.661,70.653c-3.764,1.633-6.47,4.933-10.817,5.099c-3.341,0.129-5.897-3.128-9.036-3.909
		c-4.848-1.207-8.434,3.088-11.017,6.48c-2.557,3.356,3.128,6.607,5.646,3.3c0.681-0.892,2.255-3.289,3.584-3.43
		c0.793-0.084,1.716,0.695,2.369,1.106c2.875,1.809,5.732,3.096,9.207,2.962c3.606-0.138,6.809-1.821,9.726-3.803
		c3.273-2.223,4.521-2.799,7.58,0.229c2.998,2.97,7.623-1.653,4.625-4.624C41.216,70.787,37.24,68.666,32.661,70.653z"/>
	<path d="M37.44,25.451c2.524,2.616,6.455,2.818,9.627,1.397c2.579-1.153,4.431-3.289,6.333-5.302
		c2.292-2.424,4.057-1.905,5.973,0.995c1.314,1.989,1.913,4.617,3.397,6.625c1.97,2.663,4.88,2.982,7.921,2.191
		c1.614-0.419,3.427-1.174,4.72-2.233c0.585-0.479,0.999-0.955,1.463-1.556c0.183-0.236,0.282-0.395,0.335-0.5
		c0.011,0.029,2.923,6.087,6.35,7.828c3.751,1.906,7.062-3.735,3.3-5.646c-2.54-1.291-3.332-5.162-5.401-7.131
		c-2.444-2.324-6.254-2.099-8.637,0.096c-1.252,1.154-1.385,1.911-3.076,2.575c-0.545,0.214-1.151,0.41-1.742,0.469
		c-0.025-0.043-2.252-5.135-3.938-7.266c-4.341-5.485-10.317-6.152-15.288-1.071c-1.436,1.469-3.57,4.712-6.011,4.29
		c-2.087-0.361-3.774-5.26-4.921-6.81c-2.477-3.352-8.156-0.097-5.646,3.3C34.063,20.225,35.242,23.171,37.44,25.451z"/>
</g>
</svg>
