<?xml version="1.0" encoding="utf-8"?>
<!-- Generator: Adobe Illustrator 16.0.4, SVG Export Plug-In . SVG Version: 6.00 Build 0)  -->
<!DOCTYPE svg PUBLIC "-//W3C//DTD SVG 1.1//EN" "http://www.w3.org/Graphics/SVG/1.1/DTD/svg11.dtd">
<svg version="1.1" id="Layer_1" xmlns="http://www.w3.org/2000/svg" xmlns:xlink="http://www.w3.org/1999/xlink" x="0px" y="0px"
	 width="226.77px" height="155.91px" viewBox="0 0 226.77 155.91" enable-background="new 0 0 226.77 155.91" xml:space="preserve">
<g>
	<path d="M64.257,36.949c0,10.3,8.378,18.678,18.678,18.678s18.677-8.378,18.677-18.678s-8.377-18.677-18.677-18.677
		S64.257,26.649,64.257,36.949z"/>
	<path d="M143.838,133.579c10.3,0,18.678-8.377,18.678-18.678c0-10.299-8.378-18.674-18.678-18.674s-18.678,8.377-18.678,18.677
		S133.538,133.579,143.838,133.579z"/>
	<path d="M66.728,148.61c1.24,0.818,2.638,1.211,4.02,1.211c2.373,0,4.702-1.154,6.105-3.281l85.263-129.114
		c2.225-3.369,1.297-7.903-2.07-10.127c-3.369-2.224-7.904-1.296-10.127,2.07L64.654,138.483
		C62.43,141.853,63.358,146.386,66.728,148.61z"/>
</g>
</svg>
