<?xml version="1.0" encoding="utf-8"?>
<!-- Generator: Adobe Illustrator 16.0.0, SVG Export Plug-In . SVG Version: 6.00 Build 0)  -->
<!DOCTYPE svg PUBLIC "-//W3C//DTD SVG 1.1//EN" "http://www.w3.org/Graphics/SVG/1.1/DTD/svg11.dtd">
<svg version="1.1" id="Layer_1" xmlns="http://www.w3.org/2000/svg" xmlns:xlink="http://www.w3.org/1999/xlink" x="0px" y="0px"
	 width="96px" height="96px" viewBox="0 0 96 96" enable-background="new 0 0 96 96" xml:space="preserve">
<path d="M80.016,32.726v-3.633V14.167H0.709v67.666h79.307V66.906v-3.633L95.291,48L80.016,32.726z M24.087,21.068v-0.003
	c0.01,0,0.019,0,0.031,0v0c0.004,0,0.01,0,0.015,0c0.004,0,0.01,0,0.016,0v0c0.011,0,0.021,0,0.032,0v0.003
	c7.507,0.2,12.117,4.449,12.042,11.883c-0.117,10.714-4.63,17.212-12.056,17.1v0.002c-0.005,0-0.012,0-0.019,0
	c-0.002,0-0.007,0-0.011,0c0,0-0.003,0-0.004,0c-0.002,0-0.004,0-0.004,0c-0.005,0-0.01,0-0.011,0c-0.007,0-0.014,0-0.02,0v-0.002
	c-7.425,0.112-11.938-6.386-12.054-17.1C11.969,25.518,16.579,21.268,24.087,21.068z M26.904,74.925l-2.77-17.302l-2.771,17.302
	l-14.261,0.01L7.099,56.93c0.561-0.94,1.397-1.609,2.339-1.996l6.37-2.933l3.061-2.58l5.271,5.23l5.26-5.23l3.061,2.58l6.369,2.933
	c0.943,0.387,1.779,1.056,2.34,1.996l0.016,18.005L26.904,74.925z M72.187,64.93V54.098H49.117V41.902h23.069V31.07L89.117,48
	L72.187,64.93z"/>
</svg>
