<?xml version="1.0" encoding="utf-8"?>
<!-- Generator: Adobe Illustrator 16.0.0, SVG Export Plug-In . SVG Version: 6.00 Build 0)  -->
<!DOCTYPE svg PUBLIC "-//W3C//DTD SVG 1.1//EN" "http://www.w3.org/Graphics/SVG/1.1/DTD/svg11.dtd">
<svg version="1.1" id="Layer_1" xmlns="http://www.w3.org/2000/svg" xmlns:xlink="http://www.w3.org/1999/xlink" x="0px" y="0px"
	 width="96px" height="96px" viewBox="0 0 96 96" enable-background="new 0 0 96 96" xml:space="preserve">
<g>
	<path d="M38.516,51.771c0,5.314,4.309,9.622,9.623,9.622c5.312,0,9.621-4.308,9.621-9.622s-9.621-17.544-9.621-17.544
		S38.516,46.458,38.516,51.771z"/>
	<path d="M60.389,5.536h-5.176c-1.02-2.93-3.803-5.043-7.074-5.043c-3.274,0-6.06,2.113-7.079,5.043h-5.448
		c-9.035,0-16.359,1.598-16.359,10.632v49.35c0,9.034,7.324,16.358,16.359,16.358h2.904v13.632h6.76V81.876H51v8.178h6.76v-8.178
		h2.629c9.035,0,16.359-7.324,16.359-16.358v-49.35C76.748,7.134,69.424,5.536,60.389,5.536z M48.139,3.763
		c1.411,0,2.656,0.704,3.426,1.772h-6.854C45.479,4.467,46.725,3.763,48.139,3.763z M66.539,65.615H29.461V21.796h37.078V65.615z"/>
	<rect x="34.096" y="26.12" width="28.081" height="5.999"/>
</g>
</svg>
