<?xml version="1.0" encoding="utf-8"?>
<!-- Generator: Adobe Illustrator 16.0.4, SVG Export Plug-In . SVG Version: 6.00 Build 0)  -->
<!DOCTYPE svg PUBLIC "-//W3C//DTD SVG 1.1//EN" "http://www.w3.org/Graphics/SVG/1.1/DTD/svg11.dtd">
<svg version="1.1" id="Layer_1" xmlns="http://www.w3.org/2000/svg" xmlns:xlink="http://www.w3.org/1999/xlink" x="0px" y="0px"
	 width="50px" height="50px" viewBox="0 0 50 50" enable-background="new 0 0 50 50" xml:space="preserve">
<path d="M34.094,20.271H18.279v-1.146h4.861c0.277,0,0.5-0.224,0.5-0.5c0-0.274-0.223-0.5-0.5-0.5H12.573
	c-0.275,0-0.5,0.226-0.5,0.5c0,0.276,0.225,0.5,0.5,0.5h4.706v1.176c-2.793,0.289-4.977,2.656-4.977,5.523
	c0,1.946,1.008,3.659,2.527,4.651v1.588h-0.496c-0.277,0-0.5,0.226-0.5,0.5c0,0.277,0.223,0.5,0.5,0.5h7.047
	c0.275,0,0.5-0.223,0.5-0.5c0-0.274-0.225-0.5-0.5-0.5h-0.496v-1.59c1.412-0.922,2.375-2.465,2.506-4.24l9.045-1.911
	c0.139-0.029,0.26-0.117,0.33-0.24l1.762-3.062c0.09-0.154,0.09-0.347,0-0.5C34.438,20.367,34.273,20.271,34.094,20.271z
	 M17.355,21.322v3.469h-3.924C13.867,22.938,15.429,21.537,17.355,21.322z M19.884,32.066H15.83v-1.074
	c0.629,0.248,1.311,0.389,2.025,0.389c0.717,0,1.399-0.141,2.028-0.389L19.884,32.066L19.884,32.066z M17.855,30.381
	c-2.51,0-4.554-2.043-4.554-4.555c0-0.012,0.005-0.023,0.005-0.035h4.549c0.276,0,0.5-0.225,0.5-0.5v-3.969
	c2.274,0.252,4.057,2.164,4.057,4.504C22.412,28.338,20.367,30.381,17.855,30.381z M32.01,23.393l-8.633,1.824
	c-0.18-1.631-1.068-3.051-2.35-3.945H33.23L32.01,23.393z M37.928,19.508c0,0.277-0.225,0.5-0.5,0.5H35.82v1.605
	c0,0.277-0.223,0.5-0.5,0.5c-0.275,0-0.5-0.223-0.5-0.5v-1.605h-1.607c-0.273,0-0.5-0.223-0.5-0.5c0-0.275,0.227-0.5,0.5-0.5h1.607
	V17.4c0-0.275,0.225-0.5,0.5-0.5c0.277,0,0.5,0.225,0.5,0.5v1.606h1.607C37.703,19.008,37.928,19.232,37.928,19.508z M20.73,27.205
	c0,0.277-0.224,0.5-0.5,0.5h-0.572v0.572c0,0.277-0.223,0.5-0.5,0.5c-0.275,0-0.5-0.223-0.5-0.5v-0.572h-0.572
	c-0.275,0-0.5-0.223-0.5-0.5c0-0.275,0.225-0.5,0.5-0.5h0.572v-0.572c0-0.275,0.225-0.5,0.5-0.5c0.277,0,0.5,0.225,0.5,0.5v0.572
	h0.572C20.507,26.705,20.73,26.93,20.73,27.205z M27.619,28.01c0.094-0.133,0.143-0.281,0.143-0.443c0-0.18-0.053-0.321-0.156-0.43
	c-0.102-0.109-0.236-0.164-0.406-0.164c-0.18,0-0.32,0.068-0.422,0.203c-0.102,0.137-0.148,0.32-0.141,0.553h-0.773
	c-0.014-0.434,0.102-0.778,0.344-1.032c0.242-0.257,0.574-0.382,0.998-0.382c0.396,0,0.717,0.115,0.969,0.351
	c0.248,0.235,0.375,0.539,0.375,0.91c0,0.305-0.07,0.557-0.215,0.758c-0.141,0.199-0.408,0.424-0.799,0.674
	c-0.361,0.229-0.609,0.437-0.74,0.623l-0.004,0.004h1.758v0.693h-2.736l0,0c0-0.367,0.094-0.683,0.277-0.943
	c0.188-0.264,0.535-0.573,1.049-0.934C27.365,28.289,27.525,28.143,27.619,28.01z M30.877,26.314h-0.441l-1.482,2.444v0.343v0.342
	h1.588v0.883h0.775v-0.883h0.453v-0.629h-0.453v-2.5H30.877L30.877,26.314z M30.541,28.814h-1.008l0.035-0.056l0.973-1.616V28.814
	L30.541,28.814z M27.521,30.977h0.217v2.066h-0.217h-0.217v-0.936h-0.811v0.936h-0.213h-0.219v-2.066h0.217h0.215v0.775h0.811
	v-0.775H27.521z M29.801,32.775l-0.01-0.338c-0.004-0.166-0.066-0.283-0.184-0.355c-0.021-0.012-0.045-0.021-0.07-0.033
	c0.045-0.018,0.086-0.039,0.123-0.062c0.133-0.09,0.201-0.235,0.201-0.436c0-0.174-0.062-0.312-0.182-0.418
	c-0.121-0.104-0.279-0.156-0.479-0.156h-0.828h-0.215v2.066h0.217h0.217v-0.816h0.432c0.123,0,0.211,0.021,0.262,0.06
	c0.055,0.041,0.082,0.104,0.084,0.198l0.004,0.191c0,0.082,0.004,0.156,0.014,0.227c0.008,0.072,0.018,0.119,0.027,0.14h0.479
	v-0.056c-0.035-0.016-0.059-0.039-0.07-0.067S29.803,32.844,29.801,32.775z M29.344,31.811c-0.055,0.045-0.139,0.066-0.25,0.066
	h-0.5v-0.545h0.518c0.105,0,0.186,0.023,0.236,0.066c0.055,0.047,0.08,0.115,0.08,0.207C29.428,31.695,29.4,31.764,29.344,31.811z
	 M31.682,32.047c0.102,0.086,0.152,0.227,0.152,0.42c0,0.195-0.076,0.348-0.229,0.461c-0.154,0.115-0.359,0.172-0.621,0.172
	s-0.467-0.059-0.613-0.182c-0.146-0.121-0.227-0.293-0.236-0.516h0.416c0.004,0.111,0.045,0.193,0.121,0.252
	c0.072,0.061,0.178,0.09,0.312,0.09c0.139,0,0.246-0.023,0.322-0.066c0.074-0.047,0.115-0.104,0.115-0.186
	c0-0.078-0.025-0.137-0.084-0.172c-0.055-0.037-0.17-0.074-0.35-0.113c-0.326-0.074-0.547-0.152-0.658-0.238
	c-0.107-0.084-0.162-0.217-0.162-0.395c0-0.201,0.07-0.361,0.217-0.48c0.146-0.115,0.344-0.174,0.59-0.174
	c0.23,0,0.422,0.059,0.564,0.182c0.146,0.121,0.229,0.287,0.242,0.494h-0.422c-0.006-0.098-0.051-0.176-0.129-0.234
	c-0.078-0.057-0.182-0.086-0.309-0.086c-0.109,0-0.193,0.023-0.256,0.072s-0.092,0.115-0.092,0.201c0,0.062,0.031,0.109,0.098,0.145
	c0.061,0.033,0.197,0.074,0.404,0.121C31.379,31.879,31.582,31.957,31.682,32.047z"/>
</svg>
