<?xml version="1.0" encoding="utf-8"?>
<!-- Generator: Adobe Illustrator 16.0.0, SVG Export Plug-In . SVG Version: 6.00 Build 0)  -->
<!DOCTYPE svg PUBLIC "-//W3C//DTD SVG 1.1//EN" "http://www.w3.org/Graphics/SVG/1.1/DTD/svg11.dtd">
<svg version="1.1" id="Layer_1" xmlns="http://www.w3.org/2000/svg" xmlns:xlink="http://www.w3.org/1999/xlink" x="0px" y="0px"
	 width="96px" height="96px" viewBox="0 0 96 96" enable-background="new 0 0 96 96" xml:space="preserve">
<g>
	<polygon points="58.535,43.65 55.572,43.65 55.572,46.52 52.703,46.52 52.703,49.481 55.572,49.481 55.572,52.35 58.535,52.35 
		58.535,49.481 61.404,49.481 61.404,46.52 58.535,46.52 	"/>
	<path d="M94.375,49.87c-4.097-10.927-16.943-13.761-23.485-14.497c0.005-0.068,0.021-0.132,0.021-0.202v-1.558h12.914
		c1.297,0,2.349-1.051,2.349-2.349c0-1.297-1.052-2.349-2.349-2.349H70.911c0-1.297-1.052-2.349-2.349-2.349
		s-2.349,1.052-2.349,2.349H53.299c-1.297,0-2.349,1.052-2.349,2.349c0,1.298,1.052,2.349,2.349,2.349h12.914v1.504
		c-15.857,0.082-21.622,2.715-23.305,9.721l-26.871-1.096c-1.269-2.688-3.996-4.55-7.164-4.55c-4.378,0-7.927,3.548-7.927,7.927
		c0,4.378,3.549,7.927,7.927,7.927c2.884,0,5.4-1.545,6.787-3.847l28.411,4.175c4.164,4.87,5.304,8.285,25.752,8.285
		C90.274,63.659,97.433,60.171,94.375,49.87z M57.054,54.721c-3.712,0-6.72-3.01-6.72-6.721s3.008-6.721,6.72-6.721
		s6.72,3.01,6.72,6.721S60.766,54.721,57.054,54.721z M68.875,39.575c5.181,0.483,16.583,2.489,20.824,10.724H68.875V39.575z"/>
	<path d="M93.918,62.279l-0.267-0.06h-0.167c-0.694,0-1.313,0.465-1.503,1.118c-0.037,0.12-0.935,2.956-3.83,2.956H48.719
		c-0.865,0-1.569,0.705-1.569,1.569s0.704,1.569,1.569,1.569h39.433c4.116,0,6.233-3.26,6.845-5.226
		C95.223,63.385,94.741,62.521,93.918,62.279z"/>
</g>
</svg>
