<?xml version="1.0" encoding="utf-8"?>
<!-- Generator: Adobe Illustrator 17.0.0, SVG Export Plug-In . SVG Version: 6.00 Build 0)  -->
<!DOCTYPE svg PUBLIC "-//W3C//DTD SVG 1.1//EN" "http://www.w3.org/Graphics/SVG/1.1/DTD/svg11.dtd">
<svg version="1.1" id="Capa_1" xmlns="http://www.w3.org/2000/svg" xmlns:xlink="http://www.w3.org/1999/xlink" x="0px" y="0px"
	 width="20.335px" height="17.199px" viewBox="0 0 20.335 17.199" enable-background="new 0 0 20.335 17.199" xml:space="preserve">
<path d="M18.028,3.154l0.764-1.849H1.543v6.157h5.056V8.1c0,0.28,0.228,0.51,0.509,0.51h4.337c0.282,0,0.51-0.23,0.51-0.51V7.462
	h4.291L16.88,5.93h1.149V5.305h0.417v-1.81h-0.417C18.028,3.495,18.028,3.154,18.028,3.154z M9.768,12.425V9.472H8.065v2.953
	c-0.332,0.173-0.601,0.442-0.775,0.774H3.194v1.703H7.29c0.308,0.586,0.917,0.993,1.626,0.993c1.018,0,1.843-0.827,1.843-1.844
	C10.759,13.34,10.355,12.733,9.768,12.425z"/>
</svg>
