<?xml version="1.0" encoding="utf-8"?>
<!-- Generator: Adobe Illustrator 16.0.4, SVG Export Plug-In . SVG Version: 6.00 Build 0)  -->
<!DOCTYPE svg PUBLIC "-//W3C//DTD SVG 1.1//EN" "http://www.w3.org/Graphics/SVG/1.1/DTD/svg11.dtd">
<svg version="1.1" id="Layer_1" xmlns="http://www.w3.org/2000/svg" xmlns:xlink="http://www.w3.org/1999/xlink" x="0px" y="0px"
	 width="50px" height="50px" viewBox="0 0 50 50" enable-background="new 0 0 50 50" xml:space="preserve">
<path d="M35.326,17.143c-3.061-1.688-6.633-2.58-10.326-2.58c-3.695,0-7.268,0.893-10.326,2.58c-0.172,0.095-0.271,0.28-0.258,0.476
	c0.568,7.652,4.432,14.288,10.331,17.75c0.078,0.047,0.165,0.068,0.253,0.068s0.175-0.021,0.253-0.068
	c5.901-3.463,9.765-10.1,10.331-17.751C35.598,17.421,35.498,17.236,35.326,17.143z M25,34.354
	c-5.395-3.287-8.943-9.411-9.561-16.49c2.849-1.508,6.146-2.303,9.561-2.303c3.413,0,6.711,0.795,9.561,2.303
	C33.943,24.943,30.395,31.066,25,34.354z M25,16.954c-0.07,0-0.139,0.016-0.2,0.043c-2.614,0.025-5.225,0.529-7.521,1.53
	c-0.206,0.09-0.327,0.308-0.295,0.531c0.82,5.581,3.636,10.476,7.723,13.427c0.009,0.008,0.021,0.004,0.029,0.01
	C24.814,32.543,24.9,32.58,25,32.58s0.186-0.037,0.264-0.086c0.008-0.006,0.021-0.002,0.029-0.01
	c4.087-2.951,6.9-7.846,7.723-13.427c0.032-0.224-0.088-0.441-0.295-0.531c-2.295-1.001-4.904-1.506-7.521-1.53
	C25.139,16.969,25.07,16.954,25,16.954z M24.5,18.004v5.074h-5.477c-0.438-1.208-0.773-2.474-0.99-3.785
	C20.027,18.479,22.256,18.061,24.5,18.004z M19.427,24.079H24.5v6.955C22.331,29.242,20.596,26.85,19.427,24.079z M25.5,31.033
	v-6.955h5.073C29.404,26.85,27.669,29.242,25.5,31.033z M30.977,23.079H25.5v-5.074c2.244,0.056,4.475,0.475,6.467,1.289
	C31.75,20.604,31.413,21.871,30.977,23.079z"/>
</svg>
