<?xml version="1.0" encoding="utf-8"?>
<!-- Generator: Adobe Illustrator 16.0.4, SVG Export Plug-In . SVG Version: 6.00 Build 0)  -->
<!DOCTYPE svg PUBLIC "-//W3C//DTD SVG 1.1//EN" "http://www.w3.org/Graphics/SVG/1.1/DTD/svg11.dtd">
<svg version="1.1" id="Layer_1" xmlns="http://www.w3.org/2000/svg" xmlns:xlink="http://www.w3.org/1999/xlink" x="0px" y="0px"
	 width="50px" height="50px" viewBox="0 0 50 50" enable-background="new 0 0 50 50" xml:space="preserve">
<path d="M34.518,19.814h-1.58v-1.58c0-0.275-0.224-0.5-0.5-0.5h-2.602c-0.276,0-0.5,0.225-0.5,0.5v1.58h-1.58
	c-0.276,0-0.5,0.225-0.5,0.5v2.601c0,0.276,0.224,0.5,0.5,0.5h1.58v1.58c0,0.276,0.224,0.5,0.5,0.5h2.602c0.276,0,0.5-0.224,0.5-0.5
	v-1.58h1.58c0.276,0,0.5-0.224,0.5-0.5v-2.601C35.018,20.039,34.794,19.814,34.518,19.814z M34.018,22.415h-1.58
	c-0.275,0-0.5,0.224-0.5,0.5v1.58h-1.602v-1.58c0-0.276-0.225-0.5-0.5-0.5h-1.58v-1.601h1.58c0.275,0,0.5-0.224,0.5-0.5v-1.58h1.602
	v1.58c0,0.276,0.225,0.5,0.5,0.5h1.58V22.415z M22.442,24.123c-4.877,0-7.28,3.646-7.38,3.801c-0.106,0.165-0.106,0.376,0,0.541
	c0.1,0.155,2.503,3.801,7.38,3.801c4.778,0,9.402-3.524,9.596-3.676c0.123-0.095,0.194-0.24,0.194-0.396
	c0-0.155-0.071-0.301-0.193-0.396C31.844,27.648,27.22,24.123,22.442,24.123z M22.306,30.777c-1.425,0-2.584-1.158-2.584-2.584
	c0-1.424,1.159-2.584,2.584-2.584c1.425,0,2.585,1.16,2.585,2.584C24.891,29.619,23.731,30.777,22.306,30.777z M16.101,28.195
	c0.464-0.586,1.747-1.982,3.838-2.672c-0.741,0.656-1.217,1.604-1.217,2.67c0,1.072,0.483,2.024,1.231,2.683
	C17.841,30.193,16.566,28.793,16.101,28.195z M24.476,31.027c0.854-0.655,1.415-1.676,1.415-2.834c0-1.157-0.562-2.178-1.417-2.834
	c2.781,0.572,5.311,2.102,6.395,2.834C29.786,28.928,27.256,30.455,24.476,31.027z M24.045,28.193c0,0.961-0.778,1.738-1.739,1.738
	c-0.959,0-1.738-0.777-1.738-1.738s0.779-1.737,1.738-1.737C23.267,26.456,24.045,27.232,24.045,28.193z"/>
</svg>
