<?xml version="1.0" encoding="utf-8"?>
<!-- Generator: Adobe Illustrator 16.0.0, SVG Export Plug-In . SVG Version: 6.00 Build 0)  -->
<!DOCTYPE svg PUBLIC "-//W3C//DTD SVG 1.1//EN" "http://www.w3.org/Graphics/SVG/1.1/DTD/svg11.dtd">
<svg version="1.1" id="Layer_1" xmlns="http://www.w3.org/2000/svg" xmlns:xlink="http://www.w3.org/1999/xlink" x="0px" y="0px"
	 width="96px" height="96px" viewBox="0 0 96 96" enable-background="new 0 0 96 96" xml:space="preserve">
<path d="M94.768,43.513c0.001-0.79-0.219-1.589-0.688-2.297c-4.659-7.039-16.394-23.398-24.767-23.398c-0.007,0-0.014,0-0.021,0
	c-2.454,0.009-4.571,1.185-5.959,3.313c-1.255,1.924-0.711,4.501,1.214,5.755c1.7,1.111,3.911,0.813,5.27-0.598
	c2.94,1.185,9.842,8.742,15.758,17.225H10.358c5.916-8.481,12.816-16.04,15.758-17.225c1.356,1.413,3.569,1.71,5.271,0.601
	c1.925-1.256,2.469-3.834,1.213-5.758c-1.388-2.129-3.504-3.305-5.958-3.313c-0.008,0-0.015,0-0.021,0
	c-8.373,0-20.107,16.359-24.767,23.398c-0.574,0.866-0.763,1.867-0.64,2.823v18.109v0.52v0.952h0.055
	c0.879,8.375,13.166,14.563,21.701,14.563h4.853c12.758,0,11.704-10.6,16.361-14.563h7.669c4.657,3.963,3.604,14.563,16.361,14.563
	h4.854c8.535,0,20.822-6.188,21.7-14.563V43.513z M88.409,54.238H6.587v-6.545h81.822V54.238z"/>
</svg>
