<?xml version="1.0" encoding="utf-8"?>
<!-- Generator: Adobe Illustrator 16.0.4, SVG Export Plug-In . SVG Version: 6.00 Build 0)  -->
<!DOCTYPE svg PUBLIC "-//W3C//DTD SVG 1.1//EN" "http://www.w3.org/Graphics/SVG/1.1/DTD/svg11.dtd">
<svg version="1.1" id="Layer_1" xmlns="http://www.w3.org/2000/svg" xmlns:xlink="http://www.w3.org/1999/xlink" x="0px" y="0px"
	 width="50px" height="50px" viewBox="0 0 50 50" enable-background="new 0 0 50 50" xml:space="preserve">
<path d="M13.094,18.167c-0.981,0-1.75,1.099-1.75,2.5v8.666c0,1.401,0.769,2.5,1.75,2.5c0.981,0,1.75-1.099,1.75-2.5v-8.666
	C14.844,19.266,14.075,18.167,13.094,18.167z M13.844,29.333c0,0.858-0.396,1.5-0.75,1.5c-0.354,0-0.75-0.642-0.75-1.5v-8.666
	c0-0.858,0.396-1.5,0.75-1.5c0.354,0,0.75,0.642,0.75,1.5V29.333z M36.906,18.167c-0.981,0-1.75,1.099-1.75,2.5v8.666
	c0,1.401,0.769,2.5,1.75,2.5c0.98,0,1.75-1.099,1.75-2.5v-8.666C38.656,19.266,37.889,18.167,36.906,18.167z M37.656,29.333
	c0,0.858-0.396,1.5-0.75,1.5c-0.354,0-0.75-0.642-0.75-1.5v-8.666c0-0.858,0.396-1.5,0.75-1.5c0.354,0,0.75,0.642,0.75,1.5V29.333z
	 M34.186,19.5c-0.276,0-0.5,0.225-0.5,0.5v0.584h-17.37V20c0-0.275-0.224-0.5-0.5-0.5s-0.5,0.225-0.5,0.5v10
	c0,0.275,0.224,0.5,0.5,0.5s0.5-0.225,0.5-0.5v-0.583h17.37V30c0,0.275,0.224,0.5,0.5,0.5c0.275,0,0.5-0.225,0.5-0.5V20
	C34.686,19.725,34.461,19.5,34.186,19.5z M33.686,28.417h-17.37v-1.61h17.37V28.417z M33.686,25.807h-17.37v-1.611h17.37V25.807z
	 M33.686,23.195h-17.37v-1.611h17.37V23.195z"/>
</svg>
