<?xml version="1.0" encoding="utf-8"?>
<!-- Generator: Adobe Illustrator 16.0.0, SVG Export Plug-In . SVG Version: 6.00 Build 0)  -->
<!DOCTYPE svg PUBLIC "-//W3C//DTD SVG 1.1//EN" "http://www.w3.org/Graphics/SVG/1.1/DTD/svg11.dtd">
<svg version="1.1" id="Layer_1" xmlns="http://www.w3.org/2000/svg" xmlns:xlink="http://www.w3.org/1999/xlink" x="0px" y="0px"
	 width="96px" height="96px" viewBox="0 0 96 96" enable-background="new 0 0 96 96" xml:space="preserve">
<g>
	<path d="M43.823,45.936l5.47-4.399l0.013-6.561L31.321,17.031c4.042-4.22,4.438-10.463,0.836-14.064
		C28.5-0.69,22.113-0.234,17.893,3.986c-2.217,2.217-3.384,5.031-3.473,7.734c-2.703,0.088-5.517,1.256-7.734,3.473
		C2.465,19.414,2.009,25.8,5.667,29.458c3.602,3.602,9.845,3.206,14.065-0.836l22.807,22.806L43.823,45.936z"/>
	<path d="M91.17,69.749c-3.029-4.094-9.263-4.625-14.033-1.252L54.426,37.802l-0.295,6.322l-6.189,5.596l-0.534,6.151l16.554,22.374
		c-4.622,3.576-5.936,9.692-2.907,13.786c3.077,4.159,9.46,4.651,14.258,1.102c2.521-1.865,4.091-4.475,4.578-7.136
		c2.687,0.312,5.643-0.426,8.163-2.291C92.851,80.156,94.247,73.908,91.17,69.749z"/>
	<polygon points="36.993,72.965 43.993,62.007 40.014,60.318 	"/>
	<polygon points="40.958,51.842 32.583,56.628 42.208,55.979 	"/>
	<polygon points="55.716,30.374 48.91,19.294 51.708,31.994 	"/>
	<polygon points="63.58,27.728 57.233,34.994 61.042,37.037 	"/>
</g>
</svg>
