<?xml version="1.0" encoding="utf-8"?>
<!-- Generator: Adobe Illustrator 16.0.4, SVG Export Plug-In . SVG Version: 6.00 Build 0)  -->
<!DOCTYPE svg PUBLIC "-//W3C//DTD SVG 1.1//EN" "http://www.w3.org/Graphics/SVG/1.1/DTD/svg11.dtd">
<svg version="1.1" id="Layer_1" xmlns="http://www.w3.org/2000/svg" xmlns:xlink="http://www.w3.org/1999/xlink" x="0px" y="0px"
	 width="50px" height="50px" viewBox="0 0 50 50" enable-background="new 0 0 50 50" xml:space="preserve">
<path d="M32.01,25.002c0-0.025-0.011-0.046-0.014-0.07c-0.005-0.549-0.047-1.104-0.143-1.656c-0.437-2.527-1.61-4.504-3.221-5.425
	c-0.074-0.043-0.16-0.066-0.248-0.066h-5.809c-0.227,0-0.425,0.152-0.483,0.372c-0.058,0.219,0.039,0.45,0.235,0.562
	c1.076,0.616,1.943,1.896,2.438,3.523h-3.319c-0.099,0-0.185,0.036-0.263,0.085c-0.318-0.012-0.64,0.052-0.948,0.206
	c-1.619,0.807-2.562,3.318-2.149,5.717c0.302,1.751,1.135,3.088,2.283,3.67c0.389,0.197,0.8,0.295,1.215,0.295
	c0.189,0,0.379-0.021,0.568-0.062l6.288-0.189c0.072-0.002,0.144-0.021,0.208-0.053c2.023-1.012,3.334-3.826,3.347-6.843
	C32,25.046,32.01,25.026,32.01,25.002z M22.395,31.018c-0.123,0.061-0.245,0.107-0.366,0.142l-0.409,0.012
	c-0.065,0.002-0.128,0.017-0.185,0.042c-0.207-0.02-0.411-0.081-0.613-0.184c-0.851-0.43-1.505-1.532-1.75-2.947
	c-0.331-1.921,0.407-4.052,1.61-4.652c0.288-0.143,0.572-0.145,0.843-0.008c0.494,0.251,0.877,0.908,1.023,1.758
	c0.22,1.276-0.304,2.47-0.933,2.783c-0.134,0.067-0.254,0.069-0.377,0.007c-0.205-0.104-0.459-0.419-0.559-0.995
	c-0.122-0.707,0.163-1.42,0.499-1.587c0.248-0.123,0.349-0.423,0.226-0.67c-0.123-0.248-0.424-0.349-0.67-0.226
	c-0.773,0.384-1.23,1.55-1.04,2.653c0.14,0.812,0.539,1.438,1.094,1.719c0.405,0.205,0.858,0.203,1.274-0.006
	c1.103-0.549,1.75-2.239,1.472-3.848c-0.123-0.712-0.391-1.305-0.749-1.766h2.229c0.013,0.069,0.031,0.134,0.043,0.204
	C25.605,26.614,24.41,30.01,22.395,31.018z M28.296,30.968L23.967,31.1c1.711-1.664,2.6-4.8,2.077-7.824
	c-0.321-1.864-1.044-3.429-2.048-4.491h4.25c0.674,0.419,1.26,1.104,1.721,1.967h-2.833c-0.275,0-0.5,0.224-0.5,0.5
	s0.225,0.5,0.5,0.5h3.278c0.193,0.526,0.352,1.091,0.455,1.694c0.062,0.35,0.093,0.703,0.112,1.056h-2.971
	c-0.275,0-0.5,0.224-0.5,0.5s0.225,0.5,0.5,0.5h2.965c-0.052,0.979-0.25,1.916-0.572,2.75h-3.269c-0.275,0-0.5,0.225-0.5,0.5
	s0.225,0.5,0.5,0.5h2.789C29.485,30.006,28.94,30.618,28.296,30.968z"/>
</svg>
