<?xml version="1.0" encoding="utf-8"?>
<!-- Generator: Adobe Illustrator 16.0.0, SVG Export Plug-In . SVG Version: 6.00 Build 0)  -->
<!DOCTYPE svg PUBLIC "-//W3C//DTD SVG 1.1//EN" "http://www.w3.org/Graphics/SVG/1.1/DTD/svg11.dtd">
<svg version="1.1" id="Layer_1" xmlns="http://www.w3.org/2000/svg" xmlns:xlink="http://www.w3.org/1999/xlink" x="0px" y="0px"
	 width="96px" height="96px" viewBox="0 0 96 96" enable-background="new 0 0 96 96" xml:space="preserve">
<path d="M0.97,1.5v93H95.03v-93H0.97z M75.882,61.813C65.684,75.235,53.07,82.031,38.365,82.034c-3.731,0-7.637-0.453-11.611-1.348
	C13.971,77.811,8.448,71.494,6.064,66.699c-2.072-4.168-3.688-11.01,0.37-19.931c1.365-2.998,3.203-6.06,5.316-8.848l19.238-23.319
	H65.98L36.453,52.186c-1.27,1.852-1.806,4.491,1.08,6.188c4.535,1.595,8.809-3.463,14.161-10.642l11.202-14.028h30.441l0.005,3.558
	L75.882,61.813z"/>
</svg>
