<?xml version="1.0" encoding="utf-8"?>
<!-- Generator: Adobe Illustrator 16.0.4, SVG Export Plug-In . SVG Version: 6.00 Build 0)  -->
<!DOCTYPE svg PUBLIC "-//W3C//DTD SVG 1.1//EN" "http://www.w3.org/Graphics/SVG/1.1/DTD/svg11.dtd">
<svg version="1.1" id="Layer_1" xmlns="http://www.w3.org/2000/svg" xmlns:xlink="http://www.w3.org/1999/xlink" x="0px" y="0px"
	 width="226.77px" height="155.91px" viewBox="0 0 226.77 155.91" enable-background="new 0 0 226.77 155.91" xml:space="preserve">
<path d="M160.115,97.619c0-0.055,0.028-0.109,0.028-0.192V38.572c0-0.027,0-0.055,0-0.083c0-0.22-0.028-0.44-0.056-0.632
	c-0.027-0.083-0.055-0.192-0.055-0.275c-0.027-0.083-0.027-0.165-0.055-0.248c-0.028-0.055-0.056-0.11-0.083-0.192
	c-0.027-0.11-0.082-0.193-0.11-0.275c-0.055-0.137-0.137-0.275-0.22-0.413c-0.055-0.083-0.082-0.137-0.138-0.22
	c-0.137-0.193-0.274-0.357-0.412-0.522c-0.027-0.028-0.027-0.028-0.027-0.055c-0.165-0.165-0.357-0.303-0.551-0.44
	c-0.055-0.055-0.137-0.083-0.22-0.138c-0.138-0.083-0.274-0.165-0.412-0.22c-0.083-0.028-0.165-0.083-0.248-0.11
	c-0.165-0.055-0.302-0.11-0.467-0.137c-0.083-0.028-0.165-0.055-0.248-0.055c-0.247-0.055-0.495-0.083-0.742-0.083h-54.399
	c-2.448,0-5.803,0.743-8.003,1.788L68.974,47.978c-0.11,0.055-0.22,0.138-0.33,0.193c-0.083,0.055-0.165,0.083-0.248,0.137
	c-0.193,0.138-0.385,0.303-0.578,0.468c0,0,0,0-0.027,0.027c-0.165,0.165-0.33,0.357-0.468,0.55
	c-0.055,0.083-0.083,0.137-0.138,0.22c-0.082,0.138-0.165,0.275-0.22,0.413c-0.027,0.083-0.083,0.192-0.11,0.275
	c-0.055,0.138-0.11,0.275-0.138,0.44c-0.027,0.11-0.055,0.192-0.055,0.302c-0.027,0.165-0.055,0.33-0.055,0.495
	c0,0.055-0.028,0.11-0.028,0.192v65.62c0,0.027,0,0.083,0,0.11c0,0.22,0.028,0.413,0.055,0.632c0.027,0.083,0.027,0.193,0.055,0.275
	c0.027,0.083,0.027,0.166,0.055,0.248c0.028,0.082,0.055,0.137,0.083,0.192c0.028,0.083,0.083,0.192,0.11,0.274
	c0.083,0.139,0.137,0.275,0.22,0.44c0.055,0.083,0.083,0.138,0.138,0.192c0.137,0.193,0.275,0.385,0.467,0.551l0.028,0.027
	c0.165,0.164,0.33,0.303,0.522,0.439c0.055,0.055,0.137,0.082,0.192,0.138c0.138,0.083,0.275,0.165,0.44,0.22
	c0.083,0.027,0.165,0.083,0.248,0.11c0.165,0.056,0.303,0.11,0.468,0.138c0.083,0.027,0.165,0.055,0.248,0.055
	c0.248,0.055,0.495,0.082,0.742,0.082h64.025c2.888,0,6.463-1.484,8.498-3.547l15.017-15.209
	C159.785,101.167,160.418,99.352,160.115,97.619z M74.832,55.789l19.691-0.028v39.851c-0.33,0.193-0.66,0.385-0.935,0.578
	l-18.729,13.229V55.789H74.832z M102.719,55.733l31.16-0.055l0.027,37.734l-31.188,0.109V55.733z M142.102,53.671l9.846-7.068
	v46.754l-9.818,0.027L142.102,53.671z M136.684,47.483l-33.965,0.055v-4.84h40.593L136.684,47.483z M94.523,44.98v2.585H89.05
	L94.523,44.98z M98.318,102.9c0.797-0.551,2.64-1.156,3.603-1.156l32.013-0.109v11.605H83.66L98.318,102.9z M142.129,107.355v-5.748
	l5.693-0.027L142.129,107.355z"/>
</svg>
