<?xml version="1.0" encoding="utf-8"?>
<!-- Generator: Adobe Illustrator 16.0.4, SVG Export Plug-In . SVG Version: 6.00 Build 0)  -->
<!DOCTYPE svg PUBLIC "-//W3C//DTD SVG 1.1//EN" "http://www.w3.org/Graphics/SVG/1.1/DTD/svg11.dtd">
<svg version="1.1" id="Layer_1" xmlns="http://www.w3.org/2000/svg" xmlns:xlink="http://www.w3.org/1999/xlink" x="0px" y="0px"
	 width="226.77px" height="155.91px" viewBox="0 0 226.77 155.91" enable-background="new 0 0 226.77 155.91" xml:space="preserve">
<g>
	<path d="M89.101,83.057c-0.743-0.742-1.925-0.742-2.668-0.027c-0.743,0.742-0.743,1.926-0.027,2.668l4.51,4.592
		c0.357,0.386,0.853,0.551,1.348,0.551c0.467,0,0.962-0.192,1.32-0.551c0.743-0.742,0.743-1.924,0.028-2.667L89.101,83.057z"/>
	<path d="M98.148,92.242c-0.742-0.742-1.925-0.742-2.667-0.027c-0.743,0.742-0.743,1.926-0.028,2.668l4.511,4.593
		c0.357,0.386,0.853,0.55,1.348,0.55c0.467,0,0.962-0.192,1.32-0.55c0.743-0.743,0.743-1.925,0.028-2.667L98.148,92.242z"/>
	<path d="M136.156,84.597l-4.537,4.593c-0.742,0.742-0.715,1.926,0.027,2.668c0.357,0.357,0.853,0.551,1.32,0.551
		c0.494,0,0.963-0.193,1.348-0.551l4.51-4.593c0.742-0.743,0.715-1.925-0.027-2.668C138.055,83.854,136.871,83.854,136.156,84.597z"
		/>
	<path d="M127.108,93.783l-4.511,4.592c-0.742,0.743-0.715,1.926,0.027,2.668c0.357,0.357,0.854,0.551,1.32,0.551
		c0.496,0,0.963-0.193,1.348-0.551l4.511-4.593c0.743-0.743,0.715-1.925-0.027-2.667C129.033,93.04,127.823,93.04,127.108,93.783z"
		/>
	<path d="M111.707,105.994l-4.538-4.594c-0.743-0.742-1.925-0.742-2.668-0.027c-0.743,0.742-0.743,1.926-0.027,2.668l4.51,4.593
		c0.357,0.386,0.853,0.55,1.348,0.55c0.468,0,0.962-0.192,1.32-0.55C112.422,107.919,112.422,106.736,111.707,105.994z"/>
	<path d="M118.061,102.969l-4.511,4.592c-0.743,0.743-0.715,1.926,0.027,2.668c0.358,0.357,0.853,0.551,1.32,0.551
		c0.495,0,0.962-0.193,1.348-0.551l4.511-4.592c0.742-0.743,0.715-1.926-0.027-2.668
		C119.985,102.198,118.803,102.226,118.061,102.969z"/>
	<path d="M158.846,64.355l-42.188-42.821c0,0,0,0-0.028,0c-0.825-0.825-1.979-1.348-3.245-1.348c-1.265,0-2.42,0.522-3.245,1.348
		l0,0L67.924,64.355c-0.853,0.853-1.32,2.008-1.32,3.218v20.765c0,0.027,0,0.055,0,0.082c0,0.275,0.027,0.55,0.083,0.824
		c0.027,0.139,0.083,0.248,0.11,0.386c0.055,0.165,0.083,0.302,0.138,0.468c0.055,0.137,0.138,0.275,0.22,0.412
		c0.055,0.138,0.138,0.248,0.193,0.385c0.11,0.166,0.248,0.303,0.357,0.44c0.055,0.083,0.11,0.165,0.192,0.247l42.216,42.766
		c0.853,0.881,2.035,1.376,3.272,1.376c1.238,0,2.393-0.495,3.273-1.376l42.188-42.793c0.083-0.082,0.138-0.192,0.221-0.275
		c0.109-0.137,0.22-0.247,0.33-0.412c0.082-0.137,0.164-0.275,0.22-0.412c0.055-0.11,0.138-0.248,0.192-0.357
		c0.082-0.166,0.109-0.357,0.165-0.523c0.027-0.109,0.083-0.219,0.11-0.33c0.055-0.302,0.082-0.604,0.082-0.906V67.573
		C160.166,66.363,159.699,65.208,158.846,64.355z M75.789,69.443l33.003-33.498v7.673L75.789,77.116V69.443z M113.385,124.613
		L77.632,88.338l35.753-36.304l35.753,36.304L113.385,124.613z M150.98,69.553L150.98,69.553v7.59l-33.003-33.525v-7.673
		l33.003,33.498V69.553z"/>
	<path d="M113.385,111.494c-1.045,0-1.897,0.853-1.897,1.897v5.226c0,1.045,0.853,1.897,1.897,1.897s1.897-0.853,1.897-1.897v-5.226
		C115.282,112.347,114.43,111.494,113.385,111.494z"/>
</g>
</svg>
