<?xml version="1.0" encoding="utf-8"?>
<!-- Generator: Adobe Illustrator 16.0.4, SVG Export Plug-In . SVG Version: 6.00 Build 0)  -->
<!DOCTYPE svg PUBLIC "-//W3C//DTD SVG 1.1//EN" "http://www.w3.org/Graphics/SVG/1.1/DTD/svg11.dtd">
<svg version="1.1" id="Layer_1" xmlns="http://www.w3.org/2000/svg" xmlns:xlink="http://www.w3.org/1999/xlink" x="0px" y="0px"
	 width="226.77px" height="155.91px" viewBox="0 0 226.77 155.91" enable-background="new 0 0 226.77 155.91" xml:space="preserve">
<g>
	<path d="M163.246,28.094H63.523c-2.585,0-4.703,2.118-4.703,4.703v90.317c0,2.585,2.118,4.702,4.703,4.702h99.723
		c2.586,0,4.703-2.117,4.703-4.702V32.797C167.949,30.184,165.859,28.094,163.246,28.094z M131.262,80.788
		c-2.586,0-4.703,2.117-4.703,4.703v0.935v1.87h-9.406v-2.805c0-2.586-2.117-4.703-4.703-4.703c-2.585,0-4.703,2.117-4.703,4.703
		v0.935v1.87H94.573v-2.805c0-2.586-2.118-4.703-4.703-4.703c-2.585,0-4.703,2.117-4.703,4.703v0.935v1.87H68.226V63.847h9.406
		v2.833v0.935c0,2.091,1.678,3.768,3.768,3.768c0.165,0,0.302-0.027,0.467-0.055c0.165,0.027,0.303,0.055,0.468,0.055
		c2.585,0,4.703-2.117,4.703-4.702v-2.833h7.536v2.833v0.935c0,2.091,1.678,3.768,3.768,3.768c0.165,0,0.302-0.027,0.467-0.055
		c0.165,0.027,0.303,0.055,0.468,0.055c2.585,0,4.703-2.117,4.703-4.702v-2.833h13.173v2.833v0.935c0,2.091,1.678,3.768,3.768,3.768
		c0.166,0,0.303-0.027,0.469-0.055c0.164,0.027,0.302,0.055,0.467,0.055c2.586,0,4.703-2.117,4.703-4.702v-2.833h9.406v2.833v0.935
		c0,2.091,1.677,3.768,3.768,3.768c0.164,0,0.303-0.027,0.467-0.055c0.165,0.027,0.303,0.055,0.468,0.055
		c2.585,0,4.703-2.117,4.703-4.702v-2.833h13.173v24.449h-22.578v-2.805C135.965,82.878,133.847,80.788,131.262,80.788z
		 M68.226,37.5h90.317v16.941H145.37v-2.833c0-2.585-2.118-4.703-4.703-4.703s-4.702,2.118-4.702,4.703v0.935v1.87h-9.406v-2.832
		c0-2.586-2.117-4.703-4.703-4.703c-2.585,0-4.703,2.117-4.703,4.703v0.935v1.87h-13.173v-2.833c0-2.585-2.118-4.702-4.703-4.702
		c-2.585,0-4.703,2.117-4.703,4.702v0.936v1.87h-7.536v-2.833c0-2.585-2.118-4.702-4.703-4.702c-2.585,0-4.703,2.2-4.703,4.785
		v0.935v1.87h-9.406V37.5z M158.543,118.411H68.226V97.702h16.941v2.833v0.935c0,2.09,1.678,3.768,3.768,3.768
		c0.165,0,0.302-0.027,0.467-0.055c0.165,0.027,0.303,0.055,0.468,0.055c2.585,0,4.703-2.117,4.703-4.702v-2.833h13.174v2.833v0.935
		c0,2.09,1.677,3.768,3.768,3.768c0.165,0,0.303-0.027,0.468-0.055c0.165,0.027,0.302,0.055,0.467,0.055
		c2.585,0,4.703-2.117,4.703-4.702v-2.833h9.406v2.833v0.935c0,2.09,1.678,3.768,3.768,3.768c0.165,0,0.303-0.027,0.468-0.055
		c0.165,0.027,0.302,0.055,0.468,0.055c2.585,0,4.703-2.117,4.703-4.702v-2.833h22.578V118.411z"/>
</g>
</svg>
