<?xml version="1.0" encoding="utf-8"?>
<!-- Generator: Adobe Illustrator 17.0.0, SVG Export Plug-In . SVG Version: 6.00 Build 0)  -->
<!DOCTYPE svg PUBLIC "-//W3C//DTD SVG 1.1//EN" "http://www.w3.org/Graphics/SVG/1.1/DTD/svg11.dtd">
<svg version="1.1" id="Capa_1" xmlns="http://www.w3.org/2000/svg" xmlns:xlink="http://www.w3.org/1999/xlink" x="0px" y="0px"
	 width="17.122px" height="17.124px" viewBox="0 0 17.122 17.124" enable-background="new 0 0 17.122 17.124" xml:space="preserve">
<path d="M8.561,0C3.834,0,0,3.834,0,8.561c0,4.729,3.834,8.563,8.561,8.563c4.729,0,8.562-3.834,8.562-8.563
	C17.122,3.834,13.29,0,8.561,0z M8.561,15.485c-3.824,0-6.924-3.098-6.924-6.924c0-3.824,3.1-6.926,6.924-6.926
	c3.825,0,6.925,3.102,6.925,6.926C15.485,12.387,12.386,15.485,8.561,15.485z M13.854,7.993L9.376,3.514
	C9.062,3.201,8.808,3.307,8.808,3.75v2.057c0,0.441-0.363,0.803-0.804,0.803H3.838c-0.442,0-0.806,0.359-0.806,0.805V9.71
	c0,0.441,0.362,0.805,0.806,0.805h4.166c0.44,0,0.804,0.361,0.804,0.803v2.057c0,0.441,0.255,0.547,0.567,0.236l4.479-4.479
	C14.167,8.817,14.167,8.305,13.854,7.993z"/>
</svg>
