<?xml version="1.0" encoding="utf-8"?>
<!-- Generator: Adobe Illustrator 16.0.4, SVG Export Plug-In . SVG Version: 6.00 Build 0)  -->
<!DOCTYPE svg PUBLIC "-//W3C//DTD SVG 1.1//EN" "http://www.w3.org/Graphics/SVG/1.1/DTD/svg11.dtd">
<svg version="1.1" id="Capa_1" xmlns="http://www.w3.org/2000/svg" xmlns:xlink="http://www.w3.org/1999/xlink" x="0px" y="0px"
	 width="17.123px" height="17.125px" viewBox="0 0 17.123 17.125" enable-background="new 0 0 17.123 17.125" xml:space="preserve">
<path d="M8.562,0C3.834,0,0,3.832,0,8.561c0,4.729,3.833,8.563,8.562,8.563s8.561-3.834,8.561-8.563C17.123,3.832,13.291,0,8.562,0z
	 M8.562,15.485c-3.825,0-6.926-3.098-6.926-6.924c0-3.824,3.101-6.926,6.926-6.926c3.823,0,6.923,3.102,6.923,6.926
	C15.485,12.387,12.386,15.485,8.562,15.485z M14.09,7.415V9.71c0,0.441-0.362,0.805-0.804,0.805H9.121
	c-0.444,0-0.806,0.359-0.806,0.803v2.057c0,0.441-0.254,0.547-0.566,0.234L3.269,9.13c-0.312-0.313-0.312-0.824,0-1.137l4.48-4.479
	c0.31-0.315,0.566-0.207,0.566,0.234v2.057c0,0.444,0.364,0.805,0.806,0.805h4.165C13.728,6.61,14.089,6.969,14.09,7.415z"/>
</svg>
