<?xml version="1.0" encoding="utf-8"?>
<!-- Generator: Adobe Illustrator 16.0.4, SVG Export Plug-In . SVG Version: 6.00 Build 0)  -->
<!DOCTYPE svg PUBLIC "-//W3C//DTD SVG 1.1//EN" "http://www.w3.org/Graphics/SVG/1.1/DTD/svg11.dtd">
<svg version="1.1" id="Layer_1" xmlns="http://www.w3.org/2000/svg" xmlns:xlink="http://www.w3.org/1999/xlink" x="0px" y="0px"
	 width="50px" height="50px" viewBox="0 0 50 50" enable-background="new 0 0 50 50" xml:space="preserve">
<path d="M18.698,25.993h3.361c0.276,0,0.5-0.224,0.5-0.5v-2.188h2.188c0.276,0,0.5-0.224,0.5-0.5v-3.361c0-0.275-0.224-0.5-0.5-0.5
	h-2.188v-2.188c0-0.276-0.224-0.5-0.5-0.5h-3.361c-0.276,0-0.5,0.224-0.5,0.5v2.188h-2.188c-0.276,0-0.5,0.225-0.5,0.5v3.361
	c0,0.276,0.224,0.5,0.5,0.5h2.188v2.188C18.198,25.77,18.421,25.993,18.698,25.993z M16.509,22.305v-2.361h2.188
	c0.276,0,0.5-0.223,0.5-0.5v-2.188h2.361v2.188c0,0.277,0.224,0.5,0.5,0.5h2.188v2.361h-2.188c-0.276,0-0.5,0.225-0.5,0.5v2.188
	h-2.361v-2.188c0-0.275-0.224-0.5-0.5-0.5H16.509z M23.75,28.186c0.014-0.09,0.35-2.207,2.221-2.271
	c0.812-0.027,2.735-0.38,3.094-3.047c0.037-0.273-0.154-0.525-0.429-0.562c-0.278-0.05-0.525,0.155-0.562,0.43
	c-0.189,1.404-0.908,2.139-2.138,2.18c-2.112,0.075-2.974,1.969-3.157,3.037c-0.735,0.254-2.912,1.049-3.635,1.771
	c-0.442,0.442-0.739,0.984-0.836,1.528c-0.108,0.603,0.043,1.16,0.415,1.531c0.294,0.295,0.693,0.45,1.154,0.45
	c0.658,0,1.353-0.317,1.906-0.871c0.827-0.824,1.745-3.547,1.847-3.854c0.009-0.025,0-0.054,0.003-0.08
	C23.691,28.357,23.736,28.279,23.75,28.186z M21.077,31.654c-0.356,0.356-0.815,0.578-1.199,0.578c-0.132,0-0.316-0.027-0.447-0.157
	c-0.187-0.188-0.167-0.486-0.138-0.647c0.061-0.34,0.265-0.703,0.56-0.998c0.364-0.365,1.48-0.867,2.473-1.248
	C21.943,30.174,21.441,31.291,21.077,31.654z M34.057,22.818c-0.272-0.051-0.524,0.154-0.562,0.429
	c-0.188,1.403-0.907,2.139-2.137,2.18c-2.112,0.075-2.975,1.97-3.156,3.037c-0.735,0.255-2.914,1.05-3.636,1.772
	c-0.442,0.441-0.739,0.983-0.836,1.527c-0.108,0.604,0.043,1.16,0.415,1.531c0.294,0.295,0.693,0.45,1.154,0.45
	c0.659,0,1.353-0.317,1.907-0.87c0.826-0.825,1.745-3.547,1.847-3.854c0.009-0.026-0.001-0.054,0.003-0.08
	c0.059-0.068,0.104-0.148,0.118-0.246c0.013-0.09,0.335-2.202,2.22-2.27c0.812-0.027,2.735-0.38,3.093-3.047
	C34.521,23.105,34.331,22.854,34.057,22.818z M26.498,32.169c-0.356,0.356-0.815,0.577-1.2,0.577c-0.132,0-0.316-0.027-0.447-0.157
	c-0.187-0.188-0.167-0.485-0.138-0.647c0.061-0.34,0.265-0.702,0.56-0.998c0.364-0.363,1.48-0.865,2.474-1.248
	C27.365,30.688,26.862,31.805,26.498,32.169z"/>
</svg>
