<?xml version="1.0" encoding="utf-8"?>
<!-- Generator: Adobe Illustrator 16.0.0, SVG Export Plug-In . SVG Version: 6.00 Build 0)  -->
<!DOCTYPE svg PUBLIC "-//W3C//DTD SVG 1.1//EN" "http://www.w3.org/Graphics/SVG/1.1/DTD/svg11.dtd">
<svg version="1.1" id="Layer_2" xmlns="http://www.w3.org/2000/svg" xmlns:xlink="http://www.w3.org/1999/xlink" x="0px" y="0px"
	 width="96px" height="96px" viewBox="0 0 96 96" enable-background="new 0 0 96 96" xml:space="preserve">
<g>
	<path d="M52.789,7.531C52.447,38.219,30.217,63.723,1.007,69.177v19.155c39.686-5.659,70.348-39.66,70.702-80.8H52.789z"/>
	<path d="M33.493,40.437C41.031,31.004,44.72,19.363,44.022,7.4H25.031c0.724,7.67-1.496,15.188-6.318,21.222
		C14.51,33.88,8.286,37.42,1.822,38.903L1.807,58.238C14.349,56.63,25.578,50.339,33.493,40.437z"/>
	<path d="M32.761,43.435c0.81,1.64,1.686,3.238,2.599,4.813c5.026-5.634,9.032-12.167,11.742-19.303
		c-1.146-3.11-2.06-6.33-2.708-9.646c-1.458,8.123-4.917,15.82-10.167,22.39C33.75,42.284,33.26,42.865,32.761,43.435z"/>
	<path d="M60.727,50.789c-3.343,5.428-7.292,10.457-11.748,14.999C61.227,77.812,77.196,86.062,94.993,88.6V69.444
		C81.631,66.95,69.74,60.252,60.727,50.789z"/>
	<path d="M94.588,58.506l-0.016-19.335c-6.464-1.483-12.688-5.023-16.892-10.281c-2.477-3.098-4.254-6.593-5.312-10.295
		c-1.211,8.604-3.759,16.841-7.433,24.478C72.688,51.604,83.081,57.031,94.588,58.506z"/>
</g>
</svg>
