<?xml version="1.0" encoding="utf-8"?>
<!-- Generator: Adobe Illustrator 16.0.4, SVG Export Plug-In . SVG Version: 6.00 Build 0)  -->
<!DOCTYPE svg PUBLIC "-//W3C//DTD SVG 1.1//EN" "http://www.w3.org/Graphics/SVG/1.1/DTD/svg11.dtd">
<svg version="1.1" id="Layer_1" xmlns="http://www.w3.org/2000/svg" xmlns:xlink="http://www.w3.org/1999/xlink" x="0px" y="0px"
	 width="226.77px" height="155.91px" viewBox="0 0 226.77 155.91" enable-background="new 0 0 226.77 155.91" xml:space="preserve">
<g>
	<path d="M113.743,119.883c22.469,0,46.423-4.896,46.423-16.722c0-0.633,0-2.394,0-2.421V55.582c0-0.11,0-1.843,0-2.53
		c0-11.826-23.954-17.024-46.423-17.024c-32.535,0.028-47.139,8.911-47.139,17.217c0,0.66,0.028,2.228,0.028,2.337v43.536
		c0,0.027-0.028,2.695-0.028,3.933C66.604,115.674,94.491,119.883,113.743,119.883z M74.689,63.448
		c7.563,4.07,20.379,7.013,39.053,7.013c14.329,0,29.373-2.2,38.365-6.848v28.712c-9.02-4.647-24.036-6.849-38.365-6.849
		c-12.541,0-29.042,1.953-39.026,6.793C74.689,92.242,74.689,63.448,74.689,63.448z M113.743,111.989
		c-26.237,0-39.988-6.931-39.988-9.323s13.751-9.323,39.988-9.323c25.165,0,38.75,6.628,38.75,9.323
		S138.907,111.989,113.743,111.989z M113.743,43.921c25.165,0,38.75,6.628,38.75,9.323c0,2.695-13.586,9.323-38.75,9.323
		c-25.88,0-39.466-6.931-39.466-9.323C74.277,50.852,87.835,43.921,113.743,43.921z"/>
</g>
</svg>
