<?xml version="1.0" encoding="utf-8"?>
<!-- Generator: Adobe Illustrator 16.0.4, SVG Export Plug-In . SVG Version: 6.00 Build 0)  -->
<!DOCTYPE svg PUBLIC "-//W3C//DTD SVG 1.1//EN" "http://www.w3.org/Graphics/SVG/1.1/DTD/svg11.dtd">
<svg version="1.1" id="Layer_1" xmlns="http://www.w3.org/2000/svg" xmlns:xlink="http://www.w3.org/1999/xlink" x="0px" y="0px"
	 width="226.77px" height="155.91px" viewBox="0 0 226.77 155.91" enable-background="new 0 0 226.77 155.91" xml:space="preserve">
<g>
	<path d="M115.219,81.345l-3.108-3.108l8.312,18.534l17.148-17.147l-31.104-13.969l2.592,5.781l8.034,8.033
		c0.52,0.52,0.52,1.357,0,1.876C116.576,81.861,115.734,81.861,115.219,81.345z"/>
	<polygon points="118.032,42.896 119.455,44.322 141.015,54.624 123.657,37.269 	"/>
	<path d="M139.602,41.958l-10.314-10.314l-3.752,3.752l17.818,17.817c0.519,0.519,0.519,1.357,0,1.876
		c-0.19,0.19-0.424,0.285-0.668,0.336l12.914,6.173l20.575-20.575c2.07-2.07,2.07-5.43,0-7.503l-20.632-20.631
		c-2.07-2.071-5.43-2.071-7.503,0l-9.379,9.379l17.817,17.818c0.52,0.519,0.52,1.356,0,1.875c-0.519,0.519-1.356,0.519-1.875,0
		l-17.818-17.817l-5.627,5.627l10.314,10.314c0.519,0.519,0.519,1.356,0,1.875C140.959,42.475,140.118,42.475,139.602,41.958z"/>
	<path d="M82.395,78.531l-3.751,3.752l10.314,10.314c0.519,0.519,0.519,1.356,0,1.875c-0.519,0.52-1.357,0.52-1.876,0L76.767,84.158
		l-5.627,5.628l17.818,17.817c0.519,0.52,0.519,1.357,0,1.876s-1.357,0.519-1.876,0L69.264,91.662l-3.751,3.752l10.314,10.314
		c0.519,0.518,0.519,1.356,0,1.875c-0.519,0.52-1.357,0.52-1.876,0L63.637,97.289l-5.627,5.627l17.818,17.818
		c0.519,0.519,0.519,1.356,0,1.875c-0.519,0.52-1.357,0.52-1.876,0L56.138,104.79l-11.252,11.252c-2.071,2.071-2.071,5.431,0,7.503
		l20.631,20.632c2.07,2.071,5.43,2.071,7.503,0l29.226-29.231L86.882,83.019L82.395,78.531z"/>
	<path d="M173.565,83.438l-0.76-2.277c-1.547-6.192-5.708-8.667-5.708-8.667l-15.152-7.243l-23.211-11.094l-6.119-2.926
		l-8.741-4.178l-8.724-4.17c0.848-1.659-0.602-3.379-0.602-3.379L82.434,17.388l-7.077,7.077c0,0-8.958-8.958-12.273-12.273
		c-1.598-1.598-2.996-2.012-4.012-2.012c-1.094,0-1.749,0.478-1.749,0.478l-2.312,2.307l-1.769,1.771l-1.771,1.769
		c0,0-2.321,2.987,0.997,6.302c3.318,3.318,12.273,12.273,12.273,12.273l-7.077,7.079l22.115,22.115c0,0,1.077,0.638,2.307,0.638
		c0.441,0,0.904-0.083,1.342-0.307l4.19,8.707l6.207,12.902l3.479,7.229l8.592,17.854l7.277,15.118c0,0,2.542,4.091,8.736,5.64
		l2.675,0.882c0,0,2.47,2.624,5.518,5.861c1.713,1.817,2.894,2.758,3.362,2.758c0.365,0,0.295-0.573-0.3-1.747l-2.456-4.85
		l1.76,0.579l-15.732-35.079l-14.308-31.903l-3.05-6.801l-0.063-0.142l-0.295-0.658l1.99-1.99l0.76-0.76l0.658,0.294l2.173,0.977
		l6.809,3.057l29.844,13.403l35.065,15.749l-0.862-2.582l5.829,2.812c0,0,3.152-1.493,1.825-3.705L173.565,83.438z"/>
</g>
</svg>
