<?xml version="1.0" encoding="utf-8"?>
<!-- Generator: Adobe Illustrator 16.0.4, SVG Export Plug-In . SVG Version: 6.00 Build 0)  -->
<!DOCTYPE svg PUBLIC "-//W3C//DTD SVG 1.1//EN" "http://www.w3.org/Graphics/SVG/1.1/DTD/svg11.dtd">
<svg version="1.1" id="Layer_1" xmlns="http://www.w3.org/2000/svg" xmlns:xlink="http://www.w3.org/1999/xlink" x="0px" y="0px"
	 width="50px" height="50px" viewBox="0 0 50 50" enable-background="new 0 0 50 50" xml:space="preserve">
<path d="M38.564,25.709l2.704-0.707l-2.704-0.71c-0.359-6.934-5.923-12.498-12.857-12.858l-0.708-2.702l-0.708,2.702
	c-6.934,0.36-12.496,5.925-12.856,12.859l-2.703,0.709l2.703,0.707c0.359,6.934,5.922,12.497,12.856,12.855l0.708,2.703l0.708-2.703
	C32.642,38.206,38.205,32.643,38.564,25.709z M24.998,36.482c-6.328,0-11.481-5.151-11.481-11.48
	c0-6.332,5.153-11.484,11.481-11.484c6.333,0,11.484,5.152,11.484,11.484C36.482,31.331,31.33,36.482,24.998,36.482z M27.086,25.01
	l-2.001-9.879l-2.174,9.841h-0.004v0.012v0.007h0.004l2.001,9.88l2.174-9.842h0.004l-0.002-0.012l0.002-0.007H27.086z
	 M23.721,24.979l1.353-6.109l1.237,6.132L23.721,24.979z M18.465,23.604h0.297l-0.776,2.791h-0.277H17.43l-0.446-2.196l-0.441,2.196
	h-0.273h-0.279l-0.775-2.791h0.301h0.306l0.465,2.044l0.402-2.044h0.308h0.312l0.402,2.024l0.465-2.024H18.465z M34.785,25.9v0.248
	v0.246h-2.119v-2.791h2.051v0.247v0.247H33.25v0.596h1.365v0.236v0.244H33.25V25.9H34.785z"/>
</svg>
