<?xml version="1.0" encoding="utf-8"?>
<!-- Generator: Adobe Illustrator 16.0.4, SVG Export Plug-In . SVG Version: 6.00 Build 0)  -->
<!DOCTYPE svg PUBLIC "-//W3C//DTD SVG 1.1//EN" "http://www.w3.org/Graphics/SVG/1.1/DTD/svg11.dtd">
<svg version="1.1" id="Layer_1" xmlns="http://www.w3.org/2000/svg" xmlns:xlink="http://www.w3.org/1999/xlink" x="0px" y="0px"
	 width="226.77px" height="155.91px" viewBox="0 0 226.77 155.91" enable-background="new 0 0 226.77 155.91" xml:space="preserve">
<g>
	<path d="M137.995,107.672l-14.109-39.906c0.715-0.578,1.018-1.513,1.045-2.118V46.066c0-0.44-0.357-0.77-0.77-0.77h-5.473V35.203
		c0-3.576-2.421-3.988-2.668-4.016h-5.28c-1.045,0.138-3.025,1.128-3.025,4.016c0,2.172,0,7.453,0,10.093h-5.5
		c-0.44,0-0.77,0.357-0.77,0.77v0.77v18.812c0,0.055,0,0.138,0.028,0.192c0.027,0.055,0.33,1.238,1.265,1.953l-13.999,39.961
		c-0.027,0.137-0.743,3.301,1.43,6.902l1.897,3.796L91.351,122c-0.357,1.843-0.303,2.09-0.055,2.42
		c0.138,0.193,0.385,0.303,0.633,0.303c0.688,0,0.908-0.66,1.238-1.732l0.55-1.705c0.11,0.027,0.192,0.055,0.33,0.055
		c0.302-0.027,0.578-0.22,0.688-0.495l18.014-47.386h1.21h0.137l17.987,47.332c0.109,0.302,0.385,0.495,0.688,0.495
		c0.247,0.027,0.522-0.11,0.66-0.303l0.742,2.09c0.082,0.221,0.247,0.413,0.468,0.468c0.055,0.028,0.632,0.22,1.292,0.22l0,0
		c1.128,0,1.926-0.577,2.173-1.595c0.027-0.138,0.027-0.303-0.027-0.44l-2.008-6.051l0.495-0.989
		C138.819,111.055,138.05,107.891,137.995,107.672z"/>
</g>
</svg>
