<?xml version="1.0" encoding="utf-8"?>
<!-- Generator: Adobe Illustrator 17.0.0, SVG Export Plug-In . SVG Version: 6.00 Build 0)  -->
<!DOCTYPE svg PUBLIC "-//W3C//DTD SVG 1.1//EN" "http://www.w3.org/Graphics/SVG/1.1/DTD/svg11.dtd">
<svg version="1.1" id="Capa_1" xmlns="http://www.w3.org/2000/svg" xmlns:xlink="http://www.w3.org/1999/xlink" x="0px" y="0px"
	 width="9.951px" height="18.211px" viewBox="0 0 9.951 18.211" enable-background="new 0 0 9.951 18.211" xml:space="preserve">
<path d="M9.951,11.806c0,1.986-1.383,3.682-3.947,4.106v2.299H3.793V16.09C2.297,16.023,0.848,15.599,0,15.13l0.668-2.611
	c0.937,0.513,2.254,0.983,3.705,0.983c1.295,0,2.164-0.513,2.164-1.383c0-0.848-0.715-1.384-2.389-1.943
	C1.762,9.372,0.134,8.258,0.134,6.093c0-1.986,1.381-3.526,3.768-3.973V0h2.189v1.963c1.473,0.046,2.477,0.379,3.258,0.738
	l-0.67,2.521C8.12,4.953,7.071,4.439,5.465,4.439c-1.449,0-1.919,0.648-1.919,1.273c0,0.713,0.782,1.206,2.701,1.896
	C8.902,8.546,9.95,9.773,9.951,11.806z"/>
</svg>
