<?xml version="1.0" encoding="utf-8"?>
<!-- Generator: Adobe Illustrator 16.0.4, SVG Export Plug-In . SVG Version: 6.00 Build 0)  -->
<!DOCTYPE svg PUBLIC "-//W3C//DTD SVG 1.1//EN" "http://www.w3.org/Graphics/SVG/1.1/DTD/svg11.dtd">
<svg version="1.1" id="Layer_1" xmlns="http://www.w3.org/2000/svg" xmlns:xlink="http://www.w3.org/1999/xlink" x="0px" y="0px"
	 width="50px" height="50px" viewBox="0 0 50 50" enable-background="new 0 0 50 50" xml:space="preserve">
<path d="M30.031,25c1.547-1.443,2.422-2.923,1.825-3.959c-0.217-0.375-0.726-0.824-1.907-0.824c-0.691,0-1.523,0.155-2.432,0.43
	c-0.477-2.064-1.321-3.564-2.517-3.564s-2.042,1.5-2.518,3.564c-0.908-0.275-1.742-0.431-2.433-0.431
	c-1.183,0-1.689,0.449-1.907,0.825c-0.598,1.037,0.279,2.518,1.829,3.962c-0.275,0.258-0.537,0.517-0.764,0.773
	c-1.453,1.64-1.381,2.636-1.065,3.183c0.217,0.375,0.724,0.824,1.907,0.824c0.691,0,1.525-0.156,2.433-0.431
	c0.476,2.063,1.321,3.563,2.518,3.563s2.042-1.5,2.518-3.563c0.907,0.274,1.741,0.431,2.433,0.431c1.182,0,1.689-0.449,1.906-0.826
	C32.455,27.924,31.58,26.443,30.031,25z M29.949,21.217c0.543,0,0.922,0.118,1.043,0.324c0.25,0.437-0.344,1.526-1.721,2.797
	c-0.425-0.348-0.883-0.688-1.363-1.017c-0.043-0.579-0.109-1.145-0.197-1.687C28.561,21.37,29.334,21.217,29.949,21.217z
	 M25.985,26.709c-0.329,0.189-0.658,0.365-0.986,0.533c-0.328-0.168-0.657-0.344-0.986-0.533c-0.341-0.197-0.648-0.396-0.956-0.597
	c-0.018-0.358-0.031-0.726-0.031-1.111c0-0.387,0.013-0.756,0.031-1.116c0.311-0.201,0.624-0.402,0.954-0.593
	c0.329-0.19,0.658-0.365,0.986-0.532c0.329,0.167,0.658,0.343,0.987,0.533c0.342,0.197,0.648,0.396,0.955,0.596
	c0.02,0.359,0.031,0.727,0.031,1.112s-0.014,0.752-0.031,1.111C26.635,26.312,26.328,26.512,25.985,26.709z M26.84,27.361
	c-0.026,0.229-0.057,0.452-0.09,0.666c-0.205-0.08-0.412-0.166-0.623-0.257c0.119-0.065,0.238-0.128,0.357-0.196
	C26.604,27.504,26.723,27.433,26.84,27.361z M23.873,27.771c-0.21,0.091-0.417,0.178-0.623,0.257
	c-0.033-0.214-0.063-0.437-0.089-0.666c0.118,0.071,0.234,0.144,0.354,0.212C23.633,27.644,23.753,27.705,23.873,27.771z
	 M22.035,25.4c-0.18-0.134-0.362-0.267-0.527-0.399c0.17-0.136,0.346-0.27,0.527-0.404c-0.002,0.135-0.006,0.269-0.006,0.403
	C22.027,25.133,22.032,25.268,22.035,25.4z M23.16,22.646c0.026-0.232,0.057-0.457,0.09-0.673c0.205,0.08,0.412,0.165,0.622,0.256
	c-0.12,0.066-0.239,0.127-0.358,0.196C23.392,22.497,23.279,22.574,23.16,22.646z M26.127,22.229
	c0.211-0.091,0.418-0.177,0.625-0.257c0.033,0.215,0.062,0.437,0.088,0.666c-0.117-0.071-0.233-0.143-0.354-0.212
	C26.367,22.356,26.248,22.295,26.127,22.229z M27.967,24.601c0.18,0.134,0.363,0.267,0.527,0.399
	c-0.166,0.132-0.348,0.266-0.527,0.4c0.002-0.133,0.006-0.266,0.006-0.399S27.969,24.733,27.967,24.601z M25,18.083
	c0.503,0,1.151,1.059,1.564,2.889c-0.509,0.191-1.031,0.416-1.565,0.672c-0.533-0.256-1.055-0.48-1.563-0.671
	C23.85,19.144,24.497,18.083,25,18.083z M19.009,21.542c0.119-0.206,0.499-0.325,1.041-0.325c0.617,0,1.39,0.152,2.24,0.418
	c-0.088,0.542-0.154,1.109-0.198,1.688c-0.486,0.333-0.935,0.674-1.356,1.021C19.354,23.071,18.757,21.979,19.009,21.542z
	 M20.05,28.783c-0.542,0-0.922-0.117-1.041-0.324c-0.153-0.265,0.003-0.953,0.947-2.019c0.229-0.257,0.488-0.519,0.771-0.778
	c0.426,0.348,0.884,0.688,1.365,1.016c0.043,0.58,0.109,1.146,0.198,1.688C21.44,28.631,20.667,28.783,20.05,28.783z M25,31.918
	c-0.504,0-1.151-1.061-1.564-2.891c0.508-0.191,1.031-0.416,1.564-0.672c0.533,0.257,1.056,0.48,1.564,0.672
	C26.151,30.857,25.504,31.918,25,31.918z M30.992,28.459c-0.119,0.205-0.5,0.324-1.041,0.324c-0.617,0-1.391-0.152-2.24-0.418
	c0.088-0.543,0.153-1.109,0.197-1.688c0.48-0.328,0.938-0.668,1.363-1.018C30.648,26.934,31.242,28.022,30.992,28.459z"/>
</svg>
