<?xml version="1.0" encoding="utf-8"?>
<!-- Generator: Adobe Illustrator 17.1.0, SVG Export Plug-In . SVG Version: 6.00 Build 0)  -->
<!DOCTYPE svg PUBLIC "-//W3C//DTD SVG 1.1//EN" "http://www.w3.org/Graphics/SVG/1.1/DTD/svg11.dtd">
<svg version="1.1" xmlns="http://www.w3.org/2000/svg" xmlns:xlink="http://www.w3.org/1999/xlink" x="0px" y="0px"
	 viewBox="0 0 64 64" enable-background="new 0 0 64 64" xml:space="preserve">
<g id="Imagenes">
</g>
<g id="Layer_2">
	<path d="M10.248,20.9c-0.95,2.294-0.704,4.236-0.306,4.635c0.142,0.142,0.419,0.33,1.188,0.33c0.575,0,1.273-0.102,2.013-0.21
		c0.891-0.13,1.899-0.277,2.92-0.277c1.297,0,2.404,0.238,3.384,0.728c2.096,1.048,3.233,3.747,3.847,6.2
		c3.983-1.25,8.243-1.305,8.31-1.305c0.072,0,4.953,0.026,9.226,1.511c0.956-2.02,2.367-4.197,4.284-5.155
		c1.934-0.967,3.92-1.102,5.672-1.222c1.534-0.104,2.859-0.195,3.506-0.841c0.981-0.982,1.188-2.184,0.613-3.572
		c-1.129-2.725-4.897-5.206-7.906-5.206c-2.883,0-6.688,3.917-7.91,5.426l-3.269,4.035l1.536-4.96
		c0.032-0.104,3.17-10.409-0.174-14.944C36.156,4.678,34.617,4,32.478,4c-2.177,0-3.743,0.687-4.789,2.099
		c-3.314,4.476-0.325,14.446-0.295,14.546l1.471,4.818l-3.2-3.892c-0.041-0.051-4.216-5.057-9.277-5.057
		C12.626,16.515,10.927,19.263,10.248,20.9z"/>
	<path d="M38.676,44.663c-0.063-0.038-3.74-2.238-6.986-2.238c-2.115,0-4.879,1.003-6.607,1.731
		c-1.913,1.778-3.119,4.307-3.119,7.118c0,5.363,4.363,9.727,9.727,9.727c5.364,0,9.728-4.364,9.728-9.727
		c0-2.494-0.951-4.764-2.5-6.488C38.781,44.72,38.69,44.67,38.676,44.663z M31.69,54.848c-1.975,0-3.576-1.601-3.576-3.576
		s1.601-3.576,3.576-3.576s3.576,1.601,3.576,3.576S33.665,54.848,31.69,54.848z"/>
	<path d="M45.018,40.328c0.294-1.317,0.06-2.428-0.716-3.395c-0.58-0.724-1.427-1.316-2.407-1.807
		c-0.293-0.147-0.596-0.285-0.91-0.413c-0.305-0.124-0.617-0.241-0.937-0.349C36.908,33.302,33.193,33,31.604,33
		c-1.849,0-5.101,0.354-7.906,1.276c-0.331,0.109-0.655,0.226-0.971,0.351c-0.325,0.129-0.639,0.266-0.941,0.413
		c-1.13,0.551-2.081,1.227-2.665,2.059c-0.762,1.086-0.862,2.36-0.307,3.894c0.599,1.653,1.423,2.491,2.45,2.491
		c0.657,0,1.189-0.323,1.194-0.326l0.09-0.052c0.068-0.034,0.616-0.308,1.452-0.668c1.845-0.796,5.094-2.014,7.688-2.014
		c3.812,0,7.825,2.409,7.996,2.512c0,0,0.162,0.086,0.425,0.193c0.429,0.174,1.131,0.402,1.872,0.402
		C42.556,43.531,44.303,43.531,45.018,40.328z"/>
</g>
</svg>
