<?xml version="1.0" encoding="utf-8"?>
<!-- Generator: Adobe Illustrator 17.0.0, SVG Export Plug-In . SVG Version: 6.00 Build 0)  -->
<!DOCTYPE svg PUBLIC "-//W3C//DTD SVG 1.1//EN" "http://www.w3.org/Graphics/SVG/1.1/DTD/svg11.dtd">
<svg version="1.1" id="Capa_1" xmlns="http://www.w3.org/2000/svg" xmlns:xlink="http://www.w3.org/1999/xlink" x="0px" y="0px"
	 width="15.017px" height="18.449px" viewBox="0 0 15.017 18.449" enable-background="new 0 0 15.017 18.449" xml:space="preserve">
<path d="M7.259,3.873c0.437-0.229,0.822-0.541,1.116-0.891C8.974,2.271,9.439,1.296,9.358,0c-0.03,0-0.062,0-0.092,0
	C8.149,0.159,7.279,0.659,6.674,1.353c-0.598,0.682-1.108,1.601-1.017,2.89C6.288,4.31,6.818,4.106,7.259,3.873z M12.557,10.125
	c-0.159-1.923,0.874-3.075,1.979-3.832c-0.649-0.928-1.583-1.6-2.962-1.794C10.808,4.392,10.095,4.5,9.492,4.693
	c-0.295,0.096-0.58,0.221-0.86,0.327C8.34,5.132,8.055,5.261,7.73,5.298C7.491,5.324,7.244,5.252,7.023,5.175
	C6.402,4.956,5.788,4.649,5.106,4.539c-1.077-0.172-2.093,0.22-2.728,0.615C0.984,6.025,0.133,7.448,0.013,9.593
	C0.014,9.604,0.01,9.611,0,9.613c0,0.253,0,0.506,0,0.759c0.213,2.938,1.302,5.068,2.728,6.807c0.478,0.58,1.032,1.138,1.906,1.271
	c0.105,0,0.212,0,0.317,0c1.188-0.147,1.897-0.901,3.331-0.738c0.566,0.064,1.053,0.324,1.537,0.513
	c0.492,0.19,1.19,0.285,1.743,0.093c0.941-0.33,1.576-1.269,2.091-2.019c0.566-0.828,1.027-1.72,1.363-2.748
	c0-0.007,0-0.015,0-0.021C13.729,12.923,12.7,11.88,12.557,10.125z"/>
</svg>
