<?xml version="1.0" encoding="utf-8"?>
<!-- Generator: Adobe Illustrator 16.0.0, SVG Export Plug-In . SVG Version: 6.00 Build 0)  -->
<!DOCTYPE svg PUBLIC "-//W3C//DTD SVG 1.1//EN" "http://www.w3.org/Graphics/SVG/1.1/DTD/svg11.dtd">
<svg version="1.1" id="Layer_1" xmlns="http://www.w3.org/2000/svg" xmlns:xlink="http://www.w3.org/1999/xlink" x="0px" y="0px"
	 width="96px" height="96px" viewBox="0 0 96 96" enable-background="new 0 0 96 96" xml:space="preserve">
<g>
	<path d="M48,26.321C32.551,17.85,8.885,25.808,8.885,50.199c0,19.05,11.672,45.218,26.074,45.218c5.349,0,9.62-1.519,13.041-4.071
		c3.42,2.553,7.692,4.071,13.039,4.071c14.402,0,26.076-26.168,26.076-45.218C87.115,25.808,63.449,17.85,48,26.321z"/>
	<path d="M47.918,24.558l4.67-1.979c0-0.075,0.06-7.507,5.2-8.707l-1.062-4.547C46.016,12.845,47.918,24.101,47.918,24.558z"/>
	<path d="M48.426,14.903C52.111,4.165,28.879,4.091,29.429,0.583C20.272,16.245,44.742,25.641,48.426,14.903z"/>
</g>
</svg>
