<?xml version="1.0" encoding="utf-8"?>
<!-- Generator: Adobe Illustrator 16.0.4, SVG Export Plug-In . SVG Version: 6.00 Build 0)  -->
<!DOCTYPE svg PUBLIC "-//W3C//DTD SVG 1.1//EN" "http://www.w3.org/Graphics/SVG/1.1/DTD/svg11.dtd">
<svg version="1.1" id="Layer_1" xmlns="http://www.w3.org/2000/svg" xmlns:xlink="http://www.w3.org/1999/xlink" x="0px" y="0px"
	 width="50px" height="50px" viewBox="0 0 50 50" enable-background="new 0 0 50 50" xml:space="preserve">
<path d="M28.881,13.925c-0.578-0.24-1.142-0.35-1.673-0.34c0.208-0.063,0.409-0.138,0.589-0.247
	c1.146-0.701,1.509-2.247,1.522-2.312c0.057-0.25-0.084-0.502-0.326-0.584c-0.021-0.008-0.528-0.178-1.167-0.178
	c-0.57,0-1.074,0.131-1.498,0.39c-0.347,0.212-0.612,0.502-0.827,0.804v-0.816c0-0.276-0.225-0.5-0.5-0.5s-0.5,0.224-0.5,0.5v3.488
	c-0.938-0.643-2.123-0.728-3.381-0.204c-2.271,0.94-3.061,2.972-2.161,5.572c0.521,1.511,1.563,3.083,2.75,4.075
	c-0.008,0.033-0.021,0.064-0.021,0.1v2.261c0,1.655,1.225,3.02,2.812,3.263v0.681c-0.294,0.176-0.5,0.48-0.5,0.848v8.133
	c0,0.553,0.446,1,1,1c0.553,0,1-0.447,1-1v-8.133c0-0.367-0.206-0.674-0.5-0.848v-0.681c1.588-0.243,2.812-1.606,2.812-3.263v-2.261
	c0-0.035-0.013-0.066-0.021-0.1c1.187-0.992,2.229-2.564,2.75-4.075C31.94,16.895,31.151,14.864,28.881,13.925z M26.851,11.507
	c0.353-0.215,0.898-0.274,1.332-0.221c-0.16,0.39-0.447,0.917-0.906,1.198c-0.352,0.215-0.897,0.274-1.332,0.221
	C26.104,12.315,26.392,11.788,26.851,11.507z M26.297,13.727c0.013,0,0.021-0.004,0.033-0.004c-0.294,0.091-0.57,0.228-0.829,0.405
	v-0.484C25.708,13.687,25.985,13.727,26.297,13.727z M22.688,25.934v-1.703c0.444,0.227,0.894,0.361,1.33,0.361
	c0.166,0,0.326-0.024,0.482-0.062v3.657C23.466,27.958,22.688,27.036,22.688,25.934z M27.313,25.934
	c0,1.104-0.777,2.024-1.812,2.254v-3.655c0.156,0.036,0.316,0.061,0.482,0.061c0.437,0,0.886-0.135,1.33-0.361V25.934z
	 M30.099,19.171c-0.871,2.522-3.22,4.877-4.529,4.341c-0.075-0.03-0.157-0.082-0.258-0.161c-0.092-0.072-0.201-0.107-0.311-0.107
	s-0.219,0.035-0.311,0.107c-0.101,0.079-0.183,0.13-0.262,0.162c-1.269,0.529-3.652-1.813-4.525-4.342
	c-0.914-2.647,0.365-3.812,1.6-4.322c1.275-0.528,2.348-0.279,3.092,0.758c0.008,0.009,0.02,0.013,0.025,0.021
	c0.033,0.04,0.072,0.072,0.115,0.101c0.02,0.012,0.033,0.025,0.053,0.035c0.064,0.03,0.136,0.051,0.213,0.051
	s0.148-0.021,0.213-0.052c0.02-0.009,0.033-0.022,0.051-0.033c0.045-0.028,0.084-0.062,0.117-0.103
	c0.008-0.009,0.02-0.012,0.025-0.021c0.742-1.038,1.816-1.285,3.091-0.757C29.731,15.359,31.011,16.523,30.099,19.171z
	 M24.776,22.576c0,0.276-0.224,0.5-0.5,0.5c-0.602,0-1.267-0.511-1.719-0.938c-0.002-0.001-0.002-0.002-0.002-0.002
	c-0.904-0.856-1.662-2.043-2.08-3.258c-0.09-0.261,0.049-0.545,0.311-0.635c0.261-0.09,0.546,0.048,0.636,0.31
	c0.362,1.051,1.043,2.119,1.822,2.857c0,0,0.001,0,0.001,0.001c0.576,0.545,0.939,0.665,1.031,0.665
	C24.554,22.076,24.776,22.3,24.776,22.576z"/>
</svg>
