<?xml version="1.0" encoding="utf-8"?>
<!-- Generator: Adobe Illustrator 16.0.4, SVG Export Plug-In . SVG Version: 6.00 Build 0)  -->
<!DOCTYPE svg PUBLIC "-//W3C//DTD SVG 1.1//EN" "http://www.w3.org/Graphics/SVG/1.1/DTD/svg11.dtd">
<svg version="1.1" id="Layer_1" xmlns="http://www.w3.org/2000/svg" xmlns:xlink="http://www.w3.org/1999/xlink" x="0px" y="0px"
	 width="50px" height="50px" viewBox="0 0 50 50" enable-background="new 0 0 50 50" xml:space="preserve">
<path d="M29.349,21.291c-1.441-0.597-2.794-0.483-3.849,0.29v-1.184c0.072,0.024,0.597,0.189,1.271,0.189
	c0.632,0,1.188-0.145,1.658-0.43c1.267-0.776,1.67-2.493,1.687-2.566c0.057-0.25-0.084-0.502-0.327-0.584
	c-0.022-0.008-0.585-0.196-1.294-0.196c-0.631,0-1.188,0.145-1.655,0.43c-0.657,0.403-1.08,1.058-1.339,1.607v-1.316
	c0-0.276-0.224-0.5-0.5-0.5s-0.5,0.224-0.5,0.5v4.051c-1.056-0.775-2.408-0.889-3.85-0.291c-2.525,1.045-3.399,3.305-2.399,6.202
	c0.948,2.752,3.441,5.698,5.642,5.698c0.306,0,0.599-0.058,0.869-0.169c0.079-0.031,0.158-0.07,0.238-0.118
	c0.079,0.046,0.157,0.084,0.236,0.117c0.271,0.112,0.565,0.17,0.872,0.17c2.199,0,4.692-2.946,5.642-5.698
	C32.748,24.594,31.873,22.334,29.349,21.291z M27.36,18.091c0.307-0.188,0.688-0.283,1.133-0.283c0.178,0,0.345,0.016,0.488,0.037
	c-0.178,0.453-0.519,1.115-1.076,1.457c-0.309,0.188-0.691,0.283-1.136,0.283c-0.179,0-0.345-0.016-0.487-0.037
	C26.461,19.096,26.803,18.434,27.36,18.091z M30.804,27.164c-1.01,2.926-3.672,5.555-5.188,4.932
	c-0.091-0.037-0.188-0.098-0.305-0.189c-0.091-0.072-0.201-0.109-0.311-0.109s-0.22,0.037-0.311,0.109
	c-0.114,0.09-0.214,0.152-0.308,0.19c-1.496,0.616-4.175-2.003-5.185-4.933c-1.046-3.03,0.421-4.365,1.837-4.951
	c1.464-0.607,2.703-0.319,3.561,0.875c0.007,0.009,0.018,0.013,0.025,0.022c0.034,0.041,0.073,0.072,0.117,0.101
	c0.018,0.011,0.032,0.025,0.051,0.035c0.065,0.031,0.136,0.051,0.213,0.051l0,0c0.001,0,0.001,0,0.002,0
	c0.076,0,0.146-0.021,0.21-0.051c0.019-0.009,0.034-0.023,0.052-0.035c0.044-0.028,0.083-0.061,0.117-0.101
	c0.007-0.008,0.018-0.012,0.025-0.021c0.853-1.194,2.09-1.484,3.559-0.875C30.38,22.799,31.85,24.134,30.804,27.164z M24.685,30.98
	c0,0.275-0.224,0.5-0.5,0.5c-1.181,0-3.329-2.091-4.224-4.688c-0.09-0.262,0.049-0.547,0.31-0.637s0.546,0.049,0.636,0.311
	c0.832,2.414,2.732,4.014,3.278,4.014C24.46,30.48,24.685,30.705,24.685,30.98z"/>
</svg>
