<?xml version="1.0" encoding="utf-8"?>
<!-- Generator: Adobe Illustrator 16.0.4, SVG Export Plug-In . SVG Version: 6.00 Build 0)  -->
<!DOCTYPE svg PUBLIC "-//W3C//DTD SVG 1.1//EN" "http://www.w3.org/Graphics/SVG/1.1/DTD/svg11.dtd">
<svg version="1.1" id="Layer_1" xmlns="http://www.w3.org/2000/svg" xmlns:xlink="http://www.w3.org/1999/xlink" x="0px" y="0px"
	 width="50px" height="50px" viewBox="0 0 50 50" enable-background="new 0 0 50 50" xml:space="preserve">
<path d="M40,26.788h-1.075v-9.576H19.99l-3.249,5.605h-5.929v3.971H10v2.242h0.812v1.401h3.971c0.263,1.342,1.445,2.356,2.863,2.356
	s2.599-1.016,2.86-2.356h8.634c0.264,1.342,1.444,2.356,2.861,2.356c1.419,0,2.602-1.016,2.863-2.356h4.059V29.03h1.075L40,26.788
	L40,26.788z M17.646,31.669c-0.992,0-1.799-0.807-1.799-1.797c0-0.991,0.807-1.799,1.799-1.799c0.99,0,1.797,0.808,1.797,1.799
	C19.443,30.862,18.639,31.669,17.646,31.669z M32.003,31.669c-0.989,0-1.797-0.807-1.797-1.797c0-0.991,0.808-1.799,1.797-1.799
	c0.993,0,1.8,0.808,1.8,1.799C33.803,30.862,32.996,31.669,32.003,31.669z M37.805,29.312h-2.938
	c-0.264-1.342-1.444-2.357-2.863-2.357c-1.417,0-2.6,1.017-2.861,2.357h-8.634c-0.263-1.342-1.442-2.357-2.86-2.357
	s-2.602,1.017-2.863,2.357h-2.852v-5.372h5.455l3.248-5.606h17.17v10.979H37.805z M18.752,23.821l2.531-4.367h3.761v4.367H18.752z"
	/>
</svg>
