<?xml version="1.0" encoding="utf-8"?>
<!-- Generator: Adobe Illustrator 16.0.4, SVG Export Plug-In . SVG Version: 6.00 Build 0)  -->
<!DOCTYPE svg PUBLIC "-//W3C//DTD SVG 1.1//EN" "http://www.w3.org/Graphics/SVG/1.1/DTD/svg11.dtd">
<svg version="1.1" id="Layer_1" xmlns="http://www.w3.org/2000/svg" xmlns:xlink="http://www.w3.org/1999/xlink" x="0px" y="0px"
	 width="50px" height="50px" viewBox="0 0 50 50" enable-background="new 0 0 50 50" xml:space="preserve">
<path d="M16.4,24.939h2.729v2.73c0,0.276,0.224,0.5,0.5,0.5h4.039c0.276,0,0.5-0.224,0.5-0.5v-2.73h2.729c0.276,0,0.5-0.224,0.5-0.5
	V20.4c0-0.276-0.224-0.5-0.5-0.5h-2.729v-2.73c0-0.276-0.224-0.5-0.5-0.5H19.63c-0.276,0-0.5,0.224-0.5,0.5v2.73H16.4
	c-0.276,0-0.5,0.224-0.5,0.5v4.039C15.9,24.715,16.124,24.939,16.4,24.939z M16.9,20.9h2.729c0.276,0,0.5-0.224,0.5-0.5v-2.73h3.039
	v2.73c0,0.276,0.224,0.5,0.5,0.5h2.729v3.039h-2.729c-0.276,0-0.5,0.224-0.5,0.5v2.73H20.13v-2.73c0-0.276-0.224-0.5-0.5-0.5H16.9
	V20.9z M34.25,22.785c0,0.276-0.225,0.5-0.5,0.5h-3.5l-2.837,6.484c-0.079,0.182-0.261,0.299-0.458,0.299H16.25
	c-0.275,0-0.5-0.223-0.5-0.5c0-0.275,0.225-0.5,0.5-0.5h10.378l2.837-6.483c0.079-0.182,0.26-0.3,0.458-0.3h3.827
	C34.025,22.285,34.25,22.509,34.25,22.785z M20.014,31.898c0,0.791-0.641,1.432-1.431,1.432c-0.791,0-1.431-0.641-1.431-1.432
	c0-0.789,0.64-1.43,1.431-1.43C19.373,30.469,20.014,31.109,20.014,31.898z M25.102,31.898c0,0.791-0.642,1.432-1.432,1.432
	s-1.432-0.641-1.432-1.432c0-0.789,0.642-1.43,1.432-1.43S25.102,31.109,25.102,31.898z"/>
</svg>
