<?xml version="1.0" encoding="utf-8"?>
<!-- Generator: Adobe Illustrator 16.0.0, SVG Export Plug-In . SVG Version: 6.00 Build 0)  -->
<!DOCTYPE svg PUBLIC "-//W3C//DTD SVG 1.1//EN" "http://www.w3.org/Graphics/SVG/1.1/DTD/svg11.dtd">
<svg version="1.1" id="Layer_1" xmlns="http://www.w3.org/2000/svg" xmlns:xlink="http://www.w3.org/1999/xlink" x="0px" y="0px"
	 width="96px" height="96px" viewBox="0 0 96 96" enable-background="new 0 0 96 96" xml:space="preserve">
<g>
	<path d="M2.702,45.03c-1.171,3.039-1.812,6.255-1.812,9.586c0,12.626,9.015,23.621,22.353,29.411v7.912h0.276h42.488h0.278v-7.913
		c13.339-5.79,22.353-16.785,22.353-29.41c0-3.331-0.641-6.547-1.813-9.586H2.702z"/>
	<path d="M94.146,16.887L82.284,5.023c-1.438-1.438-3.963-1.244-5.638,0.433l-6.081,11.247L43.248,40.695h28.687L82.4,28.533
		l11.314-6.01C95.393,20.85,95.582,18.325,94.146,16.887z"/>
</g>
</svg>
