<?xml version="1.0" encoding="utf-8"?>
<!-- Generator: Adobe Illustrator 16.0.0, SVG Export Plug-In . SVG Version: 6.00 Build 0)  -->
<!DOCTYPE svg PUBLIC "-//W3C//DTD SVG 1.1//EN" "http://www.w3.org/Graphics/SVG/1.1/DTD/svg11.dtd">
<svg version="1.1" id="Layer_1" xmlns="http://www.w3.org/2000/svg" xmlns:xlink="http://www.w3.org/1999/xlink" x="0px" y="0px"
	 width="96px" height="96px" viewBox="0 0 96 96" enable-background="new 0 0 96 96" xml:space="preserve">
<g>
	<path d="M11.502,1.5v93h72.996v-93H11.502z M77.682,87.685H18.317V8.315h59.364V87.685z"/>
	<path d="M48,47.049c9.827,0,17.793-7.965,17.793-17.791c0-9.826-7.966-17.792-17.793-17.792s-17.793,7.965-17.793,17.792
		C30.207,39.083,38.173,47.049,48,47.049z M34.567,25.423h9.597v-9.598h7.672v9.598h9.597v7.668h-9.597v9.598h-7.672v-9.598h-9.597
		V25.423z"/>
	<rect x="25.282" y="52.26" width="45.436" height="6.248"/>
	<rect x="25.282" y="68.73" width="45.436" height="6.247"/>
</g>
</svg>
