<svg width="24.703" xmlns="http://www.w3.org/2000/svg" height="20.025" viewBox="0 0 24.703 20.025" xmlns:xlink="http://www.w3.org/1999/xlink" enable-background="new 0 0 24.703 20.025">
<path d="m18.868,0c-3.222,0-5.831,2.612-5.831,5.831 0,3.222 2.609,5.834 5.831,5.834 .185,0 .366-.01 .548-.027-.121,.687-.236,1.316-.324,1.783-.027,.146-.285,.412-.436,.407-2.441-.083-10.607-.191-10.607-.191l-2.701-7.807-.154-.526c-.027-.072-.052-.138-.068-.177-.178-.469-.48-.773-.732-.952-.256-.181-.462-.248-.49-.254l-.01-.004-1.868-.466c-.125-.257-.519-.448-.99-.448-.571,0-1.036,.279-1.036,.619 0,.341 .465,.619 1.036,.619 .187,0 .359-.031 .511-.083l2.056,.514c.032,.013 .153,.061 .288,.163 .151,.118 .32,.294 .428,.574 .143,.372 .904,2.479 1.625,4.479 .363,1.004 .714,1.981 .976,2.709 .229,.643 .392,1.091 .427,1.186 .006,.034 .025,.129 .023,.239 .002,.118-.02,.249-.071,.352-.054,.105-.124,.188-.292,.264-.521,.23-.826,.739-.83,1.266-.003,.333 .135,.686 .424,.933 .291,.249 .703,.381 1.209,.38 .137,0 .329,.001 .561,.001l.689,.001c-.584,.185-1.008,.723-1.008,1.367 0,.793 .644,1.439 1.439,1.439s1.439-.646 1.439-1.439c0-.643-.424-1.18-1.004-1.365h.686c.967,.003 2.061,.005 3.117,.007 .74,.002 1.461,.003 2.108,.004l.638,.001c-.557,.198-.96,.725-.96,1.353 0,.793 .646,1.439 1.44,1.439 .796,0 1.439-.646 1.439-1.439 0-.625-.398-1.149-.953-1.35l.632,.001c.242,0 .382,0 .382,0 .047,0 .077,0 .077,0h.001c.217,0 .391-.175 .391-.392 0-.215-.172-.392-.389-.392 0,0-9.055-.021-10.646-.021-.379,0-.588-.096-.699-.191-.107-.096-.148-.205-.152-.339-.004-.215 .146-.462 .355-.545 .335-.141 .565-.386 .686-.636 .06-.122 .096-.24 .117-.355 .074,.017 .146,.029 .225,.031l10.254,.209h.02c.004,0 .009-.001 .014-.001l.045,.001h.02c.229,0 .438-.082 .604-.215 .165-.133 .293-.322 .333-.557l.388-2.304c2.63-.563 4.604-2.9 4.604-5.701-.004-3.217-2.615-5.829-5.835-5.829zm3.951,7.027h-2.759v2.757h-2.386v-2.757h-2.758v-2.385h2.758v-2.759h2.386v2.759h2.759v2.385z"/>
</svg>
