<?xml version="1.0" encoding="utf-8"?>
<!-- Generator: Adobe Illustrator 16.0.4, SVG Export Plug-In . SVG Version: 6.00 Build 0)  -->
<!DOCTYPE svg PUBLIC "-//W3C//DTD SVG 1.1//EN" "http://www.w3.org/Graphics/SVG/1.1/DTD/svg11.dtd">
<svg version="1.1" id="Layer_1" xmlns="http://www.w3.org/2000/svg" xmlns:xlink="http://www.w3.org/1999/xlink" x="0px" y="0px"
	 width="50px" height="50px" viewBox="0 0 50 50" enable-background="new 0 0 50 50" xml:space="preserve">
<path d="M26.033,28.204c-0.276,0-0.5-0.224-0.5-0.5v-0.932h-0.874c-0.276,0-0.5-0.225-0.5-0.5c0-0.276,0.224-0.5,0.5-0.5h0.874
	v-0.815c0-0.276,0.224-0.5,0.5-0.5s0.5,0.224,0.5,0.5v0.815h0.875c0.276,0,0.5,0.224,0.5,0.5c0,0.275-0.224,0.5-0.5,0.5h-0.875
	v0.932C26.533,27.98,26.311,28.204,26.033,28.204z M21.527,30.441l-0.401-0.847c-0.842,0.71-1.895,1.152-3.049,1.152
	c-0.002,0-0.054,0-0.056,0c-2.707-0.031-4.883-2.373-4.851-5.22c0.033-2.694,4.418-9.27,4.605-9.547
	c0.094-0.14,0.271-0.209,0.421-0.222c0.169,0.002,0.325,0.089,0.416,0.231c0.116,0.183,1.916,3.025,3.171,5.744h5.225l2.56-3.137
	c-0.321-0.813-0.211-1.747,0.31-2.46c0.404-0.557,1.002-0.924,1.684-1.031c0.679-0.105,1.361,0.057,1.921,0.461
	c1.149,0.838,1.405,2.454,0.567,3.604c-0.519,0.715-1.363,1.116-2.244,1.053l-0.98,1.51h2.543c0.171,0,0.331,0.088,0.423,0.233
	c0.091,0.145,0.104,0.327,0.029,0.481l-3.797,7.993c-0.083,0.174-0.259,0.286-0.452,0.286h-7.593
	C21.786,30.728,21.609,30.615,21.527,30.441z M28.299,21.734h1.334l1.505-2.317c0.111-0.171,0.316-0.259,0.517-0.218
	c0.605,0.121,1.228-0.122,1.587-0.616c0.512-0.704,0.356-1.693-0.348-2.206c-0.342-0.248-0.76-0.349-1.178-0.283
	c-0.417,0.066-0.782,0.29-1.029,0.632c-0.36,0.494-0.398,1.161-0.097,1.7c0.102,0.179,0.081,0.401-0.049,0.561L28.299,21.734z
	 M22.221,22.734c0.388,0.945,0.666,1.823,0.742,2.521c0.426-1.296,1.634-2.241,3.071-2.241c1.79,0,3.246,1.456,3.246,3.246
	c0,1.79-1.456,3.246-3.246,3.246c-1.605,0-2.933-1.173-3.191-2.706c-0.177,0.758-0.52,1.438-0.976,2.025l0.428,0.902h6.961
	l3.322-6.994H22.221z M26.033,28.505c1.238,0,2.246-1.008,2.246-2.246c0-1.238-1.008-2.246-2.246-2.246s-2.246,1.007-2.246,2.246
	C23.787,27.498,24.795,28.505,26.033,28.505z M17.533,29.688l0.012-0.962l-1.948-1.697c-0.208-0.181-0.23-0.497-0.048-0.706
	c0.182-0.209,0.499-0.229,0.706-0.048l1.306,1.138l0.016-1.292l-1.947-1.697c-0.208-0.182-0.23-0.498-0.048-0.706
	c0.183-0.208,0.499-0.229,0.706-0.048l1.305,1.138l0.023-2.002c0.003-0.276,0.182-0.492,0.506-0.494
	c0.276,0.003,0.498,0.23,0.494,0.506l-0.023,1.931l1.342-1.045c0.217-0.17,0.531-0.13,0.702,0.087
	c0.169,0.218,0.13,0.532-0.087,0.702l-1.971,1.535l-0.016,1.325l1.342-1.045c0.217-0.169,0.531-0.13,0.702,0.087
	c0.169,0.218,0.13,0.531-0.087,0.702l-1.972,1.535l-0.013,1.066c1.919-0.244,3.436-1.964,3.459-4.068
	c0.021-1.789-2.453-6.217-3.812-8.443c-1.411,2.193-3.988,6.562-4.01,8.352C14.146,27.652,15.618,29.4,17.533,29.688z M36.33,25.898
	h-3.095c-0.199,0-0.378,0.118-0.458,0.299l-2.271,5.186h-8.329c-0.276,0-0.5,0.225-0.5,0.5c0,0.276,0.224,0.5,0.5,0.5h8.656
	c0.199,0,0.378-0.117,0.458-0.299l2.271-5.186h2.768c0.276,0,0.5-0.225,0.5-0.5C36.83,26.122,36.606,25.898,36.33,25.898z
	 M24.065,32.612c-0.64,0-1.157,0.518-1.157,1.157c0,0.639,0.518,1.156,1.157,1.156s1.156-0.518,1.156-1.156
	C25.222,33.13,24.704,32.612,24.065,32.612z M28.18,32.612c-0.64,0-1.157,0.518-1.157,1.157c0,0.639,0.519,1.156,1.157,1.156
	c0.638,0,1.156-0.518,1.156-1.156C29.336,33.13,28.817,32.612,28.18,32.612z"/>
</svg>
