<?xml version="1.0" encoding="utf-8"?>
<!-- Generator: Adobe Illustrator 16.0.4, SVG Export Plug-In . SVG Version: 6.00 Build 0)  -->
<!DOCTYPE svg PUBLIC "-//W3C//DTD SVG 1.1//EN" "http://www.w3.org/Graphics/SVG/1.1/DTD/svg11.dtd">
<svg version="1.1" id="Layer_1" xmlns="http://www.w3.org/2000/svg" xmlns:xlink="http://www.w3.org/1999/xlink" x="0px" y="0px"
	 width="50px" height="50px" viewBox="0 0 50 50" enable-background="new 0 0 50 50" xml:space="preserve">
<path d="M21.708,30.625h4.039c0.275,0,0.5-0.225,0.5-0.5v-2.73h2.73c0.275,0,0.5-0.224,0.5-0.5v-4.039c0-0.275-0.225-0.5-0.5-0.5
	h-2.73v-2.729c0-0.276-0.225-0.5-0.5-0.5h-4.039c-0.275,0-0.5,0.224-0.5,0.5v2.729h-2.73c-0.275,0-0.5,0.225-0.5,0.5v4.039
	c0,0.276,0.225,0.5,0.5,0.5h2.73v2.73C21.208,30.4,21.433,30.625,21.708,30.625z M18.978,26.395v-3.039h2.73
	c0.275,0,0.5-0.224,0.5-0.5v-2.729h3.039v2.729c0,0.276,0.225,0.5,0.5,0.5h2.73v3.039h-2.73c-0.275,0-0.5,0.225-0.5,0.5v2.73h-3.039
	v-2.73c0-0.275-0.225-0.5-0.5-0.5H18.978z M35.993,25.24c0,0.275-0.225,0.5-0.5,0.5h-3.5l-2.838,6.484
	c-0.078,0.183-0.26,0.299-0.457,0.299H17.993c-0.276,0-0.5-0.224-0.5-0.5c0-0.275,0.224-0.5,0.5-0.5h10.378l2.837-6.483
	c0.079-0.183,0.26-0.3,0.458-0.3h3.827C35.771,24.74,35.993,24.964,35.993,25.24z M21.756,34.355c0,0.789-0.64,1.431-1.43,1.431
	c-0.791,0-1.431-0.642-1.431-1.431c0-0.791,0.64-1.432,1.431-1.432C21.116,32.925,21.756,33.564,21.756,34.355z M26.844,34.355
	c0,0.789-0.641,1.431-1.431,1.431s-1.432-0.642-1.432-1.431c0-0.791,0.642-1.432,1.432-1.432S26.844,33.564,26.844,34.355z
	 M19.746,20.607c-0.028-0.465-0.083-0.945-0.138-1.414c-0.035-0.313-0.07-0.621-0.098-0.914c2.49-0.527,5.939-0.521,8.48,0.016
	c-0.09,0.764-0.174,1.533-0.254,2.311c-0.025,0.242,0.127,0.469,0.363,0.533c0.698,0.195,1.385,0.408,2.068,0.621
	c0.861,0.268,1.723,0.534,2.609,0.768c0.043,0.012,0.086,0.017,0.127,0.017c0.104,0,0.205-0.032,0.291-0.093
	c0.121-0.086,0.197-0.223,0.209-0.369c0.128-1.695-0.047-3.389-0.492-4.768c-0.034-0.105-0.104-0.196-0.194-0.26
	c-2.694-1.832-5.888-2.841-8.987-2.841c-0.271,0-0.541,0.007-0.815,0.022c-2.944,0.162-5.685,1.1-8.142,2.783
	c-0.094,0.064-0.164,0.16-0.196,0.271c-0.468,1.581-0.649,3.178-0.54,4.748c0.011,0.148,0.087,0.283,0.208,0.371
	c0.122,0.088,0.276,0.113,0.419,0.076c0.881-0.231,1.738-0.489,2.6-0.748c0.699-0.211,1.4-0.422,2.114-0.617
	C19.606,21.059,19.761,20.846,19.746,20.607z M18.614,19.309c0.037,0.316,0.074,0.641,0.104,0.959
	c-0.585,0.166-1.162,0.34-1.74,0.515c-0.652,0.196-1.305,0.392-1.967,0.575c-0.021-1.195,0.139-2.407,0.479-3.611
	c2.267-1.518,4.783-2.359,7.482-2.512c0.256-0.014,0.51-0.021,0.762-0.021c2.848,0,5.781,0.912,8.281,2.57
	c0.318,1.063,0.467,2.321,0.428,3.614c-0.666-0.188-1.319-0.392-1.975-0.594c-0.562-0.176-1.121-0.35-1.691-0.515
	c0.084-0.782,0.17-1.558,0.263-2.324c0.03-0.251-0.132-0.485-0.378-0.545c-2.878-0.702-6.953-0.711-9.795-0.021
	c-0.233,0.057-0.395,0.271-0.381,0.511C18.506,18.343,18.56,18.818,18.614,19.309z"/>
</svg>
