<?xml version="1.0" encoding="utf-8"?>
<!-- Generator: Adobe Illustrator 16.0.4, SVG Export Plug-In . SVG Version: 6.00 Build 0)  -->
<!DOCTYPE svg PUBLIC "-//W3C//DTD SVG 1.1//EN" "http://www.w3.org/Graphics/SVG/1.1/DTD/svg11.dtd">
<svg version="1.1" id="Layer_1" xmlns="http://www.w3.org/2000/svg" xmlns:xlink="http://www.w3.org/1999/xlink" x="0px" y="0px"
	 width="50px" height="50px" viewBox="0 0 50 50" enable-background="new 0 0 50 50" xml:space="preserve">
<path d="M37.026,22.291c0.048-0.172,0.313-0.504,0.527-0.771c0.453-0.566,0.923-1.154,0.815-1.759
	c-0.104-0.589-0.725-0.959-1.324-1.317c-0.292-0.174-0.692-0.414-0.776-0.56c-0.083-0.144-0.09-0.608-0.096-0.95
	c-0.01-0.697-0.021-1.42-0.479-1.808c-0.385-0.321-1.127-0.274-1.861-0.157c-0.434,0.07-0.915,0.086-0.955,0.071
	c-0.155-0.058-0.461-0.41-0.684-0.667c-0.457-0.529-0.929-1.076-1.527-1.076c-0.598,0-1.069,0.547-1.526,1.076
	c-0.224,0.257-0.528,0.609-0.686,0.667c-0.036,0.013-0.52-0.002-0.953-0.071c-0.734-0.117-1.476-0.165-1.861,0.158
	c-0.328,0.275-0.423,0.727-0.457,1.213l-1.577-0.178c-0.94-0.102-1.854,0.306-2.417,1.039c-0.561-0.274-1.211-0.37-1.846-0.198
	l-5.754,1.552c-1.42,0.383-2.265,1.85-1.883,3.27l3.481,12.907c0.312,1.162,1.37,1.973,2.572,1.973c0.234,0,0.469-0.031,0.697-0.094
	l5.755-1.551c0.088-0.023,0.167-0.062,0.25-0.096c0.005,0.002,0.009,0.004,0.015,0.006l2.958,0.445
	c0.102,0.012,0.204,0.018,0.305,0.018c0.601,0,1.18-0.201,1.656-0.582c0.557-0.443,0.907-1.078,0.986-1.785l0.605-5.369
	c0.177,0.082,0.379,0.193,0.55,0.287c0.483,0.27,0.983,0.549,1.449,0.549c0.125,0,0.245-0.021,0.354-0.061
	c0.562-0.205,0.819-0.881,1.068-1.533c0.121-0.318,0.287-0.756,0.415-0.861c0.128-0.107,0.586-0.195,0.92-0.26
	c0.688-0.131,1.396-0.268,1.696-0.785c0.293-0.511,0.056-1.173-0.174-1.812C37.162,22.926,36.986,22.437,37.026,22.291z
	 M23.495,17.156l1.654,0.187c-0.01,0.233-0.031,0.451-0.084,0.542c-0.083,0.145-0.484,0.385-0.777,0.559
	c-0.6,0.358-1.22,0.729-1.324,1.317c-0.107,0.604,0.362,1.191,0.816,1.759c0.213,0.269,0.479,0.601,0.527,0.771
	c0.04,0.145-0.136,0.634-0.241,0.927c-0.055,0.154-0.111,0.31-0.159,0.464l-1.294-4.798c-0.112-0.416-0.333-0.776-0.613-1.079
	C22.352,17.351,22.906,17.09,23.495,17.156z M18.197,35.645c-0.879,0.232-1.81-0.309-2.043-1.174l-3.481-12.907
	c-0.239-0.889,0.29-1.806,1.178-2.045l5.754-1.552c0.143-0.038,0.29-0.058,0.436-0.058c0.343,0,0.661,0.115,0.931,0.3
	c0.04,0.047,0.09,0.084,0.147,0.112c0.247,0.214,0.441,0.49,0.53,0.82l3.48,12.907c0.239,0.887-0.289,1.805-1.176,2.043
	L18.197,35.645z M29.39,32.951c-0.051,0.441-0.27,0.838-0.617,1.115c-0.349,0.279-0.781,0.396-1.208,0.355l-1.959-0.295
	c0.502-0.641,0.716-1.494,0.488-2.338l-1.708-6.333c0.342,0.181,0.772,0.277,1.204,0.359c0.333,0.062,0.791,0.15,0.918,0.26
	c0.127,0.105,0.293,0.543,0.415,0.861c0.131,0.342,0.266,0.684,0.442,0.967c-0.487,0.262-0.764,0.812-0.614,1.369
	c0.175,0.645,0.842,1.029,1.489,0.855c0.647-0.176,1.03-0.842,0.856-1.49c-0.026-0.098-0.083-0.176-0.131-0.26
	c0.275-0.104,0.558-0.246,0.828-0.396c0.051-0.027,0.108-0.061,0.164-0.09L29.39,32.951z M36.326,23.558
	c0.104,0.291,0.299,0.832,0.251,0.969c-0.101,0.132-0.699,0.246-1.02,0.308c-0.539,0.103-1.048,0.2-1.374,0.474
	c-0.328,0.274-0.513,0.76-0.708,1.274c-0.117,0.307-0.333,0.875-0.472,0.947c0,0-0.005,0.002-0.017,0.002
	c-0.205,0-0.644-0.244-0.962-0.422c-0.479-0.268-0.933-0.521-1.358-0.521s-0.879,0.254-1.357,0.521
	c-0.319,0.178-0.758,0.422-0.972,0.424c-0.146-0.076-0.362-0.645-0.479-0.951c-0.195-0.514-0.38-1-0.707-1.272
	c-0.326-0.274-0.834-0.371-1.373-0.476c-0.322-0.062-0.92-0.177-1.017-0.298c-0.053-0.148,0.142-0.689,0.246-0.98
	c0.2-0.557,0.389-1.082,0.263-1.533c-0.103-0.367-0.397-0.736-0.709-1.127c-0.22-0.274-0.628-0.785-0.614-0.957
	c0.05-0.156,0.572-0.469,0.853-0.637c0.471-0.281,0.917-0.547,1.131-0.916s0.222-0.889,0.229-1.438
	c0.005-0.327,0.014-0.938,0.119-1.053c0,0,0.056-0.035,0.247-0.035c0.229,0,0.528,0.049,0.816,0.096
	c0.315,0.051,0.643,0.104,0.932,0.104c0.205,0,0.376-0.025,0.521-0.08c0.402-0.145,0.741-0.537,1.101-0.953
	c0.214-0.246,0.61-0.706,0.767-0.729c0.164,0.022,0.562,0.482,0.775,0.729c0.358,0.416,0.697,0.81,1.099,0.953
	c0.355,0.129,0.916,0.063,1.455-0.022c0.289-0.047,0.588-0.095,0.817-0.095c0.177,0,0.236,0.029,0.239,0.029
	c0.111,0.123,0.12,0.729,0.125,1.058c0.009,0.549,0.016,1.067,0.229,1.437c0.214,0.37,0.659,0.637,1.13,0.918
	c0.281,0.168,0.803,0.479,0.852,0.631c0.017,0.176-0.393,0.688-0.612,0.963c-0.312,0.39-0.606,0.759-0.709,1.125
	C35.938,22.474,36.126,23,36.326,23.558z M29.973,19.72c0-1.057-0.601-1.836-1.665-1.836c-1.056,0-1.73,0.838-1.73,1.941
	c0,1.16,0.742,1.863,1.683,1.863C29.154,21.689,29.973,21.013,29.973,19.72z M28.288,20.9c-0.419,0-0.638-0.467-0.638-1.113
	c0-0.619,0.2-1.113,0.628-1.113c0.447,0,0.618,0.486,0.618,1.113C28.896,20.482,28.697,20.9,28.288,20.9z M32.759,20.453
	c-1.056,0-1.73,0.838-1.73,1.941c0.01,1.16,0.752,1.862,1.684,1.862c0.896,0,1.713-0.676,1.713-1.969
	C34.424,21.232,33.824,20.453,32.759,20.453z M32.74,23.468c-0.419,0-0.638-0.467-0.628-1.113c0-0.619,0.189-1.112,0.628-1.112
	c0.447,0,0.608,0.485,0.608,1.112C33.35,23.05,33.149,23.468,32.74,23.468z M32.664,17.884l-3.559,6.393h-0.771l3.548-6.393H32.664z
	 M14.301,22.614c-0.175-0.647,0.208-1.313,0.855-1.488c0.647-0.175,1.312,0.209,1.488,0.856c0.174,0.646-0.209,1.313-0.856,1.488
	C15.141,23.644,14.475,23.261,14.301,22.614z M18.426,21.501c-0.175-0.646,0.209-1.314,0.856-1.488
	c0.648-0.175,1.312,0.209,1.488,0.856c0.175,0.647-0.208,1.313-0.855,1.487C19.267,22.533,18.601,22.15,18.426,21.501z
	 M15.211,25.99c-0.174-0.647,0.208-1.313,0.855-1.489c0.648-0.174,1.314,0.209,1.488,0.857c0.175,0.645-0.208,1.311-0.855,1.489
	C16.052,27.021,15.386,26.639,15.211,25.99z M19.336,24.878c-0.175-0.648,0.209-1.314,0.856-1.488
	c0.648-0.176,1.313,0.209,1.488,0.855c0.174,0.646-0.209,1.313-0.856,1.489C20.177,25.908,19.51,25.525,19.336,24.878z
	 M16.121,29.365c-0.175-0.646,0.208-1.312,0.856-1.486c0.647-0.176,1.313,0.207,1.487,0.855c0.176,0.646-0.207,1.312-0.855,1.488
	C16.961,30.396,16.295,30.014,16.121,29.365z M20.246,28.254c-0.175-0.646,0.209-1.312,0.856-1.486
	c0.647-0.176,1.313,0.207,1.488,0.854c0.175,0.648-0.208,1.314-0.855,1.488C21.088,29.285,20.421,28.902,20.246,28.254z
	 M19.375,32.111c0.175,0.645-0.208,1.312-0.855,1.488c-0.647,0.174-1.313-0.209-1.488-0.857c-0.175-0.646,0.208-1.312,0.855-1.488
	C18.535,31.08,19.201,31.463,19.375,32.111z M23.502,30.998c0.174,0.646-0.209,1.314-0.856,1.488
	c-0.647,0.176-1.314-0.209-1.489-0.855c-0.174-0.646,0.21-1.314,0.857-1.488C22.661,29.967,23.327,30.352,23.502,30.998z
	 M28.766,31.641c0.174,0.646-0.209,1.312-0.856,1.488c-0.646,0.176-1.313-0.211-1.489-0.855c-0.174-0.648,0.21-1.314,0.857-1.49
	C27.924,30.609,28.59,30.992,28.766,31.641z"/>
</svg>
