<?xml version="1.0" encoding="utf-8"?>
<!-- Generator: Adobe Illustrator 16.0.4, SVG Export Plug-In . SVG Version: 6.00 Build 0)  -->
<!DOCTYPE svg PUBLIC "-//W3C//DTD SVG 1.1//EN" "http://www.w3.org/Graphics/SVG/1.1/DTD/svg11.dtd">
<svg version="1.1" id="Layer_1" xmlns="http://www.w3.org/2000/svg" xmlns:xlink="http://www.w3.org/1999/xlink" x="0px" y="0px"
	 width="50px" height="50px" viewBox="0 0 50 50" enable-background="new 0 0 50 50" xml:space="preserve">
<path d="M37.209,26.998c-0.806-0.793-1.872-1.229-3.002-1.229c-0.505,0-0.991,0.102-1.451,0.268v-4.025
	c0-1.813-1.475-3.289-3.287-3.289c-0.518,0-1,0.131-1.438,0.344c-1.781-2.159-4.374-3.4-7.188-3.4c-5.146,0-9.333,4.188-9.333,9.333
	s4.187,9.334,9.333,9.334c2.087,0,4.099-0.703,5.735-1.979c0.554,1.037,1.634,1.752,2.891,1.752c0.762,0,1.474-0.271,2.057-0.742
	c0.76,0.617,1.69,0.971,2.683,0.971c1.157,0,2.241-0.454,3.054-1.279c0.802-0.814,1.237-1.894,1.228-3.037
	C38.479,28.871,38.024,27.8,37.209,26.998z M36.118,27.395l-4.534,4.606c-0.947-1.274-0.864-3.085,0.283-4.253
	c0.622-0.633,1.453-0.98,2.34-0.98C34.904,26.77,35.563,26.994,36.118,27.395z M31.756,22.01v3.756H27.18V22.01
	c0-1.262,1.026-2.289,2.289-2.289C30.729,19.721,31.756,20.748,31.756,22.01z M21.343,33.309v-1.52c0-0.275-0.224-0.5-0.5-0.5
	c-0.276,0-0.5,0.225-0.5,0.5v1.518c-4.209-0.252-7.579-3.636-7.81-7.852h1.477c0.276,0,0.5-0.225,0.5-0.5s-0.224-0.5-0.5-0.5h-1.473
	c0.271-4.176,3.625-7.516,7.806-7.766v1.434c0,0.275,0.224,0.5,0.5,0.5c0.276,0,0.5-0.225,0.5-0.5v-1.432
	c2.289,0.136,4.381,1.185,5.862,2.941c-0.629,0.6-1.025,1.44-1.025,2.376v8.808c0,0.182,0.024,0.355,0.054,0.529
	C24.854,32.518,23.141,33.2,21.343,33.309z M27.18,30.816v-4.051h4.313c-0.113,0.094-0.234,0.176-0.338,0.281
	c-1.513,1.539-1.606,3.934-0.327,5.6c-0.392,0.293-0.861,0.457-1.358,0.457C28.206,33.104,27.18,32.078,27.18,30.816z
	 M36.547,32.352c-1.11,1.129-2.975,1.242-4.248,0.351l4.531-4.604c0.415,0.557,0.651,1.221,0.657,1.928
	C37.495,30.9,37.161,31.727,36.547,32.352z M21.343,20.498v4.625c0,0.12-0.043,0.236-0.122,0.327l-2.375,2.75
	c-0.099,0.114-0.238,0.173-0.378,0.173c-0.116,0-0.232-0.04-0.327-0.122c-0.209-0.18-0.232-0.496-0.052-0.705l2.253-2.608v-4.439
	c0-0.275,0.224-0.5,0.5-0.5C21.118,19.998,21.343,20.223,21.343,20.498z"/>
</svg>
