<?xml version="1.0" encoding="utf-8"?>
<!-- Generator: Adobe Illustrator 16.0.0, SVG Export Plug-In . SVG Version: 6.00 Build 0)  -->
<!DOCTYPE svg PUBLIC "-//W3C//DTD SVG 1.1//EN" "http://www.w3.org/Graphics/SVG/1.1/DTD/svg11.dtd">
<svg version="1.1" id="Layer_1" xmlns="http://www.w3.org/2000/svg" xmlns:xlink="http://www.w3.org/1999/xlink" x="0px" y="0px"
	 width="96px" height="96px" viewBox="0 0 96 96" enable-background="new 0 0 96 96" xml:space="preserve">
<g>
	<path d="M48.001,11.992c-26.355,0-47.721,21.569-47.721,48.176c0,14.427,6.226,23.836,6.226,23.836l82.97,0.004
		c0,0,6.244-10.283,6.244-23.841C95.72,33.561,74.354,11.992,48.001,11.992z M85.976,78.138l-75.799-0.033
		c0,0-4.039-7.649-4.039-18.089c0-23.32,18.814-42.226,42.023-42.226c23.208,0,42.023,18.905,42.023,42.226
		C90.185,70.575,85.976,78.138,85.976,78.138z"/>
	<polygon points="61.487,24.785 60.888,24.784 48.159,49.727 34.972,24.571 16.917,70.015 12.251,70.015 12.251,73.666 
		37.813,73.666 37.813,70.015 32.741,70.015 37.813,55.813 48.159,73.666 58.1,55.813 63.171,70.015 58.1,70.015 58.1,73.666 
		83.458,73.666 83.458,70.015 79.065,70.015 	"/>
</g>
</svg>
