<?xml version="1.0" encoding="utf-8"?>
<!-- Generator: Adobe Illustrator 16.0.4, SVG Export Plug-In . SVG Version: 6.00 Build 0)  -->
<!DOCTYPE svg PUBLIC "-//W3C//DTD SVG 1.1//EN" "http://www.w3.org/Graphics/SVG/1.1/DTD/svg11.dtd">
<svg version="1.1" id="Layer_1" xmlns="http://www.w3.org/2000/svg" xmlns:xlink="http://www.w3.org/1999/xlink" x="0px" y="0px"
	 width="50px" height="50px" viewBox="0 0 50 50" enable-background="new 0 0 50 50" xml:space="preserve">
<path d="M31.668,17.866c-0.18-0.209-0.496-0.234-0.705-0.056l-1.477,1.259l0.552-2.442c0.062-0.27-0.106-0.537-0.377-0.598
	c-0.272-0.062-0.538,0.109-0.599,0.377l-0.555,2.453l-0.754-1.886c-0.104-0.257-0.395-0.383-0.648-0.279
	c-0.258,0.103-0.381,0.394-0.278,0.65l1.04,2.6c-1.039,0.103-1.9,0.862-2.586,2.267c-0.86-1.519-1.864-2.265-2.991-2.251
	l0.854-2.551c0.086-0.262-0.055-0.545-0.315-0.633c-0.261-0.085-0.545,0.054-0.634,0.315l-0.615,1.84l-0.787-2.378
	c-0.087-0.262-0.366-0.404-0.632-0.317c-0.263,0.086-0.404,0.37-0.317,0.632l0.79,2.388l-1.618-1.228
	c-0.219-0.166-0.533-0.124-0.701,0.096c-0.166,0.22-0.123,0.534,0.098,0.701l2.238,1.697c-0.508,0.385-0.858,0.936-1.01,1.653
	c-0.238,1.135-0.031,2.658,0.629,4.657c1.188,3.59,3.774,7.152,5.734,7.152c0.16,0,0.317-0.024,0.47-0.074
	c0.075-0.025,0.137-0.069,0.189-0.122c1.678-0.75,3.195-3.992,3.919-7.201c0.755-3.342,0.407-5.438-1.015-6.271l2.045-1.744
	C31.82,18.392,31.848,18.077,31.668,17.866z M21.98,28.404l1.131-0.374c0.263-0.087,0.404-0.37,0.318-0.632
	c-0.088-0.263-0.365-0.405-0.633-0.317l-1.22,0.403c-0.128-0.314-0.25-0.635-0.359-0.967c-0.116-0.35-0.204-0.67-0.29-0.99
	l1.223-0.403c0.263-0.086,0.404-0.369,0.317-0.631c-0.087-0.262-0.37-0.408-0.631-0.318l-1.132,0.374
	c-0.164-0.87-0.205-1.608-0.087-2.169c0.147-0.706,0.508-1.131,1.132-1.337c0.42-0.138,1.682-0.545,3.033,2.39
	c-0.18,0.525-0.348,1.088-0.492,1.732c-0.469,2.069-0.624,4.089-0.438,5.683c0.027,0.243,0.065,0.459,0.106,0.666
	C23.285,30.725,22.581,29.659,21.98,28.404z M29.605,26.365c-1.01,4.471-2.86,6.787-3.766,6.572
	c-0.467-0.105-0.848-0.951-0.995-2.207c-0.02-0.17-0.021-0.364-0.031-0.547l0.993,0.226c0.037,0.008,0.074,0.012,0.11,0.012
	c0.229,0,0.437-0.157,0.487-0.39c0.062-0.271-0.107-0.537-0.377-0.598l-1.237-0.281c0.011-0.561,0.057-1.15,0.133-1.764l1.184,0.268
	c0.037,0.008,0.074,0.012,0.11,0.012c0.229,0,0.437-0.158,0.487-0.391c0.062-0.269-0.107-0.536-0.377-0.598l-1.256-0.283
	c0.06-0.336,0.115-0.67,0.193-1.013c0.08-0.355,0.164-0.687,0.254-1l1.264,0.286c0.037,0.008,0.074,0.012,0.109,0.012
	c0.229,0,0.437-0.158,0.487-0.39c0.062-0.27-0.106-0.537-0.377-0.598l-1.178-0.266c0.61-1.667,1.385-2.51,2.31-2.51
	c0.131,0,0.27,0.017,0.409,0.048C29.984,21.292,30.342,23.109,29.605,26.365z"/>
</svg>
