<?xml version="1.0" encoding="utf-8"?>
<!-- Generator: Adobe Illustrator 16.0.4, SVG Export Plug-In . SVG Version: 6.00 Build 0)  -->
<!DOCTYPE svg PUBLIC "-//W3C//DTD SVG 1.1//EN" "http://www.w3.org/Graphics/SVG/1.1/DTD/svg11.dtd">
<svg version="1.1" id="Layer_1" xmlns="http://www.w3.org/2000/svg" xmlns:xlink="http://www.w3.org/1999/xlink" x="0px" y="0px"
	 width="226.77px" height="155.91px" viewBox="0 0 226.77 155.91" enable-background="new 0 0 226.77 155.91" xml:space="preserve">
<g>
	<path d="M113.66,73.506c0.22,0.99,0.962,1.677,1.98,1.677c0.66,0,1.32-0.302,1.87-0.825l26.485-25.357
		c0.797-0.77,1.265-1.843,1.265-2.86c0-0.825-0.33-1.567-0.907-2.145c-7.014-6.683-16.446-10.836-26.567-11.716
		c-1.925-0.165-4.236,1.32-4.236,3.355l0,0l0,0v37.348l0,0l0,0C113.577,73.176,113.604,73.341,113.66,73.506z"/>
	<path d="M113.082,81.234c-1.292-1.293-2.613-2.063-2.613-4.125l0.138-39.851c0.137-0.77,0.055-1.348-0.248-1.733
		c-0.22-0.248-0.522-0.413-0.853-0.413c-23.652,0-42.876,20.104-42.876,44.829c0,24.092,19.747,43.701,44.031,43.701
		c10.918,0,21.37-4.098,29.428-11.551c0.688-0.633,1.1-1.513,1.1-2.476c0.027-0.963-0.357-1.843-1.018-2.53L113.082,81.234z"/>
	<path d="M150.237,52.247c-1.183-1.458-3.548-1.541-4.923-0.22l-26.182,25.357c-0.688,0.66-1.045,1.54-1.072,2.475
		c0,0.936,0.357,1.815,1.018,2.503l25.879,25.88c0.798,0.77,1.513,1.018,2.421,1.018c0.962,0,1.87-0.413,2.502-1.155
		c6.601-7.865,10.259-17.849,10.259-28.107C160.166,69.876,156.618,60.03,150.237,52.247z"/>
</g>
</svg>
