<?xml version="1.0" encoding="utf-8"?>
<!-- Generator: Adobe Illustrator 16.0.4, SVG Export Plug-In . SVG Version: 6.00 Build 0)  -->
<!DOCTYPE svg PUBLIC "-//W3C//DTD SVG 1.1//EN" "http://www.w3.org/Graphics/SVG/1.1/DTD/svg11.dtd">
<svg version="1.1" id="Layer_1" xmlns="http://www.w3.org/2000/svg" xmlns:xlink="http://www.w3.org/1999/xlink" x="0px" y="0px"
	 width="50px" height="50px" viewBox="0 0 50 50" enable-background="new 0 0 50 50" xml:space="preserve">
<path d="M27.973,26.496c0.611,0,1.096-0.193,1.451-0.581c0.357-0.389,0.535-0.912,0.535-1.574c0-0.674-0.178-1.209-0.535-1.605
	c-0.355-0.396-0.84-0.594-1.451-0.594c-0.604,0-1.088,0.198-1.447,0.594c-0.356,0.396-0.534,0.933-0.534,1.605
	c0,0.662,0.178,1.187,0.534,1.574C26.885,26.303,27.367,26.496,27.973,26.496z M27.15,23.263c0.197-0.259,0.473-0.388,0.822-0.388
	c0.354,0,0.627,0.129,0.825,0.388c0.199,0.258,0.3,0.616,0.3,1.073c0,0.447-0.101,0.798-0.3,1.049
	c-0.198,0.251-0.473,0.377-0.825,0.377s-0.627-0.126-0.824-0.377c-0.197-0.251-0.297-0.602-0.297-1.049
	C26.852,23.879,26.951,23.521,27.15,23.263z M24.854,31.711c0,0.276-0.223,0.5-0.5,0.5c-2.344,0-4.25-1.905-4.25-4.25
	c0-0.276,0.226-0.5,0.5-0.5c0.277,0,0.5,0.224,0.5,0.5c0,1.792,1.459,3.25,3.25,3.25C24.631,31.211,24.854,31.435,24.854,31.711z
	 M31.896,24.2c0-2.206-1.795-4-4-4c-0.166,0-0.326,0.028-0.486,0.049c-2.637-4.573-2.859-4.521-3.186-4.438
	c-0.115,0.031-0.218,0.104-0.285,0.203c-0.238,0.353-5.836,8.656-5.836,11.947c0,3.445,2.805,6.25,6.25,6.25
	c3.446,0,6.25-2.805,6.25-6.25c0-0.229-0.033-0.492-0.084-0.768C31.355,26.461,31.896,25.398,31.896,24.2z M30.896,24.2
	c0,1.653-1.347,3-3,3c-1.654,0-3-1.347-3-3c0-1.654,1.346-3,3-3C29.55,21.2,30.896,22.545,30.896,24.2z M29.604,27.961
	c0,2.896-2.354,5.25-5.25,5.25c-2.895,0-5.25-2.354-5.25-5.25c0-2.283,3.472-8.05,5.25-10.762c0.451,0.689,1.222,1.896,2.043,3.299
	c-1.463,0.595-2.5,2.027-2.5,3.702c0,2.206,1.793,4,4,4c0.605,0,1.176-0.146,1.691-0.39C29.59,27.856,29.604,27.918,29.604,27.961z"
	/>
</svg>
