<?xml version="1.0" encoding="utf-8"?>
<!-- Generator: Adobe Illustrator 16.0.0, SVG Export Plug-In . SVG Version: 6.00 Build 0)  -->
<!DOCTYPE svg PUBLIC "-//W3C//DTD SVG 1.1//EN" "http://www.w3.org/Graphics/SVG/1.1/DTD/svg11.dtd">
<svg version="1.1" id="Layer_2" xmlns="http://www.w3.org/2000/svg" xmlns:xlink="http://www.w3.org/1999/xlink" x="0px" y="0px"
	 width="96px" height="96px" viewBox="0 0 96 96" enable-background="new 0 0 96 96" xml:space="preserve">
<path d="M48.68,52.221c5.263,0,10.052-4.265,10.694-9.528c0.647-5.259-3.095-9.524-8.353-9.524c-5.263,0-5.881,0.024-7.171,0.024
	c-1.291,0-2.208-1.046-2.05-2.333c0.159-1.288,1.331-2.332,2.622-2.332H94.03L92.002,45.03H64.556l-4.585,37.344H23.006
	l3.703-30.155H48.68V52.221z M95.854,13.626l-0.944,7.709H45.303c-5.26,0-10.048,4.268-10.694,9.524
	c-0.644,5.26,3.096,9.525,8.354,9.525l7.17-0.022c1.288,0,2.204,1.046,2.05,2.334c-0.16,1.291-1.333,2.335-2.623,2.335l-3.27,0.003
	H0.146L4,13.626H95.854z"/>
</svg>
