<?xml version="1.0" encoding="utf-8"?>
<!-- Generator: Adobe Illustrator 16.0.4, SVG Export Plug-In . SVG Version: 6.00 Build 0)  -->
<!DOCTYPE svg PUBLIC "-//W3C//DTD SVG 1.1//EN" "http://www.w3.org/Graphics/SVG/1.1/DTD/svg11.dtd">
<svg version="1.1" id="Layer_1" xmlns="http://www.w3.org/2000/svg" xmlns:xlink="http://www.w3.org/1999/xlink" x="0px" y="0px"
	 width="226.77px" height="155.91px" viewBox="0 0 226.77 155.91" enable-background="new 0 0 226.77 155.91" xml:space="preserve">
<g>
	<path d="M70.953,118.622h43.371c-0.66,1.761-1.43,3.548-2.283,5.391c-1.403,2.971-0.138,6.519,2.833,7.921
		c0.825,0.385,1.678,0.577,2.558,0.577c2.228,0,4.373-1.265,5.391-3.41c1.705-3.603,3.08-7.096,4.125-10.479h28.877
		c3.301,0,5.941-2.667,5.941-5.94c0-3.272-2.668-5.94-5.941-5.94h-26.566c0.522-7.397-0.853-14.081-4.208-19.994
		c-2.503-4.428-5.886-7.948-9.599-10.753L159.29,33.53c2.31-2.337,2.282-6.105-0.056-8.416c-2.337-2.311-6.105-2.283-8.415,0.055
		l-46.039,44.691c-9.048-3.878-17.271-4.73-17.876-4.786c-3.273-0.302-6.161,2.063-6.491,5.335c-0.33,3.273,2.063,6.188,5.335,6.518
		c0.083,0,4.456,0.495,9.874,2.229l-28.905,29.345c-1.678,1.705-2.173,4.263-1.265,6.49
		C66.388,117.192,68.56,118.622,70.953,118.622z M107.036,84.547c3.025,2.091,5.776,4.758,7.673,8.113
		c2.256,3.988,3.107,8.691,2.586,14.054H85.171L107.036,84.547z"/>
</g>
</svg>
