<?xml version="1.0" encoding="iso-8859-1"?>
<!-- Generator: Adobe Illustrator 16.0.4, SVG Export Plug-In . SVG Version: 6.00 Build 0)  -->
<!DOCTYPE svg PUBLIC "-//W3C//DTD SVG 1.1//EN" "http://www.w3.org/Graphics/SVG/1.1/DTD/svg11.dtd">
<svg version="1.1" id="Layer_1" xmlns="http://www.w3.org/2000/svg" xmlns:xlink="http://www.w3.org/1999/xlink" x="0px" y="0px"
	 width="50px" height="50px" viewBox="0 0 50 50" style="enable-background:new 0 0 50 50;" xml:space="preserve">
<path d="M27.45,16.378C27.27,15.181,26.246,14.26,25,14.26c-1.248,0-2.271,0.921-2.45,2.118H27.45z"/>
<path d="M21.214,12.81l1.673,1.673l-0.707,0.707l-1.674-1.673L21.214,12.81z M24.5,11.324h1v2.367h-1V11.324z M28.787,12.932
	l0.707,0.707l-1.674,1.674l-0.707-0.707L28.787,12.932z"/>
<path d="M34.882,24.104l-1.575-7.199H16.693l-1.575,7.199h-2.659v11.269h1.673v3.304h5v-3.304h11.736v3.304h5v-3.304h1.673V24.104
	H34.882z M17.538,29.933h-3.417v-3.417h3.417V29.933z M30.736,33.113H19.263v-1h11.473V33.113z M30.736,30.236H19.263v-1h11.473
	V30.236z M30.736,27.359H19.263v-1h11.473V27.359z M31.777,24.104h-2.948c-0.013-0.081-0.024-0.162-0.024-0.246
	c0-0.827,0.672-1.5,1.498-1.5c0.827,0,1.499,0.673,1.499,1.5C31.802,23.941,31.79,24.022,31.777,24.104z M30.303,21.357
	c-1.378,0-2.498,1.122-2.498,2.5c0,0.084,0.016,0.164,0.024,0.246H17.082l1.138-5.199h13.561l1.138,5.199h-0.142
	c0.009-0.082,0.025-0.162,0.025-0.246C32.802,22.479,31.682,21.357,30.303,21.357z M35.879,29.933h-3.417v-3.417h3.417V29.933z"/>
</svg>
