<?xml version="1.0" encoding="utf-8"?>
<!-- Generator: Adobe Illustrator 16.0.4, SVG Export Plug-In . SVG Version: 6.00 Build 0)  -->
<!DOCTYPE svg PUBLIC "-//W3C//DTD SVG 1.1//EN" "http://www.w3.org/Graphics/SVG/1.1/DTD/svg11.dtd">
<svg version="1.1" id="Layer_1" xmlns="http://www.w3.org/2000/svg" xmlns:xlink="http://www.w3.org/1999/xlink" x="0px" y="0px"
	 width="50px" height="50px" viewBox="0 0 50 50" enable-background="new 0 0 50 50" xml:space="preserve">
<path d="M22.18,15.043l-1.674-1.674l0.707-0.707l1.674,1.674L22.18,15.043z M27.45,16.233c-0.182-1.198-1.204-2.119-2.45-2.119
	c-1.248,0-2.271,0.921-2.45,2.119H27.45z M29.494,13.492l-0.707-0.707l-1.674,1.674l0.707,0.707L29.494,13.492z M25.5,11.18h-1
	v2.367h1V11.18z M40.715,29.932c0,1.946-0.64,3.688-1.879,4.87v4.019h-5v-2.443H16.164v2.443h-5v-4.019
	c-1.239-1.182-1.879-2.924-1.879-4.87c0-2.535,1.08-4.721,3.163-5.773c0.575-4.251,2.918-7.349,5.808-7.349h13.49
	c2.889,0,5.23,3.098,5.806,7.35C39.635,25.212,40.715,27.396,40.715,29.932z M14.07,23.611c0.437-0.081,0.899-0.125,1.394-0.125
	h13.074c0-1.769,1.438-3.208,3.208-3.208c1.769,0,3.208,1.439,3.208,3.209c0,0.006-0.002,0.012-0.002,0.018
	c0.339,0.018,0.668,0.049,0.978,0.107c-0.619-3.05-2.282-5.303-4.184-5.303h-13.49C16.354,18.309,14.689,20.562,14.07,23.611z
	 M31.746,21.277c-1.218,0-2.208,0.991-2.208,2.208h4.416C33.954,22.268,32.964,21.277,31.746,21.277z M16.811,29.932
	c0-1.156-0.938-2.095-2.096-2.095c-1.155,0-2.094,0.938-2.094,2.095c0,1.158,0.938,2.094,2.094,2.094
	C15.872,32.025,16.811,31.089,16.811,29.932z M31.583,31.152c0-0.275-0.224-0.5-0.5-0.5H18.917c-0.276,0-0.5,0.225-0.5,0.5
	c0,0.277,0.224,0.5,0.5,0.5h12.166C31.359,31.652,31.583,31.43,31.583,31.152z M31.583,29.318c0-0.275-0.224-0.5-0.5-0.5H18.917
	c-0.276,0-0.5,0.225-0.5,0.5c0,0.276,0.224,0.5,0.5,0.5h12.166C31.359,29.818,31.583,29.596,31.583,29.318z M37.379,29.932
	c0-1.156-0.938-2.095-2.094-2.095c-1.157,0-2.096,0.938-2.096,2.095c0,1.158,0.938,2.094,2.096,2.094
	C36.44,32.025,37.379,31.089,37.379,29.932z"/>
</svg>
