<?xml version="1.0" encoding="utf-8"?>
<!-- Generator: Adobe Illustrator 16.0.4, SVG Export Plug-In . SVG Version: 6.00 Build 0)  -->
<!DOCTYPE svg PUBLIC "-//W3C//DTD SVG 1.1//EN" "http://www.w3.org/Graphics/SVG/1.1/DTD/svg11.dtd">
<svg version="1.1" id="Layer_1" xmlns="http://www.w3.org/2000/svg" xmlns:xlink="http://www.w3.org/1999/xlink" x="0px" y="0px"
	 width="226.77px" height="155.91px" viewBox="0 0 226.77 155.91" enable-background="new 0 0 226.77 155.91" xml:space="preserve">
<g>
	<path d="M156.646,13.627H70.124c-1.926,0-3.521,1.568-3.521,3.521v121.615c0,1.925,1.567,3.521,3.521,3.521h86.521
		c1.926,0,3.521-1.568,3.521-3.521V17.147C160.166,15.223,158.599,13.627,156.646,13.627z M88.386,129.687
		c-4.979,0-9.021-4.042-9.021-9.021c0-4.978,4.043-9.021,9.021-9.021c4.978,0,9.021,4.043,9.021,9.021
		C97.406,125.645,93.363,129.687,88.386,129.687z M88.386,105.045c-4.979,0-9.021-4.043-9.021-9.021
		c0-4.979,4.043-9.021,9.021-9.021c4.978,0,9.021,4.043,9.021,9.021C97.406,101.002,93.363,105.045,88.386,105.045z M88.386,82.245
		c-4.979,0-9.021-4.042-9.021-9.021c0-4.978,4.043-9.021,9.021-9.021c4.978,0,9.021,4.043,9.021,9.021
		C97.406,78.203,93.363,82.245,88.386,82.245z M113.495,87.003c4.978,0,9.021,4.043,9.021,9.021c0,4.978-4.043,9.021-9.021,9.021
		c-4.979,0-9.021-4.043-9.021-9.021C104.474,91.046,108.545,87.003,113.495,87.003z M104.502,73.225
		c0-4.978,4.043-9.021,9.021-9.021s8.993,4.07,8.993,9.021s-4.043,9.021-9.021,9.021C108.545,82.245,104.502,78.203,104.502,73.225z
		 M113.522,129.687c-4.978,0-9.021-4.042-9.021-9.021c0-4.978,4.043-9.021,9.021-9.021s9.021,4.043,9.021,9.021
		C122.543,125.645,118.473,129.687,113.522,129.687z M138.632,129.687c-4.978,0-9.021-4.042-9.021-9.021
		c0-4.978,4.043-9.021,9.021-9.021s9.021,4.043,9.021,9.021C147.652,125.645,143.609,129.687,138.632,129.687z M138.632,105.045
		c-4.978,0-9.021-4.07-9.021-9.021c0-4.951,4.043-9.021,9.021-9.021s9.021,4.043,9.021,9.021
		C147.652,101.002,143.609,105.045,138.632,105.045z M138.632,82.245c-4.978,0-9.021-4.042-9.021-9.021
		c0-4.978,4.043-9.021,9.021-9.021s9.021,4.043,9.021,9.021C147.652,78.203,143.609,82.245,138.632,82.245z M148.478,54.578
		c0,1.926-1.567,3.521-3.521,3.521H81.812c-1.926,0-3.521-1.567-3.521-3.521V28.863c0-1.925,1.567-3.52,3.521-3.52h63.145
		c1.926,0,3.521,1.567,3.521,3.52V54.578z"/>
	<path d="M133.791,31.477c-5.225,0-8.745,4.455-8.745,10.148v0.055c0,5.693,3.438,10.094,8.69,10.094s8.746-4.456,8.746-10.148
		v-0.056C142.482,35.877,138.989,31.477,133.791,31.477z M138.055,41.68c0,3.575-1.65,6.188-4.264,6.188
		c-2.612,0-4.317-2.668-4.317-6.243v-0.056c0-3.603,1.678-6.188,4.263-6.188s4.318,2.695,4.318,6.243V41.68z"/>
</g>
</svg>
