<?xml version="1.0" encoding="utf-8"?>
<!-- Generator: Adobe Illustrator 17.0.0, SVG Export Plug-In . SVG Version: 6.00 Build 0)  -->
<!DOCTYPE svg PUBLIC "-//W3C//DTD SVG 1.1//EN" "http://www.w3.org/Graphics/SVG/1.1/DTD/svg11.dtd">
<svg version="1.1" id="Capa_1" xmlns="http://www.w3.org/2000/svg" xmlns:xlink="http://www.w3.org/1999/xlink" x="0px" y="0px"
	 width="16.594px" height="16.594px" viewBox="0 0 16.594 16.594" enable-background="new 0 0 16.594 16.594" xml:space="preserve">
<path d="M11.05,0.027c3.044,0,5.511,2.015,5.511,4.5s-2.467,4.5-5.511,4.5s-5.511-2.015-5.511-4.5S8.006,0.027,11.05,0.027z
	 M11.125,11.637c-0.946,0-1.859-0.118-2.717-0.338l-3.483,2.082V9.645C3.206,8.328,2.134,6.473,2.134,4.416
	c0-1.664,0.702-3.193,1.878-4.416H1.698C0.76,0,0,0.762,0,1.698v13.198c0,0.938,0.76,1.697,1.698,1.697h13.197
	c0.938,0,1.698-0.76,1.698-1.697v-4.755C15.08,11.08,13.184,11.637,11.125,11.637z"/>
</svg>
