<?xml version="1.0" encoding="utf-8"?>
<!-- Generator: Adobe Illustrator 16.0.4, SVG Export Plug-In . SVG Version: 6.00 Build 0)  -->
<!DOCTYPE svg PUBLIC "-//W3C//DTD SVG 1.1//EN" "http://www.w3.org/Graphics/SVG/1.1/DTD/svg11.dtd">
<svg version="1.1" id="Layer_1" xmlns="http://www.w3.org/2000/svg" xmlns:xlink="http://www.w3.org/1999/xlink" x="0px" y="0px"
	 width="50px" height="50px" viewBox="0 0 50 50" enable-background="new 0 0 50 50" xml:space="preserve">
<path d="M33.742,22.714c-0.094-0.133-0.246-0.213-0.409-0.213h-2.341v-1.668c0-0.276-0.225-0.5-0.5-0.5H24.08v-1.205
	c0-0.276-0.224-0.5-0.5-0.5h-4.262c-0.276,0-0.5,0.224-0.5,0.5v1.205h-2.151c-0.276,0-0.5,0.224-0.5,0.5v10.038
	c0,0.013,0.006,0.023,0.007,0.038c0.002,0.026,0.009,0.05,0.016,0.075c0.011,0.049,0.028,0.094,0.053,0.137
	c0.007,0.012,0.007,0.025,0.015,0.038c0.007,0.01,0.019,0.014,0.026,0.022c0.033,0.043,0.073,0.074,0.118,0.104
	c0.018,0.011,0.032,0.025,0.051,0.035c0.065,0.031,0.137,0.052,0.214,0.052h13.825c0.096,0,0.181-0.034,0.257-0.081
	c0.017-0.01,0.031-0.02,0.048-0.032c0.07-0.055,0.127-0.124,0.16-0.209c0.001-0.003,0.005-0.004,0.006-0.008l2.842-7.87
	C33.857,23.018,33.836,22.848,33.742,22.714z M19.318,21.333c0.276,0,0.5-0.224,0.5-0.5v-1.205h3.262v1.205
	c0,0.276,0.224,0.5,0.5,0.5h6.412v1.168H19.508c-0.21,0-0.399,0.132-0.47,0.33l-1.871,5.183v-6.681H19.318z M30.141,30.371H17.379
	l2.48-6.87h12.762L30.141,30.371z M22.854,30.33c1.79,0,3.246-1.456,3.246-3.246s-1.456-3.246-3.246-3.246s-3.246,1.456-3.246,3.246
	C19.607,28.874,21.063,30.33,22.854,30.33z M22.854,24.838c1.238,0,2.246,1.007,2.246,2.246s-1.008,2.246-2.246,2.246
	s-2.246-1.008-2.246-2.246S21.615,24.838,22.854,24.838z M21.479,27.596c-0.276,0-0.5-0.224-0.5-0.5c0-0.275,0.224-0.5,0.5-0.5
	h0.874v-0.814c0-0.276,0.224-0.5,0.5-0.5s0.5,0.224,0.5,0.5v0.814h0.875c0.276,0,0.5,0.225,0.5,0.5c0,0.276-0.224,0.5-0.5,0.5
	h-0.875v0.932c0,0.277-0.224,0.5-0.5,0.5s-0.5-0.223-0.5-0.5v-0.932H21.479z"/>
</svg>
