<?xml version="1.0" encoding="utf-8"?>
<!-- Generator: Adobe Illustrator 16.0.4, SVG Export Plug-In . SVG Version: 6.00 Build 0)  -->
<!DOCTYPE svg PUBLIC "-//W3C//DTD SVG 1.1//EN" "http://www.w3.org/Graphics/SVG/1.1/DTD/svg11.dtd">
<svg version="1.1" id="Layer_1" xmlns="http://www.w3.org/2000/svg" xmlns:xlink="http://www.w3.org/1999/xlink" x="0px" y="0px"
	 width="50px" height="50px" viewBox="0 0 50 50" enable-background="new 0 0 50 50" xml:space="preserve">
<path d="M17.189,24.829c0-0.276,0.224-0.5,0.5-0.5h0.877c-0.044-0.121-0.091-0.244-0.117-0.36c-0.101-0.298-0.159-0.654-0.159-1.016
	c0-1.251,0.682-2.404,1.78-3.01c1.243-0.687,2.868-0.496,3.918,0.422c1.05-0.918,2.676-1.107,3.918-0.422
	c1.098,0.604,1.78,1.759,1.78,3.011c0,0.358-0.058,0.717-0.173,1.063c-0.52,2.35-4.776,5.083-5.259,5.387
	c-0.082,0.051-0.174,0.076-0.266,0.076c-0.092,0-0.185-0.025-0.266-0.078c-0.054-0.033-1.326-0.836-2.618-1.941
	c-0.21-0.18-0.234-0.496-0.055-0.705c0.181-0.209,0.496-0.234,0.705-0.055c0.896,0.768,1.801,1.395,2.235,1.684
	c1.366-0.9,4.212-3.057,4.562-4.633c0.095-0.294,0.136-0.546,0.136-0.798c0-0.888-0.483-1.705-1.263-2.136
	c-1-0.549-2.325-0.295-3.051,0.58c-0.189,0.229-0.579,0.229-0.769,0c-0.728-0.875-2.054-1.129-3.051-0.58
	c-0.779,0.431-1.263,1.248-1.263,2.135c0,0.253,0.041,0.505,0.122,0.75c0.05,0.215,0.137,0.418,0.245,0.626h1.956l0.694-1.599
	c0.085-0.196,0.283-0.315,0.503-0.299c0.214,0.021,0.393,0.174,0.442,0.383l0.463,1.953l0.524-0.858
	c0.091-0.149,0.252-0.24,0.427-0.24h1.32c0.276,0,0.5,0.224,0.5,0.5s-0.224,0.5-0.5,0.5h-1.04l-1.011,1.658
	c-0.091,0.152-0.254,0.24-0.427,0.24c-0.026,0-0.052-0.002-0.078-0.006c-0.201-0.031-0.362-0.182-0.408-0.379l-0.397-1.675
	l-0.227,0.521c-0.079,0.184-0.259,0.302-0.458,0.302h-4.251C17.414,25.329,17.189,25.105,17.189,24.829z M36.65,14.836v11.042
	c0,0.275-0.225,0.5-0.5,0.5h-2.123v4.209c0,0.277-0.224,0.5-0.5,0.5h-8.7l-5.963,4.477c-0.088,0.064-0.194,0.1-0.3,0.1
	c-0.076,0-0.153-0.018-0.224-0.053c-0.169-0.086-0.276-0.258-0.276-0.447V31.09H13.85c-0.276,0-0.5-0.225-0.5-0.5v-12.75
	c0-0.275,0.224-0.5,0.5-0.5h4.042v-2.503c0-0.276,0.224-0.5,0.5-0.5H36.15C36.428,14.336,36.65,14.56,36.65,14.836z M33.027,18.339
	H14.351v11.749h4.215c0.276,0,0.5,0.225,0.5,0.5v3.574l5.296-3.975c0.087-0.064,0.192-0.1,0.3-0.1h8.366V18.339z M35.65,15.336
	H18.892v2.003h14.636c0.276,0,0.5,0.225,0.5,0.5v7.539h1.623V15.336z"/>
</svg>
