<?xml version="1.0" encoding="utf-8"?>
<!-- Generator: Adobe Illustrator 16.0.0, SVG Export Plug-In . SVG Version: 6.00 Build 0)  -->
<!DOCTYPE svg PUBLIC "-//W3C//DTD SVG 1.1//EN" "http://www.w3.org/Graphics/SVG/1.1/DTD/svg11.dtd">
<svg version="1.1" id="Layer_1" xmlns="http://www.w3.org/2000/svg" xmlns:xlink="http://www.w3.org/1999/xlink" x="0px" y="0px"
	 width="96px" height="96px" viewBox="0 0 96 96" enable-background="new 0 0 96 96" xml:space="preserve">
<g>
	<path d="M84.559,36.146l-6.456,23.105H61.627l6.456-23.105h-7.132l-6.456,23.105H38.02l6.456-23.105h-6.831l-6.456,23.105H14.714
		l6.455-23.105h-7.928l1.206-4.822h80.03V11.032H1.523v73.937h92.954V68.427H76.818l-2.64,7.665H57.053l2.466-7.665h-7.284
		l-2.563,7.665H33.446l2.087-7.665h-6.655l-2.512,7.665H10.391l2.637-7.665H5.474l1.206-4.822h87.798V36.146H84.559z M72.396,19.37
		H88.87l-2.379,7.534H70.016L72.396,19.37z M48.788,19.37h16.475l-2.379,7.534H46.408L48.788,19.37z M25.482,19.37h16.475
		l-2.38,7.534H23.103L25.482,19.37z"/>
</g>
</svg>
