<?xml version="1.0" encoding="utf-8"?>
<!-- Generator: Adobe Illustrator 17.0.0, SVG Export Plug-In . SVG Version: 6.00 Build 0)  -->
<!DOCTYPE svg PUBLIC "-//W3C//DTD SVG 1.1//EN" "http://www.w3.org/Graphics/SVG/1.1/DTD/svg11.dtd">
<svg version="1.1" id="Capa_1" xmlns="http://www.w3.org/2000/svg" xmlns:xlink="http://www.w3.org/1999/xlink" x="0px" y="0px"
	 width="24.674px" height="18.601px" viewBox="0 0 24.674 18.601" enable-background="new 0 0 24.674 18.601" xml:space="preserve">
<path d="M18.836,0c-3.221,0-5.832,2.61-5.832,5.831c0,3.221,2.611,5.833,5.832,5.833c0.107,0,0.213-0.01,0.319-0.017
	c-0.023,0.124-0.046,0.244-0.065,0.351c-0.027,0.147-0.285,0.412-0.435,0.407c-2.442-0.082-10.608-0.19-10.608-0.19L5.346,4.407
	L5.192,3.881C5.165,3.809,5.141,3.743,5.125,3.704C4.946,3.237,4.644,2.932,4.392,2.751C4.138,2.569,3.93,2.507,3.902,2.495
	l-0.01-0.002L2.025,2.027C1.9,1.77,1.507,1.581,1.035,1.581C0.463,1.581,0,1.856,0,2.2c0,0.342,0.463,0.617,1.035,0.617
	c0.187,0,0.358-0.031,0.51-0.083l2.057,0.515c0.03,0.011,0.152,0.06,0.287,0.162c0.152,0.117,0.322,0.293,0.43,0.574
	c0.142,0.372,0.903,2.479,1.625,4.482c0.361,1.002,0.712,1.98,0.975,2.708c0.229,0.644,0.391,1.09,0.427,1.188
	c0.007,0.031,0.024,0.126,0.022,0.237c0.002,0.119-0.019,0.249-0.07,0.35c-0.055,0.104-0.123,0.188-0.293,0.264
	c-0.521,0.229-0.825,0.738-0.83,1.267c-0.003,0.331,0.135,0.683,0.424,0.932c0.291,0.25,0.703,0.382,1.209,0.381
	c0.137,0,0.328,0.001,0.561,0.001h0.689c-0.584,0.186-1.008,0.723-1.008,1.367c0,0.794,0.645,1.438,1.44,1.438
	c0.795,0,1.438-0.645,1.438-1.438c0-0.642-0.424-1.179-1.002-1.365h0.684c0.967,0.001,2.06,0.005,3.117,0.009
	c0.74,0.001,1.461,0.002,2.109,0.003h0.637c-0.557,0.2-0.957,0.727-0.957,1.354c0,0.794,0.643,1.438,1.439,1.438
	c0.793,0,1.438-0.645,1.438-1.438c0-0.625-0.398-1.148-0.953-1.351l0.633,0.002c0.242,0,0.381,0.002,0.381,0.002
	c0.002,0,0.002,0,0.002,0c0.045,0,0.076,0,0.076,0c0.217,0,0.393-0.176,0.393-0.393c0-0.213-0.176-0.39-0.391-0.39
	c0,0-9.055-0.023-10.646-0.023c-0.378,0-0.588-0.094-0.697-0.191c-0.108-0.096-0.15-0.203-0.152-0.337
	c-0.005-0.216,0.145-0.462,0.354-0.546c0.336-0.141,0.565-0.385,0.687-0.637c0.06-0.121,0.095-0.24,0.117-0.352
	c0.073,0.014,0.146,0.026,0.224,0.028l10.254,0.21h0.02c0.004,0,0.01-0.001,0.014-0.001l0.045,0.001h0.021
	c0.229,0,0.438-0.083,0.604-0.214c0.164-0.134,0.293-0.325,0.333-0.557l0.141-0.844c2.739-0.479,4.821-2.862,4.821-5.738
	C24.668,2.61,22.057,0,18.836,0z M19.223,8.104l-1.688,1.689l-1.687-1.689L13.9,6.155l1.687-1.688l1.948,1.952l4.549-4.551
	l1.687,1.688L19.223,8.104z"/>
</svg>
