<?xml version="1.0" encoding="utf-8"?>
<!-- Generator: Adobe Illustrator 17.0.0, SVG Export Plug-In . SVG Version: 6.00 Build 0)  -->
<!DOCTYPE svg PUBLIC "-//W3C//DTD SVG 1.1//EN" "http://www.w3.org/Graphics/SVG/1.1/DTD/svg11.dtd">
<svg version="1.1" id="Capa_1" xmlns="http://www.w3.org/2000/svg" xmlns:xlink="http://www.w3.org/1999/xlink" x="0px" y="0px"
	 width="20.75px" height="17.736px" viewBox="0 0 20.75 17.736" enable-background="new 0 0 20.75 17.736" xml:space="preserve">
<path d="M20.728,5.39c0,0.071-0.006,0.144-0.019,0.218l-0.999,5.939c-0.039,0.234-0.168,0.425-0.332,0.557
	c-0.166,0.132-0.376,0.215-0.605,0.215c-0.004,0-0.009,0-0.02,0h-0.047c-0.003,0-0.008,0-0.012,0c-0.004,0-0.01,0-0.02,0L8.42,12.11
	c-0.079-0.003-0.151-0.013-0.225-0.031c-0.022,0.114-0.058,0.234-0.117,0.354c-0.122,0.25-0.351,0.497-0.686,0.637
	c-0.209,0.085-0.359,0.331-0.355,0.547c0.004,0.134,0.045,0.24,0.154,0.338c0.109,0.095,0.318,0.189,0.696,0.19
	c1.593,0,10.646,0.021,10.646,0.021c0.217,0.001,0.393,0.176,0.391,0.392c0,0.218-0.175,0.392-0.392,0.392c0,0-0.03,0-0.077,0
	c0,0-0.139,0-0.382,0l-0.632-0.002c0.555,0.202,0.953,0.726,0.953,1.35c0,0.795-0.645,1.438-1.439,1.438s-1.439-0.643-1.439-1.438
	c0-0.626,0.401-1.154,0.959-1.352l-0.638-0.002c-0.647,0-1.368-0.003-2.107-0.005c-1.059-0.001-2.151-0.003-3.118-0.006H9.927
	c0.58,0.184,1.003,0.721,1.003,1.364c0,0.795-0.645,1.438-1.439,1.438c-0.794,0-1.439-0.643-1.439-1.438
	c0-0.643,0.424-1.182,1.007-1.367L8.37,14.929c-0.232,0-0.425,0-0.56,0c-0.506,0-0.919-0.132-1.209-0.38
	c-0.289-0.249-0.428-0.603-0.424-0.933c0.004-0.529,0.309-1.038,0.83-1.267c0.168-0.076,0.237-0.16,0.291-0.264
	c0.052-0.103,0.074-0.235,0.072-0.352c0.002-0.111-0.017-0.207-0.023-0.239c-0.035-0.096-0.197-0.543-0.426-1.185
	C6.657,9.58,6.305,8.602,5.944,7.6C5.223,5.598,4.463,3.491,4.319,3.119C4.211,2.84,4.042,2.663,3.891,2.547
	C3.756,2.445,3.634,2.395,3.603,2.383L1.547,1.868C1.394,1.921,1.223,1.952,1.036,1.952C0.465,1.952,0,1.675,0,1.333
	c0-0.341,0.465-0.619,1.036-0.619c0.471,0,0.866,0.191,0.991,0.448l1.865,0.465l0.012,0.004c0.027,0.01,0.236,0.074,0.488,0.255
	c0.254,0.18,0.555,0.484,0.734,0.951c0.015,0.04,0.041,0.108,0.068,0.179l0.154,0.527l2.701,7.806c0,0,8.166,0.107,10.607,0.189
	c0.15,0.007,0.409-0.26,0.434-0.406c0.281-1.476,0.809-4.532,1.084-6.099c0.079-0.446,0.43-0.57,0.551-0.219
	C20.781,4.954,20.725,5.232,20.728,5.39z M10.838,4.711c0.394,0,0.716,0.322,0.716,0.716v3.717c0,0.395,0.323,0.716,0.718,0.716
	h2.049c0.393,0,0.717-0.321,0.717-0.716V5.427c0-0.394,0.319-0.716,0.715-0.716h1.836c0.395,0,0.488-0.229,0.209-0.508l-3.997-3.994
	c-0.276-0.279-0.732-0.279-1.011,0L8.796,4.203C8.515,4.482,8.61,4.711,9.005,4.711H10.838z"/>
</svg>
