<?xml version="1.0" encoding="utf-8"?>
<!-- Generator: Adobe Illustrator 16.0.0, SVG Export Plug-In . SVG Version: 6.00 Build 0)  -->
<!DOCTYPE svg PUBLIC "-//W3C//DTD SVG 1.1//EN" "http://www.w3.org/Graphics/SVG/1.1/DTD/svg11.dtd">
<svg version="1.1" id="Layer_2" xmlns="http://www.w3.org/2000/svg" xmlns:xlink="http://www.w3.org/1999/xlink" x="0px" y="0px"
	 width="96px" height="96px" viewBox="0 0 96 96" enable-background="new 0 0 96 96" xml:space="preserve">
<g>
	<path d="M30.191,50.825c0.702-0.874,1.472-1.713,2.207-2.574c0.774-0.834,1.534-1.681,2.336-2.495
		c1.602-1.623,3.238-3.209,4.957-4.652c0.428-0.362,0.844-0.731,1.276-1.081c0.437-0.342,0.872-0.684,1.305-1.022
		c0.849-0.691,1.748-1.305,2.613-1.923c1.746-1.221,3.498-2.302,5.201-3.24c0.833-0.499,1.702-0.889,2.517-1.302
		c0.807-0.421,1.619-0.768,2.4-1.092c1.445-0.657,2.836-1.106,4.063-1.544c-0.24,0.026-0.492,0.052-0.766,0.082
		c-0.948,0.15-2.097,0.343-3.401,0.588c-1.297,0.317-2.763,0.61-4.319,1.117c-0.39,0.116-0.786,0.236-1.193,0.357
		c-0.402,0.128-0.806,0.287-1.22,0.433c-0.823,0.305-1.684,0.582-2.534,0.966c-1.723,0.703-3.5,1.534-5.286,2.487
		c-0.887,0.485-1.799,0.958-2.681,1.512c-0.444,0.268-0.893,0.537-1.345,0.808c-0.444,0.277-0.882,0.578-1.324,0.867
		c-1.777,1.154-3.517,2.428-5.217,3.745c-0.851,0.656-1.67,1.357-2.499,2.032c-0.801,0.714-1.619,1.394-2.393,2.12
		c-1.561,1.43-3.048,2.888-4.438,4.347c-1.395,1.452-2.687,2.911-3.895,4.304c-1.202,1.396-2.306,2.748-3.292,4.016
		c-1.365,1.749-2.504,3.334-3.417,4.659c2.346,1.908,5.084,3.637,8.158,5.137c0.557-1.091,1.183-2.273,1.888-3.531
		c0.841-1.5,1.782-3.104,2.83-4.767c1.046-1.664,2.194-3.388,3.444-5.126C27.411,54.311,28.76,52.555,30.191,50.825z"/>
	<path d="M48,20.159C21.971,20.159,0.868,32.623,0.868,48c0,3.604,1.173,7.043,3.282,10.205c0.941-1.089,2.026-2.296,3.249-3.583
		c1.188-1.252,2.503-2.578,3.93-3.941c1.422-1.366,2.976-2.751,4.623-4.133c1.643-1.387,3.392-2.761,5.21-4.095
		c0.9-0.677,1.852-1.309,2.782-1.968c0.958-0.623,1.906-1.265,2.882-1.864c0.986-0.588,1.946-1.205,2.956-1.745
		c0.499-0.277,0.996-0.554,1.491-0.83c0.5-0.269,1.013-0.513,1.515-0.768c0.505-0.249,1.003-0.509,1.508-0.745
		c0.51-0.23,1.016-0.458,1.521-0.685c0.996-0.47,2.02-0.856,3.013-1.253c1.997-0.776,3.965-1.424,5.853-1.943
		c0.932-0.292,1.87-0.478,2.765-0.691c0.448-0.1,0.884-0.213,1.32-0.297c0.437-0.075,0.865-0.15,1.285-0.223
		c0.58-0.115,1.141-0.199,1.691-0.275c0.439-0.092,0.956-0.195,1.567-0.308c1.005-0.172,2.231-0.396,3.647-0.556
		c1.417-0.166,3.023-0.349,4.785-0.421c1.76-0.073,3.676-0.043,5.714-0.025c12.506,0.152,22.416,6.744,11.867,13.908
		c-5.384,3.655-14.649,7.984-30.738,9.148c-0.545-0.072-0.832-0.11-0.832-0.11s0.289-0.039,0.832-0.112
		c0.542-0.06,1.335-0.167,2.338-0.312c0.502-0.065,1.056-0.147,1.652-0.258c0.598-0.105,1.236-0.186,1.937-0.331
		c0.707-0.134,1.426-0.264,2.189-0.436c0.768-0.153,1.568-0.332,2.4-0.535c1.661-0.418,3.446-0.896,5.298-1.491
		c1.844-0.611,3.762-1.318,5.672-2.172c1.909-0.847,3.82-1.841,5.57-3.035c13.526-10.362-7.673-17.383-19.623-8.644
		c-0.697,0.41-1.432,0.819-2.148,1.315c-0.723,0.487-1.492,0.948-2.221,1.519c-1.495,1.08-3.012,2.296-4.503,3.637
		c-0.738,0.681-1.502,1.349-2.218,2.095c-0.362,0.364-0.729,0.732-1.096,1.1c-0.362,0.374-0.708,0.77-1.063,1.154
		c-1.431,1.534-2.772,3.199-4.072,4.885c-0.647,0.846-1.257,1.722-1.879,2.579c-0.586,0.888-1.198,1.744-1.75,2.637
		c-1.13,1.766-2.175,3.543-3.127,5.295c-0.958,1.75-1.822,3.472-2.597,5.125c-0.776,1.651-1.462,3.235-2.063,4.706
		c-0.454,1.108-0.856,2.154-1.212,3.12c6.551,2.039,14.01,3.198,21.93,3.198c26.031,0,47.132-12.464,47.132-27.841
		S74.031,20.159,48,20.159z"/>
</g>
</svg>
