<?xml version="1.0" encoding="utf-8"?>
<!-- Generator: Adobe Illustrator 16.0.0, SVG Export Plug-In . SVG Version: 6.00 Build 0)  -->
<!DOCTYPE svg PUBLIC "-//W3C//DTD SVG 1.1//EN" "http://www.w3.org/Graphics/SVG/1.1/DTD/svg11.dtd">
<svg version="1.1" id="Layer_2" xmlns="http://www.w3.org/2000/svg" xmlns:xlink="http://www.w3.org/1999/xlink" x="0px" y="0px"
	 width="96px" height="96px" viewBox="0 0 96 96" enable-background="new 0 0 96 96" xml:space="preserve">
<g>
	<path fill-rule="evenodd" clip-rule="evenodd" d="M94.111,23.557c-0.004-4.703-4.131-8.818-8.821-8.83
		c-6.321-0.015-13.279-0.015-19.502,0.017L34.838,36.6c0.571,0,0.927,0,1.282,0c8.787,0,17.575,0.009,26.362-0.015
		c0.748-0.002,1.271,0.226,1.796,0.75c7.091,7.093,14.2,14.165,21.304,21.244c0.225,0.224,0.429,0.468,0.796,0.872l-22.219,21.83
		l21.19-0.006c4.614-0.016,8.758-4.181,8.762-8.816C94.125,56.158,94.125,39.858,94.111,23.557z"/>
	<path fill-rule="evenodd" clip-rule="evenodd" d="M33.436,59.447c-0.785,0.002-1.327-0.237-1.878-0.788
		c-7.046-7.043-14.115-14.063-21.178-21.09c-0.27-0.269-0.526-0.55-0.842-0.88l22.055-21.968l-20.69,0.001
		c-5.099,0.004-9.02,3.942-9.021,9.063c-0.003,16.169-0.002,32.338,0,48.507c0.001,5.025,3.972,8.984,9.014,8.989l19.262,0.001
		c0,0,30.611-21.544,31.003-21.852C60.59,59.431,42.255,59.421,33.436,59.447z"/>
	<path fill-rule="evenodd" clip-rule="evenodd" d="M53.123,56.321c0.561,0.547,0.939,0.905,2.691,0.872l2.469,0.003L40.712,39.503
		c-0.297-0.291-0.798-0.789-1.836-0.789l-3.381,0.012c0.315,0.339,0.482,0.529,0.661,0.708C41.44,44.72,47.926,50.952,53.123,56.321
		z"/>
</g>
</svg>
