<?xml version="1.0" encoding="utf-8"?>
<!-- Generator: Adobe Illustrator 16.0.4, SVG Export Plug-In . SVG Version: 6.00 Build 0)  -->
<!DOCTYPE svg PUBLIC "-//W3C//DTD SVG 1.1//EN" "http://www.w3.org/Graphics/SVG/1.1/DTD/svg11.dtd">
<svg version="1.1" id="Layer_1" xmlns="http://www.w3.org/2000/svg" xmlns:xlink="http://www.w3.org/1999/xlink" x="0px" y="0px"
	 width="226.77px" height="155.91px" viewBox="0 0 226.77 155.91" enable-background="new 0 0 226.77 155.91" xml:space="preserve">
<path d="M118.869,82.914l-4.487,9.406h27.22c2.598,0,4.703,2.105,4.703,4.702c0,2.598-2.105,4.703-4.703,4.703h-31.707l-2.991,6.271
	h34.698c2.598,0,4.703,2.105,4.703,4.703c0,2.597-2.105,4.702-4.703,4.702h-39.185l-2.217,4.648
	c-0.807,1.69-2.492,2.679-4.248,2.679c-0.679,0-1.368-0.147-2.021-0.46c-2.345-1.118-3.338-3.925-2.22-6.27l0.285-0.598h-6.827
	c-2.598,0-4.703-2.105-4.703-4.703c0-2.597,2.105-4.703,4.703-4.703h11.314l2.991-6.27H85.167c-2.598,0-4.703-2.106-4.703-4.703
	c0-2.598,2.105-4.703,4.703-4.703h18.793l4.487-9.406h-23.28c-2.598,0-4.703-2.105-4.703-4.702c0-2.598,2.105-4.703,4.703-4.703
	h27.767l3.085-6.466c1.118-2.345,3.925-3.338,6.27-2.22c2.344,1.118,3.338,3.926,2.219,6.27l-1.152,2.416h0.219
	c7.348,0,13.325-6.681,13.325-14.893v-4.702c0-7.846-5.479-13.325-13.325-13.325H85.168c-2.598,0-4.703-2.105-4.703-4.703
	s2.105-4.703,4.703-4.703h38.406c12.959,0,22.73,9.772,22.73,22.73v4.703c0,6.282-2.24,12.257-6.31,16.822
	c-4.296,4.821-10.128,7.477-16.421,7.477H118.869z"/>
</svg>
