<?xml version="1.0" encoding="utf-8"?>
<!-- Generator: Adobe Illustrator 16.0.4, SVG Export Plug-In . SVG Version: 6.00 Build 0)  -->
<!DOCTYPE svg PUBLIC "-//W3C//DTD SVG 1.1//EN" "http://www.w3.org/Graphics/SVG/1.1/DTD/svg11.dtd">
<svg version="1.1" id="Layer_1" xmlns="http://www.w3.org/2000/svg" xmlns:xlink="http://www.w3.org/1999/xlink" x="0px" y="0px"
	 width="226.77px" height="155.91px" viewBox="0 0 226.77 155.91" enable-background="new 0 0 226.77 155.91" xml:space="preserve">
<g>
	<path d="M90.447,104.584h20.991l-2.188,4.588H90.447c-2.534,0-4.588,2.054-4.588,4.588c0,2.533,2.054,4.587,4.588,4.587h14.448
		c-0.957,2.248,0.005,4.871,2.231,5.934c0.638,0.305,1.31,0.448,1.973,0.448c1.712,0,3.356-0.964,4.144-2.613l1.796-3.769h22.812
		c2.535,0,4.588-2.054,4.588-4.587c0-2.534-2.053-4.588-4.588-4.588h-18.436l2.188-4.588h16.248c2.534,0,4.588-2.054,4.588-4.588
		c0-2.533-2.054-4.587-4.588-4.587H125.98l1.932-4.048c1.09-2.286,0.121-5.025-2.165-6.116c-2.291-1.093-5.026-0.12-6.116,2.166
		l-3.816,7.998H90.447c-2.534,0-4.588,2.054-4.588,4.587C85.859,102.53,87.913,104.584,90.447,104.584z"/>
	<path d="M119.502,72.471H88.917c-2.534,0-4.588,2.054-4.588,4.588c0,2.533,2.054,4.587,4.588,4.587h30.584
		c12.647,0,22.938-10.29,22.938-22.938V54.12c0-12.648-10.29-22.938-22.938-22.938H88.917c-2.534,0-4.588,2.054-4.588,4.588
		s2.054,4.588,4.588,4.588h30.584c7.589,0,13.762,6.175,13.762,13.763v4.588C133.265,66.296,127.092,72.471,119.502,72.471z"/>
</g>
</svg>
