<?xml version="1.0" encoding="utf-8"?>
<!-- Generator: Adobe Illustrator 16.0.4, SVG Export Plug-In . SVG Version: 6.00 Build 0)  -->
<!DOCTYPE svg PUBLIC "-//W3C//DTD SVG 1.1//EN" "http://www.w3.org/Graphics/SVG/1.1/DTD/svg11.dtd">
<svg version="1.1" id="Layer_1" xmlns="http://www.w3.org/2000/svg" xmlns:xlink="http://www.w3.org/1999/xlink" x="0px" y="0px"
	 width="226.77px" height="155.91px" viewBox="0 0 226.77 155.91" enable-background="new 0 0 226.77 155.91" xml:space="preserve">
<path d="M148.311,32.15c-2.076-1.582-5.044-1.186-6.63,0.894l-4.231,5.548c-3.895-2.836-8.742-4.521-14.079-4.521H85.268
	c-2.612,0-4.73,2.118-4.73,4.73c0,2.613,2.118,4.73,4.73,4.73h38.103c3.194,0,6.063,0.946,8.362,2.559l-23.295,30.55h-23.17
	c-2.612,0-4.73,2.118-4.73,4.73s2.118,4.729,4.73,4.729h15.957l-7.213,9.46h-8.744c-2.612,0-4.73,2.117-4.73,4.729
	c0,2.613,2.118,4.73,4.73,4.73h1.531l-9.234,12.109c-1.583,2.077-1.184,5.046,0.894,6.63c0.856,0.652,1.865,0.968,2.865,0.968
	c1.425,0,2.834-0.64,3.765-1.861l1.586-2.08h55.353c2.612,0,4.729-2.117,4.729-4.729c0-2.613-2.117-4.73-4.729-4.73h-48.14
	l4.809-6.307h43.33c2.613,0,4.73-2.117,4.73-4.729s-2.117-4.729-4.73-4.729h-36.117l7.213-9.46h10.249
	c12.895,0,23.386-10.963,23.386-24.438v-4.73c0-4.079-1.048-7.872-2.889-11.155l5.337-6.999
	C150.789,36.702,150.389,33.734,148.311,32.15z M137.296,56.933v4.73c0,8.118-6.377,14.978-13.927,14.978h-3.034l16.762-21.984
	C137.219,55.394,137.296,56.151,137.296,56.933z"/>
</svg>
