<?xml version="1.0" encoding="utf-8"?>
<!-- Generator: Adobe Illustrator 16.0.4, SVG Export Plug-In . SVG Version: 6.00 Build 0)  -->
<!DOCTYPE svg PUBLIC "-//W3C//DTD SVG 1.1//EN" "http://www.w3.org/Graphics/SVG/1.1/DTD/svg11.dtd">
<svg version="1.1" id="Layer_1" xmlns="http://www.w3.org/2000/svg" xmlns:xlink="http://www.w3.org/1999/xlink" x="0px" y="0px"
	 width="50px" height="50px" viewBox="0 0 50 50" enable-background="new 0 0 50 50" xml:space="preserve">
<path d="M25,11c-7.721,0-14,6.28-14,14s6.279,14,14,14s14-6.28,14-14S32.721,11,25,11z M25,14c5.557,0,10.15,4.144,10.887,9.5
	h-7.883c-0.555-1.104-1.688-1.871-3.004-1.871s-2.449,0.767-3.004,1.871h-7.883C14.85,18.144,19.443,14,25,14z M23.628,25
	c0-0.756,0.615-1.371,1.372-1.371s1.372,0.615,1.372,1.371S25.757,26.371,25,26.371S23.628,25.756,23.628,25z M14.113,26.5h7.883
	c0.326,0.65,0.854,1.177,1.504,1.503v7.882C18.637,35.217,14.782,31.365,14.113,26.5z M26.5,35.885v-7.882
	c0.65-0.327,1.178-0.853,1.504-1.503h7.883C35.218,31.365,31.363,35.217,26.5,35.885z"/>
</svg>
