<?xml version="1.0" encoding="utf-8"?>
<!-- Generator: Adobe Illustrator 16.0.4, SVG Export Plug-In . SVG Version: 6.00 Build 0)  -->
<!DOCTYPE svg PUBLIC "-//W3C//DTD SVG 1.1//EN" "http://www.w3.org/Graphics/SVG/1.1/DTD/svg11.dtd">
<svg version="1.1" id="Layer_1" xmlns="http://www.w3.org/2000/svg" xmlns:xlink="http://www.w3.org/1999/xlink" x="0px" y="0px"
	 width="50px" height="50px" viewBox="0 0 50 50" enable-background="new 0 0 50 50" xml:space="preserve">
<path d="M20.637,25.539c1.059-1.057,2.772-1.057,3.831,0.002c1.059,1.059,1.061,2.773,0.001,3.832c-1.06,1.061-2.773,1.059-3.833,0
	C19.577,28.314,19.577,26.6,20.637,25.539z M23.556,22.436c0-0.555-0.45-1.004-1.004-1.004s-1.004,0.449-1.004,1.004
	c0,0.555,0.45,1.004,1.004,1.004S23.556,22.991,23.556,22.436z M21.548,32.479c0,0.555,0.45,1.005,1.004,1.004
	c0.554,0,1.004-0.449,1.004-1.004s-0.45-1.004-1.004-1.004S21.548,31.924,21.548,32.479z M28.577,27.457
	c0-0.554-0.449-1.004-1.004-1.004c-0.556,0-1.005,0.45-1.004,1.004c0,0.555,0.449,1.006,1.004,1.004
	C28.128,28.463,28.577,28.012,28.577,27.457z M17.532,26.453c-0.556,0-1.004,0.45-1.004,1.004c0,0.555,0.448,1.004,1.004,1.004
	c0.554,0,1.004-0.449,1.004-1.004C18.535,26.903,18.086,26.453,17.532,26.453z M25.392,23.196c-0.392,0.393-0.392,1.029,0,1.421
	c0.394,0.392,1.028,0.393,1.421,0c0.393-0.392,0.393-1.027,0-1.419C26.421,22.806,25.785,22.805,25.392,23.196z M19.712,31.719
	c0.392-0.393,0.392-1.029,0-1.42c-0.392-0.393-1.028-0.393-1.42,0c-0.394,0.393-0.393,1.027,0,1.42
	C18.684,32.11,19.32,32.11,19.712,31.719z M25.392,30.299c-0.392,0.391-0.393,1.027,0,1.42c0.393,0.392,1.027,0.392,1.42,0
	c0.393-0.393,0.394-1.029,0-1.42C26.42,29.906,25.785,29.906,25.392,30.299z M18.292,23.197c-0.394,0.392-0.394,1.028,0,1.42
	c0.392,0.393,1.028,0.392,1.42,0s0.392-1.028,0-1.42S18.684,22.805,18.292,23.197z M22.219,10.811v4
	c7.157,0,12.979,5.823,12.979,12.979h4C39.198,18.429,31.581,10.811,22.219,10.811z M15.476,30.604
	c-0.43-0.963-0.674-2.025-0.674-3.146c0-2.79,1.486-5.232,3.704-6.598c0.048-1.431,0.586-2.789,1.546-3.875
	c0.435-0.491,0.936-0.9,1.483-1.225c-6.004,0.518-10.733,5.562-10.733,11.698c0,0.062,0.008,0.12,0.009,0.181
	c0.317,0.678,0.766,1.289,1.355,1.783C13.104,30.206,14.269,30.602,15.476,30.604z M24.366,15.862l0.002,0.041
	c-1.382,0.085-2.649,0.705-3.566,1.743c-0.672,0.76-1.091,1.681-1.237,2.661c0.921-0.386,1.93-0.6,2.987-0.6
	c3.093,0,5.761,1.826,7.003,4.452c1.381,0.041,2.7,0.535,3.776,1.435c0.348,0.291,0.654,0.617,0.925,0.965
	C33.842,21.107,29.694,16.694,24.366,15.862z M32.689,26.362c-0.787-0.659-1.73-1.06-2.728-1.173c0.22,0.718,0.34,1.479,0.34,2.269
	c0,2.07-0.806,4.017-2.27,5.479c-0.561,0.561-1.19,1.021-1.871,1.381c0.037,1.234-0.295,2.453-0.979,3.515
	c-0.305,0.474-0.669,0.894-1.077,1.261c2.549-0.336,4.906-1.479,6.755-3.328c1.938-1.938,3.115-4.437,3.383-7.129
	C33.938,27.762,33.42,26.973,32.689,26.362z M25.138,34.758c-0.821,0.291-1.689,0.449-2.586,0.449c-2.747,0-5.159-1.441-6.536-3.604
	c-0.178,0.016-0.356,0.025-0.534,0.025c-1.445,0-2.834-0.502-3.957-1.441c-0.177-0.148-0.342-0.307-0.5-0.471
	c1.032,5.273,5.603,9.287,11.13,9.473c0.888-0.409,1.646-1.055,2.188-1.896C24.838,36.521,25.093,35.65,25.138,34.758z"/>
</svg>
