<?xml version="1.0" encoding="utf-8"?>
<!-- Generator: Adobe Illustrator 16.0.0, SVG Export Plug-In . SVG Version: 6.00 Build 0)  -->
<!DOCTYPE svg PUBLIC "-//W3C//DTD SVG 1.1//EN" "http://www.w3.org/Graphics/SVG/1.1/DTD/svg11.dtd">
<svg version="1.1" id="Layer_1" xmlns="http://www.w3.org/2000/svg" xmlns:xlink="http://www.w3.org/1999/xlink" x="0px" y="0px"
	 width="96px" height="96px" viewBox="0 0 96 96" enable-background="new 0 0 96 96" xml:space="preserve">
<g>
	<path fill-rule="evenodd" clip-rule="evenodd" d="M44.197,62.838c-7.943,6.67-14.838,9.446-19.939,8.031
		c-5.432-1.508-7.54-7.422-7.576-7.526c-0.471-1.396-1.982-2.149-3.385-1.685c-1.402,0.468-2.161,1.985-1.693,3.388
		c0.117,0.353,2.969,8.653,11.155,10.967c1.376,0.388,2.804,0.581,4.285,0.581c6.043,0,12.951-3.233,20.598-9.653
		c1.133-0.951,1.28-2.641,0.329-3.773C47.02,62.035,45.33,61.887,44.197,62.838z"/>
	<path fill-rule="evenodd" clip-rule="evenodd" d="M57.973,35.516c-2.64-1.259-7.121,2.635-10.009,8.696
		c-2.887,6.062-3.086,11.993-0.446,13.252c2.642,1.257,7.122-2.635,10.011-8.697C60.415,42.706,60.614,36.773,57.973,35.516z
		 M52.41,49.04c-0.289,0.246-0.925,0.413-1.199,0.258c-0.298-0.165-0.528-0.769-0.492-1.153c0.131-1.378,0.633-2.643,1.71-3.567
		c0.307-0.263,0.901-0.536,1.168-0.406c0.333,0.166,0.466,0.741,0.561,0.913C54.053,46.84,53.521,48.101,52.41,49.04z"/>
	<path fill-rule="evenodd" clip-rule="evenodd" d="M92.148,20.157c-1.978-0.131-3.785,0.444-5.498,1.271
		c-4.199,2.027-7.552,5.13-10.521,8.659c-1.343,1.595-2.562,3.295-4.004,5.163c-0.064-0.713-0.13-1.189-0.146-1.665
		c-0.12-3.521-1.025-6.803-3.01-9.739c-1.079-1.596-2.326-3.07-4.243-3.655c-3.467-1.058-6.831-0.448-9.924,1.216
		c-4.491,2.413-8.08,5.927-11.187,9.939c-0.692,0.893-1.371,1.794-2.129,2.786c-0.078-0.267-0.12-0.353-0.127-0.443
		c-0.027-0.291-0.045-0.58-0.062-0.87c-0.216-3.864-1.37-7.379-3.839-10.415c-1.018-1.252-2.211-2.294-3.791-2.652
		c-3.23-0.732-6.377-0.287-9.322,1.18c-3.546,1.765-6.458,4.395-9.08,7.302C9.053,35.125,4.833,43.239,1.222,51.697
		c-0.843,1.972,0.07,3.834,1.986,4.436c1.164,0.364,3.192-0.297,3.76-2.505c0.272-1.058,0.627-2.108,1.069-3.106
		c3.096-6.961,6.966-13.452,12.002-19.189c2.318-2.641,5.089-4.808,8.434-5.979c2.777-0.972,4.91-0.428,6.047,2.39
		c0.452,1.124,0.75,2.326,0.981,3.521c0.863,4.465,0.501,8.896-0.788,13.213c-0.788,2.642-1.93,5.181-2.96,7.746
		c-0.57,1.421,0.034,3.298,1.351,3.929c1.689,0.81,3.539,0.335,4.293-1.149c0.379-0.744,0.676-1.529,0.981-2.308
		c0.868-2.214,1.557-4.517,2.611-6.637c2.461-4.943,5.514-9.533,9.111-13.722c2.736-3.187,5.936-5.813,10.099-6.954
		c2.115-0.58,4.047,0.27,4.834,2.322c0.675,1.758,1.264,3.623,1.436,5.483c0.474,5.146-0.283,10.166-2.138,15.01
		c-0.633,1.653-1.295,3.305-1.788,5.001c-0.473,1.628,0.509,3.135,2.127,3.558c1.759,0.46,3.293-0.384,3.842-2.015
		c0.513-1.524,0.978-3.093,1.724-4.505c1.933-3.664,3.876-7.336,6.065-10.851c2.367-3.801,4.973-7.462,8.574-10.26
		c2.145-1.666,4.263-3.335,7.25-3.146c1.773,0.111,2.953-1.107,2.968-2.812C95.109,21.427,93.914,20.274,92.148,20.157z"/>
	<path fill-rule="evenodd" clip-rule="evenodd" d="M18.97,57.267c0.861-0.303,1.704-0.79,2.411-1.37
		c2.76-2.253,4.53-5.221,5.86-8.477c1.007-2.465,1.691-5,1.551-7.699c-0.024-0.419-0.023-0.842-0.079-1.256
		c-0.314-2.337-2.318-4.061-4.418-2.839c-1.179,0.686-2.361,1.462-3.314,2.423c-2.563,2.59-4.218,5.764-5.282,9.223
		c-0.772,2.511-1.248,5.069-0.605,7.723C15.539,56.834,17.173,57.896,18.97,57.267z M21.485,44.577
		c0.305-0.263,0.9-0.536,1.167-0.406c0.334,0.166,0.466,0.741,0.562,0.913c-0.104,1.756-0.638,3.017-1.748,3.956
		c-0.29,0.246-0.925,0.413-1.2,0.258c-0.296-0.165-0.527-0.769-0.491-1.153C19.905,46.767,20.408,45.502,21.485,44.577z"/>
</g>
</svg>
