<?xml version="1.0" encoding="utf-8"?>
<!-- Generator: Adobe Illustrator 17.0.0, SVG Export Plug-In . SVG Version: 6.00 Build 0)  -->
<!DOCTYPE svg PUBLIC "-//W3C//DTD SVG 1.1//EN" "http://www.w3.org/Graphics/SVG/1.1/DTD/svg11.dtd">
<svg version="1.1" id="Capa_1" xmlns="http://www.w3.org/2000/svg" xmlns:xlink="http://www.w3.org/1999/xlink" x="0px" y="0px"
	 width="17.012px" height="23.265px" viewBox="0 0 17.012 23.265" enable-background="new 0 0 17.012 23.265" xml:space="preserve">
<path d="M7.568,14.156h1.873v9.109H7.568V14.156z M3.727,9.866c0.906,0,1.643-0.736,1.643-1.642c0-0.619-0.344-1.15-0.847-1.43
	V3.631H7.4c0.61,0,1.104-0.493,1.104-1.106V1.106C8.504,0.494,8.011,0,7.399,0H4.522H4.036H2.932v1.106v1.419v4.27
	c-0.505,0.279-0.848,0.811-0.848,1.43C2.084,9.13,2.819,9.866,3.727,9.866z M16.36,5.08h-1.711h-2.108H5.246v1.338
	c0.531,0.444,0.847,1.104,0.847,1.807c0,1.305-1.062,2.365-2.365,2.365c-1.305,0-2.366-1.061-2.366-2.365
	c0-0.702,0.315-1.362,0.847-1.807V5.08H0.65C0.291,5.08,0,5.371,0,5.73v0.474v5.686v1.565h17.012V11.89V6.204V5.73
	C17.011,5.371,16.72,5.08,16.36,5.08z"/>
</svg>
