<?xml version="1.0" encoding="utf-8"?>
<!-- Generator: Adobe Illustrator 16.0.4, SVG Export Plug-In . SVG Version: 6.00 Build 0)  -->
<!DOCTYPE svg PUBLIC "-//W3C//DTD SVG 1.1//EN" "http://www.w3.org/Graphics/SVG/1.1/DTD/svg11.dtd">
<svg version="1.1" id="Layer_1" xmlns="http://www.w3.org/2000/svg" xmlns:xlink="http://www.w3.org/1999/xlink" x="0px" y="0px"
	 width="226.77px" height="155.91px" viewBox="0 0 226.77 155.91" enable-background="new 0 0 226.77 155.91" xml:space="preserve">
<g>
	<path d="M141.055,37.341c-2.365,0-4.285,1.918-4.285,4.285v76.693c0,2.365,1.92,4.285,4.285,4.285h20.662
		c2.365,0,4.285-1.92,4.285-4.285V41.626c0-2.367-1.92-4.285-4.285-4.285H141.055z"/>
	<path d="M104.512,30.033c-2.365,0-4.285,1.917-4.285,4.285v84.001c0,2.365,1.92,4.285,4.285,4.285h23.099
		c2.365,0,4.285-1.92,4.285-4.285V34.318c0-2.368-1.92-4.285-4.285-4.285H104.512z"/>
	<path d="M70.407,61.702c-2.365,0-4.285,1.917-4.285,4.285v52.332c0,2.365,1.919,4.285,4.285,4.285H91.07
		c2.366,0,4.285-1.92,4.285-4.285V65.987c0-2.368-1.919-4.285-4.285-4.285H70.407z"/>
	<path d="M178.805,120.383c-2.479-2.146-6.221-1.878-8.373,0.597c-1.609,1.854-1.861,4.422-0.846,6.497H56.377V29.319
		c0.473,0.117,0.953,0.192,1.44,0.192c1.301,0,2.614-0.427,3.708-1.306c2.558-2.052,2.965-5.786,0.914-8.342l-7.143-8.901
		c-1.101-1.374-2.755-2.188-4.517-2.219c-1.744-0.032-3.44,0.716-4.597,2.046l-7.715,8.899c-2.146,2.478-1.878,6.224,0.597,8.373
		c1.467,1.267,3.374,1.673,5.133,1.296v104.209c0,3.363,2.726,6.09,6.09,6.09h119.971c-0.574,2.088-0.008,4.412,1.705,5.969
		c1.135,1.032,2.566,1.541,3.988,1.541c1.615,0,3.223-0.654,4.395-1.943l7.863-8.653c1.074-1.181,1.627-2.747,1.533-4.341
		c-0.096-1.596-0.83-3.087-2.037-4.132L178.805,120.383z"/>
</g>
</svg>
