<?xml version="1.0" encoding="utf-8"?>
<!-- Generator: Adobe Illustrator 16.0.4, SVG Export Plug-In . SVG Version: 6.00 Build 0)  -->
<!DOCTYPE svg PUBLIC "-//W3C//DTD SVG 1.1//EN" "http://www.w3.org/Graphics/SVG/1.1/DTD/svg11.dtd">
<svg version="1.1" id="Layer_1" xmlns="http://www.w3.org/2000/svg" xmlns:xlink="http://www.w3.org/1999/xlink" x="0px" y="0px"
	 width="226.77px" height="155.91px" viewBox="0 0 226.77 155.91" enable-background="new 0 0 226.77 155.91" xml:space="preserve">
<g>
	<path d="M174.287,126.676V38.978c0-2.692-2.181-4.873-4.872-4.873h-24.361c-2.691,0-4.871,2.181-4.871,4.873v87.698
		c0,2.693,2.18,4.873,4.871,4.873h24.361C172.106,131.549,174.287,129.369,174.287,126.676z"/>
	<path d="M98.769,131.549h26.797c2.691,0,4.872-2.18,4.872-4.873V29.233c0-2.692-2.181-4.872-4.872-4.872H98.769
		c-2.692,0-4.873,2.18-4.873,4.872v97.443C93.896,129.369,96.076,131.549,98.769,131.549z"/>
	<path d="M57.354,63.338c-2.692,0-4.872,2.18-4.872,4.872v58.465c0,2.693,2.18,4.873,4.872,4.873h24.361
		c2.692,0,4.872-2.18,4.872-4.873V68.21c0-2.692-2.18-4.872-4.872-4.872H57.354z"/>
</g>
</svg>
