<?xml version="1.0" encoding="utf-8"?>
<!-- Generator: Adobe Illustrator 16.0.4, SVG Export Plug-In . SVG Version: 6.00 Build 0)  -->
<!DOCTYPE svg PUBLIC "-//W3C//DTD SVG 1.1//EN" "http://www.w3.org/Graphics/SVG/1.1/DTD/svg11.dtd">
<svg version="1.1" id="Layer_1" xmlns="http://www.w3.org/2000/svg" xmlns:xlink="http://www.w3.org/1999/xlink" x="0px" y="0px"
	 width="50px" height="50px" viewBox="0 0 50 50" enable-background="new 0 0 50 50" xml:space="preserve">
<path d="M21.083,22.61v1.078c-1.634,0.662-2.941,1.564-2.814,2.876c0.043,0.424,0.293,1.176,1.502,1.451
	c0.3,0.068,0.646,0.102,1.019,0.102c0.095,0,0.197-0.012,0.295-0.016v1.033h-3.062c-0.276,0-0.5,0.223-0.5,0.5
	c0,0.275,0.224,0.5,0.5,0.5h5.625c0.275,0,0.5-0.225,0.5-0.5c0-0.277-0.225-0.5-0.5-0.5h-1.562V28
	c1.515-0.248,3.071-0.891,3.583-1.73c0.145-0.234,0.069-0.543-0.167-0.686c-0.234-0.144-0.542-0.07-0.686,0.166
	c-0.296,0.484-1.496,1-2.729,1.236v-2.597c1.043-0.373,2.144-0.664,2.854-0.852c0.502-0.133,0.925-0.244,1.21-0.34
	c2.067-0.682,3.496-2.032,3.916-3.707c0.374-1.492-0.102-3.028-1.337-4.326c-1.576-1.653-3.69-1.887-5.356-1.905
	c-0.607-0.032-2.86,0.188-3.444,1.261c-0.133,0.242-0.043,0.547,0.199,0.678c0.242,0.135,0.546,0.045,0.678-0.198
	c0.199-0.363,1.554-0.702,2.557-0.739c2.183,0.024,3.615,0.518,4.643,1.596c0.991,1.041,1.379,2.246,1.092,3.394
	c-0.335,1.335-1.522,2.43-3.259,3.002c-0.271,0.09-0.674,0.194-1.152,0.319c-0.796,0.209-1.712,0.453-2.6,0.748V22.61
	c2.938-0.254,5.25-2.723,5.25-5.725c0-0.275-0.224-0.5-0.5-0.5h-10.5c-0.275,0-0.5,0.225-0.5,0.5
	C15.833,19.887,18.145,22.354,21.083,22.61z M21.083,27.104c-0.396,0.021-0.773,0.012-1.091-0.061
	c-0.688-0.158-0.718-0.473-0.729-0.574c-0.062-0.639,0.752-1.208,1.818-1.683L21.083,27.104L21.083,27.104z M26.306,17.385
	c-0.25,2.385-2.272,4.25-4.723,4.25c-1.68,0-3.144-0.888-3.988-2.208h3.654c0.276,0,0.5-0.224,0.5-0.5s-0.224-0.5-0.5-0.5h-4.145
	c-0.115-0.334-0.207-0.679-0.245-1.042H26.306z M34.116,24.495c-0.696-1.482-1.624-2.793-2.758-3.896
	c-0.106-0.104-0.255-0.154-0.402-0.14c-0.148,0.017-0.281,0.099-0.363,0.222c-0.498,0.754-0.964,1.514-1.429,2.272
	c-0.385,0.628-0.771,1.256-1.174,1.881c-0.129,0.199-0.101,0.461,0.067,0.627c0.327,0.323,0.684,0.641,1.03,0.95
	c0.239,0.213,0.476,0.424,0.692,0.629c-1.542,2.094-4.046,4.32-6.329,5.629c-0.44-0.627-0.891-1.256-1.348-1.891
	c-0.145-0.197-0.41-0.264-0.627-0.154c-0.646,0.318-1.298,0.613-1.946,0.91c-0.822,0.375-1.645,0.75-2.462,1.17
	c-0.133,0.066-0.229,0.189-0.261,0.334s0,0.297,0.091,0.414c1.025,1.342,2.28,2.486,3.534,3.223c0.077,0.047,0.164,0.07,0.253,0.07
	c0.021,0,0.045-0.002,0.065-0.006c2.046-0.271,5.958-1.207,9.179-4.42c2.085-2.076,3.504-4.6,4.218-7.491
	C34.177,24.716,34.165,24.598,34.116,24.495z M29.227,31.609c-2.925,2.918-6.471,3.83-8.432,4.113
	c-0.947-0.582-1.894-1.422-2.72-2.406c0.623-0.305,1.247-0.588,1.872-0.873c0.53-0.242,1.062-0.484,1.594-0.738
	c0.459,0.637,0.909,1.27,1.351,1.904c0.146,0.207,0.423,0.273,0.646,0.154c2.672-1.424,5.611-4.037,7.311-6.5
	c0.138-0.197,0.113-0.465-0.055-0.635c-0.307-0.312-0.668-0.635-1.04-0.967c-0.232-0.208-0.472-0.419-0.701-0.634
	c0.328-0.518,0.646-1.035,0.964-1.555c0.354-0.574,0.705-1.148,1.071-1.723c0.811,0.878,1.51,1.904,2.047,3.008
	C32.453,27.4,31.139,29.705,29.227,31.609z"/>
</svg>
