<?xml version="1.0" encoding="utf-8"?>
<!-- Generator: Adobe Illustrator 16.0.0, SVG Export Plug-In . SVG Version: 6.00 Build 0)  -->
<!DOCTYPE svg PUBLIC "-//W3C//DTD SVG 1.1//EN" "http://www.w3.org/Graphics/SVG/1.1/DTD/svg11.dtd">
<svg version="1.1" id="Layer_1" xmlns="http://www.w3.org/2000/svg" xmlns:xlink="http://www.w3.org/1999/xlink" x="0px" y="0px"
	 width="96px" height="96px" viewBox="0 0 96 96" enable-background="new 0 0 96 96" xml:space="preserve">
<path d="M94.425,69.244c-0.415-10.932-4.849-21.567-12.348-29.621c-4.064-4.364-8.283-7.504-13.643-10.152
	c-6.533-3.228-12.964-4.721-20.321-4.721c-4.602,0-8.4,0.504-12.489,1.653c-7.744,2.179-14.362,6-20.081,11.601
	c-3.539,3.465-6.219,7.021-8.489,11.268c-3.36,6.281-5.167,12.92-5.473,20.09L1.5,71.25H48h46.5L94.425,69.244z M73.728,52.246
	v13.947h-5.866h-5.867l-0.029-7.655c-0.028-7.214-0.042-7.652-0.232-7.601c-0.111,0.03-3.077,2.016-6.591,4.412
	c-3.516,2.396-6.526,4.444-6.692,4.552l-0.303,0.194l-6.652-4.6c-3.723-2.574-6.724-4.574-6.813-4.539
	c-0.132,0.051-0.163,1.367-0.188,7.707l-0.03,7.646l-5.758,0.03c-3.168,0.017-5.795-0.005-5.838-0.048s-0.079-6.372-0.079-14.065
	V38.24h5.155h5.154l7.391,5.4c4.066,2.971,7.489,5.453,7.606,5.516c0.157,0.084,0.29,0.063,0.493-0.078
	c0.154-0.106,3.561-2.589,7.568-5.517l7.289-5.324l5.141,0.03l5.142,0.03V52.246z"/>
</svg>
