<?xml version="1.0" encoding="utf-8"?>
<!-- Generator: Adobe Illustrator 16.0.0, SVG Export Plug-In . SVG Version: 6.00 Build 0)  -->
<!DOCTYPE svg PUBLIC "-//W3C//DTD SVG 1.1//EN" "http://www.w3.org/Graphics/SVG/1.1/DTD/svg11.dtd">
<svg version="1.1" id="Layer_1" xmlns="http://www.w3.org/2000/svg" xmlns:xlink="http://www.w3.org/1999/xlink" x="0px" y="0px"
	 width="96px" height="96px" viewBox="0 0 96 96" enable-background="new 0 0 96 96" xml:space="preserve">
<g id="_x23_0048c5ff">
	<path d="M9.063,1.458h78.754c3.289,0.408,6.124,2.986,6.202,6.422v12.786c-10.104-0.183-20.212-0.025-30.319-0.084
		c-2.96-0.083-6.165,0.675-8.174,3.013c-4.57,5.099-8.995,10.328-13.556,15.437c-3.749,0.105-7.503-0.089-11.253,0.1
		c-2.567,0.067-5.01,1.307-6.684,3.241c-5.297,6.041-10.548,12.123-15.839,18.163c-2.046,2.322-3.976,4.748-6.213,6.893V7.702
		c0.286-1.438,0.69-2.913,1.721-4.011C4.977,2.075,7.158,1.74,9.063,1.458z"/>
	<path d="M60.979,32.761c2.125-2.312,5.472-2.746,8.452-2.62c8.193,0.157,16.408-0.241,24.588,0.209v8.67
		c-12.743-0.105-25.489,0.032-38.231-0.068C57.58,36.944,59.182,34.77,60.979,32.761z"/>
	<path d="M32.463,49.742c1.81-1.129,3.986-1.506,6.098-1.459c18.486,0.053,36.973-0.047,55.458,0.047v8.979
		c-16.206-0.157-32.411,0-48.618-0.079c-3.215-0.073-6.698,0.795-8.873,3.32c-2.124,2.385-4.257,4.764-6.402,7.128
		c21.295,0.089,42.595-0.047,63.894,0.047v21.048c-0.506,2.871-2.725,5.385-5.694,5.768H7.075c-3.028-0.669-5.104-3.509-5.094-6.579
		v-4.34c8.152-9.298,16.304-18.602,24.447-27.91C28.315,53.616,30.037,51.264,32.463,49.742z"/>
</g>
</svg>
