<?xml version="1.0" encoding="utf-8"?>
<!-- Generator: Adobe Illustrator 16.0.4, SVG Export Plug-In . SVG Version: 6.00 Build 0)  -->
<!DOCTYPE svg PUBLIC "-//W3C//DTD SVG 1.1//EN" "http://www.w3.org/Graphics/SVG/1.1/DTD/svg11.dtd">
<svg version="1.1" id="Layer_1" xmlns="http://www.w3.org/2000/svg" xmlns:xlink="http://www.w3.org/1999/xlink" x="0px" y="0px"
	 width="50px" height="50px" viewBox="0 0 50 50" enable-background="new 0 0 50 50" xml:space="preserve">
<path d="M36.877,23.891v1.42l-10.932-7.493h1.93v-1.5H26.75v-1.75h-1v1.75h-1.5v-1.75h-1v1.75h-1.125v1.5h1.93l-10.932,7.493v-1.42
	h-1.5v4.25h1.5v-1.42l9.82,6.732H21.5v0.979h-2v1h11v-1h-2v-0.979h-1.443l9.82-6.732v1.42h1.5v-4.25H36.877z M15.477,25.516
	L25,18.988l9.523,6.527H15.477z M34.523,26.516L25,33.044l-9.523-6.528H34.523z"/>
</svg>
