<?xml version="1.0" encoding="utf-8"?>
<!-- Generator: Adobe Illustrator 16.0.4, SVG Export Plug-In . SVG Version: 6.00 Build 0)  -->
<!DOCTYPE svg PUBLIC "-//W3C//DTD SVG 1.1//EN" "http://www.w3.org/Graphics/SVG/1.1/DTD/svg11.dtd">
<svg version="1.1" id="Layer_1" xmlns="http://www.w3.org/2000/svg" xmlns:xlink="http://www.w3.org/1999/xlink" x="0px" y="0px"
	 width="226.77px" height="155.91px" viewBox="0 0 226.77 155.91" enable-background="new 0 0 226.77 155.91" xml:space="preserve">
<g>
	<path d="M171.096,120.542L119.09,9.695c-1.004-2.137-3.152-3.503-5.515-3.503h-0.38c-2.363,0-4.512,1.367-5.515,3.503
		L55.674,120.542c-0.475,1.018-0.663,2.148-0.539,3.264c0.292,2.614,4.373,25.395,56.915,25.721
		c0.497,0.127,1.009,0.192,1.525,0.192c53.63,0,57.765-23.265,58.059-25.917C171.758,122.686,171.573,121.558,171.096,120.542z
		 M114.689,137.536c-0.486-0.125-0.988-0.188-1.495-0.188c-34.902,0-43.492-10.184-45.45-13.856l1.652-3.519
		c0.299-0.34,0.478-0.744,0.555-1.181l43.434-92.577l40.916,87.205c-1.218-0.429-2.582,0.156-3.069,1.377
		c-0.499,1.25,0.11,2.667,1.359,3.166c1.803,0.722,3.418,1.514,4.938,2.337l1.505,3.208
		C157.112,127.171,148.723,137.317,114.689,137.536z"/>
	<path d="M98.033,107.724c-2.777,0.263-5.499,0.613-8.09,1.035c-1.328,0.217-2.229,1.471-2.012,2.797
		c0.195,1.193,1.23,2.043,2.402,2.043c0.132,0,0.261-0.01,0.395-0.031c2.487-0.406,5.099-0.743,7.767-0.996
		c1.34-0.127,2.321-1.316,2.192-2.656C100.562,108.575,99.395,107.55,98.033,107.724z"/>
	<path d="M81.913,110.397c-2.792,0.697-5.447,1.508-7.893,2.407c-1.262,0.463-1.907,1.866-1.445,3.128
		c0.361,0.984,1.294,1.594,2.285,1.594c0.28,0,0.563-0.049,0.843-0.151c2.282-0.841,4.767-1.596,7.389-2.251
		c1.306-0.326,2.097-1.649,1.776-2.955C84.539,110.87,83.216,110.081,81.913,110.397z"/>
	<path d="M146.545,110.834c-2.536-0.683-5.229-1.284-8.006-1.78c-1.332-0.249-2.589,0.645-2.828,1.968
		c-0.238,1.325,0.646,2.59,1.969,2.829c2.641,0.473,5.196,1.042,7.596,1.689c0.212,0.057,0.426,0.084,0.639,0.084
		c1.071,0,2.056-0.715,2.351-1.801C148.613,112.522,147.846,111.188,146.545,110.834z"/>
	<path d="M130.457,107.898c-2.629-0.282-5.355-0.499-8.105-0.646c-1.322-0.093-2.487,0.965-2.561,2.307
		c-0.068,1.343,0.965,2.488,2.307,2.561c2.658,0.139,5.295,0.349,7.835,0.621c0.091,0.01,0.179,0.015,0.263,0.015
		c1.23,0,2.285-0.925,2.42-2.175C132.762,109.243,131.794,108.045,130.457,107.898z"/>
	<path d="M114.254,106.071h-0.872c-2.523,0-4.936,0.256-7.242,0.352c-1.345,0.053-2.388,1.393-2.334,2.735
		c0.054,1.311,1.133,1.786,2.431,1.786c0.034,0,0.068,0,0.103,0c2.244,0,4.589,0,7.045,0h0.828c0.008,0,0.015,0,0.021,0
		c1.338,0,2.424-1.078,2.437-2.415C116.684,107.183,115.599,106.071,114.254,106.071z"/>
</g>
</svg>
