<?xml version="1.0" encoding="utf-8"?>
<!-- Generator: Adobe Illustrator 16.0.0, SVG Export Plug-In . SVG Version: 6.00 Build 0)  -->
<!DOCTYPE svg PUBLIC "-//W3C//DTD SVG 1.1//EN" "http://www.w3.org/Graphics/SVG/1.1/DTD/svg11.dtd">
<svg version="1.1" id="Layer_2" xmlns="http://www.w3.org/2000/svg" xmlns:xlink="http://www.w3.org/1999/xlink" x="0px" y="0px"
	 width="96px" height="96px" viewBox="0 0 96 96" enable-background="new 0 0 96 96" xml:space="preserve">
<g>
	<polygon points="18.419,94.444 32.876,94.444 18.419,37.464 	"/>
	<polygon points="47.084,94.444 61.59,94.444 61.59,37.464 	"/>
	<polygon points="83.323,1.556 83.323,7.946 72.041,7.946 72.041,1.556 64.253,1.556 64.253,7.946 52.971,7.946 52.971,1.556 
		43.406,1.556 43.406,7.946 32.124,7.946 32.124,1.556 22.638,1.556 22.638,7.946 11.355,7.946 11.355,1.556 3.468,1.556 
		3.468,94.444 4.711,94.444 4.711,22.059 26.794,22.059 40.055,71.435 53.165,22.059 75.299,22.059 75.299,94.444 92.532,94.444 
		92.532,1.556 	"/>
</g>
</svg>
