<?xml version="1.0" encoding="utf-8"?>
<!-- Generator: Adobe Illustrator 16.0.0, SVG Export Plug-In . SVG Version: 6.00 Build 0)  -->
<!DOCTYPE svg PUBLIC "-//W3C//DTD SVG 1.1//EN" "http://www.w3.org/Graphics/SVG/1.1/DTD/svg11.dtd">
<svg version="1.1" id="Layer_2" xmlns="http://www.w3.org/2000/svg" xmlns:xlink="http://www.w3.org/1999/xlink" x="0px" y="0px"
	 width="96px" height="96px" viewBox="0 0 96 96" enable-background="new 0 0 96 96" xml:space="preserve">
<g>
	<path d="M21.234,34.939c-0.047,0.038-0.097,0.071-0.145,0.107V61.12c0.854,0.591,1.707,1.022,2.549,1.63V49.805l6.59-0.342v16.189
		c0.864,0.309,1.711,0.655,2.549,1.022V29.376c-0.818,0.474-1.668,0.907-2.549,1.312v14.946l-6.59,0.341v-12.62
		C22.816,33.908,22.006,34.318,21.234,34.939z"/>
	<polygon points="35.016,67.419 46.9,67.441 46.907,63.617 37.762,63.604 43.976,47.759 38.443,32.652 47.011,32.042 47.003,28.244 
		35.131,28.91 35.071,32.356 40.591,47.26 35.016,63.195 	"/>
	<path d="M52.238,56.914h4.922l1.585,10.643l3.227-0.797l-6.115-37.984l-3.153,0.045l-5.069,38.695h3.213L52.238,56.914z
		 M54.001,34.988l2.442,17.464h-3.62L54.001,34.988z"/>
	<path d="M75.632,37.584c-1.753-4.51-10.109-6.27-11.056-6.455l-1.9-0.373V66.76l3.187-1.024V34.73
		c2.526,0.742,5.801,2.102,6.691,3.773v23.834c1.052-0.594,2.134-1.139,3.187-1.727V37.864L75.632,37.584z"/>
	<path d="M87.107,40.851c-5.446-11.123-21.806-19.26-39.404-19.26c-17.452,0-33.924,8.169-39.392,19.26H1.097v4.143h17.365v-4.143
		h-5.745c5.217-8.022,18.58-15.436,34.985-15.436c16.531,0,29.794,7.367,34.999,15.436h-5.164v4.143h17.365v-4.143H87.107z"/>
	<rect x="1.097" y="46.904" width="17.365" height="4.143"/>
	<rect x="77.538" y="46.904" width="17.365" height="4.143"/>
	<path d="M77.538,56.782h4.163c-5.757,7.276-18.203,13.803-33.833,13.803c-16.121,0-28.265-6.775-33.828-13.803h4.422V52.64H1.097
		v4.143h8.286c6.344,10.401,22.059,17.627,38.485,17.627c16.387,0,32.207-7.331,38.487-17.627h8.547V52.64H77.538V56.782z"/>
</g>
</svg>
