<?xml version="1.0" encoding="utf-8"?>
<!-- Generator: Adobe Illustrator 16.0.0, SVG Export Plug-In . SVG Version: 6.00 Build 0)  -->
<!DOCTYPE svg PUBLIC "-//W3C//DTD SVG 1.1//EN" "http://www.w3.org/Graphics/SVG/1.1/DTD/svg11.dtd">
<svg version="1.1" id="Layer_1" xmlns="http://www.w3.org/2000/svg" xmlns:xlink="http://www.w3.org/1999/xlink" x="0px" y="0px"
	 width="96px" height="96px" viewBox="0 0 96 96" enable-background="new 0 0 96 96" xml:space="preserve">
<g>
	<path fill-rule="evenodd" clip-rule="evenodd" d="M93.893,43.339C92.176,28.509,84.998,17.044,72.52,8.922
		c-5.8-3.775-12.23-5.916-19.09-6.765c-1.241-0.154-2.49-0.248-3.735-0.37c-1.13,0-2.259,0-3.389,0
		c-0.989,0.106-1.979,0.204-2.968,0.319c-15.257,1.785-26.902,9.275-34.979,22.29c-3.451,5.562-5.4,11.685-6.202,18.174
		c-0.153,1.241-0.248,2.49-0.37,3.735c0,1.129,0,2.259,0,3.389c0.106,0.989,0.204,1.979,0.32,2.967
		c1.781,15.225,9.246,26.858,22.227,34.937c5.581,3.473,11.725,5.434,18.238,6.243c1.24,0.153,2.489,0.249,3.733,0.371
		c1.13,0,2.259,0,3.389,0c0.989-0.106,1.977-0.225,2.966-0.317c19.417-1.82,36.031-16.394,40.258-35.411
		c0.574-2.587,0.764-5.259,1.134-7.892c0.042-0.301,0.106-0.599,0.161-0.898c0-1.129,0-2.259,0-3.389
		C94.105,45.317,94.007,44.328,93.893,43.339z M47.948,85.473C27.224,85.457,10.507,68.65,10.527,47.852
		c0.021-20.583,16.839-37.33,37.484-37.326c20.734,0.004,37.475,16.798,37.461,37.582C85.459,68.733,68.63,85.489,47.948,85.473z"/>
	<path fill-rule="evenodd" clip-rule="evenodd" d="M48.521,31.122c0,2.984,0,5.871,0,8.836l5.37,0l15.091,26.35l9.979-0.003
		c-0.141-0.288-20.179-35.188-20.179-35.188S48.828,31.107,48.521,31.122z"/>
	<path fill-rule="evenodd" clip-rule="evenodd" d="M32.856,31.122c0,2.984,0,5.871,0,8.836l5.371,0l15.091,26.35l9.979-0.003
		c-0.141-0.288-20.179-35.188-20.179-35.188S33.165,31.107,32.856,31.122z"/>
	<path fill-rule="evenodd" clip-rule="evenodd" d="M17.055,31.122c0,2.984,0,5.871,0,8.836l5.371,0l15.091,26.35l9.979-0.003
		c-0.141-0.288-20.179-35.188-20.179-35.188S17.363,31.107,17.055,31.122z"/>
	<path fill-rule="evenodd" clip-rule="evenodd" d="M22.257,48.023c-2.937-0.002-5.206,2.273-5.202,5.215
		c0.004,2.918,2.308,5.209,5.23,5.202c2.852-0.008,5.184-2.342,5.189-5.193C27.479,50.335,25.172,48.025,22.257,48.023z"/>
</g>
</svg>
