<?xml version="1.0" encoding="utf-8"?>
<!-- Generator: Adobe Illustrator 16.0.4, SVG Export Plug-In . SVG Version: 6.00 Build 0)  -->
<!DOCTYPE svg PUBLIC "-//W3C//DTD SVG 1.1//EN" "http://www.w3.org/Graphics/SVG/1.1/DTD/svg11.dtd">
<svg version="1.1" id="Layer_1" xmlns="http://www.w3.org/2000/svg" xmlns:xlink="http://www.w3.org/1999/xlink" x="0px" y="0px"
	 width="226.77px" height="155.91px" viewBox="0 0 226.77 155.91" enable-background="new 0 0 226.77 155.91" xml:space="preserve">
<g>
	<path d="M116.905,40.902c-1.945-2.061-5.095-1.885-7.039,0.173L41.11,113.349c-1.944,2.059-1.223,3.12,1.61,3.12h18.005v-8.865
		c0-1.414,0.792-2.859,2.208-2.859c1.415,0,2.665,1.445,2.665,2.859v8.865h4.872v-6.302c0-1.415,1.218-2.563,2.633-2.563
		s2.239,1.148,2.239,2.563v6.302h4.872v-8.865c0-1.414,1.021-2.562,2.436-2.562c1.416,0,2.437,1.148,2.437,2.562v8.865h4.872v-6.302
		c0-1.415,1.021-2.563,2.436-2.563s2.436,1.148,2.436,2.563v6.302h4.872v-8.865c0-1.414,0.943-2.706,2.361-2.706
		c1.417,0,2.512,1.292,2.512,2.706v8.865h4.872v-6.302c0-1.415,1.069-2.395,2.485-2.395c1.415,0,2.387,0.979,2.387,2.395v6.302
		h4.873v-8.865c0-1.414,1.021-2.562,2.436-2.562c1.416,0,2.437,1.148,2.437,2.562v8.865h4.872v-6.302
		c0-1.415,1.021-2.563,2.436-2.563c1.416,0,2.437,1.148,2.437,2.563v6.302h4.872v-8.865c0-1.414,1.021-2.562,2.437-2.562
		s2.437,1.148,2.437,2.562v8.865h7.308v-6.302c0-1.415,1.021-2.563,2.437-2.563c1.415,0,2.436,1.148,2.436,2.563v6.302h4.872v-8.865
		c0-1.414,1.021-2.562,2.437-2.562c1.415,0,2.436,1.148,2.436,2.562v8.865h18.573c2.831,0,3.552-0.975,1.608-3.035L116.905,40.902z
		 M150.793,101.853H75.978c-2.831,0-3.552-1.356-1.608-3.418l35.499-37.471c1.944-2.061,5.094-1.983,7.038,0.078l35.498,37.355
		C154.347,100.457,153.626,101.853,150.793,101.853z"/>
</g>
</svg>
