<?xml version="1.0" encoding="utf-8"?>
<!-- Generator: Adobe Illustrator 16.0.0, SVG Export Plug-In . SVG Version: 6.00 Build 0)  -->
<!DOCTYPE svg PUBLIC "-//W3C//DTD SVG 1.1//EN" "http://www.w3.org/Graphics/SVG/1.1/DTD/svg11.dtd">
<svg version="1.1" id="Layer_2" xmlns="http://www.w3.org/2000/svg" xmlns:xlink="http://www.w3.org/1999/xlink" x="0px" y="0px"
	 width="96px" height="96px" viewBox="0 0 96 96" enable-background="new 0 0 96 96" xml:space="preserve">
<path d="M48,1C22.042,1,1,22.042,1,48c0,25.957,21.042,47,47,47c25.957,0,47-21.043,47-47C95,22.042,73.957,1,48,1z M66.814,72.774
	V34.737c-5.477-4.381-12.348-0.1-12.348-0.1v38.137c-2.059,2.401-4.321,3.246-6.395,3.283v0.006c-0.023,0-0.048-0.003-0.071-0.003
	c-0.023,0-0.048,0.003-0.071,0.003v-0.006c-2.074-0.037-4.336-0.882-6.395-3.283V34.637c0,0-6.871-4.282-12.348,0.1v38.038
	c0,0-7.069,7.169-14.438-0.1V26.771c0.294-0.275,14.924-13.44,32.811-2.49l0.482,0.398l0.401-0.398
	c18.14-10.684,32.534,2.229,32.811,2.49v45.904C73.883,79.944,66.814,72.774,66.814,72.774z"/>
</svg>
