<?xml version="1.0" encoding="utf-8"?>
<!-- Generator: Adobe Illustrator 16.0.4, SVG Export Plug-In . SVG Version: 6.00 Build 0)  -->
<!DOCTYPE svg PUBLIC "-//W3C//DTD SVG 1.1//EN" "http://www.w3.org/Graphics/SVG/1.1/DTD/svg11.dtd">
<svg version="1.1" id="Layer_1" xmlns="http://www.w3.org/2000/svg" xmlns:xlink="http://www.w3.org/1999/xlink" x="0px" y="0px"
	 width="50px" height="50px" viewBox="0 0 50 50" enable-background="new 0 0 50 50" xml:space="preserve">
<path d="M32,17.5H18c-0.277,0-0.5,0.224-0.5,0.5v14c0,0.275,0.223,0.5,0.5,0.5h14c0.277,0,0.5-0.225,0.5-0.5V18
	C32.5,17.724,32.277,17.5,32,17.5z M31.5,31.5h-13v-6.318h3.748l1.322,4.108c0.065,0.207,0.258,0.347,0.475,0.347
	c0.006,0,0.012,0,0.018-0.001c0.224-0.007,0.414-0.161,0.47-0.378l1.446-5.797l0.275,1.928c0.035,0.246,0.246,0.429,0.496,0.429
	h3.182c0.275,0,0.5-0.224,0.5-0.5s-0.225-0.5-0.5-0.5h-2.748l-0.575-4.025c-0.033-0.237-0.23-0.416-0.47-0.429
	c-0.229-0.012-0.453,0.146-0.512,0.378l-1.643,6.573l-0.896-2.788c-0.065-0.206-0.258-0.347-0.475-0.347H18.5V18.5h13V31.5z"/>
</svg>
