<?xml version="1.0" encoding="utf-8"?>
<!-- Generator: Adobe Illustrator 16.0.4, SVG Export Plug-In . SVG Version: 6.00 Build 0)  -->
<!DOCTYPE svg PUBLIC "-//W3C//DTD SVG 1.1//EN" "http://www.w3.org/Graphics/SVG/1.1/DTD/svg11.dtd">
<svg version="1.1" id="Layer_1" xmlns="http://www.w3.org/2000/svg" xmlns:xlink="http://www.w3.org/1999/xlink" x="0px" y="0px"
	 width="50px" height="50px" viewBox="0 0 50 50" enable-background="new 0 0 50 50" xml:space="preserve">
<path d="M17.544,22.781c0.096,0.093,0.236,0.144,0.356,0.142l1.99-0.03l0.031,1.987c0.004,0.272,0.228,0.492,0.5,0.492
	c0.002,0,0.005,0,0.008,0l3.113-0.048c0.276-0.004,0.497-0.231,0.492-0.508l-0.03-1.989l1.989-0.031
	c0.276-0.004,0.497-0.231,0.492-0.508l-0.049-3.113c-0.002-0.133-0.058-0.259-0.152-0.353c-0.095-0.092-0.222-0.133-0.355-0.141
	l-1.989,0.031l-0.031-1.99c-0.004-0.275-0.246-0.535-0.508-0.492l-3.114,0.049c-0.133,0.003-0.259,0.058-0.351,0.152
	c-0.092,0.096-0.143,0.223-0.141,0.355l0.031,1.99l-1.99,0.031c-0.276,0.004-0.497,0.23-0.492,0.508l0.049,3.113
	C17.395,22.564,17.45,22.689,17.544,22.781z M20.341,19.771c0.133-0.002,0.259-0.058,0.351-0.152
	c0.092-0.096,0.143-0.223,0.141-0.355l-0.031-1.99l2.114-0.032l0.031,1.989c0.002,0.133,0.057,0.26,0.152,0.353
	c0.096,0.092,0.238,0.168,0.356,0.142l1.989-0.031l0.033,2.113l-1.989,0.03c-0.276,0.004-0.497,0.231-0.492,0.508l0.03,1.989
	l-2.113,0.032l-0.031-1.988c-0.004-0.272-0.228-0.492-0.5-0.492c-0.002,0-0.005,0-0.008,0l-1.99,0.031l-0.033-2.113L20.341,19.771z
	 M34.062,22.992c-0.541-1.551-1.327-2.952-2.336-4.168c-0.096-0.114-0.236-0.182-0.386-0.182l0,0c-0.148,0-0.291,0.067-0.385,0.183
	c-0.577,0.7-1.123,1.409-1.667,2.12c-0.447,0.582-0.894,1.164-1.358,1.74c-0.148,0.185-0.147,0.446,0.002,0.631
	c0.292,0.355,0.612,0.711,0.927,1.056c0.216,0.237,0.428,0.471,0.623,0.696c-1.752,1.921-4.48,3.875-6.894,4.939
	c-0.373-0.672-0.754-1.347-1.144-2.023c-0.121-0.211-0.378-0.305-0.606-0.222c-0.684,0.253-1.368,0.48-2.051,0.71
	c-0.852,0.283-1.704,0.568-2.558,0.896c-0.138,0.054-0.246,0.166-0.294,0.306c-0.047,0.142-0.03,0.295,0.047,0.423
	c0.887,1.449,2.017,2.721,3.183,3.58c0.086,0.062,0.19,0.098,0.296,0.098c0.004,0,0.009,0,0.013,0
	c2.064-0.055,6.058-0.572,9.604-3.436c2.294-1.852,3.971-4.211,4.983-7.013C34.101,23.218,34.101,23.101,34.062,22.992z
	 M28.449,29.562c-3.221,2.601-6.847,3.133-8.829,3.209c-0.879-0.677-1.734-1.611-2.458-2.684c0.647-0.234,1.293-0.451,1.939-0.667
	c0.561-0.188,1.122-0.375,1.683-0.573c0.391,0.682,0.771,1.361,1.145,2.038c0.123,0.222,0.393,0.315,0.625,0.224
	c2.814-1.14,6.015-3.432,7.963-5.703c0.155-0.182,0.161-0.448,0.012-0.637c-0.272-0.343-0.598-0.701-0.933-1.069
	c-0.211-0.232-0.428-0.47-0.634-0.707c0.379-0.478,0.748-0.958,1.117-1.438c0.413-0.537,0.826-1.076,1.254-1.609
	c0.72,0.963,1.297,2.039,1.724,3.211C32.104,25.709,30.554,27.864,28.449,29.562z"/>
</svg>
