<?xml version="1.0" encoding="utf-8"?>
<!-- Generator: Adobe Illustrator 16.0.0, SVG Export Plug-In . SVG Version: 6.00 Build 0)  -->
<!DOCTYPE svg PUBLIC "-//W3C//DTD SVG 1.1//EN" "http://www.w3.org/Graphics/SVG/1.1/DTD/svg11.dtd">
<svg version="1.1" id="Layer_1" xmlns="http://www.w3.org/2000/svg" xmlns:xlink="http://www.w3.org/1999/xlink" x="0px" y="0px"
	 width="96px" height="96px" viewBox="0 0 96 96" enable-background="new 0 0 96 96" xml:space="preserve">
<g>
	<polygon points="43.293,58.013 52.707,58.013 52.707,48.899 61.825,48.899 61.825,39.483 52.707,39.483 52.707,30.368 
		43.293,30.368 43.293,39.483 34.175,39.483 34.175,48.899 43.293,48.899 	"/>
	<path d="M67.804,1.916H28.196c-3.155,0-5.712,2.558-5.712,5.713v80.742c0,3.155,2.557,5.713,5.712,5.713h39.608
		c3.155,0,5.712-2.558,5.712-5.713V7.629C73.517,4.474,70.959,1.916,67.804,1.916z M50.38,88.752h-4.76
		c-2.156,0-3.904-1.749-3.904-3.904c0-2.156,1.748-3.904,3.904-3.904h4.76c2.156,0,3.904,1.748,3.904,3.904
		C54.284,87.003,52.536,88.752,50.38,88.752z M66.612,75.423H29.388V12.2h37.225V75.423z"/>
</g>
</svg>
