<?xml version="1.0" encoding="utf-8"?>
<!-- Generator: Adobe Illustrator 16.0.0, SVG Export Plug-In . SVG Version: 6.00 Build 0)  -->
<!DOCTYPE svg PUBLIC "-//W3C//DTD SVG 1.1//EN" "http://www.w3.org/Graphics/SVG/1.1/DTD/svg11.dtd">
<svg version="1.1" id="Layer_1" xmlns="http://www.w3.org/2000/svg" xmlns:xlink="http://www.w3.org/1999/xlink" x="0px" y="0px"
	 width="96px" height="96px" viewBox="0 0 96 96" enable-background="new 0 0 96 96" xml:space="preserve">
<path d="M64.888,19.282v-5.524c0-2.607-2.122-4.729-4.729-4.729H35.841c-2.607,0-4.729,2.122-4.729,4.729v5.524H0.828v2.766v59.445
	v2.863H3.53v2.614h14.072v-2.614h60.648v2.614h14.072v-2.614h2.849v-2.863V22.048v-2.766H64.888z M35.165,13.758
	c0-0.373,0.304-0.675,0.676-0.675h24.318c0.372,0,0.676,0.303,0.676,0.675v5.524h-25.67V13.758z M63.762,52.797H52.797v10.965
	h-9.594V52.797H32.237v-9.594h10.966V32.238h9.594v10.965h10.965V52.797z"/>
</svg>
