<?xml version="1.0" encoding="utf-8"?>
<!-- Generator: Adobe Illustrator 16.0.0, SVG Export Plug-In . SVG Version: 6.00 Build 0)  -->
<!DOCTYPE svg PUBLIC "-//W3C//DTD SVG 1.1//EN" "http://www.w3.org/Graphics/SVG/1.1/DTD/svg11.dtd">
<svg version="1.1" id="Layer_1" xmlns="http://www.w3.org/2000/svg" xmlns:xlink="http://www.w3.org/1999/xlink" x="0px" y="0px"
	 width="96px" height="96px" viewBox="0 0 96 96" enable-background="new 0 0 96 96" xml:space="preserve">
<path d="M47.998,8.516C21.811,8.516,0.582,26.194,0.582,48c0,21.813,21.229,39.484,47.416,39.484
	c26.189,0,47.42-17.672,47.42-39.484C95.418,26.194,74.188,8.516,47.998,8.516z M71.616,72.922h-7.741
	c-0.619-6.844-5.563-12.421-12.072-14.02v14.561h-7.609V58.902c-6.507,1.599-11.448,7.175-12.068,14.02h-7.743
	c0.675-11.113,9.023-20.133,19.812-21.88v-6.08c-10.788-1.749-19.137-10.769-19.812-21.88h7.743
	c0.62,6.84,5.562,12.421,12.068,14.017V22.534h7.609V37.1c6.51-1.596,11.453-7.177,12.072-14.017h7.741
	c-0.675,11.111-9.024,20.131-19.813,21.88v6.08C62.592,52.789,70.941,61.809,71.616,72.922z"/>
</svg>
