<?xml version="1.0" encoding="utf-8"?>
<!-- Generator: Adobe Illustrator 16.0.0, SVG Export Plug-In . SVG Version: 6.00 Build 0)  -->
<!DOCTYPE svg PUBLIC "-//W3C//DTD SVG 1.1//EN" "http://www.w3.org/Graphics/SVG/1.1/DTD/svg11.dtd">
<svg version="1.1" id="Layer_2" xmlns="http://www.w3.org/2000/svg" xmlns:xlink="http://www.w3.org/1999/xlink" x="0px" y="0px"
	 width="96px" height="96px" viewBox="0 0 96 96" enable-background="new 0 0 96 96" xml:space="preserve">
<g>
	<path fill-rule="evenodd" clip-rule="evenodd" d="M92.582,39.973c-4.87-4.367-13.994-12.893-18.861-17.264
		C67.823,17.415,52.274,4.062,52.274,4.062c-4.507-3.848-7.695-1.032-9.375,0.333c-1.353,1.1-2.483,1.917-5.058,4.225
		c-5.023,4.505-9.996,9.066-14.97,13.625c-4.654,4.267-9.277,8.565-13.924,12.84c-2.846,2.617-5.709,5.219-8.565,7.827
		c0,1.659,0,3.32,0,4.979c4.94,0.014,10.592,0.026,15.531,0.048l9.257-8.558l22.926-21.52l17.02,16.029l12.841,12.104L64.6,58.025
		c-1.984,1.785-5.613,5.271-7.63,7.084c1.322-1.43,1.688-2.263,1.784-2.465c1.361-2.822,1.378-5.701-0.021-8.451
		c-1.634-3.21-4.023-5.246-7.998-5.223c-15.728,0.097-32.938,0.038-48.666,0.048l0.403,0.294l3.47,2.895l36.72-0.034
		c-0.506,0.45-1.024,0.426-1.525,0.426L6.278,52.615l2.785,2.477l29.871,0.02c-0.555,0.848-1.285,0.774-1.998,0.774L9.645,55.904
		l2.905,2.708l20.981-0.005c-0.469,0.805-1.18,1.357-2.012,1.354c-5.375-0.019-10.749-0.014-16.123-0.006
		c-0.34,0-1.582,0.02-1.582,0.02s0.859,0.876,1.11,1.134l4.834,4.848l35.865-0.024c0.03,0.268-0.173,0.348-0.313,0.474
		c-2.411,2.161-6.004,5.354-8.464,7.46l0.021,20.019l0.71-0.695c3.01-2.78,6.01-5.57,9.031-8.337
		c6.428-5.887,12.863-11.764,19.303-17.636c2.854-2.603,5.798-5.112,8.572-7.798c3.03-2.932,6.131-5.798,8.899-8.996
		C96.698,46.651,96.237,43.249,92.582,39.973z M51.316,58.438v-7.112c3.014,0,5.459,3.186,5.459,7.112H51.316z M91.813,48.923
		c-6.658,6.921-13.826,13.301-20.895,19.785L49.25,88.364l-0.014-13.729l32.077-28.628l-8.499-7.968L48.189,14.877l-9.332,8.552
		l-23.82,22.26L2.585,45.668l-0.003-1.747c0.715-0.68,1.887-1.625,2.616-2.29c6.68-6.095,13.373-12.178,20.039-18.287
		c6.434-5.896,12.844-11.816,19.256-17.734c2.193-1.914,4.602-1.867,6.696,0.019c7.393,6.659,14.816,13.28,22.203,19.943
		c5.513,4.971,10.995,9.974,16.469,14.986c0.814,0.744,1.553,1.579,2.255,2.43C93.756,44.97,93.598,47.068,91.813,48.923z"/>
	<path fill-rule="evenodd" clip-rule="evenodd" d="M60.619,55.618c0.006,0.376,0.019,1.576,0.019,1.576s0.893-0.746,1.15-0.963
		c3.807-3.204,7.61-6.41,11.406-9.626c0.396-0.337,1.038-0.931,1.038-0.931s-0.476-0.505-1.04-1.024
		c-1.741-1.605-3.497-3.194-5.229-4.81c-6.205-5.784-12.421-11.559-18.585-17.386c-0.386-0.366-1.021-1.004-1.021-1.004
		s-0.675,0.646-1.052,0.996c-2.4,2.228-4.818,4.438-7.224,6.663c-4.636,4.284-9.271,8.572-13.899,12.864
		c-2.051,1.898-4.467,4.051-6.599,6.039l2.569-0.008l13.438,0.008l-0.011-9.314c0-1.288,1.295-1.993,1.295-1.993
		s1.373,0.811,1.373,1.912c0.008,0.08,0.002,0.158,0.005,0.237l0.005,8.654c0,0,1.141-1.404,1.362-1.664
		c2.324-2.714,5.179-4.574,8.624-5.577c1.186-0.345,2.233-0.195,3.319,0.263c3.623,1.532,6.357,4.063,8.395,7.392
		c0.4,0.655,0.621,1.343,0.616,2.126C60.564,51.905,60.59,53.762,60.619,55.618z"/>
</g>
</svg>
