<?xml version="1.0" encoding="utf-8"?>
<!-- Generator: Adobe Illustrator 16.0.0, SVG Export Plug-In . SVG Version: 6.00 Build 0)  -->
<!DOCTYPE svg PUBLIC "-//W3C//DTD SVG 1.1//EN" "http://www.w3.org/Graphics/SVG/1.1/DTD/svg11.dtd">
<svg version="1.1" id="Layer_1" xmlns="http://www.w3.org/2000/svg" xmlns:xlink="http://www.w3.org/1999/xlink" x="0px" y="0px"
	 width="96px" height="96px" viewBox="0 0 96 96" enable-background="new 0 0 96 96" xml:space="preserve">
<g>
	<path d="M30.055,33.99c0.768-0.909,1.501-1.432,2.554-1.371l8.591-0.009l-0.002,12.676h13.712l-0.014-12.65l8.634-0.004
		c1.138,0.056,1.842,0.314,2.559,1.303L76.73,45.361l18.202,0.001L69.311,21.298c-0.933-0.646-1.836-1.318-3.554-1.178
		l-35.192,0.001c-1.386,0.071-2.578,0.389-3.381,1.202L1.011,45.248l19.338,0.038L30.055,33.99z"/>
	<path d="M76.787,50.639L66.145,62.065c-0.717,0.989-1.42,1.247-2.56,1.303l-8.631-0.004l0.037-12.651l-13.735,0.001l-0.067,12.678
		l-8.522-0.011c-1.051,0.061-1.788-0.462-2.555-1.371l-9.706-11.296L1.067,50.752L27.24,74.677c0.804,0.813,1.997,1.131,3.382,1.202
		l35.192-0.024c1.718,0.141,2.621-0.532,3.554-1.177l25.621-24.015L76.787,50.639z"/>
</g>
</svg>
