<?xml version="1.0" encoding="utf-8"?>
<!-- Generator: Adobe Illustrator 16.0.0, SVG Export Plug-In . SVG Version: 6.00 Build 0)  -->
<!DOCTYPE svg PUBLIC "-//W3C//DTD SVG 1.1//EN" "http://www.w3.org/Graphics/SVG/1.1/DTD/svg11.dtd">
<svg version="1.1" id="Layer_1" xmlns="http://www.w3.org/2000/svg" xmlns:xlink="http://www.w3.org/1999/xlink" x="0px" y="0px"
	 width="96px" height="96px" viewBox="0 0 96 96" enable-background="new 0 0 96 96" xml:space="preserve">
<g>
	<path d="M49.784,50.52c0,0.614,0.076,1.068,0.23,1.363s0.398,0.528,0.732,0.698c0.334,0.168,0.733,0.254,1.198,0.254h1.173v-1.381
		c-0.486,0-1.222-0.08-1.396-0.241c-0.174-0.16-0.262-0.461-0.262-0.902v-3.438h1.541V45.64H51.46v-1.953h-1.578v1.953h-1.055v1.234
		h0.957V50.52z"/>
	<polygon points="31.251,44.35 34.134,52.682 35.112,52.682 37.98,44.35 37.98,52.682 39.884,52.682 39.884,43.165 36.948,43.165 
		34.817,49.293 32.647,43.165 29.61,43.165 29.61,52.682 31.251,52.682 	"/>
	<path d="M62.756,52.828c1.052,0,1.921-0.338,2.606-1.015c0.686-0.676,1.027-1.57,1.027-2.681c0-1.078-0.33-1.954-0.99-2.628
		c-0.66-0.674-1.503-1.011-2.529-1.011c-1.082,0-1.954,0.346-2.613,1.039c-0.66,0.693-0.99,1.56-0.99,2.6
		c0,0.967,0.298,1.825,0.895,2.573C60.759,52.454,61.623,52.828,62.756,52.828z M61.534,47.442c0.289-0.43,0.73-0.645,1.328-0.645
		c0.576,0,1.004,0.208,1.282,0.625c0.278,0.416,0.417,0.983,0.417,1.704c0,1.594-0.582,2.392-1.745,2.392
		c-0.531,0-0.95-0.203-1.255-0.607c-0.307-0.404-0.459-0.99-0.459-1.756C61.103,48.442,61.246,47.872,61.534,47.442z"/>
	<path d="M44.474,52.828c0.885,0,1.621-0.207,2.207-0.621c0.587-0.414,0.98-0.939,1.184-1.576l-1.563-0.195
		c-0.299,0.762-0.875,1.144-1.73,1.144c-0.439,0-0.807-0.107-1.1-0.321s-0.489-0.465-0.588-0.752
		c-0.099-0.288-0.147-0.672-0.147-1.151h5.257l0.008-0.181c0-1.078-0.299-1.961-0.896-2.649c-0.597-0.688-1.441-1.032-2.534-1.032
		c-1.117,0-2.002,0.349-2.654,1.046s-0.979,1.578-0.979,2.642c0,1.12,0.323,2.008,0.971,2.664
		C42.556,52.5,43.411,52.828,44.474,52.828z M43.298,47.059c0.318-0.3,0.715-0.45,1.19-0.45c0.481,0,0.884,0.16,1.21,0.481
		c0.326,0.32,0.492,0.734,0.497,1.241h-3.459C42.792,47.783,42.979,47.358,43.298,47.059z"/>
	<path d="M56.331,49.419c0-0.484,0.143-0.983,0.428-1.499c0.286-0.516,0.869-0.774,1.749-0.774v-1.708
		c-0.097-0.004-0.173-0.006-0.228-0.006c-0.41,0-0.81,0.151-1.199,0.453c-0.389,0.302-0.695,0.781-0.918,1.436v-1.68h-1.563v7.042
		h1.73V49.419z"/>
	<path d="M48,18.758L0.219,48L48,77.242L95.781,48L48,18.758z M48,31.446l11.705,7.163h-23.41L48,31.446z M25.158,50.575L20.95,48
		l4.208-2.575V50.575z M48,64.554l-11.705-7.163h23.41L48,64.554z M69.884,56.433H26.116V39.567h43.768V56.433z M70.842,45.425
		L75.05,48l-4.208,2.575V45.425z"/>
</g>
</svg>
