<?xml version="1.0" encoding="utf-8"?>
<!-- Generator: Adobe Illustrator 17.1.0, SVG Export Plug-In . SVG Version: 6.00 Build 0)  -->
<!DOCTYPE svg PUBLIC "-//W3C//DTD SVG 1.1//EN" "http://www.w3.org/Graphics/SVG/1.1/DTD/svg11.dtd">
<svg version="1.1" xmlns="http://www.w3.org/2000/svg" xmlns:xlink="http://www.w3.org/1999/xlink" x="0px" y="0px"
	 viewBox="0 0 64 64" enable-background="new 0 0 64 64" xml:space="preserve">
<g id="Imagenes">
</g>
<g id="Layer_2">
	<path d="M13,48.638V62h37V48.638C50,45.575,47.928,43,44.865,43h-6.351c-0.895,1-1.965,1.685-3.162,2.204l-4.023,6.855
		l-4.121-6.775C25.933,44.761,24.79,44,23.837,43h-5.778C14.996,43,13,45.575,13,48.638z"/>
	<polygon points="20.832,15 39.319,15 31.924,2 28.227,2 	"/>
	<path d="M6.531,21.762l1.495,1.481l3.825-3.68l3.824,3.706l3.827-3.693l3.825,3.7l3.827-3.696l3.829,3.698l3.828-3.697l3.829,3.698
		l3.827-3.697l3.828,3.697l3.829-3.697l3.836,3.698l1.51-1.524C55.955,19.675,55.958,18,55.958,18H6.042
		C6.042,18,6.045,19.679,6.531,21.762z"/>
	<path d="M9.871,28c1.629,2,3.951,3,7.263,3c8.319,0,20.336,0,27.731,0c3.312,0,5.634-1,7.264-3H9.871z"/>
	<path d="M53.954,25.673l-3.829-3.597l-3.83,3.746l-3.828-3.674l-3.827,3.709l-3.829-3.692l-3.828,3.7l-3.829-3.696l-3.827,3.699
		l-3.825-3.697l-3.828,3.698l-3.823-3.697l-3.811,3.493C8.333,26.189,8.667,27,9.05,27h43.9C53.331,27,53.664,26.194,53.954,25.673z
		"/>
	<path d="M25.057,43.092c0.415,0.343,0.862,0.648,1.337,0.916c1.395,0.788,3.019,1.241,4.76,1.241c1.849,0,3.567-0.508,5.017-1.388
		c0.38-0.231,0.741-0.488,1.08-0.769c1.971-1.631,3.224-4.023,3.224-6.837c0-1.314-0.275-3.255-0.766-3.255h-0.39h-16.72
		c-0.491,1-0.766,1.941-0.766,3.255C21.833,39.069,23.086,41.462,25.057,43.092z"/>
</g>
</svg>
