<?xml version="1.0" encoding="utf-8"?>
<!-- Generator: Adobe Illustrator 16.0.0, SVG Export Plug-In . SVG Version: 6.00 Build 0)  -->
<!DOCTYPE svg PUBLIC "-//W3C//DTD SVG 1.1//EN" "http://www.w3.org/Graphics/SVG/1.1/DTD/svg11.dtd">
<svg version="1.1" id="Layer_2" xmlns="http://www.w3.org/2000/svg" xmlns:xlink="http://www.w3.org/1999/xlink" x="0px" y="0px"
	 width="96px" height="96px" viewBox="0 0 96 96" enable-background="new 0 0 96 96" xml:space="preserve">
<g>
	<path d="M48,11.004C27.599,11.004,11.003,27.6,11.003,48c0,20.399,16.596,36.997,36.997,36.997
		c20.399,0,36.997-16.598,36.997-36.997C84.997,27.6,68.399,11.004,48,11.004z M72.679,73.55h-9.586V33.326L52.949,73.55h-9.934
		L32.907,33.326V73.55h-9.586V22.449h15.442l9.271,34.859l9.167-34.859h15.477V73.55z"/>
	<path d="M2.488,3.5v89h91.023v-89H2.488z M48,89.736C24.985,89.736,6.264,71.013,6.264,48C6.264,24.986,24.985,6.264,48,6.264
		S89.736,24.986,89.736,48C89.736,71.013,71.015,89.736,48,89.736z"/>
</g>
</svg>
