<?xml version="1.0" encoding="utf-8"?>
<!-- Generator: Adobe Illustrator 17.1.0, SVG Export Plug-In . SVG Version: 6.00 Build 0)  -->
<!DOCTYPE svg PUBLIC "-//W3C//DTD SVG 1.1//EN" "http://www.w3.org/Graphics/SVG/1.1/DTD/svg11.dtd">
<svg version="1.1" xmlns="http://www.w3.org/2000/svg" xmlns:xlink="http://www.w3.org/1999/xlink" x="0px" y="0px"
	 viewBox="0 0 64 64" enable-background="new 0 0 64 64" xml:space="preserve">
<g id="Imagenes">
</g>
<g id="Layer_2">
	<path d="M36.536,49c-2.076,0-4.115-0.084-6.076-0.242c-10.302-0.833-16.99-3.597-18.48-6.737L12,45.062
		c0,0-0.021,0.824,0.319,2.055C13.328,50.766,17.522,58,34.909,58C62,58,61,43.979,61,43.979V43C59,46.257,49.117,49,36.536,49z"/>
	<path d="M2.276,34.583C2.943,38.861,5,42.498,9,45.123c0-0.06,0-0.107,0-0.136v-8.145c0,0,0.322-2.535,4.859-5.612
		c0.828-0.608,1.793-1.183,2.899-1.715c0.018-0.009,0.032-0.018,0.05-0.027c0.034-0.018,0.064-0.026,0.098-0.043
		C21.255,27.389,27.723,26,36.503,26c4.015,0,7.966,0.373,11.522,1.054c-1.803-9.846-13.19-16.217-25.678-14.271
		C9.693,14.754,0.707,24.515,2.276,34.583z"/>
	<path d="M48.268,30.143C44.807,29.418,40.791,29,36.503,29c-12.977,0-23.497,3.806-23.497,8.5c0,4.694,10.52,8.5,23.497,8.5
		c0.346,0,0.683-0.013,1.025-0.018c12.107-0.189,21.844-3.683,22.443-8.055C59.99,37.786,60,37.643,60,37.5
		C60,34.357,55.28,31.614,48.268,30.143z M35.998,40.856C28.872,40.856,25,39.438,25,39.438s2.884-8.116,10.875-8.116
		s10.312,7.491,10.312,7.491S45.131,40.856,35.998,40.856z"/>
</g>
</svg>
