<?xml version="1.0" encoding="utf-8"?>
<!-- Generator: Adobe Illustrator 16.0.0, SVG Export Plug-In . SVG Version: 6.00 Build 0)  -->
<!DOCTYPE svg PUBLIC "-//W3C//DTD SVG 1.1//EN" "http://www.w3.org/Graphics/SVG/1.1/DTD/svg11.dtd">
<svg version="1.1" id="Layer_1" xmlns="http://www.w3.org/2000/svg" xmlns:xlink="http://www.w3.org/1999/xlink" x="0px" y="0px"
	 width="96px" height="96px" viewBox="0 0 96 96" enable-background="new 0 0 96 96" xml:space="preserve">
<g>
	<path d="M2.693,2.551l67.184,25.298c1.139,0.509,2.104,1.397,2.686,2.503c0.595,1.073,0.667,2.336,0.503,3.529
		c-0.166,0.584-0.375,1.156-0.7,1.67l0.021,0.042c-0.665,0.906-1.507,1.711-2.569,2.126c-7.487,2.923-14.983,5.825-22.466,8.754
		c-1.289,0.462-1.277,2.505,0,2.975l22.504,8.703c1.66,0.619,2.809,2.183,3.218,3.869c0.07,0.696,0.081,1.399-0.008,2.096
		c-0.065,0.199-0.125,0.402-0.179,0.609c-0.138,0.378-0.304,0.745-0.536,1.076l0.034,0.069c-0.685,0.871-1.464,1.725-2.527,2.126
		c-19.972,7.514-39.95,15.009-59.922,22.52c-2.411,0.867-4.78,1.865-7.218,2.652l0.029,0.159l90.588-0.026V2.527L2.693,2.551z
		 M72.3,39.654c-0.386,1.339-1.416,2.512-2.693,3.066c-2.87,1.145-5.804,2.275-8.642,3.367c-3.292,1.271-6.693,2.58-10.025,3.923
		c-0.709-0.186-1.404-0.476-2.134-0.781c-0.388-0.163-0.79-0.331-1.197-0.483c-0.352-0.129-0.475-0.511-0.474-0.798
		c0.001-0.293,0.125-0.65,0.468-0.772l0.01-0.004l0.011-0.004c4.354-1.704,8.788-3.429,13.074-5.096
		c3.131-1.218,6.263-2.437,9.393-3.657c0.759-0.299,1.468-0.785,2.118-1.453C72.482,37.803,72.519,38.74,72.3,39.654z
		 M71.944,70.795c-0.563,1.051-1.487,1.889-2.534,2.299c-3.638,1.369-7.34,2.754-10.922,4.094
		c-6.103,2.283-12.414,4.643-18.605,6.998c-5.848,2.18-13.568,5.406-21.409,8.385l-0.016,0.005l-0.015,0.007L7.12,92.595
		c-0.192,0-0.386,0-0.579-0.003c0.307-0.117,0.612-0.232,0.914-0.348c0.895-0.343,1.819-0.698,2.732-1.026l0.005-0.002l0.005-0.002
		c8.913-3.352,17.827-6.699,26.741-10.048c10.875-4.086,22.122-8.312,33.183-12.472c0.838-0.317,1.504-0.851,2.077-1.453
		C72.584,68.424,72.505,69.734,71.944,70.795z"/>
	<g>
		<path d="M43.252,66.763C43.245,66.766,43.244,66.766,43.252,66.763L43.252,66.763z"/>
		<path d="M49.116,61.877c-0.328-0.262-0.735-0.396-1.121-0.546c-7.368-2.717-14.722-5.468-22.084-8.198
			c-1.125-0.459-2.226-1.669-2.646-2.375c-0.419-0.706-0.662-1.766-0.662-1.766c-0.073-0.689-0.071-1.387,0-2.075
			c0.401-1.813,1.613-3.489,3.373-4.181c2.116-0.783,4.228-1.581,6.343-2.367c2.995-1.105,5.982-2.237,8.972-3.356
			c0.493-0.183,0.987-0.364,1.475-0.559l5.612-2.063c0.767-0.238,1.364-1.038,1.235-1.855c-0.099-0.674-0.653-1.195-1.29-1.381
			c-4.349-1.625-8.688-3.274-13.039-4.895c-10.834-4.121-21.709-8.137-32.533-12.286l-0.06,67.813
			c0.576-0.116,1.114-0.354,1.663-0.559c3.753-1.38,7.481-2.829,11.232-4.216c0.228-0.093,0.457-0.18,0.685-0.266
			c0.266-0.1,0.532-0.199,0.8-0.293c0.228-0.09,0.456-0.179,0.681-0.269c1.272-0.461,2.532-0.954,3.803-1.418
			c0.227-0.093,0.455-0.182,0.682-0.272c0.265-0.086,0.528-0.181,0.794-0.268c0.23-0.098,0.463-0.19,0.695-0.285
			c0.261-0.09,0.521-0.186,0.782-0.273c3.039-1.157,6.082-2.308,9.126-3.451c0.263-0.096,0.526-0.196,0.792-0.292
			c0.231-0.089,0.462-0.176,0.694-0.268c1.449-0.538,2.893-1.088,4.345-1.621c0.308-0.123,0.616-0.241,0.929-0.353
			c0.231-0.092,0.464-0.178,0.696-0.269l6.769-2.529c0.47-0.195,1.019-0.3,1.371-0.698C49.853,63.572,49.786,62.434,49.116,61.877z
			 M19.346,25.161c-1.098-0.412-2.196-0.822-3.294-1.231c-4.132-1.546-8.404-3.144-12.595-4.737
			c-0.002-0.125-0.004-0.251-0.006-0.376l-0.004-3.777c5.684,2.174,11.455,4.339,17.046,6.439c4.764,1.789,9.691,3.639,14.532,5.481
			c2.394,0.891,4.825,1.807,7.177,2.692c1.92,0.723,3.906,1.471,5.862,2.201l0.025,0.01l0.026,0.008
			c0.397,0.115,0.71,0.433,0.761,0.779c0.072,0.46-0.313,0.902-0.719,1.028l-0.018,0.004l-0.017,0.009
			c-0.446,0.161-0.895,0.332-1.329,0.495c-0.593,0.226-1.205,0.457-1.813,0.671l-0.836-0.341l-0.008-0.003l-0.007-0.003
			c-3.895-1.486-7.864-2.974-11.701-4.409C28.138,28.494,23.702,26.832,19.346,25.161z M48.706,63.658l-0.017,0.016l-0.015,0.019
			c-0.138,0.154-0.4,0.247-0.704,0.355c-0.122,0.043-0.247,0.088-0.375,0.14c-0.392,0.138-0.776,0.29-1.149,0.438
			c-0.482,0.192-0.942,0.375-1.409,0.522c-5.592-2.042-11.257-4.159-16.74-6.206l-0.671-0.252c-0.177-0.065-0.357-0.13-0.538-0.192
			c-0.643-0.229-1.25-0.443-1.731-0.809c-0.625-0.478-1.12-1.027-1.474-1.636c-0.671-1.136-0.817-2.576-0.44-3.85
			c0.681,0.768,1.403,1.301,2.185,1.622l0.012,0.004l0.011,0.004c2.833,1.05,5.663,2.103,8.494,3.157
			c4.451,1.656,9.053,3.367,13.585,5.039c0.054,0.021,0.109,0.042,0.163,0.063c0.289,0.109,0.561,0.214,0.751,0.365
			c0.158,0.133,0.258,0.357,0.269,0.602C48.923,63.298,48.848,63.518,48.706,63.658z"/>
	</g>
</g>
</svg>
