<?xml version="1.0" encoding="utf-8"?>
<!-- Generator: Adobe Illustrator 16.0.4, SVG Export Plug-In . SVG Version: 6.00 Build 0)  -->
<!DOCTYPE svg PUBLIC "-//W3C//DTD SVG 1.1//EN" "http://www.w3.org/Graphics/SVG/1.1/DTD/svg11.dtd">
<svg version="1.1" id="Layer_1" xmlns="http://www.w3.org/2000/svg" xmlns:xlink="http://www.w3.org/1999/xlink" x="0px" y="0px"
	 width="226.77px" height="155.91px" viewBox="0 0 226.77 155.91" enable-background="new 0 0 226.77 155.91" xml:space="preserve">
<g>
	<path d="M76.807,110.257h73.129v-64.63H76.807V110.257z M143.143,98.348v3.41c0,0.936-0.771,1.705-1.705,1.705h-22.112
		c-0.935,0-1.705-0.77-1.705-1.705v-3.41c0-0.935,0.771-1.705,1.705-1.705h22.112C142.399,96.643,143.143,97.413,143.143,98.348z
		 M124.248,74.449c-0.907,0-1.54,0.385-2.338,1.238c-0.192,0.22-0.577,0.44-1.072,0.44c-0.798,0-1.43-0.633-1.43-1.43
		c0-0.357,0.137-0.715,0.357-0.99c1.154-1.32,2.475-2.09,4.647-2.09c2.942,0,4.923,1.732,4.923,4.4v0.028
		c0,2.393-1.237,3.575-3.74,5.528l-2.338,1.787h4.979c0.742,0,1.375,0.605,1.375,1.375c0,0.742-0.605,1.348-1.375,1.348h-7.701
		c-0.99,0-1.705-0.55-1.705-1.484c0-0.605,0.275-1.156,0.825-1.568l4.043-3.301c1.787-1.457,2.475-2.254,2.475-3.437
		S125.376,74.449,124.248,74.449z M93.831,71.148h8.498c1.127,0,2.145,0.743,2.447,1.843l1.458,5.06l4.703-15.318
		c0.33-1.073,1.319-1.788,2.447-1.788h17.849c1.403,0,2.558,1.155,2.558,2.558c0,1.402-1.127,2.558-2.558,2.558h-15.951
		L108.6,87.897c-0.33,1.072-1.32,1.952-2.448,1.952h-0.027c-1.127,0-2.117-0.907-2.42-2.008l-3.301-11.605h-6.572
		c-1.403,0-2.558-1.155-2.558-2.558C91.273,72.276,92.4,71.148,93.831,71.148z"/>
	<path d="M155.903,35.423H70.866c-2.338,0-4.263,1.898-4.263,4.263v76.539c0,2.338,1.897,4.263,4.263,4.263h85.037
		c2.338,0,4.263-1.897,4.263-4.263V39.686C160.166,37.321,158.269,35.423,155.903,35.423z M155.051,112.814
		c0,1.402-1.128,2.558-2.558,2.558H74.249c-1.402,0-2.558-1.155-2.558-2.558V43.068c0-1.402,1.128-2.558,2.558-2.558h78.244
		c1.402,0,2.558,1.155,2.558,2.558V112.814z"/>
</g>
</svg>
