<?xml version="1.0" encoding="utf-8"?>
<!-- Generator: Adobe Illustrator 17.0.0, SVG Export Plug-In . SVG Version: 6.00 Build 0)  -->
<!DOCTYPE svg PUBLIC "-//W3C//DTD SVG 1.1//EN" "http://www.w3.org/Graphics/SVG/1.1/DTD/svg11.dtd">
<svg version="1.1" id="Capa_1" xmlns="http://www.w3.org/2000/svg" xmlns:xlink="http://www.w3.org/1999/xlink" x="0px" y="0px"
	 width="21.619px" height="12.78px" viewBox="0 0 21.619 12.78" enable-background="new 0 0 21.619 12.78" xml:space="preserve">
<path d="M18.215,5.973h-0.088C17.89,3.89,16.122,2.27,13.975,2.27c-0.742,0-1.44,0.193-2.044,0.533C11.129,1.145,9.432,0,7.465,0
	C4.728,0,2.507,2.219,2.507,4.957c0,0.379,0.045,0.748,0.126,1.104C1.125,6.41,0,7.76,0,9.377c0,1.879,1.523,3.403,3.403,3.403
	l0.555-0.022h13.655l0.602,0.022c1.88,0,3.404-1.524,3.404-3.403C21.619,7.496,20.094,5.973,18.215,5.973z M14.67,11.722
	c-0.396,0.394-0.961,0.47-1.263,0.169l-2.305-2.307C9.935,10.157,8.484,9.961,7.513,8.99c-1.223-1.222-1.223-3.201,0-4.424
	c1.222-1.222,3.201-1.222,4.423,0c0.974,0.971,1.169,2.42,0.595,3.589l2.306,2.304C15.139,10.762,15.062,11.328,14.67,11.722z
	 M9.725,4.957c1.006,0,1.821,0.815,1.821,1.821s-0.815,1.821-1.821,1.821S7.904,7.784,7.904,6.778S8.719,4.957,9.725,4.957z"/>
</svg>
