<?xml version="1.0" encoding="utf-8"?>
<!-- Generator: Adobe Illustrator 16.0.4, SVG Export Plug-In . SVG Version: 6.00 Build 0)  -->
<!DOCTYPE svg PUBLIC "-//W3C//DTD SVG 1.1//EN" "http://www.w3.org/Graphics/SVG/1.1/DTD/svg11.dtd">
<svg version="1.1" id="Capa_1" xmlns="http://www.w3.org/2000/svg" xmlns:xlink="http://www.w3.org/1999/xlink" x="0px" y="0px"
	 width="17.812px" height="29.296px" viewBox="0 0 17.812 29.296" enable-background="new 0 0 17.812 29.296" xml:space="preserve">
<path d="M16.952,9.803c0.216,0.474-1.67,1.794-4.213,2.947c-0.163,0.072-0.345,0.155-0.541,0.241l-2.432,8.406l-0.684,0.308
	L9.37,14.16c-1.933,0.769-4.08,1.561-5.396,1.937l-0.388,3.165l-0.192,0.091l-0.257-3.058C2.9,16.332,2.756,16.329,2.73,16.267
	c-0.028-0.061,0.062-0.172,0.245-0.324L0.844,13.74l0.196-0.09l2.637,1.792c1.15-0.744,3.159-1.84,5.012-2.796L2.812,7.902
	L3.491,7.59l7.931,3.695c0.195-0.092,0.376-0.175,0.538-0.249C14.503,9.88,16.738,9.33,16.952,9.803z"/>
</svg>
