<?xml version="1.0" encoding="utf-8"?>
<!-- Generator: Adobe Illustrator 16.0.4, SVG Export Plug-In . SVG Version: 6.00 Build 0)  -->
<!DOCTYPE svg PUBLIC "-//W3C//DTD SVG 1.1//EN" "http://www.w3.org/Graphics/SVG/1.1/DTD/svg11.dtd">
<svg version="1.1" id="Layer_1" xmlns="http://www.w3.org/2000/svg" xmlns:xlink="http://www.w3.org/1999/xlink" x="0px" y="0px"
	 width="50px" height="50px" viewBox="0 0 50 50" enable-background="new 0 0 50 50" xml:space="preserve">
<path d="M32.494,18.55h-1.32v-1.32c0-0.276-0.223-0.5-0.5-0.5h-2.277c-0.275,0-0.5,0.224-0.5,0.5l0,0
	c-1.169,0.015-2.277,0.48-3.118,1.31c-1.41-1.394-3.667-1.711-5.402-0.711c-1.465,0.851-2.375,2.465-2.375,4.213
	c0,0.5,0.077,0.998,0.216,1.433c0.097,0.461,0.354,0.858,0.603,1.241c0.212,0.328,0.432,0.668,0.558,1.054
	c0.194,0.592,0.089,2.563-0.025,3.719c0,1.674,1.25,3.15,3.184,3.76c0.151,0.047,0.315-0.018,0.444-0.113
	c0.128-0.094,0.203-0.283,0.203-0.441c0-3.231,1.342-5.403,2.596-5.403s2.596,2.172,2.596,5.379l0.48,0.062l0.001,0.002
	l-0.487,0.039c0,0.16,0.076,0.31,0.205,0.404c0.086,0.062,0.189,0.096,0.295,0.096c0.049,0,0.101-0.008,0.149-0.022
	c1.935-0.608,3.185-2.086,3.183-3.812c-0.113-1.104-0.218-3.071-0.022-3.664c0.126-0.387,0.347-0.727,0.562-1.055
	c0.248-0.385,0.506-0.783,0.59-1.193c0.151-0.473,0.228-0.971,0.228-1.483c0-0.084-0.001-0.156-0.004-0.224
	c0.248-0.028,0.442-0.231,0.442-0.487v-2.277C32.994,18.774,32.771,18.55,32.494,18.55z M28.896,19.05v-1.32h1.278v1.32
	c0,0.277,0.224,0.5,0.5,0.5h1.32v1.277h-1.32c-0.276,0-0.5,0.223-0.5,0.5v1.32h-1.278v-1.32c0-0.277-0.224-0.5-0.5-0.5h-1.319V19.55
	h1.319C28.672,19.55,28.896,19.327,28.896,19.05z M27.896,18.55h-1.319c-0.057,0-0.108,0.016-0.16,0.033
	c0.459-0.227,0.961-0.346,1.479-0.354V18.55z M31.363,23.267c-0.059,0.279-0.246,0.568-0.465,0.904
	c-0.236,0.365-0.504,0.779-0.671,1.287c-0.324,0.986-0.054,3.764-0.024,4.027c0,1.045-0.707,1.998-1.848,2.553
	c-0.178-3.273-1.686-5.752-3.578-5.752c-1.881,0-3.382,2.449-3.572,5.756c-1.145-0.553-1.854-1.502-1.856-2.506
	c0.032-0.314,0.301-3.096-0.022-4.082c-0.167-0.508-0.433-0.92-0.669-1.283c-0.217-0.336-0.405-0.625-0.476-0.951
	C18.062,22.835,18,22.438,18,22.04c0-1.395,0.719-2.676,1.875-3.346c1.484-0.855,3.432-0.459,4.51,0.902
	c0.095,0.118,0.239,0.188,0.392,0.188c0.153,0,0.297-0.07,0.392-0.188c0.293-0.371,0.653-0.656,1.042-0.884
	c-0.082,0.09-0.135,0.205-0.135,0.336v2.277c0,0.274,0.225,0.5,0.5,0.5h1.319v1.319c0,0.275,0.224,0.5,0.5,0.5h2.278
	c0.275,0,0.5-0.225,0.5-0.5v-1.319h0.373c0.005,0.063,0.009,0.123,0.009,0.211C31.557,22.448,31.496,22.845,31.363,23.267z
	 M22.11,19.56c0,0.277-0.224,0.5-0.5,0.5c-0.287,0-0.561,0.076-0.815,0.224c-0.592,0.344-0.959,1.016-0.959,1.758
	c0,0.213,0.033,0.424,0.097,0.623c0.006,0.021,0.038,0.125,0.042,0.146c0.019,0.053,0.136,0.229,0.223,0.362
	c0.282,0.438,0.632,0.979,0.872,1.711c0.086,0.265-0.057,0.546-0.32,0.632c-0.051,0.018-0.104,0.024-0.155,0.024
	c-0.21,0-0.406-0.135-0.475-0.347c-0.2-0.608-0.497-1.069-0.76-1.477c-0.241-0.369-0.292-0.463-0.323-0.541
	c-0.011-0.027-0.037-0.146-0.043-0.176c-0.109-0.328-0.158-0.641-0.158-0.959c0-1.098,0.559-2.102,1.458-2.623
	c0.408-0.236,0.852-0.357,1.317-0.357C21.888,19.06,22.11,19.284,22.11,19.56z"/>
</svg>
