<?xml version="1.0" encoding="utf-8"?>
<!-- Generator: Adobe Illustrator 16.0.4, SVG Export Plug-In . SVG Version: 6.00 Build 0)  -->
<!DOCTYPE svg PUBLIC "-//W3C//DTD SVG 1.1//EN" "http://www.w3.org/Graphics/SVG/1.1/DTD/svg11.dtd">
<svg version="1.1" id="Layer_1" xmlns="http://www.w3.org/2000/svg" xmlns:xlink="http://www.w3.org/1999/xlink" x="0px" y="0px"
	 width="50px" height="50px" viewBox="0 0 50 50" enable-background="new 0 0 50 50" xml:space="preserve">
<path d="M20.032,23.638c0,0.275-0.224,0.5-0.5,0.5c-0.269,0-0.524,0.07-0.765,0.209c-0.556,0.32-0.899,0.953-0.899,1.648
	c0,0.197,0.03,0.396,0.092,0.59c0.005,0.016,0.034,0.115,0.037,0.131c0.015,0.039,0.127,0.213,0.212,0.34
	c0.271,0.424,0.604,0.938,0.833,1.637c0.086,0.263-0.058,0.545-0.319,0.631c-0.053,0.017-0.104,0.023-0.156,0.023
	c-0.211,0-0.405-0.133-0.476-0.344c-0.188-0.576-0.469-1.012-0.717-1.396c-0.122-0.184-0.278-0.438-0.308-0.506
	c-0.015-0.031-0.023-0.063-0.03-0.096l0.446-0.27l-0.479,0.147c-0.091-0.291-0.137-0.59-0.137-0.889
	c0-1.052,0.535-2.015,1.398-2.515c0.394-0.229,0.818-0.344,1.266-0.344C19.809,23.138,20.032,23.36,20.032,23.638z M34.878,22.407
	v11.217c0,0.275-0.224,0.5-0.5,0.5h-5.892c-0.399,1.162-1.43,2.105-2.854,2.553c-0.05,0.016-0.1,0.023-0.15,0.023
	c-0.104,0-0.209-0.033-0.295-0.096c-0.129-0.097-0.205-0.244-0.205-0.404c0-0.016,0.004-0.07,0.006-0.086
	c0-3.002-1.288-5.104-2.444-5.104c-1.146,0-2.423,2.066-2.444,5.041c0.016,0.048,0.022,0.099,0.022,0.148
	c0,0.307-0.291,0.543-0.588,0.491c-0.027-0.002-0.056-0.006-0.082-0.016c-1.851-0.582-3.044-1.996-3.044-3.6
	c0.107-1.1,0.208-2.971,0.025-3.529c-0.121-0.363-0.328-0.686-0.529-0.996c-0.237-0.367-0.482-0.746-0.576-1.188
	c-0.133-0.412-0.206-0.889-0.206-1.369c0-1.67,0.87-3.213,2.271-4.027c1.094-0.627,2.389-0.703,3.532-0.314
	c0.267-2.299,1.757-4.024,4.035-4.801V13.8c0-0.277,0.224-0.5,0.5-0.5h4.834c0.276,0,0.5,0.223,0.5,0.5v3.049
	C33.316,17.71,34.878,19.731,34.878,22.407z M29.967,25.993c0,0.492-0.072,0.971-0.217,1.42c-0.08,0.395-0.327,0.773-0.564,1.143
	c-0.203,0.312-0.412,0.633-0.531,0.994c-0.016,0.047-0.025,0.115-0.036,0.18h5.261v-6.821h-5.062
	C29.54,23.743,29.967,24.835,29.967,25.993z M25.96,16.587c0.601-0.121,1.239-0.191,1.918-0.191s1.315,0.07,1.916,0.191v-2.285
	H25.96V16.587z M21.895,22.122c0.229,0.148,0.451,0.314,0.649,0.51c1.343-1.311,3.472-1.615,5.126-0.676
	c0.062-0.029,0.133-0.049,0.208-0.049h5.974c-0.283-3.314-3.336-4.512-5.974-4.512C25.186,17.396,22.061,18.646,21.895,22.122z
	 M27.705,29.237c0.158-0.484,0.415-0.879,0.641-1.228c0.206-0.315,0.385-0.592,0.438-0.852c0.126-0.402,0.183-0.777,0.183-1.166
	c0-1.314-0.68-2.525-1.773-3.16c-1.403-0.81-3.239-0.431-4.258,0.854c-0.095,0.121-0.238,0.188-0.392,0.188s-0.297-0.07-0.394-0.188
	c-0.262-0.332-0.584-0.591-0.928-0.8c-0.088-0.026-0.16-0.075-0.22-0.141c-0.454-0.229-0.955-0.356-1.472-0.356
	c-0.575,0-1.127,0.149-1.641,0.444c-1.091,0.635-1.771,1.847-1.771,3.16c0,0.379,0.058,0.754,0.172,1.114
	c0.067,0.31,0.245,0.582,0.449,0.898c0.226,0.348,0.479,0.74,0.64,1.227c0.311,0.943,0.053,3.593,0.021,3.894
	c0.004,0.935,0.658,1.819,1.72,2.345c0.19-3.142,1.625-5.462,3.42-5.462c1.806,0,3.246,2.349,3.426,5.457
	c1.058-0.522,1.71-1.416,1.71-2.391C27.652,32.829,27.396,30.181,27.705,29.237z M33.878,33.124v-2.395h-5.323
	c0,0.758,0.061,1.672,0.122,2.297c0,0.033-0.008,0.063-0.009,0.098H33.878z"/>
</svg>
