<?xml version="1.0" encoding="utf-8"?>
<!-- Generator: Adobe Illustrator 16.0.4, SVG Export Plug-In . SVG Version: 6.00 Build 0)  -->
<!DOCTYPE svg PUBLIC "-//W3C//DTD SVG 1.1//EN" "http://www.w3.org/Graphics/SVG/1.1/DTD/svg11.dtd">
<svg version="1.1" id="Layer_1" xmlns="http://www.w3.org/2000/svg" xmlns:xlink="http://www.w3.org/1999/xlink" x="0px" y="0px"
	 width="50px" height="50px" viewBox="0 0 50 50" enable-background="new 0 0 50 50" xml:space="preserve">
<path d="M21.539,21.972c0,0.275-0.224,0.5-0.5,0.5c-0.217,0-0.426,0.057-0.62,0.17c-0.456,0.264-0.738,0.782-0.738,1.355
	c0,0.164,0.025,0.326,0.075,0.482c0.006,0.019,0.033,0.106,0.037,0.125c0.007,0.019,0.101,0.16,0.17,0.269
	c0.22,0.341,0.522,0.808,0.722,1.417c0.086,0.264-0.057,0.545-0.319,0.631c-0.052,0.018-0.104,0.025-0.156,0.025
	c-0.21,0-0.406-0.135-0.475-0.346c-0.16-0.486-0.4-0.857-0.612-1.186c-0.106-0.165-0.246-0.393-0.27-0.451
	c-0.012-0.029-0.036-0.135-0.042-0.166c-0.089-0.271-0.13-0.535-0.13-0.802c0-0.929,0.474-1.779,1.237-2.222
	c0.348-0.202,0.726-0.305,1.122-0.305C21.314,21.472,21.539,21.695,21.539,21.972z M27.045,18.372
	c-0.002-0.531,0.205-1.032,0.58-1.411c0.377-0.379,0.879-0.589,1.414-0.59c1.104,0,2,0.896,2.002,1.995
	c0.002,1.103-0.894,2-1.996,2.001h-0.004C27.942,20.367,27.047,19.472,27.045,18.372z M28.045,18.369
	c0,0.551,0.449,0.998,0.998,0.998v0.5l0.002-0.5c0.551-0.001,0.998-0.449,0.996-0.999c0-0.55-0.449-0.997-0.998-0.997
	c-0.269,0.001-0.521,0.105-0.709,0.296C28.146,17.855,28.045,18.103,28.045,18.369z M29.539,23.286c0,0.063-0.016,0.126-0.037,0.183
	c0.691,0.202,1.201,0.836,1.201,1.592l-0.006,8.682c0,0.918-0.746,1.664-1.664,1.664s-1.664-0.746-1.664-1.664v-1.08
	c-0.293,0.23-0.635,0.443-1.068,0.58c-0.049,0.016-0.1,0.023-0.149,0.023c-0.104,0-0.209-0.033-0.296-0.098
	c-0.128-0.096-0.204-0.244-0.204-0.402c0.005-2.613-1.065-4.389-2.025-4.389s-2.029,1.775-2.029,4.322
	c0,0.16-0.074,0.342-0.203,0.436c-0.128,0.096-0.291,0.154-0.444,0.105c-1.619-0.51-2.665-1.75-2.665-3.16
	c0.093-0.945,0.179-2.539,0.025-3.01c-0.099-0.303-0.275-0.574-0.446-0.838c-0.208-0.32-0.422-0.652-0.505-1.045
	c-0.114-0.354-0.179-0.771-0.179-1.189c0-1.462,0.761-2.811,1.987-3.521c1.416-0.82,3.277-0.582,4.459,0.531
	c0.57-0.537,1.28-0.871,2.04-0.984c-0.248-0.502-0.398-1.061-0.398-1.656c0.001-2.081,1.693-3.773,3.775-3.773
	c1.012,0,1.959,0.395,2.672,1.106c0.714,0.715,1.105,1.663,1.104,2.672c-0.001,1.91-1.435,3.478-3.278,3.724L29.539,23.286z
	 M26.268,18.367c-0.001,1.531,1.244,2.777,2.773,2.777h0.002l0,0c1.529,0,2.774-1.244,2.775-2.773
	c0.001-0.742-0.287-1.438-0.812-1.964c-0.523-0.524-1.221-0.813-1.961-0.813C27.513,15.593,26.269,16.837,26.268,18.367z
	 M27.371,31.229l0.002-6.17c0-0.758,0.51-1.391,1.203-1.592c-0.022-0.057-0.037-0.117-0.037-0.184v-1.189
	c-0.875-0.117-1.656-0.527-2.234-1.141c-0.03,0.005-0.057,0.018-0.088,0.018c-0.85,0-1.651,0.396-2.198,1.086
	c-0.095,0.12-0.239,0.189-0.392,0.189c-0.153,0-0.297-0.07-0.392-0.189c-0.853-1.078-2.401-1.392-3.566-0.715
	c-0.917,0.531-1.488,1.549-1.488,2.655c0,0.317,0.049,0.633,0.145,0.937c0.057,0.26,0.206,0.488,0.378,0.756
	c0.195,0.301,0.417,0.643,0.557,1.068c0.265,0.809,0.065,2.951,0.022,3.373c0.002,0.742,0.512,1.453,1.344,1.896
	c0.193-2.682,1.441-4.65,3-4.65c1.56,0,2.81,1.973,3.002,4.605C26.894,31.803,27.133,31.547,27.371,31.229z M29.039,24.394
	c-0.179,0-0.346,0.069-0.472,0.194c-0.125,0.126-0.194,0.293-0.194,0.47l-0.004,8.684c0,0.367,0.297,0.664,0.662,0.664h0.002
	c0.366,0,0.664-0.297,0.664-0.664l0.006-8.682C29.703,24.691,29.406,24.394,29.039,24.394z"/>
</svg>
