<?xml version="1.0" encoding="utf-8"?>
<!-- Generator: Adobe Illustrator 16.0.0, SVG Export Plug-In . SVG Version: 6.00 Build 0)  -->
<!DOCTYPE svg PUBLIC "-//W3C//DTD SVG 1.1//EN" "http://www.w3.org/Graphics/SVG/1.1/DTD/svg11.dtd">
<svg version="1.1" id="Layer_1" xmlns="http://www.w3.org/2000/svg" xmlns:xlink="http://www.w3.org/1999/xlink" x="0px" y="0px"
	 width="96px" height="96px" viewBox="0 0 96 96" enable-background="new 0 0 96 96" xml:space="preserve">
<g>
	<path d="M71.671,81.847c0.1-0.026,0.192-0.061,0.281-0.106c0.681-0.344,1.162-1.362,1.382-2.801
		c-0.341-0.586-0.708-1.191-1.109-1.804c-0.373-0.659-0.771-1.342-1.195-2.033c-0.816-1.419-1.717-2.92-2.612-4.563
		c-0.461-0.802-0.936-1.639-1.392-2.511c-0.48-0.848-0.964-1.736-1.436-2.647c-0.991-1.791-1.947-3.707-2.965-5.644
		c-0.499-0.974-0.982-1.979-1.618-2.911c-0.581-0.971-1.297-1.886-2.059-2.805c-1.198-1.472-2.63-2.895-3.975-4.378
		c-1.771,2.088-1.523,9.585,3.081,18.692C62.961,78.04,69.219,82.485,71.671,81.847z"/>
	<path d="M77.243,85.396l-0.345-0.644c0,0-0.135-0.248-0.383-0.671c-0.634,0.876-1.402,1.584-2.34,2.058
		c-0.401,0.203-0.825,0.362-1.265,0.477c-6.763,1.759-14.722-7.091-19.255-16.059c-4.664-9.226-6.603-20.492-1.775-24.802
		c-0.7-1.059-1.31-2.142-1.805-3.243c-0.889-2.097-1.662-4.165-2.271-6.165c-0.627-1.996-1.105-3.917-1.476-5.703
		c-0.741-3.575-0.974-6.62-1.009-8.732c-0.01-1.055-0.084-6.006-0.096-6.043l2.271-1.037c0,0,3.862-12.187-3.615-13.896
		c-8.664,1.876-12.758,1.585-12.758,1.585c-3.664,0.953-6.064,4.298-5.98,7.926l-7.173,4.134l8.062,0.111
		c0.981,3.384,4.018,5.644,7.389,5.765c0.031,0.114,0.065,0.235,0.105,0.378c0.185,0.625,0.438,1.511,0.731,2.635
		c0.585,2.246,1.353,5.413,2.137,9.229c0.413,1.905,0.802,3.979,1.237,6.175c0.412,2.212,0.846,4.544,1.295,6.957
		c0.441,2.431,0.584,5.053,0.633,7.822c0.018,1.385,0.018,2.806,0.095,4.222c0.042,1.425,0.168,2.854,0.395,4.246
		c0.224,1.395,0.577,2.759,1.02,4.074c0.478,1.312,1.047,2.571,1.696,3.791c1.276,2.451,2.69,4.798,4.219,6.995
		c1.525,2.193,3.153,4.233,4.855,6.055c1.678,1.831,3.433,3.447,5.137,4.831c0.87,0.682,1.689,1.335,2.515,1.91
		c0.838,0.569,1.646,1.084,2.41,1.553c1.521,0.947,2.986,1.602,4.13,2.166c1.207,0.504,2.187,0.827,2.843,1.052
		c0.653,0.23,1.017,0.32,1.017,0.32c1.526,0.376,3.203,0.214,4.695-0.59C77.771,92.561,78.963,88.583,77.243,85.396z"/>
</g>
</svg>
