<?xml version="1.0" encoding="utf-8"?>
<!-- Generator: Adobe Illustrator 16.0.4, SVG Export Plug-In . SVG Version: 6.00 Build 0)  -->
<!DOCTYPE svg PUBLIC "-//W3C//DTD SVG 1.1//EN" "http://www.w3.org/Graphics/SVG/1.1/DTD/svg11.dtd">
<svg version="1.1" id="Layer_1" xmlns="http://www.w3.org/2000/svg" xmlns:xlink="http://www.w3.org/1999/xlink" x="0px" y="0px"
	 width="50px" height="50px" viewBox="0 0 50 50" enable-background="new 0 0 50 50" xml:space="preserve">
<path d="M20.667,21.474c0,0.276-0.225,0.5-0.5,0.5c-0.219,0-0.426,0.058-0.621,0.17c-0.455,0.265-0.738,0.783-0.738,1.356
	c0,0.164,0.025,0.326,0.076,0.483c0.006,0.018,0.033,0.105,0.035,0.125c0.008,0.018,0.102,0.158,0.172,0.268
	c0.221,0.341,0.521,0.809,0.723,1.418c0.086,0.262-0.059,0.545-0.319,0.631c-0.054,0.018-0.104,0.024-0.156,0.024
	c-0.209,0-0.405-0.134-0.476-0.345c-0.159-0.487-0.399-0.858-0.61-1.187c-0.106-0.165-0.246-0.394-0.271-0.451
	c-0.012-0.028-0.037-0.135-0.043-0.166c-0.09-0.271-0.131-0.534-0.131-0.802c0-0.93,0.476-1.779,1.236-2.223
	c0.35-0.201,0.727-0.305,1.123-0.305C20.442,20.974,20.667,21.196,20.667,21.474z M33.671,32.078l-0.002,1.735
	c0,0.275-0.223,0.5-0.5,0.5h-6.498c-0.277,0-0.5-0.225-0.5-0.5v-1.385c-0.236,0.122-0.482,0.232-0.74,0.313
	c-0.051,0.016-0.1,0.022-0.149,0.022c-0.105,0-0.21-0.033-0.298-0.097c-0.127-0.095-0.202-0.244-0.202-0.403
	c0.004-2.611-1.066-4.388-2.025-4.388c-0.961,0-2.028,1.774-2.028,4.322c0,0.159-0.074,0.342-0.203,0.437
	c-0.129,0.094-0.293,0.154-0.445,0.105c-1.619-0.512-2.664-1.752-2.664-3.16c0.092-0.945,0.18-2.54,0.025-3.01
	c-0.101-0.303-0.277-0.575-0.447-0.84c-0.207-0.319-0.422-0.651-0.504-1.045c-0.115-0.354-0.18-0.77-0.18-1.188
	c0-1.462,0.762-2.812,1.985-3.521c1.418-0.822,3.279-0.584,4.461,0.53c1.037-0.978,2.595-1.28,3.918-0.786l0.039-0.931
	c0.013-0.269,0.229-0.479,0.5-0.479h0.959v-2.125c0-0.276,0.224-0.5,0.5-0.5h2.5c0.134,0,0.261,0.053,0.354,0.146
	s0.146,0.221,0.146,0.354l-0.002,2.125h0.916c0.269,0,0.488,0.211,0.5,0.479l0.578,13.027c0.019,0.05,0.026,0.104,0.026,0.16
	C33.69,32.015,33.677,32.045,33.671,32.078z M29.171,18.252h1.498l0.002-1.563h-1.5V18.252z M27.69,19.313l-0.5,12.166h5.457
	l-0.541-12.166H27.69z M25.761,31.522c0.16-0.086,0.303-0.191,0.439-0.299l0.428-10.418c-1.154-0.615-2.646-0.299-3.482,0.754
	c-0.094,0.119-0.237,0.188-0.391,0.188c-0.154,0-0.297-0.07-0.393-0.188c-0.854-1.078-2.4-1.392-3.566-0.716
	c-0.918,0.531-1.488,1.55-1.488,2.655c0,0.316,0.049,0.633,0.146,0.938c0.058,0.258,0.207,0.487,0.379,0.754
	c0.194,0.303,0.416,0.645,0.558,1.069c0.266,0.808,0.063,2.951,0.021,3.373c0.004,0.741,0.514,1.452,1.344,1.896
	c0.193-2.682,1.443-4.649,3.002-4.649C24.321,26.879,25.577,28.87,25.761,31.522z M32.669,33.313l0.002-0.834h-5.5v0.834H32.669z"/>
</svg>
