<?xml version="1.0" encoding="utf-8"?>
<!-- Generator: Adobe Illustrator 16.0.4, SVG Export Plug-In . SVG Version: 6.00 Build 0)  -->
<!DOCTYPE svg PUBLIC "-//W3C//DTD SVG 1.1//EN" "http://www.w3.org/Graphics/SVG/1.1/DTD/svg11.dtd">
<svg version="1.1" id="Layer_1" xmlns="http://www.w3.org/2000/svg" xmlns:xlink="http://www.w3.org/1999/xlink" x="0px" y="0px"
	 width="50px" height="50px" viewBox="0 0 50 50" enable-background="new 0 0 50 50" xml:space="preserve">
<path d="M22.49,21.101c0,0.275-0.224,0.5-0.5,0.5c-0.217,0-0.426,0.058-0.62,0.17c-0.456,0.265-0.738,0.783-0.738,1.355
	c0,0.164,0.025,0.326,0.075,0.484c0.006,0.018,0.033,0.104,0.037,0.125c0.007,0.018,0.101,0.158,0.17,0.268
	c0.22,0.34,0.522,0.807,0.722,1.418c0.086,0.262-0.057,0.545-0.319,0.631c-0.052,0.016-0.104,0.023-0.156,0.023
	c-0.21,0-0.406-0.133-0.475-0.344c-0.16-0.488-0.4-0.859-0.612-1.187c-0.106-0.166-0.246-0.394-0.27-0.451
	c-0.012-0.028-0.036-0.135-0.042-0.166c-0.089-0.271-0.13-0.534-0.13-0.803c0-0.929,0.474-1.779,1.237-2.222
	c0.348-0.202,0.726-0.305,1.122-0.305C22.266,20.601,22.49,20.823,22.49,21.101z M31.869,18.815c0,0.276-0.225,0.5-0.5,0.5h-1.625
	v4.061c0,0.039-0.015,0.072-0.021,0.107c0.592,0.201,1.021,0.756,1.021,1.416v7.453c0,0.828-0.674,1.5-1.5,1.5
	c-0.828,0-1.5-0.672-1.5-1.5v-0.187c-0.146,0.074-0.302,0.144-0.49,0.203c-0.049,0.016-0.101,0.022-0.15,0.022
	c-0.105,0-0.209-0.033-0.295-0.098c-0.129-0.094-0.205-0.244-0.205-0.402c0.004-2.613-1.064-4.389-2.025-4.389
	c-0.96,0-2.029,1.775-2.029,4.322c0,0.16-0.075,0.342-0.203,0.438c-0.128,0.094-0.292,0.154-0.445,0.105
	c-1.619-0.512-2.665-1.752-2.665-3.16c0.093-0.945,0.179-2.541,0.025-3.01c-0.099-0.303-0.275-0.576-0.446-0.84
	c-0.208-0.32-0.422-0.652-0.505-1.045c-0.114-0.354-0.179-0.771-0.179-1.189c0-1.461,0.761-2.811,1.987-3.52
	c1.416-0.822,3.277-0.584,4.459,0.53c1.104-1.041,2.792-1.305,4.167-0.67v-2.817c0-0.277,0.223-0.5,0.5-0.5h2.125
	c0.275,0,0.5,0.223,0.5,0.5c0,0.274-0.225,0.5-0.5,0.5h-1.625v1.166h1.625C31.645,18.315,31.869,18.54,31.869,18.815z
	 M27.744,30.991v-6.092c0-0.66,0.43-1.215,1.021-1.416c-0.009-0.035-0.021-0.068-0.021-0.107v-2.844
	c-0.072-0.006-0.142-0.023-0.207-0.061c-1.168-0.679-2.713-0.363-3.569,0.715c-0.095,0.119-0.239,0.188-0.392,0.188
	c-0.153,0-0.297-0.069-0.392-0.188c-0.853-1.08-2.4-1.392-3.566-0.715c-0.917,0.53-1.488,1.549-1.488,2.653
	c0,0.317,0.049,0.633,0.145,0.938c0.057,0.258,0.206,0.487,0.378,0.754c0.195,0.303,0.417,0.645,0.557,1.07
	c0.265,0.807,0.065,2.95,0.022,3.372c0.002,0.74,0.512,1.451,1.344,1.896c0.193-2.682,1.441-4.65,3-4.65
	c1.56,0,2.809,1.971,3.003,4.604C27.631,31.073,27.688,31.03,27.744,30.991z M29.744,24.899c0-0.275-0.225-0.5-0.5-0.5
	c-0.277,0-0.5,0.225-0.5,0.5v7.453c0,0.274,0.223,0.5,0.5,0.5c0.275,0,0.5-0.226,0.5-0.5V24.899z"/>
</svg>
