<?xml version="1.0" encoding="utf-8"?>
<!-- Generator: Adobe Illustrator 17.1.0, SVG Export Plug-In . SVG Version: 6.00 Build 0)  -->
<!DOCTYPE svg PUBLIC "-//W3C//DTD SVG 1.1//EN" "http://www.w3.org/Graphics/SVG/1.1/DTD/svg11.dtd">
<svg version="1.1" xmlns="http://www.w3.org/2000/svg" xmlns:xlink="http://www.w3.org/1999/xlink" x="0px" y="0px"
	 viewBox="0 0 64 64" enable-background="new 0 0 64 64" xml:space="preserve">
<g id="Imagenes">
</g>
<g id="Layer_2">
	<path d="M61.641,39.05c-2.517,0-8.955,1.976-16.021,4.917c-1.182,0.492-2.359,1.002-3.514,1.523
		c0.87-0.913,1.741-1.854,2.602-2.811c3.099-3.448,5.838-6.849,7.715-9.578c2.768-4.024,2.624-5.03,2.119-5.483
		c-0.11-0.1-0.306-0.218-0.61-0.218c-1.989,0-8.299,6.012-13.319,11.598c-0.06,0.066-0.119,0.133-0.179,0.199
		c0.033-0.082,0.066-0.164,0.1-0.247c1.723-4.304,3.125-8.44,3.947-11.648c1.213-4.73,0.732-5.626,0.103-5.878
		c-0.095-0.038-0.196-0.056-0.301-0.056c-2.471,0-8.215,14.173-8.861,15.788c-0.134,0.333-0.265,0.637-0.393,0.931
		c-0.07,0.16-0.139,0.324-0.207,0.485c0.031-1.206,0.048-2.435,0.048-3.643c0-1.812-0.075-17.528-2.666-17.873L32.079,17h-0.193
		c-2.676,0-2.753,16.124-2.753,17.967c0,1.202,0.017,2.395,0.048,3.597c-0.068-0.161-0.138-0.32-0.207-0.48
		c-0.129-0.295-0.26-0.596-0.394-0.93c-0.256-0.639-6.299-15.663-8.858-15.663c-0.105,0-0.207,0.02-0.303,0.058
		c-0.63,0.252-1.11,1.144,0.103,5.848c0.82,3.181,2.222,7.306,3.947,11.616c0.021,0.055,0.043,0.109,0.065,0.163
		c-0.048-0.054-0.097-0.107-0.145-0.161c-5.024-5.59-11.335-11.606-13.32-11.606c-0.305,0-0.5,0.118-0.61,0.217
		c-0.505,0.454-0.647,1.46,2.12,5.482c1.875,2.726,4.615,6.127,7.715,9.575c0.85,0.946,1.69,1.849,2.513,2.713
		c-0.005,0.017-0.01,0.033-0.016,0.05c-1.15-0.519-2.295-1.016-3.409-1.479C11.315,41.027,4.877,39.05,2.36,39.05
		c-0.294,0-1.187,0-1.448,0.628c-0.261,0.627,0.043,1.597,4.271,4.041c2.867,1.657,6.804,3.551,11.083,5.332
		c1.496,0.623,2.999,1.216,4.48,1.767c-0.464-0.008-0.934-0.014-1.409-0.017L18.604,50.8c-2.846,0-17.044,0.128-17.058,2.658
		c-0.004,0.679,0.645,1.461,5.484,2.119c3.281,0.446,7.641,0.706,12.276,0.731c0.8,0.004,1.585,0.049,2.354,0.092
		c0.952,0.054,1.883,0.105,2.778,0.083c1.192,0.862,2.305,1.327,3.385,1.458C28.02,57.977,28.218,58,28.419,58h0h6.162h0
		c0.2,0,0.398-0.023,0.594-0.058c1.078-0.13,2.191-0.595,3.382-1.455c1,0.028,2.038,0.005,3.104-0.02
		c0.645-0.015,1.299-0.03,1.963-0.034c4.608-0.025,8.969-0.296,12.279-0.763c4.837-0.682,5.485-1.47,5.481-2.15
		c-0.004-0.666-0.633-1.43-5.271-2.044c-3.142-0.417-7.335-0.646-11.808-0.646l-1.076,0.004c1.441-0.539,2.949-1.136,4.506-1.784
		c1.68-0.699,16.38-6.902,15.354-9.373C62.827,39.05,61.934,39.05,61.641,39.05z"/>
</g>
</svg>
