<?xml version="1.0" encoding="utf-8"?>
<!-- Generator: Adobe Illustrator 17.1.0, SVG Export Plug-In . SVG Version: 6.00 Build 0)  -->
<!DOCTYPE svg PUBLIC "-//W3C//DTD SVG 1.1//EN" "http://www.w3.org/Graphics/SVG/1.1/DTD/svg11.dtd">
<svg version="1.1" xmlns="http://www.w3.org/2000/svg" xmlns:xlink="http://www.w3.org/1999/xlink" x="0px" y="0px"
	 viewBox="0 0 64 64" enable-background="new 0 0 64 64" xml:space="preserve">
<g id="Imagenes">
</g>
<g id="Layer_2">
	<path d="M54.439,51l2.508-34H29.901l3.864,34H54.439z M54.372,20l-1.288,5.035c-10.303-5.152-12.879,5.21-19.319,0.058L32.477,20
		H54.372z"/>
	<path d="M23.774,47.125c5.533-5.533,5.533-14.503,0-20.035l-1.854,1.854c4.755,5.405,4.808,11.584,0.032,16.36
		c-4.776,4.776-10.955,4.722-16.36-0.032l-1.854,1.854C9.271,52.657,18.242,52.657,23.774,47.125z"/>
	<path d="M20.131,43.482c1.308-1.308,2.083-2.615,2.485-3.885l-8.512-2.837l-1.043-0.348l0.348,1.043l2.837,8.512
		C17.517,45.565,18.823,44.79,20.131,43.482z"/>
	<path d="M10.917,38.125l-4.446,4.446c0.285,0.285,0.606,0.58,0.948,0.873c1.597,1.373,3.774,2.699,6.219,2.843l-2.266-6.797
		L10.917,38.125z"/>
	<path d="M20.094,30.769c-0.294-0.342-0.588-0.663-0.874-0.948l-4.446,4.446l1.366,0.455l6.797,2.265
		C22.793,34.543,21.467,32.367,20.094,30.769z"/>
</g>
</svg>
